M48
; DRILL file {KiCad (5.1.2)-1} date 5/18/2019 14:04:47
; FORMAT={2:4/ absolute / inch / suppress leading zeros}
; #@! TF.CreationDate,2019-05-18T14:04:47+12:00
; #@! TF.GenerationSoftware,Kicad,Pcbnew,(5.1.2)-1
FMAT,2
INCH,TZ
T1C0.0138
T2C0.0157
T3C0.0197
T4C0.0394
T5C0.0236
T6C0.0394
T7C0.1260
%
G90
G05
T1
X52756Y-32087
X52756Y-32520
X52756Y-32953
X52874Y-42047
X53268Y-32087
X53268Y-32520
X53268Y-32953
X55984Y-30118
X56181Y-35472
X56575Y-30118
X58110Y-43346
X58504Y-35630
X58504Y-43543
X59094Y-36211
X59409Y-36220
X59776Y-36587
X60003Y-36066
X60118Y-44488
X60748Y-43071
X60827Y-43740
X60906Y-44213
X61220Y-37047
X61299Y-33307
X61417Y-34213
X61417Y-39488
X61535Y-32307
X61654Y-40000
X61890Y-30276
X61890Y-31220
X62047Y-38307
X62402Y-35906
X62431Y-37411
X62441Y-31693
X62520Y-35157
X62598Y-43307
X63268Y-30276
X63268Y-30866
X64331Y-31575
X64764Y-32807
X64764Y-33307
T2
X51457Y-31378
X51575Y-41732
X51811Y-44528
X51919Y-41742
X52165Y-41969
X52362Y-41614
X52874Y-43465
X53150Y-29528
X53150Y-29921
X53150Y-30315
X53543Y-30315
X53858Y-42047
X53937Y-30315
X54331Y-44488
X54419Y-41852
X54724Y-31457
X55008Y-40677
X55042Y-40309
X55354Y-31732
X55512Y-36378
X55630Y-37244
X55669Y-42323
X55748Y-43425
X55748Y-44094
X55945Y-36457
X56181Y-44606
X56299Y-41417
X56299Y-42953
X56417Y-39646
X56493Y-37910
X56732Y-41102
X56890Y-35472
X56929Y-32362
X57008Y-43504
X57087Y-40079
X57087Y-42953
X57165Y-41102
X57402Y-40512
X57441Y-35984
X57598Y-31693
X57756Y-36299
X57854Y-40079
X58189Y-42520
X58386Y-40512
X58543Y-42520
X58740Y-37835
X58780Y-40512
X59042Y-40748
X59060Y-41063
X59094Y-35591
X59213Y-37835
X59252Y-34055
X59291Y-38465
X59291Y-38858
X59370Y-39724
X59577Y-38189
X59606Y-41102
X59646Y-43858
X59882Y-34213
X60079Y-41850
X60197Y-36732
X60197Y-43740
X60591Y-34252
X60906Y-36142
X61614Y-36063
X62165Y-40984
X62323Y-36811
X63150Y-43425
X63504Y-43071
T3
X50787Y-35787
X50866Y-40197
X51772Y-39813
X51890Y-37520
X51969Y-35315
X52126Y-38110
X52126Y-39213
X52835Y-39764
X53110Y-38898
X54016Y-37303
X55118Y-38110
X55984Y-37008
X63917Y-39114
X63937Y-36811
X64528Y-35000
T4
X50394Y-41929
X50394Y-42929
X50394Y-43929
X50394Y-44929
X52953Y-45638
X53953Y-45638
X54953Y-45638
X55953Y-45638
X56953Y-45638
X57953Y-45638
X58953Y-45638
X59953Y-45638
X60953Y-45638
X61953Y-45638
X52953Y-46634
X53953Y-46634
X54953Y-46634
X55953Y-46634
X56953Y-46634
X57953Y-46634
X58953Y-46634
X59953Y-46634
X60953Y-46634
X61953Y-46634
X52953Y-47638
X53953Y-47638
X54953Y-47638
X55953Y-47638
X56953Y-47638
X57953Y-47638
X58953Y-47638
X59953Y-47638
X60953Y-47638
X61953Y-47638
X62953Y-44638
X62953Y-45638
X62953Y-46638
X62953Y-47638
X53937Y-29528
X54937Y-29528
X65354Y-41929
X65354Y-42929
X65354Y-43929
X65354Y-44929
X50394Y-37402
X50394Y-38402
X50394Y-39402
X65354Y-37402
X65354Y-38402
X65354Y-39402
X65354Y-40402
T5
X64331Y-32559
X64331Y-34055
T6
X58209Y-30717
X61358Y-30717
T7
X50787Y-29921
X64961Y-29921
X64961Y-47244
X50787Y-47244
T0
M30
