G04 #@! TF.GenerationSoftware,KiCad,Pcbnew,(5.1.2)-1*
G04 #@! TF.CreationDate,2019-05-18T14:04:30+12:00*
G04 #@! TF.ProjectId,SimpleFCv2,53696d70-6c65-4464-9376-322e6b696361,rev?*
G04 #@! TF.SameCoordinates,Original*
G04 #@! TF.FileFunction,Legend,Bot*
G04 #@! TF.FilePolarity,Positive*
%FSLAX46Y46*%
G04 Gerber Fmt 4.6, Leading zero omitted, Abs format (unit mm)*
G04 Created by KiCad (PCBNEW (5.1.2)-1) date 2019-05-18 14:04:30*
%MOMM*%
%LPD*%
G04 APERTURE LIST*
%ADD10C,0.150000*%
%ADD11C,0.200000*%
%ADD12C,0.120000*%
%ADD13C,0.100000*%
%ADD14C,0.254000*%
G04 APERTURE END LIST*
D10*
X161807023Y-118952380D02*
X161807023Y-117952380D01*
X161807023Y-118428571D02*
X161235595Y-118428571D01*
X161235595Y-118952380D02*
X161235595Y-117952380D01*
X161092738Y-116452380D02*
X161568928Y-116452380D01*
X161568928Y-115452380D01*
X160090476Y-111252380D02*
X160566666Y-111252380D01*
X160614285Y-111728571D01*
X160566666Y-111680952D01*
X160471428Y-111633333D01*
X160233333Y-111633333D01*
X160138095Y-111680952D01*
X160090476Y-111728571D01*
X160042857Y-111823809D01*
X160042857Y-112061904D01*
X160090476Y-112157142D01*
X160138095Y-112204761D01*
X160233333Y-112252380D01*
X160471428Y-112252380D01*
X160566666Y-112204761D01*
X160614285Y-112157142D01*
X159757142Y-111252380D02*
X159423809Y-112252380D01*
X159090476Y-111252380D01*
X166714285Y-115700000D02*
X166809523Y-115652380D01*
X166952380Y-115652380D01*
X167095238Y-115700000D01*
X167190476Y-115795238D01*
X167238095Y-115890476D01*
X167285714Y-116080952D01*
X167285714Y-116223809D01*
X167238095Y-116414285D01*
X167190476Y-116509523D01*
X167095238Y-116604761D01*
X166952380Y-116652380D01*
X166857142Y-116652380D01*
X166714285Y-116604761D01*
X166666666Y-116557142D01*
X166666666Y-116223809D01*
X166857142Y-116223809D01*
X166238095Y-116652380D02*
X166238095Y-115652380D01*
X165857142Y-115652380D01*
X165761904Y-115700000D01*
X165714285Y-115747619D01*
X165666666Y-115842857D01*
X165666666Y-115985714D01*
X165714285Y-116080952D01*
X165761904Y-116128571D01*
X165857142Y-116176190D01*
X166238095Y-116176190D01*
X165285714Y-116604761D02*
X165142857Y-116652380D01*
X164904761Y-116652380D01*
X164809523Y-116604761D01*
X164761904Y-116557142D01*
X164714285Y-116461904D01*
X164714285Y-116366666D01*
X164761904Y-116271428D01*
X164809523Y-116223809D01*
X164904761Y-116176190D01*
X165095238Y-116128571D01*
X165190476Y-116080952D01*
X165238095Y-116033333D01*
X165285714Y-115938095D01*
X165285714Y-115842857D01*
X165238095Y-115747619D01*
X165190476Y-115700000D01*
X165095238Y-115652380D01*
X164857142Y-115652380D01*
X164714285Y-115700000D01*
X167595238Y-92452380D02*
X167023809Y-92452380D01*
X167309523Y-93452380D02*
X167309523Y-92452380D01*
X166690476Y-92928571D02*
X166357142Y-92928571D01*
X166214285Y-93452380D02*
X166690476Y-93452380D01*
X166690476Y-92452380D01*
X166214285Y-92452380D01*
X165309523Y-93452380D02*
X165785714Y-93452380D01*
X165785714Y-92452380D01*
X164976190Y-92928571D02*
X164642857Y-92928571D01*
X164500000Y-93452380D02*
X164976190Y-93452380D01*
X164976190Y-92452380D01*
X164500000Y-92452380D01*
X163988214Y-113652380D02*
X164464404Y-113652380D01*
X164512023Y-114128571D01*
X164464404Y-114080952D01*
X164369166Y-114033333D01*
X164131071Y-114033333D01*
X164035833Y-114080952D01*
X163988214Y-114128571D01*
X163940595Y-114223809D01*
X163940595Y-114461904D01*
X163988214Y-114557142D01*
X164035833Y-114604761D01*
X164131071Y-114652380D01*
X164369166Y-114652380D01*
X164464404Y-114604761D01*
X164512023Y-114557142D01*
X163654880Y-113652380D02*
X163321547Y-114652380D01*
X162988214Y-113652380D01*
X164607261Y-112052380D02*
X164035833Y-112052380D01*
X164321547Y-113052380D02*
X164321547Y-112052380D01*
X163797738Y-112052380D02*
X163131071Y-113052380D01*
X163131071Y-112052380D02*
X163797738Y-113052380D01*
X163892976Y-108452380D02*
X164226309Y-107976190D01*
X164464404Y-108452380D02*
X164464404Y-107452380D01*
X164083452Y-107452380D01*
X163988214Y-107500000D01*
X163940595Y-107547619D01*
X163892976Y-107642857D01*
X163892976Y-107785714D01*
X163940595Y-107880952D01*
X163988214Y-107928571D01*
X164083452Y-107976190D01*
X164464404Y-107976190D01*
X163559642Y-107452380D02*
X162892976Y-108452380D01*
X162892976Y-107452380D02*
X163559642Y-108452380D01*
X163988214Y-102052380D02*
X164464404Y-102052380D01*
X164512023Y-102528571D01*
X164464404Y-102480952D01*
X164369166Y-102433333D01*
X164131071Y-102433333D01*
X164035833Y-102480952D01*
X163988214Y-102528571D01*
X163940595Y-102623809D01*
X163940595Y-102861904D01*
X163988214Y-102957142D01*
X164035833Y-103004761D01*
X164131071Y-103052380D01*
X164369166Y-103052380D01*
X164464404Y-103004761D01*
X164512023Y-102957142D01*
X163654880Y-102052380D02*
X163321547Y-103052380D01*
X162988214Y-102052380D01*
X164607261Y-99552380D02*
X164035833Y-99552380D01*
X164321547Y-100552380D02*
X164321547Y-99552380D01*
X163797738Y-99552380D02*
X163131071Y-100552380D01*
X163131071Y-99552380D02*
X163797738Y-100552380D01*
X163892976Y-98052380D02*
X164226309Y-97576190D01*
X164464404Y-98052380D02*
X164464404Y-97052380D01*
X164083452Y-97052380D01*
X163988214Y-97100000D01*
X163940595Y-97147619D01*
X163892976Y-97242857D01*
X163892976Y-97385714D01*
X163940595Y-97480952D01*
X163988214Y-97528571D01*
X164083452Y-97576190D01*
X164464404Y-97576190D01*
X163559642Y-97052380D02*
X162892976Y-98052380D01*
X162892976Y-97052380D02*
X163559642Y-98052380D01*
X163940595Y-94500000D02*
X164035833Y-94452380D01*
X164178690Y-94452380D01*
X164321547Y-94500000D01*
X164416785Y-94595238D01*
X164464404Y-94690476D01*
X164512023Y-94880952D01*
X164512023Y-95023809D01*
X164464404Y-95214285D01*
X164416785Y-95309523D01*
X164321547Y-95404761D01*
X164178690Y-95452380D01*
X164083452Y-95452380D01*
X163940595Y-95404761D01*
X163892976Y-95357142D01*
X163892976Y-95023809D01*
X164083452Y-95023809D01*
X163464404Y-95452380D02*
X163464404Y-94452380D01*
X162892976Y-95452380D01*
X162892976Y-94452380D01*
X162416785Y-95452380D02*
X162416785Y-94452380D01*
X162178690Y-94452380D01*
X162035833Y-94500000D01*
X161940595Y-94595238D01*
X161892976Y-94690476D01*
X161845357Y-94880952D01*
X161845357Y-95023809D01*
X161892976Y-95214285D01*
X161940595Y-95309523D01*
X162035833Y-95404761D01*
X162178690Y-95452380D01*
X162416785Y-95452380D01*
X163940595Y-106000000D02*
X164035833Y-105952380D01*
X164178690Y-105952380D01*
X164321547Y-106000000D01*
X164416785Y-106095238D01*
X164464404Y-106190476D01*
X164512023Y-106380952D01*
X164512023Y-106523809D01*
X164464404Y-106714285D01*
X164416785Y-106809523D01*
X164321547Y-106904761D01*
X164178690Y-106952380D01*
X164083452Y-106952380D01*
X163940595Y-106904761D01*
X163892976Y-106857142D01*
X163892976Y-106523809D01*
X164083452Y-106523809D01*
X163464404Y-106952380D02*
X163464404Y-105952380D01*
X162892976Y-106952380D01*
X162892976Y-105952380D01*
X162416785Y-106952380D02*
X162416785Y-105952380D01*
X162178690Y-105952380D01*
X162035833Y-106000000D01*
X161940595Y-106095238D01*
X161892976Y-106190476D01*
X161845357Y-106380952D01*
X161845357Y-106523809D01*
X161892976Y-106714285D01*
X161940595Y-106809523D01*
X162035833Y-106904761D01*
X162178690Y-106952380D01*
X162416785Y-106952380D01*
X157519047Y-114221547D02*
X157566666Y-114316785D01*
X157614285Y-114364404D01*
X157709523Y-114412023D01*
X157757142Y-114412023D01*
X157852380Y-114364404D01*
X157900000Y-114316785D01*
X157947619Y-114221547D01*
X157947619Y-114031071D01*
X157900000Y-113935833D01*
X157852380Y-113888214D01*
X157757142Y-113840595D01*
X157709523Y-113840595D01*
X157614285Y-113888214D01*
X157566666Y-113935833D01*
X157519047Y-114031071D01*
X157519047Y-114221547D01*
X157471428Y-114316785D01*
X157423809Y-114364404D01*
X157328571Y-114412023D01*
X157138095Y-114412023D01*
X157042857Y-114364404D01*
X156995238Y-114316785D01*
X156947619Y-114221547D01*
X156947619Y-114031071D01*
X156995238Y-113935833D01*
X157042857Y-113888214D01*
X157138095Y-113840595D01*
X157328571Y-113840595D01*
X157423809Y-113888214D01*
X157471428Y-113935833D01*
X157519047Y-114031071D01*
X155347619Y-114459642D02*
X155347619Y-113792976D01*
X154347619Y-114221547D01*
X152847619Y-113935833D02*
X152847619Y-114126309D01*
X152800000Y-114221547D01*
X152752380Y-114269166D01*
X152609523Y-114364404D01*
X152419047Y-114412023D01*
X152038095Y-114412023D01*
X151942857Y-114364404D01*
X151895238Y-114316785D01*
X151847619Y-114221547D01*
X151847619Y-114031071D01*
X151895238Y-113935833D01*
X151942857Y-113888214D01*
X152038095Y-113840595D01*
X152276190Y-113840595D01*
X152371428Y-113888214D01*
X152419047Y-113935833D01*
X152466666Y-114031071D01*
X152466666Y-114221547D01*
X152419047Y-114316785D01*
X152371428Y-114364404D01*
X152276190Y-114412023D01*
X150347619Y-113888214D02*
X150347619Y-114364404D01*
X149871428Y-114412023D01*
X149919047Y-114364404D01*
X149966666Y-114269166D01*
X149966666Y-114031071D01*
X149919047Y-113935833D01*
X149871428Y-113888214D01*
X149776190Y-113840595D01*
X149538095Y-113840595D01*
X149442857Y-113888214D01*
X149395238Y-113935833D01*
X149347619Y-114031071D01*
X149347619Y-114269166D01*
X149395238Y-114364404D01*
X149442857Y-114412023D01*
X147414285Y-113935833D02*
X146747619Y-113935833D01*
X147795238Y-114173928D02*
X147080952Y-114412023D01*
X147080952Y-113792976D01*
X145247619Y-114459642D02*
X145247619Y-113840595D01*
X144866666Y-114173928D01*
X144866666Y-114031071D01*
X144819047Y-113935833D01*
X144771428Y-113888214D01*
X144676190Y-113840595D01*
X144438095Y-113840595D01*
X144342857Y-113888214D01*
X144295238Y-113935833D01*
X144247619Y-114031071D01*
X144247619Y-114316785D01*
X144295238Y-114412023D01*
X144342857Y-114459642D01*
X142552380Y-114412023D02*
X142600000Y-114364404D01*
X142647619Y-114269166D01*
X142647619Y-114031071D01*
X142600000Y-113935833D01*
X142552380Y-113888214D01*
X142457142Y-113840595D01*
X142361904Y-113840595D01*
X142219047Y-113888214D01*
X141647619Y-114459642D01*
X141647619Y-113840595D01*
X139147619Y-113840595D02*
X139147619Y-114412023D01*
X139147619Y-114126309D02*
X140147619Y-114126309D01*
X140004761Y-114221547D01*
X139909523Y-114316785D01*
X139861904Y-114412023D01*
X136447619Y-113792976D02*
X136923809Y-114126309D01*
X136447619Y-114364404D02*
X137447619Y-114364404D01*
X137447619Y-113983452D01*
X137400000Y-113888214D01*
X137352380Y-113840595D01*
X137257142Y-113792976D01*
X137114285Y-113792976D01*
X137019047Y-113840595D01*
X136971428Y-113888214D01*
X136923809Y-113983452D01*
X136923809Y-114364404D01*
X136542857Y-112792976D02*
X136495238Y-112840595D01*
X136447619Y-112983452D01*
X136447619Y-113078690D01*
X136495238Y-113221547D01*
X136590476Y-113316785D01*
X136685714Y-113364404D01*
X136876190Y-113412023D01*
X137019047Y-113412023D01*
X137209523Y-113364404D01*
X137304761Y-113316785D01*
X137400000Y-113221547D01*
X137447619Y-113078690D01*
X137447619Y-112983452D01*
X137400000Y-112840595D01*
X137352380Y-112792976D01*
X136447619Y-111840595D02*
X136447619Y-112412023D01*
X136447619Y-112126309D02*
X137447619Y-112126309D01*
X137304761Y-112221547D01*
X137209523Y-112316785D01*
X137161904Y-112412023D01*
X134047619Y-113792976D02*
X134523809Y-114126309D01*
X134047619Y-114364404D02*
X135047619Y-114364404D01*
X135047619Y-113983452D01*
X135000000Y-113888214D01*
X134952380Y-113840595D01*
X134857142Y-113792976D01*
X134714285Y-113792976D01*
X134619047Y-113840595D01*
X134571428Y-113888214D01*
X134523809Y-113983452D01*
X134523809Y-114364404D01*
X134142857Y-112792976D02*
X134095238Y-112840595D01*
X134047619Y-112983452D01*
X134047619Y-113078690D01*
X134095238Y-113221547D01*
X134190476Y-113316785D01*
X134285714Y-113364404D01*
X134476190Y-113412023D01*
X134619047Y-113412023D01*
X134809523Y-113364404D01*
X134904761Y-113316785D01*
X135000000Y-113221547D01*
X135047619Y-113078690D01*
X135047619Y-112983452D01*
X135000000Y-112840595D01*
X134952380Y-112792976D01*
X134952380Y-112412023D02*
X135000000Y-112364404D01*
X135047619Y-112269166D01*
X135047619Y-112031071D01*
X135000000Y-111935833D01*
X134952380Y-111888214D01*
X134857142Y-111840595D01*
X134761904Y-111840595D01*
X134619047Y-111888214D01*
X134047619Y-112459642D01*
X134047619Y-111840595D01*
D11*
X142571428Y-75107142D02*
X141428571Y-75107142D01*
X142000000Y-75678571D02*
X142000000Y-74535714D01*
X134771428Y-75107142D02*
X133628571Y-75107142D01*
D10*
X130192738Y-113652380D02*
X130668928Y-113652380D01*
X130716547Y-114128571D01*
X130668928Y-114080952D01*
X130573690Y-114033333D01*
X130335595Y-114033333D01*
X130240357Y-114080952D01*
X130192738Y-114128571D01*
X130145119Y-114223809D01*
X130145119Y-114461904D01*
X130192738Y-114557142D01*
X130240357Y-114604761D01*
X130335595Y-114652380D01*
X130573690Y-114652380D01*
X130668928Y-114604761D01*
X130716547Y-114557142D01*
X129859404Y-113652380D02*
X129526071Y-114652380D01*
X129192738Y-113652380D01*
X130716547Y-112666666D02*
X130240357Y-112666666D01*
X130811785Y-112952380D02*
X130478452Y-111952380D01*
X130145119Y-112952380D01*
X129859404Y-112047619D02*
X129811785Y-112000000D01*
X129716547Y-111952380D01*
X129478452Y-111952380D01*
X129383214Y-112000000D01*
X129335595Y-112047619D01*
X129287976Y-112142857D01*
X129287976Y-112238095D01*
X129335595Y-112380952D01*
X129907023Y-112952380D01*
X129287976Y-112952380D01*
X130716547Y-108466666D02*
X130240357Y-108466666D01*
X130811785Y-108752380D02*
X130478452Y-107752380D01*
X130145119Y-108752380D01*
X129287976Y-108752380D02*
X129859404Y-108752380D01*
X129573690Y-108752380D02*
X129573690Y-107752380D01*
X129668928Y-107895238D01*
X129764166Y-107990476D01*
X129859404Y-108038095D01*
X128761904Y-103900000D02*
X128857142Y-103852380D01*
X129000000Y-103852380D01*
X129142857Y-103900000D01*
X129238095Y-103995238D01*
X129285714Y-104090476D01*
X129333333Y-104280952D01*
X129333333Y-104423809D01*
X129285714Y-104614285D01*
X129238095Y-104709523D01*
X129142857Y-104804761D01*
X129000000Y-104852380D01*
X128904761Y-104852380D01*
X128761904Y-104804761D01*
X128714285Y-104757142D01*
X128714285Y-104423809D01*
X128904761Y-104423809D01*
X128285714Y-104852380D02*
X128285714Y-103852380D01*
X127714285Y-104852380D01*
X127714285Y-103852380D01*
X127238095Y-104852380D02*
X127238095Y-103852380D01*
X127000000Y-103852380D01*
X126857142Y-103900000D01*
X126761904Y-103995238D01*
X126714285Y-104090476D01*
X126666666Y-104280952D01*
X126666666Y-104423809D01*
X126714285Y-104614285D01*
X126761904Y-104709523D01*
X126857142Y-104804761D01*
X127000000Y-104852380D01*
X127238095Y-104852380D01*
X128238095Y-102366666D02*
X127761904Y-102366666D01*
X128333333Y-102652380D02*
X128000000Y-101652380D01*
X127666666Y-102652380D01*
X132392738Y-97052380D02*
X132868928Y-97052380D01*
X132916547Y-97528571D01*
X132868928Y-97480952D01*
X132773690Y-97433333D01*
X132535595Y-97433333D01*
X132440357Y-97480952D01*
X132392738Y-97528571D01*
X132345119Y-97623809D01*
X132345119Y-97861904D01*
X132392738Y-97957142D01*
X132440357Y-98004761D01*
X132535595Y-98052380D01*
X132773690Y-98052380D01*
X132868928Y-98004761D01*
X132916547Y-97957142D01*
X132059404Y-97052380D02*
X131726071Y-98052380D01*
X131392738Y-97052380D01*
X131883214Y-94500000D02*
X131978452Y-94452380D01*
X132121309Y-94452380D01*
X132264166Y-94500000D01*
X132359404Y-94595238D01*
X132407023Y-94690476D01*
X132454642Y-94880952D01*
X132454642Y-95023809D01*
X132407023Y-95214285D01*
X132359404Y-95309523D01*
X132264166Y-95404761D01*
X132121309Y-95452380D01*
X132026071Y-95452380D01*
X131883214Y-95404761D01*
X131835595Y-95357142D01*
X131835595Y-95023809D01*
X132026071Y-95023809D01*
X131407023Y-95452380D02*
X131407023Y-94452380D01*
X130835595Y-95452380D01*
X130835595Y-94452380D01*
X130359404Y-95452380D02*
X130359404Y-94452380D01*
X130121309Y-94452380D01*
X129978452Y-94500000D01*
X129883214Y-94595238D01*
X129835595Y-94690476D01*
X129787976Y-94880952D01*
X129787976Y-95023809D01*
X129835595Y-95214285D01*
X129883214Y-95309523D01*
X129978452Y-95404761D01*
X130121309Y-95452380D01*
X130359404Y-95452380D01*
X162866666Y-88552380D02*
X162866666Y-89266666D01*
X162914285Y-89409523D01*
X163009523Y-89504761D01*
X163152380Y-89552380D01*
X163247619Y-89552380D01*
X162533333Y-88552380D02*
X161961904Y-88552380D01*
X162247619Y-89552380D02*
X162247619Y-88552380D01*
X161676190Y-89266666D02*
X161200000Y-89266666D01*
X161771428Y-89552380D02*
X161438095Y-88552380D01*
X161104761Y-89552380D01*
X160247619Y-88600000D02*
X160342857Y-88552380D01*
X160485714Y-88552380D01*
X160628571Y-88600000D01*
X160723809Y-88695238D01*
X160771428Y-88790476D01*
X160819047Y-88980952D01*
X160819047Y-89123809D01*
X160771428Y-89314285D01*
X160723809Y-89409523D01*
X160628571Y-89504761D01*
X160485714Y-89552380D01*
X160390476Y-89552380D01*
X160247619Y-89504761D01*
X160200000Y-89457142D01*
X160200000Y-89123809D01*
X160390476Y-89123809D01*
D12*
X137710000Y-103371267D02*
X137710000Y-103028733D01*
X136690000Y-103371267D02*
X136690000Y-103028733D01*
X138390000Y-103371267D02*
X138390000Y-103028733D01*
X139410000Y-103371267D02*
X139410000Y-103028733D01*
X139446267Y-111490000D02*
X139103733Y-111490000D01*
X139446267Y-112510000D02*
X139103733Y-112510000D01*
X156928733Y-104690000D02*
X157271267Y-104690000D01*
X156928733Y-105710000D02*
X157271267Y-105710000D01*
X156471267Y-111610000D02*
X156128733Y-111610000D01*
X156471267Y-110590000D02*
X156128733Y-110590000D01*
X142371267Y-98810000D02*
X142028733Y-98810000D01*
X142371267Y-97790000D02*
X142028733Y-97790000D01*
X142371267Y-99590000D02*
X142028733Y-99590000D01*
X142371267Y-100610000D02*
X142028733Y-100610000D01*
X148110000Y-94371267D02*
X148110000Y-94028733D01*
X147090000Y-94371267D02*
X147090000Y-94028733D01*
X146460000Y-94371267D02*
X146460000Y-94028733D01*
X145440000Y-94371267D02*
X145440000Y-94028733D01*
X137828733Y-78390000D02*
X138171267Y-78390000D01*
X137828733Y-79410000D02*
X138171267Y-79410000D01*
X139190000Y-82597936D02*
X139190000Y-83802064D01*
X141010000Y-82597936D02*
X141010000Y-83802064D01*
X143310000Y-82597936D02*
X143310000Y-83802064D01*
X141490000Y-82597936D02*
X141490000Y-83802064D01*
X129290000Y-84428733D02*
X129290000Y-84771267D01*
X130310000Y-84428733D02*
X130310000Y-84771267D01*
X133010000Y-101828733D02*
X133010000Y-102171267D01*
X131990000Y-101828733D02*
X131990000Y-102171267D01*
X132928733Y-78390000D02*
X133271267Y-78390000D01*
X132928733Y-79410000D02*
X133271267Y-79410000D01*
X141210000Y-87596267D02*
X141210000Y-87253733D01*
X140190000Y-87596267D02*
X140190000Y-87253733D01*
X142910000Y-87596267D02*
X142910000Y-87253733D01*
X141890000Y-87596267D02*
X141890000Y-87253733D01*
X134710000Y-99196267D02*
X134710000Y-98853733D01*
X133690000Y-99196267D02*
X133690000Y-98853733D01*
X136603733Y-96610000D02*
X136946267Y-96610000D01*
X136603733Y-95590000D02*
X136946267Y-95590000D01*
X140010000Y-99196267D02*
X140010000Y-98853733D01*
X138990000Y-99196267D02*
X138990000Y-98853733D01*
X152728733Y-85490000D02*
X153071267Y-85490000D01*
X152728733Y-86510000D02*
X153071267Y-86510000D01*
X155403733Y-92290000D02*
X155746267Y-92290000D01*
X155403733Y-93310000D02*
X155746267Y-93310000D01*
X143210000Y-111271267D02*
X143210000Y-110928733D01*
X142190000Y-111271267D02*
X142190000Y-110928733D01*
X145350000Y-80900000D02*
X143650000Y-80900000D01*
X143650000Y-80900000D02*
X143650000Y-77750000D01*
X145350000Y-80900000D02*
X145350000Y-77750000D01*
X132760000Y-108720000D02*
X132760000Y-109650000D01*
X132760000Y-111880000D02*
X132760000Y-110950000D01*
X132760000Y-111880000D02*
X130600000Y-111880000D01*
X132760000Y-108720000D02*
X131300000Y-108720000D01*
X134900000Y-94800000D02*
X134900000Y-90900000D01*
X132900000Y-94800000D02*
X132900000Y-90900000D01*
X134900000Y-94800000D02*
X132900000Y-94800000D01*
X135300000Y-95200000D02*
X135300000Y-93200000D01*
X135300000Y-93200000D02*
X139200000Y-93200000D01*
X135300000Y-95200000D02*
X139200000Y-95200000D01*
X161540000Y-111880000D02*
X163000000Y-111880000D01*
X161540000Y-108720000D02*
X163700000Y-108720000D01*
X161540000Y-108720000D02*
X161540000Y-109650000D01*
X161540000Y-111880000D02*
X161540000Y-110950000D01*
X165165000Y-81355000D02*
X161635000Y-81355000D01*
X165165000Y-87825000D02*
X161635000Y-87825000D01*
X166490000Y-81420000D02*
X165165000Y-81420000D01*
X165165000Y-81355000D02*
X165165000Y-81420000D01*
X161635000Y-81355000D02*
X161635000Y-81420000D01*
X165165000Y-87760000D02*
X165165000Y-87825000D01*
X161635000Y-87760000D02*
X161635000Y-87825000D01*
X134928733Y-106210000D02*
X135271267Y-106210000D01*
X134928733Y-105190000D02*
X135271267Y-105190000D01*
X140840000Y-80280000D02*
X140840000Y-79350000D01*
X140840000Y-77120000D02*
X140840000Y-78050000D01*
X140840000Y-77120000D02*
X143000000Y-77120000D01*
X140840000Y-80280000D02*
X142300000Y-80280000D01*
X144346267Y-91710000D02*
X144003733Y-91710000D01*
X144346267Y-90690000D02*
X144003733Y-90690000D01*
X131771267Y-103990000D02*
X131428733Y-103990000D01*
X131771267Y-105010000D02*
X131428733Y-105010000D01*
X158746267Y-100410000D02*
X158403733Y-100410000D01*
X158746267Y-99390000D02*
X158403733Y-99390000D01*
X154671267Y-99390000D02*
X154328733Y-99390000D01*
X154671267Y-100410000D02*
X154328733Y-100410000D01*
X152590000Y-109228733D02*
X152590000Y-109571267D01*
X153610000Y-109228733D02*
X153610000Y-109571267D01*
X143590000Y-94371267D02*
X143590000Y-94028733D01*
X144610000Y-94371267D02*
X144610000Y-94028733D01*
X131010000Y-98171267D02*
X131010000Y-97828733D01*
X129990000Y-98171267D02*
X129990000Y-97828733D01*
X130310000Y-81271267D02*
X130310000Y-80928733D01*
X129290000Y-81271267D02*
X129290000Y-80928733D01*
X133490000Y-88171267D02*
X133490000Y-87828733D01*
X134510000Y-88171267D02*
X134510000Y-87828733D01*
X129990000Y-102171267D02*
X129990000Y-101828733D01*
X131010000Y-102171267D02*
X131010000Y-101828733D01*
X146810000Y-78453733D02*
X146810000Y-78796267D01*
X145790000Y-78453733D02*
X145790000Y-78796267D01*
X132710000Y-88171267D02*
X132710000Y-87828733D01*
X131690000Y-88171267D02*
X131690000Y-87828733D01*
X130310000Y-87828733D02*
X130310000Y-88171267D01*
X129290000Y-87828733D02*
X129290000Y-88171267D01*
D11*
X140700000Y-110500000D02*
X140700000Y-107700000D01*
D10*
X149350000Y-96750000D02*
X148825000Y-96750000D01*
X145050000Y-101050000D02*
X145575000Y-101050000D01*
X145050000Y-96750000D02*
X145575000Y-96750000D01*
D11*
X149350000Y-101050000D02*
X149350000Y-100525000D01*
D10*
X145050000Y-101050000D02*
X145050000Y-100525000D01*
X145050000Y-96750000D02*
X145050000Y-97275000D01*
X149350000Y-96750000D02*
X149350000Y-97275000D01*
D12*
X134675000Y-85125000D02*
X132725000Y-85125000D01*
X134675000Y-85125000D02*
X136625000Y-85125000D01*
X134675000Y-80005000D02*
X132725000Y-80005000D01*
X134675000Y-80005000D02*
X138125000Y-80005000D01*
X138460000Y-97900000D02*
X138460000Y-99700000D01*
X135240000Y-99700000D02*
X135240000Y-97250000D01*
X156100000Y-93740000D02*
X159550000Y-93740000D01*
X156100000Y-93740000D02*
X154150000Y-93740000D01*
X156100000Y-98860000D02*
X158050000Y-98860000D01*
X156100000Y-98860000D02*
X154150000Y-98860000D01*
D10*
X150550000Y-106775000D02*
X150550000Y-111225000D01*
X143650000Y-105250000D02*
X143650000Y-111225000D01*
D12*
X135300000Y-92550000D02*
X135300000Y-89250000D01*
X135300000Y-89250000D02*
X140700000Y-89250000D01*
X135300000Y-92550000D02*
X140700000Y-92550000D01*
D13*
X155100000Y-109400000D02*
X155100000Y-109900000D01*
X155100000Y-109900000D02*
X155600000Y-109900000D01*
X158300000Y-109900000D02*
X157800000Y-109900000D01*
X157800000Y-109900000D02*
X158300000Y-109900000D01*
X158300000Y-109900000D02*
X158300000Y-109400000D01*
X158300000Y-106700000D02*
X158300000Y-107200000D01*
X158300000Y-106700000D02*
X157800000Y-106700000D01*
X155100000Y-106700000D02*
X155600000Y-106700000D01*
D14*
G36*
X165500000Y-80778539D02*
G01*
X165043923Y-80127000D01*
X165956077Y-80127000D01*
X165500000Y-80778539D01*
X165500000Y-80778539D01*
G37*
X165500000Y-80778539D02*
X165043923Y-80127000D01*
X165956077Y-80127000D01*
X165500000Y-80778539D01*
M02*
