G75*
%MOIN*%
%OFA0B0*%
%FSLAX25Y25*%
%IPPOS*%
%LPD*%
%AMOC8*
5,1,8,0,0,1.08239X$1,22.5*
%
%ADD10R,0.17717X0.21654*%
%ADD11R,0.02200X0.07800*%
%ADD12R,0.11800X0.07900*%
%ADD13R,0.03937X0.04331*%
%ADD14R,0.05787X0.05000*%
%ADD15R,0.11811X0.05512*%
%ADD16R,0.09843X0.29528*%
%ADD17C,0.07400*%
%ADD18C,0.01000*%
%ADD19C,0.03175*%
%ADD20C,0.02978*%
%ADD21C,0.01600*%
D10*
X0013311Y0015280D03*
X0088114Y0015280D03*
D11*
X0083803Y0031170D03*
X0078803Y0031170D03*
X0073803Y0031170D03*
X0068803Y0031170D03*
X0068803Y0050570D03*
X0073803Y0050570D03*
X0078803Y0050570D03*
X0083803Y0050570D03*
D12*
X0076303Y0040870D03*
D13*
X0076303Y0061146D03*
X0076303Y0067839D03*
X0084177Y0067839D03*
X0084177Y0061146D03*
X0068803Y0061146D03*
X0068803Y0067839D03*
D14*
X0056618Y0063902D03*
X0056618Y0080831D03*
D15*
X0042445Y0072366D03*
X0023547Y0072366D03*
D16*
X0027878Y0040870D03*
X0053862Y0040870D03*
D17*
X0050555Y0090083D03*
X0060555Y0090083D03*
D18*
X0004000Y0085330D02*
X0004000Y0004000D01*
X0097425Y0004000D01*
X0097425Y0085330D01*
X0097375Y0085210D01*
X0094956Y0082790D01*
X0091794Y0081480D01*
X0088372Y0081480D01*
X0085210Y0082790D01*
X0082790Y0085210D01*
X0081480Y0088372D01*
X0081480Y0091794D01*
X0082790Y0094956D01*
X0085210Y0097375D01*
X0085330Y0097425D01*
X0016095Y0097425D01*
X0016215Y0097375D01*
X0017971Y0095620D01*
X0055312Y0095620D01*
X0056250Y0094682D01*
X0056250Y0085483D01*
X0055312Y0084546D01*
X0030659Y0084546D01*
X0030659Y0056734D01*
X0033255Y0056734D01*
X0033899Y0056089D01*
X0033899Y0042470D01*
X0037596Y0042470D01*
X0038533Y0041533D01*
X0038533Y0028396D01*
X0037596Y0027459D01*
X0033899Y0027459D01*
X0033899Y0025651D01*
X0033255Y0025006D01*
X0022501Y0025006D01*
X0021857Y0025651D01*
X0021857Y0027459D01*
X0008711Y0027459D01*
X0007774Y0028396D01*
X0007774Y0082250D01*
X0006470Y0082790D01*
X0004050Y0085210D01*
X0004000Y0085330D01*
X0004000Y0084376D02*
X0004883Y0084376D01*
X0004000Y0083378D02*
X0005882Y0083378D01*
X0007461Y0082379D02*
X0004000Y0082379D01*
X0004000Y0081381D02*
X0007774Y0081381D01*
X0007774Y0080382D02*
X0004000Y0080382D01*
X0004000Y0079384D02*
X0007774Y0079384D01*
X0007774Y0078385D02*
X0004000Y0078385D01*
X0004000Y0077387D02*
X0007774Y0077387D01*
X0007774Y0076388D02*
X0004000Y0076388D01*
X0004000Y0075390D02*
X0007774Y0075390D01*
X0007774Y0074391D02*
X0004000Y0074391D01*
X0004000Y0073393D02*
X0007774Y0073393D01*
X0007774Y0072394D02*
X0004000Y0072394D01*
X0004000Y0071396D02*
X0007774Y0071396D01*
X0007774Y0070397D02*
X0004000Y0070397D01*
X0004000Y0069399D02*
X0007774Y0069399D01*
X0007774Y0068400D02*
X0004000Y0068400D01*
X0004000Y0067402D02*
X0007774Y0067402D01*
X0007774Y0066403D02*
X0004000Y0066403D01*
X0004000Y0065405D02*
X0007774Y0065405D01*
X0007774Y0064406D02*
X0004000Y0064406D01*
X0004000Y0063408D02*
X0007774Y0063408D01*
X0007774Y0062409D02*
X0004000Y0062409D01*
X0004000Y0061411D02*
X0007774Y0061411D01*
X0007774Y0060412D02*
X0004000Y0060412D01*
X0004000Y0059414D02*
X0007774Y0059414D01*
X0007774Y0058415D02*
X0004000Y0058415D01*
X0004000Y0057417D02*
X0007774Y0057417D01*
X0007774Y0056418D02*
X0004000Y0056418D01*
X0004000Y0055420D02*
X0007774Y0055420D01*
X0007774Y0054421D02*
X0004000Y0054421D01*
X0004000Y0053423D02*
X0007774Y0053423D01*
X0007774Y0052424D02*
X0004000Y0052424D01*
X0004000Y0051426D02*
X0007774Y0051426D01*
X0007774Y0050427D02*
X0004000Y0050427D01*
X0004000Y0049429D02*
X0007774Y0049429D01*
X0007774Y0048430D02*
X0004000Y0048430D01*
X0004000Y0047432D02*
X0007774Y0047432D01*
X0007774Y0046433D02*
X0004000Y0046433D01*
X0004000Y0045434D02*
X0007774Y0045434D01*
X0007774Y0044436D02*
X0004000Y0044436D01*
X0004000Y0043437D02*
X0007774Y0043437D01*
X0007774Y0042439D02*
X0004000Y0042439D01*
X0004000Y0041440D02*
X0007774Y0041440D01*
X0007774Y0040442D02*
X0004000Y0040442D01*
X0004000Y0039443D02*
X0007774Y0039443D01*
X0007774Y0038445D02*
X0004000Y0038445D01*
X0004000Y0037446D02*
X0007774Y0037446D01*
X0007774Y0036448D02*
X0004000Y0036448D01*
X0004000Y0035449D02*
X0007774Y0035449D01*
X0007774Y0034451D02*
X0004000Y0034451D01*
X0004000Y0033452D02*
X0007774Y0033452D01*
X0007774Y0032454D02*
X0004000Y0032454D01*
X0004000Y0031455D02*
X0007774Y0031455D01*
X0007774Y0030457D02*
X0004000Y0030457D01*
X0004000Y0029458D02*
X0007774Y0029458D01*
X0007774Y0028460D02*
X0004000Y0028460D01*
X0004000Y0027461D02*
X0008709Y0027461D01*
X0009374Y0029059D02*
X0009374Y0081587D01*
X0009631Y0081480D01*
X0013054Y0081480D01*
X0016215Y0082790D01*
X0018635Y0085210D01*
X0019945Y0088372D01*
X0019945Y0091794D01*
X0019023Y0094020D01*
X0054650Y0094020D01*
X0054650Y0086146D01*
X0029059Y0086146D01*
X0029059Y0040870D01*
X0036933Y0040870D01*
X0036933Y0029059D01*
X0009374Y0029059D01*
X0009374Y0029458D02*
X0036933Y0029458D01*
X0036933Y0030457D02*
X0009374Y0030457D01*
X0009374Y0031455D02*
X0036933Y0031455D01*
X0036933Y0032454D02*
X0009374Y0032454D01*
X0009374Y0033452D02*
X0036933Y0033452D01*
X0036933Y0034451D02*
X0009374Y0034451D01*
X0009374Y0035449D02*
X0036933Y0035449D01*
X0036933Y0036448D02*
X0009374Y0036448D01*
X0009374Y0037446D02*
X0036933Y0037446D01*
X0036933Y0038445D02*
X0009374Y0038445D01*
X0009374Y0039443D02*
X0036933Y0039443D01*
X0036933Y0040442D02*
X0009374Y0040442D01*
X0009374Y0041440D02*
X0029059Y0041440D01*
X0029059Y0042439D02*
X0009374Y0042439D01*
X0009374Y0043437D02*
X0029059Y0043437D01*
X0029059Y0044436D02*
X0009374Y0044436D01*
X0009374Y0045434D02*
X0029059Y0045434D01*
X0029059Y0046433D02*
X0009374Y0046433D01*
X0009374Y0047432D02*
X0029059Y0047432D01*
X0029059Y0048430D02*
X0009374Y0048430D01*
X0009374Y0049429D02*
X0029059Y0049429D01*
X0029059Y0050427D02*
X0009374Y0050427D01*
X0009374Y0051426D02*
X0029059Y0051426D01*
X0029059Y0052424D02*
X0009374Y0052424D01*
X0009374Y0053423D02*
X0029059Y0053423D01*
X0029059Y0054421D02*
X0009374Y0054421D01*
X0009374Y0055420D02*
X0029059Y0055420D01*
X0029059Y0056418D02*
X0009374Y0056418D01*
X0009374Y0057417D02*
X0029059Y0057417D01*
X0029059Y0058415D02*
X0009374Y0058415D01*
X0009374Y0059414D02*
X0029059Y0059414D01*
X0029059Y0060412D02*
X0009374Y0060412D01*
X0009374Y0061411D02*
X0029059Y0061411D01*
X0029059Y0062409D02*
X0009374Y0062409D01*
X0009374Y0063408D02*
X0029059Y0063408D01*
X0029059Y0064406D02*
X0009374Y0064406D01*
X0009374Y0065405D02*
X0029059Y0065405D01*
X0029059Y0066403D02*
X0009374Y0066403D01*
X0009374Y0067402D02*
X0029059Y0067402D01*
X0029059Y0068400D02*
X0009374Y0068400D01*
X0009374Y0069399D02*
X0029059Y0069399D01*
X0029059Y0070397D02*
X0009374Y0070397D01*
X0009374Y0071396D02*
X0029059Y0071396D01*
X0029059Y0072394D02*
X0009374Y0072394D01*
X0009374Y0073393D02*
X0029059Y0073393D01*
X0029059Y0074391D02*
X0009374Y0074391D01*
X0009374Y0075390D02*
X0029059Y0075390D01*
X0029059Y0076388D02*
X0009374Y0076388D01*
X0009374Y0077387D02*
X0029059Y0077387D01*
X0029059Y0078385D02*
X0009374Y0078385D01*
X0009374Y0079384D02*
X0029059Y0079384D01*
X0029059Y0080382D02*
X0009374Y0080382D01*
X0009374Y0081381D02*
X0029059Y0081381D01*
X0029059Y0082379D02*
X0015224Y0082379D01*
X0016803Y0083378D02*
X0029059Y0083378D01*
X0029059Y0084376D02*
X0017802Y0084376D01*
X0018704Y0085375D02*
X0029059Y0085375D01*
X0030659Y0084376D02*
X0083623Y0084376D01*
X0082722Y0085375D02*
X0056142Y0085375D01*
X0056250Y0086373D02*
X0082308Y0086373D01*
X0081894Y0087372D02*
X0056250Y0087372D01*
X0056250Y0088370D02*
X0081481Y0088370D01*
X0081480Y0089369D02*
X0056250Y0089369D01*
X0056250Y0090368D02*
X0081480Y0090368D01*
X0081480Y0091366D02*
X0056250Y0091366D01*
X0056250Y0092365D02*
X0081717Y0092365D01*
X0082130Y0093363D02*
X0056250Y0093363D01*
X0056250Y0094362D02*
X0082544Y0094362D01*
X0083195Y0095360D02*
X0055572Y0095360D01*
X0054650Y0093363D02*
X0019295Y0093363D01*
X0019708Y0092365D02*
X0054650Y0092365D01*
X0054650Y0091366D02*
X0019945Y0091366D01*
X0019945Y0090368D02*
X0054650Y0090368D01*
X0054650Y0089369D02*
X0019945Y0089369D01*
X0019944Y0088370D02*
X0054650Y0088370D01*
X0054650Y0087372D02*
X0019531Y0087372D01*
X0019117Y0086373D02*
X0054650Y0086373D01*
X0066379Y0071104D02*
X0065735Y0070460D01*
X0065735Y0069739D01*
X0064689Y0069739D01*
X0063576Y0068626D01*
X0060752Y0065802D01*
X0060612Y0065802D01*
X0060612Y0066857D01*
X0059967Y0067502D01*
X0053269Y0067502D01*
X0052624Y0066857D01*
X0052624Y0060946D01*
X0052656Y0060914D01*
X0052656Y0056734D01*
X0048485Y0056734D01*
X0047841Y0056089D01*
X0047841Y0025651D01*
X0048485Y0025006D01*
X0059239Y0025006D01*
X0059883Y0025651D01*
X0059883Y0025884D01*
X0066829Y0025884D01*
X0066829Y0021703D01*
X0067766Y0020766D01*
X0076572Y0020766D01*
X0077509Y0021703D01*
X0077509Y0036415D01*
X0076572Y0037352D01*
X0071604Y0037352D01*
X0071604Y0037596D01*
X0070667Y0038533D01*
X0059883Y0038533D01*
X0059883Y0056089D01*
X0059793Y0056180D01*
X0059793Y0060302D01*
X0059967Y0060302D01*
X0060612Y0060946D01*
X0060612Y0062002D01*
X0062326Y0062002D01*
X0065735Y0065410D01*
X0065735Y0065218D01*
X0066379Y0064573D01*
X0071227Y0064573D01*
X0071872Y0065218D01*
X0071872Y0070460D01*
X0071227Y0071104D01*
X0066379Y0071104D01*
X0065735Y0070397D02*
X0030659Y0070397D01*
X0030659Y0069399D02*
X0064350Y0069399D01*
X0063351Y0068400D02*
X0030659Y0068400D01*
X0030659Y0067402D02*
X0053169Y0067402D01*
X0052624Y0066403D02*
X0030659Y0066403D01*
X0030659Y0065405D02*
X0052624Y0065405D01*
X0052624Y0064406D02*
X0030659Y0064406D01*
X0030659Y0063408D02*
X0052624Y0063408D01*
X0052624Y0062409D02*
X0030659Y0062409D01*
X0030659Y0061411D02*
X0052624Y0061411D01*
X0052656Y0060412D02*
X0030659Y0060412D01*
X0030659Y0059414D02*
X0052656Y0059414D01*
X0052656Y0058415D02*
X0030659Y0058415D01*
X0030659Y0057417D02*
X0052656Y0057417D01*
X0054256Y0057417D02*
X0058193Y0057417D01*
X0058193Y0058415D02*
X0054256Y0058415D01*
X0054256Y0059414D02*
X0058193Y0059414D01*
X0058193Y0060412D02*
X0054256Y0060412D01*
X0054256Y0061411D02*
X0058193Y0061411D01*
X0058193Y0062409D02*
X0054256Y0062409D01*
X0054256Y0063408D02*
X0058193Y0063408D01*
X0058193Y0064406D02*
X0054256Y0064406D01*
X0054256Y0065405D02*
X0058193Y0065405D01*
X0058193Y0065673D02*
X0058193Y0036933D01*
X0069303Y0036933D01*
X0069303Y0036464D01*
X0069948Y0035820D01*
X0070004Y0035820D01*
X0070004Y0027484D01*
X0050319Y0027484D01*
X0050319Y0055043D01*
X0054256Y0055043D01*
X0054256Y0065673D01*
X0058193Y0065673D01*
X0060612Y0066403D02*
X0061354Y0066403D01*
X0062353Y0067402D02*
X0060067Y0067402D01*
X0063732Y0063408D02*
X0065735Y0063408D01*
X0065735Y0063767D02*
X0065735Y0058525D01*
X0066379Y0057880D01*
X0066903Y0057880D01*
X0066903Y0055226D01*
X0066603Y0054926D01*
X0066603Y0046214D01*
X0067248Y0045570D01*
X0070359Y0045570D01*
X0071003Y0046214D01*
X0071003Y0054926D01*
X0070703Y0055226D01*
X0070703Y0057880D01*
X0071227Y0057880D01*
X0071872Y0058525D01*
X0071872Y0063767D01*
X0071227Y0064411D01*
X0066379Y0064411D01*
X0065735Y0063767D01*
X0066374Y0064406D02*
X0064731Y0064406D01*
X0065730Y0065405D02*
X0065735Y0065405D01*
X0065735Y0062409D02*
X0062734Y0062409D01*
X0060612Y0061411D02*
X0065735Y0061411D01*
X0065735Y0060412D02*
X0060078Y0060412D01*
X0059793Y0059414D02*
X0065735Y0059414D01*
X0065844Y0058415D02*
X0059793Y0058415D01*
X0059793Y0057417D02*
X0066903Y0057417D01*
X0066903Y0056418D02*
X0059793Y0056418D01*
X0059883Y0055420D02*
X0066903Y0055420D01*
X0066603Y0054421D02*
X0059883Y0054421D01*
X0059883Y0053423D02*
X0066603Y0053423D01*
X0066603Y0052424D02*
X0059883Y0052424D01*
X0059883Y0051426D02*
X0066603Y0051426D01*
X0066603Y0050427D02*
X0059883Y0050427D01*
X0059883Y0049429D02*
X0066603Y0049429D01*
X0066603Y0048430D02*
X0059883Y0048430D01*
X0059883Y0047432D02*
X0066603Y0047432D01*
X0066603Y0046433D02*
X0059883Y0046433D01*
X0059883Y0045434D02*
X0097425Y0045434D01*
X0097425Y0044436D02*
X0059883Y0044436D01*
X0059883Y0043437D02*
X0097425Y0043437D01*
X0097425Y0042439D02*
X0059883Y0042439D01*
X0059883Y0041440D02*
X0097425Y0041440D01*
X0097425Y0040442D02*
X0059883Y0040442D01*
X0059883Y0039443D02*
X0097425Y0039443D01*
X0097425Y0038445D02*
X0070755Y0038445D01*
X0071604Y0037446D02*
X0097425Y0037446D01*
X0097425Y0036448D02*
X0077476Y0036448D01*
X0077509Y0035449D02*
X0081603Y0035449D01*
X0081603Y0035526D02*
X0081603Y0026814D01*
X0082248Y0026170D01*
X0085359Y0026170D01*
X0086003Y0026814D01*
X0086003Y0035526D01*
X0085359Y0036170D01*
X0082248Y0036170D01*
X0081603Y0035526D01*
X0081603Y0034451D02*
X0077509Y0034451D01*
X0077509Y0033452D02*
X0081603Y0033452D01*
X0081603Y0032454D02*
X0077509Y0032454D01*
X0077509Y0031455D02*
X0081603Y0031455D01*
X0081603Y0030457D02*
X0077509Y0030457D01*
X0077509Y0029458D02*
X0081603Y0029458D01*
X0081603Y0028460D02*
X0077509Y0028460D01*
X0077509Y0027461D02*
X0081603Y0027461D01*
X0081955Y0026463D02*
X0077509Y0026463D01*
X0077509Y0025464D02*
X0097425Y0025464D01*
X0097425Y0024466D02*
X0077509Y0024466D01*
X0077509Y0023467D02*
X0097425Y0023467D01*
X0097425Y0022469D02*
X0077509Y0022469D01*
X0077276Y0021470D02*
X0097425Y0021470D01*
X0097425Y0020472D02*
X0004000Y0020472D01*
X0004000Y0021470D02*
X0067062Y0021470D01*
X0066829Y0022469D02*
X0004000Y0022469D01*
X0004000Y0023467D02*
X0066829Y0023467D01*
X0066829Y0024466D02*
X0004000Y0024466D01*
X0004000Y0025464D02*
X0022043Y0025464D01*
X0021857Y0026463D02*
X0004000Y0026463D01*
X0004000Y0019473D02*
X0097425Y0019473D01*
X0097425Y0018475D02*
X0004000Y0018475D01*
X0004000Y0017476D02*
X0097425Y0017476D01*
X0097425Y0016478D02*
X0004000Y0016478D01*
X0004000Y0015479D02*
X0097425Y0015479D01*
X0097425Y0014481D02*
X0004000Y0014481D01*
X0004000Y0013482D02*
X0097425Y0013482D01*
X0097425Y0012484D02*
X0004000Y0012484D01*
X0004000Y0011485D02*
X0097425Y0011485D01*
X0097425Y0010487D02*
X0004000Y0010487D01*
X0004000Y0009488D02*
X0097425Y0009488D01*
X0097425Y0008490D02*
X0004000Y0008490D01*
X0004000Y0007491D02*
X0097425Y0007491D01*
X0097425Y0006493D02*
X0004000Y0006493D01*
X0004000Y0005494D02*
X0097425Y0005494D01*
X0097425Y0004496D02*
X0004000Y0004496D01*
X0033713Y0025464D02*
X0048027Y0025464D01*
X0047841Y0026463D02*
X0033899Y0026463D01*
X0037598Y0027461D02*
X0047841Y0027461D01*
X0047841Y0028460D02*
X0038533Y0028460D01*
X0038533Y0029458D02*
X0047841Y0029458D01*
X0047841Y0030457D02*
X0038533Y0030457D01*
X0038533Y0031455D02*
X0047841Y0031455D01*
X0047841Y0032454D02*
X0038533Y0032454D01*
X0038533Y0033452D02*
X0047841Y0033452D01*
X0047841Y0034451D02*
X0038533Y0034451D01*
X0038533Y0035449D02*
X0047841Y0035449D01*
X0047841Y0036448D02*
X0038533Y0036448D01*
X0038533Y0037446D02*
X0047841Y0037446D01*
X0047841Y0038445D02*
X0038533Y0038445D01*
X0038533Y0039443D02*
X0047841Y0039443D01*
X0047841Y0040442D02*
X0038533Y0040442D01*
X0038533Y0041440D02*
X0047841Y0041440D01*
X0047841Y0042439D02*
X0037627Y0042439D01*
X0033899Y0043437D02*
X0047841Y0043437D01*
X0047841Y0044436D02*
X0033899Y0044436D01*
X0033899Y0045434D02*
X0047841Y0045434D01*
X0047841Y0046433D02*
X0033899Y0046433D01*
X0033899Y0047432D02*
X0047841Y0047432D01*
X0047841Y0048430D02*
X0033899Y0048430D01*
X0033899Y0049429D02*
X0047841Y0049429D01*
X0047841Y0050427D02*
X0033899Y0050427D01*
X0033899Y0051426D02*
X0047841Y0051426D01*
X0047841Y0052424D02*
X0033899Y0052424D01*
X0033899Y0053423D02*
X0047841Y0053423D01*
X0047841Y0054421D02*
X0033899Y0054421D01*
X0033899Y0055420D02*
X0047841Y0055420D01*
X0048170Y0056418D02*
X0033571Y0056418D01*
X0030659Y0071396D02*
X0074403Y0071396D01*
X0074403Y0071104D02*
X0073879Y0071104D01*
X0073235Y0070460D01*
X0073235Y0065218D01*
X0073879Y0064573D01*
X0078727Y0064573D01*
X0079372Y0065218D01*
X0079372Y0070460D01*
X0078727Y0071104D01*
X0078203Y0071104D01*
X0078203Y0072573D01*
X0078498Y0072868D01*
X0078892Y0073820D01*
X0078892Y0074850D01*
X0078498Y0075801D01*
X0077770Y0076529D01*
X0076818Y0076924D01*
X0075788Y0076924D01*
X0074837Y0076529D01*
X0074108Y0075801D01*
X0073714Y0074850D01*
X0073714Y0073820D01*
X0074108Y0072868D01*
X0074403Y0072573D01*
X0074403Y0071104D01*
X0074403Y0072394D02*
X0030659Y0072394D01*
X0030659Y0073393D02*
X0073891Y0073393D01*
X0073714Y0074391D02*
X0030659Y0074391D01*
X0030659Y0075390D02*
X0073938Y0075390D01*
X0074695Y0076388D02*
X0030659Y0076388D01*
X0030659Y0077387D02*
X0097425Y0077387D01*
X0097425Y0078385D02*
X0030659Y0078385D01*
X0030659Y0079384D02*
X0097425Y0079384D01*
X0097425Y0080382D02*
X0030659Y0080382D01*
X0030659Y0081381D02*
X0097425Y0081381D01*
X0097425Y0082379D02*
X0093964Y0082379D01*
X0095543Y0083378D02*
X0097425Y0083378D01*
X0097425Y0084376D02*
X0096542Y0084376D01*
X0097425Y0076388D02*
X0077911Y0076388D01*
X0078668Y0075390D02*
X0097425Y0075390D01*
X0097425Y0074391D02*
X0078892Y0074391D01*
X0078715Y0073393D02*
X0097425Y0073393D01*
X0097425Y0072394D02*
X0078203Y0072394D01*
X0078203Y0071396D02*
X0097425Y0071396D01*
X0097425Y0070397D02*
X0079372Y0070397D01*
X0079372Y0069399D02*
X0097425Y0069399D01*
X0097425Y0068400D02*
X0079372Y0068400D01*
X0079372Y0067402D02*
X0097425Y0067402D01*
X0097425Y0066403D02*
X0079372Y0066403D01*
X0079372Y0065405D02*
X0097425Y0065405D01*
X0097425Y0064406D02*
X0086606Y0064406D01*
X0086601Y0064411D02*
X0081753Y0064411D01*
X0081109Y0063767D01*
X0081109Y0063046D01*
X0079372Y0063046D01*
X0079372Y0063767D01*
X0078727Y0064411D01*
X0073879Y0064411D01*
X0073235Y0063767D01*
X0073235Y0058525D01*
X0073879Y0057880D01*
X0078727Y0057880D01*
X0079372Y0058525D01*
X0079372Y0059246D01*
X0081109Y0059246D01*
X0081109Y0058525D01*
X0081753Y0057880D01*
X0081903Y0057880D01*
X0081903Y0055226D01*
X0081603Y0054926D01*
X0081603Y0046214D01*
X0082248Y0045570D01*
X0085359Y0045570D01*
X0086003Y0046214D01*
X0086003Y0054926D01*
X0085703Y0055226D01*
X0085703Y0057880D01*
X0086601Y0057880D01*
X0087246Y0058525D01*
X0087246Y0063767D01*
X0086601Y0064411D01*
X0087246Y0063408D02*
X0097425Y0063408D01*
X0097425Y0062409D02*
X0087246Y0062409D01*
X0087246Y0061411D02*
X0097425Y0061411D01*
X0097425Y0060412D02*
X0087246Y0060412D01*
X0087246Y0059414D02*
X0097425Y0059414D01*
X0097425Y0058415D02*
X0087136Y0058415D01*
X0085703Y0057417D02*
X0097425Y0057417D01*
X0097425Y0056418D02*
X0085703Y0056418D01*
X0085703Y0055420D02*
X0097425Y0055420D01*
X0097425Y0054421D02*
X0086003Y0054421D01*
X0086003Y0053423D02*
X0097425Y0053423D01*
X0097425Y0052424D02*
X0086003Y0052424D01*
X0086003Y0051426D02*
X0097425Y0051426D01*
X0097425Y0050427D02*
X0086003Y0050427D01*
X0086003Y0049429D02*
X0097425Y0049429D01*
X0097425Y0048430D02*
X0086003Y0048430D01*
X0086003Y0047432D02*
X0097425Y0047432D01*
X0097425Y0046433D02*
X0086003Y0046433D01*
X0081603Y0046433D02*
X0081003Y0046433D01*
X0081003Y0046214D02*
X0081003Y0054926D01*
X0080359Y0055570D01*
X0077248Y0055570D01*
X0076603Y0054926D01*
X0076603Y0046214D01*
X0077248Y0045570D01*
X0080359Y0045570D01*
X0081003Y0046214D01*
X0081003Y0047432D02*
X0081603Y0047432D01*
X0081603Y0048430D02*
X0081003Y0048430D01*
X0081003Y0049429D02*
X0081603Y0049429D01*
X0081603Y0050427D02*
X0081003Y0050427D01*
X0081003Y0051426D02*
X0081603Y0051426D01*
X0081603Y0052424D02*
X0081003Y0052424D01*
X0081003Y0053423D02*
X0081603Y0053423D01*
X0081603Y0054421D02*
X0081003Y0054421D01*
X0080509Y0055420D02*
X0081903Y0055420D01*
X0081903Y0056418D02*
X0070703Y0056418D01*
X0070703Y0055420D02*
X0072097Y0055420D01*
X0072248Y0055570D02*
X0071603Y0054926D01*
X0071603Y0046214D01*
X0072248Y0045570D01*
X0075359Y0045570D01*
X0076003Y0046214D01*
X0076003Y0054926D01*
X0075359Y0055570D01*
X0072248Y0055570D01*
X0071603Y0054421D02*
X0071003Y0054421D01*
X0071003Y0053423D02*
X0071603Y0053423D01*
X0071603Y0052424D02*
X0071003Y0052424D01*
X0071003Y0051426D02*
X0071603Y0051426D01*
X0071603Y0050427D02*
X0071003Y0050427D01*
X0071003Y0049429D02*
X0071603Y0049429D01*
X0071603Y0048430D02*
X0071003Y0048430D01*
X0071003Y0047432D02*
X0071603Y0047432D01*
X0071603Y0046433D02*
X0071003Y0046433D01*
X0076003Y0046433D02*
X0076603Y0046433D01*
X0076603Y0047432D02*
X0076003Y0047432D01*
X0076003Y0048430D02*
X0076603Y0048430D01*
X0076603Y0049429D02*
X0076003Y0049429D01*
X0076003Y0050427D02*
X0076603Y0050427D01*
X0076603Y0051426D02*
X0076003Y0051426D01*
X0076003Y0052424D02*
X0076603Y0052424D01*
X0076603Y0053423D02*
X0076003Y0053423D01*
X0076003Y0054421D02*
X0076603Y0054421D01*
X0077097Y0055420D02*
X0075509Y0055420D01*
X0073344Y0058415D02*
X0071762Y0058415D01*
X0071872Y0059414D02*
X0073235Y0059414D01*
X0073235Y0060412D02*
X0071872Y0060412D01*
X0071872Y0061411D02*
X0073235Y0061411D01*
X0073235Y0062409D02*
X0071872Y0062409D01*
X0071872Y0063408D02*
X0073235Y0063408D01*
X0073874Y0064406D02*
X0071232Y0064406D01*
X0071872Y0065405D02*
X0073235Y0065405D01*
X0073235Y0066403D02*
X0071872Y0066403D01*
X0071872Y0067402D02*
X0073235Y0067402D01*
X0073235Y0068400D02*
X0071872Y0068400D01*
X0071872Y0069399D02*
X0073235Y0069399D01*
X0073235Y0070397D02*
X0071872Y0070397D01*
X0078732Y0064406D02*
X0081748Y0064406D01*
X0081109Y0063408D02*
X0079372Y0063408D01*
X0079262Y0058415D02*
X0081218Y0058415D01*
X0081903Y0057417D02*
X0070703Y0057417D01*
X0058193Y0056418D02*
X0054256Y0056418D01*
X0054256Y0055420D02*
X0058193Y0055420D01*
X0058193Y0054421D02*
X0050319Y0054421D01*
X0050319Y0053423D02*
X0058193Y0053423D01*
X0058193Y0052424D02*
X0050319Y0052424D01*
X0050319Y0051426D02*
X0058193Y0051426D01*
X0058193Y0050427D02*
X0050319Y0050427D01*
X0050319Y0049429D02*
X0058193Y0049429D01*
X0058193Y0048430D02*
X0050319Y0048430D01*
X0050319Y0047432D02*
X0058193Y0047432D01*
X0058193Y0046433D02*
X0050319Y0046433D01*
X0050319Y0045434D02*
X0058193Y0045434D01*
X0058193Y0044436D02*
X0050319Y0044436D01*
X0050319Y0043437D02*
X0058193Y0043437D01*
X0058193Y0042439D02*
X0050319Y0042439D01*
X0050319Y0041440D02*
X0058193Y0041440D01*
X0058193Y0040442D02*
X0050319Y0040442D01*
X0050319Y0039443D02*
X0058193Y0039443D01*
X0058193Y0038445D02*
X0050319Y0038445D01*
X0050319Y0037446D02*
X0058193Y0037446D01*
X0050319Y0036448D02*
X0069320Y0036448D01*
X0070004Y0035449D02*
X0050319Y0035449D01*
X0050319Y0034451D02*
X0070004Y0034451D01*
X0070004Y0033452D02*
X0050319Y0033452D01*
X0050319Y0032454D02*
X0070004Y0032454D01*
X0070004Y0031455D02*
X0050319Y0031455D01*
X0050319Y0030457D02*
X0070004Y0030457D01*
X0070004Y0029458D02*
X0050319Y0029458D01*
X0050319Y0028460D02*
X0070004Y0028460D01*
X0071972Y0028460D02*
X0075909Y0028460D01*
X0075909Y0029458D02*
X0071972Y0029458D01*
X0071972Y0030457D02*
X0075909Y0030457D01*
X0075909Y0031455D02*
X0071972Y0031455D01*
X0071972Y0032454D02*
X0075909Y0032454D01*
X0075909Y0033452D02*
X0071972Y0033452D01*
X0071972Y0034451D02*
X0075909Y0034451D01*
X0075909Y0035449D02*
X0071972Y0035449D01*
X0071972Y0035752D02*
X0075909Y0035752D01*
X0075909Y0022366D01*
X0068429Y0022366D01*
X0068429Y0025516D01*
X0071972Y0025516D01*
X0071972Y0035752D01*
X0071972Y0027461D02*
X0075909Y0027461D01*
X0075909Y0026463D02*
X0071972Y0026463D01*
X0068429Y0025464D02*
X0075909Y0025464D01*
X0075909Y0024466D02*
X0068429Y0024466D01*
X0068429Y0023467D02*
X0075909Y0023467D01*
X0075909Y0022469D02*
X0068429Y0022469D01*
X0066829Y0025464D02*
X0059697Y0025464D01*
X0085651Y0026463D02*
X0097425Y0026463D01*
X0097425Y0027461D02*
X0086003Y0027461D01*
X0086003Y0028460D02*
X0097425Y0028460D01*
X0097425Y0029458D02*
X0086003Y0029458D01*
X0086003Y0030457D02*
X0097425Y0030457D01*
X0097425Y0031455D02*
X0086003Y0031455D01*
X0086003Y0032454D02*
X0097425Y0032454D01*
X0097425Y0033452D02*
X0086003Y0033452D01*
X0086003Y0034451D02*
X0097425Y0034451D01*
X0097425Y0035449D02*
X0086003Y0035449D01*
X0086201Y0082379D02*
X0030659Y0082379D01*
X0030659Y0083378D02*
X0084622Y0083378D01*
X0084193Y0096359D02*
X0017232Y0096359D01*
X0016234Y0097357D02*
X0085192Y0097357D01*
D19*
X0080240Y0043232D03*
X0076303Y0043232D03*
X0072366Y0043232D03*
X0072366Y0038508D03*
X0076303Y0038508D03*
X0080240Y0038508D03*
D20*
X0092051Y0040870D03*
X0092051Y0032996D03*
X0092051Y0048744D03*
X0092051Y0056618D03*
X0092051Y0064492D03*
X0076303Y0074335D03*
X0074728Y0023547D03*
X0070398Y0023547D03*
X0015673Y0058587D03*
X0015673Y0062524D03*
X0011343Y0062524D03*
X0011343Y0058587D03*
X0025122Y0080240D03*
D21*
X0056618Y0063902D02*
X0061539Y0063902D01*
X0065476Y0067839D01*
X0068803Y0067839D01*
X0068803Y0061146D02*
X0068803Y0050570D01*
X0076303Y0061146D02*
X0084177Y0061146D01*
X0083803Y0060772D01*
X0083803Y0050570D01*
X0076303Y0067839D02*
X0076303Y0074335D01*
M02*
