%
M48
M72
T01C0.01378
T02C0.01575
T03C0.04000
T04C0.12205
%
T01
X11343Y58587
X11343Y62524
X15673Y62524
X15673Y58587
X25122Y80240
X76303Y74335
X92051Y64492
X92051Y56618
X92051Y48744
X92051Y40870
X92051Y32996
X74728Y23547
X70398Y23547
T02
X72366Y38508
X76303Y38508
X80240Y38508
X80240Y43232
X76303Y43232
X72366Y43232
T03
X60555Y90083
X50555Y90083
T04
X11343Y90083
X90083Y90083
M30
