G75*
%MOIN*%
%OFA0B0*%
%FSLAX25Y25*%
%IPPOS*%
%LPD*%
%AMOC8*
5,1,8,0,0,1.08239X$1,22.5*
%
%ADD10C,0.00000*%
%ADD11R,0.04724X0.02165*%
%ADD12R,0.03937X0.04331*%
%ADD13R,0.07087X0.01969*%
%ADD14R,0.11811X0.08268*%
%ADD15R,0.17717X0.21654*%
%ADD16R,0.09055X0.12598*%
%ADD17R,0.06299X0.07087*%
%ADD18C,0.07400*%
%ADD19C,0.01000*%
%ADD20C,0.03175*%
%ADD21C,0.02978*%
%ADD22C,0.01600*%
D10*
X0001500Y0001500D02*
X0001500Y0099925D01*
X0099925Y0099925D01*
X0099925Y0001500D01*
X0001500Y0001500D01*
X0005241Y0090083D02*
X0005243Y0090239D01*
X0005249Y0090395D01*
X0005259Y0090550D01*
X0005273Y0090705D01*
X0005291Y0090860D01*
X0005313Y0091014D01*
X0005338Y0091168D01*
X0005368Y0091321D01*
X0005402Y0091473D01*
X0005439Y0091625D01*
X0005480Y0091775D01*
X0005525Y0091924D01*
X0005574Y0092072D01*
X0005627Y0092219D01*
X0005683Y0092364D01*
X0005743Y0092508D01*
X0005807Y0092650D01*
X0005875Y0092791D01*
X0005946Y0092929D01*
X0006020Y0093066D01*
X0006098Y0093201D01*
X0006179Y0093334D01*
X0006264Y0093465D01*
X0006352Y0093594D01*
X0006443Y0093720D01*
X0006538Y0093844D01*
X0006635Y0093965D01*
X0006736Y0094084D01*
X0006840Y0094201D01*
X0006946Y0094314D01*
X0007056Y0094425D01*
X0007168Y0094533D01*
X0007283Y0094638D01*
X0007401Y0094741D01*
X0007521Y0094840D01*
X0007644Y0094936D01*
X0007769Y0095029D01*
X0007896Y0095118D01*
X0008026Y0095205D01*
X0008158Y0095288D01*
X0008292Y0095367D01*
X0008428Y0095444D01*
X0008566Y0095516D01*
X0008705Y0095586D01*
X0008847Y0095651D01*
X0008990Y0095713D01*
X0009134Y0095771D01*
X0009280Y0095826D01*
X0009428Y0095877D01*
X0009576Y0095924D01*
X0009726Y0095967D01*
X0009877Y0096006D01*
X0010029Y0096042D01*
X0010181Y0096073D01*
X0010335Y0096101D01*
X0010489Y0096125D01*
X0010643Y0096145D01*
X0010798Y0096161D01*
X0010954Y0096173D01*
X0011109Y0096181D01*
X0011265Y0096185D01*
X0011421Y0096185D01*
X0011577Y0096181D01*
X0011732Y0096173D01*
X0011888Y0096161D01*
X0012043Y0096145D01*
X0012197Y0096125D01*
X0012351Y0096101D01*
X0012505Y0096073D01*
X0012657Y0096042D01*
X0012809Y0096006D01*
X0012960Y0095967D01*
X0013110Y0095924D01*
X0013258Y0095877D01*
X0013406Y0095826D01*
X0013552Y0095771D01*
X0013696Y0095713D01*
X0013839Y0095651D01*
X0013981Y0095586D01*
X0014120Y0095516D01*
X0014258Y0095444D01*
X0014394Y0095367D01*
X0014528Y0095288D01*
X0014660Y0095205D01*
X0014790Y0095118D01*
X0014917Y0095029D01*
X0015042Y0094936D01*
X0015165Y0094840D01*
X0015285Y0094741D01*
X0015403Y0094638D01*
X0015518Y0094533D01*
X0015630Y0094425D01*
X0015740Y0094314D01*
X0015846Y0094201D01*
X0015950Y0094084D01*
X0016051Y0093965D01*
X0016148Y0093844D01*
X0016243Y0093720D01*
X0016334Y0093594D01*
X0016422Y0093465D01*
X0016507Y0093334D01*
X0016588Y0093201D01*
X0016666Y0093066D01*
X0016740Y0092929D01*
X0016811Y0092791D01*
X0016879Y0092650D01*
X0016943Y0092508D01*
X0017003Y0092364D01*
X0017059Y0092219D01*
X0017112Y0092072D01*
X0017161Y0091924D01*
X0017206Y0091775D01*
X0017247Y0091625D01*
X0017284Y0091473D01*
X0017318Y0091321D01*
X0017348Y0091168D01*
X0017373Y0091014D01*
X0017395Y0090860D01*
X0017413Y0090705D01*
X0017427Y0090550D01*
X0017437Y0090395D01*
X0017443Y0090239D01*
X0017445Y0090083D01*
X0017443Y0089927D01*
X0017437Y0089771D01*
X0017427Y0089616D01*
X0017413Y0089461D01*
X0017395Y0089306D01*
X0017373Y0089152D01*
X0017348Y0088998D01*
X0017318Y0088845D01*
X0017284Y0088693D01*
X0017247Y0088541D01*
X0017206Y0088391D01*
X0017161Y0088242D01*
X0017112Y0088094D01*
X0017059Y0087947D01*
X0017003Y0087802D01*
X0016943Y0087658D01*
X0016879Y0087516D01*
X0016811Y0087375D01*
X0016740Y0087237D01*
X0016666Y0087100D01*
X0016588Y0086965D01*
X0016507Y0086832D01*
X0016422Y0086701D01*
X0016334Y0086572D01*
X0016243Y0086446D01*
X0016148Y0086322D01*
X0016051Y0086201D01*
X0015950Y0086082D01*
X0015846Y0085965D01*
X0015740Y0085852D01*
X0015630Y0085741D01*
X0015518Y0085633D01*
X0015403Y0085528D01*
X0015285Y0085425D01*
X0015165Y0085326D01*
X0015042Y0085230D01*
X0014917Y0085137D01*
X0014790Y0085048D01*
X0014660Y0084961D01*
X0014528Y0084878D01*
X0014394Y0084799D01*
X0014258Y0084722D01*
X0014120Y0084650D01*
X0013981Y0084580D01*
X0013839Y0084515D01*
X0013696Y0084453D01*
X0013552Y0084395D01*
X0013406Y0084340D01*
X0013258Y0084289D01*
X0013110Y0084242D01*
X0012960Y0084199D01*
X0012809Y0084160D01*
X0012657Y0084124D01*
X0012505Y0084093D01*
X0012351Y0084065D01*
X0012197Y0084041D01*
X0012043Y0084021D01*
X0011888Y0084005D01*
X0011732Y0083993D01*
X0011577Y0083985D01*
X0011421Y0083981D01*
X0011265Y0083981D01*
X0011109Y0083985D01*
X0010954Y0083993D01*
X0010798Y0084005D01*
X0010643Y0084021D01*
X0010489Y0084041D01*
X0010335Y0084065D01*
X0010181Y0084093D01*
X0010029Y0084124D01*
X0009877Y0084160D01*
X0009726Y0084199D01*
X0009576Y0084242D01*
X0009428Y0084289D01*
X0009280Y0084340D01*
X0009134Y0084395D01*
X0008990Y0084453D01*
X0008847Y0084515D01*
X0008705Y0084580D01*
X0008566Y0084650D01*
X0008428Y0084722D01*
X0008292Y0084799D01*
X0008158Y0084878D01*
X0008026Y0084961D01*
X0007896Y0085048D01*
X0007769Y0085137D01*
X0007644Y0085230D01*
X0007521Y0085326D01*
X0007401Y0085425D01*
X0007283Y0085528D01*
X0007168Y0085633D01*
X0007056Y0085741D01*
X0006946Y0085852D01*
X0006840Y0085965D01*
X0006736Y0086082D01*
X0006635Y0086201D01*
X0006538Y0086322D01*
X0006443Y0086446D01*
X0006352Y0086572D01*
X0006264Y0086701D01*
X0006179Y0086832D01*
X0006098Y0086965D01*
X0006020Y0087100D01*
X0005946Y0087237D01*
X0005875Y0087375D01*
X0005807Y0087516D01*
X0005743Y0087658D01*
X0005683Y0087802D01*
X0005627Y0087947D01*
X0005574Y0088094D01*
X0005525Y0088242D01*
X0005480Y0088391D01*
X0005439Y0088541D01*
X0005402Y0088693D01*
X0005368Y0088845D01*
X0005338Y0088998D01*
X0005313Y0089152D01*
X0005291Y0089306D01*
X0005273Y0089461D01*
X0005259Y0089616D01*
X0005249Y0089771D01*
X0005243Y0089927D01*
X0005241Y0090083D01*
X0083981Y0090083D02*
X0083983Y0090239D01*
X0083989Y0090395D01*
X0083999Y0090550D01*
X0084013Y0090705D01*
X0084031Y0090860D01*
X0084053Y0091014D01*
X0084078Y0091168D01*
X0084108Y0091321D01*
X0084142Y0091473D01*
X0084179Y0091625D01*
X0084220Y0091775D01*
X0084265Y0091924D01*
X0084314Y0092072D01*
X0084367Y0092219D01*
X0084423Y0092364D01*
X0084483Y0092508D01*
X0084547Y0092650D01*
X0084615Y0092791D01*
X0084686Y0092929D01*
X0084760Y0093066D01*
X0084838Y0093201D01*
X0084919Y0093334D01*
X0085004Y0093465D01*
X0085092Y0093594D01*
X0085183Y0093720D01*
X0085278Y0093844D01*
X0085375Y0093965D01*
X0085476Y0094084D01*
X0085580Y0094201D01*
X0085686Y0094314D01*
X0085796Y0094425D01*
X0085908Y0094533D01*
X0086023Y0094638D01*
X0086141Y0094741D01*
X0086261Y0094840D01*
X0086384Y0094936D01*
X0086509Y0095029D01*
X0086636Y0095118D01*
X0086766Y0095205D01*
X0086898Y0095288D01*
X0087032Y0095367D01*
X0087168Y0095444D01*
X0087306Y0095516D01*
X0087445Y0095586D01*
X0087587Y0095651D01*
X0087730Y0095713D01*
X0087874Y0095771D01*
X0088020Y0095826D01*
X0088168Y0095877D01*
X0088316Y0095924D01*
X0088466Y0095967D01*
X0088617Y0096006D01*
X0088769Y0096042D01*
X0088921Y0096073D01*
X0089075Y0096101D01*
X0089229Y0096125D01*
X0089383Y0096145D01*
X0089538Y0096161D01*
X0089694Y0096173D01*
X0089849Y0096181D01*
X0090005Y0096185D01*
X0090161Y0096185D01*
X0090317Y0096181D01*
X0090472Y0096173D01*
X0090628Y0096161D01*
X0090783Y0096145D01*
X0090937Y0096125D01*
X0091091Y0096101D01*
X0091245Y0096073D01*
X0091397Y0096042D01*
X0091549Y0096006D01*
X0091700Y0095967D01*
X0091850Y0095924D01*
X0091998Y0095877D01*
X0092146Y0095826D01*
X0092292Y0095771D01*
X0092436Y0095713D01*
X0092579Y0095651D01*
X0092721Y0095586D01*
X0092860Y0095516D01*
X0092998Y0095444D01*
X0093134Y0095367D01*
X0093268Y0095288D01*
X0093400Y0095205D01*
X0093530Y0095118D01*
X0093657Y0095029D01*
X0093782Y0094936D01*
X0093905Y0094840D01*
X0094025Y0094741D01*
X0094143Y0094638D01*
X0094258Y0094533D01*
X0094370Y0094425D01*
X0094480Y0094314D01*
X0094586Y0094201D01*
X0094690Y0094084D01*
X0094791Y0093965D01*
X0094888Y0093844D01*
X0094983Y0093720D01*
X0095074Y0093594D01*
X0095162Y0093465D01*
X0095247Y0093334D01*
X0095328Y0093201D01*
X0095406Y0093066D01*
X0095480Y0092929D01*
X0095551Y0092791D01*
X0095619Y0092650D01*
X0095683Y0092508D01*
X0095743Y0092364D01*
X0095799Y0092219D01*
X0095852Y0092072D01*
X0095901Y0091924D01*
X0095946Y0091775D01*
X0095987Y0091625D01*
X0096024Y0091473D01*
X0096058Y0091321D01*
X0096088Y0091168D01*
X0096113Y0091014D01*
X0096135Y0090860D01*
X0096153Y0090705D01*
X0096167Y0090550D01*
X0096177Y0090395D01*
X0096183Y0090239D01*
X0096185Y0090083D01*
X0096183Y0089927D01*
X0096177Y0089771D01*
X0096167Y0089616D01*
X0096153Y0089461D01*
X0096135Y0089306D01*
X0096113Y0089152D01*
X0096088Y0088998D01*
X0096058Y0088845D01*
X0096024Y0088693D01*
X0095987Y0088541D01*
X0095946Y0088391D01*
X0095901Y0088242D01*
X0095852Y0088094D01*
X0095799Y0087947D01*
X0095743Y0087802D01*
X0095683Y0087658D01*
X0095619Y0087516D01*
X0095551Y0087375D01*
X0095480Y0087237D01*
X0095406Y0087100D01*
X0095328Y0086965D01*
X0095247Y0086832D01*
X0095162Y0086701D01*
X0095074Y0086572D01*
X0094983Y0086446D01*
X0094888Y0086322D01*
X0094791Y0086201D01*
X0094690Y0086082D01*
X0094586Y0085965D01*
X0094480Y0085852D01*
X0094370Y0085741D01*
X0094258Y0085633D01*
X0094143Y0085528D01*
X0094025Y0085425D01*
X0093905Y0085326D01*
X0093782Y0085230D01*
X0093657Y0085137D01*
X0093530Y0085048D01*
X0093400Y0084961D01*
X0093268Y0084878D01*
X0093134Y0084799D01*
X0092998Y0084722D01*
X0092860Y0084650D01*
X0092721Y0084580D01*
X0092579Y0084515D01*
X0092436Y0084453D01*
X0092292Y0084395D01*
X0092146Y0084340D01*
X0091998Y0084289D01*
X0091850Y0084242D01*
X0091700Y0084199D01*
X0091549Y0084160D01*
X0091397Y0084124D01*
X0091245Y0084093D01*
X0091091Y0084065D01*
X0090937Y0084041D01*
X0090783Y0084021D01*
X0090628Y0084005D01*
X0090472Y0083993D01*
X0090317Y0083985D01*
X0090161Y0083981D01*
X0090005Y0083981D01*
X0089849Y0083985D01*
X0089694Y0083993D01*
X0089538Y0084005D01*
X0089383Y0084021D01*
X0089229Y0084041D01*
X0089075Y0084065D01*
X0088921Y0084093D01*
X0088769Y0084124D01*
X0088617Y0084160D01*
X0088466Y0084199D01*
X0088316Y0084242D01*
X0088168Y0084289D01*
X0088020Y0084340D01*
X0087874Y0084395D01*
X0087730Y0084453D01*
X0087587Y0084515D01*
X0087445Y0084580D01*
X0087306Y0084650D01*
X0087168Y0084722D01*
X0087032Y0084799D01*
X0086898Y0084878D01*
X0086766Y0084961D01*
X0086636Y0085048D01*
X0086509Y0085137D01*
X0086384Y0085230D01*
X0086261Y0085326D01*
X0086141Y0085425D01*
X0086023Y0085528D01*
X0085908Y0085633D01*
X0085796Y0085741D01*
X0085686Y0085852D01*
X0085580Y0085965D01*
X0085476Y0086082D01*
X0085375Y0086201D01*
X0085278Y0086322D01*
X0085183Y0086446D01*
X0085092Y0086572D01*
X0085004Y0086701D01*
X0084919Y0086832D01*
X0084838Y0086965D01*
X0084760Y0087100D01*
X0084686Y0087237D01*
X0084615Y0087375D01*
X0084547Y0087516D01*
X0084483Y0087658D01*
X0084423Y0087802D01*
X0084367Y0087947D01*
X0084314Y0088094D01*
X0084265Y0088242D01*
X0084220Y0088391D01*
X0084179Y0088541D01*
X0084142Y0088693D01*
X0084108Y0088845D01*
X0084078Y0088998D01*
X0084053Y0089152D01*
X0084031Y0089306D01*
X0084013Y0089461D01*
X0083999Y0089616D01*
X0083989Y0089771D01*
X0083983Y0089927D01*
X0083981Y0090083D01*
D11*
X0057800Y0034768D03*
X0057800Y0027287D03*
X0047563Y0027287D03*
X0047563Y0031028D03*
X0047563Y0034768D03*
D12*
X0050713Y0047366D03*
X0050713Y0054059D03*
X0046776Y0061146D03*
X0046776Y0067839D03*
X0056618Y0067839D03*
X0056618Y0061146D03*
X0042839Y0054059D03*
X0042839Y0047366D03*
X0034965Y0047366D03*
X0034965Y0054059D03*
D13*
X0024335Y0054157D03*
X0024335Y0049236D03*
X0024335Y0059079D03*
X0024335Y0064000D03*
D14*
X0011736Y0074039D03*
X0011736Y0039197D03*
D15*
X0013311Y0015280D03*
X0088114Y0015280D03*
D16*
X0064886Y0015280D03*
X0040476Y0015280D03*
D17*
X0070791Y0031028D03*
X0081815Y0031028D03*
D18*
X0060555Y0090083D03*
X0050555Y0090083D03*
D19*
X0047476Y0086373D02*
X0019117Y0086373D01*
X0018704Y0085375D02*
X0049378Y0085375D01*
X0049600Y0085283D02*
X0051510Y0085283D01*
X0053274Y0086013D01*
X0054624Y0087364D01*
X0055355Y0089128D01*
X0055355Y0091037D01*
X0054624Y0092802D01*
X0053274Y0094152D01*
X0051510Y0094883D01*
X0049600Y0094883D01*
X0047836Y0094152D01*
X0046486Y0092802D01*
X0045755Y0091037D01*
X0045755Y0089128D01*
X0046486Y0087364D01*
X0047836Y0086013D01*
X0049600Y0085283D01*
X0051733Y0085375D02*
X0058341Y0085375D01*
X0058559Y0085264D02*
X0059337Y0085011D01*
X0060055Y0084897D01*
X0060055Y0089583D01*
X0055369Y0089583D01*
X0055483Y0088865D01*
X0055736Y0088087D01*
X0056108Y0087357D01*
X0056589Y0086695D01*
X0057168Y0086116D01*
X0057830Y0085635D01*
X0058559Y0085264D01*
X0056910Y0086373D02*
X0053634Y0086373D01*
X0054628Y0087372D02*
X0056100Y0087372D01*
X0055644Y0088370D02*
X0055041Y0088370D01*
X0055355Y0089369D02*
X0055403Y0089369D01*
X0055355Y0090368D02*
X0060055Y0090368D01*
X0060055Y0090583D02*
X0060055Y0089583D01*
X0061055Y0089583D01*
X0061055Y0090583D01*
X0060055Y0090583D01*
X0060055Y0095268D01*
X0059337Y0095155D01*
X0058559Y0094902D01*
X0057830Y0094530D01*
X0057168Y0094049D01*
X0056589Y0093470D01*
X0056108Y0092808D01*
X0055736Y0092079D01*
X0055483Y0091300D01*
X0055369Y0090583D01*
X0060055Y0090583D01*
X0060055Y0091366D02*
X0061055Y0091366D01*
X0061055Y0090583D02*
X0061055Y0095268D01*
X0061773Y0095155D01*
X0062551Y0094902D01*
X0063281Y0094530D01*
X0063943Y0094049D01*
X0064521Y0093470D01*
X0065003Y0092808D01*
X0065374Y0092079D01*
X0065627Y0091300D01*
X0065741Y0090583D01*
X0061055Y0090583D01*
X0061055Y0090368D02*
X0081480Y0090368D01*
X0081480Y0091366D02*
X0065606Y0091366D01*
X0065229Y0092365D02*
X0081717Y0092365D01*
X0081480Y0091794D02*
X0081480Y0088372D01*
X0082790Y0085210D01*
X0085210Y0082790D01*
X0088372Y0081480D01*
X0091794Y0081480D01*
X0094956Y0082790D01*
X0097375Y0085210D01*
X0097425Y0085330D01*
X0097425Y0027206D01*
X0086443Y0027206D01*
X0086465Y0027287D01*
X0086465Y0030528D01*
X0082315Y0030528D01*
X0082315Y0031528D01*
X0081315Y0031528D01*
X0081315Y0036071D01*
X0078468Y0036071D01*
X0078086Y0035969D01*
X0077744Y0035771D01*
X0077465Y0035492D01*
X0077268Y0035150D01*
X0077165Y0034768D01*
X0077165Y0034397D01*
X0076966Y0034596D01*
X0075041Y0034596D01*
X0075041Y0035027D01*
X0074397Y0035671D01*
X0067186Y0035671D01*
X0066542Y0035027D01*
X0066542Y0034596D01*
X0063829Y0034596D01*
X0062892Y0033659D01*
X0062892Y0024360D01*
X0059892Y0024360D01*
X0059700Y0024167D01*
X0059700Y0025105D01*
X0060617Y0025105D01*
X0061262Y0025749D01*
X0061262Y0028826D01*
X0060617Y0029470D01*
X0054982Y0029470D01*
X0054337Y0028826D01*
X0054337Y0025749D01*
X0054982Y0025105D01*
X0055900Y0025105D01*
X0055900Y0015673D01*
X0057013Y0014560D01*
X0058193Y0013380D01*
X0058955Y0013380D01*
X0058955Y0007136D01*
X0059892Y0006199D01*
X0078156Y0006199D01*
X0078156Y0004000D01*
X0023269Y0004000D01*
X0023269Y0006199D01*
X0045470Y0006199D01*
X0046407Y0007136D01*
X0046407Y0013380D01*
X0047169Y0013380D01*
X0048350Y0014560D01*
X0049463Y0015673D01*
X0049463Y0025105D01*
X0050380Y0025105D01*
X0051025Y0025749D01*
X0051025Y0028826D01*
X0050976Y0028875D01*
X0051125Y0029024D01*
X0051323Y0029366D01*
X0051425Y0029747D01*
X0051425Y0030986D01*
X0047604Y0030986D01*
X0047604Y0031069D01*
X0051425Y0031069D01*
X0051425Y0032308D01*
X0051323Y0032689D01*
X0051125Y0033031D01*
X0050976Y0033180D01*
X0051025Y0033229D01*
X0051025Y0036306D01*
X0050380Y0036950D01*
X0049463Y0036950D01*
X0049463Y0037005D01*
X0057118Y0041332D01*
X0057405Y0041332D01*
X0057778Y0041706D01*
X0058238Y0041965D01*
X0058315Y0042242D01*
X0058518Y0042445D01*
X0058518Y0042973D01*
X0058659Y0043482D01*
X0058518Y0043732D01*
X0058518Y0057880D01*
X0059042Y0057880D01*
X0059687Y0058525D01*
X0059687Y0063767D01*
X0059173Y0064280D01*
X0059508Y0064473D01*
X0059787Y0064752D01*
X0059984Y0065094D01*
X0060087Y0065476D01*
X0060087Y0067354D01*
X0057102Y0067354D01*
X0057102Y0068323D01*
X0056134Y0068323D01*
X0056134Y0071504D01*
X0054452Y0071504D01*
X0054071Y0071402D01*
X0053729Y0071204D01*
X0053449Y0070925D01*
X0053252Y0070583D01*
X0053150Y0070201D01*
X0053150Y0068323D01*
X0056134Y0068323D01*
X0056134Y0067354D01*
X0053150Y0067354D01*
X0053150Y0065476D01*
X0053252Y0065094D01*
X0053449Y0064752D01*
X0053729Y0064473D01*
X0054063Y0064280D01*
X0053550Y0063767D01*
X0053550Y0063046D01*
X0049844Y0063046D01*
X0049844Y0063767D01*
X0049331Y0064280D01*
X0049665Y0064473D01*
X0049944Y0064752D01*
X0050142Y0065094D01*
X0050244Y0065476D01*
X0050244Y0067354D01*
X0047260Y0067354D01*
X0047260Y0068323D01*
X0046291Y0068323D01*
X0046291Y0067354D01*
X0043307Y0067354D01*
X0043307Y0065476D01*
X0043409Y0065094D01*
X0043607Y0064752D01*
X0043886Y0064473D01*
X0044220Y0064280D01*
X0043707Y0063767D01*
X0043707Y0063046D01*
X0033193Y0063046D01*
X0032628Y0062480D01*
X0032628Y0068304D01*
X0031690Y0069242D01*
X0019735Y0069242D01*
X0016585Y0066092D01*
X0008711Y0066092D01*
X0007774Y0065155D01*
X0007774Y0055955D01*
X0008711Y0055018D01*
X0010037Y0055018D01*
X0016585Y0055018D01*
X0017911Y0055018D01*
X0018848Y0055955D01*
X0018848Y0058955D01*
X0019691Y0058955D01*
X0019691Y0057639D01*
X0020336Y0056994D01*
X0028334Y0056994D01*
X0028518Y0057179D01*
X0032395Y0057179D01*
X0031896Y0056680D01*
X0031896Y0056057D01*
X0028518Y0056057D01*
X0028334Y0056242D01*
X0020336Y0056242D01*
X0019691Y0055597D01*
X0019691Y0052718D01*
X0020336Y0052073D01*
X0028334Y0052073D01*
X0028518Y0052257D01*
X0031896Y0052257D01*
X0031896Y0051438D01*
X0032540Y0050794D01*
X0037389Y0050794D01*
X0038033Y0051438D01*
X0038033Y0052159D01*
X0039770Y0052159D01*
X0039770Y0051438D01*
X0040283Y0050925D01*
X0039949Y0050732D01*
X0039670Y0050453D01*
X0039472Y0050110D01*
X0039370Y0049729D01*
X0039370Y0047850D01*
X0042354Y0047850D01*
X0042354Y0046882D01*
X0039370Y0046882D01*
X0039370Y0045003D01*
X0039472Y0044622D01*
X0039670Y0044280D01*
X0039949Y0044000D01*
X0040291Y0043803D01*
X0040673Y0043701D01*
X0042354Y0043701D01*
X0042354Y0046882D01*
X0043323Y0046882D01*
X0043323Y0047850D01*
X0046307Y0047850D01*
X0046307Y0049729D01*
X0046205Y0050110D01*
X0046007Y0050453D01*
X0045728Y0050732D01*
X0045394Y0050925D01*
X0045907Y0051438D01*
X0045907Y0052159D01*
X0047644Y0052159D01*
X0047644Y0051438D01*
X0048157Y0050925D01*
X0047823Y0050732D01*
X0047544Y0050453D01*
X0047346Y0050110D01*
X0047244Y0049729D01*
X0047244Y0047850D01*
X0050228Y0047850D01*
X0050228Y0046882D01*
X0047244Y0046882D01*
X0047244Y0045003D01*
X0047346Y0044622D01*
X0047544Y0044280D01*
X0047823Y0044000D01*
X0048165Y0043803D01*
X0048547Y0043701D01*
X0050228Y0043701D01*
X0050228Y0046882D01*
X0051197Y0046882D01*
X0051197Y0047850D01*
X0054181Y0047850D01*
X0054181Y0049729D01*
X0054079Y0050110D01*
X0053881Y0050453D01*
X0053602Y0050732D01*
X0053268Y0050925D01*
X0053781Y0051438D01*
X0053781Y0056680D01*
X0053137Y0057324D01*
X0048288Y0057324D01*
X0047644Y0056680D01*
X0047644Y0055959D01*
X0045907Y0055959D01*
X0045907Y0056680D01*
X0045263Y0057324D01*
X0040414Y0057324D01*
X0039770Y0056680D01*
X0039770Y0055959D01*
X0038033Y0055959D01*
X0038033Y0056680D01*
X0037389Y0057324D01*
X0032846Y0057324D01*
X0034767Y0059246D01*
X0043707Y0059246D01*
X0043707Y0058525D01*
X0044351Y0057880D01*
X0049200Y0057880D01*
X0049844Y0058525D01*
X0049844Y0059246D01*
X0053550Y0059246D01*
X0053550Y0058525D01*
X0054194Y0057880D01*
X0054718Y0057880D01*
X0054718Y0044341D01*
X0047063Y0040014D01*
X0046776Y0040014D01*
X0046402Y0039640D01*
X0045943Y0039381D01*
X0045866Y0039104D01*
X0045663Y0038901D01*
X0045663Y0038373D01*
X0045521Y0037864D01*
X0045663Y0037614D01*
X0045663Y0036950D01*
X0044745Y0036950D01*
X0044100Y0036306D01*
X0044100Y0033229D01*
X0044149Y0033180D01*
X0044000Y0033031D01*
X0043803Y0032689D01*
X0043700Y0032308D01*
X0043700Y0031069D01*
X0047521Y0031069D01*
X0047521Y0030986D01*
X0043700Y0030986D01*
X0043700Y0029747D01*
X0043803Y0029366D01*
X0043906Y0029187D01*
X0039492Y0029187D01*
X0036865Y0031815D01*
X0036865Y0044101D01*
X0037389Y0044101D01*
X0038033Y0044745D01*
X0038033Y0049987D01*
X0037389Y0050631D01*
X0032540Y0050631D01*
X0031896Y0049987D01*
X0031896Y0044745D01*
X0032540Y0044101D01*
X0033065Y0044101D01*
X0033065Y0030241D01*
X0037918Y0025387D01*
X0044462Y0025387D01*
X0044745Y0025105D01*
X0045663Y0025105D01*
X0045663Y0024167D01*
X0045470Y0024360D01*
X0023269Y0024360D01*
X0023269Y0026562D01*
X0022625Y0027206D01*
X0004000Y0027206D01*
X0004000Y0085330D01*
X0004050Y0085210D01*
X0006470Y0082790D01*
X0009631Y0081480D01*
X0013054Y0081480D01*
X0016215Y0082790D01*
X0018635Y0085210D01*
X0019945Y0088372D01*
X0019945Y0091794D01*
X0018635Y0094956D01*
X0016215Y0097375D01*
X0016095Y0097425D01*
X0085330Y0097425D01*
X0085210Y0097375D01*
X0082790Y0094956D01*
X0081480Y0091794D01*
X0082130Y0093363D02*
X0064599Y0093363D01*
X0063513Y0094362D02*
X0082544Y0094362D01*
X0083195Y0095360D02*
X0018231Y0095360D01*
X0018881Y0094362D02*
X0048342Y0094362D01*
X0047047Y0093363D02*
X0019295Y0093363D01*
X0019708Y0092365D02*
X0046305Y0092365D01*
X0045891Y0091366D02*
X0019945Y0091366D01*
X0019945Y0090368D02*
X0045755Y0090368D01*
X0045755Y0089369D02*
X0019945Y0089369D01*
X0019944Y0088370D02*
X0046069Y0088370D01*
X0046482Y0087372D02*
X0019531Y0087372D01*
X0017802Y0084376D02*
X0083623Y0084376D01*
X0082722Y0085375D02*
X0062770Y0085375D01*
X0062551Y0085264D02*
X0063281Y0085635D01*
X0063943Y0086116D01*
X0064521Y0086695D01*
X0065003Y0087357D01*
X0065374Y0088087D01*
X0065627Y0088865D01*
X0065741Y0089583D01*
X0061055Y0089583D01*
X0061055Y0084897D01*
X0061773Y0085011D01*
X0062551Y0085264D01*
X0061055Y0085375D02*
X0060055Y0085375D01*
X0060055Y0086373D02*
X0061055Y0086373D01*
X0061055Y0087372D02*
X0060055Y0087372D01*
X0060055Y0088370D02*
X0061055Y0088370D01*
X0061055Y0089369D02*
X0060055Y0089369D01*
X0060055Y0092365D02*
X0061055Y0092365D01*
X0061055Y0093363D02*
X0060055Y0093363D01*
X0060055Y0094362D02*
X0061055Y0094362D01*
X0057598Y0094362D02*
X0052768Y0094362D01*
X0054063Y0093363D02*
X0056511Y0093363D01*
X0055882Y0092365D02*
X0054805Y0092365D01*
X0055219Y0091366D02*
X0055505Y0091366D01*
X0064200Y0086373D02*
X0082308Y0086373D01*
X0081894Y0087372D02*
X0065010Y0087372D01*
X0065466Y0088370D02*
X0081481Y0088370D01*
X0081480Y0089369D02*
X0065707Y0089369D01*
X0073153Y0082140D02*
X0026883Y0082140D01*
X0026589Y0082435D01*
X0025637Y0082829D01*
X0024607Y0082829D01*
X0023655Y0082435D01*
X0022927Y0081707D01*
X0022533Y0080755D01*
X0022533Y0079725D01*
X0022927Y0078774D01*
X0023655Y0078045D01*
X0024607Y0077651D01*
X0025637Y0077651D01*
X0026589Y0078045D01*
X0026883Y0078340D01*
X0071579Y0078340D01*
X0074113Y0075806D01*
X0074108Y0075801D01*
X0073714Y0074850D01*
X0073714Y0073820D01*
X0074108Y0072868D01*
X0074403Y0072573D01*
X0074403Y0057011D01*
X0058066Y0040674D01*
X0057893Y0040700D01*
X0057764Y0040605D01*
X0057603Y0040605D01*
X0057146Y0040148D01*
X0056627Y0039765D01*
X0056604Y0039606D01*
X0056490Y0039492D01*
X0056490Y0038846D01*
X0056206Y0036950D01*
X0054982Y0036950D01*
X0054337Y0036306D01*
X0054337Y0033229D01*
X0054982Y0032585D01*
X0060617Y0032585D01*
X0061262Y0033229D01*
X0061262Y0036306D01*
X0060617Y0036950D01*
X0060048Y0036950D01*
X0060107Y0037341D01*
X0077090Y0054324D01*
X0078203Y0055437D01*
X0078203Y0072573D01*
X0078498Y0072868D01*
X0078892Y0073820D01*
X0078892Y0074850D01*
X0078498Y0075801D01*
X0078203Y0076096D01*
X0078203Y0077090D01*
X0074266Y0081027D01*
X0073153Y0082140D01*
X0073912Y0081381D02*
X0097425Y0081381D01*
X0097425Y0082379D02*
X0093964Y0082379D01*
X0095543Y0083378D02*
X0097425Y0083378D01*
X0097425Y0084376D02*
X0096542Y0084376D01*
X0097425Y0080382D02*
X0074911Y0080382D01*
X0075909Y0079384D02*
X0097425Y0079384D01*
X0097425Y0078385D02*
X0076908Y0078385D01*
X0077906Y0077387D02*
X0097425Y0077387D01*
X0097425Y0076388D02*
X0078203Y0076388D01*
X0078668Y0075390D02*
X0097425Y0075390D01*
X0097425Y0074391D02*
X0078892Y0074391D01*
X0078715Y0073393D02*
X0097425Y0073393D01*
X0097425Y0072394D02*
X0078203Y0072394D01*
X0078203Y0071396D02*
X0097425Y0071396D01*
X0097425Y0070397D02*
X0078203Y0070397D01*
X0078203Y0069399D02*
X0097425Y0069399D01*
X0097425Y0068400D02*
X0078203Y0068400D01*
X0078203Y0067402D02*
X0097425Y0067402D01*
X0097425Y0066403D02*
X0078203Y0066403D01*
X0078203Y0065405D02*
X0097425Y0065405D01*
X0097425Y0064406D02*
X0078203Y0064406D01*
X0078203Y0063408D02*
X0097425Y0063408D01*
X0097425Y0062409D02*
X0078203Y0062409D01*
X0078203Y0061411D02*
X0097425Y0061411D01*
X0097425Y0060412D02*
X0078203Y0060412D01*
X0078203Y0059414D02*
X0097425Y0059414D01*
X0097425Y0058415D02*
X0078203Y0058415D01*
X0078203Y0057417D02*
X0097425Y0057417D01*
X0097425Y0056418D02*
X0078203Y0056418D01*
X0078185Y0055420D02*
X0097425Y0055420D01*
X0097425Y0054421D02*
X0077187Y0054421D01*
X0076188Y0053423D02*
X0097425Y0053423D01*
X0097425Y0052424D02*
X0075190Y0052424D01*
X0074191Y0051426D02*
X0097425Y0051426D01*
X0097425Y0050427D02*
X0073193Y0050427D01*
X0072194Y0049429D02*
X0097425Y0049429D01*
X0097425Y0048430D02*
X0071196Y0048430D01*
X0070197Y0047432D02*
X0097425Y0047432D01*
X0097425Y0046433D02*
X0069199Y0046433D01*
X0068200Y0045434D02*
X0097425Y0045434D01*
X0097425Y0044436D02*
X0067202Y0044436D01*
X0066203Y0043437D02*
X0097425Y0043437D01*
X0097425Y0042439D02*
X0065205Y0042439D01*
X0064206Y0041440D02*
X0097425Y0041440D01*
X0097425Y0040442D02*
X0063208Y0040442D01*
X0062209Y0039443D02*
X0097425Y0039443D01*
X0097425Y0038445D02*
X0061211Y0038445D01*
X0060212Y0037446D02*
X0097425Y0037446D01*
X0097425Y0036448D02*
X0061120Y0036448D01*
X0061262Y0035449D02*
X0066965Y0035449D01*
X0064492Y0032996D02*
X0076303Y0032996D01*
X0076303Y0022366D01*
X0084177Y0022760D01*
X0084177Y0007799D01*
X0060555Y0007799D01*
X0060555Y0022760D01*
X0064492Y0022760D01*
X0064492Y0032996D01*
X0064492Y0032454D02*
X0076303Y0032454D01*
X0076303Y0031455D02*
X0064492Y0031455D01*
X0064492Y0030457D02*
X0076303Y0030457D01*
X0076303Y0029458D02*
X0064492Y0029458D01*
X0064492Y0028460D02*
X0076303Y0028460D01*
X0076303Y0027461D02*
X0064492Y0027461D01*
X0064492Y0026463D02*
X0076303Y0026463D01*
X0076303Y0025464D02*
X0064492Y0025464D01*
X0064492Y0024466D02*
X0076303Y0024466D01*
X0076303Y0023467D02*
X0064492Y0023467D01*
X0062892Y0024466D02*
X0059700Y0024466D01*
X0060977Y0025464D02*
X0062892Y0025464D01*
X0062892Y0026463D02*
X0061262Y0026463D01*
X0061262Y0027461D02*
X0062892Y0027461D01*
X0062892Y0028460D02*
X0061262Y0028460D01*
X0060629Y0029458D02*
X0062892Y0029458D01*
X0062892Y0030457D02*
X0051425Y0030457D01*
X0051425Y0031455D02*
X0062892Y0031455D01*
X0062892Y0032454D02*
X0051386Y0032454D01*
X0051025Y0033452D02*
X0054337Y0033452D01*
X0054337Y0034451D02*
X0051025Y0034451D01*
X0051025Y0035449D02*
X0054337Y0035449D01*
X0054479Y0036448D02*
X0050883Y0036448D01*
X0050243Y0037446D02*
X0056280Y0037446D01*
X0056430Y0038445D02*
X0052010Y0038445D01*
X0053776Y0039443D02*
X0056490Y0039443D01*
X0055543Y0040442D02*
X0057440Y0040442D01*
X0057513Y0041440D02*
X0058832Y0041440D01*
X0058512Y0042439D02*
X0059831Y0042439D01*
X0060829Y0043437D02*
X0058647Y0043437D01*
X0058518Y0044436D02*
X0061828Y0044436D01*
X0062826Y0045434D02*
X0058518Y0045434D01*
X0058518Y0046433D02*
X0063825Y0046433D01*
X0064823Y0047432D02*
X0058518Y0047432D01*
X0058518Y0048430D02*
X0065822Y0048430D01*
X0066820Y0049429D02*
X0058518Y0049429D01*
X0058518Y0050427D02*
X0067819Y0050427D01*
X0068817Y0051426D02*
X0058518Y0051426D01*
X0058518Y0052424D02*
X0069816Y0052424D01*
X0070814Y0053423D02*
X0058518Y0053423D01*
X0058518Y0054421D02*
X0071813Y0054421D01*
X0072811Y0055420D02*
X0058518Y0055420D01*
X0058518Y0056418D02*
X0073810Y0056418D01*
X0074403Y0057417D02*
X0058518Y0057417D01*
X0059577Y0058415D02*
X0074403Y0058415D01*
X0074403Y0059414D02*
X0059687Y0059414D01*
X0059687Y0060412D02*
X0074403Y0060412D01*
X0074403Y0061411D02*
X0059687Y0061411D01*
X0059687Y0062409D02*
X0074403Y0062409D01*
X0074403Y0063408D02*
X0059687Y0063408D01*
X0059392Y0064406D02*
X0074403Y0064406D01*
X0074403Y0065405D02*
X0060068Y0065405D01*
X0060087Y0066403D02*
X0074403Y0066403D01*
X0074403Y0067402D02*
X0057102Y0067402D01*
X0057102Y0068323D02*
X0060087Y0068323D01*
X0060087Y0070201D01*
X0059984Y0070583D01*
X0059787Y0070925D01*
X0059508Y0071204D01*
X0059166Y0071402D01*
X0058784Y0071504D01*
X0057102Y0071504D01*
X0057102Y0068323D01*
X0057102Y0068400D02*
X0056134Y0068400D01*
X0056134Y0067402D02*
X0047260Y0067402D01*
X0047260Y0068323D02*
X0050244Y0068323D01*
X0050244Y0070201D01*
X0050142Y0070583D01*
X0049944Y0070925D01*
X0049665Y0071204D01*
X0049323Y0071402D01*
X0048942Y0071504D01*
X0047260Y0071504D01*
X0047260Y0068323D01*
X0047260Y0068400D02*
X0046291Y0068400D01*
X0046291Y0068323D02*
X0046291Y0071504D01*
X0044610Y0071504D01*
X0044228Y0071402D01*
X0043886Y0071204D01*
X0043607Y0070925D01*
X0043409Y0070583D01*
X0043307Y0070201D01*
X0043307Y0068323D01*
X0046291Y0068323D01*
X0046291Y0067402D02*
X0032628Y0067402D01*
X0032628Y0066403D02*
X0043307Y0066403D01*
X0043326Y0065405D02*
X0032628Y0065405D01*
X0032628Y0064406D02*
X0044002Y0064406D01*
X0043707Y0063408D02*
X0032628Y0063408D01*
X0031028Y0063408D02*
X0029378Y0063408D01*
X0029378Y0062818D02*
X0029378Y0064000D01*
X0029378Y0065182D01*
X0029276Y0065563D01*
X0029078Y0065905D01*
X0028799Y0066185D01*
X0028457Y0066382D01*
X0028075Y0066484D01*
X0024335Y0066484D01*
X0024335Y0064000D01*
X0029378Y0064000D01*
X0024335Y0064000D01*
X0024335Y0064000D01*
X0024335Y0064000D01*
X0024335Y0061516D01*
X0028075Y0061516D01*
X0028457Y0061618D01*
X0028799Y0061815D01*
X0029078Y0062095D01*
X0029276Y0062437D01*
X0029378Y0062818D01*
X0029260Y0062409D02*
X0031028Y0062409D01*
X0031028Y0061411D02*
X0009374Y0061411D01*
X0009374Y0062409D02*
X0019409Y0062409D01*
X0019394Y0062437D02*
X0019591Y0062095D01*
X0019870Y0061815D01*
X0020212Y0061618D01*
X0020594Y0061516D01*
X0024335Y0061516D01*
X0024335Y0064000D01*
X0024335Y0064000D01*
X0024335Y0066484D01*
X0020594Y0066484D01*
X0020212Y0066382D01*
X0019870Y0066185D01*
X0019591Y0065905D01*
X0019394Y0065563D01*
X0019291Y0065182D01*
X0019291Y0064000D01*
X0019291Y0062818D01*
X0019394Y0062437D01*
X0019291Y0063408D02*
X0009374Y0063408D01*
X0009374Y0064406D02*
X0019291Y0064406D01*
X0019291Y0064000D02*
X0024335Y0064000D01*
X0019291Y0064000D01*
X0019351Y0065405D02*
X0018161Y0065405D01*
X0017248Y0064492D02*
X0020398Y0067642D01*
X0031028Y0067642D01*
X0031028Y0060979D01*
X0028518Y0060979D01*
X0028334Y0061163D01*
X0020336Y0061163D01*
X0019728Y0060555D01*
X0017248Y0060555D01*
X0017248Y0056618D01*
X0009374Y0056618D01*
X0009374Y0064492D01*
X0017248Y0064492D01*
X0016896Y0066403D02*
X0004000Y0066403D01*
X0004000Y0065405D02*
X0008024Y0065405D01*
X0007774Y0064406D02*
X0004000Y0064406D01*
X0004000Y0063408D02*
X0007774Y0063408D01*
X0007774Y0062409D02*
X0004000Y0062409D01*
X0004000Y0061411D02*
X0007774Y0061411D01*
X0007774Y0060412D02*
X0004000Y0060412D01*
X0004000Y0059414D02*
X0007774Y0059414D01*
X0007774Y0058415D02*
X0004000Y0058415D01*
X0004000Y0057417D02*
X0007774Y0057417D01*
X0007774Y0056418D02*
X0004000Y0056418D01*
X0004000Y0055420D02*
X0008310Y0055420D01*
X0009374Y0057417D02*
X0017248Y0057417D01*
X0017248Y0058415D02*
X0009374Y0058415D01*
X0009374Y0059414D02*
X0017248Y0059414D01*
X0017248Y0060412D02*
X0009374Y0060412D01*
X0004000Y0054421D02*
X0019691Y0054421D01*
X0019691Y0053423D02*
X0004000Y0053423D01*
X0004000Y0052424D02*
X0019985Y0052424D01*
X0020212Y0051618D02*
X0019870Y0051421D01*
X0019591Y0051141D01*
X0019394Y0050799D01*
X0019291Y0050418D01*
X0019291Y0049236D01*
X0019291Y0048054D01*
X0019394Y0047673D01*
X0019591Y0047331D01*
X0019870Y0047052D01*
X0020212Y0046854D01*
X0020594Y0046752D01*
X0024335Y0046752D01*
X0028075Y0046752D01*
X0028457Y0046854D01*
X0028799Y0047052D01*
X0029078Y0047331D01*
X0029276Y0047673D01*
X0029378Y0048054D01*
X0029378Y0049236D01*
X0024335Y0049236D01*
X0024335Y0049236D01*
X0024335Y0046752D01*
X0024335Y0049236D01*
X0024335Y0049236D01*
X0029378Y0049236D01*
X0029378Y0050418D01*
X0029276Y0050799D01*
X0029078Y0051141D01*
X0028799Y0051421D01*
X0028457Y0051618D01*
X0028075Y0051720D01*
X0024335Y0051720D01*
X0024335Y0049236D01*
X0024335Y0049236D01*
X0019291Y0049236D01*
X0024335Y0049236D01*
X0024335Y0049236D01*
X0024335Y0051720D01*
X0020594Y0051720D01*
X0020212Y0051618D01*
X0019879Y0051426D02*
X0004000Y0051426D01*
X0004000Y0050427D02*
X0019294Y0050427D01*
X0019291Y0049429D02*
X0004000Y0049429D01*
X0004000Y0048430D02*
X0019291Y0048430D01*
X0019533Y0047432D02*
X0004000Y0047432D01*
X0004000Y0046433D02*
X0031896Y0046433D01*
X0031896Y0045434D02*
X0004000Y0045434D01*
X0004000Y0044436D02*
X0004815Y0044436D01*
X0004910Y0044531D02*
X0004630Y0044252D01*
X0004433Y0043910D01*
X0004331Y0043528D01*
X0004331Y0039697D01*
X0011236Y0039697D01*
X0011236Y0038697D01*
X0004331Y0038697D01*
X0004331Y0034866D01*
X0004433Y0034484D01*
X0004630Y0034142D01*
X0004910Y0033863D01*
X0005252Y0033665D01*
X0005633Y0033563D01*
X0011236Y0033563D01*
X0011236Y0038697D01*
X0012236Y0038697D01*
X0012236Y0033563D01*
X0017839Y0033563D01*
X0018221Y0033665D01*
X0018563Y0033863D01*
X0018842Y0034142D01*
X0019039Y0034484D01*
X0019142Y0034866D01*
X0019142Y0038697D01*
X0012236Y0038697D01*
X0012236Y0039697D01*
X0011236Y0039697D01*
X0011236Y0044831D01*
X0005633Y0044831D01*
X0005252Y0044728D01*
X0004910Y0044531D01*
X0004331Y0043437D02*
X0004000Y0043437D01*
X0004000Y0042439D02*
X0004331Y0042439D01*
X0004331Y0041440D02*
X0004000Y0041440D01*
X0004000Y0040442D02*
X0004331Y0040442D01*
X0004000Y0039443D02*
X0011236Y0039443D01*
X0011236Y0038445D02*
X0012236Y0038445D01*
X0012236Y0039443D02*
X0033065Y0039443D01*
X0033065Y0038445D02*
X0019142Y0038445D01*
X0019142Y0037446D02*
X0033065Y0037446D01*
X0033065Y0036448D02*
X0019142Y0036448D01*
X0019142Y0035449D02*
X0033065Y0035449D01*
X0033065Y0034451D02*
X0019020Y0034451D01*
X0019142Y0039697D02*
X0012236Y0039697D01*
X0012236Y0044831D01*
X0017839Y0044831D01*
X0018221Y0044728D01*
X0018563Y0044531D01*
X0018842Y0044252D01*
X0019039Y0043910D01*
X0019142Y0043528D01*
X0019142Y0039697D01*
X0019142Y0040442D02*
X0033065Y0040442D01*
X0033065Y0041440D02*
X0019142Y0041440D01*
X0019142Y0042439D02*
X0033065Y0042439D01*
X0033065Y0043437D02*
X0019142Y0043437D01*
X0018658Y0044436D02*
X0032205Y0044436D01*
X0031896Y0047432D02*
X0029136Y0047432D01*
X0029378Y0048430D02*
X0031896Y0048430D01*
X0031896Y0049429D02*
X0029378Y0049429D01*
X0029376Y0050427D02*
X0032336Y0050427D01*
X0031909Y0051426D02*
X0028791Y0051426D01*
X0024335Y0051426D02*
X0024335Y0051426D01*
X0024335Y0050427D02*
X0024335Y0050427D01*
X0024335Y0049429D02*
X0024335Y0049429D01*
X0024335Y0048430D02*
X0024335Y0048430D01*
X0024335Y0047432D02*
X0024335Y0047432D01*
X0019691Y0055420D02*
X0018312Y0055420D01*
X0018848Y0056418D02*
X0031896Y0056418D01*
X0032938Y0057417D02*
X0054718Y0057417D01*
X0054718Y0056418D02*
X0053781Y0056418D01*
X0053781Y0055420D02*
X0054718Y0055420D01*
X0054718Y0054421D02*
X0053781Y0054421D01*
X0053781Y0053423D02*
X0054718Y0053423D01*
X0054718Y0052424D02*
X0053781Y0052424D01*
X0053769Y0051426D02*
X0054718Y0051426D01*
X0054718Y0050427D02*
X0053896Y0050427D01*
X0054181Y0049429D02*
X0054718Y0049429D01*
X0054718Y0048430D02*
X0054181Y0048430D01*
X0054718Y0047432D02*
X0051197Y0047432D01*
X0051197Y0046882D02*
X0054181Y0046882D01*
X0054181Y0045003D01*
X0054079Y0044622D01*
X0053881Y0044280D01*
X0053602Y0044000D01*
X0053260Y0043803D01*
X0052879Y0043701D01*
X0051197Y0043701D01*
X0051197Y0046882D01*
X0051197Y0046433D02*
X0050228Y0046433D01*
X0050228Y0045434D02*
X0051197Y0045434D01*
X0051197Y0044436D02*
X0050228Y0044436D01*
X0051353Y0042439D02*
X0036865Y0042439D01*
X0036865Y0043437D02*
X0053120Y0043437D01*
X0053972Y0044436D02*
X0054718Y0044436D01*
X0054718Y0045434D02*
X0054181Y0045434D01*
X0054181Y0046433D02*
X0054718Y0046433D01*
X0050228Y0047432D02*
X0043323Y0047432D01*
X0043323Y0046882D02*
X0046307Y0046882D01*
X0046307Y0045003D01*
X0046205Y0044622D01*
X0046007Y0044280D01*
X0045728Y0044000D01*
X0045386Y0043803D01*
X0045005Y0043701D01*
X0043323Y0043701D01*
X0043323Y0046882D01*
X0043323Y0046433D02*
X0042354Y0046433D01*
X0042354Y0045434D02*
X0043323Y0045434D01*
X0043323Y0044436D02*
X0042354Y0044436D01*
X0039580Y0044436D02*
X0037724Y0044436D01*
X0038033Y0045434D02*
X0039370Y0045434D01*
X0039370Y0046433D02*
X0038033Y0046433D01*
X0038033Y0047432D02*
X0042354Y0047432D01*
X0039370Y0048430D02*
X0038033Y0048430D01*
X0038033Y0049429D02*
X0039370Y0049429D01*
X0039655Y0050427D02*
X0037593Y0050427D01*
X0038021Y0051426D02*
X0039783Y0051426D01*
X0039770Y0056418D02*
X0038033Y0056418D01*
X0033937Y0058415D02*
X0043817Y0058415D01*
X0045907Y0056418D02*
X0047644Y0056418D01*
X0049735Y0058415D02*
X0053659Y0058415D01*
X0053550Y0063408D02*
X0049844Y0063408D01*
X0049550Y0064406D02*
X0053844Y0064406D01*
X0053169Y0065405D02*
X0050225Y0065405D01*
X0050244Y0066403D02*
X0053150Y0066403D01*
X0053150Y0068400D02*
X0050244Y0068400D01*
X0050244Y0069399D02*
X0053150Y0069399D01*
X0053202Y0070397D02*
X0050192Y0070397D01*
X0049333Y0071396D02*
X0054060Y0071396D01*
X0056134Y0071396D02*
X0057102Y0071396D01*
X0057102Y0070397D02*
X0056134Y0070397D01*
X0056134Y0069399D02*
X0057102Y0069399D01*
X0059176Y0071396D02*
X0074403Y0071396D01*
X0074403Y0072394D02*
X0019142Y0072394D01*
X0019142Y0071396D02*
X0044218Y0071396D01*
X0043360Y0070397D02*
X0019142Y0070397D01*
X0019142Y0069708D02*
X0019142Y0073539D01*
X0012236Y0073539D01*
X0012236Y0068406D01*
X0017839Y0068406D01*
X0018221Y0068508D01*
X0018563Y0068705D01*
X0018842Y0068984D01*
X0019039Y0069327D01*
X0019142Y0069708D01*
X0019059Y0069399D02*
X0043307Y0069399D01*
X0043307Y0068400D02*
X0032532Y0068400D01*
X0031028Y0067402D02*
X0020158Y0067402D01*
X0020292Y0066403D02*
X0019159Y0066403D01*
X0017895Y0067402D02*
X0004000Y0067402D01*
X0004000Y0068400D02*
X0018893Y0068400D01*
X0019142Y0073393D02*
X0073891Y0073393D01*
X0073714Y0074391D02*
X0012236Y0074391D01*
X0012236Y0074539D02*
X0019142Y0074539D01*
X0019142Y0078371D01*
X0019039Y0078752D01*
X0018842Y0079094D01*
X0018563Y0079374D01*
X0018221Y0079571D01*
X0017839Y0079673D01*
X0012236Y0079673D01*
X0012236Y0074539D01*
X0012236Y0073539D01*
X0011236Y0073539D01*
X0011236Y0068406D01*
X0005633Y0068406D01*
X0005252Y0068508D01*
X0004910Y0068705D01*
X0004630Y0068984D01*
X0004433Y0069327D01*
X0004331Y0069708D01*
X0004331Y0073539D01*
X0011236Y0073539D01*
X0011236Y0074539D01*
X0004331Y0074539D01*
X0004331Y0078371D01*
X0004433Y0078752D01*
X0004630Y0079094D01*
X0004910Y0079374D01*
X0005252Y0079571D01*
X0005633Y0079673D01*
X0011236Y0079673D01*
X0011236Y0074539D01*
X0012236Y0074539D01*
X0012236Y0075390D02*
X0011236Y0075390D01*
X0011236Y0076388D02*
X0012236Y0076388D01*
X0012236Y0077387D02*
X0011236Y0077387D01*
X0011236Y0078385D02*
X0012236Y0078385D01*
X0012236Y0079384D02*
X0011236Y0079384D01*
X0007461Y0082379D02*
X0004000Y0082379D01*
X0004000Y0081381D02*
X0022792Y0081381D01*
X0022533Y0080382D02*
X0004000Y0080382D01*
X0004000Y0079384D02*
X0004928Y0079384D01*
X0004335Y0078385D02*
X0004000Y0078385D01*
X0004000Y0077387D02*
X0004331Y0077387D01*
X0004331Y0076388D02*
X0004000Y0076388D01*
X0004000Y0075390D02*
X0004331Y0075390D01*
X0004000Y0074391D02*
X0011236Y0074391D01*
X0011236Y0073393D02*
X0012236Y0073393D01*
X0012236Y0072394D02*
X0011236Y0072394D01*
X0011236Y0071396D02*
X0012236Y0071396D01*
X0012236Y0070397D02*
X0011236Y0070397D01*
X0011236Y0069399D02*
X0012236Y0069399D01*
X0019142Y0075390D02*
X0073938Y0075390D01*
X0073531Y0076388D02*
X0019142Y0076388D01*
X0019142Y0077387D02*
X0072532Y0077387D01*
X0074403Y0070397D02*
X0060034Y0070397D01*
X0060087Y0069399D02*
X0074403Y0069399D01*
X0074403Y0068400D02*
X0060087Y0068400D01*
X0047260Y0069399D02*
X0046291Y0069399D01*
X0046291Y0070397D02*
X0047260Y0070397D01*
X0047260Y0071396D02*
X0046291Y0071396D01*
X0031028Y0066403D02*
X0028378Y0066403D01*
X0029318Y0065405D02*
X0031028Y0065405D01*
X0031028Y0064406D02*
X0029378Y0064406D01*
X0024335Y0064406D02*
X0024335Y0064406D01*
X0024335Y0064000D02*
X0024335Y0064000D01*
X0024335Y0063408D02*
X0024335Y0063408D01*
X0024335Y0062409D02*
X0024335Y0062409D01*
X0024335Y0065405D02*
X0024335Y0065405D01*
X0024335Y0066403D02*
X0024335Y0066403D01*
X0019691Y0058415D02*
X0018848Y0058415D01*
X0018848Y0057417D02*
X0019914Y0057417D01*
X0012236Y0044436D02*
X0011236Y0044436D01*
X0011236Y0043437D02*
X0012236Y0043437D01*
X0012236Y0042439D02*
X0011236Y0042439D01*
X0011236Y0041440D02*
X0012236Y0041440D01*
X0012236Y0040442D02*
X0011236Y0040442D01*
X0011236Y0037446D02*
X0012236Y0037446D01*
X0012236Y0036448D02*
X0011236Y0036448D01*
X0011236Y0035449D02*
X0012236Y0035449D01*
X0012236Y0034451D02*
X0011236Y0034451D01*
X0004452Y0034451D02*
X0004000Y0034451D01*
X0004000Y0035449D02*
X0004331Y0035449D01*
X0004331Y0036448D02*
X0004000Y0036448D01*
X0004000Y0037446D02*
X0004331Y0037446D01*
X0004331Y0038445D02*
X0004000Y0038445D01*
X0004000Y0033452D02*
X0033065Y0033452D01*
X0033065Y0032454D02*
X0004000Y0032454D01*
X0004000Y0031455D02*
X0033065Y0031455D01*
X0033065Y0030457D02*
X0004000Y0030457D01*
X0004000Y0029458D02*
X0033847Y0029458D01*
X0034845Y0028460D02*
X0004000Y0028460D01*
X0004000Y0027461D02*
X0035844Y0027461D01*
X0036842Y0026463D02*
X0023269Y0026463D01*
X0023269Y0025464D02*
X0037841Y0025464D01*
X0039221Y0029458D02*
X0043778Y0029458D01*
X0043700Y0030457D02*
X0038222Y0030457D01*
X0037224Y0031455D02*
X0043700Y0031455D01*
X0043740Y0032454D02*
X0036865Y0032454D01*
X0036865Y0033452D02*
X0044100Y0033452D01*
X0044100Y0034451D02*
X0036865Y0034451D01*
X0036865Y0035449D02*
X0044100Y0035449D01*
X0044242Y0036448D02*
X0036865Y0036448D01*
X0036865Y0037446D02*
X0045663Y0037446D01*
X0045663Y0038445D02*
X0036865Y0038445D01*
X0036865Y0039443D02*
X0046054Y0039443D01*
X0047820Y0040442D02*
X0036865Y0040442D01*
X0036865Y0041440D02*
X0049587Y0041440D01*
X0047454Y0044436D02*
X0046098Y0044436D01*
X0046307Y0045434D02*
X0047244Y0045434D01*
X0047244Y0046433D02*
X0046307Y0046433D01*
X0046307Y0048430D02*
X0047244Y0048430D01*
X0047244Y0049429D02*
X0046307Y0049429D01*
X0046022Y0050427D02*
X0047529Y0050427D01*
X0047657Y0051426D02*
X0045895Y0051426D01*
X0061262Y0034451D02*
X0063684Y0034451D01*
X0062892Y0033452D02*
X0061262Y0033452D01*
X0054970Y0029458D02*
X0051347Y0029458D01*
X0051025Y0028460D02*
X0054337Y0028460D01*
X0054337Y0027461D02*
X0051025Y0027461D01*
X0051025Y0026463D02*
X0054337Y0026463D01*
X0054622Y0025464D02*
X0050740Y0025464D01*
X0049463Y0024466D02*
X0055900Y0024466D01*
X0055900Y0023467D02*
X0049463Y0023467D01*
X0049463Y0022469D02*
X0055900Y0022469D01*
X0055900Y0021470D02*
X0049463Y0021470D01*
X0049463Y0020472D02*
X0055900Y0020472D01*
X0055900Y0019473D02*
X0049463Y0019473D01*
X0049463Y0018475D02*
X0055900Y0018475D01*
X0055900Y0017476D02*
X0049463Y0017476D01*
X0049463Y0016478D02*
X0055900Y0016478D01*
X0056094Y0015479D02*
X0049269Y0015479D01*
X0048270Y0014481D02*
X0057092Y0014481D01*
X0058091Y0013482D02*
X0047271Y0013482D01*
X0046407Y0012484D02*
X0058955Y0012484D01*
X0058955Y0011485D02*
X0046407Y0011485D01*
X0046407Y0010487D02*
X0058955Y0010487D01*
X0058955Y0009488D02*
X0046407Y0009488D01*
X0046407Y0008490D02*
X0058955Y0008490D01*
X0058955Y0007491D02*
X0046407Y0007491D01*
X0045763Y0006493D02*
X0059599Y0006493D01*
X0060555Y0008490D02*
X0084177Y0008490D01*
X0084177Y0009488D02*
X0060555Y0009488D01*
X0060555Y0010487D02*
X0084177Y0010487D01*
X0084177Y0011485D02*
X0060555Y0011485D01*
X0060555Y0012484D02*
X0084177Y0012484D01*
X0084177Y0013482D02*
X0060555Y0013482D01*
X0060555Y0014481D02*
X0084177Y0014481D01*
X0084177Y0015479D02*
X0060555Y0015479D01*
X0060555Y0016478D02*
X0084177Y0016478D01*
X0084177Y0017476D02*
X0060555Y0017476D01*
X0060555Y0018475D02*
X0084177Y0018475D01*
X0084177Y0019473D02*
X0060555Y0019473D01*
X0060555Y0020472D02*
X0084177Y0020472D01*
X0084177Y0021470D02*
X0060555Y0021470D01*
X0060555Y0022469D02*
X0076303Y0022469D01*
X0078355Y0022469D02*
X0084177Y0022469D01*
X0086465Y0027461D02*
X0097425Y0027461D01*
X0097425Y0028460D02*
X0086465Y0028460D01*
X0086465Y0029458D02*
X0097425Y0029458D01*
X0097425Y0030457D02*
X0086465Y0030457D01*
X0086465Y0031528D02*
X0086465Y0034768D01*
X0086362Y0035150D01*
X0086165Y0035492D01*
X0085886Y0035771D01*
X0085544Y0035969D01*
X0085162Y0036071D01*
X0082315Y0036071D01*
X0082315Y0031528D01*
X0086465Y0031528D01*
X0086465Y0032454D02*
X0097425Y0032454D01*
X0097425Y0033452D02*
X0086465Y0033452D01*
X0086465Y0034451D02*
X0097425Y0034451D01*
X0097425Y0035449D02*
X0086189Y0035449D01*
X0082315Y0035449D02*
X0081315Y0035449D01*
X0081315Y0034451D02*
X0082315Y0034451D01*
X0082315Y0033452D02*
X0081315Y0033452D01*
X0081315Y0032454D02*
X0082315Y0032454D01*
X0082315Y0031455D02*
X0097425Y0031455D01*
X0077441Y0035449D02*
X0074618Y0035449D01*
X0077111Y0034451D02*
X0077165Y0034451D01*
X0078156Y0005494D02*
X0023269Y0005494D01*
X0023269Y0004496D02*
X0078156Y0004496D01*
X0045663Y0024466D02*
X0023269Y0024466D01*
X0017248Y0022760D02*
X0044807Y0022760D01*
X0044807Y0007799D01*
X0017248Y0007799D01*
X0017248Y0022760D01*
X0017248Y0022469D02*
X0044807Y0022469D01*
X0044807Y0021470D02*
X0017248Y0021470D01*
X0017248Y0020472D02*
X0044807Y0020472D01*
X0044807Y0019473D02*
X0017248Y0019473D01*
X0017248Y0018475D02*
X0044807Y0018475D01*
X0044807Y0017476D02*
X0017248Y0017476D01*
X0017248Y0016478D02*
X0044807Y0016478D01*
X0044807Y0015479D02*
X0017248Y0015479D01*
X0017248Y0014481D02*
X0044807Y0014481D01*
X0044807Y0013482D02*
X0017248Y0013482D01*
X0017248Y0012484D02*
X0044807Y0012484D01*
X0044807Y0011485D02*
X0017248Y0011485D01*
X0017248Y0010487D02*
X0044807Y0010487D01*
X0044807Y0009488D02*
X0017248Y0009488D01*
X0017248Y0008490D02*
X0044807Y0008490D01*
X0004414Y0069399D02*
X0004000Y0069399D01*
X0004000Y0070397D02*
X0004331Y0070397D01*
X0004331Y0071396D02*
X0004000Y0071396D01*
X0004000Y0072394D02*
X0004331Y0072394D01*
X0004331Y0073393D02*
X0004000Y0073393D01*
X0004000Y0083378D02*
X0005882Y0083378D01*
X0004883Y0084376D02*
X0004000Y0084376D01*
X0015224Y0082379D02*
X0023600Y0082379D01*
X0026644Y0082379D02*
X0086201Y0082379D01*
X0084622Y0083378D02*
X0016803Y0083378D01*
X0018545Y0079384D02*
X0022674Y0079384D01*
X0023315Y0078385D02*
X0019138Y0078385D01*
X0017232Y0096359D02*
X0084193Y0096359D01*
X0085192Y0097357D02*
X0016234Y0097357D01*
D20*
X0072366Y0043232D03*
X0076303Y0043232D03*
X0080240Y0043232D03*
X0080240Y0038508D03*
X0076303Y0038508D03*
X0072366Y0038508D03*
D21*
X0070398Y0023547D03*
X0074728Y0023547D03*
X0092051Y0032996D03*
X0092051Y0040870D03*
X0092051Y0048744D03*
X0092051Y0056618D03*
X0092051Y0064492D03*
X0076303Y0074335D03*
X0025122Y0080240D03*
X0015673Y0062524D03*
X0015673Y0058587D03*
X0011343Y0058587D03*
X0011343Y0062524D03*
D22*
X0024335Y0059079D02*
X0031913Y0059079D01*
X0033980Y0061146D01*
X0046776Y0061146D01*
X0056618Y0061146D01*
X0056618Y0043232D01*
X0047563Y0038114D01*
X0047563Y0034768D01*
X0047563Y0027287D02*
X0038705Y0027287D01*
X0034965Y0031028D01*
X0034965Y0047366D01*
X0034965Y0054059D02*
X0042839Y0054059D01*
X0050713Y0054059D01*
X0058390Y0038705D02*
X0058390Y0038311D01*
X0076303Y0056224D01*
X0076303Y0074335D01*
X0076303Y0076303D01*
X0072366Y0080240D01*
X0025122Y0080240D01*
X0024335Y0054157D02*
X0034866Y0054157D01*
X0034965Y0054059D01*
X0058390Y0038705D02*
X0057800Y0034768D01*
X0057800Y0027287D02*
X0057800Y0016460D01*
X0058980Y0015280D01*
X0064886Y0015280D01*
X0047563Y0016460D02*
X0047563Y0027287D01*
X0047563Y0016460D02*
X0046382Y0015280D01*
X0040476Y0015280D01*
M02*
