G75*
%MOIN*%
%OFA0B0*%
%FSLAX25Y25*%
%IPPOS*%
%LPD*%
%AMOC8*
5,1,8,0,0,1.08239X$1,22.5*
%
%ADD10C,0.00600*%
%ADD11C,0.00500*%
%ADD12C,0.00800*%
%ADD13C,0.02200*%
%ADD14R,0.03000X0.01800*%
%ADD15C,0.01200*%
D10*
X0022199Y0015282D02*
X0026470Y0015282D01*
X0024334Y0017417D02*
X0024334Y0013147D01*
D11*
X0040837Y0085215D02*
X0040837Y0087550D01*
X0040837Y0088898D02*
X0040253Y0090065D01*
X0040253Y0090649D01*
X0040837Y0091233D01*
X0042005Y0091233D01*
X0042589Y0090649D01*
X0042589Y0089482D01*
X0042005Y0088898D01*
X0040837Y0088898D02*
X0039086Y0088898D01*
X0039086Y0091233D01*
X0039086Y0092581D02*
X0041421Y0092581D01*
X0042589Y0093749D01*
X0041421Y0094916D01*
X0039086Y0094916D01*
X0039669Y0086382D02*
X0042005Y0086382D01*
X0068676Y0086192D02*
X0069260Y0085608D01*
X0071595Y0085608D01*
X0072179Y0086192D01*
X0072179Y0087360D01*
X0071595Y0087944D01*
X0070428Y0087944D01*
X0070428Y0086776D01*
X0069260Y0087944D02*
X0068676Y0087360D01*
X0068676Y0086192D01*
X0068676Y0089291D02*
X0072179Y0091627D01*
X0068676Y0091627D01*
X0068676Y0092975D02*
X0068676Y0094726D01*
X0069260Y0095310D01*
X0071595Y0095310D01*
X0072179Y0094726D01*
X0072179Y0092975D01*
X0068676Y0092975D01*
X0068676Y0089291D02*
X0072179Y0089291D01*
D12*
X0065555Y0087583D02*
X0063055Y0085083D01*
X0058055Y0085083D01*
X0055555Y0087583D01*
X0053055Y0085083D01*
X0048055Y0085083D01*
X0045555Y0087583D01*
X0045555Y0092583D01*
X0048055Y0095083D01*
X0053055Y0095083D01*
X0055555Y0092583D01*
X0058055Y0095083D01*
X0063055Y0095083D01*
X0065555Y0092583D01*
X0065555Y0087583D01*
X0054372Y0036628D02*
X0050991Y0036628D01*
X0055872Y0032084D02*
X0055872Y0029971D01*
X0054372Y0025428D02*
X0050991Y0025428D01*
D13*
X0042959Y0050713D02*
X0042719Y0050713D01*
X0046656Y0064492D02*
X0046896Y0064492D01*
D14*
X0056618Y0064492D03*
X0034965Y0050713D03*
D15*
X0026185Y0044807D02*
X0026185Y0040870D01*
X0019886Y0040870D01*
X0006500Y0045201D02*
X0006500Y0068035D01*
X0019886Y0072366D02*
X0026185Y0072366D01*
X0026185Y0068429D01*
M02*
