%
M48
M72
T01C0.01969
T02C0.04000
T03C0.05000
T04C0.07000
T05C0.12205
%
T01
X36978Y29457
X40915Y37331
X48789Y41268
X57844Y18434
X63356Y18434
X67982Y17646
X73001Y7804
X88159Y29457
X80285Y41268
X92096Y68827
X115718Y94418
X103907Y102292
X84222Y116071
X76348Y116071
X76348Y108197
X60600Y80638
X25167Y60953
X48198Y7804
X119655Y37331
X130974Y17646
X147214Y41268
T02
X13356Y15678
X23356Y15678
T03
X25167Y155441
T04
X35206Y165480
X15128Y165480
X15128Y145402
X35206Y145402
T05
X160993Y169221
X160993Y11741
M30
