G75*
%MOIN*%
%OFA0B0*%
%FSLAX25Y25*%
%IPPOS*%
%LPD*%
%AMOC8*
5,1,8,0,0,1.08239X$1,22.5*
%
%ADD10C,0.00000*%
%ADD11R,0.06299X0.11811*%
%ADD12R,0.05000X0.02500*%
%ADD13C,0.07500*%
%ADD14C,0.10500*%
%ADD15C,0.07400*%
%ADD16R,0.03937X0.04331*%
%ADD17C,0.01181*%
%ADD18R,0.01969X0.07087*%
%ADD19R,0.08268X0.11811*%
%ADD20C,0.03200*%
%ADD21C,0.01000*%
%ADD22C,0.03569*%
%ADD23C,0.01600*%
D10*
X0001545Y0001898D02*
X0001545Y0179064D01*
X0170836Y0179064D01*
X0170836Y0001898D01*
X0001545Y0001898D01*
X0154891Y0011741D02*
X0154893Y0011897D01*
X0154899Y0012053D01*
X0154909Y0012208D01*
X0154923Y0012363D01*
X0154941Y0012518D01*
X0154963Y0012672D01*
X0154988Y0012826D01*
X0155018Y0012979D01*
X0155052Y0013131D01*
X0155089Y0013283D01*
X0155130Y0013433D01*
X0155175Y0013582D01*
X0155224Y0013730D01*
X0155277Y0013877D01*
X0155333Y0014022D01*
X0155393Y0014166D01*
X0155457Y0014308D01*
X0155525Y0014449D01*
X0155596Y0014587D01*
X0155670Y0014724D01*
X0155748Y0014859D01*
X0155829Y0014992D01*
X0155914Y0015123D01*
X0156002Y0015252D01*
X0156093Y0015378D01*
X0156188Y0015502D01*
X0156285Y0015623D01*
X0156386Y0015742D01*
X0156490Y0015859D01*
X0156596Y0015972D01*
X0156706Y0016083D01*
X0156818Y0016191D01*
X0156933Y0016296D01*
X0157051Y0016399D01*
X0157171Y0016498D01*
X0157294Y0016594D01*
X0157419Y0016687D01*
X0157546Y0016776D01*
X0157676Y0016863D01*
X0157808Y0016946D01*
X0157942Y0017025D01*
X0158078Y0017102D01*
X0158216Y0017174D01*
X0158355Y0017244D01*
X0158497Y0017309D01*
X0158640Y0017371D01*
X0158784Y0017429D01*
X0158930Y0017484D01*
X0159078Y0017535D01*
X0159226Y0017582D01*
X0159376Y0017625D01*
X0159527Y0017664D01*
X0159679Y0017700D01*
X0159831Y0017731D01*
X0159985Y0017759D01*
X0160139Y0017783D01*
X0160293Y0017803D01*
X0160448Y0017819D01*
X0160604Y0017831D01*
X0160759Y0017839D01*
X0160915Y0017843D01*
X0161071Y0017843D01*
X0161227Y0017839D01*
X0161382Y0017831D01*
X0161538Y0017819D01*
X0161693Y0017803D01*
X0161847Y0017783D01*
X0162001Y0017759D01*
X0162155Y0017731D01*
X0162307Y0017700D01*
X0162459Y0017664D01*
X0162610Y0017625D01*
X0162760Y0017582D01*
X0162908Y0017535D01*
X0163056Y0017484D01*
X0163202Y0017429D01*
X0163346Y0017371D01*
X0163489Y0017309D01*
X0163631Y0017244D01*
X0163770Y0017174D01*
X0163908Y0017102D01*
X0164044Y0017025D01*
X0164178Y0016946D01*
X0164310Y0016863D01*
X0164440Y0016776D01*
X0164567Y0016687D01*
X0164692Y0016594D01*
X0164815Y0016498D01*
X0164935Y0016399D01*
X0165053Y0016296D01*
X0165168Y0016191D01*
X0165280Y0016083D01*
X0165390Y0015972D01*
X0165496Y0015859D01*
X0165600Y0015742D01*
X0165701Y0015623D01*
X0165798Y0015502D01*
X0165893Y0015378D01*
X0165984Y0015252D01*
X0166072Y0015123D01*
X0166157Y0014992D01*
X0166238Y0014859D01*
X0166316Y0014724D01*
X0166390Y0014587D01*
X0166461Y0014449D01*
X0166529Y0014308D01*
X0166593Y0014166D01*
X0166653Y0014022D01*
X0166709Y0013877D01*
X0166762Y0013730D01*
X0166811Y0013582D01*
X0166856Y0013433D01*
X0166897Y0013283D01*
X0166934Y0013131D01*
X0166968Y0012979D01*
X0166998Y0012826D01*
X0167023Y0012672D01*
X0167045Y0012518D01*
X0167063Y0012363D01*
X0167077Y0012208D01*
X0167087Y0012053D01*
X0167093Y0011897D01*
X0167095Y0011741D01*
X0167093Y0011585D01*
X0167087Y0011429D01*
X0167077Y0011274D01*
X0167063Y0011119D01*
X0167045Y0010964D01*
X0167023Y0010810D01*
X0166998Y0010656D01*
X0166968Y0010503D01*
X0166934Y0010351D01*
X0166897Y0010199D01*
X0166856Y0010049D01*
X0166811Y0009900D01*
X0166762Y0009752D01*
X0166709Y0009605D01*
X0166653Y0009460D01*
X0166593Y0009316D01*
X0166529Y0009174D01*
X0166461Y0009033D01*
X0166390Y0008895D01*
X0166316Y0008758D01*
X0166238Y0008623D01*
X0166157Y0008490D01*
X0166072Y0008359D01*
X0165984Y0008230D01*
X0165893Y0008104D01*
X0165798Y0007980D01*
X0165701Y0007859D01*
X0165600Y0007740D01*
X0165496Y0007623D01*
X0165390Y0007510D01*
X0165280Y0007399D01*
X0165168Y0007291D01*
X0165053Y0007186D01*
X0164935Y0007083D01*
X0164815Y0006984D01*
X0164692Y0006888D01*
X0164567Y0006795D01*
X0164440Y0006706D01*
X0164310Y0006619D01*
X0164178Y0006536D01*
X0164044Y0006457D01*
X0163908Y0006380D01*
X0163770Y0006308D01*
X0163631Y0006238D01*
X0163489Y0006173D01*
X0163346Y0006111D01*
X0163202Y0006053D01*
X0163056Y0005998D01*
X0162908Y0005947D01*
X0162760Y0005900D01*
X0162610Y0005857D01*
X0162459Y0005818D01*
X0162307Y0005782D01*
X0162155Y0005751D01*
X0162001Y0005723D01*
X0161847Y0005699D01*
X0161693Y0005679D01*
X0161538Y0005663D01*
X0161382Y0005651D01*
X0161227Y0005643D01*
X0161071Y0005639D01*
X0160915Y0005639D01*
X0160759Y0005643D01*
X0160604Y0005651D01*
X0160448Y0005663D01*
X0160293Y0005679D01*
X0160139Y0005699D01*
X0159985Y0005723D01*
X0159831Y0005751D01*
X0159679Y0005782D01*
X0159527Y0005818D01*
X0159376Y0005857D01*
X0159226Y0005900D01*
X0159078Y0005947D01*
X0158930Y0005998D01*
X0158784Y0006053D01*
X0158640Y0006111D01*
X0158497Y0006173D01*
X0158355Y0006238D01*
X0158216Y0006308D01*
X0158078Y0006380D01*
X0157942Y0006457D01*
X0157808Y0006536D01*
X0157676Y0006619D01*
X0157546Y0006706D01*
X0157419Y0006795D01*
X0157294Y0006888D01*
X0157171Y0006984D01*
X0157051Y0007083D01*
X0156933Y0007186D01*
X0156818Y0007291D01*
X0156706Y0007399D01*
X0156596Y0007510D01*
X0156490Y0007623D01*
X0156386Y0007740D01*
X0156285Y0007859D01*
X0156188Y0007980D01*
X0156093Y0008104D01*
X0156002Y0008230D01*
X0155914Y0008359D01*
X0155829Y0008490D01*
X0155748Y0008623D01*
X0155670Y0008758D01*
X0155596Y0008895D01*
X0155525Y0009033D01*
X0155457Y0009174D01*
X0155393Y0009316D01*
X0155333Y0009460D01*
X0155277Y0009605D01*
X0155224Y0009752D01*
X0155175Y0009900D01*
X0155130Y0010049D01*
X0155089Y0010199D01*
X0155052Y0010351D01*
X0155018Y0010503D01*
X0154988Y0010656D01*
X0154963Y0010810D01*
X0154941Y0010964D01*
X0154923Y0011119D01*
X0154909Y0011274D01*
X0154899Y0011429D01*
X0154893Y0011585D01*
X0154891Y0011741D01*
X0154891Y0169221D02*
X0154893Y0169377D01*
X0154899Y0169533D01*
X0154909Y0169688D01*
X0154923Y0169843D01*
X0154941Y0169998D01*
X0154963Y0170152D01*
X0154988Y0170306D01*
X0155018Y0170459D01*
X0155052Y0170611D01*
X0155089Y0170763D01*
X0155130Y0170913D01*
X0155175Y0171062D01*
X0155224Y0171210D01*
X0155277Y0171357D01*
X0155333Y0171502D01*
X0155393Y0171646D01*
X0155457Y0171788D01*
X0155525Y0171929D01*
X0155596Y0172067D01*
X0155670Y0172204D01*
X0155748Y0172339D01*
X0155829Y0172472D01*
X0155914Y0172603D01*
X0156002Y0172732D01*
X0156093Y0172858D01*
X0156188Y0172982D01*
X0156285Y0173103D01*
X0156386Y0173222D01*
X0156490Y0173339D01*
X0156596Y0173452D01*
X0156706Y0173563D01*
X0156818Y0173671D01*
X0156933Y0173776D01*
X0157051Y0173879D01*
X0157171Y0173978D01*
X0157294Y0174074D01*
X0157419Y0174167D01*
X0157546Y0174256D01*
X0157676Y0174343D01*
X0157808Y0174426D01*
X0157942Y0174505D01*
X0158078Y0174582D01*
X0158216Y0174654D01*
X0158355Y0174724D01*
X0158497Y0174789D01*
X0158640Y0174851D01*
X0158784Y0174909D01*
X0158930Y0174964D01*
X0159078Y0175015D01*
X0159226Y0175062D01*
X0159376Y0175105D01*
X0159527Y0175144D01*
X0159679Y0175180D01*
X0159831Y0175211D01*
X0159985Y0175239D01*
X0160139Y0175263D01*
X0160293Y0175283D01*
X0160448Y0175299D01*
X0160604Y0175311D01*
X0160759Y0175319D01*
X0160915Y0175323D01*
X0161071Y0175323D01*
X0161227Y0175319D01*
X0161382Y0175311D01*
X0161538Y0175299D01*
X0161693Y0175283D01*
X0161847Y0175263D01*
X0162001Y0175239D01*
X0162155Y0175211D01*
X0162307Y0175180D01*
X0162459Y0175144D01*
X0162610Y0175105D01*
X0162760Y0175062D01*
X0162908Y0175015D01*
X0163056Y0174964D01*
X0163202Y0174909D01*
X0163346Y0174851D01*
X0163489Y0174789D01*
X0163631Y0174724D01*
X0163770Y0174654D01*
X0163908Y0174582D01*
X0164044Y0174505D01*
X0164178Y0174426D01*
X0164310Y0174343D01*
X0164440Y0174256D01*
X0164567Y0174167D01*
X0164692Y0174074D01*
X0164815Y0173978D01*
X0164935Y0173879D01*
X0165053Y0173776D01*
X0165168Y0173671D01*
X0165280Y0173563D01*
X0165390Y0173452D01*
X0165496Y0173339D01*
X0165600Y0173222D01*
X0165701Y0173103D01*
X0165798Y0172982D01*
X0165893Y0172858D01*
X0165984Y0172732D01*
X0166072Y0172603D01*
X0166157Y0172472D01*
X0166238Y0172339D01*
X0166316Y0172204D01*
X0166390Y0172067D01*
X0166461Y0171929D01*
X0166529Y0171788D01*
X0166593Y0171646D01*
X0166653Y0171502D01*
X0166709Y0171357D01*
X0166762Y0171210D01*
X0166811Y0171062D01*
X0166856Y0170913D01*
X0166897Y0170763D01*
X0166934Y0170611D01*
X0166968Y0170459D01*
X0166998Y0170306D01*
X0167023Y0170152D01*
X0167045Y0169998D01*
X0167063Y0169843D01*
X0167077Y0169688D01*
X0167087Y0169533D01*
X0167093Y0169377D01*
X0167095Y0169221D01*
X0167093Y0169065D01*
X0167087Y0168909D01*
X0167077Y0168754D01*
X0167063Y0168599D01*
X0167045Y0168444D01*
X0167023Y0168290D01*
X0166998Y0168136D01*
X0166968Y0167983D01*
X0166934Y0167831D01*
X0166897Y0167679D01*
X0166856Y0167529D01*
X0166811Y0167380D01*
X0166762Y0167232D01*
X0166709Y0167085D01*
X0166653Y0166940D01*
X0166593Y0166796D01*
X0166529Y0166654D01*
X0166461Y0166513D01*
X0166390Y0166375D01*
X0166316Y0166238D01*
X0166238Y0166103D01*
X0166157Y0165970D01*
X0166072Y0165839D01*
X0165984Y0165710D01*
X0165893Y0165584D01*
X0165798Y0165460D01*
X0165701Y0165339D01*
X0165600Y0165220D01*
X0165496Y0165103D01*
X0165390Y0164990D01*
X0165280Y0164879D01*
X0165168Y0164771D01*
X0165053Y0164666D01*
X0164935Y0164563D01*
X0164815Y0164464D01*
X0164692Y0164368D01*
X0164567Y0164275D01*
X0164440Y0164186D01*
X0164310Y0164099D01*
X0164178Y0164016D01*
X0164044Y0163937D01*
X0163908Y0163860D01*
X0163770Y0163788D01*
X0163631Y0163718D01*
X0163489Y0163653D01*
X0163346Y0163591D01*
X0163202Y0163533D01*
X0163056Y0163478D01*
X0162908Y0163427D01*
X0162760Y0163380D01*
X0162610Y0163337D01*
X0162459Y0163298D01*
X0162307Y0163262D01*
X0162155Y0163231D01*
X0162001Y0163203D01*
X0161847Y0163179D01*
X0161693Y0163159D01*
X0161538Y0163143D01*
X0161382Y0163131D01*
X0161227Y0163123D01*
X0161071Y0163119D01*
X0160915Y0163119D01*
X0160759Y0163123D01*
X0160604Y0163131D01*
X0160448Y0163143D01*
X0160293Y0163159D01*
X0160139Y0163179D01*
X0159985Y0163203D01*
X0159831Y0163231D01*
X0159679Y0163262D01*
X0159527Y0163298D01*
X0159376Y0163337D01*
X0159226Y0163380D01*
X0159078Y0163427D01*
X0158930Y0163478D01*
X0158784Y0163533D01*
X0158640Y0163591D01*
X0158497Y0163653D01*
X0158355Y0163718D01*
X0158216Y0163788D01*
X0158078Y0163860D01*
X0157942Y0163937D01*
X0157808Y0164016D01*
X0157676Y0164099D01*
X0157546Y0164186D01*
X0157419Y0164275D01*
X0157294Y0164368D01*
X0157171Y0164464D01*
X0157051Y0164563D01*
X0156933Y0164666D01*
X0156818Y0164771D01*
X0156706Y0164879D01*
X0156596Y0164990D01*
X0156490Y0165103D01*
X0156386Y0165220D01*
X0156285Y0165339D01*
X0156188Y0165460D01*
X0156093Y0165584D01*
X0156002Y0165710D01*
X0155914Y0165839D01*
X0155829Y0165970D01*
X0155748Y0166103D01*
X0155670Y0166238D01*
X0155596Y0166375D01*
X0155525Y0166513D01*
X0155457Y0166654D01*
X0155393Y0166796D01*
X0155333Y0166940D01*
X0155277Y0167085D01*
X0155224Y0167232D01*
X0155175Y0167380D01*
X0155130Y0167529D01*
X0155089Y0167679D01*
X0155052Y0167831D01*
X0155018Y0167983D01*
X0154988Y0168136D01*
X0154963Y0168290D01*
X0154941Y0168444D01*
X0154923Y0168599D01*
X0154909Y0168754D01*
X0154899Y0168909D01*
X0154893Y0169065D01*
X0154891Y0169221D01*
D11*
X0033041Y0125914D03*
X0025167Y0125914D03*
X0025167Y0051111D03*
X0033041Y0051111D03*
X0040915Y0051111D03*
X0048789Y0051111D03*
X0056663Y0051111D03*
X0064537Y0051111D03*
X0072411Y0051111D03*
D12*
X0096033Y0048705D03*
X0096033Y0045205D03*
X0096033Y0041705D03*
X0096033Y0032957D03*
X0096033Y0029457D03*
X0096033Y0025957D03*
D13*
X0025167Y0155441D03*
D14*
X0035206Y0165480D03*
X0015128Y0165480D03*
X0015128Y0145402D03*
X0035206Y0145402D03*
D15*
X0023356Y0015678D03*
X0013356Y0015678D03*
D16*
X0103907Y0073355D03*
X0103907Y0080048D03*
X0115718Y0080048D03*
X0115718Y0073355D03*
D17*
X0105285Y0090375D02*
X0102529Y0090375D01*
X0105285Y0090375D02*
X0105285Y0087619D01*
X0102529Y0087619D01*
X0102529Y0090375D01*
X0102529Y0088799D02*
X0105285Y0088799D01*
X0105285Y0089979D02*
X0102529Y0089979D01*
X0102529Y0097280D02*
X0105285Y0097280D01*
X0105285Y0094524D01*
X0102529Y0094524D01*
X0102529Y0097280D01*
X0102529Y0095704D02*
X0105285Y0095704D01*
X0105285Y0096884D02*
X0102529Y0096884D01*
D18*
X0116210Y0024733D03*
X0121131Y0024733D03*
X0126052Y0024733D03*
X0130974Y0024733D03*
X0072903Y0024733D03*
X0067982Y0024733D03*
X0063060Y0024733D03*
X0058139Y0024733D03*
X0053218Y0024733D03*
X0048297Y0024733D03*
D19*
X0038257Y0012134D03*
X0082942Y0012134D03*
X0106171Y0012134D03*
X0141013Y0012134D03*
D20*
X0025167Y0051111D02*
X0025167Y0060953D01*
X0025167Y0125914D02*
X0025167Y0155441D01*
D21*
X0029900Y0153672D02*
X0052726Y0153672D01*
X0052726Y0154670D02*
X0030217Y0154670D01*
X0030217Y0154437D02*
X0029448Y0152581D01*
X0028067Y0151200D01*
X0028067Y0133119D01*
X0028855Y0133119D01*
X0028962Y0133012D01*
X0028970Y0133020D01*
X0029312Y0133217D01*
X0029694Y0133319D01*
X0032541Y0133319D01*
X0032541Y0126414D01*
X0033541Y0126414D01*
X0037690Y0126414D01*
X0037690Y0132017D01*
X0037588Y0132398D01*
X0037391Y0132740D01*
X0037111Y0133020D01*
X0036769Y0133217D01*
X0036388Y0133319D01*
X0033541Y0133319D01*
X0033541Y0126414D01*
X0033541Y0125414D01*
X0037690Y0125414D01*
X0037690Y0119811D01*
X0037588Y0119429D01*
X0037391Y0119087D01*
X0037111Y0118808D01*
X0036769Y0118611D01*
X0036388Y0118508D01*
X0033541Y0118508D01*
X0033541Y0125414D01*
X0032541Y0125414D01*
X0032541Y0118508D01*
X0029694Y0118508D01*
X0029312Y0118611D01*
X0028970Y0118808D01*
X0028962Y0118816D01*
X0028855Y0118708D01*
X0021479Y0118708D01*
X0020717Y0119470D01*
X0020717Y0132358D01*
X0021479Y0133119D01*
X0022267Y0133119D01*
X0022267Y0151200D01*
X0020885Y0152581D01*
X0020117Y0154437D01*
X0020117Y0156446D01*
X0020885Y0158302D01*
X0022306Y0159723D01*
X0024162Y0160491D01*
X0026171Y0160491D01*
X0028027Y0159723D01*
X0029448Y0158302D01*
X0030217Y0156446D01*
X0030217Y0154437D01*
X0030217Y0155669D02*
X0052726Y0155669D01*
X0052726Y0156667D02*
X0030125Y0156667D01*
X0029711Y0157666D02*
X0052726Y0157666D01*
X0052726Y0158664D02*
X0029085Y0158664D01*
X0028087Y0159663D02*
X0031782Y0159663D01*
X0031447Y0159856D02*
X0032214Y0159414D01*
X0033031Y0159075D01*
X0033886Y0158846D01*
X0034706Y0158738D01*
X0034706Y0164980D01*
X0035706Y0164980D01*
X0035706Y0165980D01*
X0041948Y0165980D01*
X0041840Y0166800D01*
X0041611Y0167655D01*
X0041273Y0168472D01*
X0040830Y0169239D01*
X0040291Y0169941D01*
X0039666Y0170566D01*
X0038964Y0171105D01*
X0038197Y0171547D01*
X0037380Y0171886D01*
X0036525Y0172115D01*
X0035706Y0172223D01*
X0035706Y0165980D01*
X0034706Y0165980D01*
X0034706Y0164980D01*
X0028463Y0164980D01*
X0028571Y0164161D01*
X0028800Y0163306D01*
X0029139Y0162489D01*
X0029581Y0161722D01*
X0030120Y0161020D01*
X0030745Y0160395D01*
X0031447Y0159856D01*
X0030479Y0160661D02*
X0019855Y0160661D01*
X0019588Y0160395D02*
X0020213Y0161020D01*
X0020752Y0161722D01*
X0021195Y0162489D01*
X0021533Y0163306D01*
X0021762Y0164161D01*
X0021870Y0164980D01*
X0015628Y0164980D01*
X0015628Y0158738D01*
X0016447Y0158846D01*
X0017302Y0159075D01*
X0018120Y0159414D01*
X0018886Y0159856D01*
X0019588Y0160395D01*
X0018551Y0159663D02*
X0022246Y0159663D01*
X0021248Y0158664D02*
X0004045Y0158664D01*
X0004045Y0157666D02*
X0020622Y0157666D01*
X0020208Y0156667D02*
X0004045Y0156667D01*
X0004045Y0155669D02*
X0020117Y0155669D01*
X0020117Y0154670D02*
X0004045Y0154670D01*
X0004045Y0153672D02*
X0020434Y0153672D01*
X0020847Y0152673D02*
X0004045Y0152673D01*
X0004045Y0151675D02*
X0012632Y0151675D01*
X0012953Y0151808D02*
X0012136Y0151469D01*
X0011370Y0151027D01*
X0010668Y0150488D01*
X0010042Y0149863D01*
X0009503Y0149161D01*
X0009061Y0148394D01*
X0008722Y0147577D01*
X0008493Y0146722D01*
X0008385Y0145902D01*
X0014628Y0145902D01*
X0014628Y0144902D01*
X0015628Y0144902D01*
X0015628Y0145902D01*
X0021870Y0145902D01*
X0021762Y0146722D01*
X0021533Y0147577D01*
X0021195Y0148394D01*
X0020752Y0149161D01*
X0020213Y0149863D01*
X0019588Y0150488D01*
X0018886Y0151027D01*
X0018120Y0151469D01*
X0017302Y0151808D01*
X0016447Y0152037D01*
X0015628Y0152145D01*
X0015628Y0145903D01*
X0014628Y0145903D01*
X0014628Y0152145D01*
X0013808Y0152037D01*
X0012953Y0151808D01*
X0014628Y0151675D02*
X0015628Y0151675D01*
X0015628Y0150676D02*
X0014628Y0150676D01*
X0014628Y0149678D02*
X0015628Y0149678D01*
X0015628Y0148679D02*
X0014628Y0148679D01*
X0014628Y0147681D02*
X0015628Y0147681D01*
X0015628Y0146682D02*
X0014628Y0146682D01*
X0014628Y0145684D02*
X0004045Y0145684D01*
X0004045Y0146682D02*
X0008488Y0146682D01*
X0008765Y0147681D02*
X0004045Y0147681D01*
X0004045Y0148679D02*
X0009225Y0148679D01*
X0009900Y0149678D02*
X0004045Y0149678D01*
X0004045Y0150676D02*
X0010913Y0150676D01*
X0008385Y0144902D02*
X0008493Y0144083D01*
X0008722Y0143228D01*
X0009061Y0142411D01*
X0009503Y0141644D01*
X0010042Y0140942D01*
X0010668Y0140317D01*
X0011370Y0139778D01*
X0012136Y0139336D01*
X0012953Y0138997D01*
X0013808Y0138768D01*
X0014628Y0138660D01*
X0014628Y0144902D01*
X0008385Y0144902D01*
X0008414Y0144685D02*
X0004045Y0144685D01*
X0004045Y0143687D02*
X0008599Y0143687D01*
X0008946Y0142688D02*
X0004045Y0142688D01*
X0004045Y0141690D02*
X0009477Y0141690D01*
X0010293Y0140691D02*
X0004045Y0140691D01*
X0004045Y0139693D02*
X0011517Y0139693D01*
X0014368Y0138694D02*
X0004045Y0138694D01*
X0004045Y0137696D02*
X0022267Y0137696D01*
X0022267Y0138694D02*
X0015887Y0138694D01*
X0015628Y0138694D02*
X0014628Y0138694D01*
X0014628Y0139693D02*
X0015628Y0139693D01*
X0015628Y0140691D02*
X0014628Y0140691D01*
X0014628Y0141690D02*
X0015628Y0141690D01*
X0015628Y0142688D02*
X0014628Y0142688D01*
X0014628Y0143687D02*
X0015628Y0143687D01*
X0015628Y0144685D02*
X0014628Y0144685D01*
X0015628Y0144902D02*
X0015628Y0138660D01*
X0016447Y0138768D01*
X0017302Y0138997D01*
X0018120Y0139336D01*
X0018886Y0139778D01*
X0019588Y0140317D01*
X0020213Y0140942D01*
X0020752Y0141644D01*
X0021195Y0142411D01*
X0021533Y0143228D01*
X0021762Y0144083D01*
X0021870Y0144902D01*
X0015628Y0144902D01*
X0015628Y0145684D02*
X0022267Y0145684D01*
X0022267Y0146682D02*
X0021767Y0146682D01*
X0021490Y0147681D02*
X0022267Y0147681D01*
X0022267Y0148679D02*
X0021030Y0148679D01*
X0020355Y0149678D02*
X0022267Y0149678D01*
X0022267Y0150676D02*
X0019343Y0150676D01*
X0017623Y0151675D02*
X0021791Y0151675D01*
X0028067Y0150676D02*
X0030991Y0150676D01*
X0030745Y0150488D02*
X0030120Y0149863D01*
X0029581Y0149161D01*
X0029139Y0148394D01*
X0028800Y0147577D01*
X0028571Y0146722D01*
X0028463Y0145902D01*
X0034706Y0145902D01*
X0034706Y0144902D01*
X0035706Y0144902D01*
X0035706Y0145902D01*
X0041948Y0145902D01*
X0041840Y0146722D01*
X0041611Y0147577D01*
X0041273Y0148394D01*
X0040830Y0149161D01*
X0040291Y0149863D01*
X0039666Y0150488D01*
X0038964Y0151027D01*
X0038197Y0151469D01*
X0037380Y0151808D01*
X0036525Y0152037D01*
X0035706Y0152145D01*
X0035706Y0145903D01*
X0034706Y0145903D01*
X0034706Y0152145D01*
X0033886Y0152037D01*
X0033031Y0151808D01*
X0032214Y0151469D01*
X0031447Y0151027D01*
X0030745Y0150488D01*
X0029978Y0149678D02*
X0028067Y0149678D01*
X0028067Y0148679D02*
X0029303Y0148679D01*
X0028843Y0147681D02*
X0028067Y0147681D01*
X0028067Y0146682D02*
X0028566Y0146682D01*
X0028067Y0145684D02*
X0034706Y0145684D01*
X0034706Y0144902D02*
X0028463Y0144902D01*
X0028571Y0144083D01*
X0028800Y0143228D01*
X0029139Y0142411D01*
X0029581Y0141644D01*
X0030120Y0140942D01*
X0030745Y0140317D01*
X0031447Y0139778D01*
X0032214Y0139336D01*
X0033031Y0138997D01*
X0033886Y0138768D01*
X0034706Y0138660D01*
X0034706Y0144902D01*
X0034706Y0144685D02*
X0035706Y0144685D01*
X0035706Y0144902D02*
X0035706Y0138660D01*
X0036525Y0138768D01*
X0037380Y0138997D01*
X0038197Y0139336D01*
X0038964Y0139778D01*
X0039666Y0140317D01*
X0040291Y0140942D01*
X0040830Y0141644D01*
X0041273Y0142411D01*
X0041611Y0143228D01*
X0041840Y0144083D01*
X0041948Y0144902D01*
X0035706Y0144902D01*
X0035706Y0145684D02*
X0052726Y0145684D01*
X0052726Y0146682D02*
X0041845Y0146682D01*
X0041568Y0147681D02*
X0052726Y0147681D01*
X0052726Y0148679D02*
X0041108Y0148679D01*
X0040433Y0149678D02*
X0052726Y0149678D01*
X0052726Y0150676D02*
X0039421Y0150676D01*
X0037701Y0151675D02*
X0052726Y0151675D01*
X0052726Y0152673D02*
X0029486Y0152673D01*
X0028542Y0151675D02*
X0032710Y0151675D01*
X0034706Y0151675D02*
X0035706Y0151675D01*
X0035706Y0150676D02*
X0034706Y0150676D01*
X0034706Y0149678D02*
X0035706Y0149678D01*
X0035706Y0148679D02*
X0034706Y0148679D01*
X0034706Y0147681D02*
X0035706Y0147681D01*
X0035706Y0146682D02*
X0034706Y0146682D01*
X0034706Y0143687D02*
X0035706Y0143687D01*
X0035706Y0142688D02*
X0034706Y0142688D01*
X0034706Y0141690D02*
X0035706Y0141690D01*
X0035706Y0140691D02*
X0034706Y0140691D01*
X0034706Y0139693D02*
X0035706Y0139693D01*
X0035706Y0138694D02*
X0034706Y0138694D01*
X0034446Y0138694D02*
X0028067Y0138694D01*
X0028067Y0137696D02*
X0052726Y0137696D01*
X0052726Y0138694D02*
X0035965Y0138694D01*
X0038816Y0139693D02*
X0052726Y0139693D01*
X0052726Y0140691D02*
X0040040Y0140691D01*
X0040856Y0141690D02*
X0052726Y0141690D01*
X0052726Y0142688D02*
X0041388Y0142688D01*
X0041734Y0143687D02*
X0052726Y0143687D01*
X0052726Y0144685D02*
X0041919Y0144685D01*
X0031595Y0139693D02*
X0028067Y0139693D01*
X0028067Y0140691D02*
X0030371Y0140691D01*
X0029555Y0141690D02*
X0028067Y0141690D01*
X0028067Y0142688D02*
X0029024Y0142688D01*
X0028677Y0143687D02*
X0028067Y0143687D01*
X0028067Y0144685D02*
X0028492Y0144685D01*
X0022267Y0144685D02*
X0021841Y0144685D01*
X0021656Y0143687D02*
X0022267Y0143687D01*
X0022267Y0142688D02*
X0021310Y0142688D01*
X0020778Y0141690D02*
X0022267Y0141690D01*
X0022267Y0140691D02*
X0019962Y0140691D01*
X0018738Y0139693D02*
X0022267Y0139693D01*
X0022267Y0136697D02*
X0004045Y0136697D01*
X0004045Y0135699D02*
X0022267Y0135699D01*
X0022267Y0134700D02*
X0004045Y0134700D01*
X0004045Y0133702D02*
X0022267Y0133702D01*
X0021062Y0132703D02*
X0004045Y0132703D01*
X0004045Y0131705D02*
X0020717Y0131705D01*
X0020717Y0130706D02*
X0004045Y0130706D01*
X0004045Y0129708D02*
X0020717Y0129708D01*
X0020717Y0128709D02*
X0004045Y0128709D01*
X0004045Y0127711D02*
X0020717Y0127711D01*
X0020717Y0126712D02*
X0004045Y0126712D01*
X0004045Y0125714D02*
X0020717Y0125714D01*
X0020717Y0124715D02*
X0004045Y0124715D01*
X0004045Y0123717D02*
X0020717Y0123717D01*
X0020717Y0122718D02*
X0004045Y0122718D01*
X0004045Y0121720D02*
X0020717Y0121720D01*
X0020717Y0120721D02*
X0004045Y0120721D01*
X0004045Y0119722D02*
X0020717Y0119722D01*
X0021463Y0118724D02*
X0004045Y0118724D01*
X0004045Y0117725D02*
X0052726Y0117725D01*
X0052726Y0116727D02*
X0004045Y0116727D01*
X0004045Y0116071D02*
X0004045Y0176564D01*
X0052726Y0176564D01*
X0052726Y0116071D01*
X0004045Y0116071D01*
X0004045Y0112134D02*
X0068474Y0112134D01*
X0068474Y0123945D01*
X0151151Y0123945D01*
X0151151Y0004398D01*
X0004045Y0004398D01*
X0004045Y0112134D01*
X0004045Y0111734D02*
X0151151Y0111734D01*
X0151151Y0110736D02*
X0004045Y0110736D01*
X0004045Y0109737D02*
X0151151Y0109737D01*
X0151151Y0108739D02*
X0004045Y0108739D01*
X0004045Y0107740D02*
X0151151Y0107740D01*
X0151151Y0106742D02*
X0004045Y0106742D01*
X0004045Y0105743D02*
X0151151Y0105743D01*
X0151151Y0104745D02*
X0105816Y0104745D01*
X0105654Y0104907D02*
X0104520Y0105376D01*
X0103293Y0105376D01*
X0102160Y0104907D01*
X0101292Y0104039D01*
X0100823Y0102905D01*
X0100823Y0101678D01*
X0101292Y0100545D01*
X0101807Y0100030D01*
X0101807Y0099171D01*
X0101746Y0099171D01*
X0100638Y0098063D01*
X0100638Y0093741D01*
X0101746Y0092634D01*
X0106068Y0092634D01*
X0107175Y0093741D01*
X0107175Y0098063D01*
X0106068Y0099171D01*
X0106007Y0099171D01*
X0106007Y0100030D01*
X0106522Y0100545D01*
X0106991Y0101678D01*
X0106991Y0102905D01*
X0106522Y0104039D01*
X0105654Y0104907D01*
X0106643Y0103746D02*
X0151151Y0103746D01*
X0151151Y0102748D02*
X0106991Y0102748D01*
X0106991Y0101749D02*
X0151151Y0101749D01*
X0151151Y0100751D02*
X0106607Y0100751D01*
X0106007Y0099752D02*
X0151151Y0099752D01*
X0151151Y0098754D02*
X0106485Y0098754D01*
X0107175Y0097755D02*
X0151151Y0097755D01*
X0151151Y0096757D02*
X0117741Y0096757D01*
X0117465Y0097033D02*
X0116331Y0097502D01*
X0115104Y0097502D01*
X0113971Y0097033D01*
X0113103Y0096165D01*
X0112634Y0095031D01*
X0112634Y0093804D01*
X0113103Y0092671D01*
X0113618Y0092156D01*
X0113618Y0083513D01*
X0113211Y0083513D01*
X0112449Y0082752D01*
X0112449Y0077344D01*
X0112983Y0076810D01*
X0112828Y0076720D01*
X0112549Y0076441D01*
X0112352Y0076099D01*
X0112249Y0075718D01*
X0112249Y0073839D01*
X0115234Y0073839D01*
X0115234Y0072871D01*
X0116202Y0072871D01*
X0116202Y0073839D01*
X0119186Y0073839D01*
X0119186Y0075718D01*
X0119084Y0076099D01*
X0118887Y0076441D01*
X0118607Y0076720D01*
X0118452Y0076810D01*
X0118986Y0077344D01*
X0118986Y0082752D01*
X0118225Y0083513D01*
X0117818Y0083513D01*
X0117818Y0092156D01*
X0118333Y0092671D01*
X0118802Y0093804D01*
X0118802Y0095031D01*
X0118333Y0096165D01*
X0117465Y0097033D01*
X0118501Y0095758D02*
X0151151Y0095758D01*
X0151151Y0094760D02*
X0118802Y0094760D01*
X0118784Y0093761D02*
X0151151Y0093761D01*
X0151151Y0092763D02*
X0118371Y0092763D01*
X0117818Y0091764D02*
X0151151Y0091764D01*
X0151151Y0090766D02*
X0117818Y0090766D01*
X0117818Y0089767D02*
X0151151Y0089767D01*
X0151151Y0088769D02*
X0117818Y0088769D01*
X0117818Y0087770D02*
X0151151Y0087770D01*
X0151151Y0086772D02*
X0117818Y0086772D01*
X0117818Y0085773D02*
X0151151Y0085773D01*
X0151151Y0084775D02*
X0117818Y0084775D01*
X0117818Y0083776D02*
X0151151Y0083776D01*
X0151151Y0082778D02*
X0118960Y0082778D01*
X0118986Y0081779D02*
X0151151Y0081779D01*
X0151151Y0080781D02*
X0118986Y0080781D01*
X0118986Y0079782D02*
X0151151Y0079782D01*
X0151151Y0078784D02*
X0118986Y0078784D01*
X0118986Y0077785D02*
X0151151Y0077785D01*
X0151151Y0076787D02*
X0118493Y0076787D01*
X0119167Y0075788D02*
X0151151Y0075788D01*
X0151151Y0074789D02*
X0119186Y0074789D01*
X0119186Y0072871D02*
X0116202Y0072871D01*
X0116202Y0069689D01*
X0117884Y0069689D01*
X0118265Y0069792D01*
X0118607Y0069989D01*
X0118887Y0070268D01*
X0119084Y0070611D01*
X0119186Y0070992D01*
X0119186Y0072871D01*
X0119186Y0072792D02*
X0151151Y0072792D01*
X0151151Y0071794D02*
X0119186Y0071794D01*
X0119134Y0070795D02*
X0151151Y0070795D01*
X0151151Y0069797D02*
X0118274Y0069797D01*
X0116202Y0069797D02*
X0115234Y0069797D01*
X0115234Y0069689D02*
X0115234Y0072871D01*
X0112249Y0072871D01*
X0112249Y0070992D01*
X0112352Y0070611D01*
X0112549Y0070268D01*
X0112828Y0069989D01*
X0113170Y0069792D01*
X0113552Y0069689D01*
X0115234Y0069689D01*
X0115234Y0070795D02*
X0116202Y0070795D01*
X0116202Y0071794D02*
X0115234Y0071794D01*
X0115234Y0072792D02*
X0116202Y0072792D01*
X0116202Y0073791D02*
X0151151Y0073791D01*
X0151151Y0068798D02*
X0004045Y0068798D01*
X0004045Y0067800D02*
X0151151Y0067800D01*
X0151151Y0066801D02*
X0004045Y0066801D01*
X0004045Y0065803D02*
X0151151Y0065803D01*
X0151151Y0064804D02*
X0004045Y0064804D01*
X0004045Y0063806D02*
X0023994Y0063806D01*
X0024553Y0064038D02*
X0023420Y0063568D01*
X0022552Y0062700D01*
X0022082Y0061567D01*
X0022082Y0060340D01*
X0022267Y0059895D01*
X0022267Y0058316D01*
X0021479Y0058316D01*
X0020717Y0057555D01*
X0020717Y0044667D01*
X0021479Y0043905D01*
X0028855Y0043905D01*
X0029104Y0044154D01*
X0029353Y0043905D01*
X0030941Y0043905D01*
X0030941Y0032524D01*
X0033893Y0029572D01*
X0033893Y0028844D01*
X0034363Y0027710D01*
X0035231Y0026843D01*
X0036364Y0026373D01*
X0037591Y0026373D01*
X0038725Y0026843D01*
X0039592Y0027710D01*
X0040062Y0028844D01*
X0040062Y0030071D01*
X0039592Y0031204D01*
X0038725Y0032072D01*
X0037591Y0032541D01*
X0036863Y0032541D01*
X0035141Y0034264D01*
X0035141Y0043905D01*
X0036729Y0043905D01*
X0036836Y0044013D01*
X0036844Y0044005D01*
X0037186Y0043807D01*
X0037568Y0043705D01*
X0040415Y0043705D01*
X0040415Y0050611D01*
X0041415Y0050611D01*
X0041415Y0043705D01*
X0044262Y0043705D01*
X0044643Y0043807D01*
X0044985Y0044005D01*
X0044993Y0044013D01*
X0045101Y0043905D01*
X0046689Y0043905D01*
X0046689Y0043530D01*
X0046174Y0043015D01*
X0045704Y0041882D01*
X0045704Y0040655D01*
X0046174Y0039521D01*
X0047042Y0038654D01*
X0048175Y0038184D01*
X0049402Y0038184D01*
X0050536Y0038654D01*
X0051403Y0039521D01*
X0051873Y0040655D01*
X0051873Y0041882D01*
X0051403Y0043015D01*
X0050889Y0043530D01*
X0050889Y0043905D01*
X0052477Y0043905D01*
X0052726Y0044154D01*
X0052975Y0043905D01*
X0054563Y0043905D01*
X0054563Y0042138D01*
X0047427Y0035002D01*
X0046197Y0033772D01*
X0046197Y0028999D01*
X0046012Y0028815D01*
X0046012Y0020651D01*
X0046774Y0019889D01*
X0049819Y0019889D01*
X0050581Y0020651D01*
X0050581Y0028815D01*
X0050397Y0028999D01*
X0050397Y0032032D01*
X0058763Y0040398D01*
X0058763Y0043905D01*
X0060351Y0043905D01*
X0060600Y0044154D01*
X0060849Y0043905D01*
X0062437Y0043905D01*
X0062437Y0043319D01*
X0052348Y0033230D01*
X0051118Y0032000D01*
X0051118Y0028999D01*
X0050934Y0028815D01*
X0050934Y0020651D01*
X0051695Y0019889D01*
X0054741Y0019889D01*
X0055502Y0020651D01*
X0055502Y0028815D01*
X0055318Y0028999D01*
X0055318Y0030261D01*
X0056039Y0030982D01*
X0056039Y0028999D01*
X0055855Y0028815D01*
X0055855Y0020806D01*
X0055229Y0020181D01*
X0054760Y0019047D01*
X0054760Y0017820D01*
X0055229Y0016686D01*
X0056097Y0015819D01*
X0057230Y0015349D01*
X0058457Y0015349D01*
X0059591Y0015819D01*
X0060459Y0016686D01*
X0060600Y0017027D01*
X0060741Y0016686D01*
X0061609Y0015819D01*
X0062742Y0015349D01*
X0063969Y0015349D01*
X0065103Y0015819D01*
X0065313Y0016029D01*
X0065367Y0015899D01*
X0066235Y0015031D01*
X0067368Y0014562D01*
X0068595Y0014562D01*
X0069729Y0015031D01*
X0070596Y0015899D01*
X0071066Y0017033D01*
X0071066Y0018260D01*
X0070596Y0019393D01*
X0070082Y0019908D01*
X0070082Y0020467D01*
X0070266Y0020651D01*
X0070266Y0028815D01*
X0069504Y0029576D01*
X0066459Y0029576D01*
X0065697Y0028815D01*
X0065697Y0020651D01*
X0065882Y0020467D01*
X0065882Y0020269D01*
X0065345Y0020806D01*
X0065345Y0028815D01*
X0065160Y0028999D01*
X0065160Y0029867D01*
X0066588Y0031294D01*
X0075478Y0031294D01*
X0082915Y0023857D01*
X0092544Y0023857D01*
X0092994Y0023407D01*
X0099071Y0023407D01*
X0099833Y0024169D01*
X0099833Y0030857D01*
X0118435Y0030857D01*
X0119031Y0030261D01*
X0119031Y0028999D01*
X0118847Y0028815D01*
X0118847Y0020651D01*
X0119608Y0019889D01*
X0122654Y0019889D01*
X0123415Y0020651D01*
X0123415Y0028815D01*
X0123231Y0028999D01*
X0123231Y0032000D01*
X0121404Y0033827D01*
X0121404Y0034719D01*
X0122270Y0035584D01*
X0122739Y0036718D01*
X0122739Y0037945D01*
X0122270Y0039078D01*
X0121402Y0039946D01*
X0120268Y0040415D01*
X0119041Y0040415D01*
X0117908Y0039946D01*
X0117040Y0039078D01*
X0116571Y0037945D01*
X0116571Y0036718D01*
X0117040Y0035584D01*
X0117204Y0035420D01*
X0117204Y0035057D01*
X0099521Y0035057D01*
X0099071Y0035507D01*
X0092994Y0035507D01*
X0092233Y0034746D01*
X0092233Y0031557D01*
X0090421Y0031557D01*
X0089906Y0032072D01*
X0088772Y0032541D01*
X0087545Y0032541D01*
X0086412Y0032072D01*
X0085544Y0031204D01*
X0085075Y0030071D01*
X0085075Y0028844D01*
X0085400Y0028057D01*
X0084655Y0028057D01*
X0078448Y0034264D01*
X0077481Y0035231D01*
X0085092Y0035231D01*
X0086322Y0036461D01*
X0089466Y0039605D01*
X0092544Y0039605D01*
X0092994Y0039155D01*
X0099071Y0039155D01*
X0099833Y0039917D01*
X0099833Y0046605D01*
X0117647Y0046605D01*
X0123952Y0040300D01*
X0123952Y0028999D01*
X0123768Y0028815D01*
X0123768Y0020651D01*
X0124530Y0019889D01*
X0127575Y0019889D01*
X0128337Y0020651D01*
X0128337Y0028815D01*
X0128152Y0028999D01*
X0128152Y0039168D01*
X0144952Y0039168D01*
X0145467Y0038654D01*
X0146600Y0038184D01*
X0147827Y0038184D01*
X0148961Y0038654D01*
X0149829Y0039521D01*
X0150298Y0040655D01*
X0150298Y0041882D01*
X0149829Y0043015D01*
X0148961Y0043883D01*
X0147827Y0044352D01*
X0146600Y0044352D01*
X0145467Y0043883D01*
X0144952Y0043368D01*
X0126824Y0043368D01*
X0119387Y0050805D01*
X0099521Y0050805D01*
X0099071Y0051255D01*
X0092994Y0051255D01*
X0092233Y0050494D01*
X0092233Y0047305D01*
X0083352Y0047305D01*
X0082122Y0046075D01*
X0080399Y0044352D01*
X0079671Y0044352D01*
X0078538Y0043883D01*
X0077670Y0043015D01*
X0077201Y0041882D01*
X0077201Y0040655D01*
X0077670Y0039521D01*
X0077760Y0039431D01*
X0064488Y0039431D01*
X0066637Y0041579D01*
X0066637Y0043905D01*
X0068225Y0043905D01*
X0068474Y0044154D01*
X0068723Y0043905D01*
X0076099Y0043905D01*
X0076860Y0044667D01*
X0076860Y0057555D01*
X0076099Y0058316D01*
X0068723Y0058316D01*
X0068474Y0058067D01*
X0068225Y0058316D01*
X0060849Y0058316D01*
X0060600Y0058067D01*
X0060351Y0058316D01*
X0052975Y0058316D01*
X0052726Y0058067D01*
X0052477Y0058316D01*
X0045101Y0058316D01*
X0044993Y0058209D01*
X0044985Y0058217D01*
X0044643Y0058414D01*
X0044262Y0058516D01*
X0041415Y0058516D01*
X0041415Y0051611D01*
X0040415Y0051611D01*
X0040415Y0058516D01*
X0037568Y0058516D01*
X0037186Y0058414D01*
X0036844Y0058217D01*
X0036836Y0058209D01*
X0036729Y0058316D01*
X0029353Y0058316D01*
X0029104Y0058067D01*
X0028855Y0058316D01*
X0028067Y0058316D01*
X0028067Y0059895D01*
X0028251Y0060340D01*
X0028251Y0061567D01*
X0027781Y0062700D01*
X0026914Y0063568D01*
X0025780Y0064038D01*
X0024553Y0064038D01*
X0026339Y0063806D02*
X0151151Y0063806D01*
X0151151Y0062807D02*
X0027674Y0062807D01*
X0028151Y0061809D02*
X0151151Y0061809D01*
X0151151Y0060810D02*
X0028251Y0060810D01*
X0028067Y0059812D02*
X0151151Y0059812D01*
X0151151Y0058813D02*
X0028067Y0058813D01*
X0022267Y0058813D02*
X0004045Y0058813D01*
X0004045Y0057815D02*
X0020977Y0057815D01*
X0020717Y0056816D02*
X0004045Y0056816D01*
X0004045Y0055818D02*
X0020717Y0055818D01*
X0020717Y0054819D02*
X0004045Y0054819D01*
X0004045Y0053821D02*
X0020717Y0053821D01*
X0020717Y0052822D02*
X0004045Y0052822D01*
X0004045Y0051824D02*
X0020717Y0051824D01*
X0020717Y0050825D02*
X0004045Y0050825D01*
X0004045Y0049827D02*
X0020717Y0049827D01*
X0020717Y0048828D02*
X0004045Y0048828D01*
X0004045Y0047830D02*
X0020717Y0047830D01*
X0020717Y0046831D02*
X0004045Y0046831D01*
X0004045Y0045833D02*
X0020717Y0045833D01*
X0020717Y0044834D02*
X0004045Y0044834D01*
X0004045Y0043836D02*
X0030941Y0043836D01*
X0030941Y0042837D02*
X0004045Y0042837D01*
X0004045Y0041839D02*
X0030941Y0041839D01*
X0030941Y0040840D02*
X0004045Y0040840D01*
X0004045Y0039842D02*
X0030941Y0039842D01*
X0030941Y0038843D02*
X0004045Y0038843D01*
X0004045Y0037845D02*
X0030941Y0037845D01*
X0030941Y0036846D02*
X0004045Y0036846D01*
X0004045Y0035848D02*
X0030941Y0035848D01*
X0030941Y0034849D02*
X0004045Y0034849D01*
X0004045Y0033851D02*
X0030941Y0033851D01*
X0030941Y0032852D02*
X0004045Y0032852D01*
X0004045Y0031853D02*
X0031612Y0031853D01*
X0032610Y0030855D02*
X0004045Y0030855D01*
X0004045Y0029856D02*
X0033609Y0029856D01*
X0033893Y0028858D02*
X0004045Y0028858D01*
X0004045Y0027859D02*
X0034301Y0027859D01*
X0035212Y0026861D02*
X0004045Y0026861D01*
X0004045Y0025862D02*
X0046012Y0025862D01*
X0046012Y0024864D02*
X0004045Y0024864D01*
X0004045Y0023865D02*
X0046012Y0023865D01*
X0046012Y0022867D02*
X0004045Y0022867D01*
X0004045Y0021868D02*
X0046012Y0021868D01*
X0046012Y0020870D02*
X0004045Y0020870D01*
X0004045Y0019871D02*
X0010281Y0019871D01*
X0009968Y0019644D02*
X0010630Y0020125D01*
X0011360Y0020497D01*
X0012138Y0020750D01*
X0012856Y0020863D01*
X0012856Y0016178D01*
X0013856Y0016178D01*
X0013856Y0020863D01*
X0014573Y0020750D01*
X0015352Y0020497D01*
X0016081Y0020125D01*
X0016743Y0019644D01*
X0017322Y0019065D01*
X0017803Y0018403D01*
X0018175Y0017674D01*
X0018428Y0016895D01*
X0018433Y0016860D01*
X0019117Y0018510D01*
X0020523Y0019916D01*
X0022361Y0020678D01*
X0024350Y0020678D01*
X0026188Y0019916D01*
X0027594Y0018510D01*
X0028356Y0016672D01*
X0028356Y0014683D01*
X0027594Y0012845D01*
X0026188Y0011439D01*
X0024350Y0010678D01*
X0022361Y0010678D01*
X0020523Y0011439D01*
X0019117Y0012845D01*
X0018433Y0014496D01*
X0018428Y0014460D01*
X0018175Y0013682D01*
X0017803Y0012952D01*
X0017322Y0012290D01*
X0016743Y0011711D01*
X0016081Y0011230D01*
X0015352Y0010859D01*
X0014573Y0010606D01*
X0013856Y0010492D01*
X0013856Y0015178D01*
X0012856Y0015178D01*
X0008170Y0015178D01*
X0008284Y0014460D01*
X0008537Y0013682D01*
X0008908Y0012952D01*
X0009389Y0012290D01*
X0009968Y0011711D01*
X0010630Y0011230D01*
X0011360Y0010859D01*
X0012138Y0010606D01*
X0012856Y0010492D01*
X0012856Y0015178D01*
X0012856Y0016178D01*
X0008170Y0016178D01*
X0008284Y0016895D01*
X0008537Y0017674D01*
X0008908Y0018403D01*
X0009389Y0019065D01*
X0009968Y0019644D01*
X0009250Y0018873D02*
X0004045Y0018873D01*
X0004045Y0017874D02*
X0008639Y0017874D01*
X0008281Y0016876D02*
X0004045Y0016876D01*
X0004045Y0015877D02*
X0012856Y0015877D01*
X0012856Y0014879D02*
X0013856Y0014879D01*
X0013856Y0013880D02*
X0012856Y0013880D01*
X0012856Y0012882D02*
X0013856Y0012882D01*
X0013856Y0011883D02*
X0012856Y0011883D01*
X0012856Y0010885D02*
X0013856Y0010885D01*
X0015403Y0010885D02*
X0021861Y0010885D01*
X0020079Y0011883D02*
X0016915Y0011883D01*
X0017752Y0012882D02*
X0019102Y0012882D01*
X0018688Y0013880D02*
X0018239Y0013880D01*
X0018431Y0016876D02*
X0018440Y0016876D01*
X0018072Y0017874D02*
X0018854Y0017874D01*
X0019480Y0018873D02*
X0017462Y0018873D01*
X0016430Y0019871D02*
X0020478Y0019871D01*
X0026233Y0019871D02*
X0055101Y0019871D01*
X0054760Y0018873D02*
X0043642Y0018873D01*
X0043591Y0018961D02*
X0043312Y0019240D01*
X0042970Y0019438D01*
X0042589Y0019540D01*
X0038757Y0019540D01*
X0038757Y0012634D01*
X0043891Y0012634D01*
X0043891Y0018237D01*
X0043789Y0018619D01*
X0043591Y0018961D01*
X0043891Y0017874D02*
X0054760Y0017874D01*
X0055151Y0016876D02*
X0043891Y0016876D01*
X0043891Y0015877D02*
X0056038Y0015877D01*
X0059649Y0015877D02*
X0061550Y0015877D01*
X0060663Y0016876D02*
X0060537Y0016876D01*
X0065161Y0015877D02*
X0065389Y0015877D01*
X0066603Y0014879D02*
X0043891Y0014879D01*
X0043891Y0013880D02*
X0077308Y0013880D01*
X0077308Y0012882D02*
X0043891Y0012882D01*
X0043891Y0011634D02*
X0043891Y0006031D01*
X0043789Y0005650D01*
X0043591Y0005308D01*
X0043312Y0005029D01*
X0042970Y0004831D01*
X0042589Y0004729D01*
X0038757Y0004729D01*
X0038757Y0011634D01*
X0037757Y0011634D01*
X0037757Y0004729D01*
X0033926Y0004729D01*
X0033544Y0004831D01*
X0033202Y0005029D01*
X0032923Y0005308D01*
X0032726Y0005650D01*
X0032623Y0006031D01*
X0032623Y0011634D01*
X0037757Y0011634D01*
X0037757Y0012634D01*
X0032623Y0012634D01*
X0032623Y0018237D01*
X0032726Y0018619D01*
X0032923Y0018961D01*
X0033202Y0019240D01*
X0033544Y0019438D01*
X0033926Y0019540D01*
X0037757Y0019540D01*
X0037757Y0012634D01*
X0038757Y0012634D01*
X0038757Y0011634D01*
X0043891Y0011634D01*
X0043891Y0010885D02*
X0077308Y0010885D01*
X0077308Y0011634D02*
X0077308Y0006031D01*
X0077411Y0005650D01*
X0077608Y0005308D01*
X0077887Y0005029D01*
X0078229Y0004831D01*
X0078611Y0004729D01*
X0082442Y0004729D01*
X0082442Y0011634D01*
X0083442Y0011634D01*
X0083442Y0004729D01*
X0087274Y0004729D01*
X0087655Y0004831D01*
X0087997Y0005029D01*
X0088276Y0005308D01*
X0088474Y0005650D01*
X0088576Y0006031D01*
X0088576Y0011634D01*
X0083442Y0011634D01*
X0083442Y0012634D01*
X0088576Y0012634D01*
X0088576Y0018237D01*
X0088474Y0018619D01*
X0088276Y0018961D01*
X0087997Y0019240D01*
X0087655Y0019438D01*
X0087274Y0019540D01*
X0083442Y0019540D01*
X0083442Y0012634D01*
X0082442Y0012634D01*
X0082442Y0011634D01*
X0077308Y0011634D01*
X0077308Y0012634D02*
X0082442Y0012634D01*
X0082442Y0019540D01*
X0078611Y0019540D01*
X0078229Y0019438D01*
X0077887Y0019240D01*
X0077608Y0018961D01*
X0077411Y0018619D01*
X0077308Y0018237D01*
X0077308Y0012634D01*
X0077308Y0009886D02*
X0043891Y0009886D01*
X0043891Y0008888D02*
X0077308Y0008888D01*
X0077308Y0007889D02*
X0043891Y0007889D01*
X0043891Y0006891D02*
X0077308Y0006891D01*
X0077346Y0005892D02*
X0043854Y0005892D01*
X0043078Y0004894D02*
X0078121Y0004894D01*
X0082442Y0004894D02*
X0083442Y0004894D01*
X0083442Y0005892D02*
X0082442Y0005892D01*
X0082442Y0006891D02*
X0083442Y0006891D01*
X0083442Y0007889D02*
X0082442Y0007889D01*
X0082442Y0008888D02*
X0083442Y0008888D01*
X0083442Y0009886D02*
X0082442Y0009886D01*
X0082442Y0010885D02*
X0083442Y0010885D01*
X0083442Y0011883D02*
X0105671Y0011883D01*
X0105671Y0011634D02*
X0100537Y0011634D01*
X0100537Y0006031D01*
X0100639Y0005650D01*
X0100836Y0005308D01*
X0101116Y0005029D01*
X0101458Y0004831D01*
X0101839Y0004729D01*
X0105671Y0004729D01*
X0105671Y0011634D01*
X0106671Y0011634D01*
X0106671Y0012634D01*
X0111804Y0012634D01*
X0111804Y0018237D01*
X0111702Y0018619D01*
X0111505Y0018961D01*
X0111225Y0019240D01*
X0110883Y0019438D01*
X0110502Y0019540D01*
X0106671Y0019540D01*
X0106671Y0012634D01*
X0105671Y0012634D01*
X0105671Y0011634D01*
X0105671Y0010885D02*
X0106671Y0010885D01*
X0106671Y0011634D02*
X0106671Y0004729D01*
X0110502Y0004729D01*
X0110883Y0004831D01*
X0111225Y0005029D01*
X0111505Y0005308D01*
X0111702Y0005650D01*
X0111804Y0006031D01*
X0111804Y0011634D01*
X0106671Y0011634D01*
X0106671Y0011883D02*
X0140513Y0011883D01*
X0140513Y0011634D02*
X0135379Y0011634D01*
X0135379Y0006031D01*
X0135481Y0005650D01*
X0135679Y0005308D01*
X0135958Y0005029D01*
X0136300Y0004831D01*
X0136682Y0004729D01*
X0140513Y0004729D01*
X0140513Y0011634D01*
X0141513Y0011634D01*
X0141513Y0004729D01*
X0145344Y0004729D01*
X0145726Y0004831D01*
X0146068Y0005029D01*
X0146347Y0005308D01*
X0146545Y0005650D01*
X0146647Y0006031D01*
X0146647Y0011634D01*
X0141513Y0011634D01*
X0141513Y0012634D01*
X0146647Y0012634D01*
X0146647Y0018237D01*
X0146545Y0018619D01*
X0146347Y0018961D01*
X0146068Y0019240D01*
X0145726Y0019438D01*
X0145344Y0019540D01*
X0141513Y0019540D01*
X0141513Y0012634D01*
X0140513Y0012634D01*
X0140513Y0011634D01*
X0140513Y0010885D02*
X0141513Y0010885D01*
X0141513Y0011883D02*
X0151151Y0011883D01*
X0151151Y0010885D02*
X0146647Y0010885D01*
X0146647Y0009886D02*
X0151151Y0009886D01*
X0151151Y0008888D02*
X0146647Y0008888D01*
X0146647Y0007889D02*
X0151151Y0007889D01*
X0151151Y0006891D02*
X0146647Y0006891D01*
X0146610Y0005892D02*
X0151151Y0005892D01*
X0151151Y0004894D02*
X0145834Y0004894D01*
X0141513Y0004894D02*
X0140513Y0004894D01*
X0140513Y0005892D02*
X0141513Y0005892D01*
X0141513Y0006891D02*
X0140513Y0006891D01*
X0140513Y0007889D02*
X0141513Y0007889D01*
X0141513Y0008888D02*
X0140513Y0008888D01*
X0140513Y0009886D02*
X0141513Y0009886D01*
X0140513Y0012634D02*
X0135379Y0012634D01*
X0135379Y0018237D01*
X0135481Y0018619D01*
X0135679Y0018961D01*
X0135958Y0019240D01*
X0136300Y0019438D01*
X0136682Y0019540D01*
X0140513Y0019540D01*
X0140513Y0012634D01*
X0140513Y0012882D02*
X0141513Y0012882D01*
X0141513Y0013880D02*
X0140513Y0013880D01*
X0140513Y0014879D02*
X0141513Y0014879D01*
X0141513Y0015877D02*
X0140513Y0015877D01*
X0140513Y0016876D02*
X0141513Y0016876D01*
X0141513Y0017874D02*
X0140513Y0017874D01*
X0140513Y0018873D02*
X0141513Y0018873D01*
X0146398Y0018873D02*
X0151151Y0018873D01*
X0151151Y0019871D02*
X0133110Y0019871D01*
X0133074Y0019908D02*
X0133074Y0020467D01*
X0133258Y0020651D01*
X0133258Y0028815D01*
X0132496Y0029576D01*
X0129451Y0029576D01*
X0128689Y0028815D01*
X0128689Y0020651D01*
X0128874Y0020467D01*
X0128874Y0019908D01*
X0128359Y0019393D01*
X0127889Y0018260D01*
X0127889Y0017033D01*
X0128359Y0015899D01*
X0129227Y0015031D01*
X0130360Y0014562D01*
X0131587Y0014562D01*
X0132721Y0015031D01*
X0133588Y0015899D01*
X0134058Y0017033D01*
X0134058Y0018260D01*
X0133588Y0019393D01*
X0133074Y0019908D01*
X0133258Y0020870D02*
X0151151Y0020870D01*
X0151151Y0021868D02*
X0133258Y0021868D01*
X0133258Y0022867D02*
X0151151Y0022867D01*
X0151151Y0023865D02*
X0133258Y0023865D01*
X0133258Y0024864D02*
X0151151Y0024864D01*
X0151151Y0025862D02*
X0133258Y0025862D01*
X0133258Y0026861D02*
X0151151Y0026861D01*
X0151151Y0027859D02*
X0133258Y0027859D01*
X0133215Y0028858D02*
X0151151Y0028858D01*
X0151151Y0029856D02*
X0128152Y0029856D01*
X0128152Y0030855D02*
X0151151Y0030855D01*
X0151151Y0031853D02*
X0128152Y0031853D01*
X0128152Y0032852D02*
X0151151Y0032852D01*
X0151151Y0033851D02*
X0128152Y0033851D01*
X0128152Y0034849D02*
X0151151Y0034849D01*
X0151151Y0035848D02*
X0128152Y0035848D01*
X0128152Y0036846D02*
X0151151Y0036846D01*
X0151151Y0037845D02*
X0128152Y0037845D01*
X0128152Y0038843D02*
X0145277Y0038843D01*
X0149151Y0038843D02*
X0151151Y0038843D01*
X0151151Y0039842D02*
X0149961Y0039842D01*
X0150298Y0040840D02*
X0151151Y0040840D01*
X0151151Y0041839D02*
X0150298Y0041839D01*
X0149902Y0042837D02*
X0151151Y0042837D01*
X0151151Y0043836D02*
X0149008Y0043836D01*
X0151151Y0044834D02*
X0125358Y0044834D01*
X0126356Y0043836D02*
X0145420Y0043836D01*
X0151151Y0045833D02*
X0124359Y0045833D01*
X0123361Y0046831D02*
X0151151Y0046831D01*
X0151151Y0047830D02*
X0122362Y0047830D01*
X0121364Y0048828D02*
X0151151Y0048828D01*
X0151151Y0049827D02*
X0120365Y0049827D01*
X0118420Y0045833D02*
X0099833Y0045833D01*
X0099833Y0044834D02*
X0119418Y0044834D01*
X0120417Y0043836D02*
X0099833Y0043836D01*
X0099833Y0042837D02*
X0121415Y0042837D01*
X0122414Y0041839D02*
X0099833Y0041839D01*
X0099833Y0040840D02*
X0123412Y0040840D01*
X0123952Y0039842D02*
X0121506Y0039842D01*
X0122367Y0038843D02*
X0123952Y0038843D01*
X0123952Y0037845D02*
X0122739Y0037845D01*
X0122739Y0036846D02*
X0123952Y0036846D01*
X0123952Y0035848D02*
X0122379Y0035848D01*
X0121534Y0034849D02*
X0123952Y0034849D01*
X0123952Y0033851D02*
X0121404Y0033851D01*
X0122379Y0032852D02*
X0123952Y0032852D01*
X0123952Y0031853D02*
X0123231Y0031853D01*
X0123231Y0030855D02*
X0123952Y0030855D01*
X0123952Y0029856D02*
X0123231Y0029856D01*
X0123372Y0028858D02*
X0123812Y0028858D01*
X0123768Y0027859D02*
X0123415Y0027859D01*
X0123415Y0026861D02*
X0123768Y0026861D01*
X0123768Y0025862D02*
X0123415Y0025862D01*
X0123415Y0024864D02*
X0123768Y0024864D01*
X0123768Y0023865D02*
X0123415Y0023865D01*
X0123415Y0022867D02*
X0123768Y0022867D01*
X0123768Y0021868D02*
X0123415Y0021868D01*
X0123415Y0020870D02*
X0123768Y0020870D01*
X0128337Y0020870D02*
X0128689Y0020870D01*
X0128689Y0021868D02*
X0128337Y0021868D01*
X0128337Y0022867D02*
X0128689Y0022867D01*
X0128689Y0023865D02*
X0128337Y0023865D01*
X0128337Y0024864D02*
X0128689Y0024864D01*
X0128689Y0025862D02*
X0128337Y0025862D01*
X0128337Y0026861D02*
X0128689Y0026861D01*
X0128689Y0027859D02*
X0128337Y0027859D01*
X0128293Y0028858D02*
X0128733Y0028858D01*
X0119031Y0029856D02*
X0099833Y0029856D01*
X0099833Y0028858D02*
X0113830Y0028858D01*
X0113828Y0028855D02*
X0113726Y0028474D01*
X0113726Y0024733D01*
X0116210Y0024733D01*
X0116210Y0024733D01*
X0116210Y0029776D01*
X0117392Y0029776D01*
X0117773Y0029674D01*
X0118115Y0029476D01*
X0118395Y0029197D01*
X0118592Y0028855D01*
X0118694Y0028474D01*
X0118694Y0024733D01*
X0116210Y0024733D01*
X0116210Y0029776D01*
X0115028Y0029776D01*
X0114647Y0029674D01*
X0114305Y0029476D01*
X0114025Y0029197D01*
X0113828Y0028855D01*
X0113726Y0027859D02*
X0099833Y0027859D01*
X0099833Y0026861D02*
X0113726Y0026861D01*
X0113726Y0025862D02*
X0099833Y0025862D01*
X0099833Y0024864D02*
X0113726Y0024864D01*
X0113726Y0024733D02*
X0113726Y0020992D01*
X0113828Y0020611D01*
X0114025Y0020268D01*
X0114305Y0019989D01*
X0114647Y0019792D01*
X0115028Y0019689D01*
X0116210Y0019689D01*
X0117392Y0019689D01*
X0117773Y0019792D01*
X0118115Y0019989D01*
X0118395Y0020268D01*
X0118592Y0020611D01*
X0118694Y0020992D01*
X0118694Y0024733D01*
X0116210Y0024733D01*
X0116210Y0024733D01*
X0116210Y0024733D01*
X0113726Y0024733D01*
X0113726Y0023865D02*
X0099529Y0023865D01*
X0101458Y0019438D02*
X0101116Y0019240D01*
X0100836Y0018961D01*
X0100639Y0018619D01*
X0100537Y0018237D01*
X0100537Y0012634D01*
X0105671Y0012634D01*
X0105671Y0019540D01*
X0101839Y0019540D01*
X0101458Y0019438D01*
X0100786Y0018873D02*
X0088327Y0018873D01*
X0088576Y0017874D02*
X0100537Y0017874D01*
X0100537Y0016876D02*
X0088576Y0016876D01*
X0088576Y0015877D02*
X0100537Y0015877D01*
X0100537Y0014879D02*
X0088576Y0014879D01*
X0088576Y0013880D02*
X0100537Y0013880D01*
X0100537Y0012882D02*
X0088576Y0012882D01*
X0088576Y0010885D02*
X0100537Y0010885D01*
X0100537Y0009886D02*
X0088576Y0009886D01*
X0088576Y0008888D02*
X0100537Y0008888D01*
X0100537Y0007889D02*
X0088576Y0007889D01*
X0088576Y0006891D02*
X0100537Y0006891D01*
X0100574Y0005892D02*
X0088539Y0005892D01*
X0087763Y0004894D02*
X0101349Y0004894D01*
X0105671Y0004894D02*
X0106671Y0004894D01*
X0106671Y0005892D02*
X0105671Y0005892D01*
X0105671Y0006891D02*
X0106671Y0006891D01*
X0106671Y0007889D02*
X0105671Y0007889D01*
X0105671Y0008888D02*
X0106671Y0008888D01*
X0106671Y0009886D02*
X0105671Y0009886D01*
X0105671Y0012882D02*
X0106671Y0012882D01*
X0106671Y0013880D02*
X0105671Y0013880D01*
X0105671Y0014879D02*
X0106671Y0014879D01*
X0106671Y0015877D02*
X0105671Y0015877D01*
X0105671Y0016876D02*
X0106671Y0016876D01*
X0106671Y0017874D02*
X0105671Y0017874D01*
X0105671Y0018873D02*
X0106671Y0018873D01*
X0111556Y0018873D02*
X0128143Y0018873D01*
X0127889Y0017874D02*
X0111804Y0017874D01*
X0111804Y0016876D02*
X0127954Y0016876D01*
X0128381Y0015877D02*
X0111804Y0015877D01*
X0111804Y0014879D02*
X0129595Y0014879D01*
X0132352Y0014879D02*
X0135379Y0014879D01*
X0135379Y0015877D02*
X0133567Y0015877D01*
X0133993Y0016876D02*
X0135379Y0016876D01*
X0135379Y0017874D02*
X0134058Y0017874D01*
X0133804Y0018873D02*
X0135628Y0018873D01*
X0135379Y0013880D02*
X0111804Y0013880D01*
X0111804Y0012882D02*
X0135379Y0012882D01*
X0135379Y0010885D02*
X0111804Y0010885D01*
X0111804Y0009886D02*
X0135379Y0009886D01*
X0135379Y0008888D02*
X0111804Y0008888D01*
X0111804Y0007889D02*
X0135379Y0007889D01*
X0135379Y0006891D02*
X0111804Y0006891D01*
X0111767Y0005892D02*
X0135417Y0005892D01*
X0136192Y0004894D02*
X0110992Y0004894D01*
X0114509Y0019871D02*
X0074604Y0019871D01*
X0074466Y0019792D02*
X0074808Y0019989D01*
X0075087Y0020268D01*
X0075285Y0020611D01*
X0075387Y0020992D01*
X0075387Y0024733D01*
X0075387Y0028474D01*
X0075285Y0028855D01*
X0075087Y0029197D01*
X0074808Y0029476D01*
X0074466Y0029674D01*
X0074085Y0029776D01*
X0072903Y0029776D01*
X0072903Y0024733D01*
X0072903Y0024733D01*
X0075387Y0024733D01*
X0072903Y0024733D01*
X0072903Y0024733D01*
X0072903Y0029776D01*
X0071721Y0029776D01*
X0071340Y0029674D01*
X0070998Y0029476D01*
X0070718Y0029197D01*
X0070521Y0028855D01*
X0070419Y0028474D01*
X0070419Y0024733D01*
X0072903Y0024733D01*
X0072903Y0024733D01*
X0072903Y0019689D01*
X0074085Y0019689D01*
X0074466Y0019792D01*
X0075354Y0020870D02*
X0113758Y0020870D01*
X0113726Y0021868D02*
X0075387Y0021868D01*
X0075387Y0022867D02*
X0113726Y0022867D01*
X0116210Y0022867D02*
X0116210Y0022867D01*
X0116210Y0023865D02*
X0116210Y0023865D01*
X0116210Y0024733D02*
X0116210Y0019689D01*
X0116210Y0024733D01*
X0116210Y0024733D01*
X0116210Y0024864D02*
X0116210Y0024864D01*
X0116210Y0025862D02*
X0116210Y0025862D01*
X0116210Y0026861D02*
X0116210Y0026861D01*
X0116210Y0027859D02*
X0116210Y0027859D01*
X0116210Y0028858D02*
X0116210Y0028858D01*
X0118590Y0028858D02*
X0118890Y0028858D01*
X0118847Y0027859D02*
X0118694Y0027859D01*
X0118694Y0026861D02*
X0118847Y0026861D01*
X0118847Y0025862D02*
X0118694Y0025862D01*
X0118694Y0024864D02*
X0118847Y0024864D01*
X0118847Y0023865D02*
X0118694Y0023865D01*
X0118694Y0022867D02*
X0118847Y0022867D01*
X0118847Y0021868D02*
X0118694Y0021868D01*
X0118661Y0020870D02*
X0118847Y0020870D01*
X0117911Y0019871D02*
X0128837Y0019871D01*
X0116210Y0019871D02*
X0116210Y0019871D01*
X0116210Y0020870D02*
X0116210Y0020870D01*
X0116210Y0021868D02*
X0116210Y0021868D01*
X0118437Y0030855D02*
X0099833Y0030855D01*
X0092233Y0031853D02*
X0090124Y0031853D01*
X0092233Y0032852D02*
X0079860Y0032852D01*
X0080858Y0031853D02*
X0086193Y0031853D01*
X0085399Y0030855D02*
X0081857Y0030855D01*
X0082855Y0029856D02*
X0085075Y0029856D01*
X0085075Y0028858D02*
X0083854Y0028858D01*
X0080910Y0025862D02*
X0075387Y0025862D01*
X0075387Y0024864D02*
X0081908Y0024864D01*
X0082907Y0023865D02*
X0075387Y0023865D01*
X0072903Y0023865D02*
X0072903Y0023865D01*
X0072903Y0024733D02*
X0072903Y0024733D01*
X0070419Y0024733D01*
X0070419Y0020992D01*
X0070521Y0020611D01*
X0070718Y0020268D01*
X0070998Y0019989D01*
X0071340Y0019792D01*
X0071721Y0019689D01*
X0072903Y0019689D01*
X0072903Y0024733D01*
X0072903Y0024864D02*
X0072903Y0024864D01*
X0072903Y0025862D02*
X0072903Y0025862D01*
X0072903Y0026861D02*
X0072903Y0026861D01*
X0072903Y0027859D02*
X0072903Y0027859D01*
X0072903Y0028858D02*
X0072903Y0028858D01*
X0075283Y0028858D02*
X0077914Y0028858D01*
X0076916Y0029856D02*
X0065160Y0029856D01*
X0065301Y0028858D02*
X0065741Y0028858D01*
X0065697Y0027859D02*
X0065345Y0027859D01*
X0065345Y0026861D02*
X0065697Y0026861D01*
X0065697Y0025862D02*
X0065345Y0025862D01*
X0065345Y0024864D02*
X0065697Y0024864D01*
X0065697Y0023865D02*
X0065345Y0023865D01*
X0065345Y0022867D02*
X0065697Y0022867D01*
X0065697Y0021868D02*
X0065345Y0021868D01*
X0065345Y0020870D02*
X0065697Y0020870D01*
X0070118Y0019871D02*
X0071202Y0019871D01*
X0070812Y0018873D02*
X0077557Y0018873D01*
X0077308Y0017874D02*
X0071066Y0017874D01*
X0071001Y0016876D02*
X0077308Y0016876D01*
X0077308Y0015877D02*
X0070575Y0015877D01*
X0069360Y0014879D02*
X0077308Y0014879D01*
X0082442Y0014879D02*
X0083442Y0014879D01*
X0083442Y0015877D02*
X0082442Y0015877D01*
X0082442Y0016876D02*
X0083442Y0016876D01*
X0083442Y0017874D02*
X0082442Y0017874D01*
X0082442Y0018873D02*
X0083442Y0018873D01*
X0083442Y0013880D02*
X0082442Y0013880D01*
X0082442Y0012882D02*
X0083442Y0012882D01*
X0082442Y0011883D02*
X0038757Y0011883D01*
X0038757Y0010885D02*
X0037757Y0010885D01*
X0037757Y0011883D02*
X0026632Y0011883D01*
X0027609Y0012882D02*
X0032623Y0012882D01*
X0032623Y0013880D02*
X0028023Y0013880D01*
X0028356Y0014879D02*
X0032623Y0014879D01*
X0032623Y0015877D02*
X0028356Y0015877D01*
X0028271Y0016876D02*
X0032623Y0016876D01*
X0032623Y0017874D02*
X0027858Y0017874D01*
X0027232Y0018873D02*
X0032872Y0018873D01*
X0037757Y0018873D02*
X0038757Y0018873D01*
X0038757Y0017874D02*
X0037757Y0017874D01*
X0037757Y0016876D02*
X0038757Y0016876D01*
X0038757Y0015877D02*
X0037757Y0015877D01*
X0037757Y0014879D02*
X0038757Y0014879D01*
X0038757Y0013880D02*
X0037757Y0013880D01*
X0037757Y0012882D02*
X0038757Y0012882D01*
X0038757Y0009886D02*
X0037757Y0009886D01*
X0037757Y0008888D02*
X0038757Y0008888D01*
X0038757Y0007889D02*
X0037757Y0007889D01*
X0037757Y0006891D02*
X0038757Y0006891D01*
X0038757Y0005892D02*
X0037757Y0005892D01*
X0037757Y0004894D02*
X0038757Y0004894D01*
X0033436Y0004894D02*
X0004045Y0004894D01*
X0004045Y0005892D02*
X0032661Y0005892D01*
X0032623Y0006891D02*
X0004045Y0006891D01*
X0004045Y0007889D02*
X0032623Y0007889D01*
X0032623Y0008888D02*
X0004045Y0008888D01*
X0004045Y0009886D02*
X0032623Y0009886D01*
X0032623Y0010885D02*
X0024850Y0010885D01*
X0013856Y0016876D02*
X0012856Y0016876D01*
X0012856Y0017874D02*
X0013856Y0017874D01*
X0013856Y0018873D02*
X0012856Y0018873D01*
X0012856Y0019871D02*
X0013856Y0019871D01*
X0008217Y0014879D02*
X0004045Y0014879D01*
X0004045Y0013880D02*
X0008472Y0013880D01*
X0008959Y0012882D02*
X0004045Y0012882D01*
X0004045Y0011883D02*
X0009796Y0011883D01*
X0011308Y0010885D02*
X0004045Y0010885D01*
X0035554Y0033851D02*
X0046275Y0033851D01*
X0046197Y0032852D02*
X0036553Y0032852D01*
X0035141Y0034849D02*
X0047274Y0034849D01*
X0048272Y0035848D02*
X0035141Y0035848D01*
X0035141Y0036846D02*
X0049271Y0036846D01*
X0050269Y0037845D02*
X0035141Y0037845D01*
X0035141Y0038843D02*
X0046852Y0038843D01*
X0046041Y0039842D02*
X0035141Y0039842D01*
X0035141Y0040840D02*
X0045704Y0040840D01*
X0045704Y0041839D02*
X0035141Y0041839D01*
X0035141Y0042837D02*
X0046100Y0042837D01*
X0046689Y0043836D02*
X0044692Y0043836D01*
X0041415Y0043836D02*
X0040415Y0043836D01*
X0040415Y0044834D02*
X0041415Y0044834D01*
X0041415Y0045833D02*
X0040415Y0045833D01*
X0040415Y0046831D02*
X0041415Y0046831D01*
X0041415Y0047830D02*
X0040415Y0047830D01*
X0040415Y0048828D02*
X0041415Y0048828D01*
X0041415Y0049827D02*
X0040415Y0049827D01*
X0040415Y0051824D02*
X0041415Y0051824D01*
X0041415Y0052822D02*
X0040415Y0052822D01*
X0040415Y0053821D02*
X0041415Y0053821D01*
X0041415Y0054819D02*
X0040415Y0054819D01*
X0040415Y0055818D02*
X0041415Y0055818D01*
X0041415Y0056816D02*
X0040415Y0056816D01*
X0040415Y0057815D02*
X0041415Y0057815D01*
X0037137Y0043836D02*
X0035141Y0043836D01*
X0038943Y0031853D02*
X0046197Y0031853D01*
X0046197Y0030855D02*
X0039737Y0030855D01*
X0040062Y0029856D02*
X0046197Y0029856D01*
X0046056Y0028858D02*
X0040062Y0028858D01*
X0039654Y0027859D02*
X0046012Y0027859D01*
X0046012Y0026861D02*
X0038743Y0026861D01*
X0050397Y0029856D02*
X0051118Y0029856D01*
X0051118Y0030855D02*
X0050397Y0030855D01*
X0050397Y0031853D02*
X0051118Y0031853D01*
X0051216Y0032852D02*
X0051970Y0032852D01*
X0052215Y0033851D02*
X0052968Y0033851D01*
X0053213Y0034849D02*
X0053967Y0034849D01*
X0054212Y0035848D02*
X0054965Y0035848D01*
X0055210Y0036846D02*
X0055964Y0036846D01*
X0056209Y0037845D02*
X0056962Y0037845D01*
X0057207Y0038843D02*
X0057961Y0038843D01*
X0058206Y0039842D02*
X0058959Y0039842D01*
X0058763Y0040840D02*
X0059958Y0040840D01*
X0060956Y0041839D02*
X0058763Y0041839D01*
X0058763Y0042837D02*
X0061955Y0042837D01*
X0062437Y0043836D02*
X0058763Y0043836D01*
X0054563Y0043836D02*
X0050889Y0043836D01*
X0051477Y0042837D02*
X0054563Y0042837D01*
X0054263Y0041839D02*
X0051873Y0041839D01*
X0051873Y0040840D02*
X0053265Y0040840D01*
X0052266Y0039842D02*
X0051536Y0039842D01*
X0051268Y0038843D02*
X0050725Y0038843D01*
X0055912Y0030855D02*
X0056039Y0030855D01*
X0056039Y0029856D02*
X0055318Y0029856D01*
X0055459Y0028858D02*
X0055898Y0028858D01*
X0055855Y0027859D02*
X0055502Y0027859D01*
X0055502Y0026861D02*
X0055855Y0026861D01*
X0055855Y0025862D02*
X0055502Y0025862D01*
X0055502Y0024864D02*
X0055855Y0024864D01*
X0055855Y0023865D02*
X0055502Y0023865D01*
X0055502Y0022867D02*
X0055855Y0022867D01*
X0055855Y0021868D02*
X0055502Y0021868D01*
X0055502Y0020870D02*
X0055855Y0020870D01*
X0050934Y0020870D02*
X0050581Y0020870D01*
X0050581Y0021868D02*
X0050934Y0021868D01*
X0050934Y0022867D02*
X0050581Y0022867D01*
X0050581Y0023865D02*
X0050934Y0023865D01*
X0050934Y0024864D02*
X0050581Y0024864D01*
X0050581Y0025862D02*
X0050934Y0025862D01*
X0050934Y0026861D02*
X0050581Y0026861D01*
X0050581Y0027859D02*
X0050934Y0027859D01*
X0050977Y0028858D02*
X0050537Y0028858D01*
X0066148Y0030855D02*
X0075917Y0030855D01*
X0075387Y0027859D02*
X0078913Y0027859D01*
X0079911Y0026861D02*
X0075387Y0026861D01*
X0072903Y0022867D02*
X0072903Y0022867D01*
X0072903Y0021868D02*
X0072903Y0021868D01*
X0072903Y0020870D02*
X0072903Y0020870D01*
X0072903Y0019871D02*
X0072903Y0019871D01*
X0070451Y0020870D02*
X0070266Y0020870D01*
X0070266Y0021868D02*
X0070419Y0021868D01*
X0070419Y0022867D02*
X0070266Y0022867D01*
X0070266Y0023865D02*
X0070419Y0023865D01*
X0070419Y0024864D02*
X0070266Y0024864D01*
X0070266Y0025862D02*
X0070419Y0025862D01*
X0070419Y0026861D02*
X0070266Y0026861D01*
X0070266Y0027859D02*
X0070419Y0027859D01*
X0070523Y0028858D02*
X0070222Y0028858D01*
X0077863Y0034849D02*
X0092336Y0034849D01*
X0092233Y0033851D02*
X0078861Y0033851D01*
X0077537Y0039842D02*
X0064899Y0039842D01*
X0065897Y0040840D02*
X0077201Y0040840D01*
X0077201Y0041839D02*
X0066637Y0041839D01*
X0066637Y0042837D02*
X0077596Y0042837D01*
X0078490Y0043836D02*
X0066637Y0043836D01*
X0076860Y0044834D02*
X0080881Y0044834D01*
X0081879Y0045833D02*
X0076860Y0045833D01*
X0076860Y0046831D02*
X0082878Y0046831D01*
X0076860Y0047830D02*
X0092233Y0047830D01*
X0092233Y0048828D02*
X0076860Y0048828D01*
X0076860Y0049827D02*
X0092233Y0049827D01*
X0092564Y0050825D02*
X0076860Y0050825D01*
X0076860Y0051824D02*
X0151151Y0051824D01*
X0151151Y0052822D02*
X0076860Y0052822D01*
X0076860Y0053821D02*
X0151151Y0053821D01*
X0151151Y0054819D02*
X0076860Y0054819D01*
X0076860Y0055818D02*
X0151151Y0055818D01*
X0151151Y0056816D02*
X0076860Y0056816D01*
X0076600Y0057815D02*
X0151151Y0057815D01*
X0151151Y0050825D02*
X0099501Y0050825D01*
X0099758Y0039842D02*
X0117803Y0039842D01*
X0116943Y0038843D02*
X0088703Y0038843D01*
X0087705Y0037845D02*
X0116571Y0037845D01*
X0116571Y0036846D02*
X0086706Y0036846D01*
X0085708Y0035848D02*
X0116931Y0035848D01*
X0146647Y0017874D02*
X0151151Y0017874D01*
X0151151Y0016876D02*
X0146647Y0016876D01*
X0146647Y0015877D02*
X0151151Y0015877D01*
X0151151Y0014879D02*
X0146647Y0014879D01*
X0146647Y0013880D02*
X0151151Y0013880D01*
X0151151Y0012882D02*
X0146647Y0012882D01*
X0113161Y0069797D02*
X0106463Y0069797D01*
X0106454Y0069792D02*
X0106796Y0069989D01*
X0107076Y0070268D01*
X0107273Y0070611D01*
X0107375Y0070992D01*
X0107375Y0072871D01*
X0104391Y0072871D01*
X0104391Y0073839D01*
X0107375Y0073839D01*
X0107375Y0075718D01*
X0107273Y0076099D01*
X0107076Y0076441D01*
X0106796Y0076720D01*
X0106641Y0076810D01*
X0107175Y0077344D01*
X0107175Y0082752D01*
X0106414Y0083513D01*
X0106007Y0083513D01*
X0106007Y0085728D01*
X0106068Y0085728D01*
X0107175Y0086836D01*
X0107175Y0091158D01*
X0106068Y0092265D01*
X0101746Y0092265D01*
X0100638Y0091158D01*
X0100638Y0086836D01*
X0101746Y0085728D01*
X0101807Y0085728D01*
X0101807Y0083513D01*
X0101400Y0083513D01*
X0100638Y0082752D01*
X0100638Y0077344D01*
X0101172Y0076810D01*
X0101017Y0076720D01*
X0100738Y0076441D01*
X0100541Y0076099D01*
X0100438Y0075718D01*
X0100438Y0073839D01*
X0103422Y0073839D01*
X0103422Y0072871D01*
X0100438Y0072871D01*
X0100438Y0070992D01*
X0100541Y0070611D01*
X0100738Y0070268D01*
X0101017Y0069989D01*
X0101359Y0069792D01*
X0101741Y0069689D01*
X0103423Y0069689D01*
X0103423Y0072871D01*
X0104391Y0072871D01*
X0104391Y0069689D01*
X0106073Y0069689D01*
X0106454Y0069792D01*
X0107323Y0070795D02*
X0112302Y0070795D01*
X0112249Y0071794D02*
X0107375Y0071794D01*
X0107375Y0072792D02*
X0112249Y0072792D01*
X0112249Y0074789D02*
X0107375Y0074789D01*
X0107356Y0075788D02*
X0112268Y0075788D01*
X0112943Y0076787D02*
X0106682Y0076787D01*
X0107175Y0077785D02*
X0112449Y0077785D01*
X0112449Y0078784D02*
X0107175Y0078784D01*
X0107175Y0079782D02*
X0112449Y0079782D01*
X0112449Y0080781D02*
X0107175Y0080781D01*
X0107175Y0081779D02*
X0112449Y0081779D01*
X0112475Y0082778D02*
X0107149Y0082778D01*
X0106007Y0083776D02*
X0113618Y0083776D01*
X0113618Y0084775D02*
X0106007Y0084775D01*
X0106113Y0085773D02*
X0113618Y0085773D01*
X0113618Y0086772D02*
X0107111Y0086772D01*
X0107175Y0087770D02*
X0113618Y0087770D01*
X0113618Y0088769D02*
X0107175Y0088769D01*
X0107175Y0089767D02*
X0113618Y0089767D01*
X0113618Y0090766D02*
X0107175Y0090766D01*
X0106569Y0091764D02*
X0113618Y0091764D01*
X0113065Y0092763D02*
X0106197Y0092763D01*
X0107175Y0093761D02*
X0112651Y0093761D01*
X0112634Y0094760D02*
X0107175Y0094760D01*
X0107175Y0095758D02*
X0112935Y0095758D01*
X0113695Y0096757D02*
X0107175Y0096757D01*
X0101807Y0099752D02*
X0004045Y0099752D01*
X0004045Y0098754D02*
X0101329Y0098754D01*
X0100638Y0097755D02*
X0004045Y0097755D01*
X0004045Y0096757D02*
X0100638Y0096757D01*
X0100638Y0095758D02*
X0004045Y0095758D01*
X0004045Y0094760D02*
X0100638Y0094760D01*
X0100638Y0093761D02*
X0004045Y0093761D01*
X0004045Y0092763D02*
X0101617Y0092763D01*
X0101245Y0091764D02*
X0004045Y0091764D01*
X0004045Y0090766D02*
X0100638Y0090766D01*
X0100638Y0089767D02*
X0004045Y0089767D01*
X0004045Y0088769D02*
X0100638Y0088769D01*
X0100638Y0087770D02*
X0004045Y0087770D01*
X0004045Y0086772D02*
X0100702Y0086772D01*
X0101701Y0085773D02*
X0004045Y0085773D01*
X0004045Y0084775D02*
X0101807Y0084775D01*
X0101807Y0083776D02*
X0004045Y0083776D01*
X0004045Y0082778D02*
X0100664Y0082778D01*
X0100638Y0081779D02*
X0004045Y0081779D01*
X0004045Y0080781D02*
X0100638Y0080781D01*
X0100638Y0079782D02*
X0004045Y0079782D01*
X0004045Y0078784D02*
X0100638Y0078784D01*
X0100638Y0077785D02*
X0004045Y0077785D01*
X0004045Y0076787D02*
X0101132Y0076787D01*
X0100457Y0075788D02*
X0004045Y0075788D01*
X0004045Y0074789D02*
X0100438Y0074789D01*
X0100438Y0072792D02*
X0004045Y0072792D01*
X0004045Y0071794D02*
X0100438Y0071794D01*
X0100491Y0070795D02*
X0004045Y0070795D01*
X0004045Y0069797D02*
X0101350Y0069797D01*
X0103423Y0069797D02*
X0104391Y0069797D01*
X0104391Y0070795D02*
X0103423Y0070795D01*
X0103423Y0071794D02*
X0104391Y0071794D01*
X0104391Y0072792D02*
X0103423Y0072792D01*
X0103422Y0073791D02*
X0004045Y0073791D01*
X0004045Y0062807D02*
X0022659Y0062807D01*
X0022183Y0061809D02*
X0004045Y0061809D01*
X0004045Y0060810D02*
X0022082Y0060810D01*
X0022267Y0059812D02*
X0004045Y0059812D01*
X0004045Y0100751D02*
X0101207Y0100751D01*
X0100823Y0101749D02*
X0004045Y0101749D01*
X0004045Y0102748D02*
X0100823Y0102748D01*
X0101171Y0103746D02*
X0004045Y0103746D01*
X0004045Y0104745D02*
X0101998Y0104745D01*
X0104391Y0073791D02*
X0115234Y0073791D01*
X0151151Y0112733D02*
X0068474Y0112733D01*
X0068474Y0113731D02*
X0151151Y0113731D01*
X0151151Y0114730D02*
X0068474Y0114730D01*
X0068474Y0115728D02*
X0151151Y0115728D01*
X0151151Y0116727D02*
X0068474Y0116727D01*
X0068474Y0117725D02*
X0151151Y0117725D01*
X0151151Y0118724D02*
X0068474Y0118724D01*
X0068474Y0119722D02*
X0151151Y0119722D01*
X0151151Y0120721D02*
X0068474Y0120721D01*
X0068474Y0121720D02*
X0151151Y0121720D01*
X0151151Y0122718D02*
X0068474Y0122718D01*
X0068474Y0123717D02*
X0151151Y0123717D01*
X0052726Y0123717D02*
X0037690Y0123717D01*
X0037690Y0124715D02*
X0052726Y0124715D01*
X0052726Y0125714D02*
X0033541Y0125714D01*
X0033541Y0126712D02*
X0032541Y0126712D01*
X0032541Y0127711D02*
X0033541Y0127711D01*
X0033541Y0128709D02*
X0032541Y0128709D01*
X0032541Y0129708D02*
X0033541Y0129708D01*
X0033541Y0130706D02*
X0032541Y0130706D01*
X0032541Y0131705D02*
X0033541Y0131705D01*
X0033541Y0132703D02*
X0032541Y0132703D01*
X0037412Y0132703D02*
X0052726Y0132703D01*
X0052726Y0131705D02*
X0037690Y0131705D01*
X0037690Y0130706D02*
X0052726Y0130706D01*
X0052726Y0129708D02*
X0037690Y0129708D01*
X0037690Y0128709D02*
X0052726Y0128709D01*
X0052726Y0127711D02*
X0037690Y0127711D01*
X0037690Y0126712D02*
X0052726Y0126712D01*
X0052726Y0122718D02*
X0037690Y0122718D01*
X0037690Y0121720D02*
X0052726Y0121720D01*
X0052726Y0120721D02*
X0037690Y0120721D01*
X0037667Y0119722D02*
X0052726Y0119722D01*
X0052726Y0118724D02*
X0036966Y0118724D01*
X0033541Y0118724D02*
X0032541Y0118724D01*
X0032541Y0119722D02*
X0033541Y0119722D01*
X0033541Y0120721D02*
X0032541Y0120721D01*
X0032541Y0121720D02*
X0033541Y0121720D01*
X0033541Y0122718D02*
X0032541Y0122718D01*
X0032541Y0123717D02*
X0033541Y0123717D01*
X0033541Y0124715D02*
X0032541Y0124715D01*
X0029116Y0118724D02*
X0028870Y0118724D01*
X0028067Y0133702D02*
X0052726Y0133702D01*
X0052726Y0134700D02*
X0028067Y0134700D01*
X0028067Y0135699D02*
X0052726Y0135699D01*
X0052726Y0136697D02*
X0028067Y0136697D01*
X0035706Y0158738D02*
X0036525Y0158846D01*
X0037380Y0159075D01*
X0038197Y0159414D01*
X0038964Y0159856D01*
X0039666Y0160395D01*
X0040291Y0161020D01*
X0040830Y0161722D01*
X0041273Y0162489D01*
X0041611Y0163306D01*
X0041840Y0164161D01*
X0041948Y0164980D01*
X0035706Y0164980D01*
X0035706Y0158738D01*
X0035706Y0159663D02*
X0034706Y0159663D01*
X0034706Y0160661D02*
X0035706Y0160661D01*
X0035706Y0161660D02*
X0034706Y0161660D01*
X0034706Y0162658D02*
X0035706Y0162658D01*
X0035706Y0163657D02*
X0034706Y0163657D01*
X0034706Y0164655D02*
X0035706Y0164655D01*
X0035706Y0165654D02*
X0052726Y0165654D01*
X0052726Y0164655D02*
X0041905Y0164655D01*
X0041705Y0163657D02*
X0052726Y0163657D01*
X0052726Y0162658D02*
X0041343Y0162658D01*
X0040782Y0161660D02*
X0052726Y0161660D01*
X0052726Y0160661D02*
X0039933Y0160661D01*
X0038629Y0159663D02*
X0052726Y0159663D01*
X0052726Y0166653D02*
X0041860Y0166653D01*
X0041612Y0167651D02*
X0052726Y0167651D01*
X0052726Y0168650D02*
X0041170Y0168650D01*
X0040516Y0169648D02*
X0052726Y0169648D01*
X0052726Y0170647D02*
X0039561Y0170647D01*
X0037961Y0171645D02*
X0052726Y0171645D01*
X0052726Y0172644D02*
X0004045Y0172644D01*
X0004045Y0173642D02*
X0052726Y0173642D01*
X0052726Y0174641D02*
X0004045Y0174641D01*
X0004045Y0175639D02*
X0052726Y0175639D01*
X0035706Y0171645D02*
X0034706Y0171645D01*
X0034706Y0172223D02*
X0033886Y0172115D01*
X0033031Y0171886D01*
X0032214Y0171547D01*
X0031447Y0171105D01*
X0030745Y0170566D01*
X0030120Y0169941D01*
X0029581Y0169239D01*
X0029139Y0168472D01*
X0028800Y0167655D01*
X0028571Y0166800D01*
X0028463Y0165980D01*
X0034706Y0165980D01*
X0034706Y0172223D01*
X0034706Y0170647D02*
X0035706Y0170647D01*
X0035706Y0169648D02*
X0034706Y0169648D01*
X0034706Y0168650D02*
X0035706Y0168650D01*
X0035706Y0167651D02*
X0034706Y0167651D01*
X0034706Y0166653D02*
X0035706Y0166653D01*
X0034706Y0165654D02*
X0015628Y0165654D01*
X0015628Y0165980D02*
X0021870Y0165980D01*
X0021762Y0166800D01*
X0021533Y0167655D01*
X0021195Y0168472D01*
X0020752Y0169239D01*
X0020213Y0169941D01*
X0019588Y0170566D01*
X0018886Y0171105D01*
X0018120Y0171547D01*
X0017302Y0171886D01*
X0016447Y0172115D01*
X0015628Y0172223D01*
X0015628Y0165980D01*
X0015628Y0164980D01*
X0014628Y0164980D01*
X0014628Y0158738D01*
X0013808Y0158846D01*
X0012953Y0159075D01*
X0012136Y0159414D01*
X0011370Y0159856D01*
X0010668Y0160395D01*
X0010042Y0161020D01*
X0009503Y0161722D01*
X0009061Y0162489D01*
X0008722Y0163306D01*
X0008493Y0164161D01*
X0008385Y0164980D01*
X0014628Y0164980D01*
X0014628Y0165980D01*
X0008385Y0165980D01*
X0008493Y0166800D01*
X0008722Y0167655D01*
X0009061Y0168472D01*
X0009503Y0169239D01*
X0010042Y0169941D01*
X0010668Y0170566D01*
X0011370Y0171105D01*
X0012136Y0171547D01*
X0012953Y0171886D01*
X0013808Y0172115D01*
X0014628Y0172223D01*
X0014628Y0165980D01*
X0015628Y0165980D01*
X0015628Y0166653D02*
X0014628Y0166653D01*
X0014628Y0167651D02*
X0015628Y0167651D01*
X0015628Y0168650D02*
X0014628Y0168650D01*
X0014628Y0169648D02*
X0015628Y0169648D01*
X0015628Y0170647D02*
X0014628Y0170647D01*
X0014628Y0171645D02*
X0015628Y0171645D01*
X0017883Y0171645D02*
X0032450Y0171645D01*
X0030850Y0170647D02*
X0019483Y0170647D01*
X0020438Y0169648D02*
X0029895Y0169648D01*
X0029241Y0168650D02*
X0021092Y0168650D01*
X0021534Y0167651D02*
X0028799Y0167651D01*
X0028552Y0166653D02*
X0021782Y0166653D01*
X0021827Y0164655D02*
X0028506Y0164655D01*
X0028706Y0163657D02*
X0021627Y0163657D01*
X0021265Y0162658D02*
X0029068Y0162658D01*
X0029629Y0161660D02*
X0020704Y0161660D01*
X0015628Y0161660D02*
X0014628Y0161660D01*
X0014628Y0162658D02*
X0015628Y0162658D01*
X0015628Y0163657D02*
X0014628Y0163657D01*
X0014628Y0164655D02*
X0015628Y0164655D01*
X0014628Y0165654D02*
X0004045Y0165654D01*
X0004045Y0164655D02*
X0008428Y0164655D01*
X0008628Y0163657D02*
X0004045Y0163657D01*
X0004045Y0162658D02*
X0008990Y0162658D01*
X0009551Y0161660D02*
X0004045Y0161660D01*
X0004045Y0160661D02*
X0010401Y0160661D01*
X0011704Y0159663D02*
X0004045Y0159663D01*
X0004045Y0166653D02*
X0008474Y0166653D01*
X0008721Y0167651D02*
X0004045Y0167651D01*
X0004045Y0168650D02*
X0009163Y0168650D01*
X0009817Y0169648D02*
X0004045Y0169648D01*
X0004045Y0170647D02*
X0010772Y0170647D01*
X0012372Y0171645D02*
X0004045Y0171645D01*
X0014628Y0160661D02*
X0015628Y0160661D01*
X0015628Y0159663D02*
X0014628Y0159663D01*
D22*
X0076348Y0116071D03*
X0076348Y0108197D03*
X0084222Y0116071D03*
X0103907Y0102292D03*
X0115718Y0094418D03*
X0092096Y0068827D03*
X0080285Y0041268D03*
X0088159Y0029457D03*
X0067982Y0017646D03*
X0063356Y0018434D03*
X0057844Y0018434D03*
X0048198Y0007804D03*
X0036978Y0029457D03*
X0040915Y0037331D03*
X0048789Y0041268D03*
X0025167Y0060953D03*
X0060600Y0080638D03*
X0119655Y0037331D03*
X0130974Y0017646D03*
X0147214Y0041268D03*
X0073001Y0007804D03*
D23*
X0067982Y0017646D02*
X0067982Y0024733D01*
X0063060Y0024733D02*
X0063060Y0018729D01*
X0063356Y0018434D01*
X0058139Y0018729D02*
X0058139Y0024733D01*
X0058139Y0030934D01*
X0064537Y0037331D01*
X0084222Y0037331D01*
X0088596Y0041705D01*
X0096033Y0041705D01*
X0096033Y0045205D02*
X0084222Y0045205D01*
X0080285Y0041268D01*
X0076348Y0033394D02*
X0065718Y0033394D01*
X0063060Y0030737D01*
X0063060Y0024733D01*
X0058139Y0018729D02*
X0057844Y0018434D01*
X0053218Y0024733D02*
X0053218Y0031130D01*
X0064537Y0042449D01*
X0064537Y0051111D01*
X0056663Y0051111D02*
X0056663Y0041268D01*
X0048297Y0032902D01*
X0048297Y0024733D01*
X0036978Y0029457D02*
X0033041Y0033394D01*
X0033041Y0051111D01*
X0048789Y0051111D02*
X0048789Y0041268D01*
X0076348Y0033394D02*
X0083785Y0025957D01*
X0096033Y0025957D01*
X0096033Y0029457D02*
X0088159Y0029457D01*
X0096033Y0032957D02*
X0119304Y0032957D01*
X0119304Y0036981D01*
X0119655Y0037331D01*
X0119304Y0032957D02*
X0121131Y0031130D01*
X0121131Y0024733D01*
X0126052Y0024733D02*
X0126052Y0041170D01*
X0126151Y0041268D01*
X0147214Y0041268D01*
X0130974Y0024733D02*
X0130974Y0017646D01*
X0126052Y0041170D02*
X0118517Y0048705D01*
X0096033Y0048705D01*
X0103907Y0080048D02*
X0103907Y0088997D01*
X0103907Y0095902D02*
X0103907Y0102292D01*
X0115718Y0094418D02*
X0115718Y0080048D01*
M02*
