G04 #@! TF.GenerationSoftware,KiCad,Pcbnew,(5.1.5)-3*
G04 #@! TF.CreationDate,2020-01-29T21:37:39+13:00*
G04 #@! TF.ProjectId,SimpleFC,53696d70-6c65-4464-932e-6b696361645f,rev?*
G04 #@! TF.SameCoordinates,Original*
G04 #@! TF.FileFunction,Soldermask,Bot*
G04 #@! TF.FilePolarity,Negative*
%FSLAX46Y46*%
G04 Gerber Fmt 4.6, Leading zero omitted, Abs format (unit mm)*
G04 Created by KiCad (PCBNEW (5.1.5)-3) date 2020-01-29 21:37:39*
%MOMM*%
%LPD*%
G04 APERTURE LIST*
%ADD10C,0.100000*%
G04 APERTURE END LIST*
D10*
G36*
X154222525Y-122403809D02*
G01*
X154429991Y-122489744D01*
X154429993Y-122489745D01*
X154616708Y-122614504D01*
X154775496Y-122773292D01*
X154900255Y-122960007D01*
X154900256Y-122960009D01*
X154986191Y-123167475D01*
X155030000Y-123387718D01*
X155030000Y-123612282D01*
X154986191Y-123832525D01*
X154900256Y-124039991D01*
X154900255Y-124039993D01*
X154775496Y-124226708D01*
X154616708Y-124385496D01*
X154429993Y-124510255D01*
X154429992Y-124510256D01*
X154429991Y-124510256D01*
X154222525Y-124596191D01*
X154002282Y-124640000D01*
X153777718Y-124640000D01*
X153557475Y-124596191D01*
X153350009Y-124510256D01*
X153350008Y-124510256D01*
X153350007Y-124510255D01*
X153163292Y-124385496D01*
X153004504Y-124226708D01*
X152879745Y-124039993D01*
X152879744Y-124039991D01*
X152793809Y-123832525D01*
X152750000Y-123612282D01*
X152750000Y-123387718D01*
X152793809Y-123167475D01*
X152879744Y-122960009D01*
X152879745Y-122960007D01*
X153004504Y-122773292D01*
X153163292Y-122614504D01*
X153350007Y-122489745D01*
X153350009Y-122489744D01*
X153557475Y-122403809D01*
X153777718Y-122360000D01*
X154002282Y-122360000D01*
X154222525Y-122403809D01*
G37*
G36*
X165102525Y-122403809D02*
G01*
X165309991Y-122489744D01*
X165309993Y-122489745D01*
X165496708Y-122614504D01*
X165655496Y-122773292D01*
X165780255Y-122960007D01*
X165780256Y-122960009D01*
X165866191Y-123167475D01*
X165910000Y-123387718D01*
X165910000Y-123612282D01*
X165866191Y-123832525D01*
X165780256Y-124039991D01*
X165780255Y-124039993D01*
X165655496Y-124226708D01*
X165496708Y-124385496D01*
X165309993Y-124510255D01*
X165309992Y-124510256D01*
X165309991Y-124510256D01*
X165102525Y-124596191D01*
X164882282Y-124640000D01*
X164657718Y-124640000D01*
X164437475Y-124596191D01*
X164230009Y-124510256D01*
X164230008Y-124510256D01*
X164230007Y-124510255D01*
X164043292Y-124385496D01*
X163884504Y-124226708D01*
X163759745Y-124039993D01*
X163759744Y-124039991D01*
X163673809Y-123832525D01*
X163630000Y-123612282D01*
X163630000Y-123387718D01*
X163673809Y-123167475D01*
X163759744Y-122960009D01*
X163759745Y-122960007D01*
X163884504Y-122773292D01*
X164043292Y-122614504D01*
X164230007Y-122489745D01*
X164230009Y-122489744D01*
X164437475Y-122403809D01*
X164657718Y-122360000D01*
X164882282Y-122360000D01*
X165102525Y-122403809D01*
G37*
G36*
X162562525Y-122403809D02*
G01*
X162769991Y-122489744D01*
X162769993Y-122489745D01*
X162956708Y-122614504D01*
X163115496Y-122773292D01*
X163240255Y-122960007D01*
X163240256Y-122960009D01*
X163326191Y-123167475D01*
X163370000Y-123387718D01*
X163370000Y-123612282D01*
X163326191Y-123832525D01*
X163240256Y-124039991D01*
X163240255Y-124039993D01*
X163115496Y-124226708D01*
X162956708Y-124385496D01*
X162769993Y-124510255D01*
X162769992Y-124510256D01*
X162769991Y-124510256D01*
X162562525Y-124596191D01*
X162342282Y-124640000D01*
X162117718Y-124640000D01*
X161897475Y-124596191D01*
X161690009Y-124510256D01*
X161690008Y-124510256D01*
X161690007Y-124510255D01*
X161503292Y-124385496D01*
X161344504Y-124226708D01*
X161219745Y-124039993D01*
X161219744Y-124039991D01*
X161133809Y-123832525D01*
X161090000Y-123612282D01*
X161090000Y-123387718D01*
X161133809Y-123167475D01*
X161219744Y-122960009D01*
X161219745Y-122960007D01*
X161344504Y-122773292D01*
X161503292Y-122614504D01*
X161690007Y-122489745D01*
X161690009Y-122489744D01*
X161897475Y-122403809D01*
X162117718Y-122360000D01*
X162342282Y-122360000D01*
X162562525Y-122403809D01*
G37*
G36*
X160022525Y-122403809D02*
G01*
X160229991Y-122489744D01*
X160229993Y-122489745D01*
X160416708Y-122614504D01*
X160575496Y-122773292D01*
X160700255Y-122960007D01*
X160700256Y-122960009D01*
X160786191Y-123167475D01*
X160830000Y-123387718D01*
X160830000Y-123612282D01*
X160786191Y-123832525D01*
X160700256Y-124039991D01*
X160700255Y-124039993D01*
X160575496Y-124226708D01*
X160416708Y-124385496D01*
X160229993Y-124510255D01*
X160229992Y-124510256D01*
X160229991Y-124510256D01*
X160022525Y-124596191D01*
X159802282Y-124640000D01*
X159577718Y-124640000D01*
X159357475Y-124596191D01*
X159150009Y-124510256D01*
X159150008Y-124510256D01*
X159150007Y-124510255D01*
X158963292Y-124385496D01*
X158804504Y-124226708D01*
X158679745Y-124039993D01*
X158679744Y-124039991D01*
X158593809Y-123832525D01*
X158550000Y-123612282D01*
X158550000Y-123387718D01*
X158593809Y-123167475D01*
X158679744Y-122960009D01*
X158679745Y-122960007D01*
X158804504Y-122773292D01*
X158963292Y-122614504D01*
X159150007Y-122489745D01*
X159150009Y-122489744D01*
X159357475Y-122403809D01*
X159577718Y-122360000D01*
X159802282Y-122360000D01*
X160022525Y-122403809D01*
G37*
G36*
X156762525Y-122403809D02*
G01*
X156969991Y-122489744D01*
X156969993Y-122489745D01*
X157156708Y-122614504D01*
X157315496Y-122773292D01*
X157440255Y-122960007D01*
X157440256Y-122960009D01*
X157526191Y-123167475D01*
X157570000Y-123387718D01*
X157570000Y-123612282D01*
X157526191Y-123832525D01*
X157440256Y-124039991D01*
X157440255Y-124039993D01*
X157315496Y-124226708D01*
X157156708Y-124385496D01*
X156969993Y-124510255D01*
X156969992Y-124510256D01*
X156969991Y-124510256D01*
X156762525Y-124596191D01*
X156542282Y-124640000D01*
X156317718Y-124640000D01*
X156097475Y-124596191D01*
X155890009Y-124510256D01*
X155890008Y-124510256D01*
X155890007Y-124510255D01*
X155703292Y-124385496D01*
X155544504Y-124226708D01*
X155419745Y-124039993D01*
X155419744Y-124039991D01*
X155333809Y-123832525D01*
X155290000Y-123612282D01*
X155290000Y-123387718D01*
X155333809Y-123167475D01*
X155419744Y-122960009D01*
X155419745Y-122960007D01*
X155544504Y-122773292D01*
X155703292Y-122614504D01*
X155890007Y-122489745D01*
X155890009Y-122489744D01*
X156097475Y-122403809D01*
X156317718Y-122360000D01*
X156542282Y-122360000D01*
X156762525Y-122403809D01*
G37*
G36*
X133902525Y-122403809D02*
G01*
X134109991Y-122489744D01*
X134109993Y-122489745D01*
X134296708Y-122614504D01*
X134455496Y-122773292D01*
X134580255Y-122960007D01*
X134580256Y-122960009D01*
X134666191Y-123167475D01*
X134710000Y-123387718D01*
X134710000Y-123612282D01*
X134666191Y-123832525D01*
X134580256Y-124039991D01*
X134580255Y-124039993D01*
X134455496Y-124226708D01*
X134296708Y-124385496D01*
X134109993Y-124510255D01*
X134109992Y-124510256D01*
X134109991Y-124510256D01*
X133902525Y-124596191D01*
X133682282Y-124640000D01*
X133457718Y-124640000D01*
X133237475Y-124596191D01*
X133030009Y-124510256D01*
X133030008Y-124510256D01*
X133030007Y-124510255D01*
X132843292Y-124385496D01*
X132684504Y-124226708D01*
X132559745Y-124039993D01*
X132559744Y-124039991D01*
X132473809Y-123832525D01*
X132430000Y-123612282D01*
X132430000Y-123387718D01*
X132473809Y-123167475D01*
X132559744Y-122960009D01*
X132559745Y-122960007D01*
X132684504Y-122773292D01*
X132843292Y-122614504D01*
X133030007Y-122489745D01*
X133030009Y-122489744D01*
X133237475Y-122403809D01*
X133457718Y-122360000D01*
X133682282Y-122360000D01*
X133902525Y-122403809D01*
G37*
G36*
X136442525Y-122403809D02*
G01*
X136649991Y-122489744D01*
X136649993Y-122489745D01*
X136836708Y-122614504D01*
X136995496Y-122773292D01*
X137120255Y-122960007D01*
X137120256Y-122960009D01*
X137206191Y-123167475D01*
X137250000Y-123387718D01*
X137250000Y-123612282D01*
X137206191Y-123832525D01*
X137120256Y-124039991D01*
X137120255Y-124039993D01*
X136995496Y-124226708D01*
X136836708Y-124385496D01*
X136649993Y-124510255D01*
X136649992Y-124510256D01*
X136649991Y-124510256D01*
X136442525Y-124596191D01*
X136222282Y-124640000D01*
X135997718Y-124640000D01*
X135777475Y-124596191D01*
X135570009Y-124510256D01*
X135570008Y-124510256D01*
X135570007Y-124510255D01*
X135383292Y-124385496D01*
X135224504Y-124226708D01*
X135099745Y-124039993D01*
X135099744Y-124039991D01*
X135013809Y-123832525D01*
X134970000Y-123612282D01*
X134970000Y-123387718D01*
X135013809Y-123167475D01*
X135099744Y-122960009D01*
X135099745Y-122960007D01*
X135224504Y-122773292D01*
X135383292Y-122614504D01*
X135570007Y-122489745D01*
X135570009Y-122489744D01*
X135777475Y-122403809D01*
X135997718Y-122360000D01*
X136222282Y-122360000D01*
X136442525Y-122403809D01*
G37*
G36*
X138982525Y-122403809D02*
G01*
X139189991Y-122489744D01*
X139189993Y-122489745D01*
X139376708Y-122614504D01*
X139535496Y-122773292D01*
X139660255Y-122960007D01*
X139660256Y-122960009D01*
X139746191Y-123167475D01*
X139790000Y-123387718D01*
X139790000Y-123612282D01*
X139746191Y-123832525D01*
X139660256Y-124039991D01*
X139660255Y-124039993D01*
X139535496Y-124226708D01*
X139376708Y-124385496D01*
X139189993Y-124510255D01*
X139189992Y-124510256D01*
X139189991Y-124510256D01*
X138982525Y-124596191D01*
X138762282Y-124640000D01*
X138537718Y-124640000D01*
X138317475Y-124596191D01*
X138110009Y-124510256D01*
X138110008Y-124510256D01*
X138110007Y-124510255D01*
X137923292Y-124385496D01*
X137764504Y-124226708D01*
X137639745Y-124039993D01*
X137639744Y-124039991D01*
X137553809Y-123832525D01*
X137510000Y-123612282D01*
X137510000Y-123387718D01*
X137553809Y-123167475D01*
X137639744Y-122960009D01*
X137639745Y-122960007D01*
X137764504Y-122773292D01*
X137923292Y-122614504D01*
X138110007Y-122489745D01*
X138110009Y-122489744D01*
X138317475Y-122403809D01*
X138537718Y-122360000D01*
X138762282Y-122360000D01*
X138982525Y-122403809D01*
G37*
G36*
X144062525Y-122403809D02*
G01*
X144269991Y-122489744D01*
X144269993Y-122489745D01*
X144456708Y-122614504D01*
X144615496Y-122773292D01*
X144740255Y-122960007D01*
X144740256Y-122960009D01*
X144826191Y-123167475D01*
X144870000Y-123387718D01*
X144870000Y-123612282D01*
X144826191Y-123832525D01*
X144740256Y-124039991D01*
X144740255Y-124039993D01*
X144615496Y-124226708D01*
X144456708Y-124385496D01*
X144269993Y-124510255D01*
X144269992Y-124510256D01*
X144269991Y-124510256D01*
X144062525Y-124596191D01*
X143842282Y-124640000D01*
X143617718Y-124640000D01*
X143397475Y-124596191D01*
X143190009Y-124510256D01*
X143190008Y-124510256D01*
X143190007Y-124510255D01*
X143003292Y-124385496D01*
X142844504Y-124226708D01*
X142719745Y-124039993D01*
X142719744Y-124039991D01*
X142633809Y-123832525D01*
X142590000Y-123612282D01*
X142590000Y-123387718D01*
X142633809Y-123167475D01*
X142719744Y-122960009D01*
X142719745Y-122960007D01*
X142844504Y-122773292D01*
X143003292Y-122614504D01*
X143190007Y-122489745D01*
X143190009Y-122489744D01*
X143397475Y-122403809D01*
X143617718Y-122360000D01*
X143842282Y-122360000D01*
X144062525Y-122403809D01*
G37*
G36*
X141522525Y-122403809D02*
G01*
X141729991Y-122489744D01*
X141729993Y-122489745D01*
X141916708Y-122614504D01*
X142075496Y-122773292D01*
X142200255Y-122960007D01*
X142200256Y-122960009D01*
X142286191Y-123167475D01*
X142330000Y-123387718D01*
X142330000Y-123612282D01*
X142286191Y-123832525D01*
X142200256Y-124039991D01*
X142200255Y-124039993D01*
X142075496Y-124226708D01*
X141916708Y-124385496D01*
X141729993Y-124510255D01*
X141729992Y-124510256D01*
X141729991Y-124510256D01*
X141522525Y-124596191D01*
X141302282Y-124640000D01*
X141077718Y-124640000D01*
X140857475Y-124596191D01*
X140650009Y-124510256D01*
X140650008Y-124510256D01*
X140650007Y-124510255D01*
X140463292Y-124385496D01*
X140304504Y-124226708D01*
X140179745Y-124039993D01*
X140179744Y-124039991D01*
X140093809Y-123832525D01*
X140050000Y-123612282D01*
X140050000Y-123387718D01*
X140093809Y-123167475D01*
X140179744Y-122960009D01*
X140179745Y-122960007D01*
X140304504Y-122773292D01*
X140463292Y-122614504D01*
X140650007Y-122489745D01*
X140650009Y-122489744D01*
X140857475Y-122403809D01*
X141077718Y-122360000D01*
X141302282Y-122360000D01*
X141522525Y-122403809D01*
G37*
G36*
X167642525Y-122403809D02*
G01*
X167849991Y-122489744D01*
X167849993Y-122489745D01*
X168036708Y-122614504D01*
X168195496Y-122773292D01*
X168320255Y-122960007D01*
X168320256Y-122960009D01*
X168406191Y-123167475D01*
X168450000Y-123387718D01*
X168450000Y-123612282D01*
X168406191Y-123832525D01*
X168320256Y-124039991D01*
X168320255Y-124039993D01*
X168195496Y-124226708D01*
X168036708Y-124385496D01*
X167849993Y-124510255D01*
X167849992Y-124510256D01*
X167849991Y-124510256D01*
X167642525Y-124596191D01*
X167422282Y-124640000D01*
X167197718Y-124640000D01*
X166977475Y-124596191D01*
X166770009Y-124510256D01*
X166770008Y-124510256D01*
X166770007Y-124510255D01*
X166583292Y-124385496D01*
X166424504Y-124226708D01*
X166299745Y-124039993D01*
X166299744Y-124039991D01*
X166213809Y-123832525D01*
X166170000Y-123612282D01*
X166170000Y-123387718D01*
X166213809Y-123167475D01*
X166299744Y-122960009D01*
X166299745Y-122960007D01*
X166424504Y-122773292D01*
X166583292Y-122614504D01*
X166770007Y-122489745D01*
X166770009Y-122489744D01*
X166977475Y-122403809D01*
X167197718Y-122360000D01*
X167422282Y-122360000D01*
X167642525Y-122403809D01*
G37*
G36*
X151682525Y-122403809D02*
G01*
X151889991Y-122489744D01*
X151889993Y-122489745D01*
X152076708Y-122614504D01*
X152235496Y-122773292D01*
X152360255Y-122960007D01*
X152360256Y-122960009D01*
X152446191Y-123167475D01*
X152490000Y-123387718D01*
X152490000Y-123612282D01*
X152446191Y-123832525D01*
X152360256Y-124039991D01*
X152360255Y-124039993D01*
X152235496Y-124226708D01*
X152076708Y-124385496D01*
X151889993Y-124510255D01*
X151889992Y-124510256D01*
X151889991Y-124510256D01*
X151682525Y-124596191D01*
X151462282Y-124640000D01*
X151237718Y-124640000D01*
X151017475Y-124596191D01*
X150810009Y-124510256D01*
X150810008Y-124510256D01*
X150810007Y-124510255D01*
X150623292Y-124385496D01*
X150464504Y-124226708D01*
X150339745Y-124039993D01*
X150339744Y-124039991D01*
X150253809Y-123832525D01*
X150210000Y-123612282D01*
X150210000Y-123387718D01*
X150253809Y-123167475D01*
X150339744Y-122960009D01*
X150339745Y-122960007D01*
X150464504Y-122773292D01*
X150623292Y-122614504D01*
X150810007Y-122489745D01*
X150810009Y-122489744D01*
X151017475Y-122403809D01*
X151237718Y-122360000D01*
X151462282Y-122360000D01*
X151682525Y-122403809D01*
G37*
G36*
X146602525Y-122403809D02*
G01*
X146809991Y-122489744D01*
X146809993Y-122489745D01*
X146996708Y-122614504D01*
X147155496Y-122773292D01*
X147280255Y-122960007D01*
X147280256Y-122960009D01*
X147366191Y-123167475D01*
X147410000Y-123387718D01*
X147410000Y-123612282D01*
X147366191Y-123832525D01*
X147280256Y-124039991D01*
X147280255Y-124039993D01*
X147155496Y-124226708D01*
X146996708Y-124385496D01*
X146809993Y-124510255D01*
X146809992Y-124510256D01*
X146809991Y-124510256D01*
X146602525Y-124596191D01*
X146382282Y-124640000D01*
X146157718Y-124640000D01*
X145937475Y-124596191D01*
X145730009Y-124510256D01*
X145730008Y-124510256D01*
X145730007Y-124510255D01*
X145543292Y-124385496D01*
X145384504Y-124226708D01*
X145259745Y-124039993D01*
X145259744Y-124039991D01*
X145173809Y-123832525D01*
X145130000Y-123612282D01*
X145130000Y-123387718D01*
X145173809Y-123167475D01*
X145259744Y-122960009D01*
X145259745Y-122960007D01*
X145384504Y-122773292D01*
X145543292Y-122614504D01*
X145730007Y-122489745D01*
X145730009Y-122489744D01*
X145937475Y-122403809D01*
X146157718Y-122360000D01*
X146382282Y-122360000D01*
X146602525Y-122403809D01*
G37*
G36*
X149142525Y-122403809D02*
G01*
X149349991Y-122489744D01*
X149349993Y-122489745D01*
X149536708Y-122614504D01*
X149695496Y-122773292D01*
X149820255Y-122960007D01*
X149820256Y-122960009D01*
X149906191Y-123167475D01*
X149950000Y-123387718D01*
X149950000Y-123612282D01*
X149906191Y-123832525D01*
X149820256Y-124039991D01*
X149820255Y-124039993D01*
X149695496Y-124226708D01*
X149536708Y-124385496D01*
X149349993Y-124510255D01*
X149349992Y-124510256D01*
X149349991Y-124510256D01*
X149142525Y-124596191D01*
X148922282Y-124640000D01*
X148697718Y-124640000D01*
X148477475Y-124596191D01*
X148270009Y-124510256D01*
X148270008Y-124510256D01*
X148270007Y-124510255D01*
X148083292Y-124385496D01*
X147924504Y-124226708D01*
X147799745Y-124039993D01*
X147799744Y-124039991D01*
X147713809Y-123832525D01*
X147670000Y-123612282D01*
X147670000Y-123387718D01*
X147713809Y-123167475D01*
X147799744Y-122960009D01*
X147799745Y-122960007D01*
X147924504Y-122773292D01*
X148083292Y-122614504D01*
X148270007Y-122489745D01*
X148270009Y-122489744D01*
X148477475Y-122403809D01*
X148697718Y-122360000D01*
X148922282Y-122360000D01*
X149142525Y-122403809D01*
G37*
G36*
X172841408Y-120783626D02*
G01*
X173010456Y-120817251D01*
X173328936Y-120949170D01*
X173615560Y-121140686D01*
X173859314Y-121384440D01*
X174050830Y-121671064D01*
X174182749Y-121989544D01*
X174250000Y-122327640D01*
X174250000Y-122672360D01*
X174182749Y-123010456D01*
X174050830Y-123328936D01*
X173859314Y-123615560D01*
X173615560Y-123859314D01*
X173328936Y-124050830D01*
X173010456Y-124182749D01*
X172841408Y-124216375D01*
X172672361Y-124250000D01*
X172327639Y-124250000D01*
X172158592Y-124216375D01*
X171989544Y-124182749D01*
X171671064Y-124050830D01*
X171384440Y-123859314D01*
X171140686Y-123615560D01*
X170949170Y-123328936D01*
X170817251Y-123010456D01*
X170750000Y-122672360D01*
X170750000Y-122327640D01*
X170817251Y-121989544D01*
X170949170Y-121671064D01*
X171140686Y-121384440D01*
X171384440Y-121140686D01*
X171671064Y-120949170D01*
X171989544Y-120817251D01*
X172158592Y-120783626D01*
X172327639Y-120750000D01*
X172672361Y-120750000D01*
X172841408Y-120783626D01*
G37*
G36*
X127841408Y-120783626D02*
G01*
X128010456Y-120817251D01*
X128328936Y-120949170D01*
X128615560Y-121140686D01*
X128859314Y-121384440D01*
X129050830Y-121671064D01*
X129182749Y-121989544D01*
X129250000Y-122327640D01*
X129250000Y-122672360D01*
X129182749Y-123010456D01*
X129050830Y-123328936D01*
X128859314Y-123615560D01*
X128615560Y-123859314D01*
X128328936Y-124050830D01*
X128010456Y-124182749D01*
X127841408Y-124216375D01*
X127672361Y-124250000D01*
X127327639Y-124250000D01*
X127158592Y-124216375D01*
X126989544Y-124182749D01*
X126671064Y-124050830D01*
X126384440Y-123859314D01*
X126140686Y-123615560D01*
X125949170Y-123328936D01*
X125817251Y-123010456D01*
X125750000Y-122672360D01*
X125750000Y-122327640D01*
X125817251Y-121989544D01*
X125949170Y-121671064D01*
X126140686Y-121384440D01*
X126384440Y-121140686D01*
X126671064Y-120949170D01*
X126989544Y-120817251D01*
X127158592Y-120783626D01*
X127327639Y-120750000D01*
X127672361Y-120750000D01*
X127841408Y-120783626D01*
G37*
G36*
X144062525Y-119863809D02*
G01*
X144269991Y-119949744D01*
X144269993Y-119949745D01*
X144456708Y-120074504D01*
X144615496Y-120233292D01*
X144740255Y-120420007D01*
X144740256Y-120420009D01*
X144826191Y-120627475D01*
X144870000Y-120847718D01*
X144870000Y-121072282D01*
X144826191Y-121292525D01*
X144788118Y-121384441D01*
X144740255Y-121499993D01*
X144615496Y-121686708D01*
X144456708Y-121845496D01*
X144269993Y-121970255D01*
X144269992Y-121970256D01*
X144269991Y-121970256D01*
X144062525Y-122056191D01*
X143842282Y-122100000D01*
X143617718Y-122100000D01*
X143397475Y-122056191D01*
X143190009Y-121970256D01*
X143190008Y-121970256D01*
X143190007Y-121970255D01*
X143003292Y-121845496D01*
X142844504Y-121686708D01*
X142719745Y-121499993D01*
X142671882Y-121384441D01*
X142633809Y-121292525D01*
X142590000Y-121072282D01*
X142590000Y-120847718D01*
X142633809Y-120627475D01*
X142719744Y-120420009D01*
X142719745Y-120420007D01*
X142844504Y-120233292D01*
X143003292Y-120074504D01*
X143190007Y-119949745D01*
X143190009Y-119949744D01*
X143397475Y-119863809D01*
X143617718Y-119820000D01*
X143842282Y-119820000D01*
X144062525Y-119863809D01*
G37*
G36*
X136442525Y-119863809D02*
G01*
X136649991Y-119949744D01*
X136649993Y-119949745D01*
X136836708Y-120074504D01*
X136995496Y-120233292D01*
X137120255Y-120420007D01*
X137120256Y-120420009D01*
X137206191Y-120627475D01*
X137250000Y-120847718D01*
X137250000Y-121072282D01*
X137206191Y-121292525D01*
X137168118Y-121384441D01*
X137120255Y-121499993D01*
X136995496Y-121686708D01*
X136836708Y-121845496D01*
X136649993Y-121970255D01*
X136649992Y-121970256D01*
X136649991Y-121970256D01*
X136442525Y-122056191D01*
X136222282Y-122100000D01*
X135997718Y-122100000D01*
X135777475Y-122056191D01*
X135570009Y-121970256D01*
X135570008Y-121970256D01*
X135570007Y-121970255D01*
X135383292Y-121845496D01*
X135224504Y-121686708D01*
X135099745Y-121499993D01*
X135051882Y-121384441D01*
X135013809Y-121292525D01*
X134970000Y-121072282D01*
X134970000Y-120847718D01*
X135013809Y-120627475D01*
X135099744Y-120420009D01*
X135099745Y-120420007D01*
X135224504Y-120233292D01*
X135383292Y-120074504D01*
X135570007Y-119949745D01*
X135570009Y-119949744D01*
X135777475Y-119863809D01*
X135997718Y-119820000D01*
X136222282Y-119820000D01*
X136442525Y-119863809D01*
G37*
G36*
X146602525Y-119863809D02*
G01*
X146809991Y-119949744D01*
X146809993Y-119949745D01*
X146996708Y-120074504D01*
X147155496Y-120233292D01*
X147280255Y-120420007D01*
X147280256Y-120420009D01*
X147366191Y-120627475D01*
X147410000Y-120847718D01*
X147410000Y-121072282D01*
X147366191Y-121292525D01*
X147328118Y-121384441D01*
X147280255Y-121499993D01*
X147155496Y-121686708D01*
X146996708Y-121845496D01*
X146809993Y-121970255D01*
X146809992Y-121970256D01*
X146809991Y-121970256D01*
X146602525Y-122056191D01*
X146382282Y-122100000D01*
X146157718Y-122100000D01*
X145937475Y-122056191D01*
X145730009Y-121970256D01*
X145730008Y-121970256D01*
X145730007Y-121970255D01*
X145543292Y-121845496D01*
X145384504Y-121686708D01*
X145259745Y-121499993D01*
X145211882Y-121384441D01*
X145173809Y-121292525D01*
X145130000Y-121072282D01*
X145130000Y-120847718D01*
X145173809Y-120627475D01*
X145259744Y-120420009D01*
X145259745Y-120420007D01*
X145384504Y-120233292D01*
X145543292Y-120074504D01*
X145730007Y-119949745D01*
X145730009Y-119949744D01*
X145937475Y-119863809D01*
X146157718Y-119820000D01*
X146382282Y-119820000D01*
X146602525Y-119863809D01*
G37*
G36*
X149142525Y-119863809D02*
G01*
X149349991Y-119949744D01*
X149349993Y-119949745D01*
X149536708Y-120074504D01*
X149695496Y-120233292D01*
X149820255Y-120420007D01*
X149820256Y-120420009D01*
X149906191Y-120627475D01*
X149950000Y-120847718D01*
X149950000Y-121072282D01*
X149906191Y-121292525D01*
X149868118Y-121384441D01*
X149820255Y-121499993D01*
X149695496Y-121686708D01*
X149536708Y-121845496D01*
X149349993Y-121970255D01*
X149349992Y-121970256D01*
X149349991Y-121970256D01*
X149142525Y-122056191D01*
X148922282Y-122100000D01*
X148697718Y-122100000D01*
X148477475Y-122056191D01*
X148270009Y-121970256D01*
X148270008Y-121970256D01*
X148270007Y-121970255D01*
X148083292Y-121845496D01*
X147924504Y-121686708D01*
X147799745Y-121499993D01*
X147751882Y-121384441D01*
X147713809Y-121292525D01*
X147670000Y-121072282D01*
X147670000Y-120847718D01*
X147713809Y-120627475D01*
X147799744Y-120420009D01*
X147799745Y-120420007D01*
X147924504Y-120233292D01*
X148083292Y-120074504D01*
X148270007Y-119949745D01*
X148270009Y-119949744D01*
X148477475Y-119863809D01*
X148697718Y-119820000D01*
X148922282Y-119820000D01*
X149142525Y-119863809D01*
G37*
G36*
X151682525Y-119863809D02*
G01*
X151889991Y-119949744D01*
X151889993Y-119949745D01*
X152076708Y-120074504D01*
X152235496Y-120233292D01*
X152360255Y-120420007D01*
X152360256Y-120420009D01*
X152446191Y-120627475D01*
X152490000Y-120847718D01*
X152490000Y-121072282D01*
X152446191Y-121292525D01*
X152408118Y-121384441D01*
X152360255Y-121499993D01*
X152235496Y-121686708D01*
X152076708Y-121845496D01*
X151889993Y-121970255D01*
X151889992Y-121970256D01*
X151889991Y-121970256D01*
X151682525Y-122056191D01*
X151462282Y-122100000D01*
X151237718Y-122100000D01*
X151017475Y-122056191D01*
X150810009Y-121970256D01*
X150810008Y-121970256D01*
X150810007Y-121970255D01*
X150623292Y-121845496D01*
X150464504Y-121686708D01*
X150339745Y-121499993D01*
X150291882Y-121384441D01*
X150253809Y-121292525D01*
X150210000Y-121072282D01*
X150210000Y-120847718D01*
X150253809Y-120627475D01*
X150339744Y-120420009D01*
X150339745Y-120420007D01*
X150464504Y-120233292D01*
X150623292Y-120074504D01*
X150810007Y-119949745D01*
X150810009Y-119949744D01*
X151017475Y-119863809D01*
X151237718Y-119820000D01*
X151462282Y-119820000D01*
X151682525Y-119863809D01*
G37*
G36*
X154222525Y-119863809D02*
G01*
X154429991Y-119949744D01*
X154429993Y-119949745D01*
X154616708Y-120074504D01*
X154775496Y-120233292D01*
X154900255Y-120420007D01*
X154900256Y-120420009D01*
X154986191Y-120627475D01*
X155030000Y-120847718D01*
X155030000Y-121072282D01*
X154986191Y-121292525D01*
X154948118Y-121384441D01*
X154900255Y-121499993D01*
X154775496Y-121686708D01*
X154616708Y-121845496D01*
X154429993Y-121970255D01*
X154429992Y-121970256D01*
X154429991Y-121970256D01*
X154222525Y-122056191D01*
X154002282Y-122100000D01*
X153777718Y-122100000D01*
X153557475Y-122056191D01*
X153350009Y-121970256D01*
X153350008Y-121970256D01*
X153350007Y-121970255D01*
X153163292Y-121845496D01*
X153004504Y-121686708D01*
X152879745Y-121499993D01*
X152831882Y-121384441D01*
X152793809Y-121292525D01*
X152750000Y-121072282D01*
X152750000Y-120847718D01*
X152793809Y-120627475D01*
X152879744Y-120420009D01*
X152879745Y-120420007D01*
X153004504Y-120233292D01*
X153163292Y-120074504D01*
X153350007Y-119949745D01*
X153350009Y-119949744D01*
X153557475Y-119863809D01*
X153777718Y-119820000D01*
X154002282Y-119820000D01*
X154222525Y-119863809D01*
G37*
G36*
X156762525Y-119863809D02*
G01*
X156969991Y-119949744D01*
X156969993Y-119949745D01*
X157156708Y-120074504D01*
X157315496Y-120233292D01*
X157440255Y-120420007D01*
X157440256Y-120420009D01*
X157526191Y-120627475D01*
X157570000Y-120847718D01*
X157570000Y-121072282D01*
X157526191Y-121292525D01*
X157488118Y-121384441D01*
X157440255Y-121499993D01*
X157315496Y-121686708D01*
X157156708Y-121845496D01*
X156969993Y-121970255D01*
X156969992Y-121970256D01*
X156969991Y-121970256D01*
X156762525Y-122056191D01*
X156542282Y-122100000D01*
X156317718Y-122100000D01*
X156097475Y-122056191D01*
X155890009Y-121970256D01*
X155890008Y-121970256D01*
X155890007Y-121970255D01*
X155703292Y-121845496D01*
X155544504Y-121686708D01*
X155419745Y-121499993D01*
X155371882Y-121384441D01*
X155333809Y-121292525D01*
X155290000Y-121072282D01*
X155290000Y-120847718D01*
X155333809Y-120627475D01*
X155419744Y-120420009D01*
X155419745Y-120420007D01*
X155544504Y-120233292D01*
X155703292Y-120074504D01*
X155890007Y-119949745D01*
X155890009Y-119949744D01*
X156097475Y-119863809D01*
X156317718Y-119820000D01*
X156542282Y-119820000D01*
X156762525Y-119863809D01*
G37*
G36*
X138982525Y-119863809D02*
G01*
X139189991Y-119949744D01*
X139189993Y-119949745D01*
X139376708Y-120074504D01*
X139535496Y-120233292D01*
X139660255Y-120420007D01*
X139660256Y-120420009D01*
X139746191Y-120627475D01*
X139790000Y-120847718D01*
X139790000Y-121072282D01*
X139746191Y-121292525D01*
X139708118Y-121384441D01*
X139660255Y-121499993D01*
X139535496Y-121686708D01*
X139376708Y-121845496D01*
X139189993Y-121970255D01*
X139189992Y-121970256D01*
X139189991Y-121970256D01*
X138982525Y-122056191D01*
X138762282Y-122100000D01*
X138537718Y-122100000D01*
X138317475Y-122056191D01*
X138110009Y-121970256D01*
X138110008Y-121970256D01*
X138110007Y-121970255D01*
X137923292Y-121845496D01*
X137764504Y-121686708D01*
X137639745Y-121499993D01*
X137591882Y-121384441D01*
X137553809Y-121292525D01*
X137510000Y-121072282D01*
X137510000Y-120847718D01*
X137553809Y-120627475D01*
X137639744Y-120420009D01*
X137639745Y-120420007D01*
X137764504Y-120233292D01*
X137923292Y-120074504D01*
X138110007Y-119949745D01*
X138110009Y-119949744D01*
X138317475Y-119863809D01*
X138537718Y-119820000D01*
X138762282Y-119820000D01*
X138982525Y-119863809D01*
G37*
G36*
X133902525Y-119863809D02*
G01*
X134109991Y-119949744D01*
X134109993Y-119949745D01*
X134296708Y-120074504D01*
X134455496Y-120233292D01*
X134580255Y-120420007D01*
X134580256Y-120420009D01*
X134666191Y-120627475D01*
X134710000Y-120847718D01*
X134710000Y-121072282D01*
X134666191Y-121292525D01*
X134628118Y-121384441D01*
X134580255Y-121499993D01*
X134455496Y-121686708D01*
X134296708Y-121845496D01*
X134109993Y-121970255D01*
X134109992Y-121970256D01*
X134109991Y-121970256D01*
X133902525Y-122056191D01*
X133682282Y-122100000D01*
X133457718Y-122100000D01*
X133237475Y-122056191D01*
X133030009Y-121970256D01*
X133030008Y-121970256D01*
X133030007Y-121970255D01*
X132843292Y-121845496D01*
X132684504Y-121686708D01*
X132559745Y-121499993D01*
X132511882Y-121384441D01*
X132473809Y-121292525D01*
X132430000Y-121072282D01*
X132430000Y-120847718D01*
X132473809Y-120627475D01*
X132559744Y-120420009D01*
X132559745Y-120420007D01*
X132684504Y-120233292D01*
X132843292Y-120074504D01*
X133030007Y-119949745D01*
X133030009Y-119949744D01*
X133237475Y-119863809D01*
X133457718Y-119820000D01*
X133682282Y-119820000D01*
X133902525Y-119863809D01*
G37*
G36*
X141522525Y-119863809D02*
G01*
X141729991Y-119949744D01*
X141729993Y-119949745D01*
X141916708Y-120074504D01*
X142075496Y-120233292D01*
X142200255Y-120420007D01*
X142200256Y-120420009D01*
X142286191Y-120627475D01*
X142330000Y-120847718D01*
X142330000Y-121072282D01*
X142286191Y-121292525D01*
X142248118Y-121384441D01*
X142200255Y-121499993D01*
X142075496Y-121686708D01*
X141916708Y-121845496D01*
X141729993Y-121970255D01*
X141729992Y-121970256D01*
X141729991Y-121970256D01*
X141522525Y-122056191D01*
X141302282Y-122100000D01*
X141077718Y-122100000D01*
X140857475Y-122056191D01*
X140650009Y-121970256D01*
X140650008Y-121970256D01*
X140650007Y-121970255D01*
X140463292Y-121845496D01*
X140304504Y-121686708D01*
X140179745Y-121499993D01*
X140131882Y-121384441D01*
X140093809Y-121292525D01*
X140050000Y-121072282D01*
X140050000Y-120847718D01*
X140093809Y-120627475D01*
X140179744Y-120420009D01*
X140179745Y-120420007D01*
X140304504Y-120233292D01*
X140463292Y-120074504D01*
X140650007Y-119949745D01*
X140650009Y-119949744D01*
X140857475Y-119863809D01*
X141077718Y-119820000D01*
X141302282Y-119820000D01*
X141522525Y-119863809D01*
G37*
G36*
X163150000Y-121650000D02*
G01*
X161950000Y-121650000D01*
X161950000Y-120350000D01*
X163150000Y-120350000D01*
X163150000Y-121650000D01*
G37*
G36*
X165050000Y-121650000D02*
G01*
X163850000Y-121650000D01*
X163850000Y-120350000D01*
X165050000Y-120350000D01*
X165050000Y-121650000D01*
G37*
G36*
X164100000Y-119650000D02*
G01*
X162900000Y-119650000D01*
X162900000Y-118350000D01*
X164100000Y-118350000D01*
X164100000Y-119650000D01*
G37*
G36*
X156762525Y-117323809D02*
G01*
X156961413Y-117406191D01*
X156969993Y-117409745D01*
X157156708Y-117534504D01*
X157315496Y-117693292D01*
X157440255Y-117880007D01*
X157440256Y-117880009D01*
X157526191Y-118087475D01*
X157570000Y-118307718D01*
X157570000Y-118532282D01*
X157526191Y-118752525D01*
X157440256Y-118959991D01*
X157440255Y-118959993D01*
X157315496Y-119146708D01*
X157156708Y-119305496D01*
X156969993Y-119430255D01*
X156969992Y-119430256D01*
X156969991Y-119430256D01*
X156762525Y-119516191D01*
X156542282Y-119560000D01*
X156317718Y-119560000D01*
X156097475Y-119516191D01*
X155890009Y-119430256D01*
X155890008Y-119430256D01*
X155890007Y-119430255D01*
X155703292Y-119305496D01*
X155544504Y-119146708D01*
X155419745Y-118959993D01*
X155419744Y-118959991D01*
X155333809Y-118752525D01*
X155290000Y-118532282D01*
X155290000Y-118307718D01*
X155333809Y-118087475D01*
X155419744Y-117880009D01*
X155419745Y-117880007D01*
X155544504Y-117693292D01*
X155703292Y-117534504D01*
X155890007Y-117409745D01*
X155898587Y-117406191D01*
X156097475Y-117323809D01*
X156317718Y-117280000D01*
X156542282Y-117280000D01*
X156762525Y-117323809D01*
G37*
G36*
X149142525Y-117323809D02*
G01*
X149341413Y-117406191D01*
X149349993Y-117409745D01*
X149536708Y-117534504D01*
X149695496Y-117693292D01*
X149820255Y-117880007D01*
X149820256Y-117880009D01*
X149906191Y-118087475D01*
X149950000Y-118307718D01*
X149950000Y-118532282D01*
X149906191Y-118752525D01*
X149820256Y-118959991D01*
X149820255Y-118959993D01*
X149695496Y-119146708D01*
X149536708Y-119305496D01*
X149349993Y-119430255D01*
X149349992Y-119430256D01*
X149349991Y-119430256D01*
X149142525Y-119516191D01*
X148922282Y-119560000D01*
X148697718Y-119560000D01*
X148477475Y-119516191D01*
X148270009Y-119430256D01*
X148270008Y-119430256D01*
X148270007Y-119430255D01*
X148083292Y-119305496D01*
X147924504Y-119146708D01*
X147799745Y-118959993D01*
X147799744Y-118959991D01*
X147713809Y-118752525D01*
X147670000Y-118532282D01*
X147670000Y-118307718D01*
X147713809Y-118087475D01*
X147799744Y-117880009D01*
X147799745Y-117880007D01*
X147924504Y-117693292D01*
X148083292Y-117534504D01*
X148270007Y-117409745D01*
X148278587Y-117406191D01*
X148477475Y-117323809D01*
X148697718Y-117280000D01*
X148922282Y-117280000D01*
X149142525Y-117323809D01*
G37*
G36*
X154222525Y-117323809D02*
G01*
X154421413Y-117406191D01*
X154429993Y-117409745D01*
X154616708Y-117534504D01*
X154775496Y-117693292D01*
X154900255Y-117880007D01*
X154900256Y-117880009D01*
X154986191Y-118087475D01*
X155030000Y-118307718D01*
X155030000Y-118532282D01*
X154986191Y-118752525D01*
X154900256Y-118959991D01*
X154900255Y-118959993D01*
X154775496Y-119146708D01*
X154616708Y-119305496D01*
X154429993Y-119430255D01*
X154429992Y-119430256D01*
X154429991Y-119430256D01*
X154222525Y-119516191D01*
X154002282Y-119560000D01*
X153777718Y-119560000D01*
X153557475Y-119516191D01*
X153350009Y-119430256D01*
X153350008Y-119430256D01*
X153350007Y-119430255D01*
X153163292Y-119305496D01*
X153004504Y-119146708D01*
X152879745Y-118959993D01*
X152879744Y-118959991D01*
X152793809Y-118752525D01*
X152750000Y-118532282D01*
X152750000Y-118307718D01*
X152793809Y-118087475D01*
X152879744Y-117880009D01*
X152879745Y-117880007D01*
X153004504Y-117693292D01*
X153163292Y-117534504D01*
X153350007Y-117409745D01*
X153358587Y-117406191D01*
X153557475Y-117323809D01*
X153777718Y-117280000D01*
X154002282Y-117280000D01*
X154222525Y-117323809D01*
G37*
G36*
X151682525Y-117323809D02*
G01*
X151881413Y-117406191D01*
X151889993Y-117409745D01*
X152076708Y-117534504D01*
X152235496Y-117693292D01*
X152360255Y-117880007D01*
X152360256Y-117880009D01*
X152446191Y-118087475D01*
X152490000Y-118307718D01*
X152490000Y-118532282D01*
X152446191Y-118752525D01*
X152360256Y-118959991D01*
X152360255Y-118959993D01*
X152235496Y-119146708D01*
X152076708Y-119305496D01*
X151889993Y-119430255D01*
X151889992Y-119430256D01*
X151889991Y-119430256D01*
X151682525Y-119516191D01*
X151462282Y-119560000D01*
X151237718Y-119560000D01*
X151017475Y-119516191D01*
X150810009Y-119430256D01*
X150810008Y-119430256D01*
X150810007Y-119430255D01*
X150623292Y-119305496D01*
X150464504Y-119146708D01*
X150339745Y-118959993D01*
X150339744Y-118959991D01*
X150253809Y-118752525D01*
X150210000Y-118532282D01*
X150210000Y-118307718D01*
X150253809Y-118087475D01*
X150339744Y-117880009D01*
X150339745Y-117880007D01*
X150464504Y-117693292D01*
X150623292Y-117534504D01*
X150810007Y-117409745D01*
X150818587Y-117406191D01*
X151017475Y-117323809D01*
X151237718Y-117280000D01*
X151462282Y-117280000D01*
X151682525Y-117323809D01*
G37*
G36*
X146602525Y-117323809D02*
G01*
X146801413Y-117406191D01*
X146809993Y-117409745D01*
X146996708Y-117534504D01*
X147155496Y-117693292D01*
X147280255Y-117880007D01*
X147280256Y-117880009D01*
X147366191Y-118087475D01*
X147410000Y-118307718D01*
X147410000Y-118532282D01*
X147366191Y-118752525D01*
X147280256Y-118959991D01*
X147280255Y-118959993D01*
X147155496Y-119146708D01*
X146996708Y-119305496D01*
X146809993Y-119430255D01*
X146809992Y-119430256D01*
X146809991Y-119430256D01*
X146602525Y-119516191D01*
X146382282Y-119560000D01*
X146157718Y-119560000D01*
X145937475Y-119516191D01*
X145730009Y-119430256D01*
X145730008Y-119430256D01*
X145730007Y-119430255D01*
X145543292Y-119305496D01*
X145384504Y-119146708D01*
X145259745Y-118959993D01*
X145259744Y-118959991D01*
X145173809Y-118752525D01*
X145130000Y-118532282D01*
X145130000Y-118307718D01*
X145173809Y-118087475D01*
X145259744Y-117880009D01*
X145259745Y-117880007D01*
X145384504Y-117693292D01*
X145543292Y-117534504D01*
X145730007Y-117409745D01*
X145738587Y-117406191D01*
X145937475Y-117323809D01*
X146157718Y-117280000D01*
X146382282Y-117280000D01*
X146602525Y-117323809D01*
G37*
G36*
X136442525Y-117323809D02*
G01*
X136641413Y-117406191D01*
X136649993Y-117409745D01*
X136836708Y-117534504D01*
X136995496Y-117693292D01*
X137120255Y-117880007D01*
X137120256Y-117880009D01*
X137206191Y-118087475D01*
X137250000Y-118307718D01*
X137250000Y-118532282D01*
X137206191Y-118752525D01*
X137120256Y-118959991D01*
X137120255Y-118959993D01*
X136995496Y-119146708D01*
X136836708Y-119305496D01*
X136649993Y-119430255D01*
X136649992Y-119430256D01*
X136649991Y-119430256D01*
X136442525Y-119516191D01*
X136222282Y-119560000D01*
X135997718Y-119560000D01*
X135777475Y-119516191D01*
X135570009Y-119430256D01*
X135570008Y-119430256D01*
X135570007Y-119430255D01*
X135383292Y-119305496D01*
X135224504Y-119146708D01*
X135099745Y-118959993D01*
X135099744Y-118959991D01*
X135013809Y-118752525D01*
X134970000Y-118532282D01*
X134970000Y-118307718D01*
X135013809Y-118087475D01*
X135099744Y-117880009D01*
X135099745Y-117880007D01*
X135224504Y-117693292D01*
X135383292Y-117534504D01*
X135570007Y-117409745D01*
X135578587Y-117406191D01*
X135777475Y-117323809D01*
X135997718Y-117280000D01*
X136222282Y-117280000D01*
X136442525Y-117323809D01*
G37*
G36*
X138982525Y-117323809D02*
G01*
X139181413Y-117406191D01*
X139189993Y-117409745D01*
X139376708Y-117534504D01*
X139535496Y-117693292D01*
X139660255Y-117880007D01*
X139660256Y-117880009D01*
X139746191Y-118087475D01*
X139790000Y-118307718D01*
X139790000Y-118532282D01*
X139746191Y-118752525D01*
X139660256Y-118959991D01*
X139660255Y-118959993D01*
X139535496Y-119146708D01*
X139376708Y-119305496D01*
X139189993Y-119430255D01*
X139189992Y-119430256D01*
X139189991Y-119430256D01*
X138982525Y-119516191D01*
X138762282Y-119560000D01*
X138537718Y-119560000D01*
X138317475Y-119516191D01*
X138110009Y-119430256D01*
X138110008Y-119430256D01*
X138110007Y-119430255D01*
X137923292Y-119305496D01*
X137764504Y-119146708D01*
X137639745Y-118959993D01*
X137639744Y-118959991D01*
X137553809Y-118752525D01*
X137510000Y-118532282D01*
X137510000Y-118307718D01*
X137553809Y-118087475D01*
X137639744Y-117880009D01*
X137639745Y-117880007D01*
X137764504Y-117693292D01*
X137923292Y-117534504D01*
X138110007Y-117409745D01*
X138118587Y-117406191D01*
X138317475Y-117323809D01*
X138537718Y-117280000D01*
X138762282Y-117280000D01*
X138982525Y-117323809D01*
G37*
G36*
X141522525Y-117323809D02*
G01*
X141721413Y-117406191D01*
X141729993Y-117409745D01*
X141916708Y-117534504D01*
X142075496Y-117693292D01*
X142200255Y-117880007D01*
X142200256Y-117880009D01*
X142286191Y-118087475D01*
X142330000Y-118307718D01*
X142330000Y-118532282D01*
X142286191Y-118752525D01*
X142200256Y-118959991D01*
X142200255Y-118959993D01*
X142075496Y-119146708D01*
X141916708Y-119305496D01*
X141729993Y-119430255D01*
X141729992Y-119430256D01*
X141729991Y-119430256D01*
X141522525Y-119516191D01*
X141302282Y-119560000D01*
X141077718Y-119560000D01*
X140857475Y-119516191D01*
X140650009Y-119430256D01*
X140650008Y-119430256D01*
X140650007Y-119430255D01*
X140463292Y-119305496D01*
X140304504Y-119146708D01*
X140179745Y-118959993D01*
X140179744Y-118959991D01*
X140093809Y-118752525D01*
X140050000Y-118532282D01*
X140050000Y-118307718D01*
X140093809Y-118087475D01*
X140179744Y-117880009D01*
X140179745Y-117880007D01*
X140304504Y-117693292D01*
X140463292Y-117534504D01*
X140650007Y-117409745D01*
X140658587Y-117406191D01*
X140857475Y-117323809D01*
X141077718Y-117280000D01*
X141302282Y-117280000D01*
X141522525Y-117323809D01*
G37*
G36*
X144062525Y-117323809D02*
G01*
X144261413Y-117406191D01*
X144269993Y-117409745D01*
X144456708Y-117534504D01*
X144615496Y-117693292D01*
X144740255Y-117880007D01*
X144740256Y-117880009D01*
X144826191Y-118087475D01*
X144870000Y-118307718D01*
X144870000Y-118532282D01*
X144826191Y-118752525D01*
X144740256Y-118959991D01*
X144740255Y-118959993D01*
X144615496Y-119146708D01*
X144456708Y-119305496D01*
X144269993Y-119430255D01*
X144269992Y-119430256D01*
X144269991Y-119430256D01*
X144062525Y-119516191D01*
X143842282Y-119560000D01*
X143617718Y-119560000D01*
X143397475Y-119516191D01*
X143190009Y-119430256D01*
X143190008Y-119430256D01*
X143190007Y-119430255D01*
X143003292Y-119305496D01*
X142844504Y-119146708D01*
X142719745Y-118959993D01*
X142719744Y-118959991D01*
X142633809Y-118752525D01*
X142590000Y-118532282D01*
X142590000Y-118307718D01*
X142633809Y-118087475D01*
X142719744Y-117880009D01*
X142719745Y-117880007D01*
X142844504Y-117693292D01*
X143003292Y-117534504D01*
X143190007Y-117409745D01*
X143198587Y-117406191D01*
X143397475Y-117323809D01*
X143617718Y-117280000D01*
X143842282Y-117280000D01*
X144062525Y-117323809D01*
G37*
G36*
X133902525Y-117323809D02*
G01*
X134101413Y-117406191D01*
X134109993Y-117409745D01*
X134296708Y-117534504D01*
X134455496Y-117693292D01*
X134580255Y-117880007D01*
X134580256Y-117880009D01*
X134666191Y-118087475D01*
X134710000Y-118307718D01*
X134710000Y-118532282D01*
X134666191Y-118752525D01*
X134580256Y-118959991D01*
X134580255Y-118959993D01*
X134455496Y-119146708D01*
X134296708Y-119305496D01*
X134109993Y-119430255D01*
X134109992Y-119430256D01*
X134109991Y-119430256D01*
X133902525Y-119516191D01*
X133682282Y-119560000D01*
X133457718Y-119560000D01*
X133237475Y-119516191D01*
X133030009Y-119430256D01*
X133030008Y-119430256D01*
X133030007Y-119430255D01*
X132843292Y-119305496D01*
X132684504Y-119146708D01*
X132559745Y-118959993D01*
X132559744Y-118959991D01*
X132473809Y-118752525D01*
X132430000Y-118532282D01*
X132430000Y-118307718D01*
X132473809Y-118087475D01*
X132559744Y-117880009D01*
X132559745Y-117880007D01*
X132684504Y-117693292D01*
X132843292Y-117534504D01*
X133030007Y-117409745D01*
X133038587Y-117406191D01*
X133237475Y-117323809D01*
X133457718Y-117280000D01*
X133682282Y-117280000D01*
X133902525Y-117323809D01*
G37*
G36*
X131200000Y-119000000D02*
G01*
X128600000Y-119000000D01*
X128600000Y-117400000D01*
X131200000Y-117400000D01*
X131200000Y-119000000D01*
G37*
G36*
X126832525Y-115213809D02*
G01*
X127039991Y-115299744D01*
X127039993Y-115299745D01*
X127226708Y-115424504D01*
X127385496Y-115583292D01*
X127510255Y-115770007D01*
X127510256Y-115770009D01*
X127596191Y-115977475D01*
X127640000Y-116197718D01*
X127640000Y-116422282D01*
X127596191Y-116642525D01*
X127510256Y-116849991D01*
X127510255Y-116849993D01*
X127385496Y-117036708D01*
X127226708Y-117195496D01*
X127039993Y-117320255D01*
X127039992Y-117320256D01*
X127039991Y-117320256D01*
X126832525Y-117406191D01*
X126612282Y-117450000D01*
X126387718Y-117450000D01*
X126167475Y-117406191D01*
X125960009Y-117320256D01*
X125960008Y-117320256D01*
X125960007Y-117320255D01*
X125773292Y-117195496D01*
X125614504Y-117036708D01*
X125489745Y-116849993D01*
X125489744Y-116849991D01*
X125403809Y-116642525D01*
X125360000Y-116422282D01*
X125360000Y-116197718D01*
X125403809Y-115977475D01*
X125489744Y-115770009D01*
X125489745Y-115770007D01*
X125614504Y-115583292D01*
X125773292Y-115424504D01*
X125960007Y-115299745D01*
X125960009Y-115299744D01*
X126167475Y-115213809D01*
X126387718Y-115170000D01*
X126612282Y-115170000D01*
X126832525Y-115213809D01*
G37*
G36*
X172900000Y-113975001D02*
G01*
X172902402Y-113999387D01*
X172909515Y-114022836D01*
X172921066Y-114044447D01*
X172936611Y-114063389D01*
X172955553Y-114078934D01*
X172977164Y-114090485D01*
X173000613Y-114097598D01*
X173024999Y-114100000D01*
X173800000Y-114100000D01*
X173800000Y-115500000D01*
X173024999Y-115500000D01*
X173000613Y-115502402D01*
X172977164Y-115509515D01*
X172955553Y-115521066D01*
X172936611Y-115536611D01*
X172921066Y-115555553D01*
X172909515Y-115577164D01*
X172902402Y-115600613D01*
X172900000Y-115624999D01*
X172900000Y-117000000D01*
X170300000Y-117000000D01*
X170300000Y-115624999D01*
X170297598Y-115600613D01*
X170290485Y-115577164D01*
X170278934Y-115555553D01*
X170263389Y-115536611D01*
X170244447Y-115521066D01*
X170222836Y-115509515D01*
X170199387Y-115502402D01*
X170175001Y-115500000D01*
X169400000Y-115500000D01*
X169400000Y-114174999D01*
X170800000Y-114174999D01*
X170800000Y-115425001D01*
X170802402Y-115449387D01*
X170809515Y-115472836D01*
X170821066Y-115494447D01*
X170836611Y-115513389D01*
X170855553Y-115528934D01*
X170877164Y-115540485D01*
X170900613Y-115547598D01*
X170924999Y-115550000D01*
X172275001Y-115550000D01*
X172299387Y-115547598D01*
X172322836Y-115540485D01*
X172344447Y-115528934D01*
X172363389Y-115513389D01*
X172378934Y-115494447D01*
X172390485Y-115472836D01*
X172397598Y-115449387D01*
X172400000Y-115425001D01*
X172400000Y-114174999D01*
X172397598Y-114150613D01*
X172390485Y-114127164D01*
X172378934Y-114105553D01*
X172363389Y-114086611D01*
X172344447Y-114071066D01*
X172322836Y-114059515D01*
X172299387Y-114052402D01*
X172275001Y-114050000D01*
X170924999Y-114050000D01*
X170900613Y-114052402D01*
X170877164Y-114059515D01*
X170855553Y-114071066D01*
X170836611Y-114086611D01*
X170821066Y-114105553D01*
X170809515Y-114127164D01*
X170802402Y-114150613D01*
X170800000Y-114174999D01*
X169400000Y-114174999D01*
X169400000Y-114100000D01*
X170175001Y-114100000D01*
X170199387Y-114097598D01*
X170222836Y-114090485D01*
X170244447Y-114078934D01*
X170263389Y-114063389D01*
X170278934Y-114044447D01*
X170290485Y-114022836D01*
X170297598Y-113999387D01*
X170300000Y-113975001D01*
X170300000Y-112600000D01*
X172900000Y-112600000D01*
X172900000Y-113975001D01*
G37*
G36*
X168500000Y-116850000D02*
G01*
X167500000Y-116850000D01*
X167500000Y-115150000D01*
X168500000Y-115150000D01*
X168500000Y-116850000D01*
G37*
G36*
X139850000Y-116600000D02*
G01*
X138350000Y-116600000D01*
X138350000Y-115200000D01*
X139850000Y-115200000D01*
X139850000Y-116600000D01*
G37*
G36*
X134450000Y-116600000D02*
G01*
X132950000Y-116600000D01*
X132950000Y-115200000D01*
X134450000Y-115200000D01*
X134450000Y-116600000D01*
G37*
G36*
X138050000Y-116600000D02*
G01*
X136550000Y-116600000D01*
X136550000Y-115200000D01*
X138050000Y-115200000D01*
X138050000Y-116600000D01*
G37*
G36*
X132650000Y-116600000D02*
G01*
X131150000Y-116600000D01*
X131150000Y-115200000D01*
X132650000Y-115200000D01*
X132650000Y-116600000D01*
G37*
G36*
X154600000Y-116500000D02*
G01*
X152400000Y-116500000D01*
X152400000Y-110900000D01*
X154600000Y-110900000D01*
X154600000Y-116500000D01*
G37*
G36*
X166600000Y-116500000D02*
G01*
X164400000Y-116500000D01*
X164400000Y-110900000D01*
X166600000Y-110900000D01*
X166600000Y-116500000D01*
G37*
G36*
X150350000Y-116375000D02*
G01*
X143650000Y-116375000D01*
X143650000Y-114525000D01*
X150350000Y-114525000D01*
X150350000Y-116375000D01*
G37*
G36*
X126832525Y-112673809D02*
G01*
X127039991Y-112759744D01*
X127039993Y-112759745D01*
X127226708Y-112884504D01*
X127385496Y-113043292D01*
X127423387Y-113100000D01*
X127510256Y-113230009D01*
X127596191Y-113437475D01*
X127640000Y-113657718D01*
X127640000Y-113882282D01*
X127596191Y-114102525D01*
X127514394Y-114300000D01*
X127510255Y-114309993D01*
X127385496Y-114496708D01*
X127226708Y-114655496D01*
X127039993Y-114780255D01*
X127039992Y-114780256D01*
X127039991Y-114780256D01*
X126832525Y-114866191D01*
X126612282Y-114910000D01*
X126387718Y-114910000D01*
X126167475Y-114866191D01*
X125960009Y-114780256D01*
X125960008Y-114780256D01*
X125960007Y-114780255D01*
X125773292Y-114655496D01*
X125614504Y-114496708D01*
X125489745Y-114309993D01*
X125485606Y-114300000D01*
X125403809Y-114102525D01*
X125360000Y-113882282D01*
X125360000Y-113657718D01*
X125403809Y-113437475D01*
X125489744Y-113230009D01*
X125576613Y-113100000D01*
X125614504Y-113043292D01*
X125773292Y-112884504D01*
X125960007Y-112759745D01*
X125960009Y-112759744D01*
X126167475Y-112673809D01*
X126387718Y-112630000D01*
X126612282Y-112630000D01*
X126832525Y-112673809D01*
G37*
G36*
X134450000Y-114900000D02*
G01*
X132950000Y-114900000D01*
X132950000Y-113500000D01*
X134450000Y-113500000D01*
X134450000Y-114900000D01*
G37*
G36*
X132650000Y-114900000D02*
G01*
X131150000Y-114900000D01*
X131150000Y-113500000D01*
X132650000Y-113500000D01*
X132650000Y-114900000D01*
G37*
G36*
X138050000Y-114900000D02*
G01*
X136550000Y-114900000D01*
X136550000Y-113500000D01*
X138050000Y-113500000D01*
X138050000Y-114900000D01*
G37*
G36*
X139850000Y-114900000D02*
G01*
X138350000Y-114900000D01*
X138350000Y-113500000D01*
X139850000Y-113500000D01*
X139850000Y-114900000D01*
G37*
G36*
X168500000Y-114450000D02*
G01*
X167500000Y-114450000D01*
X167500000Y-112750000D01*
X168500000Y-112750000D01*
X168500000Y-114450000D01*
G37*
G36*
X132425000Y-113230000D02*
G01*
X131375000Y-113230000D01*
X131375000Y-111770000D01*
X132425000Y-111770000D01*
X132425000Y-113230000D01*
G37*
G36*
X139725000Y-113230000D02*
G01*
X138675000Y-113230000D01*
X138675000Y-111770000D01*
X139725000Y-111770000D01*
X139725000Y-113230000D01*
G37*
G36*
X134325000Y-113230000D02*
G01*
X133275000Y-113230000D01*
X133275000Y-111770000D01*
X134325000Y-111770000D01*
X134325000Y-113230000D01*
G37*
G36*
X137825000Y-113230000D02*
G01*
X136775000Y-113230000D01*
X136775000Y-111770000D01*
X137825000Y-111770000D01*
X137825000Y-113230000D01*
G37*
G36*
X130800000Y-112850000D02*
G01*
X129400000Y-112850000D01*
X129400000Y-111350000D01*
X130800000Y-111350000D01*
X130800000Y-112850000D01*
G37*
G36*
X136200000Y-112850000D02*
G01*
X134800000Y-112850000D01*
X134800000Y-111350000D01*
X136200000Y-111350000D01*
X136200000Y-112850000D01*
G37*
G36*
X126832525Y-110133809D02*
G01*
X127039991Y-110219744D01*
X127039993Y-110219745D01*
X127226708Y-110344504D01*
X127385496Y-110503292D01*
X127450114Y-110600000D01*
X127510256Y-110690009D01*
X127596191Y-110897475D01*
X127640000Y-111117718D01*
X127640000Y-111342282D01*
X127596191Y-111562525D01*
X127510256Y-111769991D01*
X127510255Y-111769993D01*
X127385496Y-111956708D01*
X127226708Y-112115496D01*
X127039993Y-112240255D01*
X127039992Y-112240256D01*
X127039991Y-112240256D01*
X126832525Y-112326191D01*
X126612282Y-112370000D01*
X126387718Y-112370000D01*
X126167475Y-112326191D01*
X125960009Y-112240256D01*
X125960008Y-112240256D01*
X125960007Y-112240255D01*
X125773292Y-112115496D01*
X125614504Y-111956708D01*
X125489745Y-111769993D01*
X125489744Y-111769991D01*
X125403809Y-111562525D01*
X125360000Y-111342282D01*
X125360000Y-111117718D01*
X125403809Y-110897475D01*
X125489744Y-110690009D01*
X125549886Y-110600000D01*
X125614504Y-110503292D01*
X125773292Y-110344504D01*
X125960007Y-110219745D01*
X125960009Y-110219744D01*
X126167475Y-110133809D01*
X126387718Y-110090000D01*
X126612282Y-110090000D01*
X126832525Y-110133809D01*
G37*
G36*
X170350000Y-112300000D02*
G01*
X168850000Y-112300000D01*
X168850000Y-110900000D01*
X170350000Y-110900000D01*
X170350000Y-112300000D01*
G37*
G36*
X168550000Y-112300000D02*
G01*
X167050000Y-112300000D01*
X167050000Y-110900000D01*
X168550000Y-110900000D01*
X168550000Y-112300000D01*
G37*
G36*
X130800000Y-111050000D02*
G01*
X129400000Y-111050000D01*
X129400000Y-109550000D01*
X130800000Y-109550000D01*
X130800000Y-111050000D01*
G37*
G36*
X136200000Y-111050000D02*
G01*
X134800000Y-111050000D01*
X134800000Y-109550000D01*
X136200000Y-109550000D01*
X136200000Y-111050000D01*
G37*
G36*
X134325000Y-111030000D02*
G01*
X131375000Y-111030000D01*
X131375000Y-109570000D01*
X134325000Y-109570000D01*
X134325000Y-111030000D01*
G37*
G36*
X139725000Y-111030000D02*
G01*
X136775000Y-111030000D01*
X136775000Y-109570000D01*
X139725000Y-109570000D01*
X139725000Y-111030000D01*
G37*
G36*
X170350000Y-110600000D02*
G01*
X168850000Y-110600000D01*
X168850000Y-109200000D01*
X170350000Y-109200000D01*
X170350000Y-110600000D01*
G37*
G36*
X168550000Y-110600000D02*
G01*
X167050000Y-110600000D01*
X167050000Y-109200000D01*
X168550000Y-109200000D01*
X168550000Y-110600000D01*
G37*
G36*
X150350000Y-110475000D02*
G01*
X143650000Y-110475000D01*
X143650000Y-108625000D01*
X150350000Y-108625000D01*
X150350000Y-110475000D01*
G37*
G36*
X126832525Y-107593809D02*
G01*
X127039991Y-107679744D01*
X127039993Y-107679745D01*
X127226708Y-107804504D01*
X127385496Y-107963292D01*
X127510255Y-108150007D01*
X127510256Y-108150009D01*
X127596191Y-108357475D01*
X127640000Y-108577718D01*
X127640000Y-108802282D01*
X127596191Y-109022525D01*
X127510256Y-109229991D01*
X127510255Y-109229993D01*
X127385496Y-109416708D01*
X127226708Y-109575496D01*
X127039993Y-109700255D01*
X127039992Y-109700256D01*
X127039991Y-109700256D01*
X126832525Y-109786191D01*
X126612282Y-109830000D01*
X126387718Y-109830000D01*
X126167475Y-109786191D01*
X125960009Y-109700256D01*
X125960008Y-109700256D01*
X125960007Y-109700255D01*
X125773292Y-109575496D01*
X125614504Y-109416708D01*
X125489745Y-109229993D01*
X125489744Y-109229991D01*
X125403809Y-109022525D01*
X125360000Y-108802282D01*
X125360000Y-108577718D01*
X125403809Y-108357475D01*
X125489744Y-108150009D01*
X125489745Y-108150007D01*
X125614504Y-107963292D01*
X125773292Y-107804504D01*
X125960007Y-107679745D01*
X125960009Y-107679744D01*
X126167475Y-107593809D01*
X126387718Y-107550000D01*
X126612282Y-107550000D01*
X126832525Y-107593809D01*
G37*
G36*
X130850000Y-109300000D02*
G01*
X129350000Y-109300000D01*
X129350000Y-107900000D01*
X130850000Y-107900000D01*
X130850000Y-109300000D01*
G37*
G36*
X132650000Y-109300000D02*
G01*
X131150000Y-109300000D01*
X131150000Y-107900000D01*
X132650000Y-107900000D01*
X132650000Y-109300000D01*
G37*
G36*
X138050000Y-109300000D02*
G01*
X136550000Y-109300000D01*
X136550000Y-107900000D01*
X138050000Y-107900000D01*
X138050000Y-109300000D01*
G37*
G36*
X139850000Y-109300000D02*
G01*
X138350000Y-109300000D01*
X138350000Y-107900000D01*
X139850000Y-107900000D01*
X139850000Y-109300000D01*
G37*
G36*
X154600000Y-109100000D02*
G01*
X152400000Y-109100000D01*
X152400000Y-101300000D01*
X154600000Y-101300000D01*
X154600000Y-109100000D01*
G37*
G36*
X166600000Y-109100000D02*
G01*
X164400000Y-109100000D01*
X164400000Y-101300000D01*
X166600000Y-101300000D01*
X166600000Y-109100000D01*
G37*
G36*
X140400000Y-106350000D02*
G01*
X139000000Y-106350000D01*
X139000000Y-104850000D01*
X140400000Y-104850000D01*
X140400000Y-106350000D01*
G37*
G36*
X138600000Y-106350000D02*
G01*
X137200000Y-106350000D01*
X137200000Y-104850000D01*
X138600000Y-104850000D01*
X138600000Y-106350000D01*
G37*
G36*
X135150000Y-106300000D02*
G01*
X133650000Y-106300000D01*
X133650000Y-104900000D01*
X135150000Y-104900000D01*
X135150000Y-106300000D01*
G37*
G36*
X136950000Y-106300000D02*
G01*
X135450000Y-106300000D01*
X135450000Y-104900000D01*
X136950000Y-104900000D01*
X136950000Y-106300000D01*
G37*
G36*
X126832525Y-103943809D02*
G01*
X127039991Y-104029744D01*
X127039993Y-104029745D01*
X127226708Y-104154504D01*
X127385496Y-104313292D01*
X127510255Y-104500007D01*
X127510256Y-104500009D01*
X127596191Y-104707475D01*
X127640000Y-104927718D01*
X127640000Y-105152282D01*
X127596191Y-105372525D01*
X127528185Y-105536707D01*
X127510255Y-105579993D01*
X127385496Y-105766708D01*
X127226708Y-105925496D01*
X127039993Y-106050255D01*
X127039992Y-106050256D01*
X127039991Y-106050256D01*
X126832525Y-106136191D01*
X126612282Y-106180000D01*
X126387718Y-106180000D01*
X126167475Y-106136191D01*
X125960009Y-106050256D01*
X125960008Y-106050256D01*
X125960007Y-106050255D01*
X125773292Y-105925496D01*
X125614504Y-105766708D01*
X125489745Y-105579993D01*
X125471815Y-105536707D01*
X125403809Y-105372525D01*
X125360000Y-105152282D01*
X125360000Y-104927718D01*
X125403809Y-104707475D01*
X125489744Y-104500009D01*
X125489745Y-104500007D01*
X125614504Y-104313292D01*
X125773292Y-104154504D01*
X125960007Y-104029745D01*
X125960009Y-104029744D01*
X126167475Y-103943809D01*
X126387718Y-103900000D01*
X126612282Y-103900000D01*
X126832525Y-103943809D01*
G37*
G36*
X173832525Y-103713809D02*
G01*
X174039991Y-103799744D01*
X174039993Y-103799745D01*
X174226708Y-103924504D01*
X174385496Y-104083292D01*
X174433078Y-104154504D01*
X174510256Y-104270009D01*
X174596191Y-104477475D01*
X174640000Y-104697718D01*
X174640000Y-104922282D01*
X174596191Y-105142525D01*
X174510256Y-105349991D01*
X174510255Y-105349993D01*
X174385496Y-105536708D01*
X174226708Y-105695496D01*
X174039993Y-105820255D01*
X174039992Y-105820256D01*
X174039991Y-105820256D01*
X173832525Y-105906191D01*
X173612282Y-105950000D01*
X173387718Y-105950000D01*
X173167475Y-105906191D01*
X172960009Y-105820256D01*
X172960008Y-105820256D01*
X172960007Y-105820255D01*
X172773292Y-105695496D01*
X172614504Y-105536708D01*
X172489745Y-105349993D01*
X172489744Y-105349991D01*
X172403809Y-105142525D01*
X172360000Y-104922282D01*
X172360000Y-104697718D01*
X172403809Y-104477475D01*
X172489744Y-104270009D01*
X172566922Y-104154504D01*
X172614504Y-104083292D01*
X172773292Y-103924504D01*
X172960007Y-103799745D01*
X172960009Y-103799744D01*
X173167475Y-103713809D01*
X173387718Y-103670000D01*
X173612282Y-103670000D01*
X173832525Y-103713809D01*
G37*
G36*
X143400000Y-104950000D02*
G01*
X142000000Y-104950000D01*
X142000000Y-103450000D01*
X143400000Y-103450000D01*
X143400000Y-104950000D01*
G37*
G36*
X140400000Y-104550000D02*
G01*
X139000000Y-104550000D01*
X139000000Y-103050000D01*
X140400000Y-103050000D01*
X140400000Y-104550000D01*
G37*
G36*
X138600000Y-104550000D02*
G01*
X137200000Y-104550000D01*
X137200000Y-103050000D01*
X138600000Y-103050000D01*
X138600000Y-104550000D01*
G37*
G36*
X126832525Y-101403809D02*
G01*
X127039991Y-101489744D01*
X127039993Y-101489745D01*
X127226708Y-101614504D01*
X127385496Y-101773292D01*
X127510255Y-101960007D01*
X127510256Y-101960009D01*
X127596191Y-102167475D01*
X127640000Y-102387718D01*
X127640000Y-102612282D01*
X127596191Y-102832525D01*
X127528185Y-102996707D01*
X127510255Y-103039993D01*
X127385496Y-103226708D01*
X127226708Y-103385496D01*
X127039993Y-103510255D01*
X127039992Y-103510256D01*
X127039991Y-103510256D01*
X126832525Y-103596191D01*
X126612282Y-103640000D01*
X126387718Y-103640000D01*
X126167475Y-103596191D01*
X125960009Y-103510256D01*
X125960008Y-103510256D01*
X125960007Y-103510255D01*
X125773292Y-103385496D01*
X125614504Y-103226708D01*
X125489745Y-103039993D01*
X125471815Y-102996707D01*
X125403809Y-102832525D01*
X125360000Y-102612282D01*
X125360000Y-102387718D01*
X125403809Y-102167475D01*
X125489744Y-101960009D01*
X125489745Y-101960007D01*
X125614504Y-101773292D01*
X125773292Y-101614504D01*
X125960007Y-101489745D01*
X125960009Y-101489744D01*
X126167475Y-101403809D01*
X126387718Y-101360000D01*
X126612282Y-101360000D01*
X126832525Y-101403809D01*
G37*
G36*
X173832525Y-101173809D02*
G01*
X174039991Y-101259744D01*
X174039993Y-101259745D01*
X174226708Y-101384504D01*
X174385496Y-101543292D01*
X174433078Y-101614504D01*
X174510256Y-101730009D01*
X174596191Y-101937475D01*
X174640000Y-102157718D01*
X174640000Y-102382282D01*
X174596191Y-102602525D01*
X174510256Y-102809991D01*
X174510255Y-102809993D01*
X174385496Y-102996708D01*
X174226708Y-103155496D01*
X174039993Y-103280255D01*
X174039992Y-103280256D01*
X174039991Y-103280256D01*
X173832525Y-103366191D01*
X173612282Y-103410000D01*
X173387718Y-103410000D01*
X173167475Y-103366191D01*
X172960009Y-103280256D01*
X172960008Y-103280256D01*
X172960007Y-103280255D01*
X172773292Y-103155496D01*
X172614504Y-102996708D01*
X172489745Y-102809993D01*
X172489744Y-102809991D01*
X172403809Y-102602525D01*
X172360000Y-102382282D01*
X172360000Y-102157718D01*
X172403809Y-101937475D01*
X172489744Y-101730009D01*
X172566922Y-101614504D01*
X172614504Y-101543292D01*
X172773292Y-101384504D01*
X172960007Y-101259745D01*
X172960009Y-101259744D01*
X173167475Y-101173809D01*
X173387718Y-101130000D01*
X173612282Y-101130000D01*
X173832525Y-101173809D01*
G37*
G36*
X147925000Y-99050001D02*
G01*
X147927402Y-99074387D01*
X147934515Y-99097836D01*
X147946066Y-99119447D01*
X147961611Y-99138389D01*
X147980553Y-99153934D01*
X148002164Y-99165485D01*
X148025613Y-99172598D01*
X148049999Y-99175000D01*
X148875000Y-99175000D01*
X148875000Y-102425000D01*
X148049999Y-102425000D01*
X148025613Y-102427402D01*
X148002164Y-102434515D01*
X147980553Y-102446066D01*
X147961611Y-102461611D01*
X147946066Y-102480553D01*
X147934515Y-102502164D01*
X147927402Y-102525613D01*
X147925000Y-102549999D01*
X147925000Y-103375000D01*
X144675000Y-103375000D01*
X144675000Y-102549999D01*
X144672598Y-102525613D01*
X144665485Y-102502164D01*
X144653934Y-102480553D01*
X144638389Y-102461611D01*
X144619447Y-102446066D01*
X144597836Y-102434515D01*
X144574387Y-102427402D01*
X144550001Y-102425000D01*
X143725000Y-102425000D01*
X143725000Y-99175000D01*
X144550001Y-99175000D01*
X144574387Y-99172598D01*
X144597836Y-99165485D01*
X144619447Y-99153934D01*
X144638389Y-99138389D01*
X144653934Y-99119447D01*
X144665485Y-99097836D01*
X144672598Y-99074387D01*
X144675000Y-99050001D01*
X144675000Y-98225000D01*
X147925000Y-98225000D01*
X147925000Y-99050001D01*
G37*
G36*
X143400000Y-103150000D02*
G01*
X142000000Y-103150000D01*
X142000000Y-101650000D01*
X143400000Y-101650000D01*
X143400000Y-103150000D01*
G37*
G36*
X126832525Y-98863809D02*
G01*
X127039991Y-98949744D01*
X127039993Y-98949745D01*
X127226708Y-99074504D01*
X127385496Y-99233292D01*
X127510255Y-99420007D01*
X127510256Y-99420009D01*
X127596191Y-99627475D01*
X127640000Y-99847718D01*
X127640000Y-100072282D01*
X127596191Y-100292525D01*
X127541318Y-100425000D01*
X127510255Y-100499993D01*
X127385496Y-100686708D01*
X127226708Y-100845496D01*
X127039993Y-100970255D01*
X127039992Y-100970256D01*
X127039991Y-100970256D01*
X126832525Y-101056191D01*
X126612282Y-101100000D01*
X126387718Y-101100000D01*
X126167475Y-101056191D01*
X125960009Y-100970256D01*
X125960008Y-100970256D01*
X125960007Y-100970255D01*
X125773292Y-100845496D01*
X125614504Y-100686708D01*
X125489745Y-100499993D01*
X125458682Y-100425000D01*
X125403809Y-100292525D01*
X125360000Y-100072282D01*
X125360000Y-99847718D01*
X125403809Y-99627475D01*
X125489744Y-99420009D01*
X125489745Y-99420007D01*
X125614504Y-99233292D01*
X125773292Y-99074504D01*
X125960007Y-98949745D01*
X125960009Y-98949744D01*
X126167475Y-98863809D01*
X126387718Y-98820000D01*
X126612282Y-98820000D01*
X126832525Y-98863809D01*
G37*
G36*
X173832525Y-98633809D02*
G01*
X174039991Y-98719744D01*
X174039993Y-98719745D01*
X174226708Y-98844504D01*
X174385496Y-99003292D01*
X174510255Y-99190007D01*
X174510256Y-99190009D01*
X174596191Y-99397475D01*
X174640000Y-99617718D01*
X174640000Y-99842282D01*
X174596191Y-100062525D01*
X174549602Y-100175000D01*
X174510255Y-100269993D01*
X174385496Y-100456708D01*
X174226708Y-100615496D01*
X174039993Y-100740255D01*
X174039992Y-100740256D01*
X174039991Y-100740256D01*
X173832525Y-100826191D01*
X173612282Y-100870000D01*
X173387718Y-100870000D01*
X173167475Y-100826191D01*
X172960009Y-100740256D01*
X172960008Y-100740256D01*
X172960007Y-100740255D01*
X172773292Y-100615496D01*
X172614504Y-100456708D01*
X172489745Y-100269993D01*
X172450398Y-100175000D01*
X172403809Y-100062525D01*
X172360000Y-99842282D01*
X172360000Y-99617718D01*
X172403809Y-99397475D01*
X172489744Y-99190009D01*
X172489745Y-99190007D01*
X172614504Y-99003292D01*
X172773292Y-98844504D01*
X172960007Y-98719745D01*
X172960009Y-98719744D01*
X173167475Y-98633809D01*
X173387718Y-98590000D01*
X173612282Y-98590000D01*
X173832525Y-98633809D01*
G37*
G36*
X143000000Y-100850000D02*
G01*
X141600000Y-100850000D01*
X141600000Y-99350000D01*
X143000000Y-99350000D01*
X143000000Y-100850000D01*
G37*
G36*
X135886611Y-98563389D02*
G01*
X135905553Y-98578934D01*
X135927164Y-98590485D01*
X135950613Y-98597598D01*
X135974999Y-98600000D01*
X137450000Y-98600000D01*
X137450000Y-100000000D01*
X135974999Y-100000000D01*
X135950613Y-100002402D01*
X135927164Y-100009515D01*
X135905553Y-100021066D01*
X135886611Y-100036611D01*
X135875623Y-100050000D01*
X134450000Y-100050000D01*
X134450000Y-98550000D01*
X135875623Y-98550000D01*
X135886611Y-98563389D01*
G37*
G36*
X139250000Y-100000000D02*
G01*
X137750000Y-100000000D01*
X137750000Y-98600000D01*
X139250000Y-98600000D01*
X139250000Y-100000000D01*
G37*
G36*
X166700000Y-99750000D02*
G01*
X163700000Y-99750000D01*
X163700000Y-98250000D01*
X166700000Y-98250000D01*
X166700000Y-99750000D01*
G37*
G36*
X170200000Y-99750000D02*
G01*
X167200000Y-99750000D01*
X167200000Y-98250000D01*
X170200000Y-98250000D01*
X170200000Y-99750000D01*
G37*
G36*
X143000000Y-99050000D02*
G01*
X141600000Y-99050000D01*
X141600000Y-97550000D01*
X143000000Y-97550000D01*
X143000000Y-99050000D01*
G37*
G36*
X159050000Y-98950000D02*
G01*
X157550000Y-98950000D01*
X157550000Y-97950000D01*
X159050000Y-97950000D01*
X159050000Y-98950000D01*
G37*
G36*
X156850000Y-98950000D02*
G01*
X155350000Y-98950000D01*
X155350000Y-97950000D01*
X156850000Y-97950000D01*
X156850000Y-98950000D01*
G37*
G36*
X131750000Y-98500000D02*
G01*
X130250000Y-98500000D01*
X130250000Y-97100000D01*
X131750000Y-97100000D01*
X131750000Y-98500000D01*
G37*
G36*
X133550000Y-98500000D02*
G01*
X132050000Y-98500000D01*
X132050000Y-97100000D01*
X133550000Y-97100000D01*
X133550000Y-98500000D01*
G37*
G36*
X173832525Y-96093809D02*
G01*
X173968182Y-96150000D01*
X174039993Y-96179745D01*
X174226708Y-96304504D01*
X174385496Y-96463292D01*
X174510255Y-96650007D01*
X174510256Y-96650009D01*
X174596191Y-96857475D01*
X174640000Y-97077718D01*
X174640000Y-97302282D01*
X174596191Y-97522525D01*
X174510256Y-97729991D01*
X174510255Y-97729993D01*
X174385496Y-97916708D01*
X174226708Y-98075496D01*
X174039993Y-98200255D01*
X174039992Y-98200256D01*
X174039991Y-98200256D01*
X173832525Y-98286191D01*
X173612282Y-98330000D01*
X173387718Y-98330000D01*
X173167475Y-98286191D01*
X172960009Y-98200256D01*
X172960008Y-98200256D01*
X172960007Y-98200255D01*
X172773292Y-98075496D01*
X172614504Y-97916708D01*
X172489745Y-97729993D01*
X172489744Y-97729991D01*
X172403809Y-97522525D01*
X172360000Y-97302282D01*
X172360000Y-97077718D01*
X172403809Y-96857475D01*
X172489744Y-96650009D01*
X172489745Y-96650007D01*
X172614504Y-96463292D01*
X172773292Y-96304504D01*
X172960007Y-96179745D01*
X173031818Y-96150000D01*
X173167475Y-96093809D01*
X173387718Y-96050000D01*
X173612282Y-96050000D01*
X173832525Y-96093809D01*
G37*
G36*
X135850000Y-98250000D02*
G01*
X134450000Y-98250000D01*
X134450000Y-96750000D01*
X135850000Y-96750000D01*
X135850000Y-98250000D01*
G37*
G36*
X166700000Y-97950000D02*
G01*
X163700000Y-97950000D01*
X163700000Y-96450000D01*
X166700000Y-96450000D01*
X166700000Y-97950000D01*
G37*
G36*
X170200000Y-97950000D02*
G01*
X167200000Y-97950000D01*
X167200000Y-96450000D01*
X170200000Y-96450000D01*
X170200000Y-97950000D01*
G37*
G36*
X147850000Y-97800000D02*
G01*
X146350000Y-97800000D01*
X146350000Y-94800000D01*
X147850000Y-94800000D01*
X147850000Y-97800000D01*
G37*
G36*
X146050000Y-97800000D02*
G01*
X144550000Y-97800000D01*
X144550000Y-94800000D01*
X146050000Y-94800000D01*
X146050000Y-97800000D01*
G37*
G36*
X159050000Y-97700000D02*
G01*
X157550000Y-97700000D01*
X157550000Y-96700000D01*
X159050000Y-96700000D01*
X159050000Y-97700000D01*
G37*
G36*
X156850000Y-97700000D02*
G01*
X155350000Y-97700000D01*
X155350000Y-96700000D01*
X156850000Y-96700000D01*
X156850000Y-97700000D01*
G37*
G36*
X139000000Y-97650000D02*
G01*
X137600000Y-97650000D01*
X137600000Y-96150000D01*
X139000000Y-96150000D01*
X139000000Y-97650000D01*
G37*
G36*
X161200000Y-97650000D02*
G01*
X159800000Y-97650000D01*
X159800000Y-96150000D01*
X161200000Y-96150000D01*
X161200000Y-97650000D01*
G37*
G36*
X159050000Y-96450000D02*
G01*
X157550000Y-96450000D01*
X157550000Y-95450000D01*
X159050000Y-95450000D01*
X159050000Y-96450000D01*
G37*
G36*
X156850000Y-96450000D02*
G01*
X155350000Y-96450000D01*
X155350000Y-95450000D01*
X156850000Y-95450000D01*
X156850000Y-96450000D01*
G37*
G36*
X136905000Y-96075000D02*
G01*
X135905000Y-96075000D01*
X135905000Y-94125000D01*
X136905000Y-94125000D01*
X136905000Y-96075000D01*
G37*
G36*
X135635000Y-96075000D02*
G01*
X134635000Y-96075000D01*
X134635000Y-94125000D01*
X135635000Y-94125000D01*
X135635000Y-96075000D01*
G37*
G36*
X134365000Y-96075000D02*
G01*
X133365000Y-96075000D01*
X133365000Y-94125000D01*
X134365000Y-94125000D01*
X134365000Y-96075000D01*
G37*
G36*
X133095000Y-96075000D02*
G01*
X132095000Y-96075000D01*
X132095000Y-94125000D01*
X133095000Y-94125000D01*
X133095000Y-96075000D01*
G37*
G36*
X161200000Y-95850000D02*
G01*
X159800000Y-95850000D01*
X159800000Y-94350000D01*
X161200000Y-94350000D01*
X161200000Y-95850000D01*
G37*
G36*
X131400000Y-95850000D02*
G01*
X130000000Y-95850000D01*
X130000000Y-94350000D01*
X131400000Y-94350000D01*
X131400000Y-95850000D01*
G37*
G36*
X139000000Y-95850000D02*
G01*
X137600000Y-95850000D01*
X137600000Y-94350000D01*
X139000000Y-94350000D01*
X139000000Y-95850000D01*
G37*
G36*
X167912500Y-95500000D02*
G01*
X165687500Y-95500000D01*
X165687500Y-94500000D01*
X167912500Y-94500000D01*
X167912500Y-95500000D01*
G37*
G36*
X159050000Y-95200000D02*
G01*
X157550000Y-95200000D01*
X157550000Y-94200000D01*
X159050000Y-94200000D01*
X159050000Y-95200000D01*
G37*
G36*
X156850000Y-95200000D02*
G01*
X155350000Y-95200000D01*
X155350000Y-94200000D01*
X156850000Y-94200000D01*
X156850000Y-95200000D01*
G37*
G36*
X131400000Y-94050000D02*
G01*
X130000000Y-94050000D01*
X130000000Y-92550000D01*
X131400000Y-92550000D01*
X131400000Y-94050000D01*
G37*
G36*
X136487500Y-93787500D02*
G01*
X132512500Y-93787500D01*
X132512500Y-91012500D01*
X136487500Y-91012500D01*
X136487500Y-93787500D01*
G37*
G36*
X167912500Y-93700000D02*
G01*
X165687500Y-93700000D01*
X165687500Y-92700000D01*
X167912500Y-92700000D01*
X167912500Y-93700000D01*
G37*
G36*
X139000000Y-93650000D02*
G01*
X137600000Y-93650000D01*
X137600000Y-92150000D01*
X139000000Y-92150000D01*
X139000000Y-93650000D01*
G37*
G36*
X163275000Y-93505000D02*
G01*
X161325000Y-93505000D01*
X161325000Y-92505000D01*
X163275000Y-92505000D01*
X163275000Y-93505000D01*
G37*
G36*
X157875000Y-93505000D02*
G01*
X155925000Y-93505000D01*
X155925000Y-92505000D01*
X157875000Y-92505000D01*
X157875000Y-93505000D01*
G37*
G36*
X126832525Y-90173809D02*
G01*
X127039991Y-90259744D01*
X127039993Y-90259745D01*
X127226708Y-90384504D01*
X127385496Y-90543292D01*
X127456796Y-90650000D01*
X127510256Y-90730009D01*
X127596191Y-90937475D01*
X127640000Y-91157718D01*
X127640000Y-91382282D01*
X127596191Y-91602525D01*
X127510256Y-91809991D01*
X127510255Y-91809993D01*
X127385496Y-91996708D01*
X127226708Y-92155496D01*
X127039993Y-92280255D01*
X127039992Y-92280256D01*
X127039991Y-92280256D01*
X126832525Y-92366191D01*
X126612282Y-92410000D01*
X126387718Y-92410000D01*
X126167475Y-92366191D01*
X125960009Y-92280256D01*
X125960008Y-92280256D01*
X125960007Y-92280255D01*
X125773292Y-92155496D01*
X125614504Y-91996708D01*
X125489745Y-91809993D01*
X125489744Y-91809991D01*
X125403809Y-91602525D01*
X125360000Y-91382282D01*
X125360000Y-91157718D01*
X125403809Y-90937475D01*
X125489744Y-90730009D01*
X125543204Y-90650000D01*
X125614504Y-90543292D01*
X125773292Y-90384504D01*
X125960007Y-90259745D01*
X125960009Y-90259744D01*
X126167475Y-90173809D01*
X126387718Y-90130000D01*
X126612282Y-90130000D01*
X126832525Y-90173809D01*
G37*
G36*
X157875000Y-92235000D02*
G01*
X155925000Y-92235000D01*
X155925000Y-91235000D01*
X157875000Y-91235000D01*
X157875000Y-92235000D01*
G37*
G36*
X163275000Y-92235000D02*
G01*
X161325000Y-92235000D01*
X161325000Y-91235000D01*
X163275000Y-91235000D01*
X163275000Y-92235000D01*
G37*
G36*
X167500000Y-92150000D02*
G01*
X166100000Y-92150000D01*
X166100000Y-90650000D01*
X167500000Y-90650000D01*
X167500000Y-92150000D01*
G37*
G36*
X139000000Y-91850000D02*
G01*
X137600000Y-91850000D01*
X137600000Y-90350000D01*
X139000000Y-90350000D01*
X139000000Y-91850000D01*
G37*
G36*
X144450000Y-91700000D02*
G01*
X142950000Y-91700000D01*
X142950000Y-90300000D01*
X144450000Y-90300000D01*
X144450000Y-91700000D01*
G37*
G36*
X142650000Y-91700000D02*
G01*
X141150000Y-91700000D01*
X141150000Y-90300000D01*
X142650000Y-90300000D01*
X142650000Y-91700000D01*
G37*
G36*
X163275000Y-90965000D02*
G01*
X161325000Y-90965000D01*
X161325000Y-89965000D01*
X163275000Y-89965000D01*
X163275000Y-90965000D01*
G37*
G36*
X157875000Y-90965000D02*
G01*
X155925000Y-90965000D01*
X155925000Y-89965000D01*
X157875000Y-89965000D01*
X157875000Y-90965000D01*
G37*
G36*
X131300000Y-90950000D02*
G01*
X129900000Y-90950000D01*
X129900000Y-89450000D01*
X131300000Y-89450000D01*
X131300000Y-90950000D01*
G37*
G36*
X135635000Y-90675000D02*
G01*
X134635000Y-90675000D01*
X134635000Y-88725000D01*
X135635000Y-88725000D01*
X135635000Y-90675000D01*
G37*
G36*
X133095000Y-90675000D02*
G01*
X132095000Y-90675000D01*
X132095000Y-88725000D01*
X133095000Y-88725000D01*
X133095000Y-90675000D01*
G37*
G36*
X136905000Y-90675000D02*
G01*
X135905000Y-90675000D01*
X135905000Y-88725000D01*
X136905000Y-88725000D01*
X136905000Y-90675000D01*
G37*
G36*
X134365000Y-90675000D02*
G01*
X133365000Y-90675000D01*
X133365000Y-88725000D01*
X134365000Y-88725000D01*
X134365000Y-90675000D01*
G37*
G36*
X167500000Y-90350000D02*
G01*
X166100000Y-90350000D01*
X166100000Y-88850000D01*
X167500000Y-88850000D01*
X167500000Y-90350000D01*
G37*
G36*
X126832525Y-87633809D02*
G01*
X127039991Y-87719744D01*
X127039993Y-87719745D01*
X127226708Y-87844504D01*
X127385496Y-88003292D01*
X127510255Y-88190007D01*
X127510256Y-88190009D01*
X127596191Y-88397475D01*
X127640000Y-88617718D01*
X127640000Y-88842282D01*
X127596191Y-89062525D01*
X127510256Y-89269991D01*
X127510255Y-89269993D01*
X127385496Y-89456708D01*
X127226708Y-89615496D01*
X127039993Y-89740255D01*
X127039992Y-89740256D01*
X127039991Y-89740256D01*
X126832525Y-89826191D01*
X126612282Y-89870000D01*
X126387718Y-89870000D01*
X126167475Y-89826191D01*
X125960009Y-89740256D01*
X125960008Y-89740256D01*
X125960007Y-89740255D01*
X125773292Y-89615496D01*
X125614504Y-89456708D01*
X125489745Y-89269993D01*
X125489744Y-89269991D01*
X125403809Y-89062525D01*
X125360000Y-88842282D01*
X125360000Y-88617718D01*
X125403809Y-88397475D01*
X125489744Y-88190009D01*
X125489745Y-88190007D01*
X125614504Y-88003292D01*
X125773292Y-87844504D01*
X125960007Y-87719745D01*
X125960009Y-87719744D01*
X126167475Y-87633809D01*
X126387718Y-87590000D01*
X126612282Y-87590000D01*
X126832525Y-87633809D01*
G37*
G36*
X157875000Y-89695000D02*
G01*
X155925000Y-89695000D01*
X155925000Y-88695000D01*
X157875000Y-88695000D01*
X157875000Y-89695000D01*
G37*
G36*
X163275000Y-89695000D02*
G01*
X161325000Y-89695000D01*
X161325000Y-88695000D01*
X163275000Y-88695000D01*
X163275000Y-89695000D01*
G37*
G36*
X169945843Y-88419214D02*
G01*
X169945846Y-88419215D01*
X169945845Y-88419215D01*
X170036839Y-88456906D01*
X170078063Y-88484451D01*
X170118730Y-88511624D01*
X170188376Y-88581270D01*
X170243095Y-88663163D01*
X170280786Y-88754157D01*
X170300000Y-88850753D01*
X170300000Y-88949247D01*
X170280786Y-89045843D01*
X170243095Y-89136837D01*
X170243094Y-89136839D01*
X170188375Y-89218731D01*
X170118731Y-89288375D01*
X170036839Y-89343094D01*
X170036838Y-89343095D01*
X170036837Y-89343095D01*
X169945843Y-89380786D01*
X169849247Y-89400000D01*
X169750753Y-89400000D01*
X169654157Y-89380786D01*
X169563163Y-89343095D01*
X169563162Y-89343095D01*
X169563161Y-89343094D01*
X169481269Y-89288375D01*
X169411625Y-89218731D01*
X169356906Y-89136839D01*
X169356905Y-89136837D01*
X169319214Y-89045843D01*
X169300000Y-88949247D01*
X169300000Y-88850753D01*
X169319214Y-88754157D01*
X169356905Y-88663163D01*
X169411624Y-88581270D01*
X169481270Y-88511624D01*
X169521937Y-88484451D01*
X169563161Y-88456906D01*
X169654155Y-88419215D01*
X169654154Y-88419215D01*
X169654157Y-88419214D01*
X169750753Y-88400000D01*
X169849247Y-88400000D01*
X169945843Y-88419214D01*
G37*
G36*
X131300000Y-89150000D02*
G01*
X129900000Y-89150000D01*
X129900000Y-87650000D01*
X131300000Y-87650000D01*
X131300000Y-89150000D01*
G37*
G36*
X147550000Y-88700000D02*
G01*
X146050000Y-88700000D01*
X146050000Y-87300000D01*
X147550000Y-87300000D01*
X147550000Y-88700000D01*
G37*
G36*
X149350000Y-88700000D02*
G01*
X147850000Y-88700000D01*
X147850000Y-87300000D01*
X149350000Y-87300000D01*
X149350000Y-88700000D01*
G37*
G36*
X152000000Y-88500000D02*
G01*
X150700000Y-88500000D01*
X150700000Y-86900000D01*
X152000000Y-86900000D01*
X152000000Y-88500000D01*
G37*
G36*
X155300000Y-88500000D02*
G01*
X154000000Y-88500000D01*
X154000000Y-86900000D01*
X155300000Y-86900000D01*
X155300000Y-88500000D01*
G37*
G36*
X138000000Y-88000000D02*
G01*
X136000000Y-88000000D01*
X136000000Y-86000000D01*
X138000000Y-86000000D01*
X138000000Y-88000000D01*
G37*
G36*
X134400000Y-88000000D02*
G01*
X132400000Y-88000000D01*
X132400000Y-86000000D01*
X134400000Y-86000000D01*
X134400000Y-88000000D01*
G37*
G36*
X141325000Y-87950000D02*
G01*
X139675000Y-87950000D01*
X139675000Y-86050000D01*
X141325000Y-86050000D01*
X141325000Y-87950000D01*
G37*
G36*
X131200000Y-87050000D02*
G01*
X129800000Y-87050000D01*
X129800000Y-85650000D01*
X131200000Y-85650000D01*
X131200000Y-87050000D01*
G37*
G36*
X129250000Y-86750000D02*
G01*
X127950000Y-86750000D01*
X127950000Y-85550000D01*
X129250000Y-85550000D01*
X129250000Y-86750000D01*
G37*
G36*
X145300000Y-86650000D02*
G01*
X143100000Y-86650000D01*
X143100000Y-83750000D01*
X145300000Y-83750000D01*
X145300000Y-86650000D01*
G37*
G36*
X150900000Y-86000000D02*
G01*
X149600000Y-86000000D01*
X149600000Y-84400000D01*
X150900000Y-84400000D01*
X150900000Y-86000000D01*
G37*
G36*
X147600000Y-86000000D02*
G01*
X146300000Y-86000000D01*
X146300000Y-84400000D01*
X147600000Y-84400000D01*
X147600000Y-86000000D01*
G37*
G36*
X127250000Y-85800000D02*
G01*
X125950000Y-85800000D01*
X125950000Y-84600000D01*
X127250000Y-84600000D01*
X127250000Y-85800000D01*
G37*
G36*
X134400000Y-85600000D02*
G01*
X132400000Y-85600000D01*
X132400000Y-83600000D01*
X134400000Y-83600000D01*
X134400000Y-85600000D01*
G37*
G36*
X138000000Y-85600000D02*
G01*
X136000000Y-85600000D01*
X136000000Y-83600000D01*
X138000000Y-83600000D01*
X138000000Y-85600000D01*
G37*
G36*
X169945843Y-84619214D02*
G01*
X169945846Y-84619215D01*
X169945845Y-84619215D01*
X170036839Y-84656906D01*
X170078063Y-84684451D01*
X170118730Y-84711624D01*
X170188376Y-84781270D01*
X170243095Y-84863163D01*
X170280786Y-84954157D01*
X170300000Y-85050753D01*
X170300000Y-85149247D01*
X170280786Y-85245843D01*
X170280785Y-85245845D01*
X170243094Y-85336839D01*
X170188375Y-85418731D01*
X170118731Y-85488375D01*
X170036839Y-85543094D01*
X170036838Y-85543095D01*
X170036837Y-85543095D01*
X169945843Y-85580786D01*
X169849247Y-85600000D01*
X169750753Y-85600000D01*
X169654157Y-85580786D01*
X169563163Y-85543095D01*
X169563162Y-85543095D01*
X169563161Y-85543094D01*
X169481269Y-85488375D01*
X169411625Y-85418731D01*
X169356906Y-85336839D01*
X169319215Y-85245845D01*
X169319214Y-85245843D01*
X169300000Y-85149247D01*
X169300000Y-85050753D01*
X169319214Y-84954157D01*
X169356905Y-84863163D01*
X169411624Y-84781270D01*
X169481270Y-84711624D01*
X169521937Y-84684451D01*
X169563161Y-84656906D01*
X169654155Y-84619215D01*
X169654154Y-84619215D01*
X169654157Y-84619214D01*
X169750753Y-84600000D01*
X169849247Y-84600000D01*
X169945843Y-84619214D01*
G37*
G36*
X141325000Y-85450000D02*
G01*
X139675000Y-85450000D01*
X139675000Y-83550000D01*
X141325000Y-83550000D01*
X141325000Y-85450000D01*
G37*
G36*
X162200000Y-85150000D02*
G01*
X160800000Y-85150000D01*
X160800000Y-83650000D01*
X162200000Y-83650000D01*
X162200000Y-85150000D01*
G37*
G36*
X164700000Y-85150000D02*
G01*
X163300000Y-85150000D01*
X163300000Y-83650000D01*
X164700000Y-83650000D01*
X164700000Y-85150000D01*
G37*
G36*
X167200000Y-85150000D02*
G01*
X165800000Y-85150000D01*
X165800000Y-83650000D01*
X167200000Y-83650000D01*
X167200000Y-85150000D01*
G37*
G36*
X159700000Y-85150000D02*
G01*
X158300000Y-85150000D01*
X158300000Y-83650000D01*
X159700000Y-83650000D01*
X159700000Y-85150000D01*
G37*
G36*
X129250000Y-84850000D02*
G01*
X127950000Y-84850000D01*
X127950000Y-83650000D01*
X129250000Y-83650000D01*
X129250000Y-84850000D01*
G37*
G36*
X131200000Y-84550000D02*
G01*
X129800000Y-84550000D01*
X129800000Y-83150000D01*
X131200000Y-83150000D01*
X131200000Y-84550000D01*
G37*
G36*
X151000000Y-83950000D02*
G01*
X149600000Y-83950000D01*
X149600000Y-82450000D01*
X151000000Y-82450000D01*
X151000000Y-83950000D01*
G37*
G36*
X157100000Y-83950000D02*
G01*
X155700000Y-83950000D01*
X155700000Y-82450000D01*
X157100000Y-82450000D01*
X157100000Y-83950000D01*
G37*
G36*
X155330000Y-83725000D02*
G01*
X153870000Y-83725000D01*
X153870000Y-82675000D01*
X155330000Y-82675000D01*
X155330000Y-83725000D01*
G37*
G36*
X153130000Y-83725000D02*
G01*
X151670000Y-83725000D01*
X151670000Y-80775000D01*
X153130000Y-80775000D01*
X153130000Y-83725000D01*
G37*
G36*
X162200000Y-83350000D02*
G01*
X160800000Y-83350000D01*
X160800000Y-81850000D01*
X162200000Y-81850000D01*
X162200000Y-83350000D01*
G37*
G36*
X164700000Y-83350000D02*
G01*
X163300000Y-83350000D01*
X163300000Y-81850000D01*
X164700000Y-81850000D01*
X164700000Y-83350000D01*
G37*
G36*
X159700000Y-83350000D02*
G01*
X158300000Y-83350000D01*
X158300000Y-81850000D01*
X159700000Y-81850000D01*
X159700000Y-83350000D01*
G37*
G36*
X167200000Y-83350000D02*
G01*
X165800000Y-83350000D01*
X165800000Y-81850000D01*
X167200000Y-81850000D01*
X167200000Y-83350000D01*
G37*
G36*
X146254182Y-79726900D02*
G01*
X146381573Y-79779667D01*
X146381574Y-79779668D01*
X146496224Y-79856274D01*
X146593726Y-79953776D01*
X146607079Y-79973760D01*
X146670333Y-80068427D01*
X146723100Y-80195818D01*
X146750000Y-80331055D01*
X146750000Y-80468945D01*
X146723100Y-80604182D01*
X146670333Y-80731573D01*
X146670332Y-80731574D01*
X146593726Y-80846224D01*
X146496224Y-80943726D01*
X146438510Y-80982289D01*
X146381573Y-81020333D01*
X146254182Y-81073100D01*
X146118945Y-81100000D01*
X145981055Y-81100000D01*
X145845818Y-81073100D01*
X145718427Y-81020333D01*
X145661490Y-80982289D01*
X145603776Y-80943726D01*
X145513381Y-80853331D01*
X145494445Y-80837791D01*
X145472834Y-80826240D01*
X145449385Y-80819127D01*
X145424999Y-80816725D01*
X145400613Y-80819127D01*
X145377164Y-80826240D01*
X145355553Y-80837791D01*
X145336611Y-80853336D01*
X145321066Y-80872278D01*
X145309515Y-80893889D01*
X145302402Y-80917338D01*
X145300000Y-80941724D01*
X145300000Y-82650000D01*
X143100000Y-82650000D01*
X143100000Y-79750000D01*
X145300000Y-79750000D01*
X145300000Y-79858276D01*
X145302402Y-79882662D01*
X145309515Y-79906111D01*
X145321066Y-79927722D01*
X145336611Y-79946664D01*
X145355553Y-79962209D01*
X145377164Y-79973760D01*
X145400613Y-79980873D01*
X145424999Y-79983275D01*
X145449385Y-79980873D01*
X145472834Y-79973760D01*
X145494445Y-79962209D01*
X145513381Y-79946669D01*
X145603776Y-79856274D01*
X145718426Y-79779668D01*
X145718427Y-79779667D01*
X145845818Y-79726900D01*
X145981055Y-79700000D01*
X146118945Y-79700000D01*
X146254182Y-79726900D01*
G37*
G36*
X133050000Y-82600000D02*
G01*
X131550000Y-82600000D01*
X131550000Y-81200000D01*
X133050000Y-81200000D01*
X133050000Y-82600000D01*
G37*
G36*
X131250000Y-82600000D02*
G01*
X129750000Y-82600000D01*
X129750000Y-81200000D01*
X131250000Y-81200000D01*
X131250000Y-82600000D01*
G37*
G36*
X157100000Y-82150000D02*
G01*
X155700000Y-82150000D01*
X155700000Y-80650000D01*
X157100000Y-80650000D01*
X157100000Y-82150000D01*
G37*
G36*
X151000000Y-82150000D02*
G01*
X149600000Y-82150000D01*
X149600000Y-80650000D01*
X151000000Y-80650000D01*
X151000000Y-82150000D01*
G37*
G36*
X155330000Y-81825000D02*
G01*
X153870000Y-81825000D01*
X153870000Y-80775000D01*
X155330000Y-80775000D01*
X155330000Y-81825000D01*
G37*
G36*
X162200000Y-81510000D02*
G01*
X160800000Y-81510000D01*
X160800000Y-80440000D01*
X162200000Y-80440000D01*
X162200000Y-81510000D01*
G37*
G36*
X164700000Y-81510000D02*
G01*
X163300000Y-81510000D01*
X163300000Y-80440000D01*
X164700000Y-80440000D01*
X164700000Y-81510000D01*
G37*
G36*
X167200000Y-81510000D02*
G01*
X165800000Y-81510000D01*
X165800000Y-80440000D01*
X167200000Y-80440000D01*
X167200000Y-81510000D01*
G37*
G36*
X159700000Y-81510000D02*
G01*
X158300000Y-81510000D01*
X158300000Y-80440000D01*
X159700000Y-80440000D01*
X159700000Y-81510000D01*
G37*
G36*
X136470000Y-81500000D02*
G01*
X134170000Y-81500000D01*
X134170000Y-77700000D01*
X136470000Y-77700000D01*
X136470000Y-81500000D01*
G37*
G36*
X142030000Y-81500000D02*
G01*
X139730000Y-81500000D01*
X139730000Y-77700000D01*
X142030000Y-77700000D01*
X142030000Y-81500000D01*
G37*
G36*
X138254182Y-79726900D02*
G01*
X138381573Y-79779667D01*
X138381574Y-79779668D01*
X138496224Y-79856274D01*
X138593726Y-79953776D01*
X138607079Y-79973760D01*
X138670333Y-80068427D01*
X138723100Y-80195818D01*
X138750000Y-80331055D01*
X138750000Y-80468945D01*
X138723100Y-80604182D01*
X138670333Y-80731573D01*
X138670332Y-80731574D01*
X138593726Y-80846224D01*
X138496224Y-80943726D01*
X138438510Y-80982289D01*
X138381573Y-81020333D01*
X138254182Y-81073100D01*
X138118945Y-81100000D01*
X137981055Y-81100000D01*
X137845818Y-81073100D01*
X137718427Y-81020333D01*
X137661490Y-80982289D01*
X137603776Y-80943726D01*
X137506274Y-80846224D01*
X137429668Y-80731574D01*
X137429667Y-80731573D01*
X137376900Y-80604182D01*
X137350000Y-80468945D01*
X137350000Y-80331055D01*
X137376900Y-80195818D01*
X137429667Y-80068427D01*
X137492921Y-79973760D01*
X137506274Y-79953776D01*
X137603776Y-79856274D01*
X137718426Y-79779668D01*
X137718427Y-79779667D01*
X137845818Y-79726900D01*
X137981055Y-79700000D01*
X138118945Y-79700000D01*
X138254182Y-79726900D01*
G37*
G36*
X155350000Y-80300000D02*
G01*
X153850000Y-80300000D01*
X153850000Y-78900000D01*
X155350000Y-78900000D01*
X155350000Y-80300000D01*
G37*
G36*
X153550000Y-80300000D02*
G01*
X152050000Y-80300000D01*
X152050000Y-78900000D01*
X153550000Y-78900000D01*
X153550000Y-80300000D01*
G37*
G36*
X162200000Y-79760000D02*
G01*
X160800000Y-79760000D01*
X160800000Y-78690000D01*
X162200000Y-78690000D01*
X162200000Y-79760000D01*
G37*
G36*
X159700000Y-79760000D02*
G01*
X158300000Y-79760000D01*
X158300000Y-78690000D01*
X159700000Y-78690000D01*
X159700000Y-79760000D01*
G37*
G36*
X167200000Y-79760000D02*
G01*
X165800000Y-79760000D01*
X165800000Y-78690000D01*
X167200000Y-78690000D01*
X167200000Y-79760000D01*
G37*
G36*
X164700000Y-79760000D02*
G01*
X163300000Y-79760000D01*
X163300000Y-78690000D01*
X164700000Y-78690000D01*
X164700000Y-79760000D01*
G37*
G36*
X172841408Y-75783625D02*
G01*
X173010456Y-75817251D01*
X173328936Y-75949170D01*
X173615560Y-76140686D01*
X173859314Y-76384440D01*
X174050830Y-76671064D01*
X174182749Y-76989544D01*
X174250000Y-77327640D01*
X174250000Y-77672360D01*
X174182749Y-78010456D01*
X174050830Y-78328936D01*
X173859314Y-78615560D01*
X173615560Y-78859314D01*
X173328936Y-79050830D01*
X173010456Y-79182749D01*
X172841408Y-79216375D01*
X172672361Y-79250000D01*
X172327639Y-79250000D01*
X172158592Y-79216374D01*
X171989544Y-79182749D01*
X171671064Y-79050830D01*
X171384440Y-78859314D01*
X171140686Y-78615560D01*
X170949170Y-78328936D01*
X170817251Y-78010456D01*
X170750000Y-77672360D01*
X170750000Y-77327640D01*
X170817251Y-76989544D01*
X170949170Y-76671064D01*
X171140686Y-76384440D01*
X171384440Y-76140686D01*
X171671064Y-75949170D01*
X171989544Y-75817251D01*
X172158592Y-75783625D01*
X172327639Y-75750000D01*
X172672361Y-75750000D01*
X172841408Y-75783625D01*
G37*
G36*
X127841408Y-75783625D02*
G01*
X128010456Y-75817251D01*
X128328936Y-75949170D01*
X128615560Y-76140686D01*
X128859314Y-76384440D01*
X129050830Y-76671064D01*
X129182749Y-76989544D01*
X129250000Y-77327640D01*
X129250000Y-77672360D01*
X129182749Y-78010456D01*
X129050830Y-78328936D01*
X128859314Y-78615560D01*
X128615560Y-78859314D01*
X128328936Y-79050830D01*
X128010456Y-79182749D01*
X127841408Y-79216374D01*
X127672361Y-79250000D01*
X127327639Y-79250000D01*
X127158592Y-79216374D01*
X126989544Y-79182749D01*
X126671064Y-79050830D01*
X126384440Y-78859314D01*
X126140686Y-78615560D01*
X125949170Y-78328936D01*
X125817251Y-78010456D01*
X125750000Y-77672360D01*
X125750000Y-77327640D01*
X125817251Y-76989544D01*
X125949170Y-76671064D01*
X126140686Y-76384440D01*
X126384440Y-76140686D01*
X126671064Y-75949170D01*
X126989544Y-75817251D01*
X127158592Y-75783625D01*
X127327639Y-75750000D01*
X127672361Y-75750000D01*
X127841408Y-75783625D01*
G37*
G36*
X145450000Y-79225000D02*
G01*
X143550000Y-79225000D01*
X143550000Y-77575000D01*
X145450000Y-77575000D01*
X145450000Y-79225000D01*
G37*
G36*
X147950000Y-79225000D02*
G01*
X146050000Y-79225000D01*
X146050000Y-77575000D01*
X147950000Y-77575000D01*
X147950000Y-79225000D01*
G37*
M02*
