G04 #@! TF.GenerationSoftware,KiCad,Pcbnew,(5.1.5)-3*
G04 #@! TF.CreationDate,2020-01-29T21:37:39+13:00*
G04 #@! TF.ProjectId,SimpleFC,53696d70-6c65-4464-932e-6b696361645f,rev?*
G04 #@! TF.SameCoordinates,Original*
G04 #@! TF.FileFunction,Soldermask,Top*
G04 #@! TF.FilePolarity,Negative*
%FSLAX46Y46*%
G04 Gerber Fmt 4.6, Leading zero omitted, Abs format (unit mm)*
G04 Created by KiCad (PCBNEW (5.1.5)-3) date 2020-01-29 21:37:39*
%MOMM*%
%LPD*%
G04 APERTURE LIST*
%ADD10C,0.100000*%
G04 APERTURE END LIST*
D10*
G36*
X165102525Y-122403809D02*
G01*
X165309991Y-122489744D01*
X165309993Y-122489745D01*
X165496708Y-122614504D01*
X165655496Y-122773292D01*
X165780255Y-122960007D01*
X165780256Y-122960009D01*
X165866191Y-123167475D01*
X165910000Y-123387718D01*
X165910000Y-123612282D01*
X165866191Y-123832525D01*
X165780256Y-124039991D01*
X165780255Y-124039993D01*
X165655496Y-124226708D01*
X165496708Y-124385496D01*
X165309993Y-124510255D01*
X165309992Y-124510256D01*
X165309991Y-124510256D01*
X165102525Y-124596191D01*
X164882282Y-124640000D01*
X164657718Y-124640000D01*
X164437475Y-124596191D01*
X164230009Y-124510256D01*
X164230008Y-124510256D01*
X164230007Y-124510255D01*
X164043292Y-124385496D01*
X163884504Y-124226708D01*
X163759745Y-124039993D01*
X163759744Y-124039991D01*
X163673809Y-123832525D01*
X163630000Y-123612282D01*
X163630000Y-123387718D01*
X163673809Y-123167475D01*
X163759744Y-122960009D01*
X163759745Y-122960007D01*
X163884504Y-122773292D01*
X164043292Y-122614504D01*
X164230007Y-122489745D01*
X164230009Y-122489744D01*
X164437475Y-122403809D01*
X164657718Y-122360000D01*
X164882282Y-122360000D01*
X165102525Y-122403809D01*
G37*
G36*
X167642525Y-122403809D02*
G01*
X167849991Y-122489744D01*
X167849993Y-122489745D01*
X168036708Y-122614504D01*
X168195496Y-122773292D01*
X168320255Y-122960007D01*
X168320256Y-122960009D01*
X168406191Y-123167475D01*
X168450000Y-123387718D01*
X168450000Y-123612282D01*
X168406191Y-123832525D01*
X168320256Y-124039991D01*
X168320255Y-124039993D01*
X168195496Y-124226708D01*
X168036708Y-124385496D01*
X167849993Y-124510255D01*
X167849992Y-124510256D01*
X167849991Y-124510256D01*
X167642525Y-124596191D01*
X167422282Y-124640000D01*
X167197718Y-124640000D01*
X166977475Y-124596191D01*
X166770009Y-124510256D01*
X166770008Y-124510256D01*
X166770007Y-124510255D01*
X166583292Y-124385496D01*
X166424504Y-124226708D01*
X166299745Y-124039993D01*
X166299744Y-124039991D01*
X166213809Y-123832525D01*
X166170000Y-123612282D01*
X166170000Y-123387718D01*
X166213809Y-123167475D01*
X166299744Y-122960009D01*
X166299745Y-122960007D01*
X166424504Y-122773292D01*
X166583292Y-122614504D01*
X166770007Y-122489745D01*
X166770009Y-122489744D01*
X166977475Y-122403809D01*
X167197718Y-122360000D01*
X167422282Y-122360000D01*
X167642525Y-122403809D01*
G37*
G36*
X154222525Y-122403809D02*
G01*
X154429991Y-122489744D01*
X154429993Y-122489745D01*
X154616708Y-122614504D01*
X154775496Y-122773292D01*
X154900255Y-122960007D01*
X154900256Y-122960009D01*
X154986191Y-123167475D01*
X155030000Y-123387718D01*
X155030000Y-123612282D01*
X154986191Y-123832525D01*
X154900256Y-124039991D01*
X154900255Y-124039993D01*
X154775496Y-124226708D01*
X154616708Y-124385496D01*
X154429993Y-124510255D01*
X154429992Y-124510256D01*
X154429991Y-124510256D01*
X154222525Y-124596191D01*
X154002282Y-124640000D01*
X153777718Y-124640000D01*
X153557475Y-124596191D01*
X153350009Y-124510256D01*
X153350008Y-124510256D01*
X153350007Y-124510255D01*
X153163292Y-124385496D01*
X153004504Y-124226708D01*
X152879745Y-124039993D01*
X152879744Y-124039991D01*
X152793809Y-123832525D01*
X152750000Y-123612282D01*
X152750000Y-123387718D01*
X152793809Y-123167475D01*
X152879744Y-122960009D01*
X152879745Y-122960007D01*
X153004504Y-122773292D01*
X153163292Y-122614504D01*
X153350007Y-122489745D01*
X153350009Y-122489744D01*
X153557475Y-122403809D01*
X153777718Y-122360000D01*
X154002282Y-122360000D01*
X154222525Y-122403809D01*
G37*
G36*
X151682525Y-122403809D02*
G01*
X151889991Y-122489744D01*
X151889993Y-122489745D01*
X152076708Y-122614504D01*
X152235496Y-122773292D01*
X152360255Y-122960007D01*
X152360256Y-122960009D01*
X152446191Y-123167475D01*
X152490000Y-123387718D01*
X152490000Y-123612282D01*
X152446191Y-123832525D01*
X152360256Y-124039991D01*
X152360255Y-124039993D01*
X152235496Y-124226708D01*
X152076708Y-124385496D01*
X151889993Y-124510255D01*
X151889992Y-124510256D01*
X151889991Y-124510256D01*
X151682525Y-124596191D01*
X151462282Y-124640000D01*
X151237718Y-124640000D01*
X151017475Y-124596191D01*
X150810009Y-124510256D01*
X150810008Y-124510256D01*
X150810007Y-124510255D01*
X150623292Y-124385496D01*
X150464504Y-124226708D01*
X150339745Y-124039993D01*
X150339744Y-124039991D01*
X150253809Y-123832525D01*
X150210000Y-123612282D01*
X150210000Y-123387718D01*
X150253809Y-123167475D01*
X150339744Y-122960009D01*
X150339745Y-122960007D01*
X150464504Y-122773292D01*
X150623292Y-122614504D01*
X150810007Y-122489745D01*
X150810009Y-122489744D01*
X151017475Y-122403809D01*
X151237718Y-122360000D01*
X151462282Y-122360000D01*
X151682525Y-122403809D01*
G37*
G36*
X149142525Y-122403809D02*
G01*
X149349991Y-122489744D01*
X149349993Y-122489745D01*
X149536708Y-122614504D01*
X149695496Y-122773292D01*
X149820255Y-122960007D01*
X149820256Y-122960009D01*
X149906191Y-123167475D01*
X149950000Y-123387718D01*
X149950000Y-123612282D01*
X149906191Y-123832525D01*
X149820256Y-124039991D01*
X149820255Y-124039993D01*
X149695496Y-124226708D01*
X149536708Y-124385496D01*
X149349993Y-124510255D01*
X149349992Y-124510256D01*
X149349991Y-124510256D01*
X149142525Y-124596191D01*
X148922282Y-124640000D01*
X148697718Y-124640000D01*
X148477475Y-124596191D01*
X148270009Y-124510256D01*
X148270008Y-124510256D01*
X148270007Y-124510255D01*
X148083292Y-124385496D01*
X147924504Y-124226708D01*
X147799745Y-124039993D01*
X147799744Y-124039991D01*
X147713809Y-123832525D01*
X147670000Y-123612282D01*
X147670000Y-123387718D01*
X147713809Y-123167475D01*
X147799744Y-122960009D01*
X147799745Y-122960007D01*
X147924504Y-122773292D01*
X148083292Y-122614504D01*
X148270007Y-122489745D01*
X148270009Y-122489744D01*
X148477475Y-122403809D01*
X148697718Y-122360000D01*
X148922282Y-122360000D01*
X149142525Y-122403809D01*
G37*
G36*
X146602525Y-122403809D02*
G01*
X146809991Y-122489744D01*
X146809993Y-122489745D01*
X146996708Y-122614504D01*
X147155496Y-122773292D01*
X147280255Y-122960007D01*
X147280256Y-122960009D01*
X147366191Y-123167475D01*
X147410000Y-123387718D01*
X147410000Y-123612282D01*
X147366191Y-123832525D01*
X147280256Y-124039991D01*
X147280255Y-124039993D01*
X147155496Y-124226708D01*
X146996708Y-124385496D01*
X146809993Y-124510255D01*
X146809992Y-124510256D01*
X146809991Y-124510256D01*
X146602525Y-124596191D01*
X146382282Y-124640000D01*
X146157718Y-124640000D01*
X145937475Y-124596191D01*
X145730009Y-124510256D01*
X145730008Y-124510256D01*
X145730007Y-124510255D01*
X145543292Y-124385496D01*
X145384504Y-124226708D01*
X145259745Y-124039993D01*
X145259744Y-124039991D01*
X145173809Y-123832525D01*
X145130000Y-123612282D01*
X145130000Y-123387718D01*
X145173809Y-123167475D01*
X145259744Y-122960009D01*
X145259745Y-122960007D01*
X145384504Y-122773292D01*
X145543292Y-122614504D01*
X145730007Y-122489745D01*
X145730009Y-122489744D01*
X145937475Y-122403809D01*
X146157718Y-122360000D01*
X146382282Y-122360000D01*
X146602525Y-122403809D01*
G37*
G36*
X144062525Y-122403809D02*
G01*
X144269991Y-122489744D01*
X144269993Y-122489745D01*
X144456708Y-122614504D01*
X144615496Y-122773292D01*
X144740255Y-122960007D01*
X144740256Y-122960009D01*
X144826191Y-123167475D01*
X144870000Y-123387718D01*
X144870000Y-123612282D01*
X144826191Y-123832525D01*
X144740256Y-124039991D01*
X144740255Y-124039993D01*
X144615496Y-124226708D01*
X144456708Y-124385496D01*
X144269993Y-124510255D01*
X144269992Y-124510256D01*
X144269991Y-124510256D01*
X144062525Y-124596191D01*
X143842282Y-124640000D01*
X143617718Y-124640000D01*
X143397475Y-124596191D01*
X143190009Y-124510256D01*
X143190008Y-124510256D01*
X143190007Y-124510255D01*
X143003292Y-124385496D01*
X142844504Y-124226708D01*
X142719745Y-124039993D01*
X142719744Y-124039991D01*
X142633809Y-123832525D01*
X142590000Y-123612282D01*
X142590000Y-123387718D01*
X142633809Y-123167475D01*
X142719744Y-122960009D01*
X142719745Y-122960007D01*
X142844504Y-122773292D01*
X143003292Y-122614504D01*
X143190007Y-122489745D01*
X143190009Y-122489744D01*
X143397475Y-122403809D01*
X143617718Y-122360000D01*
X143842282Y-122360000D01*
X144062525Y-122403809D01*
G37*
G36*
X141522525Y-122403809D02*
G01*
X141729991Y-122489744D01*
X141729993Y-122489745D01*
X141916708Y-122614504D01*
X142075496Y-122773292D01*
X142200255Y-122960007D01*
X142200256Y-122960009D01*
X142286191Y-123167475D01*
X142330000Y-123387718D01*
X142330000Y-123612282D01*
X142286191Y-123832525D01*
X142200256Y-124039991D01*
X142200255Y-124039993D01*
X142075496Y-124226708D01*
X141916708Y-124385496D01*
X141729993Y-124510255D01*
X141729992Y-124510256D01*
X141729991Y-124510256D01*
X141522525Y-124596191D01*
X141302282Y-124640000D01*
X141077718Y-124640000D01*
X140857475Y-124596191D01*
X140650009Y-124510256D01*
X140650008Y-124510256D01*
X140650007Y-124510255D01*
X140463292Y-124385496D01*
X140304504Y-124226708D01*
X140179745Y-124039993D01*
X140179744Y-124039991D01*
X140093809Y-123832525D01*
X140050000Y-123612282D01*
X140050000Y-123387718D01*
X140093809Y-123167475D01*
X140179744Y-122960009D01*
X140179745Y-122960007D01*
X140304504Y-122773292D01*
X140463292Y-122614504D01*
X140650007Y-122489745D01*
X140650009Y-122489744D01*
X140857475Y-122403809D01*
X141077718Y-122360000D01*
X141302282Y-122360000D01*
X141522525Y-122403809D01*
G37*
G36*
X136442525Y-122403809D02*
G01*
X136649991Y-122489744D01*
X136649993Y-122489745D01*
X136836708Y-122614504D01*
X136995496Y-122773292D01*
X137120255Y-122960007D01*
X137120256Y-122960009D01*
X137206191Y-123167475D01*
X137250000Y-123387718D01*
X137250000Y-123612282D01*
X137206191Y-123832525D01*
X137120256Y-124039991D01*
X137120255Y-124039993D01*
X136995496Y-124226708D01*
X136836708Y-124385496D01*
X136649993Y-124510255D01*
X136649992Y-124510256D01*
X136649991Y-124510256D01*
X136442525Y-124596191D01*
X136222282Y-124640000D01*
X135997718Y-124640000D01*
X135777475Y-124596191D01*
X135570009Y-124510256D01*
X135570008Y-124510256D01*
X135570007Y-124510255D01*
X135383292Y-124385496D01*
X135224504Y-124226708D01*
X135099745Y-124039993D01*
X135099744Y-124039991D01*
X135013809Y-123832525D01*
X134970000Y-123612282D01*
X134970000Y-123387718D01*
X135013809Y-123167475D01*
X135099744Y-122960009D01*
X135099745Y-122960007D01*
X135224504Y-122773292D01*
X135383292Y-122614504D01*
X135570007Y-122489745D01*
X135570009Y-122489744D01*
X135777475Y-122403809D01*
X135997718Y-122360000D01*
X136222282Y-122360000D01*
X136442525Y-122403809D01*
G37*
G36*
X138982525Y-122403809D02*
G01*
X139189991Y-122489744D01*
X139189993Y-122489745D01*
X139376708Y-122614504D01*
X139535496Y-122773292D01*
X139660255Y-122960007D01*
X139660256Y-122960009D01*
X139746191Y-123167475D01*
X139790000Y-123387718D01*
X139790000Y-123612282D01*
X139746191Y-123832525D01*
X139660256Y-124039991D01*
X139660255Y-124039993D01*
X139535496Y-124226708D01*
X139376708Y-124385496D01*
X139189993Y-124510255D01*
X139189992Y-124510256D01*
X139189991Y-124510256D01*
X138982525Y-124596191D01*
X138762282Y-124640000D01*
X138537718Y-124640000D01*
X138317475Y-124596191D01*
X138110009Y-124510256D01*
X138110008Y-124510256D01*
X138110007Y-124510255D01*
X137923292Y-124385496D01*
X137764504Y-124226708D01*
X137639745Y-124039993D01*
X137639744Y-124039991D01*
X137553809Y-123832525D01*
X137510000Y-123612282D01*
X137510000Y-123387718D01*
X137553809Y-123167475D01*
X137639744Y-122960009D01*
X137639745Y-122960007D01*
X137764504Y-122773292D01*
X137923292Y-122614504D01*
X138110007Y-122489745D01*
X138110009Y-122489744D01*
X138317475Y-122403809D01*
X138537718Y-122360000D01*
X138762282Y-122360000D01*
X138982525Y-122403809D01*
G37*
G36*
X162562525Y-122403809D02*
G01*
X162769991Y-122489744D01*
X162769993Y-122489745D01*
X162956708Y-122614504D01*
X163115496Y-122773292D01*
X163240255Y-122960007D01*
X163240256Y-122960009D01*
X163326191Y-123167475D01*
X163370000Y-123387718D01*
X163370000Y-123612282D01*
X163326191Y-123832525D01*
X163240256Y-124039991D01*
X163240255Y-124039993D01*
X163115496Y-124226708D01*
X162956708Y-124385496D01*
X162769993Y-124510255D01*
X162769992Y-124510256D01*
X162769991Y-124510256D01*
X162562525Y-124596191D01*
X162342282Y-124640000D01*
X162117718Y-124640000D01*
X161897475Y-124596191D01*
X161690009Y-124510256D01*
X161690008Y-124510256D01*
X161690007Y-124510255D01*
X161503292Y-124385496D01*
X161344504Y-124226708D01*
X161219745Y-124039993D01*
X161219744Y-124039991D01*
X161133809Y-123832525D01*
X161090000Y-123612282D01*
X161090000Y-123387718D01*
X161133809Y-123167475D01*
X161219744Y-122960009D01*
X161219745Y-122960007D01*
X161344504Y-122773292D01*
X161503292Y-122614504D01*
X161690007Y-122489745D01*
X161690009Y-122489744D01*
X161897475Y-122403809D01*
X162117718Y-122360000D01*
X162342282Y-122360000D01*
X162562525Y-122403809D01*
G37*
G36*
X160022525Y-122403809D02*
G01*
X160229991Y-122489744D01*
X160229993Y-122489745D01*
X160416708Y-122614504D01*
X160575496Y-122773292D01*
X160700255Y-122960007D01*
X160700256Y-122960009D01*
X160786191Y-123167475D01*
X160830000Y-123387718D01*
X160830000Y-123612282D01*
X160786191Y-123832525D01*
X160700256Y-124039991D01*
X160700255Y-124039993D01*
X160575496Y-124226708D01*
X160416708Y-124385496D01*
X160229993Y-124510255D01*
X160229992Y-124510256D01*
X160229991Y-124510256D01*
X160022525Y-124596191D01*
X159802282Y-124640000D01*
X159577718Y-124640000D01*
X159357475Y-124596191D01*
X159150009Y-124510256D01*
X159150008Y-124510256D01*
X159150007Y-124510255D01*
X158963292Y-124385496D01*
X158804504Y-124226708D01*
X158679745Y-124039993D01*
X158679744Y-124039991D01*
X158593809Y-123832525D01*
X158550000Y-123612282D01*
X158550000Y-123387718D01*
X158593809Y-123167475D01*
X158679744Y-122960009D01*
X158679745Y-122960007D01*
X158804504Y-122773292D01*
X158963292Y-122614504D01*
X159150007Y-122489745D01*
X159150009Y-122489744D01*
X159357475Y-122403809D01*
X159577718Y-122360000D01*
X159802282Y-122360000D01*
X160022525Y-122403809D01*
G37*
G36*
X133902525Y-122403809D02*
G01*
X134109991Y-122489744D01*
X134109993Y-122489745D01*
X134296708Y-122614504D01*
X134455496Y-122773292D01*
X134580255Y-122960007D01*
X134580256Y-122960009D01*
X134666191Y-123167475D01*
X134710000Y-123387718D01*
X134710000Y-123612282D01*
X134666191Y-123832525D01*
X134580256Y-124039991D01*
X134580255Y-124039993D01*
X134455496Y-124226708D01*
X134296708Y-124385496D01*
X134109993Y-124510255D01*
X134109992Y-124510256D01*
X134109991Y-124510256D01*
X133902525Y-124596191D01*
X133682282Y-124640000D01*
X133457718Y-124640000D01*
X133237475Y-124596191D01*
X133030009Y-124510256D01*
X133030008Y-124510256D01*
X133030007Y-124510255D01*
X132843292Y-124385496D01*
X132684504Y-124226708D01*
X132559745Y-124039993D01*
X132559744Y-124039991D01*
X132473809Y-123832525D01*
X132430000Y-123612282D01*
X132430000Y-123387718D01*
X132473809Y-123167475D01*
X132559744Y-122960009D01*
X132559745Y-122960007D01*
X132684504Y-122773292D01*
X132843292Y-122614504D01*
X133030007Y-122489745D01*
X133030009Y-122489744D01*
X133237475Y-122403809D01*
X133457718Y-122360000D01*
X133682282Y-122360000D01*
X133902525Y-122403809D01*
G37*
G36*
X156762525Y-122403809D02*
G01*
X156969991Y-122489744D01*
X156969993Y-122489745D01*
X157156708Y-122614504D01*
X157315496Y-122773292D01*
X157440255Y-122960007D01*
X157440256Y-122960009D01*
X157526191Y-123167475D01*
X157570000Y-123387718D01*
X157570000Y-123612282D01*
X157526191Y-123832525D01*
X157440256Y-124039991D01*
X157440255Y-124039993D01*
X157315496Y-124226708D01*
X157156708Y-124385496D01*
X156969993Y-124510255D01*
X156969992Y-124510256D01*
X156969991Y-124510256D01*
X156762525Y-124596191D01*
X156542282Y-124640000D01*
X156317718Y-124640000D01*
X156097475Y-124596191D01*
X155890009Y-124510256D01*
X155890008Y-124510256D01*
X155890007Y-124510255D01*
X155703292Y-124385496D01*
X155544504Y-124226708D01*
X155419745Y-124039993D01*
X155419744Y-124039991D01*
X155333809Y-123832525D01*
X155290000Y-123612282D01*
X155290000Y-123387718D01*
X155333809Y-123167475D01*
X155419744Y-122960009D01*
X155419745Y-122960007D01*
X155544504Y-122773292D01*
X155703292Y-122614504D01*
X155890007Y-122489745D01*
X155890009Y-122489744D01*
X156097475Y-122403809D01*
X156317718Y-122360000D01*
X156542282Y-122360000D01*
X156762525Y-122403809D01*
G37*
G36*
X127841408Y-120783626D02*
G01*
X128010456Y-120817251D01*
X128328936Y-120949170D01*
X128615560Y-121140686D01*
X128859314Y-121384440D01*
X129050830Y-121671064D01*
X129182749Y-121989544D01*
X129250000Y-122327640D01*
X129250000Y-122672360D01*
X129182749Y-123010456D01*
X129050830Y-123328936D01*
X128859314Y-123615560D01*
X128615560Y-123859314D01*
X128328936Y-124050830D01*
X128010456Y-124182749D01*
X127841408Y-124216375D01*
X127672361Y-124250000D01*
X127327639Y-124250000D01*
X127158592Y-124216375D01*
X126989544Y-124182749D01*
X126671064Y-124050830D01*
X126384440Y-123859314D01*
X126140686Y-123615560D01*
X125949170Y-123328936D01*
X125817251Y-123010456D01*
X125750000Y-122672360D01*
X125750000Y-122327640D01*
X125817251Y-121989544D01*
X125949170Y-121671064D01*
X126140686Y-121384440D01*
X126384440Y-121140686D01*
X126671064Y-120949170D01*
X126989544Y-120817251D01*
X127158592Y-120783626D01*
X127327639Y-120750000D01*
X127672361Y-120750000D01*
X127841408Y-120783626D01*
G37*
G36*
X172841408Y-120783626D02*
G01*
X173010456Y-120817251D01*
X173328936Y-120949170D01*
X173615560Y-121140686D01*
X173859314Y-121384440D01*
X174050830Y-121671064D01*
X174182749Y-121989544D01*
X174250000Y-122327640D01*
X174250000Y-122672360D01*
X174182749Y-123010456D01*
X174050830Y-123328936D01*
X173859314Y-123615560D01*
X173615560Y-123859314D01*
X173328936Y-124050830D01*
X173010456Y-124182749D01*
X172841408Y-124216375D01*
X172672361Y-124250000D01*
X172327639Y-124250000D01*
X172158592Y-124216375D01*
X171989544Y-124182749D01*
X171671064Y-124050830D01*
X171384440Y-123859314D01*
X171140686Y-123615560D01*
X170949170Y-123328936D01*
X170817251Y-123010456D01*
X170750000Y-122672360D01*
X170750000Y-122327640D01*
X170817251Y-121989544D01*
X170949170Y-121671064D01*
X171140686Y-121384440D01*
X171384440Y-121140686D01*
X171671064Y-120949170D01*
X171989544Y-120817251D01*
X172158592Y-120783626D01*
X172327639Y-120750000D01*
X172672361Y-120750000D01*
X172841408Y-120783626D01*
G37*
G36*
X133902525Y-119863809D02*
G01*
X134109991Y-119949744D01*
X134109993Y-119949745D01*
X134296708Y-120074504D01*
X134455496Y-120233292D01*
X134580255Y-120420007D01*
X134580256Y-120420009D01*
X134666191Y-120627475D01*
X134710000Y-120847718D01*
X134710000Y-121072282D01*
X134666191Y-121292525D01*
X134628118Y-121384441D01*
X134580255Y-121499993D01*
X134455496Y-121686708D01*
X134296708Y-121845496D01*
X134109993Y-121970255D01*
X134109992Y-121970256D01*
X134109991Y-121970256D01*
X133902525Y-122056191D01*
X133682282Y-122100000D01*
X133457718Y-122100000D01*
X133237475Y-122056191D01*
X133030009Y-121970256D01*
X133030008Y-121970256D01*
X133030007Y-121970255D01*
X132843292Y-121845496D01*
X132684504Y-121686708D01*
X132559745Y-121499993D01*
X132511882Y-121384441D01*
X132473809Y-121292525D01*
X132430000Y-121072282D01*
X132430000Y-120847718D01*
X132473809Y-120627475D01*
X132559744Y-120420009D01*
X132559745Y-120420007D01*
X132684504Y-120233292D01*
X132843292Y-120074504D01*
X133030007Y-119949745D01*
X133030009Y-119949744D01*
X133237475Y-119863809D01*
X133457718Y-119820000D01*
X133682282Y-119820000D01*
X133902525Y-119863809D01*
G37*
G36*
X154222525Y-119863809D02*
G01*
X154429991Y-119949744D01*
X154429993Y-119949745D01*
X154616708Y-120074504D01*
X154775496Y-120233292D01*
X154900255Y-120420007D01*
X154900256Y-120420009D01*
X154986191Y-120627475D01*
X155030000Y-120847718D01*
X155030000Y-121072282D01*
X154986191Y-121292525D01*
X154948118Y-121384441D01*
X154900255Y-121499993D01*
X154775496Y-121686708D01*
X154616708Y-121845496D01*
X154429993Y-121970255D01*
X154429992Y-121970256D01*
X154429991Y-121970256D01*
X154222525Y-122056191D01*
X154002282Y-122100000D01*
X153777718Y-122100000D01*
X153557475Y-122056191D01*
X153350009Y-121970256D01*
X153350008Y-121970256D01*
X153350007Y-121970255D01*
X153163292Y-121845496D01*
X153004504Y-121686708D01*
X152879745Y-121499993D01*
X152831882Y-121384441D01*
X152793809Y-121292525D01*
X152750000Y-121072282D01*
X152750000Y-120847718D01*
X152793809Y-120627475D01*
X152879744Y-120420009D01*
X152879745Y-120420007D01*
X153004504Y-120233292D01*
X153163292Y-120074504D01*
X153350007Y-119949745D01*
X153350009Y-119949744D01*
X153557475Y-119863809D01*
X153777718Y-119820000D01*
X154002282Y-119820000D01*
X154222525Y-119863809D01*
G37*
G36*
X151682525Y-119863809D02*
G01*
X151889991Y-119949744D01*
X151889993Y-119949745D01*
X152076708Y-120074504D01*
X152235496Y-120233292D01*
X152360255Y-120420007D01*
X152360256Y-120420009D01*
X152446191Y-120627475D01*
X152490000Y-120847718D01*
X152490000Y-121072282D01*
X152446191Y-121292525D01*
X152408118Y-121384441D01*
X152360255Y-121499993D01*
X152235496Y-121686708D01*
X152076708Y-121845496D01*
X151889993Y-121970255D01*
X151889992Y-121970256D01*
X151889991Y-121970256D01*
X151682525Y-122056191D01*
X151462282Y-122100000D01*
X151237718Y-122100000D01*
X151017475Y-122056191D01*
X150810009Y-121970256D01*
X150810008Y-121970256D01*
X150810007Y-121970255D01*
X150623292Y-121845496D01*
X150464504Y-121686708D01*
X150339745Y-121499993D01*
X150291882Y-121384441D01*
X150253809Y-121292525D01*
X150210000Y-121072282D01*
X150210000Y-120847718D01*
X150253809Y-120627475D01*
X150339744Y-120420009D01*
X150339745Y-120420007D01*
X150464504Y-120233292D01*
X150623292Y-120074504D01*
X150810007Y-119949745D01*
X150810009Y-119949744D01*
X151017475Y-119863809D01*
X151237718Y-119820000D01*
X151462282Y-119820000D01*
X151682525Y-119863809D01*
G37*
G36*
X156762525Y-119863809D02*
G01*
X156969991Y-119949744D01*
X156969993Y-119949745D01*
X157156708Y-120074504D01*
X157315496Y-120233292D01*
X157440255Y-120420007D01*
X157440256Y-120420009D01*
X157526191Y-120627475D01*
X157570000Y-120847718D01*
X157570000Y-121072282D01*
X157526191Y-121292525D01*
X157488118Y-121384441D01*
X157440255Y-121499993D01*
X157315496Y-121686708D01*
X157156708Y-121845496D01*
X156969993Y-121970255D01*
X156969992Y-121970256D01*
X156969991Y-121970256D01*
X156762525Y-122056191D01*
X156542282Y-122100000D01*
X156317718Y-122100000D01*
X156097475Y-122056191D01*
X155890009Y-121970256D01*
X155890008Y-121970256D01*
X155890007Y-121970255D01*
X155703292Y-121845496D01*
X155544504Y-121686708D01*
X155419745Y-121499993D01*
X155371882Y-121384441D01*
X155333809Y-121292525D01*
X155290000Y-121072282D01*
X155290000Y-120847718D01*
X155333809Y-120627475D01*
X155419744Y-120420009D01*
X155419745Y-120420007D01*
X155544504Y-120233292D01*
X155703292Y-120074504D01*
X155890007Y-119949745D01*
X155890009Y-119949744D01*
X156097475Y-119863809D01*
X156317718Y-119820000D01*
X156542282Y-119820000D01*
X156762525Y-119863809D01*
G37*
G36*
X136442525Y-119863809D02*
G01*
X136649991Y-119949744D01*
X136649993Y-119949745D01*
X136836708Y-120074504D01*
X136995496Y-120233292D01*
X137120255Y-120420007D01*
X137120256Y-120420009D01*
X137206191Y-120627475D01*
X137250000Y-120847718D01*
X137250000Y-121072282D01*
X137206191Y-121292525D01*
X137168118Y-121384441D01*
X137120255Y-121499993D01*
X136995496Y-121686708D01*
X136836708Y-121845496D01*
X136649993Y-121970255D01*
X136649992Y-121970256D01*
X136649991Y-121970256D01*
X136442525Y-122056191D01*
X136222282Y-122100000D01*
X135997718Y-122100000D01*
X135777475Y-122056191D01*
X135570009Y-121970256D01*
X135570008Y-121970256D01*
X135570007Y-121970255D01*
X135383292Y-121845496D01*
X135224504Y-121686708D01*
X135099745Y-121499993D01*
X135051882Y-121384441D01*
X135013809Y-121292525D01*
X134970000Y-121072282D01*
X134970000Y-120847718D01*
X135013809Y-120627475D01*
X135099744Y-120420009D01*
X135099745Y-120420007D01*
X135224504Y-120233292D01*
X135383292Y-120074504D01*
X135570007Y-119949745D01*
X135570009Y-119949744D01*
X135777475Y-119863809D01*
X135997718Y-119820000D01*
X136222282Y-119820000D01*
X136442525Y-119863809D01*
G37*
G36*
X138982525Y-119863809D02*
G01*
X139189991Y-119949744D01*
X139189993Y-119949745D01*
X139376708Y-120074504D01*
X139535496Y-120233292D01*
X139660255Y-120420007D01*
X139660256Y-120420009D01*
X139746191Y-120627475D01*
X139790000Y-120847718D01*
X139790000Y-121072282D01*
X139746191Y-121292525D01*
X139708118Y-121384441D01*
X139660255Y-121499993D01*
X139535496Y-121686708D01*
X139376708Y-121845496D01*
X139189993Y-121970255D01*
X139189992Y-121970256D01*
X139189991Y-121970256D01*
X138982525Y-122056191D01*
X138762282Y-122100000D01*
X138537718Y-122100000D01*
X138317475Y-122056191D01*
X138110009Y-121970256D01*
X138110008Y-121970256D01*
X138110007Y-121970255D01*
X137923292Y-121845496D01*
X137764504Y-121686708D01*
X137639745Y-121499993D01*
X137591882Y-121384441D01*
X137553809Y-121292525D01*
X137510000Y-121072282D01*
X137510000Y-120847718D01*
X137553809Y-120627475D01*
X137639744Y-120420009D01*
X137639745Y-120420007D01*
X137764504Y-120233292D01*
X137923292Y-120074504D01*
X138110007Y-119949745D01*
X138110009Y-119949744D01*
X138317475Y-119863809D01*
X138537718Y-119820000D01*
X138762282Y-119820000D01*
X138982525Y-119863809D01*
G37*
G36*
X141522525Y-119863809D02*
G01*
X141729991Y-119949744D01*
X141729993Y-119949745D01*
X141916708Y-120074504D01*
X142075496Y-120233292D01*
X142200255Y-120420007D01*
X142200256Y-120420009D01*
X142286191Y-120627475D01*
X142330000Y-120847718D01*
X142330000Y-121072282D01*
X142286191Y-121292525D01*
X142248118Y-121384441D01*
X142200255Y-121499993D01*
X142075496Y-121686708D01*
X141916708Y-121845496D01*
X141729993Y-121970255D01*
X141729992Y-121970256D01*
X141729991Y-121970256D01*
X141522525Y-122056191D01*
X141302282Y-122100000D01*
X141077718Y-122100000D01*
X140857475Y-122056191D01*
X140650009Y-121970256D01*
X140650008Y-121970256D01*
X140650007Y-121970255D01*
X140463292Y-121845496D01*
X140304504Y-121686708D01*
X140179745Y-121499993D01*
X140131882Y-121384441D01*
X140093809Y-121292525D01*
X140050000Y-121072282D01*
X140050000Y-120847718D01*
X140093809Y-120627475D01*
X140179744Y-120420009D01*
X140179745Y-120420007D01*
X140304504Y-120233292D01*
X140463292Y-120074504D01*
X140650007Y-119949745D01*
X140650009Y-119949744D01*
X140857475Y-119863809D01*
X141077718Y-119820000D01*
X141302282Y-119820000D01*
X141522525Y-119863809D01*
G37*
G36*
X144062525Y-119863809D02*
G01*
X144269991Y-119949744D01*
X144269993Y-119949745D01*
X144456708Y-120074504D01*
X144615496Y-120233292D01*
X144740255Y-120420007D01*
X144740256Y-120420009D01*
X144826191Y-120627475D01*
X144870000Y-120847718D01*
X144870000Y-121072282D01*
X144826191Y-121292525D01*
X144788118Y-121384441D01*
X144740255Y-121499993D01*
X144615496Y-121686708D01*
X144456708Y-121845496D01*
X144269993Y-121970255D01*
X144269992Y-121970256D01*
X144269991Y-121970256D01*
X144062525Y-122056191D01*
X143842282Y-122100000D01*
X143617718Y-122100000D01*
X143397475Y-122056191D01*
X143190009Y-121970256D01*
X143190008Y-121970256D01*
X143190007Y-121970255D01*
X143003292Y-121845496D01*
X142844504Y-121686708D01*
X142719745Y-121499993D01*
X142671882Y-121384441D01*
X142633809Y-121292525D01*
X142590000Y-121072282D01*
X142590000Y-120847718D01*
X142633809Y-120627475D01*
X142719744Y-120420009D01*
X142719745Y-120420007D01*
X142844504Y-120233292D01*
X143003292Y-120074504D01*
X143190007Y-119949745D01*
X143190009Y-119949744D01*
X143397475Y-119863809D01*
X143617718Y-119820000D01*
X143842282Y-119820000D01*
X144062525Y-119863809D01*
G37*
G36*
X149142525Y-119863809D02*
G01*
X149349991Y-119949744D01*
X149349993Y-119949745D01*
X149536708Y-120074504D01*
X149695496Y-120233292D01*
X149820255Y-120420007D01*
X149820256Y-120420009D01*
X149906191Y-120627475D01*
X149950000Y-120847718D01*
X149950000Y-121072282D01*
X149906191Y-121292525D01*
X149868118Y-121384441D01*
X149820255Y-121499993D01*
X149695496Y-121686708D01*
X149536708Y-121845496D01*
X149349993Y-121970255D01*
X149349992Y-121970256D01*
X149349991Y-121970256D01*
X149142525Y-122056191D01*
X148922282Y-122100000D01*
X148697718Y-122100000D01*
X148477475Y-122056191D01*
X148270009Y-121970256D01*
X148270008Y-121970256D01*
X148270007Y-121970255D01*
X148083292Y-121845496D01*
X147924504Y-121686708D01*
X147799745Y-121499993D01*
X147751882Y-121384441D01*
X147713809Y-121292525D01*
X147670000Y-121072282D01*
X147670000Y-120847718D01*
X147713809Y-120627475D01*
X147799744Y-120420009D01*
X147799745Y-120420007D01*
X147924504Y-120233292D01*
X148083292Y-120074504D01*
X148270007Y-119949745D01*
X148270009Y-119949744D01*
X148477475Y-119863809D01*
X148697718Y-119820000D01*
X148922282Y-119820000D01*
X149142525Y-119863809D01*
G37*
G36*
X146602525Y-119863809D02*
G01*
X146809991Y-119949744D01*
X146809993Y-119949745D01*
X146996708Y-120074504D01*
X147155496Y-120233292D01*
X147280255Y-120420007D01*
X147280256Y-120420009D01*
X147366191Y-120627475D01*
X147410000Y-120847718D01*
X147410000Y-121072282D01*
X147366191Y-121292525D01*
X147328118Y-121384441D01*
X147280255Y-121499993D01*
X147155496Y-121686708D01*
X146996708Y-121845496D01*
X146809993Y-121970255D01*
X146809992Y-121970256D01*
X146809991Y-121970256D01*
X146602525Y-122056191D01*
X146382282Y-122100000D01*
X146157718Y-122100000D01*
X145937475Y-122056191D01*
X145730009Y-121970256D01*
X145730008Y-121970256D01*
X145730007Y-121970255D01*
X145543292Y-121845496D01*
X145384504Y-121686708D01*
X145259745Y-121499993D01*
X145211882Y-121384441D01*
X145173809Y-121292525D01*
X145130000Y-121072282D01*
X145130000Y-120847718D01*
X145173809Y-120627475D01*
X145259744Y-120420009D01*
X145259745Y-120420007D01*
X145384504Y-120233292D01*
X145543292Y-120074504D01*
X145730007Y-119949745D01*
X145730009Y-119949744D01*
X145937475Y-119863809D01*
X146157718Y-119820000D01*
X146382282Y-119820000D01*
X146602525Y-119863809D01*
G37*
G36*
X161900000Y-121450000D02*
G01*
X160500000Y-121450000D01*
X160500000Y-119950000D01*
X161900000Y-119950000D01*
X161900000Y-121450000D01*
G37*
G36*
X161900000Y-119650000D02*
G01*
X160500000Y-119650000D01*
X160500000Y-118150000D01*
X161900000Y-118150000D01*
X161900000Y-119650000D01*
G37*
G36*
X144062525Y-117323809D02*
G01*
X144261413Y-117406191D01*
X144269993Y-117409745D01*
X144456708Y-117534504D01*
X144615496Y-117693292D01*
X144740255Y-117880007D01*
X144740256Y-117880009D01*
X144826191Y-118087475D01*
X144870000Y-118307718D01*
X144870000Y-118532282D01*
X144826191Y-118752525D01*
X144740256Y-118959991D01*
X144740255Y-118959993D01*
X144615496Y-119146708D01*
X144456708Y-119305496D01*
X144269993Y-119430255D01*
X144269992Y-119430256D01*
X144269991Y-119430256D01*
X144062525Y-119516191D01*
X143842282Y-119560000D01*
X143617718Y-119560000D01*
X143397475Y-119516191D01*
X143190009Y-119430256D01*
X143190008Y-119430256D01*
X143190007Y-119430255D01*
X143003292Y-119305496D01*
X142844504Y-119146708D01*
X142719745Y-118959993D01*
X142719744Y-118959991D01*
X142633809Y-118752525D01*
X142590000Y-118532282D01*
X142590000Y-118307718D01*
X142633809Y-118087475D01*
X142719744Y-117880009D01*
X142719745Y-117880007D01*
X142844504Y-117693292D01*
X143003292Y-117534504D01*
X143190007Y-117409745D01*
X143198587Y-117406191D01*
X143397475Y-117323809D01*
X143617718Y-117280000D01*
X143842282Y-117280000D01*
X144062525Y-117323809D01*
G37*
G36*
X146602525Y-117323809D02*
G01*
X146801413Y-117406191D01*
X146809993Y-117409745D01*
X146996708Y-117534504D01*
X147155496Y-117693292D01*
X147280255Y-117880007D01*
X147280256Y-117880009D01*
X147366191Y-118087475D01*
X147410000Y-118307718D01*
X147410000Y-118532282D01*
X147366191Y-118752525D01*
X147280256Y-118959991D01*
X147280255Y-118959993D01*
X147155496Y-119146708D01*
X146996708Y-119305496D01*
X146809993Y-119430255D01*
X146809992Y-119430256D01*
X146809991Y-119430256D01*
X146602525Y-119516191D01*
X146382282Y-119560000D01*
X146157718Y-119560000D01*
X145937475Y-119516191D01*
X145730009Y-119430256D01*
X145730008Y-119430256D01*
X145730007Y-119430255D01*
X145543292Y-119305496D01*
X145384504Y-119146708D01*
X145259745Y-118959993D01*
X145259744Y-118959991D01*
X145173809Y-118752525D01*
X145130000Y-118532282D01*
X145130000Y-118307718D01*
X145173809Y-118087475D01*
X145259744Y-117880009D01*
X145259745Y-117880007D01*
X145384504Y-117693292D01*
X145543292Y-117534504D01*
X145730007Y-117409745D01*
X145738587Y-117406191D01*
X145937475Y-117323809D01*
X146157718Y-117280000D01*
X146382282Y-117280000D01*
X146602525Y-117323809D01*
G37*
G36*
X151682525Y-117323809D02*
G01*
X151881413Y-117406191D01*
X151889993Y-117409745D01*
X152076708Y-117534504D01*
X152235496Y-117693292D01*
X152360255Y-117880007D01*
X152360256Y-117880009D01*
X152446191Y-118087475D01*
X152490000Y-118307718D01*
X152490000Y-118532282D01*
X152446191Y-118752525D01*
X152360256Y-118959991D01*
X152360255Y-118959993D01*
X152235496Y-119146708D01*
X152076708Y-119305496D01*
X151889993Y-119430255D01*
X151889992Y-119430256D01*
X151889991Y-119430256D01*
X151682525Y-119516191D01*
X151462282Y-119560000D01*
X151237718Y-119560000D01*
X151017475Y-119516191D01*
X150810009Y-119430256D01*
X150810008Y-119430256D01*
X150810007Y-119430255D01*
X150623292Y-119305496D01*
X150464504Y-119146708D01*
X150339745Y-118959993D01*
X150339744Y-118959991D01*
X150253809Y-118752525D01*
X150210000Y-118532282D01*
X150210000Y-118307718D01*
X150253809Y-118087475D01*
X150339744Y-117880009D01*
X150339745Y-117880007D01*
X150464504Y-117693292D01*
X150623292Y-117534504D01*
X150810007Y-117409745D01*
X150818587Y-117406191D01*
X151017475Y-117323809D01*
X151237718Y-117280000D01*
X151462282Y-117280000D01*
X151682525Y-117323809D01*
G37*
G36*
X154222525Y-117323809D02*
G01*
X154421413Y-117406191D01*
X154429993Y-117409745D01*
X154616708Y-117534504D01*
X154775496Y-117693292D01*
X154900255Y-117880007D01*
X154900256Y-117880009D01*
X154986191Y-118087475D01*
X155030000Y-118307718D01*
X155030000Y-118532282D01*
X154986191Y-118752525D01*
X154900256Y-118959991D01*
X154900255Y-118959993D01*
X154775496Y-119146708D01*
X154616708Y-119305496D01*
X154429993Y-119430255D01*
X154429992Y-119430256D01*
X154429991Y-119430256D01*
X154222525Y-119516191D01*
X154002282Y-119560000D01*
X153777718Y-119560000D01*
X153557475Y-119516191D01*
X153350009Y-119430256D01*
X153350008Y-119430256D01*
X153350007Y-119430255D01*
X153163292Y-119305496D01*
X153004504Y-119146708D01*
X152879745Y-118959993D01*
X152879744Y-118959991D01*
X152793809Y-118752525D01*
X152750000Y-118532282D01*
X152750000Y-118307718D01*
X152793809Y-118087475D01*
X152879744Y-117880009D01*
X152879745Y-117880007D01*
X153004504Y-117693292D01*
X153163292Y-117534504D01*
X153350007Y-117409745D01*
X153358587Y-117406191D01*
X153557475Y-117323809D01*
X153777718Y-117280000D01*
X154002282Y-117280000D01*
X154222525Y-117323809D01*
G37*
G36*
X156762525Y-117323809D02*
G01*
X156961413Y-117406191D01*
X156969993Y-117409745D01*
X157156708Y-117534504D01*
X157315496Y-117693292D01*
X157440255Y-117880007D01*
X157440256Y-117880009D01*
X157526191Y-118087475D01*
X157570000Y-118307718D01*
X157570000Y-118532282D01*
X157526191Y-118752525D01*
X157440256Y-118959991D01*
X157440255Y-118959993D01*
X157315496Y-119146708D01*
X157156708Y-119305496D01*
X156969993Y-119430255D01*
X156969992Y-119430256D01*
X156969991Y-119430256D01*
X156762525Y-119516191D01*
X156542282Y-119560000D01*
X156317718Y-119560000D01*
X156097475Y-119516191D01*
X155890009Y-119430256D01*
X155890008Y-119430256D01*
X155890007Y-119430255D01*
X155703292Y-119305496D01*
X155544504Y-119146708D01*
X155419745Y-118959993D01*
X155419744Y-118959991D01*
X155333809Y-118752525D01*
X155290000Y-118532282D01*
X155290000Y-118307718D01*
X155333809Y-118087475D01*
X155419744Y-117880009D01*
X155419745Y-117880007D01*
X155544504Y-117693292D01*
X155703292Y-117534504D01*
X155890007Y-117409745D01*
X155898587Y-117406191D01*
X156097475Y-117323809D01*
X156317718Y-117280000D01*
X156542282Y-117280000D01*
X156762525Y-117323809D01*
G37*
G36*
X138982525Y-117323809D02*
G01*
X139181413Y-117406191D01*
X139189993Y-117409745D01*
X139376708Y-117534504D01*
X139535496Y-117693292D01*
X139660255Y-117880007D01*
X139660256Y-117880009D01*
X139746191Y-118087475D01*
X139790000Y-118307718D01*
X139790000Y-118532282D01*
X139746191Y-118752525D01*
X139660256Y-118959991D01*
X139660255Y-118959993D01*
X139535496Y-119146708D01*
X139376708Y-119305496D01*
X139189993Y-119430255D01*
X139189992Y-119430256D01*
X139189991Y-119430256D01*
X138982525Y-119516191D01*
X138762282Y-119560000D01*
X138537718Y-119560000D01*
X138317475Y-119516191D01*
X138110009Y-119430256D01*
X138110008Y-119430256D01*
X138110007Y-119430255D01*
X137923292Y-119305496D01*
X137764504Y-119146708D01*
X137639745Y-118959993D01*
X137639744Y-118959991D01*
X137553809Y-118752525D01*
X137510000Y-118532282D01*
X137510000Y-118307718D01*
X137553809Y-118087475D01*
X137639744Y-117880009D01*
X137639745Y-117880007D01*
X137764504Y-117693292D01*
X137923292Y-117534504D01*
X138110007Y-117409745D01*
X138118587Y-117406191D01*
X138317475Y-117323809D01*
X138537718Y-117280000D01*
X138762282Y-117280000D01*
X138982525Y-117323809D01*
G37*
G36*
X136442525Y-117323809D02*
G01*
X136641413Y-117406191D01*
X136649993Y-117409745D01*
X136836708Y-117534504D01*
X136995496Y-117693292D01*
X137120255Y-117880007D01*
X137120256Y-117880009D01*
X137206191Y-118087475D01*
X137250000Y-118307718D01*
X137250000Y-118532282D01*
X137206191Y-118752525D01*
X137120256Y-118959991D01*
X137120255Y-118959993D01*
X136995496Y-119146708D01*
X136836708Y-119305496D01*
X136649993Y-119430255D01*
X136649992Y-119430256D01*
X136649991Y-119430256D01*
X136442525Y-119516191D01*
X136222282Y-119560000D01*
X135997718Y-119560000D01*
X135777475Y-119516191D01*
X135570009Y-119430256D01*
X135570008Y-119430256D01*
X135570007Y-119430255D01*
X135383292Y-119305496D01*
X135224504Y-119146708D01*
X135099745Y-118959993D01*
X135099744Y-118959991D01*
X135013809Y-118752525D01*
X134970000Y-118532282D01*
X134970000Y-118307718D01*
X135013809Y-118087475D01*
X135099744Y-117880009D01*
X135099745Y-117880007D01*
X135224504Y-117693292D01*
X135383292Y-117534504D01*
X135570007Y-117409745D01*
X135578587Y-117406191D01*
X135777475Y-117323809D01*
X135997718Y-117280000D01*
X136222282Y-117280000D01*
X136442525Y-117323809D01*
G37*
G36*
X141522525Y-117323809D02*
G01*
X141721413Y-117406191D01*
X141729993Y-117409745D01*
X141916708Y-117534504D01*
X142075496Y-117693292D01*
X142200255Y-117880007D01*
X142200256Y-117880009D01*
X142286191Y-118087475D01*
X142330000Y-118307718D01*
X142330000Y-118532282D01*
X142286191Y-118752525D01*
X142200256Y-118959991D01*
X142200255Y-118959993D01*
X142075496Y-119146708D01*
X141916708Y-119305496D01*
X141729993Y-119430255D01*
X141729992Y-119430256D01*
X141729991Y-119430256D01*
X141522525Y-119516191D01*
X141302282Y-119560000D01*
X141077718Y-119560000D01*
X140857475Y-119516191D01*
X140650009Y-119430256D01*
X140650008Y-119430256D01*
X140650007Y-119430255D01*
X140463292Y-119305496D01*
X140304504Y-119146708D01*
X140179745Y-118959993D01*
X140179744Y-118959991D01*
X140093809Y-118752525D01*
X140050000Y-118532282D01*
X140050000Y-118307718D01*
X140093809Y-118087475D01*
X140179744Y-117880009D01*
X140179745Y-117880007D01*
X140304504Y-117693292D01*
X140463292Y-117534504D01*
X140650007Y-117409745D01*
X140658587Y-117406191D01*
X140857475Y-117323809D01*
X141077718Y-117280000D01*
X141302282Y-117280000D01*
X141522525Y-117323809D01*
G37*
G36*
X133902525Y-117323809D02*
G01*
X134101413Y-117406191D01*
X134109993Y-117409745D01*
X134296708Y-117534504D01*
X134455496Y-117693292D01*
X134580255Y-117880007D01*
X134580256Y-117880009D01*
X134666191Y-118087475D01*
X134710000Y-118307718D01*
X134710000Y-118532282D01*
X134666191Y-118752525D01*
X134580256Y-118959991D01*
X134580255Y-118959993D01*
X134455496Y-119146708D01*
X134296708Y-119305496D01*
X134109993Y-119430255D01*
X134109992Y-119430256D01*
X134109991Y-119430256D01*
X133902525Y-119516191D01*
X133682282Y-119560000D01*
X133457718Y-119560000D01*
X133237475Y-119516191D01*
X133030009Y-119430256D01*
X133030008Y-119430256D01*
X133030007Y-119430255D01*
X132843292Y-119305496D01*
X132684504Y-119146708D01*
X132559745Y-118959993D01*
X132559744Y-118959991D01*
X132473809Y-118752525D01*
X132430000Y-118532282D01*
X132430000Y-118307718D01*
X132473809Y-118087475D01*
X132559744Y-117880009D01*
X132559745Y-117880007D01*
X132684504Y-117693292D01*
X132843292Y-117534504D01*
X133030007Y-117409745D01*
X133038587Y-117406191D01*
X133237475Y-117323809D01*
X133457718Y-117280000D01*
X133682282Y-117280000D01*
X133902525Y-117323809D01*
G37*
G36*
X149142525Y-117323809D02*
G01*
X149341413Y-117406191D01*
X149349993Y-117409745D01*
X149536708Y-117534504D01*
X149695496Y-117693292D01*
X149820255Y-117880007D01*
X149820256Y-117880009D01*
X149906191Y-118087475D01*
X149950000Y-118307718D01*
X149950000Y-118532282D01*
X149906191Y-118752525D01*
X149820256Y-118959991D01*
X149820255Y-118959993D01*
X149695496Y-119146708D01*
X149536708Y-119305496D01*
X149349993Y-119430255D01*
X149349992Y-119430256D01*
X149349991Y-119430256D01*
X149142525Y-119516191D01*
X148922282Y-119560000D01*
X148697718Y-119560000D01*
X148477475Y-119516191D01*
X148270009Y-119430256D01*
X148270008Y-119430256D01*
X148270007Y-119430255D01*
X148083292Y-119305496D01*
X147924504Y-119146708D01*
X147799745Y-118959993D01*
X147799744Y-118959991D01*
X147713809Y-118752525D01*
X147670000Y-118532282D01*
X147670000Y-118307718D01*
X147713809Y-118087475D01*
X147799744Y-117880009D01*
X147799745Y-117880007D01*
X147924504Y-117693292D01*
X148083292Y-117534504D01*
X148270007Y-117409745D01*
X148278587Y-117406191D01*
X148477475Y-117323809D01*
X148697718Y-117280000D01*
X148922282Y-117280000D01*
X149142525Y-117323809D01*
G37*
G36*
X131200000Y-119000000D02*
G01*
X128600000Y-119000000D01*
X128600000Y-117400000D01*
X131200000Y-117400000D01*
X131200000Y-119000000D01*
G37*
G36*
X126832525Y-115213809D02*
G01*
X127039991Y-115299744D01*
X127039993Y-115299745D01*
X127226708Y-115424504D01*
X127385496Y-115583292D01*
X127510255Y-115770007D01*
X127510256Y-115770009D01*
X127596191Y-115977475D01*
X127640000Y-116197718D01*
X127640000Y-116422282D01*
X127596191Y-116642525D01*
X127510256Y-116849991D01*
X127510255Y-116849993D01*
X127385496Y-117036708D01*
X127226708Y-117195496D01*
X127039993Y-117320255D01*
X127039992Y-117320256D01*
X127039991Y-117320256D01*
X126832525Y-117406191D01*
X126612282Y-117450000D01*
X126387718Y-117450000D01*
X126167475Y-117406191D01*
X125960009Y-117320256D01*
X125960008Y-117320256D01*
X125960007Y-117320255D01*
X125773292Y-117195496D01*
X125614504Y-117036708D01*
X125489745Y-116849993D01*
X125489744Y-116849991D01*
X125403809Y-116642525D01*
X125360000Y-116422282D01*
X125360000Y-116197718D01*
X125403809Y-115977475D01*
X125489744Y-115770009D01*
X125489745Y-115770007D01*
X125614504Y-115583292D01*
X125773292Y-115424504D01*
X125960007Y-115299745D01*
X125960009Y-115299744D01*
X126167475Y-115213809D01*
X126387718Y-115170000D01*
X126612282Y-115170000D01*
X126832525Y-115213809D01*
G37*
G36*
X159453963Y-114304196D02*
G01*
X159489021Y-114314831D01*
X159521332Y-114332102D01*
X159549655Y-114355345D01*
X159572898Y-114383668D01*
X159590169Y-114415979D01*
X159600804Y-114451037D01*
X159605000Y-114493641D01*
X159605000Y-116456359D01*
X159600804Y-116498963D01*
X159590169Y-116534021D01*
X159572898Y-116566332D01*
X159549655Y-116594655D01*
X159521332Y-116617898D01*
X159489021Y-116635169D01*
X159453963Y-116645804D01*
X159411359Y-116650000D01*
X158798641Y-116650000D01*
X158756037Y-116645804D01*
X158720979Y-116635169D01*
X158688668Y-116617898D01*
X158660345Y-116594655D01*
X158637102Y-116566332D01*
X158619831Y-116534021D01*
X158609196Y-116498963D01*
X158605000Y-116456359D01*
X158605000Y-114493641D01*
X158609196Y-114451037D01*
X158619831Y-114415979D01*
X158637102Y-114383668D01*
X158660345Y-114355345D01*
X158688668Y-114332102D01*
X158720979Y-114314831D01*
X158756037Y-114304196D01*
X158798641Y-114300000D01*
X159411359Y-114300000D01*
X159453963Y-114304196D01*
G37*
G36*
X155643963Y-114304196D02*
G01*
X155679021Y-114314831D01*
X155711332Y-114332102D01*
X155739655Y-114355345D01*
X155762898Y-114383668D01*
X155780169Y-114415979D01*
X155790804Y-114451037D01*
X155795000Y-114493641D01*
X155795000Y-116456359D01*
X155790804Y-116498963D01*
X155780169Y-116534021D01*
X155762898Y-116566332D01*
X155739655Y-116594655D01*
X155711332Y-116617898D01*
X155679021Y-116635169D01*
X155643963Y-116645804D01*
X155601359Y-116650000D01*
X154988641Y-116650000D01*
X154946037Y-116645804D01*
X154910979Y-116635169D01*
X154878668Y-116617898D01*
X154850345Y-116594655D01*
X154827102Y-116566332D01*
X154809831Y-116534021D01*
X154799196Y-116498963D01*
X154795000Y-116456359D01*
X154795000Y-114493641D01*
X154799196Y-114451037D01*
X154809831Y-114415979D01*
X154827102Y-114383668D01*
X154850345Y-114355345D01*
X154878668Y-114332102D01*
X154910979Y-114314831D01*
X154946037Y-114304196D01*
X154988641Y-114300000D01*
X155601359Y-114300000D01*
X155643963Y-114304196D01*
G37*
G36*
X156913963Y-114304196D02*
G01*
X156949021Y-114314831D01*
X156981332Y-114332102D01*
X157009655Y-114355345D01*
X157032898Y-114383668D01*
X157050169Y-114415979D01*
X157060804Y-114451037D01*
X157065000Y-114493641D01*
X157065000Y-116456359D01*
X157060804Y-116498963D01*
X157050169Y-116534021D01*
X157032898Y-116566332D01*
X157009655Y-116594655D01*
X156981332Y-116617898D01*
X156949021Y-116635169D01*
X156913963Y-116645804D01*
X156871359Y-116650000D01*
X156258641Y-116650000D01*
X156216037Y-116645804D01*
X156180979Y-116635169D01*
X156148668Y-116617898D01*
X156120345Y-116594655D01*
X156097102Y-116566332D01*
X156079831Y-116534021D01*
X156069196Y-116498963D01*
X156065000Y-116456359D01*
X156065000Y-114493641D01*
X156069196Y-114451037D01*
X156079831Y-114415979D01*
X156097102Y-114383668D01*
X156120345Y-114355345D01*
X156148668Y-114332102D01*
X156180979Y-114314831D01*
X156216037Y-114304196D01*
X156258641Y-114300000D01*
X156871359Y-114300000D01*
X156913963Y-114304196D01*
G37*
G36*
X158183963Y-114304196D02*
G01*
X158219021Y-114314831D01*
X158251332Y-114332102D01*
X158279655Y-114355345D01*
X158302898Y-114383668D01*
X158320169Y-114415979D01*
X158330804Y-114451037D01*
X158335000Y-114493641D01*
X158335000Y-116456359D01*
X158330804Y-116498963D01*
X158320169Y-116534021D01*
X158302898Y-116566332D01*
X158279655Y-116594655D01*
X158251332Y-116617898D01*
X158219021Y-116635169D01*
X158183963Y-116645804D01*
X158141359Y-116650000D01*
X157528641Y-116650000D01*
X157486037Y-116645804D01*
X157450979Y-116635169D01*
X157418668Y-116617898D01*
X157390345Y-116594655D01*
X157367102Y-116566332D01*
X157349831Y-116534021D01*
X157339196Y-116498963D01*
X157335000Y-116456359D01*
X157335000Y-114493641D01*
X157339196Y-114451037D01*
X157349831Y-114415979D01*
X157367102Y-114383668D01*
X157390345Y-114355345D01*
X157418668Y-114332102D01*
X157450979Y-114314831D01*
X157486037Y-114304196D01*
X157528641Y-114300000D01*
X158141359Y-114300000D01*
X158183963Y-114304196D01*
G37*
G36*
X166550000Y-115000000D02*
G01*
X164450000Y-115000000D01*
X164450000Y-110500000D01*
X166550000Y-110500000D01*
X166550000Y-115000000D01*
G37*
G36*
X126832525Y-112673809D02*
G01*
X127039991Y-112759744D01*
X127039993Y-112759745D01*
X127226708Y-112884504D01*
X127385496Y-113043292D01*
X127510255Y-113230007D01*
X127510256Y-113230009D01*
X127596191Y-113437475D01*
X127640000Y-113657718D01*
X127640000Y-113882282D01*
X127596191Y-114102525D01*
X127510256Y-114309991D01*
X127510255Y-114309993D01*
X127385496Y-114496708D01*
X127226708Y-114655496D01*
X127039993Y-114780255D01*
X127039992Y-114780256D01*
X127039991Y-114780256D01*
X126832525Y-114866191D01*
X126612282Y-114910000D01*
X126387718Y-114910000D01*
X126167475Y-114866191D01*
X125960009Y-114780256D01*
X125960008Y-114780256D01*
X125960007Y-114780255D01*
X125773292Y-114655496D01*
X125614504Y-114496708D01*
X125489745Y-114309993D01*
X125489744Y-114309991D01*
X125403809Y-114102525D01*
X125360000Y-113882282D01*
X125360000Y-113657718D01*
X125403809Y-113437475D01*
X125489744Y-113230009D01*
X125489745Y-113230007D01*
X125614504Y-113043292D01*
X125773292Y-112884504D01*
X125960007Y-112759745D01*
X125960009Y-112759744D01*
X126167475Y-112673809D01*
X126387718Y-112630000D01*
X126612282Y-112630000D01*
X126832525Y-112673809D01*
G37*
G36*
X143300000Y-114850000D02*
G01*
X141900000Y-114850000D01*
X141900000Y-113350000D01*
X143300000Y-113350000D01*
X143300000Y-114850000D01*
G37*
G36*
X163785469Y-110499454D02*
G01*
X163785468Y-110499455D01*
X163785470Y-110499455D01*
X160699455Y-113585470D01*
X160699455Y-113585468D01*
X160699454Y-113585469D01*
X160698581Y-110616495D01*
X160816495Y-110498581D01*
X163785469Y-110499454D01*
G37*
G36*
X151000000Y-113350000D02*
G01*
X149600000Y-113350000D01*
X149600000Y-111850000D01*
X151000000Y-111850000D01*
X151000000Y-113350000D01*
G37*
G36*
X154200000Y-113350000D02*
G01*
X151300000Y-113350000D01*
X151300000Y-111850000D01*
X154200000Y-111850000D01*
X154200000Y-113350000D01*
G37*
G36*
X143300000Y-113050000D02*
G01*
X141900000Y-113050000D01*
X141900000Y-111550000D01*
X143300000Y-111550000D01*
X143300000Y-113050000D01*
G37*
G36*
X137650000Y-112850000D02*
G01*
X136350000Y-112850000D01*
X136350000Y-111650000D01*
X137650000Y-111650000D01*
X137650000Y-112850000D01*
G37*
G36*
X126832525Y-110133809D02*
G01*
X127039991Y-110219744D01*
X127039993Y-110219745D01*
X127226708Y-110344504D01*
X127385496Y-110503292D01*
X127510255Y-110690007D01*
X127510256Y-110690009D01*
X127596191Y-110897475D01*
X127640000Y-111117718D01*
X127640000Y-111342282D01*
X127596191Y-111562525D01*
X127545390Y-111685169D01*
X127510255Y-111769993D01*
X127385496Y-111956708D01*
X127226708Y-112115496D01*
X127039993Y-112240255D01*
X127039992Y-112240256D01*
X127039991Y-112240256D01*
X126832525Y-112326191D01*
X126612282Y-112370000D01*
X126387718Y-112370000D01*
X126167475Y-112326191D01*
X125960009Y-112240256D01*
X125960008Y-112240256D01*
X125960007Y-112240255D01*
X125773292Y-112115496D01*
X125614504Y-111956708D01*
X125489745Y-111769993D01*
X125454610Y-111685169D01*
X125403809Y-111562525D01*
X125360000Y-111342282D01*
X125360000Y-111117718D01*
X125403809Y-110897475D01*
X125489744Y-110690009D01*
X125489745Y-110690007D01*
X125614504Y-110503292D01*
X125773292Y-110344504D01*
X125960007Y-110219745D01*
X125960009Y-110219744D01*
X126167475Y-110133809D01*
X126387718Y-110090000D01*
X126612282Y-110090000D01*
X126832525Y-110133809D01*
G37*
G36*
X135650000Y-111900000D02*
G01*
X134350000Y-111900000D01*
X134350000Y-110700000D01*
X135650000Y-110700000D01*
X135650000Y-111900000D01*
G37*
G36*
X159453963Y-109354196D02*
G01*
X159489021Y-109364831D01*
X159521332Y-109382102D01*
X159549655Y-109405345D01*
X159572898Y-109433668D01*
X159590169Y-109465979D01*
X159600804Y-109501037D01*
X159605000Y-109543641D01*
X159605000Y-111506359D01*
X159600804Y-111548963D01*
X159590169Y-111584021D01*
X159572898Y-111616332D01*
X159549655Y-111644655D01*
X159521332Y-111667898D01*
X159489021Y-111685169D01*
X159453963Y-111695804D01*
X159411359Y-111700000D01*
X158798641Y-111700000D01*
X158756037Y-111695804D01*
X158720979Y-111685169D01*
X158688668Y-111667898D01*
X158660345Y-111644655D01*
X158637102Y-111616332D01*
X158619831Y-111584021D01*
X158609196Y-111548963D01*
X158605000Y-111506359D01*
X158605000Y-109543641D01*
X158609196Y-109501037D01*
X158619831Y-109465979D01*
X158637102Y-109433668D01*
X158660345Y-109405345D01*
X158688668Y-109382102D01*
X158720979Y-109364831D01*
X158756037Y-109354196D01*
X158798641Y-109350000D01*
X159411359Y-109350000D01*
X159453963Y-109354196D01*
G37*
G36*
X158183963Y-109354196D02*
G01*
X158219021Y-109364831D01*
X158251332Y-109382102D01*
X158279655Y-109405345D01*
X158302898Y-109433668D01*
X158320169Y-109465979D01*
X158330804Y-109501037D01*
X158335000Y-109543641D01*
X158335000Y-111506359D01*
X158330804Y-111548963D01*
X158320169Y-111584021D01*
X158302898Y-111616332D01*
X158279655Y-111644655D01*
X158251332Y-111667898D01*
X158219021Y-111685169D01*
X158183963Y-111695804D01*
X158141359Y-111700000D01*
X157528641Y-111700000D01*
X157486037Y-111695804D01*
X157450979Y-111685169D01*
X157418668Y-111667898D01*
X157390345Y-111644655D01*
X157367102Y-111616332D01*
X157349831Y-111584021D01*
X157339196Y-111548963D01*
X157335000Y-111506359D01*
X157335000Y-109543641D01*
X157339196Y-109501037D01*
X157349831Y-109465979D01*
X157367102Y-109433668D01*
X157390345Y-109405345D01*
X157418668Y-109382102D01*
X157450979Y-109364831D01*
X157486037Y-109354196D01*
X157528641Y-109350000D01*
X158141359Y-109350000D01*
X158183963Y-109354196D01*
G37*
G36*
X156913963Y-109354196D02*
G01*
X156949021Y-109364831D01*
X156981332Y-109382102D01*
X157009655Y-109405345D01*
X157032898Y-109433668D01*
X157050169Y-109465979D01*
X157060804Y-109501037D01*
X157065000Y-109543641D01*
X157065000Y-111506359D01*
X157060804Y-111548963D01*
X157050169Y-111584021D01*
X157032898Y-111616332D01*
X157009655Y-111644655D01*
X156981332Y-111667898D01*
X156949021Y-111685169D01*
X156913963Y-111695804D01*
X156871359Y-111700000D01*
X156258641Y-111700000D01*
X156216037Y-111695804D01*
X156180979Y-111685169D01*
X156148668Y-111667898D01*
X156120345Y-111644655D01*
X156097102Y-111616332D01*
X156079831Y-111584021D01*
X156069196Y-111548963D01*
X156065000Y-111506359D01*
X156065000Y-109543641D01*
X156069196Y-109501037D01*
X156079831Y-109465979D01*
X156097102Y-109433668D01*
X156120345Y-109405345D01*
X156148668Y-109382102D01*
X156180979Y-109364831D01*
X156216037Y-109354196D01*
X156258641Y-109350000D01*
X156871359Y-109350000D01*
X156913963Y-109354196D01*
G37*
G36*
X155643963Y-109354196D02*
G01*
X155679021Y-109364831D01*
X155711332Y-109382102D01*
X155739655Y-109405345D01*
X155762898Y-109433668D01*
X155780169Y-109465979D01*
X155790804Y-109501037D01*
X155795000Y-109543641D01*
X155795000Y-111506359D01*
X155790804Y-111548963D01*
X155780169Y-111584021D01*
X155762898Y-111616332D01*
X155739655Y-111644655D01*
X155711332Y-111667898D01*
X155679021Y-111685169D01*
X155643963Y-111695804D01*
X155601359Y-111700000D01*
X154988641Y-111700000D01*
X154946037Y-111695804D01*
X154910979Y-111685169D01*
X154878668Y-111667898D01*
X154850345Y-111644655D01*
X154827102Y-111616332D01*
X154809831Y-111584021D01*
X154799196Y-111548963D01*
X154795000Y-111506359D01*
X154795000Y-109543641D01*
X154799196Y-109501037D01*
X154809831Y-109465979D01*
X154827102Y-109433668D01*
X154850345Y-109405345D01*
X154878668Y-109382102D01*
X154910979Y-109364831D01*
X154946037Y-109354196D01*
X154988641Y-109350000D01*
X155601359Y-109350000D01*
X155643963Y-109354196D01*
G37*
G36*
X151000000Y-111550000D02*
G01*
X149600000Y-111550000D01*
X149600000Y-110050000D01*
X151000000Y-110050000D01*
X151000000Y-111550000D01*
G37*
G36*
X154200000Y-111550000D02*
G01*
X151300000Y-111550000D01*
X151300000Y-110050000D01*
X154200000Y-110050000D01*
X154200000Y-111550000D01*
G37*
G36*
X133950000Y-111100000D02*
G01*
X132650000Y-111100000D01*
X132650000Y-107900000D01*
X133950000Y-107900000D01*
X133950000Y-111100000D01*
G37*
G36*
X132250000Y-111100000D02*
G01*
X130950000Y-111100000D01*
X130950000Y-107900000D01*
X132250000Y-107900000D01*
X132250000Y-111100000D01*
G37*
G36*
X147850000Y-111000000D02*
G01*
X146350000Y-111000000D01*
X146350000Y-109600000D01*
X147850000Y-109600000D01*
X147850000Y-111000000D01*
G37*
G36*
X146050000Y-111000000D02*
G01*
X144550000Y-111000000D01*
X144550000Y-109600000D01*
X146050000Y-109600000D01*
X146050000Y-111000000D01*
G37*
G36*
X137650000Y-110950000D02*
G01*
X136350000Y-110950000D01*
X136350000Y-109750000D01*
X137650000Y-109750000D01*
X137650000Y-110950000D01*
G37*
G36*
X162250000Y-110100000D02*
G01*
X160750000Y-110100000D01*
X160750000Y-108700000D01*
X162250000Y-108700000D01*
X162250000Y-110100000D01*
G37*
G36*
X164050000Y-110100000D02*
G01*
X162550000Y-110100000D01*
X162550000Y-108700000D01*
X164050000Y-108700000D01*
X164050000Y-110100000D01*
G37*
G36*
X165900000Y-110100000D02*
G01*
X164500000Y-110100000D01*
X164500000Y-108700000D01*
X165900000Y-108700000D01*
X165900000Y-110100000D01*
G37*
G36*
X126832525Y-107593809D02*
G01*
X127039991Y-107679744D01*
X127039993Y-107679745D01*
X127226708Y-107804504D01*
X127385496Y-107963292D01*
X127443432Y-108050000D01*
X127510256Y-108150009D01*
X127596191Y-108357475D01*
X127640000Y-108577718D01*
X127640000Y-108802282D01*
X127596191Y-109022525D01*
X127510256Y-109229991D01*
X127510255Y-109229993D01*
X127385496Y-109416708D01*
X127226708Y-109575496D01*
X127039993Y-109700255D01*
X127039992Y-109700256D01*
X127039991Y-109700256D01*
X126832525Y-109786191D01*
X126612282Y-109830000D01*
X126387718Y-109830000D01*
X126167475Y-109786191D01*
X125960009Y-109700256D01*
X125960008Y-109700256D01*
X125960007Y-109700255D01*
X125773292Y-109575496D01*
X125614504Y-109416708D01*
X125489745Y-109229993D01*
X125489744Y-109229991D01*
X125403809Y-109022525D01*
X125360000Y-108802282D01*
X125360000Y-108577718D01*
X125403809Y-108357475D01*
X125489744Y-108150009D01*
X125556568Y-108050000D01*
X125614504Y-107963292D01*
X125773292Y-107804504D01*
X125960007Y-107679745D01*
X125960009Y-107679744D01*
X126167475Y-107593809D01*
X126387718Y-107550000D01*
X126612282Y-107550000D01*
X126832525Y-107593809D01*
G37*
G36*
X137650000Y-109250000D02*
G01*
X136350000Y-109250000D01*
X136350000Y-108050000D01*
X137650000Y-108050000D01*
X137650000Y-109250000D01*
G37*
G36*
X158850000Y-109100000D02*
G01*
X157350000Y-109100000D01*
X157350000Y-107700000D01*
X158850000Y-107700000D01*
X158850000Y-109100000D01*
G37*
G36*
X157050000Y-109100000D02*
G01*
X155550000Y-109100000D01*
X155550000Y-107700000D01*
X157050000Y-107700000D01*
X157050000Y-109100000D01*
G37*
G36*
X145687749Y-106750629D02*
G01*
X145712251Y-106750629D01*
X145718638Y-106750000D01*
X146181362Y-106750000D01*
X146187749Y-106750629D01*
X146212251Y-106750629D01*
X146218638Y-106750000D01*
X146681362Y-106750000D01*
X146687749Y-106750629D01*
X146712251Y-106750629D01*
X146718638Y-106750000D01*
X147181362Y-106750000D01*
X147187749Y-106750629D01*
X147212251Y-106750629D01*
X147218638Y-106750000D01*
X147681362Y-106750000D01*
X147687749Y-106750629D01*
X147712251Y-106750629D01*
X147718638Y-106750000D01*
X148181362Y-106750000D01*
X148187749Y-106750629D01*
X148212251Y-106750629D01*
X148218638Y-106750000D01*
X148681362Y-106750000D01*
X148687749Y-106750629D01*
X148712251Y-106750629D01*
X148718638Y-106750000D01*
X149181362Y-106750000D01*
X149187749Y-106750629D01*
X149212251Y-106750629D01*
X149218638Y-106750000D01*
X149681362Y-106750000D01*
X149687749Y-106750629D01*
X149712251Y-106750629D01*
X149718638Y-106750000D01*
X150181362Y-106750000D01*
X150187749Y-106750629D01*
X150212251Y-106750629D01*
X150218638Y-106750000D01*
X150681362Y-106750000D01*
X150687749Y-106750629D01*
X150712251Y-106750629D01*
X150718638Y-106750000D01*
X151181362Y-106750000D01*
X151187749Y-106750629D01*
X151212251Y-106750629D01*
X151218638Y-106750000D01*
X151681362Y-106750000D01*
X151687749Y-106750629D01*
X151712251Y-106750629D01*
X151718638Y-106750000D01*
X152181362Y-106750000D01*
X152187749Y-106750629D01*
X152212251Y-106750629D01*
X152218638Y-106750000D01*
X152681362Y-106750000D01*
X152687749Y-106750629D01*
X152712251Y-106750629D01*
X152718638Y-106750000D01*
X153181362Y-106750000D01*
X153209327Y-106752754D01*
X153230322Y-106759123D01*
X153249664Y-106769462D01*
X153266622Y-106783378D01*
X153280538Y-106800336D01*
X153290877Y-106819678D01*
X153297246Y-106840673D01*
X153300000Y-106868638D01*
X153300000Y-108581362D01*
X153297246Y-108609327D01*
X153290877Y-108630322D01*
X153280538Y-108649664D01*
X153266622Y-108666622D01*
X153249664Y-108680538D01*
X153230322Y-108690877D01*
X153209327Y-108697246D01*
X153181362Y-108700000D01*
X152718638Y-108700000D01*
X152712251Y-108699371D01*
X152687749Y-108699371D01*
X152681362Y-108700000D01*
X152218638Y-108700000D01*
X152212251Y-108699371D01*
X152187749Y-108699371D01*
X152181362Y-108700000D01*
X151718638Y-108700000D01*
X151712251Y-108699371D01*
X151687749Y-108699371D01*
X151681362Y-108700000D01*
X151218638Y-108700000D01*
X151212251Y-108699371D01*
X151187749Y-108699371D01*
X151181362Y-108700000D01*
X150718638Y-108700000D01*
X150712251Y-108699371D01*
X150687749Y-108699371D01*
X150681362Y-108700000D01*
X150218638Y-108700000D01*
X150212251Y-108699371D01*
X150187749Y-108699371D01*
X150181362Y-108700000D01*
X149718638Y-108700000D01*
X149712251Y-108699371D01*
X149687749Y-108699371D01*
X149681362Y-108700000D01*
X149218638Y-108700000D01*
X149212251Y-108699371D01*
X149187749Y-108699371D01*
X149181362Y-108700000D01*
X148718638Y-108700000D01*
X148712251Y-108699371D01*
X148687749Y-108699371D01*
X148681362Y-108700000D01*
X148218638Y-108700000D01*
X148212251Y-108699371D01*
X148187749Y-108699371D01*
X148181362Y-108700000D01*
X147718638Y-108700000D01*
X147712251Y-108699371D01*
X147687749Y-108699371D01*
X147681362Y-108700000D01*
X147218638Y-108700000D01*
X147212251Y-108699371D01*
X147187749Y-108699371D01*
X147181362Y-108700000D01*
X146718638Y-108700000D01*
X146712251Y-108699371D01*
X146687749Y-108699371D01*
X146681362Y-108700000D01*
X146218638Y-108700000D01*
X146212251Y-108699371D01*
X146187749Y-108699371D01*
X146181362Y-108700000D01*
X145718638Y-108700000D01*
X145712251Y-108699371D01*
X145687749Y-108699371D01*
X145681362Y-108700000D01*
X145218638Y-108700000D01*
X145190673Y-108697246D01*
X145169678Y-108690877D01*
X145150336Y-108680538D01*
X145133378Y-108666622D01*
X145119462Y-108649664D01*
X145109123Y-108630322D01*
X145102754Y-108609327D01*
X145100000Y-108581362D01*
X145100000Y-106868638D01*
X145102754Y-106840673D01*
X145109123Y-106819678D01*
X145119462Y-106800336D01*
X145133378Y-106783378D01*
X145150336Y-106769462D01*
X145169678Y-106759123D01*
X145190673Y-106752754D01*
X145218638Y-106750000D01*
X145681362Y-106750000D01*
X145687749Y-106750629D01*
G37*
G36*
X135650000Y-108300000D02*
G01*
X134350000Y-108300000D01*
X134350000Y-107100000D01*
X135650000Y-107100000D01*
X135650000Y-108300000D01*
G37*
G36*
X163700000Y-107600000D02*
G01*
X162200000Y-107600000D01*
X162200000Y-106200000D01*
X163700000Y-106200000D01*
X163700000Y-107600000D01*
G37*
G36*
X165900000Y-107600000D02*
G01*
X164500000Y-107600000D01*
X164500000Y-106200000D01*
X165900000Y-106200000D01*
X165900000Y-107600000D01*
G37*
G36*
X161900000Y-107600000D02*
G01*
X160400000Y-107600000D01*
X160400000Y-106200000D01*
X161900000Y-106200000D01*
X161900000Y-107600000D01*
G37*
G36*
X137650000Y-107350000D02*
G01*
X136350000Y-107350000D01*
X136350000Y-106150000D01*
X137650000Y-106150000D01*
X137650000Y-107350000D01*
G37*
G36*
X134000000Y-106350000D02*
G01*
X132600000Y-106350000D01*
X132600000Y-104850000D01*
X134000000Y-104850000D01*
X134000000Y-106350000D01*
G37*
G36*
X132300000Y-106350000D02*
G01*
X130900000Y-106350000D01*
X130900000Y-104850000D01*
X132300000Y-104850000D01*
X132300000Y-106350000D01*
G37*
G36*
X130600000Y-106350000D02*
G01*
X129200000Y-106350000D01*
X129200000Y-104850000D01*
X130600000Y-104850000D01*
X130600000Y-106350000D01*
G37*
G36*
X126832525Y-103943809D02*
G01*
X127035237Y-104027775D01*
X127039993Y-104029745D01*
X127226708Y-104154504D01*
X127385496Y-104313292D01*
X127496548Y-104479493D01*
X127510256Y-104500009D01*
X127596191Y-104707475D01*
X127640000Y-104927718D01*
X127640000Y-105152282D01*
X127596191Y-105372525D01*
X127513473Y-105572225D01*
X127510255Y-105579993D01*
X127385496Y-105766708D01*
X127226708Y-105925496D01*
X127039993Y-106050255D01*
X127039992Y-106050256D01*
X127039991Y-106050256D01*
X126832525Y-106136191D01*
X126612282Y-106180000D01*
X126387718Y-106180000D01*
X126167475Y-106136191D01*
X125960009Y-106050256D01*
X125960008Y-106050256D01*
X125960007Y-106050255D01*
X125773292Y-105925496D01*
X125614504Y-105766708D01*
X125489745Y-105579993D01*
X125486527Y-105572225D01*
X125403809Y-105372525D01*
X125360000Y-105152282D01*
X125360000Y-104927718D01*
X125403809Y-104707475D01*
X125489744Y-104500009D01*
X125503452Y-104479493D01*
X125614504Y-104313292D01*
X125773292Y-104154504D01*
X125960007Y-104029745D01*
X125964763Y-104027775D01*
X126167475Y-103943809D01*
X126387718Y-103900000D01*
X126612282Y-103900000D01*
X126832525Y-103943809D01*
G37*
G36*
X144409327Y-97952754D02*
G01*
X144430322Y-97959123D01*
X144449664Y-97969462D01*
X144466622Y-97983378D01*
X144480538Y-98000336D01*
X144490877Y-98019678D01*
X144497246Y-98040673D01*
X144500000Y-98068638D01*
X144500000Y-98531362D01*
X144499371Y-98537749D01*
X144499371Y-98562251D01*
X144500000Y-98568638D01*
X144500000Y-99031362D01*
X144499371Y-99037749D01*
X144499371Y-99062251D01*
X144500000Y-99068638D01*
X144500000Y-99531362D01*
X144499371Y-99537749D01*
X144499371Y-99562251D01*
X144500000Y-99568638D01*
X144500000Y-100031362D01*
X144499371Y-100037749D01*
X144499371Y-100062251D01*
X144500000Y-100068638D01*
X144500000Y-100531362D01*
X144499371Y-100537749D01*
X144499371Y-100562251D01*
X144500000Y-100568638D01*
X144500000Y-101031362D01*
X144499371Y-101037749D01*
X144499371Y-101062251D01*
X144500000Y-101068638D01*
X144500000Y-101531362D01*
X144499371Y-101537749D01*
X144499371Y-101562251D01*
X144500000Y-101568638D01*
X144500000Y-102031362D01*
X144499371Y-102037749D01*
X144499371Y-102062251D01*
X144500000Y-102068638D01*
X144500000Y-102531362D01*
X144499371Y-102537749D01*
X144499371Y-102562251D01*
X144500000Y-102568638D01*
X144500000Y-103031362D01*
X144499371Y-103037749D01*
X144499371Y-103062251D01*
X144500000Y-103068638D01*
X144500000Y-103531362D01*
X144499371Y-103537749D01*
X144499371Y-103562251D01*
X144500000Y-103568638D01*
X144500000Y-104031362D01*
X144499371Y-104037749D01*
X144499371Y-104062251D01*
X144500000Y-104068638D01*
X144500000Y-104531362D01*
X144499371Y-104537749D01*
X144499371Y-104562251D01*
X144500000Y-104568638D01*
X144500000Y-105031362D01*
X144499371Y-105037749D01*
X144499371Y-105062251D01*
X144500000Y-105068638D01*
X144500000Y-105531362D01*
X144499371Y-105537749D01*
X144499371Y-105562251D01*
X144500000Y-105568638D01*
X144500000Y-106031362D01*
X144497246Y-106059327D01*
X144490877Y-106080322D01*
X144480538Y-106099664D01*
X144466622Y-106116622D01*
X144449664Y-106130538D01*
X144430322Y-106140877D01*
X144409327Y-106147246D01*
X144381362Y-106150000D01*
X142668638Y-106150000D01*
X142640673Y-106147246D01*
X142619678Y-106140877D01*
X142600336Y-106130538D01*
X142583378Y-106116622D01*
X142569462Y-106099664D01*
X142559123Y-106080322D01*
X142552754Y-106059327D01*
X142550000Y-106031362D01*
X142550000Y-105568638D01*
X142550629Y-105562251D01*
X142550629Y-105537749D01*
X142550000Y-105531362D01*
X142550000Y-105068638D01*
X142550629Y-105062251D01*
X142550629Y-105037749D01*
X142550000Y-105031362D01*
X142550000Y-104568638D01*
X142550629Y-104562251D01*
X142550629Y-104537749D01*
X142550000Y-104531362D01*
X142550000Y-104068638D01*
X142550629Y-104062251D01*
X142550629Y-104037749D01*
X142550000Y-104031362D01*
X142550000Y-103568638D01*
X142550629Y-103562251D01*
X142550629Y-103537749D01*
X142550000Y-103531362D01*
X142550000Y-103068638D01*
X142550629Y-103062251D01*
X142550629Y-103037749D01*
X142550000Y-103031362D01*
X142550000Y-102568638D01*
X142550629Y-102562251D01*
X142550629Y-102537749D01*
X142550000Y-102531362D01*
X142550000Y-102068638D01*
X142550629Y-102062251D01*
X142550629Y-102037749D01*
X142550000Y-102031362D01*
X142550000Y-101568638D01*
X142550629Y-101562251D01*
X142550629Y-101537749D01*
X142550000Y-101531362D01*
X142550000Y-101068638D01*
X142550629Y-101062251D01*
X142550629Y-101037749D01*
X142550000Y-101031362D01*
X142550000Y-100568638D01*
X142550629Y-100562251D01*
X142550629Y-100537749D01*
X142550000Y-100531362D01*
X142550000Y-100068638D01*
X142550629Y-100062251D01*
X142550629Y-100037749D01*
X142550000Y-100031362D01*
X142550000Y-99568638D01*
X142550629Y-99562251D01*
X142550629Y-99537749D01*
X142550000Y-99531362D01*
X142550000Y-99068638D01*
X142550629Y-99062251D01*
X142550629Y-99037749D01*
X142550000Y-99031362D01*
X142550000Y-98568638D01*
X142550629Y-98562251D01*
X142550629Y-98537749D01*
X142550000Y-98531362D01*
X142550000Y-98068638D01*
X142552754Y-98040673D01*
X142559123Y-98019678D01*
X142569462Y-98000336D01*
X142583378Y-97983378D01*
X142600336Y-97969462D01*
X142619678Y-97959123D01*
X142640673Y-97952754D01*
X142668638Y-97950000D01*
X144381362Y-97950000D01*
X144409327Y-97952754D01*
G37*
G36*
X155759327Y-97952754D02*
G01*
X155780322Y-97959123D01*
X155799664Y-97969462D01*
X155816622Y-97983378D01*
X155830538Y-98000336D01*
X155840877Y-98019678D01*
X155847246Y-98040673D01*
X155850000Y-98068638D01*
X155850000Y-98531362D01*
X155849371Y-98537749D01*
X155849371Y-98562251D01*
X155850000Y-98568638D01*
X155850000Y-99031362D01*
X155849371Y-99037749D01*
X155849371Y-99062251D01*
X155850000Y-99068638D01*
X155850000Y-99531362D01*
X155849371Y-99537749D01*
X155849371Y-99562251D01*
X155850000Y-99568638D01*
X155850000Y-100031362D01*
X155849371Y-100037749D01*
X155849371Y-100062251D01*
X155850000Y-100068638D01*
X155850000Y-100531362D01*
X155849371Y-100537749D01*
X155849371Y-100562251D01*
X155850000Y-100568638D01*
X155850000Y-101031362D01*
X155849371Y-101037749D01*
X155849371Y-101062251D01*
X155850000Y-101068638D01*
X155850000Y-101531362D01*
X155849371Y-101537749D01*
X155849371Y-101562251D01*
X155850000Y-101568638D01*
X155850000Y-102031362D01*
X155849371Y-102037749D01*
X155849371Y-102062251D01*
X155850000Y-102068638D01*
X155850000Y-102531362D01*
X155849371Y-102537749D01*
X155849371Y-102562251D01*
X155850000Y-102568638D01*
X155850000Y-103031362D01*
X155849371Y-103037749D01*
X155849371Y-103062251D01*
X155850000Y-103068638D01*
X155850000Y-103531362D01*
X155849371Y-103537749D01*
X155849371Y-103562251D01*
X155850000Y-103568638D01*
X155850000Y-104031362D01*
X155849371Y-104037749D01*
X155849371Y-104062251D01*
X155850000Y-104068638D01*
X155850000Y-104531362D01*
X155849371Y-104537749D01*
X155849371Y-104562251D01*
X155850000Y-104568638D01*
X155850000Y-105031362D01*
X155849371Y-105037749D01*
X155849371Y-105062251D01*
X155850000Y-105068638D01*
X155850000Y-105531362D01*
X155849371Y-105537749D01*
X155849371Y-105562251D01*
X155850000Y-105568638D01*
X155850000Y-106031362D01*
X155847246Y-106059327D01*
X155840877Y-106080322D01*
X155830538Y-106099664D01*
X155816622Y-106116622D01*
X155799664Y-106130538D01*
X155780322Y-106140877D01*
X155759327Y-106147246D01*
X155731362Y-106150000D01*
X154018638Y-106150000D01*
X153990673Y-106147246D01*
X153969678Y-106140877D01*
X153950336Y-106130538D01*
X153933378Y-106116622D01*
X153919462Y-106099664D01*
X153909123Y-106080322D01*
X153902754Y-106059327D01*
X153900000Y-106031362D01*
X153900000Y-105568638D01*
X153900629Y-105562251D01*
X153900629Y-105537749D01*
X153900000Y-105531362D01*
X153900000Y-105068638D01*
X153900629Y-105062251D01*
X153900629Y-105037749D01*
X153900000Y-105031362D01*
X153900000Y-104568638D01*
X153900629Y-104562251D01*
X153900629Y-104537749D01*
X153900000Y-104531362D01*
X153900000Y-104068638D01*
X153900629Y-104062251D01*
X153900629Y-104037749D01*
X153900000Y-104031362D01*
X153900000Y-103568638D01*
X153900629Y-103562251D01*
X153900629Y-103537749D01*
X153900000Y-103531362D01*
X153900000Y-103068638D01*
X153900629Y-103062251D01*
X153900629Y-103037749D01*
X153900000Y-103031362D01*
X153900000Y-102568638D01*
X153900629Y-102562251D01*
X153900629Y-102537749D01*
X153900000Y-102531362D01*
X153900000Y-102068638D01*
X153900629Y-102062251D01*
X153900629Y-102037749D01*
X153900000Y-102031362D01*
X153900000Y-101568638D01*
X153900629Y-101562251D01*
X153900629Y-101537749D01*
X153900000Y-101531362D01*
X153900000Y-101068638D01*
X153900629Y-101062251D01*
X153900629Y-101037749D01*
X153900000Y-101031362D01*
X153900000Y-100568638D01*
X153900629Y-100562251D01*
X153900629Y-100537749D01*
X153900000Y-100531362D01*
X153900000Y-100068638D01*
X153900629Y-100062251D01*
X153900629Y-100037749D01*
X153900000Y-100031362D01*
X153900000Y-99568638D01*
X153900629Y-99562251D01*
X153900629Y-99537749D01*
X153900000Y-99531362D01*
X153900000Y-99068638D01*
X153900629Y-99062251D01*
X153900629Y-99037749D01*
X153900000Y-99031362D01*
X153900000Y-98568638D01*
X153900629Y-98562251D01*
X153900629Y-98537749D01*
X153900000Y-98531362D01*
X153900000Y-98068638D01*
X153902754Y-98040673D01*
X153909123Y-98019678D01*
X153919462Y-98000336D01*
X153933378Y-97983378D01*
X153950336Y-97969462D01*
X153969678Y-97959123D01*
X153990673Y-97952754D01*
X154018638Y-97950000D01*
X155731362Y-97950000D01*
X155759327Y-97952754D01*
G37*
G36*
X171200000Y-106100000D02*
G01*
X169600000Y-106100000D01*
X169600000Y-103500000D01*
X171200000Y-103500000D01*
X171200000Y-106100000D01*
G37*
G36*
X173832525Y-103713809D02*
G01*
X174039991Y-103799744D01*
X174039993Y-103799745D01*
X174226708Y-103924504D01*
X174385496Y-104083292D01*
X174510250Y-104270000D01*
X174510256Y-104270009D01*
X174596191Y-104477475D01*
X174640000Y-104697718D01*
X174640000Y-104922282D01*
X174596191Y-105142525D01*
X174530963Y-105300000D01*
X174510255Y-105349993D01*
X174385496Y-105536708D01*
X174226708Y-105695496D01*
X174039993Y-105820255D01*
X174039992Y-105820256D01*
X174039991Y-105820256D01*
X173832525Y-105906191D01*
X173612282Y-105950000D01*
X173387718Y-105950000D01*
X173167475Y-105906191D01*
X172960009Y-105820256D01*
X172960008Y-105820256D01*
X172960007Y-105820255D01*
X172773292Y-105695496D01*
X172614504Y-105536708D01*
X172489745Y-105349993D01*
X172469037Y-105300000D01*
X172403809Y-105142525D01*
X172360000Y-104922282D01*
X172360000Y-104697718D01*
X172403809Y-104477475D01*
X172489744Y-104270009D01*
X172489750Y-104270000D01*
X172614504Y-104083292D01*
X172773292Y-103924504D01*
X172960007Y-103799745D01*
X172960009Y-103799744D01*
X173167475Y-103713809D01*
X173387718Y-103670000D01*
X173612282Y-103670000D01*
X173832525Y-103713809D01*
G37*
G36*
X160000000Y-105750000D02*
G01*
X158600000Y-105750000D01*
X158600000Y-104250000D01*
X160000000Y-104250000D01*
X160000000Y-105750000D01*
G37*
G36*
X161575000Y-105730000D02*
G01*
X160525000Y-105730000D01*
X160525000Y-104270000D01*
X161575000Y-104270000D01*
X161575000Y-105730000D01*
G37*
G36*
X163475000Y-105730000D02*
G01*
X162425000Y-105730000D01*
X162425000Y-104270000D01*
X163475000Y-104270000D01*
X163475000Y-105730000D01*
G37*
G36*
X165400000Y-105350000D02*
G01*
X164000000Y-105350000D01*
X164000000Y-103850000D01*
X165400000Y-103850000D01*
X165400000Y-105350000D01*
G37*
G36*
X132300000Y-104550000D02*
G01*
X130900000Y-104550000D01*
X130900000Y-101350000D01*
X132300000Y-101350000D01*
X132300000Y-104550000D01*
G37*
G36*
X134000000Y-104550000D02*
G01*
X132600000Y-104550000D01*
X132600000Y-103050000D01*
X134000000Y-103050000D01*
X134000000Y-104550000D01*
G37*
G36*
X130600000Y-104550000D02*
G01*
X129200000Y-104550000D01*
X129200000Y-103050000D01*
X130600000Y-103050000D01*
X130600000Y-104550000D01*
G37*
G36*
X160000000Y-103950000D02*
G01*
X158600000Y-103950000D01*
X158600000Y-102450000D01*
X160000000Y-102450000D01*
X160000000Y-103950000D01*
G37*
G36*
X126832525Y-101403809D02*
G01*
X127039991Y-101489744D01*
X127039993Y-101489745D01*
X127226708Y-101614504D01*
X127385496Y-101773292D01*
X127510255Y-101960007D01*
X127510256Y-101960009D01*
X127596191Y-102167475D01*
X127640000Y-102387718D01*
X127640000Y-102612282D01*
X127596191Y-102832525D01*
X127510256Y-103039991D01*
X127510255Y-103039993D01*
X127385496Y-103226708D01*
X127226708Y-103385496D01*
X127039993Y-103510255D01*
X127039992Y-103510256D01*
X127039991Y-103510256D01*
X126832525Y-103596191D01*
X126612282Y-103640000D01*
X126387718Y-103640000D01*
X126167475Y-103596191D01*
X125960009Y-103510256D01*
X125960008Y-103510256D01*
X125960007Y-103510255D01*
X125773292Y-103385496D01*
X125614504Y-103226708D01*
X125489745Y-103039993D01*
X125489744Y-103039991D01*
X125403809Y-102832525D01*
X125360000Y-102612282D01*
X125360000Y-102387718D01*
X125403809Y-102167475D01*
X125489744Y-101960009D01*
X125489745Y-101960007D01*
X125614504Y-101773292D01*
X125773292Y-101614504D01*
X125960007Y-101489745D01*
X125960009Y-101489744D01*
X126167475Y-101403809D01*
X126387718Y-101360000D01*
X126612282Y-101360000D01*
X126832525Y-101403809D01*
G37*
G36*
X165400000Y-103550000D02*
G01*
X164000000Y-103550000D01*
X164000000Y-102050000D01*
X165400000Y-102050000D01*
X165400000Y-103550000D01*
G37*
G36*
X163475000Y-103530000D02*
G01*
X160525000Y-103530000D01*
X160525000Y-102070000D01*
X163475000Y-102070000D01*
X163475000Y-103530000D01*
G37*
G36*
X173832525Y-101173809D02*
G01*
X174039991Y-101259744D01*
X174039993Y-101259745D01*
X174226708Y-101384504D01*
X174385496Y-101543292D01*
X174456796Y-101650000D01*
X174510256Y-101730009D01*
X174596191Y-101937475D01*
X174640000Y-102157718D01*
X174640000Y-102382282D01*
X174596191Y-102602525D01*
X174577919Y-102646637D01*
X174510255Y-102809993D01*
X174385496Y-102996708D01*
X174226708Y-103155496D01*
X174039993Y-103280255D01*
X174039992Y-103280256D01*
X174039991Y-103280256D01*
X173832525Y-103366191D01*
X173612282Y-103410000D01*
X173387718Y-103410000D01*
X173167475Y-103366191D01*
X172960009Y-103280256D01*
X172960008Y-103280256D01*
X172960007Y-103280255D01*
X172773292Y-103155496D01*
X172614504Y-102996708D01*
X172489745Y-102809993D01*
X172422081Y-102646637D01*
X172403809Y-102602525D01*
X172360000Y-102382282D01*
X172360000Y-102157718D01*
X172403809Y-101937475D01*
X172489744Y-101730009D01*
X172543204Y-101650000D01*
X172614504Y-101543292D01*
X172773292Y-101384504D01*
X172960007Y-101259745D01*
X172960009Y-101259744D01*
X173167475Y-101173809D01*
X173387718Y-101130000D01*
X173612282Y-101130000D01*
X173832525Y-101173809D01*
G37*
G36*
X172050000Y-102550000D02*
G01*
X170750000Y-102550000D01*
X170750000Y-101350000D01*
X172050000Y-101350000D01*
X172050000Y-102550000D01*
G37*
G36*
X135400000Y-102250000D02*
G01*
X134000000Y-102250000D01*
X134000000Y-100750000D01*
X135400000Y-100750000D01*
X135400000Y-102250000D01*
G37*
G36*
X139150000Y-102050000D02*
G01*
X136050000Y-102050000D01*
X136050000Y-99150000D01*
X139150000Y-99150000D01*
X139150000Y-102050000D01*
G37*
G36*
X170050000Y-101600000D02*
G01*
X168750000Y-101600000D01*
X168750000Y-100400000D01*
X170050000Y-100400000D01*
X170050000Y-101600000D01*
G37*
G36*
X126832525Y-98863809D02*
G01*
X127039991Y-98949744D01*
X127039993Y-98949745D01*
X127226708Y-99074504D01*
X127385496Y-99233292D01*
X127510255Y-99420007D01*
X127510256Y-99420009D01*
X127596191Y-99627475D01*
X127640000Y-99847718D01*
X127640000Y-100072282D01*
X127596191Y-100292525D01*
X127510256Y-100499991D01*
X127510255Y-100499993D01*
X127385496Y-100686708D01*
X127226708Y-100845496D01*
X127039993Y-100970255D01*
X127039992Y-100970256D01*
X127039991Y-100970256D01*
X126832525Y-101056191D01*
X126612282Y-101100000D01*
X126387718Y-101100000D01*
X126167475Y-101056191D01*
X125960009Y-100970256D01*
X125960008Y-100970256D01*
X125960007Y-100970255D01*
X125773292Y-100845496D01*
X125614504Y-100686708D01*
X125489745Y-100499993D01*
X125489744Y-100499991D01*
X125403809Y-100292525D01*
X125360000Y-100072282D01*
X125360000Y-99847718D01*
X125403809Y-99627475D01*
X125489744Y-99420009D01*
X125489745Y-99420007D01*
X125614504Y-99233292D01*
X125773292Y-99074504D01*
X125960007Y-98949745D01*
X125960009Y-98949744D01*
X126167475Y-98863809D01*
X126387718Y-98820000D01*
X126612282Y-98820000D01*
X126832525Y-98863809D01*
G37*
G36*
X132300000Y-101050000D02*
G01*
X130900000Y-101050000D01*
X130900000Y-99550000D01*
X132300000Y-99550000D01*
X132300000Y-101050000D01*
G37*
G36*
X173832525Y-98633809D02*
G01*
X174039991Y-98719744D01*
X174039993Y-98719745D01*
X174226708Y-98844504D01*
X174385496Y-99003292D01*
X174474622Y-99136679D01*
X174510256Y-99190009D01*
X174596191Y-99397475D01*
X174640000Y-99617718D01*
X174640000Y-99842282D01*
X174596191Y-100062525D01*
X174510256Y-100269991D01*
X174510255Y-100269993D01*
X174385496Y-100456708D01*
X174226708Y-100615496D01*
X174039993Y-100740255D01*
X174039992Y-100740256D01*
X174039991Y-100740256D01*
X173832525Y-100826191D01*
X173612282Y-100870000D01*
X173387718Y-100870000D01*
X173167475Y-100826191D01*
X172960009Y-100740256D01*
X172960008Y-100740256D01*
X172960007Y-100740255D01*
X172773292Y-100615496D01*
X172614504Y-100456708D01*
X172489745Y-100269993D01*
X172489744Y-100269991D01*
X172403809Y-100062525D01*
X172360000Y-99842282D01*
X172360000Y-99617718D01*
X172403809Y-99397475D01*
X172489744Y-99190009D01*
X172525378Y-99136679D01*
X172614504Y-99003292D01*
X172773292Y-98844504D01*
X172960007Y-98719745D01*
X172960009Y-98719744D01*
X173167475Y-98633809D01*
X173387718Y-98590000D01*
X173612282Y-98590000D01*
X173832525Y-98633809D01*
G37*
G36*
X172050000Y-100650000D02*
G01*
X170750000Y-100650000D01*
X170750000Y-99450000D01*
X172050000Y-99450000D01*
X172050000Y-100650000D01*
G37*
G36*
X135400000Y-100450000D02*
G01*
X134000000Y-100450000D01*
X134000000Y-98950000D01*
X135400000Y-98950000D01*
X135400000Y-100450000D01*
G37*
G36*
X158050000Y-99500000D02*
G01*
X156550000Y-99500000D01*
X156550000Y-98100000D01*
X158050000Y-98100000D01*
X158050000Y-99500000D01*
G37*
G36*
X159850000Y-99500000D02*
G01*
X158350000Y-99500000D01*
X158350000Y-98100000D01*
X159850000Y-98100000D01*
X159850000Y-99500000D01*
G37*
G36*
X140750000Y-97200000D02*
G01*
X139574999Y-97200000D01*
X139550613Y-97202402D01*
X139527164Y-97209515D01*
X139505553Y-97221066D01*
X139486611Y-97236611D01*
X139471066Y-97255553D01*
X139459515Y-97277164D01*
X139452402Y-97300613D01*
X139450000Y-97324999D01*
X139450000Y-98800000D01*
X137950000Y-98800000D01*
X137950000Y-97400000D01*
X139125001Y-97400000D01*
X139149387Y-97397598D01*
X139172836Y-97390485D01*
X139194447Y-97378934D01*
X139213389Y-97363389D01*
X139228934Y-97344447D01*
X139240485Y-97322836D01*
X139247598Y-97299387D01*
X139250000Y-97275001D01*
X139250000Y-95800000D01*
X140750000Y-95800000D01*
X140750000Y-97200000D01*
G37*
G36*
X137650000Y-98800000D02*
G01*
X136150000Y-98800000D01*
X136150000Y-97400000D01*
X137650000Y-97400000D01*
X137650000Y-98800000D01*
G37*
G36*
X173832525Y-96093809D02*
G01*
X174039991Y-96179744D01*
X174039993Y-96179745D01*
X174226708Y-96304504D01*
X174385496Y-96463292D01*
X174510255Y-96650007D01*
X174510256Y-96650009D01*
X174596191Y-96857475D01*
X174640000Y-97077718D01*
X174640000Y-97302282D01*
X174596191Y-97522525D01*
X174510256Y-97729991D01*
X174510255Y-97729993D01*
X174385496Y-97916708D01*
X174226708Y-98075496D01*
X174039993Y-98200255D01*
X174039992Y-98200256D01*
X174039991Y-98200256D01*
X173832525Y-98286191D01*
X173612282Y-98330000D01*
X173387718Y-98330000D01*
X173167475Y-98286191D01*
X172960009Y-98200256D01*
X172960008Y-98200256D01*
X172960007Y-98200255D01*
X172773292Y-98075496D01*
X172614504Y-97916708D01*
X172489745Y-97729993D01*
X172489744Y-97729991D01*
X172403809Y-97522525D01*
X172360000Y-97302282D01*
X172360000Y-97077718D01*
X172403809Y-96857475D01*
X172489744Y-96650009D01*
X172489745Y-96650007D01*
X172614504Y-96463292D01*
X172773292Y-96304504D01*
X172960007Y-96179745D01*
X172960009Y-96179744D01*
X173167475Y-96093809D01*
X173387718Y-96050000D01*
X173612282Y-96050000D01*
X173832525Y-96093809D01*
G37*
G36*
X158050000Y-97800000D02*
G01*
X156550000Y-97800000D01*
X156550000Y-96400000D01*
X158050000Y-96400000D01*
X158050000Y-97800000D01*
G37*
G36*
X159850000Y-97800000D02*
G01*
X158350000Y-97800000D01*
X158350000Y-96400000D01*
X159850000Y-96400000D01*
X159850000Y-97800000D01*
G37*
G36*
X164400000Y-97750000D02*
G01*
X163000000Y-97750000D01*
X163000000Y-96250000D01*
X164400000Y-96250000D01*
X164400000Y-97750000D01*
G37*
G36*
X145687749Y-95400629D02*
G01*
X145712251Y-95400629D01*
X145718638Y-95400000D01*
X146181362Y-95400000D01*
X146187749Y-95400629D01*
X146212251Y-95400629D01*
X146218638Y-95400000D01*
X146681362Y-95400000D01*
X146687749Y-95400629D01*
X146712251Y-95400629D01*
X146718638Y-95400000D01*
X147181362Y-95400000D01*
X147187749Y-95400629D01*
X147212251Y-95400629D01*
X147218638Y-95400000D01*
X147681362Y-95400000D01*
X147687749Y-95400629D01*
X147712251Y-95400629D01*
X147718638Y-95400000D01*
X148181362Y-95400000D01*
X148187749Y-95400629D01*
X148212251Y-95400629D01*
X148218638Y-95400000D01*
X148681362Y-95400000D01*
X148687749Y-95400629D01*
X148712251Y-95400629D01*
X148718638Y-95400000D01*
X149181362Y-95400000D01*
X149187749Y-95400629D01*
X149212251Y-95400629D01*
X149218638Y-95400000D01*
X149681362Y-95400000D01*
X149687749Y-95400629D01*
X149712251Y-95400629D01*
X149718638Y-95400000D01*
X150181362Y-95400000D01*
X150187749Y-95400629D01*
X150212251Y-95400629D01*
X150218638Y-95400000D01*
X150681362Y-95400000D01*
X150687749Y-95400629D01*
X150712251Y-95400629D01*
X150718638Y-95400000D01*
X151181362Y-95400000D01*
X151187749Y-95400629D01*
X151212251Y-95400629D01*
X151218638Y-95400000D01*
X151681362Y-95400000D01*
X151687749Y-95400629D01*
X151712251Y-95400629D01*
X151718638Y-95400000D01*
X152181362Y-95400000D01*
X152187749Y-95400629D01*
X152212251Y-95400629D01*
X152218638Y-95400000D01*
X152681362Y-95400000D01*
X152687749Y-95400629D01*
X152712251Y-95400629D01*
X152718638Y-95400000D01*
X153181362Y-95400000D01*
X153209327Y-95402754D01*
X153230322Y-95409123D01*
X153249664Y-95419462D01*
X153266622Y-95433378D01*
X153280538Y-95450336D01*
X153290877Y-95469678D01*
X153297246Y-95490673D01*
X153300000Y-95518638D01*
X153300000Y-97231362D01*
X153297246Y-97259327D01*
X153290877Y-97280322D01*
X153280538Y-97299664D01*
X153266622Y-97316622D01*
X153249664Y-97330538D01*
X153230322Y-97340877D01*
X153209327Y-97347246D01*
X153181362Y-97350000D01*
X152718638Y-97350000D01*
X152712251Y-97349371D01*
X152687749Y-97349371D01*
X152681362Y-97350000D01*
X152218638Y-97350000D01*
X152212251Y-97349371D01*
X152187749Y-97349371D01*
X152181362Y-97350000D01*
X151718638Y-97350000D01*
X151712251Y-97349371D01*
X151687749Y-97349371D01*
X151681362Y-97350000D01*
X151218638Y-97350000D01*
X151212251Y-97349371D01*
X151187749Y-97349371D01*
X151181362Y-97350000D01*
X150718638Y-97350000D01*
X150712251Y-97349371D01*
X150687749Y-97349371D01*
X150681362Y-97350000D01*
X150218638Y-97350000D01*
X150212251Y-97349371D01*
X150187749Y-97349371D01*
X150181362Y-97350000D01*
X149718638Y-97350000D01*
X149712251Y-97349371D01*
X149687749Y-97349371D01*
X149681362Y-97350000D01*
X149218638Y-97350000D01*
X149212251Y-97349371D01*
X149187749Y-97349371D01*
X149181362Y-97350000D01*
X148718638Y-97350000D01*
X148712251Y-97349371D01*
X148687749Y-97349371D01*
X148681362Y-97350000D01*
X148218638Y-97350000D01*
X148212251Y-97349371D01*
X148187749Y-97349371D01*
X148181362Y-97350000D01*
X147718638Y-97350000D01*
X147712251Y-97349371D01*
X147687749Y-97349371D01*
X147681362Y-97350000D01*
X147218638Y-97350000D01*
X147212251Y-97349371D01*
X147187749Y-97349371D01*
X147181362Y-97350000D01*
X146718638Y-97350000D01*
X146712251Y-97349371D01*
X146687749Y-97349371D01*
X146681362Y-97350000D01*
X146218638Y-97350000D01*
X146212251Y-97349371D01*
X146187749Y-97349371D01*
X146181362Y-97350000D01*
X145718638Y-97350000D01*
X145712251Y-97349371D01*
X145687749Y-97349371D01*
X145681362Y-97350000D01*
X145218638Y-97350000D01*
X145190673Y-97347246D01*
X145169678Y-97340877D01*
X145150336Y-97330538D01*
X145133378Y-97316622D01*
X145119462Y-97299664D01*
X145109123Y-97280322D01*
X145102754Y-97259327D01*
X145100000Y-97231362D01*
X145100000Y-95518638D01*
X145102754Y-95490673D01*
X145109123Y-95469678D01*
X145119462Y-95450336D01*
X145133378Y-95433378D01*
X145150336Y-95419462D01*
X145169678Y-95409123D01*
X145190673Y-95402754D01*
X145218638Y-95400000D01*
X145681362Y-95400000D01*
X145687749Y-95400629D01*
G37*
G36*
X142550000Y-97200000D02*
G01*
X141050000Y-97200000D01*
X141050000Y-95800000D01*
X142550000Y-95800000D01*
X142550000Y-97200000D01*
G37*
G36*
X164400000Y-95950000D02*
G01*
X163000000Y-95950000D01*
X163000000Y-94450000D01*
X164400000Y-94450000D01*
X164400000Y-95950000D01*
G37*
G36*
X171000000Y-95450000D02*
G01*
X169600000Y-95450000D01*
X169600000Y-93950000D01*
X171000000Y-93950000D01*
X171000000Y-95450000D01*
G37*
G36*
X172700000Y-95450000D02*
G01*
X171300000Y-95450000D01*
X171300000Y-93950000D01*
X172700000Y-93950000D01*
X172700000Y-95450000D01*
G37*
G36*
X144550000Y-94800000D02*
G01*
X143050000Y-94800000D01*
X143050000Y-93400000D01*
X144550000Y-93400000D01*
X144550000Y-94800000D01*
G37*
G36*
X146350000Y-94800000D02*
G01*
X144850000Y-94800000D01*
X144850000Y-93400000D01*
X146350000Y-93400000D01*
X146350000Y-94800000D01*
G37*
G36*
X140750000Y-94800000D02*
G01*
X139250000Y-94800000D01*
X139250000Y-93400000D01*
X140750000Y-93400000D01*
X140750000Y-94800000D01*
G37*
G36*
X142550000Y-94800000D02*
G01*
X141050000Y-94800000D01*
X141050000Y-93400000D01*
X142550000Y-93400000D01*
X142550000Y-94800000D01*
G37*
G36*
X171000000Y-93650000D02*
G01*
X169600000Y-93650000D01*
X169600000Y-92150000D01*
X170925001Y-92150000D01*
X170949387Y-92147598D01*
X170972836Y-92140485D01*
X170994447Y-92128934D01*
X171000000Y-92124377D01*
X171000000Y-93650000D01*
G37*
G36*
X172950000Y-91960000D02*
G01*
X172824999Y-91960000D01*
X172800613Y-91962402D01*
X172777164Y-91969515D01*
X172755553Y-91981066D01*
X172736611Y-91996611D01*
X172721066Y-92015553D01*
X172709515Y-92037164D01*
X172702402Y-92060613D01*
X172700000Y-92084999D01*
X172700000Y-93650000D01*
X171300000Y-93650000D01*
X171300000Y-92084999D01*
X171297598Y-92060613D01*
X171290485Y-92037164D01*
X171278934Y-92015553D01*
X171263389Y-91996611D01*
X171244447Y-91981066D01*
X171222836Y-91969515D01*
X171199387Y-91962402D01*
X171175001Y-91960000D01*
X171124999Y-91960000D01*
X171100613Y-91962402D01*
X171077164Y-91969515D01*
X171055553Y-91981066D01*
X171050000Y-91985623D01*
X171050000Y-89660000D01*
X172950000Y-89660000D01*
X172950000Y-91960000D01*
G37*
G36*
X153700000Y-92850000D02*
G01*
X152300000Y-92850000D01*
X152300000Y-91350000D01*
X153700000Y-91350000D01*
X153700000Y-92850000D01*
G37*
G36*
X155500000Y-92850000D02*
G01*
X154100000Y-92850000D01*
X154100000Y-91350000D01*
X155500000Y-91350000D01*
X155500000Y-92850000D01*
G37*
G36*
X126832525Y-90173809D02*
G01*
X127039991Y-90259744D01*
X127039993Y-90259745D01*
X127226708Y-90384504D01*
X127385496Y-90543292D01*
X127510255Y-90730007D01*
X127510256Y-90730009D01*
X127596191Y-90937475D01*
X127640000Y-91157718D01*
X127640000Y-91382282D01*
X127596191Y-91602525D01*
X127510256Y-91809991D01*
X127510255Y-91809993D01*
X127385496Y-91996708D01*
X127226708Y-92155496D01*
X127039993Y-92280255D01*
X127039992Y-92280256D01*
X127039991Y-92280256D01*
X126832525Y-92366191D01*
X126612282Y-92410000D01*
X126387718Y-92410000D01*
X126167475Y-92366191D01*
X125960009Y-92280256D01*
X125960008Y-92280256D01*
X125960007Y-92280255D01*
X125773292Y-92155496D01*
X125614504Y-91996708D01*
X125489745Y-91809993D01*
X125489744Y-91809991D01*
X125403809Y-91602525D01*
X125360000Y-91382282D01*
X125360000Y-91157718D01*
X125403809Y-90937475D01*
X125489744Y-90730009D01*
X125489745Y-90730007D01*
X125614504Y-90543292D01*
X125773292Y-90384504D01*
X125960007Y-90259745D01*
X125960009Y-90259744D01*
X126167475Y-90173809D01*
X126387718Y-90130000D01*
X126612282Y-90130000D01*
X126832525Y-90173809D01*
G37*
G36*
X163900000Y-92050000D02*
G01*
X162800000Y-92050000D01*
X162800000Y-91050000D01*
X163900000Y-91050000D01*
X163900000Y-92050000D01*
G37*
G36*
X161800000Y-92050000D02*
G01*
X160700000Y-92050000D01*
X160700000Y-91050000D01*
X161800000Y-91050000D01*
X161800000Y-92050000D01*
G37*
G36*
X157500000Y-91950000D02*
G01*
X156100000Y-91950000D01*
X156100000Y-90450000D01*
X157500000Y-90450000D01*
X157500000Y-91950000D01*
G37*
G36*
X149650000Y-91300000D02*
G01*
X148374999Y-91300000D01*
X148350613Y-91302402D01*
X148327164Y-91309515D01*
X148305553Y-91321066D01*
X148286611Y-91336611D01*
X148271066Y-91355553D01*
X148259515Y-91377164D01*
X148252402Y-91400613D01*
X148250000Y-91424999D01*
X148250000Y-91900000D01*
X138350000Y-91900000D01*
X138350000Y-89900000D01*
X147925001Y-89900000D01*
X147949387Y-89897598D01*
X147972836Y-89890485D01*
X147994447Y-89878934D01*
X148013389Y-89863389D01*
X148028934Y-89844447D01*
X148040485Y-89822836D01*
X148047598Y-89799387D01*
X148050000Y-89775001D01*
X148050000Y-89500000D01*
X149650000Y-89500000D01*
X149650000Y-91300000D01*
G37*
G36*
X134500000Y-91400000D02*
G01*
X132700000Y-91400000D01*
X132700000Y-89400000D01*
X134500000Y-89400000D01*
X134500000Y-91400000D01*
G37*
G36*
X153700000Y-91050000D02*
G01*
X152300000Y-91050000D01*
X152300000Y-89550000D01*
X153700000Y-89550000D01*
X153700000Y-91050000D01*
G37*
G36*
X155500000Y-91050000D02*
G01*
X154100000Y-91050000D01*
X154100000Y-89550000D01*
X155500000Y-89550000D01*
X155500000Y-91050000D01*
G37*
G36*
X161800000Y-90550000D02*
G01*
X160700000Y-90550000D01*
X160700000Y-89150000D01*
X161800000Y-89150000D01*
X161800000Y-90550000D01*
G37*
G36*
X157500000Y-90150000D02*
G01*
X156100000Y-90150000D01*
X156100000Y-88650000D01*
X157500000Y-88650000D01*
X157500000Y-90150000D01*
G37*
G36*
X163900000Y-90150000D02*
G01*
X162800000Y-90150000D01*
X162800000Y-89150000D01*
X163900000Y-89150000D01*
X163900000Y-90150000D01*
G37*
G36*
X126832525Y-87633809D02*
G01*
X127039991Y-87719744D01*
X127039993Y-87719745D01*
X127226708Y-87844504D01*
X127385496Y-88003292D01*
X127416705Y-88050000D01*
X127510256Y-88190009D01*
X127596191Y-88397475D01*
X127640000Y-88617718D01*
X127640000Y-88842282D01*
X127596191Y-89062525D01*
X127510256Y-89269991D01*
X127510255Y-89269993D01*
X127385496Y-89456708D01*
X127226708Y-89615496D01*
X127039993Y-89740255D01*
X127039992Y-89740256D01*
X127039991Y-89740256D01*
X126832525Y-89826191D01*
X126612282Y-89870000D01*
X126387718Y-89870000D01*
X126167475Y-89826191D01*
X125960009Y-89740256D01*
X125960008Y-89740256D01*
X125960007Y-89740255D01*
X125773292Y-89615496D01*
X125614504Y-89456708D01*
X125489745Y-89269993D01*
X125489744Y-89269991D01*
X125403809Y-89062525D01*
X125360000Y-88842282D01*
X125360000Y-88617718D01*
X125403809Y-88397475D01*
X125489744Y-88190009D01*
X125583295Y-88050000D01*
X125614504Y-88003292D01*
X125773292Y-87844504D01*
X125960007Y-87719745D01*
X125960009Y-87719744D01*
X126167475Y-87633809D01*
X126387718Y-87590000D01*
X126612282Y-87590000D01*
X126832525Y-87633809D01*
G37*
G36*
X169945843Y-84619214D02*
G01*
X169945846Y-84619215D01*
X169945845Y-84619215D01*
X170036839Y-84656906D01*
X170078063Y-84684451D01*
X170118730Y-84711624D01*
X170188376Y-84781270D01*
X170243095Y-84863163D01*
X170280786Y-84954157D01*
X170300000Y-85050753D01*
X170300000Y-85149247D01*
X170280786Y-85245843D01*
X170243095Y-85336837D01*
X170221066Y-85369806D01*
X170209515Y-85391417D01*
X170202402Y-85414866D01*
X170200000Y-85439252D01*
X170200000Y-88560748D01*
X170202402Y-88585134D01*
X170209515Y-88608583D01*
X170221066Y-88630194D01*
X170243095Y-88663163D01*
X170280786Y-88754157D01*
X170300000Y-88850753D01*
X170300000Y-88949247D01*
X170280786Y-89045843D01*
X170243095Y-89136837D01*
X170243094Y-89136839D01*
X170188375Y-89218731D01*
X170118731Y-89288375D01*
X170036839Y-89343094D01*
X170036838Y-89343095D01*
X170036837Y-89343095D01*
X169945843Y-89380786D01*
X169849247Y-89400000D01*
X169750753Y-89400000D01*
X169654157Y-89380786D01*
X169563163Y-89343095D01*
X169563162Y-89343095D01*
X169563161Y-89343094D01*
X169481269Y-89288375D01*
X169411625Y-89218731D01*
X169356906Y-89136839D01*
X169356905Y-89136837D01*
X169319214Y-89045843D01*
X169300000Y-88949247D01*
X169300000Y-88850752D01*
X169300272Y-88849384D01*
X169302674Y-88824997D01*
X169300272Y-88800611D01*
X169293158Y-88777162D01*
X169281607Y-88755552D01*
X169266062Y-88736610D01*
X169247119Y-88721065D01*
X169225509Y-88709514D01*
X169202060Y-88702402D01*
X169177675Y-88700000D01*
X168400000Y-88700000D01*
X168400000Y-85300000D01*
X169177675Y-85300000D01*
X169202061Y-85297598D01*
X169225510Y-85290485D01*
X169247121Y-85278934D01*
X169266063Y-85263389D01*
X169281608Y-85244447D01*
X169293159Y-85222836D01*
X169300272Y-85199387D01*
X169302674Y-85175001D01*
X169300272Y-85150616D01*
X169300000Y-85149248D01*
X169300000Y-85050753D01*
X169319214Y-84954157D01*
X169356905Y-84863163D01*
X169411624Y-84781270D01*
X169481270Y-84711624D01*
X169521937Y-84684451D01*
X169563161Y-84656906D01*
X169654155Y-84619215D01*
X169654154Y-84619215D01*
X169654157Y-84619214D01*
X169750753Y-84600000D01*
X169849247Y-84600000D01*
X169945843Y-84619214D01*
G37*
G36*
X167550000Y-88800000D02*
G01*
X166050000Y-88800000D01*
X166050000Y-85800000D01*
X167550000Y-85800000D01*
X167550000Y-88800000D01*
G37*
G36*
X165750000Y-88800000D02*
G01*
X164250000Y-88800000D01*
X164250000Y-85800000D01*
X165750000Y-85800000D01*
X165750000Y-88800000D01*
G37*
G36*
X152750000Y-88600000D02*
G01*
X151250000Y-88600000D01*
X151250000Y-87200000D01*
X152750000Y-87200000D01*
X152750000Y-88600000D01*
G37*
G36*
X150950000Y-88600000D02*
G01*
X149450000Y-88600000D01*
X149450000Y-87200000D01*
X150950000Y-87200000D01*
X150950000Y-88600000D01*
G37*
G36*
X160600000Y-87050000D02*
G01*
X159600000Y-87050000D01*
X159600000Y-85350000D01*
X160600000Y-85350000D01*
X160600000Y-87050000D01*
G37*
G36*
X158900000Y-87050000D02*
G01*
X157900000Y-87050000D01*
X157900000Y-85350000D01*
X158900000Y-85350000D01*
X158900000Y-87050000D01*
G37*
G36*
X165750000Y-85500000D02*
G01*
X164250000Y-85500000D01*
X164250000Y-84100000D01*
X165750000Y-84100000D01*
X165750000Y-85500000D01*
G37*
G36*
X167550000Y-85500000D02*
G01*
X166050000Y-85500000D01*
X166050000Y-84100000D01*
X167550000Y-84100000D01*
X167550000Y-85500000D01*
G37*
G36*
X172950000Y-84340000D02*
G01*
X171050000Y-84340000D01*
X171050000Y-82040000D01*
X172950000Y-82040000D01*
X172950000Y-84340000D01*
G37*
G36*
X149650000Y-82100000D02*
G01*
X148050000Y-82100000D01*
X148050000Y-79500000D01*
X149650000Y-79500000D01*
X149650000Y-82100000D01*
G37*
G36*
X134150000Y-82100000D02*
G01*
X132550000Y-82100000D01*
X132550000Y-79500000D01*
X134150000Y-79500000D01*
X134150000Y-82100000D01*
G37*
G36*
X159825000Y-81900000D02*
G01*
X158925000Y-81900000D01*
X158925000Y-79700000D01*
X159825000Y-79700000D01*
X159825000Y-81900000D01*
G37*
G36*
X158575000Y-81900000D02*
G01*
X157675000Y-81900000D01*
X157675000Y-79700000D01*
X158575000Y-79700000D01*
X158575000Y-81900000D01*
G37*
G36*
X162325000Y-81900000D02*
G01*
X161425000Y-81900000D01*
X161425000Y-79700000D01*
X162325000Y-79700000D01*
X162325000Y-81900000D01*
G37*
G36*
X161075000Y-81900000D02*
G01*
X160175000Y-81900000D01*
X160175000Y-79700000D01*
X161075000Y-79700000D01*
X161075000Y-81900000D01*
G37*
G36*
X146254182Y-79726900D02*
G01*
X146381573Y-79779667D01*
X146381574Y-79779668D01*
X146496224Y-79856274D01*
X146593726Y-79953776D01*
X146593727Y-79953778D01*
X146670333Y-80068427D01*
X146723100Y-80195818D01*
X146750000Y-80331055D01*
X146750000Y-80468945D01*
X146723100Y-80604182D01*
X146670333Y-80731573D01*
X146670332Y-80731574D01*
X146593726Y-80846224D01*
X146496224Y-80943726D01*
X146438510Y-80982289D01*
X146381573Y-81020333D01*
X146254182Y-81073100D01*
X146118945Y-81100000D01*
X145981055Y-81100000D01*
X145845818Y-81073100D01*
X145718427Y-81020333D01*
X145661490Y-80982289D01*
X145603776Y-80943726D01*
X145506274Y-80846224D01*
X145429668Y-80731574D01*
X145429667Y-80731573D01*
X145376900Y-80604182D01*
X145350000Y-80468945D01*
X145350000Y-80331055D01*
X145376900Y-80195818D01*
X145429667Y-80068427D01*
X145506273Y-79953778D01*
X145506274Y-79953776D01*
X145603776Y-79856274D01*
X145718426Y-79779668D01*
X145718427Y-79779667D01*
X145845818Y-79726900D01*
X145981055Y-79700000D01*
X146118945Y-79700000D01*
X146254182Y-79726900D01*
G37*
G36*
X138254182Y-79726900D02*
G01*
X138381573Y-79779667D01*
X138381574Y-79779668D01*
X138496224Y-79856274D01*
X138593726Y-79953776D01*
X138593727Y-79953778D01*
X138670333Y-80068427D01*
X138723100Y-80195818D01*
X138750000Y-80331055D01*
X138750000Y-80468945D01*
X138723100Y-80604182D01*
X138670333Y-80731573D01*
X138670332Y-80731574D01*
X138593726Y-80846224D01*
X138496224Y-80943726D01*
X138438510Y-80982289D01*
X138381573Y-81020333D01*
X138254182Y-81073100D01*
X138118945Y-81100000D01*
X137981055Y-81100000D01*
X137845818Y-81073100D01*
X137718427Y-81020333D01*
X137661490Y-80982289D01*
X137603776Y-80943726D01*
X137506274Y-80846224D01*
X137429668Y-80731574D01*
X137429667Y-80731573D01*
X137376900Y-80604182D01*
X137350000Y-80468945D01*
X137350000Y-80331055D01*
X137376900Y-80195818D01*
X137429667Y-80068427D01*
X137506273Y-79953778D01*
X137506274Y-79953776D01*
X137603776Y-79856274D01*
X137718426Y-79779668D01*
X137718427Y-79779667D01*
X137845818Y-79726900D01*
X137981055Y-79700000D01*
X138118945Y-79700000D01*
X138254182Y-79726900D01*
G37*
G36*
X165675000Y-79300000D02*
G01*
X163175000Y-79300000D01*
X163175000Y-75900000D01*
X165675000Y-75900000D01*
X165675000Y-79300000D01*
G37*
G36*
X156825000Y-79300000D02*
G01*
X154325000Y-79300000D01*
X154325000Y-75900000D01*
X156825000Y-75900000D01*
X156825000Y-79300000D01*
G37*
G36*
X127841408Y-75783625D02*
G01*
X128010456Y-75817251D01*
X128328936Y-75949170D01*
X128615560Y-76140686D01*
X128859314Y-76384440D01*
X129050830Y-76671064D01*
X129182749Y-76989544D01*
X129250000Y-77327640D01*
X129250000Y-77672360D01*
X129182749Y-78010456D01*
X129050830Y-78328936D01*
X128859314Y-78615560D01*
X128615560Y-78859314D01*
X128328936Y-79050830D01*
X128010456Y-79182749D01*
X127841408Y-79216374D01*
X127672361Y-79250000D01*
X127327639Y-79250000D01*
X127158592Y-79216374D01*
X126989544Y-79182749D01*
X126671064Y-79050830D01*
X126384440Y-78859314D01*
X126140686Y-78615560D01*
X125949170Y-78328936D01*
X125817251Y-78010456D01*
X125750000Y-77672360D01*
X125750000Y-77327640D01*
X125817251Y-76989544D01*
X125949170Y-76671064D01*
X126140686Y-76384440D01*
X126384440Y-76140686D01*
X126671064Y-75949170D01*
X126989544Y-75817251D01*
X127158592Y-75783625D01*
X127327639Y-75750000D01*
X127672361Y-75750000D01*
X127841408Y-75783625D01*
G37*
G36*
X172841408Y-75783625D02*
G01*
X173010456Y-75817251D01*
X173328936Y-75949170D01*
X173615560Y-76140686D01*
X173859314Y-76384440D01*
X174050830Y-76671064D01*
X174182749Y-76989544D01*
X174250000Y-77327640D01*
X174250000Y-77672360D01*
X174182749Y-78010456D01*
X174050830Y-78328936D01*
X173859314Y-78615560D01*
X173615560Y-78859314D01*
X173328936Y-79050830D01*
X173010456Y-79182749D01*
X172841408Y-79216375D01*
X172672361Y-79250000D01*
X172327639Y-79250000D01*
X172158592Y-79216374D01*
X171989544Y-79182749D01*
X171671064Y-79050830D01*
X171384440Y-78859314D01*
X171140686Y-78615560D01*
X170949170Y-78328936D01*
X170817251Y-78010456D01*
X170750000Y-77672360D01*
X170750000Y-77327640D01*
X170817251Y-76989544D01*
X170949170Y-76671064D01*
X171140686Y-76384440D01*
X171384440Y-76140686D01*
X171671064Y-75949170D01*
X171989544Y-75817251D01*
X172158592Y-75783625D01*
X172327639Y-75750000D01*
X172672361Y-75750000D01*
X172841408Y-75783625D01*
G37*
M02*
