M48
; DRILL file {KiCad (5.1.2)-1} date 5/18/2019 14:14:31
; FORMAT={2:4/ absolute / inch / suppress leading zeros}
; #@! TF.CreationDate,2019-05-18T14:14:31+12:00
; #@! TF.GenerationSoftware,Kicad,Pcbnew,(5.1.2)-1
FMAT,2
INCH,TZ
T1C0.0118
T2C0.0138
T3C0.0157
T4C0.0197
T5C0.0236
T6C0.0394
T7C0.0236
T8C0.0394
T9C0.1220
%
G90
G05
T1
X56811Y-38898
X56929Y-40787
X58386Y-40512
X58898Y-39843
X59764Y-41732
X60118Y-41850
X60472Y-37992
X60748Y-37520
X60827Y-36969
X61024Y-38425
X64567Y-44764
X64567Y-45197
X64567Y-45630
X64724Y-36142
X66535Y-44882
X66535Y-45512
T2
X50472Y-46535
X51142Y-39606
X51220Y-44606
X51457Y-46102
X51496Y-44961
X52126Y-42244
X52480Y-36142
X52480Y-36614
X52913Y-41181
X52953Y-36142
X52953Y-36614
X53150Y-45630
X53228Y-34606
X53425Y-36142
X53425Y-36614
X53543Y-40866
X53543Y-42480
X53622Y-44961
X53701Y-43819
X54921Y-36417
X55079Y-42205
X55118Y-35197
X55276Y-42756
X55276Y-44961
X55354Y-41969
X55472Y-41575
X55591Y-38701
X55709Y-41102
X55827Y-37520
X55906Y-42126
X56142Y-42638
X56220Y-37047
X56319Y-43130
X56969Y-41299
X57205Y-43819
X57283Y-35236
X57283Y-41535
X57323Y-34646
X57520Y-41811
X57717Y-35236
X57913Y-43819
X57992Y-36654
X58150Y-35236
X58150Y-40984
X58189Y-41457
X58307Y-36654
X58307Y-37520
X58386Y-43819
X58661Y-36654
X58740Y-43819
X58937Y-36850
X59134Y-38858
X59173Y-39252
X59291Y-41850
X59370Y-38386
X59488Y-40945
X59488Y-41299
X59528Y-38898
X59547Y-43130
X59567Y-36339
X59685Y-40157
X59764Y-38386
X59764Y-40630
X59921Y-37244
X60236Y-36614
X60433Y-43169
X60945Y-36614
X61535Y-41890
X62756Y-37441
X63189Y-38661
X63730Y-32441
X64724Y-39409
X64961Y-37402
X64980Y-35295
X65276Y-35984
X65354Y-39409
X65728Y-38268
X66201Y-33445
X66260Y-35276
X66299Y-39764
X66339Y-36693
X67087Y-41969
X67126Y-39764
T3
X54016Y-38150
X55984Y-35197
X56299Y-45433
X56378Y-37992
X56850Y-35197
X56870Y-44902
X57008Y-32756
X57441Y-32323
X57953Y-32047
X59843Y-32283
X59843Y-33898
X59882Y-45630
X59961Y-30866
X60354Y-33465
X60945Y-35118
X61555Y-40197
X62047Y-41457
X62402Y-35118
X62402Y-35709
X64154Y-41732
X64370Y-46339
X64370Y-47283
X64409Y-36614
X65157Y-46024
X65709Y-44764
X65709Y-45630
X66142Y-46181
X67323Y-43268
T4
X51457Y-36299
X51850Y-34803
X52087Y-31850
X53937Y-34724
X54449Y-33740
X54449Y-35118
X54528Y-33307
X55315Y-34803
X55354Y-32638
X55827Y-34252
X56457Y-31496
X57421Y-30354
X58031Y-30866
X65787Y-42717
X65945Y-40787
X66850Y-44606
X66870Y-45787
X67559Y-44134
X67559Y-46280
X68268Y-44606
X68268Y-45787
X68543Y-45197
T5
X54646Y-34252
T6
X49803Y-34933
X49803Y-35933
X52587Y-47622
X53587Y-47622
X54587Y-47622
X55587Y-47622
X56587Y-47622
X57587Y-47622
X58587Y-47622
X59587Y-47622
X60587Y-47622
X61587Y-47622
X49803Y-39354
X49803Y-40354
X49803Y-41354
X49803Y-42791
X49803Y-43791
X49803Y-44791
X49803Y-45791
X52587Y-46622
X53587Y-46622
X54587Y-46622
X55587Y-46622
X56587Y-46622
X57587Y-46622
X58587Y-46622
X59587Y-46622
X60587Y-46622
X61587Y-46622
X52587Y-48622
X53587Y-48622
X54587Y-48622
X55587Y-48622
X56587Y-48622
X57587Y-48622
X58587Y-48622
X59587Y-48622
X60587Y-48622
X61587Y-48622
X62870Y-48622
X63870Y-48622
X64870Y-48622
X65870Y-48622
X68307Y-38264
X68307Y-39264
X68307Y-40264
X68307Y-41264
T7
X66850Y-33504
X66850Y-35000
T8
X54350Y-31654
X57500Y-31654
T9
X50197Y-30512
X50197Y-48228
X67913Y-30512
X67913Y-48228
T0
M30
