G04 #@! TF.GenerationSoftware,KiCad,Pcbnew,(5.0.0)*
G04 #@! TF.CreationDate,2018-08-31T18:23:00+12:00*
G04 #@! TF.ProjectId,SimpleFC,53696D706C6546432E6B696361645F70,rev?*
G04 #@! TF.SameCoordinates,Original*
G04 #@! TF.FileFunction,Soldermask,Bot*
G04 #@! TF.FilePolarity,Negative*
%FSLAX46Y46*%
G04 Gerber Fmt 4.6, Leading zero omitted, Abs format (unit mm)*
G04 Created by KiCad (PCBNEW (5.0.0)) date 08/31/18 18:23:00*
%MOMM*%
%LPD*%
G01*
G04 APERTURE LIST*
%ADD10R,2.200000X1.200000*%
%ADD11R,1.400000X1.500000*%
%ADD12R,1.500000X1.400000*%
%ADD13R,2.000000X2.000000*%
%ADD14R,1.650000X1.900000*%
%ADD15R,1.900000X1.650000*%
%ADD16R,1.400000X1.400000*%
%ADD17R,1.600000X1.300000*%
%ADD18R,1.300000X1.600000*%
%ADD19R,1.400000X1.070000*%
%ADD20R,1.200000X1.300000*%
%ADD21C,2.280000*%
%ADD22C,1.400000*%
%ADD23R,1.000000X1.600000*%
%ADD24R,2.300000X3.800000*%
%ADD25R,1.300000X1.200000*%
%ADD26R,0.625000X1.000000*%
%ADD27R,0.750000X1.250000*%
%ADD28R,1.250000X0.750000*%
%ADD29R,2.700000X2.700000*%
%ADD30R,1.500000X1.000000*%
%ADD31R,1.575000X1.575000*%
%ADD32R,1.000000X1.950000*%
%ADD33R,1.460000X1.050000*%
%ADD34R,1.950000X1.000000*%
%ADD35R,1.050000X1.460000*%
%ADD36R,0.850000X1.850000*%
%ADD37C,1.000000*%
%ADD38R,1.000000X0.800000*%
%ADD39R,2.600000X1.450000*%
%ADD40C,3.500000*%
G04 APERTURE END LIST*
D10*
G04 #@! TO.C,U12*
X165500000Y-101900000D03*
X165500000Y-103000000D03*
X165500000Y-104100000D03*
X165500000Y-105200000D03*
X165500000Y-106300000D03*
X165500000Y-107400000D03*
X165500000Y-108500000D03*
X165500000Y-111500000D03*
X165500000Y-112600000D03*
X165500000Y-113700000D03*
X165500000Y-114800000D03*
X165500000Y-115900000D03*
X153500000Y-115900000D03*
X153500000Y-114800000D03*
X153500000Y-113700000D03*
X153500000Y-112600000D03*
X153500000Y-111500000D03*
X153500000Y-108500000D03*
X153500000Y-107400000D03*
X153500000Y-106300000D03*
X153500000Y-105200000D03*
X153500000Y-104100000D03*
X153500000Y-103000000D03*
X153500000Y-101900000D03*
G04 #@! TD*
D11*
G04 #@! TO.C,C10*
X139700000Y-105600000D03*
X139700000Y-103800000D03*
G04 #@! TD*
G04 #@! TO.C,C11*
X137900000Y-105600000D03*
X137900000Y-103800000D03*
G04 #@! TD*
G04 #@! TO.C,C12*
X166800000Y-91400000D03*
X166800000Y-89600000D03*
G04 #@! TD*
G04 #@! TO.C,C13*
X166000000Y-99000000D03*
X166000000Y-97200000D03*
G04 #@! TD*
G04 #@! TO.C,C14*
X167900000Y-99000000D03*
X167900000Y-97200000D03*
G04 #@! TD*
G04 #@! TO.C,C15*
X169500000Y-97200000D03*
X169500000Y-99000000D03*
G04 #@! TD*
G04 #@! TO.C,C16*
X164400000Y-97200000D03*
X164400000Y-99000000D03*
G04 #@! TD*
G04 #@! TO.C,C17*
X160500000Y-96900000D03*
X160500000Y-95100000D03*
G04 #@! TD*
G04 #@! TO.C,C18*
X142300000Y-100100000D03*
X142300000Y-98300000D03*
G04 #@! TD*
G04 #@! TO.C,C19*
X142700000Y-104200000D03*
X142700000Y-102400000D03*
G04 #@! TD*
D12*
G04 #@! TO.C,C20*
X145300000Y-95500000D03*
X147100000Y-95500000D03*
G04 #@! TD*
G04 #@! TO.C,C21*
X147100000Y-97100000D03*
X145300000Y-97100000D03*
G04 #@! TD*
D11*
G04 #@! TO.C,C22*
X130600000Y-90200000D03*
X130600000Y-88400000D03*
G04 #@! TD*
D13*
G04 #@! TO.C,C23*
X133400000Y-84600000D03*
X137000000Y-84600000D03*
G04 #@! TD*
G04 #@! TO.C,C24*
X137000000Y-87000000D03*
X133400000Y-87000000D03*
G04 #@! TD*
D11*
G04 #@! TO.C,C25*
X135150000Y-97500000D03*
X135150000Y-99300000D03*
G04 #@! TD*
G04 #@! TO.C,C26*
X130700000Y-93300000D03*
X130700000Y-95100000D03*
G04 #@! TD*
D14*
G04 #@! TO.C,C27*
X140500000Y-84500000D03*
X140500000Y-87000000D03*
G04 #@! TD*
D15*
G04 #@! TO.C,C28*
X145850000Y-78400000D03*
X143350000Y-78400000D03*
G04 #@! TD*
D11*
G04 #@! TO.C,C30*
X152000000Y-85000000D03*
X152000000Y-83200000D03*
G04 #@! TD*
G04 #@! TO.C,C31*
X145900000Y-83200000D03*
X145900000Y-85000000D03*
G04 #@! TD*
D12*
G04 #@! TO.C,C32*
X150200000Y-81400000D03*
X148400000Y-81400000D03*
G04 #@! TD*
G04 #@! TO.C,C34*
X143700000Y-91000000D03*
X141900000Y-91000000D03*
G04 #@! TD*
G04 #@! TO.C,C36*
X139100000Y-114200000D03*
X137300000Y-114200000D03*
G04 #@! TD*
G04 #@! TO.C,C37*
X139100000Y-108600000D03*
X137300000Y-108600000D03*
G04 #@! TD*
G04 #@! TO.C,C38*
X131900000Y-114200000D03*
X133700000Y-114200000D03*
G04 #@! TD*
G04 #@! TO.C,C40*
X131900000Y-108600000D03*
X130100000Y-108600000D03*
G04 #@! TD*
D16*
G04 #@! TO.C,D1*
X130500000Y-86350000D03*
X130500000Y-83850000D03*
G04 #@! TD*
D17*
G04 #@! TO.C,D4*
X143400000Y-85000000D03*
X143400000Y-81700000D03*
G04 #@! TD*
D18*
G04 #@! TO.C,D5*
X154650000Y-87700000D03*
X151350000Y-87700000D03*
G04 #@! TD*
D19*
G04 #@! TO.C,D6*
X154500000Y-79225000D03*
X154500000Y-80975000D03*
G04 #@! TD*
G04 #@! TO.C,D7*
X163500000Y-80975000D03*
X163500000Y-79225000D03*
G04 #@! TD*
G04 #@! TO.C,D8*
X160500000Y-79225000D03*
X160500000Y-80975000D03*
G04 #@! TD*
G04 #@! TO.C,D9*
X157500000Y-80975000D03*
X157500000Y-79225000D03*
G04 #@! TD*
D20*
G04 #@! TO.C,D11*
X163500000Y-119000000D03*
X162550000Y-121000000D03*
X164450000Y-121000000D03*
G04 #@! TD*
D21*
G04 #@! TO.C,J1*
X126500000Y-88730000D03*
X126500000Y-91270000D03*
G04 #@! TD*
D22*
G04 #@! TO.C,J2*
X146050000Y-80400000D03*
X138050000Y-80400000D03*
G04 #@! TD*
D21*
G04 #@! TO.C,J3*
X173500000Y-104810000D03*
X173500000Y-102270000D03*
X173500000Y-99730000D03*
X173500000Y-97190000D03*
G04 #@! TD*
G04 #@! TO.C,J4*
X167310000Y-123500000D03*
X164770000Y-123500000D03*
X162230000Y-123500000D03*
X159690000Y-123500000D03*
G04 #@! TD*
G04 #@! TO.C,J11*
X126500000Y-116310000D03*
X126500000Y-113770000D03*
X126500000Y-111230000D03*
X126500000Y-108690000D03*
G04 #@! TD*
G04 #@! TO.C,J14*
X126500000Y-105040000D03*
X126500000Y-102500000D03*
X126500000Y-99960000D03*
G04 #@! TD*
D23*
G04 #@! TO.C,JP3*
X129100000Y-118200000D03*
X129900000Y-118200000D03*
X130700000Y-118200000D03*
G04 #@! TD*
D12*
G04 #@! TO.C,L1*
X134400000Y-105600000D03*
X136200000Y-105600000D03*
G04 #@! TD*
D24*
G04 #@! TO.C,L2*
X135320000Y-79600000D03*
X140880000Y-79600000D03*
G04 #@! TD*
D25*
G04 #@! TO.C,Q1*
X128600000Y-84250000D03*
X128600000Y-86150000D03*
X126600000Y-85200000D03*
G04 #@! TD*
D12*
G04 #@! TO.C,R1*
X148600000Y-88000000D03*
X146800000Y-88000000D03*
G04 #@! TD*
G04 #@! TO.C,R6*
X132800000Y-97800000D03*
X131000000Y-97800000D03*
G04 #@! TD*
D11*
G04 #@! TO.C,R7*
X138300000Y-92900000D03*
X138300000Y-91100000D03*
G04 #@! TD*
D12*
G04 #@! TO.C,R9*
X132300000Y-81900000D03*
X130500000Y-81900000D03*
G04 #@! TD*
D11*
G04 #@! TO.C,R10*
X138300000Y-96900000D03*
X138300000Y-95100000D03*
G04 #@! TD*
D12*
G04 #@! TO.C,R11*
X138500000Y-99300000D03*
X136700000Y-99300000D03*
G04 #@! TD*
D11*
G04 #@! TO.C,R13*
X154500000Y-82600000D03*
X154500000Y-84400000D03*
G04 #@! TD*
G04 #@! TO.C,R14*
X163500000Y-84400000D03*
X163500000Y-82600000D03*
G04 #@! TD*
G04 #@! TO.C,R15*
X160500000Y-82600000D03*
X160500000Y-84400000D03*
G04 #@! TD*
G04 #@! TO.C,R16*
X157500000Y-84400000D03*
X157500000Y-82600000D03*
G04 #@! TD*
G04 #@! TO.C,R17*
X135500000Y-112100000D03*
X135500000Y-110300000D03*
G04 #@! TD*
D12*
G04 #@! TO.C,R18*
X137300000Y-115900000D03*
X139100000Y-115900000D03*
G04 #@! TD*
D11*
G04 #@! TO.C,R20*
X130100000Y-110300000D03*
X130100000Y-112100000D03*
G04 #@! TD*
D12*
G04 #@! TO.C,R21*
X133700000Y-115900000D03*
X131900000Y-115900000D03*
G04 #@! TD*
D26*
G04 #@! TO.C,U2*
X167600000Y-95000000D03*
X167200000Y-95000000D03*
X166800000Y-95000000D03*
X166400000Y-95000000D03*
X166000000Y-95000000D03*
X166000000Y-93200000D03*
X166400000Y-93200000D03*
X166800000Y-93200000D03*
X167200000Y-93200000D03*
X167600000Y-93200000D03*
G04 #@! TD*
D27*
G04 #@! TO.C,U3*
X147550000Y-102750000D03*
X147050000Y-102750000D03*
X146550000Y-102750000D03*
X146050000Y-102750000D03*
X145550000Y-102750000D03*
X145050000Y-102750000D03*
D28*
X144350000Y-102050000D03*
X144350000Y-101550000D03*
X144350000Y-101050000D03*
X144350000Y-100550000D03*
X144350000Y-100050000D03*
X144350000Y-99550000D03*
D27*
X145050000Y-98850000D03*
X145550000Y-98850000D03*
X146050000Y-98850000D03*
X146550000Y-98850000D03*
X147050000Y-98850000D03*
X147550000Y-98850000D03*
D28*
X148250000Y-99550000D03*
X148250000Y-100050000D03*
X148250000Y-100550000D03*
X148250000Y-101050000D03*
X148250000Y-101550000D03*
X148250000Y-102050000D03*
D29*
X146300000Y-100800000D03*
G04 #@! TD*
D30*
G04 #@! TO.C,U4*
X158300000Y-94700000D03*
X158300000Y-95950000D03*
X158300000Y-97200000D03*
X158300000Y-98450000D03*
X156100000Y-98450000D03*
X156100000Y-97200000D03*
X156100000Y-95950000D03*
X156100000Y-94700000D03*
G04 #@! TD*
D31*
G04 #@! TO.C,U5*
X134500000Y-93000000D03*
X134500000Y-91800000D03*
D32*
X132595000Y-89700000D03*
X133865000Y-89700000D03*
X135135000Y-89700000D03*
X136405000Y-89700000D03*
X136405000Y-95100000D03*
X135135000Y-95100000D03*
X133865000Y-95100000D03*
X132595000Y-95100000D03*
D31*
X135700000Y-93000000D03*
X133300000Y-93000000D03*
X135700000Y-91800000D03*
X133300000Y-91800000D03*
G04 #@! TD*
D33*
G04 #@! TO.C,U6*
X148000000Y-85000000D03*
X148000000Y-84050000D03*
X148000000Y-83100000D03*
X150200000Y-83100000D03*
X150200000Y-85000000D03*
G04 #@! TD*
D34*
G04 #@! TO.C,U7*
X156900000Y-89195000D03*
X156900000Y-90465000D03*
X156900000Y-91735000D03*
X156900000Y-93005000D03*
X162300000Y-93005000D03*
X162300000Y-91735000D03*
X162300000Y-90465000D03*
X162300000Y-89195000D03*
G04 #@! TD*
D35*
G04 #@! TO.C,U8*
X137300000Y-112500000D03*
X139200000Y-112500000D03*
X139200000Y-110300000D03*
X138250000Y-110300000D03*
X137300000Y-110300000D03*
G04 #@! TD*
D36*
G04 #@! TO.C,U9*
X144075000Y-109550000D03*
X144725000Y-109550000D03*
X145375000Y-109550000D03*
X146025000Y-109550000D03*
X146675000Y-109550000D03*
X147325000Y-109550000D03*
X147975000Y-109550000D03*
X148625000Y-109550000D03*
X149275000Y-109550000D03*
X149925000Y-109550000D03*
X149925000Y-115450000D03*
X149275000Y-115450000D03*
X148625000Y-115450000D03*
X147975000Y-115450000D03*
X147325000Y-115450000D03*
X146675000Y-115450000D03*
X146025000Y-115450000D03*
X145375000Y-115450000D03*
X144725000Y-115450000D03*
X144075000Y-115450000D03*
G04 #@! TD*
D35*
G04 #@! TO.C,U10*
X131900000Y-110300000D03*
X132850000Y-110300000D03*
X133800000Y-110300000D03*
X133800000Y-112500000D03*
X131900000Y-112500000D03*
G04 #@! TD*
D37*
G04 #@! TO.C,J12*
X169800000Y-88900000D03*
X169800000Y-85100000D03*
G04 #@! TD*
D21*
G04 #@! TO.C,J5*
X156430000Y-118420000D03*
X133570000Y-118420000D03*
X136110000Y-118420000D03*
X138650000Y-118420000D03*
X141190000Y-118420000D03*
X143730000Y-118420000D03*
X146270000Y-118420000D03*
X148810000Y-118420000D03*
X151350000Y-118420000D03*
X153890000Y-118420000D03*
G04 #@! TD*
G04 #@! TO.C,J6*
X153890000Y-120960000D03*
X151350000Y-120960000D03*
X148810000Y-120960000D03*
X146270000Y-120960000D03*
X143730000Y-120960000D03*
X141190000Y-120960000D03*
X138650000Y-120960000D03*
X136110000Y-120960000D03*
X133570000Y-120960000D03*
X156430000Y-120960000D03*
G04 #@! TD*
G04 #@! TO.C,J7*
X156430000Y-123500000D03*
X133570000Y-123500000D03*
X136110000Y-123500000D03*
X138650000Y-123500000D03*
X141190000Y-123500000D03*
X143730000Y-123500000D03*
X146270000Y-123500000D03*
X148810000Y-123500000D03*
X151350000Y-123500000D03*
X153890000Y-123500000D03*
G04 #@! TD*
D12*
G04 #@! TO.C,C42*
X169600000Y-109900000D03*
X167800000Y-109900000D03*
G04 #@! TD*
D38*
G04 #@! TO.C,D13*
X168000000Y-115550000D03*
X168000000Y-116450000D03*
G04 #@! TD*
D39*
G04 #@! TO.C,J8*
X171600000Y-116275000D03*
X171600000Y-113325000D03*
D16*
X173100000Y-114800000D03*
X170100000Y-114800000D03*
G04 #@! TD*
D38*
G04 #@! TO.C,L3*
X168000000Y-114050000D03*
X168000000Y-113150000D03*
G04 #@! TD*
D12*
G04 #@! TO.C,R28*
X169600000Y-111600000D03*
X167800000Y-111600000D03*
G04 #@! TD*
D40*
G04 #@! TO.C,REF\002A\002A*
X127500000Y-77500000D03*
X172500000Y-77500000D03*
X172500000Y-122500000D03*
X127500000Y-122500000D03*
G04 #@! TD*
M02*
