G04 #@! TF.GenerationSoftware,KiCad,Pcbnew,(5.0.0)*
G04 #@! TF.CreationDate,2018-08-31T18:23:00+12:00*
G04 #@! TF.ProjectId,SimpleFC,53696D706C6546432E6B696361645F70,rev?*
G04 #@! TF.SameCoordinates,Original*
G04 #@! TF.FileFunction,Soldermask,Top*
G04 #@! TF.FilePolarity,Negative*
%FSLAX46Y46*%
G04 Gerber Fmt 4.6, Leading zero omitted, Abs format (unit mm)*
G04 Created by KiCad (PCBNEW (5.0.0)) date 08/31/18 18:23:00*
%MOMM*%
%LPD*%
G01*
G04 APERTURE LIST*
%ADD10R,1.400000X0.650000*%
%ADD11R,0.650000X1.400000*%
%ADD12R,1.400000X1.500000*%
%ADD13R,1.500000X1.400000*%
%ADD14R,1.300000X1.200000*%
%ADD15R,1.100000X1.400000*%
%ADD16R,1.100000X1.000000*%
%ADD17C,2.280000*%
%ADD18R,1.100000X2.000000*%
%ADD19R,1.600000X1.800000*%
%ADD20R,1.600000X2.600000*%
%ADD21R,1.800000X2.000000*%
%ADD22C,1.400000*%
%ADD23R,0.900000X2.200000*%
%ADD24R,2.500000X3.400000*%
%ADD25R,1.600000X1.000000*%
%ADD26R,1.000000X1.600000*%
%ADD27R,1.000000X0.800000*%
%ADD28R,1.300000X0.800000*%
%ADD29R,1.000000X1.950000*%
%ADD30R,3.100000X0.900000*%
%ADD31R,1.800000X0.800000*%
%ADD32R,1.900000X2.300000*%
%ADD33C,1.000000*%
%ADD34C,1.602436*%
%ADD35C,0.100000*%
%ADD36R,2.100000X4.500000*%
%ADD37R,1.400000X1.400000*%
%ADD38R,1.050000X1.460000*%
%ADD39C,3.500000*%
G04 APERTURE END LIST*
D10*
G04 #@! TO.C,U1*
X143500000Y-98300000D03*
X143500000Y-98800000D03*
X143500000Y-99300000D03*
X143500000Y-99800000D03*
X143500000Y-100300000D03*
X143500000Y-100800000D03*
X143500000Y-101300000D03*
X143500000Y-101800000D03*
X143500000Y-102300000D03*
X143500000Y-102800000D03*
X143500000Y-103300000D03*
X143500000Y-103800000D03*
X143500000Y-104300000D03*
X143500000Y-104800000D03*
X143500000Y-105300000D03*
X143500000Y-105800000D03*
D11*
X145450000Y-107750000D03*
X145950000Y-107750000D03*
X146450000Y-107750000D03*
X146950000Y-107750000D03*
X147450000Y-107750000D03*
X147950000Y-107750000D03*
X148450000Y-107750000D03*
X148950000Y-107750000D03*
X149450000Y-107750000D03*
X149950000Y-107750000D03*
X150450000Y-107750000D03*
X150950000Y-107750000D03*
X151450000Y-107750000D03*
X151950000Y-107750000D03*
X152450000Y-107750000D03*
X152950000Y-107750000D03*
D10*
X154900000Y-105800000D03*
X154900000Y-105300000D03*
X154900000Y-104800000D03*
X154900000Y-104300000D03*
X154900000Y-103800000D03*
X154900000Y-103300000D03*
X154900000Y-102800000D03*
X154900000Y-102300000D03*
X154900000Y-101800000D03*
X154900000Y-101300000D03*
X154900000Y-100800000D03*
X154900000Y-100300000D03*
X154900000Y-99800000D03*
X154900000Y-99300000D03*
X154900000Y-98800000D03*
X154900000Y-98300000D03*
D11*
X152950000Y-96350000D03*
X152450000Y-96350000D03*
X151950000Y-96350000D03*
X151450000Y-96350000D03*
X150950000Y-96350000D03*
X150450000Y-96350000D03*
X149950000Y-96350000D03*
X149450000Y-96350000D03*
X148950000Y-96350000D03*
X148450000Y-96350000D03*
X147950000Y-96350000D03*
X147450000Y-96350000D03*
X146950000Y-96350000D03*
X146450000Y-96350000D03*
X145950000Y-96350000D03*
X145450000Y-96350000D03*
G04 #@! TD*
D12*
G04 #@! TO.C,C1*
X134700000Y-101500000D03*
X134700000Y-99700000D03*
G04 #@! TD*
G04 #@! TO.C,C2*
X152000000Y-112600000D03*
X152000000Y-110800000D03*
G04 #@! TD*
D13*
G04 #@! TO.C,C3*
X159100000Y-98800000D03*
X157300000Y-98800000D03*
G04 #@! TD*
G04 #@! TO.C,C4*
X140000000Y-94100000D03*
X141800000Y-94100000D03*
G04 #@! TD*
G04 #@! TO.C,C5*
X141800000Y-96500000D03*
X140000000Y-96500000D03*
G04 #@! TD*
G04 #@! TO.C,C6*
X145300000Y-110300000D03*
X147100000Y-110300000D03*
G04 #@! TD*
D12*
G04 #@! TO.C,C7*
X153500000Y-110800000D03*
X153500000Y-112600000D03*
G04 #@! TD*
D13*
G04 #@! TO.C,C8*
X159100000Y-97100000D03*
X157300000Y-97100000D03*
G04 #@! TD*
G04 #@! TO.C,C9*
X145600000Y-94100000D03*
X143800000Y-94100000D03*
G04 #@! TD*
D12*
G04 #@! TO.C,C29*
X131600000Y-103800000D03*
X131600000Y-105600000D03*
G04 #@! TD*
G04 #@! TO.C,C33*
X156800000Y-89400000D03*
X156800000Y-91200000D03*
G04 #@! TD*
G04 #@! TO.C,C35*
X142600000Y-114100000D03*
X142600000Y-112300000D03*
G04 #@! TD*
D13*
G04 #@! TO.C,C39*
X156300000Y-108400000D03*
X158100000Y-108400000D03*
G04 #@! TD*
D12*
G04 #@! TO.C,C41*
X170300000Y-92900000D03*
X170300000Y-94700000D03*
G04 #@! TD*
D14*
G04 #@! TO.C,D2*
X135000000Y-111300000D03*
X137000000Y-110350000D03*
X137000000Y-112250000D03*
G04 #@! TD*
G04 #@! TO.C,D3*
X137000000Y-108650000D03*
X137000000Y-106750000D03*
X135000000Y-107700000D03*
G04 #@! TD*
G04 #@! TO.C,D10*
X169400000Y-101000000D03*
X171400000Y-100050000D03*
X171400000Y-101950000D03*
G04 #@! TD*
D15*
G04 #@! TO.C,D14*
X161250000Y-89850000D03*
D16*
X161250000Y-91550000D03*
X163350000Y-91550000D03*
X163350000Y-89650000D03*
G04 #@! TD*
D17*
G04 #@! TO.C,J1*
X126500000Y-88730000D03*
X126500000Y-91270000D03*
G04 #@! TD*
D18*
G04 #@! TO.C,J2*
X138900000Y-90900000D03*
X140000000Y-90900000D03*
X141100000Y-90900000D03*
X142200000Y-90900000D03*
X143300000Y-90900000D03*
X144400000Y-90900000D03*
X145500000Y-90900000D03*
X146600000Y-90900000D03*
D19*
X148850000Y-90400000D03*
D20*
X148850000Y-80800000D03*
D21*
X133600000Y-90400000D03*
D20*
X133350000Y-80800000D03*
D18*
X147700000Y-90900000D03*
D22*
X146050000Y-80400000D03*
X138050000Y-80400000D03*
G04 #@! TD*
D17*
G04 #@! TO.C,J3*
X173500000Y-104810000D03*
X173500000Y-102270000D03*
X173500000Y-99730000D03*
X173500000Y-97190000D03*
G04 #@! TD*
G04 #@! TO.C,J4*
X167310000Y-123500000D03*
X164770000Y-123500000D03*
X162230000Y-123500000D03*
X159690000Y-123500000D03*
G04 #@! TD*
G04 #@! TO.C,J11*
X126500000Y-116310000D03*
X126500000Y-113770000D03*
X126500000Y-111230000D03*
X126500000Y-108690000D03*
G04 #@! TD*
D23*
G04 #@! TO.C,J13*
X158125000Y-80800000D03*
X159375000Y-80800000D03*
X160625000Y-80800000D03*
X161875000Y-80800000D03*
D24*
X155575000Y-77600000D03*
X164425000Y-77600000D03*
G04 #@! TD*
D17*
G04 #@! TO.C,J14*
X126500000Y-105040000D03*
X126500000Y-102500000D03*
X126500000Y-99960000D03*
G04 #@! TD*
D25*
G04 #@! TO.C,JP1*
X170400000Y-105600000D03*
X170400000Y-104800000D03*
X170400000Y-104000000D03*
G04 #@! TD*
D26*
G04 #@! TO.C,JP2*
X130700000Y-118200000D03*
X129900000Y-118200000D03*
X129100000Y-118200000D03*
G04 #@! TD*
D12*
G04 #@! TO.C,R2*
X150300000Y-112600000D03*
X150300000Y-110800000D03*
G04 #@! TD*
G04 #@! TO.C,R3*
X131600000Y-100300000D03*
X131600000Y-102100000D03*
G04 #@! TD*
G04 #@! TO.C,R4*
X153000000Y-90300000D03*
X153000000Y-92100000D03*
G04 #@! TD*
G04 #@! TO.C,R5*
X154800000Y-92100000D03*
X154800000Y-90300000D03*
G04 #@! TD*
G04 #@! TO.C,R8*
X129900000Y-105600000D03*
X129900000Y-103800000D03*
G04 #@! TD*
G04 #@! TO.C,R12*
X133300000Y-105600000D03*
X133300000Y-103800000D03*
G04 #@! TD*
G04 #@! TO.C,R19*
X161200000Y-120700000D03*
X161200000Y-118900000D03*
G04 #@! TD*
D13*
G04 #@! TO.C,R22*
X166800000Y-86500000D03*
X165000000Y-86500000D03*
G04 #@! TD*
G04 #@! TO.C,R23*
X165000000Y-88100000D03*
X166800000Y-88100000D03*
G04 #@! TD*
D27*
G04 #@! TO.C,R24*
X158400000Y-85750000D03*
X158400000Y-86650000D03*
G04 #@! TD*
G04 #@! TO.C,R25*
X160100000Y-86650000D03*
X160100000Y-85750000D03*
G04 #@! TD*
D13*
G04 #@! TO.C,R26*
X165000000Y-84800000D03*
X166800000Y-84800000D03*
G04 #@! TD*
D12*
G04 #@! TO.C,R27*
X172000000Y-92900000D03*
X172000000Y-94700000D03*
G04 #@! TD*
D28*
G04 #@! TO.C,RN1*
X131600000Y-109100000D03*
X131600000Y-109900000D03*
X131600000Y-108300000D03*
X131600000Y-110700000D03*
X133300000Y-108300000D03*
X133300000Y-109100000D03*
X133300000Y-109900000D03*
X133300000Y-110700000D03*
G04 #@! TD*
D29*
G04 #@! TO.C,U11*
X159105000Y-110300000D03*
X157835000Y-110300000D03*
X156565000Y-110300000D03*
X155295000Y-110300000D03*
X155295000Y-115700000D03*
X156565000Y-115700000D03*
X157835000Y-115700000D03*
X159105000Y-115700000D03*
G04 #@! TD*
D30*
G04 #@! TO.C,X1*
X137600000Y-99600000D03*
X137600000Y-100600000D03*
X137600000Y-101600000D03*
G04 #@! TD*
D31*
G04 #@! TO.C,J12*
X169300000Y-87650000D03*
X169300000Y-87000000D03*
X169300000Y-85700000D03*
X169300000Y-86350000D03*
D32*
X172000000Y-90810000D03*
X172000000Y-83190000D03*
D31*
X169300000Y-88300000D03*
D33*
X169800000Y-88900000D03*
X169800000Y-85100000D03*
G04 #@! TD*
D17*
G04 #@! TO.C,J5*
X156430000Y-118420000D03*
X133570000Y-118420000D03*
X136110000Y-118420000D03*
X138650000Y-118420000D03*
X141190000Y-118420000D03*
X143730000Y-118420000D03*
X146270000Y-118420000D03*
X148810000Y-118420000D03*
X151350000Y-118420000D03*
X153890000Y-118420000D03*
G04 #@! TD*
G04 #@! TO.C,J6*
X153890000Y-120960000D03*
X151350000Y-120960000D03*
X148810000Y-120960000D03*
X146270000Y-120960000D03*
X143730000Y-120960000D03*
X141190000Y-120960000D03*
X138650000Y-120960000D03*
X136110000Y-120960000D03*
X133570000Y-120960000D03*
X156430000Y-120960000D03*
G04 #@! TD*
G04 #@! TO.C,J7*
X156430000Y-123500000D03*
X133570000Y-123500000D03*
X136110000Y-123500000D03*
X138650000Y-123500000D03*
X141190000Y-123500000D03*
X143730000Y-123500000D03*
X146270000Y-123500000D03*
X148810000Y-123500000D03*
X151350000Y-123500000D03*
X153890000Y-123500000D03*
G04 #@! TD*
D34*
G04 #@! TO.C,BT1*
X161500000Y-111300000D03*
D35*
G36*
X163785470Y-110499455D02*
X160699455Y-113585470D01*
X160698581Y-110616495D01*
X160816495Y-110498581D01*
X163785470Y-110499455D01*
X163785470Y-110499455D01*
G37*
D36*
X165500000Y-112750000D03*
G04 #@! TD*
D12*
G04 #@! TO.C,C43*
X164700000Y-102800000D03*
X164700000Y-104600000D03*
G04 #@! TD*
G04 #@! TO.C,C44*
X159300000Y-105000000D03*
X159300000Y-103200000D03*
G04 #@! TD*
D13*
G04 #@! TO.C,C45*
X161150000Y-106900000D03*
X162950000Y-106900000D03*
G04 #@! TD*
D37*
G04 #@! TO.C,D12*
X165200000Y-109400000D03*
X165200000Y-106900000D03*
G04 #@! TD*
D13*
G04 #@! TO.C,R29*
X161500000Y-109400000D03*
X163300000Y-109400000D03*
G04 #@! TD*
D38*
G04 #@! TO.C,U13*
X162950000Y-102800000D03*
X162000000Y-102800000D03*
X161050000Y-102800000D03*
X161050000Y-105000000D03*
X162950000Y-105000000D03*
G04 #@! TD*
D39*
G04 #@! TO.C,REF\002A\002A*
X127500000Y-77500000D03*
X172500000Y-77500000D03*
X172500000Y-122500000D03*
X127500000Y-122500000D03*
G04 #@! TD*
D13*
G04 #@! TO.C,R30*
X152000000Y-87900000D03*
X150200000Y-87900000D03*
G04 #@! TD*
D12*
G04 #@! TO.C,R31*
X163700000Y-97000000D03*
X163700000Y-95200000D03*
G04 #@! TD*
D13*
G04 #@! TO.C,R32*
X138700000Y-98100000D03*
X136900000Y-98100000D03*
G04 #@! TD*
M02*
