G04 #@! TF.GenerationSoftware,KiCad,Pcbnew,(5.1.5)-3*
G04 #@! TF.CreationDate,2020-01-29T21:37:39+13:00*
G04 #@! TF.ProjectId,SimpleFC,53696d70-6c65-4464-932e-6b696361645f,rev?*
G04 #@! TF.SameCoordinates,Original*
G04 #@! TF.FileFunction,Legend,Top*
G04 #@! TF.FilePolarity,Positive*
%FSLAX46Y46*%
G04 Gerber Fmt 4.6, Leading zero omitted, Abs format (unit mm)*
G04 Created by KiCad (PCBNEW (5.1.5)-3) date 2020-01-29 21:37:39*
%MOMM*%
%LPD*%
G04 APERTURE LIST*
%ADD10C,0.250000*%
%ADD11C,0.300000*%
%ADD12C,0.120000*%
%ADD13C,0.150000*%
%ADD14C,0.304800*%
G04 APERTURE END LIST*
D10*
X167970833Y-105852380D02*
X168589880Y-105852380D01*
X168256547Y-106233333D01*
X168399404Y-106233333D01*
X168494642Y-106280952D01*
X168542261Y-106328571D01*
X168589880Y-106423809D01*
X168589880Y-106661904D01*
X168542261Y-106757142D01*
X168494642Y-106804761D01*
X168399404Y-106852380D01*
X168113690Y-106852380D01*
X168018452Y-106804761D01*
X167970833Y-106757142D01*
X168875595Y-105852380D02*
X169208928Y-106852380D01*
X169542261Y-105852380D01*
X168642261Y-102752380D02*
X168166071Y-102752380D01*
X168118452Y-103228571D01*
X168166071Y-103180952D01*
X168261309Y-103133333D01*
X168499404Y-103133333D01*
X168594642Y-103180952D01*
X168642261Y-103228571D01*
X168689880Y-103323809D01*
X168689880Y-103561904D01*
X168642261Y-103657142D01*
X168594642Y-103704761D01*
X168499404Y-103752380D01*
X168261309Y-103752380D01*
X168166071Y-103704761D01*
X168118452Y-103657142D01*
X168975595Y-102752380D02*
X169308928Y-103752380D01*
X169642261Y-102752380D01*
X164514285Y-121952380D02*
X164514285Y-120952380D01*
X164514285Y-121428571D02*
X165085714Y-121428571D01*
X165085714Y-121952380D02*
X165085714Y-120952380D01*
X162609523Y-121952380D02*
X162133333Y-121952380D01*
X162133333Y-120952380D01*
X166752380Y-121523214D02*
X166752380Y-121999404D01*
X167228571Y-122047023D01*
X167180952Y-121999404D01*
X167133333Y-121904166D01*
X167133333Y-121666071D01*
X167180952Y-121570833D01*
X167228571Y-121523214D01*
X167323809Y-121475595D01*
X167561904Y-121475595D01*
X167657142Y-121523214D01*
X167704761Y-121570833D01*
X167752380Y-121666071D01*
X167752380Y-121904166D01*
X167704761Y-121999404D01*
X167657142Y-122047023D01*
X166752380Y-121189880D02*
X167752380Y-120856547D01*
X166752380Y-120523214D01*
X159200000Y-121475595D02*
X159152380Y-121570833D01*
X159152380Y-121713690D01*
X159200000Y-121856547D01*
X159295238Y-121951785D01*
X159390476Y-121999404D01*
X159580952Y-122047023D01*
X159723809Y-122047023D01*
X159914285Y-121999404D01*
X160009523Y-121951785D01*
X160104761Y-121856547D01*
X160152380Y-121713690D01*
X160152380Y-121618452D01*
X160104761Y-121475595D01*
X160057142Y-121427976D01*
X159723809Y-121427976D01*
X159723809Y-121618452D01*
X160152380Y-120999404D02*
X159152380Y-120999404D01*
X160152380Y-120427976D01*
X159152380Y-120427976D01*
X160152380Y-119951785D02*
X159152380Y-119951785D01*
X159152380Y-119713690D01*
X159200000Y-119570833D01*
X159295238Y-119475595D01*
X159390476Y-119427976D01*
X159580952Y-119380357D01*
X159723809Y-119380357D01*
X159914285Y-119427976D01*
X160009523Y-119475595D01*
X160104761Y-119570833D01*
X160152380Y-119713690D01*
X160152380Y-119951785D01*
X153466666Y-115852380D02*
X154133333Y-115852380D01*
X153704761Y-116852380D01*
X151590476Y-115752380D02*
X151400000Y-115752380D01*
X151304761Y-115800000D01*
X151257142Y-115847619D01*
X151161904Y-115990476D01*
X151114285Y-116180952D01*
X151114285Y-116561904D01*
X151161904Y-116657142D01*
X151209523Y-116704761D01*
X151304761Y-116752380D01*
X151495238Y-116752380D01*
X151590476Y-116704761D01*
X151638095Y-116657142D01*
X151685714Y-116561904D01*
X151685714Y-116323809D01*
X151638095Y-116228571D01*
X151590476Y-116180952D01*
X151495238Y-116133333D01*
X151304761Y-116133333D01*
X151209523Y-116180952D01*
X151161904Y-116228571D01*
X151114285Y-116323809D01*
X149038095Y-115752380D02*
X148561904Y-115752380D01*
X148514285Y-116228571D01*
X148561904Y-116180952D01*
X148657142Y-116133333D01*
X148895238Y-116133333D01*
X148990476Y-116180952D01*
X149038095Y-116228571D01*
X149085714Y-116323809D01*
X149085714Y-116561904D01*
X149038095Y-116657142D01*
X148990476Y-116704761D01*
X148895238Y-116752380D01*
X148657142Y-116752380D01*
X148561904Y-116704761D01*
X148514285Y-116657142D01*
X146490476Y-116085714D02*
X146490476Y-116752380D01*
X146252380Y-115704761D02*
X146014285Y-116419047D01*
X146633333Y-116419047D01*
X143366666Y-115752380D02*
X143985714Y-115752380D01*
X143652380Y-116133333D01*
X143795238Y-116133333D01*
X143890476Y-116180952D01*
X143938095Y-116228571D01*
X143985714Y-116323809D01*
X143985714Y-116561904D01*
X143938095Y-116657142D01*
X143890476Y-116704761D01*
X143795238Y-116752380D01*
X143509523Y-116752380D01*
X143414285Y-116704761D01*
X143366666Y-116657142D01*
D11*
X127952142Y-88707142D02*
X129095000Y-88707142D01*
X128523571Y-89278571D02*
X128523571Y-88135714D01*
X127952142Y-91307142D02*
X129095000Y-91307142D01*
D10*
X128724404Y-99500000D02*
X128629166Y-99452380D01*
X128486309Y-99452380D01*
X128343452Y-99500000D01*
X128248214Y-99595238D01*
X128200595Y-99690476D01*
X128152976Y-99880952D01*
X128152976Y-100023809D01*
X128200595Y-100214285D01*
X128248214Y-100309523D01*
X128343452Y-100404761D01*
X128486309Y-100452380D01*
X128581547Y-100452380D01*
X128724404Y-100404761D01*
X128772023Y-100357142D01*
X128772023Y-100023809D01*
X128581547Y-100023809D01*
X129200595Y-100452380D02*
X129200595Y-99452380D01*
X129772023Y-100452380D01*
X129772023Y-99452380D01*
X130248214Y-100452380D02*
X130248214Y-99452380D01*
X130486309Y-99452380D01*
X130629166Y-99500000D01*
X130724404Y-99595238D01*
X130772023Y-99690476D01*
X130819642Y-99880952D01*
X130819642Y-100023809D01*
X130772023Y-100214285D01*
X130724404Y-100309523D01*
X130629166Y-100404761D01*
X130486309Y-100452380D01*
X130248214Y-100452380D01*
X128152976Y-105266666D02*
X128629166Y-105266666D01*
X128057738Y-105552380D02*
X128391071Y-104552380D01*
X128724404Y-105552380D01*
X128676785Y-101952380D02*
X128200595Y-101952380D01*
X128152976Y-102428571D01*
X128200595Y-102380952D01*
X128295833Y-102333333D01*
X128533928Y-102333333D01*
X128629166Y-102380952D01*
X128676785Y-102428571D01*
X128724404Y-102523809D01*
X128724404Y-102761904D01*
X128676785Y-102857142D01*
X128629166Y-102904761D01*
X128533928Y-102952380D01*
X128295833Y-102952380D01*
X128200595Y-102904761D01*
X128152976Y-102857142D01*
X129010119Y-101952380D02*
X129343452Y-102952380D01*
X129676785Y-101952380D01*
X128724404Y-115800000D02*
X128629166Y-115752380D01*
X128486309Y-115752380D01*
X128343452Y-115800000D01*
X128248214Y-115895238D01*
X128200595Y-115990476D01*
X128152976Y-116180952D01*
X128152976Y-116323809D01*
X128200595Y-116514285D01*
X128248214Y-116609523D01*
X128343452Y-116704761D01*
X128486309Y-116752380D01*
X128581547Y-116752380D01*
X128724404Y-116704761D01*
X128772023Y-116657142D01*
X128772023Y-116323809D01*
X128581547Y-116323809D01*
X129200595Y-116752380D02*
X129200595Y-115752380D01*
X129772023Y-116752380D01*
X129772023Y-115752380D01*
X130248214Y-116752380D02*
X130248214Y-115752380D01*
X130486309Y-115752380D01*
X130629166Y-115800000D01*
X130724404Y-115895238D01*
X130772023Y-115990476D01*
X130819642Y-116180952D01*
X130819642Y-116323809D01*
X130772023Y-116514285D01*
X130724404Y-116609523D01*
X130629166Y-116704761D01*
X130486309Y-116752380D01*
X130248214Y-116752380D01*
X128152976Y-113966666D02*
X128629166Y-113966666D01*
X128057738Y-114252380D02*
X128391071Y-113252380D01*
X128724404Y-114252380D01*
X129010119Y-113347619D02*
X129057738Y-113300000D01*
X129152976Y-113252380D01*
X129391071Y-113252380D01*
X129486309Y-113300000D01*
X129533928Y-113347619D01*
X129581547Y-113442857D01*
X129581547Y-113538095D01*
X129533928Y-113680952D01*
X128962500Y-114252380D01*
X129581547Y-114252380D01*
X128152976Y-111466666D02*
X128629166Y-111466666D01*
X128057738Y-111752380D02*
X128391071Y-110752380D01*
X128724404Y-111752380D01*
X129581547Y-111752380D02*
X129010119Y-111752380D01*
X129295833Y-111752380D02*
X129295833Y-110752380D01*
X129200595Y-110895238D01*
X129105357Y-110990476D01*
X129010119Y-111038095D01*
X128676785Y-108152380D02*
X128200595Y-108152380D01*
X128152976Y-108628571D01*
X128200595Y-108580952D01*
X128295833Y-108533333D01*
X128533928Y-108533333D01*
X128629166Y-108580952D01*
X128676785Y-108628571D01*
X128724404Y-108723809D01*
X128724404Y-108961904D01*
X128676785Y-109057142D01*
X128629166Y-109104761D01*
X128533928Y-109152380D01*
X128295833Y-109152380D01*
X128200595Y-109104761D01*
X128152976Y-109057142D01*
X129010119Y-108152380D02*
X129343452Y-109152380D01*
X129676785Y-108152380D01*
X127471428Y-119152380D02*
X128090476Y-119152380D01*
X127757142Y-119533333D01*
X127900000Y-119533333D01*
X127995238Y-119580952D01*
X128042857Y-119628571D01*
X128090476Y-119723809D01*
X128090476Y-119961904D01*
X128042857Y-120057142D01*
X127995238Y-120104761D01*
X127900000Y-120152380D01*
X127614285Y-120152380D01*
X127519047Y-120104761D01*
X127471428Y-120057142D01*
X128376190Y-119152380D02*
X128709523Y-120152380D01*
X129042857Y-119152380D01*
X131376190Y-119152380D02*
X130900000Y-119152380D01*
X130852380Y-119628571D01*
X130900000Y-119580952D01*
X130995238Y-119533333D01*
X131233333Y-119533333D01*
X131328571Y-119580952D01*
X131376190Y-119628571D01*
X131423809Y-119723809D01*
X131423809Y-119961904D01*
X131376190Y-120057142D01*
X131328571Y-120104761D01*
X131233333Y-120152380D01*
X130995238Y-120152380D01*
X130900000Y-120104761D01*
X130852380Y-120057142D01*
X131709523Y-119152380D02*
X132042857Y-120152380D01*
X132376190Y-119152380D01*
X158243452Y-118280952D02*
X158148214Y-118233333D01*
X158100595Y-118185714D01*
X158052976Y-118090476D01*
X158052976Y-118042857D01*
X158100595Y-117947619D01*
X158148214Y-117900000D01*
X158243452Y-117852380D01*
X158433928Y-117852380D01*
X158529166Y-117900000D01*
X158576785Y-117947619D01*
X158624404Y-118042857D01*
X158624404Y-118090476D01*
X158576785Y-118185714D01*
X158529166Y-118233333D01*
X158433928Y-118280952D01*
X158243452Y-118280952D01*
X158148214Y-118328571D01*
X158100595Y-118376190D01*
X158052976Y-118471428D01*
X158052976Y-118661904D01*
X158100595Y-118757142D01*
X158148214Y-118804761D01*
X158243452Y-118852380D01*
X158433928Y-118852380D01*
X158529166Y-118804761D01*
X158576785Y-118757142D01*
X158624404Y-118661904D01*
X158624404Y-118471428D01*
X158576785Y-118376190D01*
X158529166Y-118328571D01*
X158433928Y-118280952D01*
X140914285Y-115847619D02*
X140961904Y-115800000D01*
X141057142Y-115752380D01*
X141295238Y-115752380D01*
X141390476Y-115800000D01*
X141438095Y-115847619D01*
X141485714Y-115942857D01*
X141485714Y-116038095D01*
X141438095Y-116180952D01*
X140866666Y-116752380D01*
X141485714Y-116752380D01*
X138985714Y-116752380D02*
X138414285Y-116752380D01*
X138700000Y-116752380D02*
X138700000Y-115752380D01*
X138604761Y-115895238D01*
X138509523Y-115990476D01*
X138414285Y-116038095D01*
X136552380Y-116227976D02*
X136076190Y-116561309D01*
X136552380Y-116799404D02*
X135552380Y-116799404D01*
X135552380Y-116418452D01*
X135600000Y-116323214D01*
X135647619Y-116275595D01*
X135742857Y-116227976D01*
X135885714Y-116227976D01*
X135980952Y-116275595D01*
X136028571Y-116323214D01*
X136076190Y-116418452D01*
X136076190Y-116799404D01*
X136457142Y-115227976D02*
X136504761Y-115275595D01*
X136552380Y-115418452D01*
X136552380Y-115513690D01*
X136504761Y-115656547D01*
X136409523Y-115751785D01*
X136314285Y-115799404D01*
X136123809Y-115847023D01*
X135980952Y-115847023D01*
X135790476Y-115799404D01*
X135695238Y-115751785D01*
X135600000Y-115656547D01*
X135552380Y-115513690D01*
X135552380Y-115418452D01*
X135600000Y-115275595D01*
X135647619Y-115227976D01*
X136552380Y-114275595D02*
X136552380Y-114847023D01*
X136552380Y-114561309D02*
X135552380Y-114561309D01*
X135695238Y-114656547D01*
X135790476Y-114751785D01*
X135838095Y-114847023D01*
X134052380Y-116227976D02*
X133576190Y-116561309D01*
X134052380Y-116799404D02*
X133052380Y-116799404D01*
X133052380Y-116418452D01*
X133100000Y-116323214D01*
X133147619Y-116275595D01*
X133242857Y-116227976D01*
X133385714Y-116227976D01*
X133480952Y-116275595D01*
X133528571Y-116323214D01*
X133576190Y-116418452D01*
X133576190Y-116799404D01*
X133957142Y-115227976D02*
X134004761Y-115275595D01*
X134052380Y-115418452D01*
X134052380Y-115513690D01*
X134004761Y-115656547D01*
X133909523Y-115751785D01*
X133814285Y-115799404D01*
X133623809Y-115847023D01*
X133480952Y-115847023D01*
X133290476Y-115799404D01*
X133195238Y-115751785D01*
X133100000Y-115656547D01*
X133052380Y-115513690D01*
X133052380Y-115418452D01*
X133100000Y-115275595D01*
X133147619Y-115227976D01*
X133147619Y-114847023D02*
X133100000Y-114799404D01*
X133052380Y-114704166D01*
X133052380Y-114466071D01*
X133100000Y-114370833D01*
X133147619Y-114323214D01*
X133242857Y-114275595D01*
X133338095Y-114275595D01*
X133480952Y-114323214D01*
X134052380Y-114894642D01*
X134052380Y-114275595D01*
D12*
X134100000Y-100950000D02*
X134100000Y-100250000D01*
X135300000Y-100250000D02*
X135300000Y-100950000D01*
X151400000Y-112050000D02*
X151400000Y-111350000D01*
X152600000Y-111350000D02*
X152600000Y-112050000D01*
X158550000Y-99400000D02*
X157850000Y-99400000D01*
X157850000Y-98200000D02*
X158550000Y-98200000D01*
X140550000Y-93500000D02*
X141250000Y-93500000D01*
X141250000Y-94700000D02*
X140550000Y-94700000D01*
X141250000Y-97100000D02*
X140550000Y-97100000D01*
X140550000Y-95900000D02*
X141250000Y-95900000D01*
X145850000Y-109700000D02*
X146550000Y-109700000D01*
X146550000Y-110900000D02*
X145850000Y-110900000D01*
X154100000Y-111350000D02*
X154100000Y-112050000D01*
X152900000Y-112050000D02*
X152900000Y-111350000D01*
X158550000Y-97700000D02*
X157850000Y-97700000D01*
X157850000Y-96500000D02*
X158550000Y-96500000D01*
X145050000Y-94700000D02*
X144350000Y-94700000D01*
X144350000Y-93500000D02*
X145050000Y-93500000D01*
X132200000Y-104350000D02*
X132200000Y-105050000D01*
X131000000Y-105050000D02*
X131000000Y-104350000D01*
X157400000Y-89950000D02*
X157400000Y-90650000D01*
X156200000Y-90650000D02*
X156200000Y-89950000D01*
X142000000Y-113550000D02*
X142000000Y-112850000D01*
X143200000Y-112850000D02*
X143200000Y-113550000D01*
X156850000Y-107800000D02*
X157550000Y-107800000D01*
X157550000Y-109000000D02*
X156850000Y-109000000D01*
X170900000Y-93450000D02*
X170900000Y-94150000D01*
X169700000Y-94150000D02*
X169700000Y-93450000D01*
X135240000Y-109720000D02*
X136700000Y-109720000D01*
X135240000Y-112880000D02*
X137400000Y-112880000D01*
X135240000Y-112880000D02*
X135240000Y-111950000D01*
X135240000Y-109720000D02*
X135240000Y-110650000D01*
X135240000Y-106120000D02*
X135240000Y-107050000D01*
X135240000Y-109280000D02*
X135240000Y-108350000D01*
X135240000Y-109280000D02*
X137400000Y-109280000D01*
X135240000Y-106120000D02*
X136700000Y-106120000D01*
X169640000Y-99420000D02*
X171100000Y-99420000D01*
X169640000Y-102580000D02*
X171800000Y-102580000D01*
X169640000Y-102580000D02*
X169640000Y-101650000D01*
X169640000Y-99420000D02*
X169640000Y-100350000D01*
D13*
X162800000Y-92000000D02*
X161800000Y-92000000D01*
X162800000Y-89200000D02*
X161800000Y-89200000D01*
X162800000Y-89200000D02*
X162800000Y-92000000D01*
X161800000Y-92000000D02*
X161800000Y-89200000D01*
X163600000Y-79400000D02*
X163600000Y-80600000D01*
X163600000Y-80600000D02*
X162400000Y-80600000D01*
X156400000Y-79400000D02*
X156400000Y-80600000D01*
X156400000Y-80600000D02*
X157600000Y-80600000D01*
X157000000Y-76300000D02*
X163000000Y-76300000D01*
X150975000Y-111200000D02*
X150975000Y-112200000D01*
X149625000Y-112200000D02*
X149625000Y-111200000D01*
X130925000Y-101700000D02*
X130925000Y-100700000D01*
X132275000Y-100700000D02*
X132275000Y-101700000D01*
X152325000Y-91700000D02*
X152325000Y-90700000D01*
X153675000Y-90700000D02*
X153675000Y-91700000D01*
X155475000Y-90700000D02*
X155475000Y-91700000D01*
X154125000Y-91700000D02*
X154125000Y-90700000D01*
X130575000Y-104200000D02*
X130575000Y-105200000D01*
X129225000Y-105200000D02*
X129225000Y-104200000D01*
X133975000Y-104200000D02*
X133975000Y-105200000D01*
X132625000Y-105200000D02*
X132625000Y-104200000D01*
X161875000Y-119300000D02*
X161875000Y-120300000D01*
X160525000Y-120300000D02*
X160525000Y-119300000D01*
X165400000Y-85825000D02*
X166400000Y-85825000D01*
X166400000Y-87175000D02*
X165400000Y-87175000D01*
X166400000Y-88775000D02*
X165400000Y-88775000D01*
X165400000Y-87425000D02*
X166400000Y-87425000D01*
X158925000Y-86450000D02*
X158925000Y-85950000D01*
X157875000Y-85950000D02*
X157875000Y-86450000D01*
X159575000Y-85950000D02*
X159575000Y-86450000D01*
X160625000Y-86450000D02*
X160625000Y-85950000D01*
X166400000Y-85475000D02*
X165400000Y-85475000D01*
X165400000Y-84125000D02*
X166400000Y-84125000D01*
X171325000Y-94300000D02*
X171325000Y-93300000D01*
X172675000Y-93300000D02*
X172675000Y-94300000D01*
D12*
X132850000Y-111220000D02*
X132050000Y-111220000D01*
X132850000Y-107780000D02*
X132050000Y-107780000D01*
D14*
X169020580Y-90992880D02*
X170001020Y-90992880D01*
X170001020Y-90992880D02*
X170001020Y-90997960D01*
X169000260Y-90997960D02*
X169000260Y-89999740D01*
X170001020Y-83002040D02*
X169000260Y-83002040D01*
X169000260Y-83002040D02*
X169000260Y-84000260D01*
X172998220Y-90997960D02*
X173998980Y-90997960D01*
X172998220Y-83002040D02*
X173998980Y-83002040D01*
D12*
X165300000Y-103350000D02*
X165300000Y-104050000D01*
X164100000Y-104050000D02*
X164100000Y-103350000D01*
X158700000Y-104450000D02*
X158700000Y-103750000D01*
X159900000Y-103750000D02*
X159900000Y-104450000D01*
X161700000Y-106300000D02*
X162400000Y-106300000D01*
X162400000Y-107500000D02*
X161700000Y-107500000D01*
X164350000Y-110050000D02*
X166050000Y-110050000D01*
X166050000Y-110050000D02*
X166050000Y-106900000D01*
X164350000Y-110050000D02*
X164350000Y-106900000D01*
D13*
X162900000Y-110075000D02*
X161900000Y-110075000D01*
X161900000Y-108725000D02*
X162900000Y-108725000D01*
X150600000Y-87225000D02*
X151600000Y-87225000D01*
X151600000Y-88575000D02*
X150600000Y-88575000D01*
X164375000Y-95600000D02*
X164375000Y-96600000D01*
X163025000Y-96600000D02*
X163025000Y-95600000D01*
X137300000Y-97425000D02*
X138300000Y-97425000D01*
X138300000Y-98775000D02*
X137300000Y-98775000D01*
D12*
X153360000Y-107160000D02*
X154310000Y-107160000D01*
X154310000Y-107160000D02*
X154310000Y-106210000D01*
X145040000Y-107160000D02*
X144090000Y-107160000D01*
X144090000Y-107160000D02*
X144090000Y-106210000D01*
X153360000Y-96940000D02*
X154310000Y-96940000D01*
X154310000Y-96940000D02*
X154310000Y-97890000D01*
X145040000Y-96940000D02*
X144090000Y-96940000D01*
X144090000Y-96940000D02*
X144090000Y-97890000D01*
X144090000Y-97890000D02*
X142750000Y-97890000D01*
X154640000Y-113000000D02*
X154640000Y-114950000D01*
X154640000Y-113000000D02*
X154640000Y-111050000D01*
X159760000Y-113000000D02*
X159760000Y-114950000D01*
X159760000Y-113000000D02*
X159760000Y-109550000D01*
X160390000Y-103000000D02*
X160390000Y-104800000D01*
X163610000Y-104800000D02*
X163610000Y-102350000D01*
M02*
