G04 #@! TF.GenerationSoftware,KiCad,Pcbnew,(5.1.5)-3*
G04 #@! TF.CreationDate,2020-01-29T21:37:39+13:00*
G04 #@! TF.ProjectId,SimpleFC,53696d70-6c65-4464-932e-6b696361645f,rev?*
G04 #@! TF.SameCoordinates,Original*
G04 #@! TF.FileFunction,Paste,Top*
G04 #@! TF.FilePolarity,Positive*
%FSLAX46Y46*%
G04 Gerber Fmt 4.6, Leading zero omitted, Abs format (unit mm)*
G04 Created by KiCad (PCBNEW (5.1.5)-3) date 2020-01-29 21:37:39*
%MOMM*%
%LPD*%
G04 APERTURE LIST*
%ADD10R,1.000000X1.100000*%
%ADD11R,1.100000X1.000000*%
%ADD12R,0.900000X0.800000*%
%ADD13R,0.700000X1.000000*%
%ADD14R,0.700000X0.600000*%
%ADD15R,0.700000X1.600000*%
%ADD16R,1.200000X1.400000*%
%ADD17R,1.200000X2.200000*%
%ADD18R,1.400000X1.600000*%
%ADD19R,0.500000X1.800000*%
%ADD20R,2.100000X3.000000*%
%ADD21R,0.600000X0.400000*%
%ADD22R,0.900000X0.400000*%
%ADD23R,2.700000X0.500000*%
%ADD24R,1.400000X0.400000*%
%ADD25R,1.500000X1.900000*%
%ADD26C,0.100000*%
%ADD27R,1.700000X4.100000*%
%ADD28R,1.000000X1.000000*%
%ADD29R,0.650000X1.060000*%
G04 APERTURE END LIST*
D10*
X134700000Y-101500000D03*
X134700000Y-99700000D03*
X152000000Y-112600000D03*
X152000000Y-110800000D03*
D11*
X159100000Y-98800000D03*
X157300000Y-98800000D03*
X140000000Y-94100000D03*
X141800000Y-94100000D03*
X141800000Y-96500000D03*
X140000000Y-96500000D03*
X145300000Y-110300000D03*
X147100000Y-110300000D03*
D10*
X153500000Y-110800000D03*
X153500000Y-112600000D03*
D11*
X159100000Y-97100000D03*
X157300000Y-97100000D03*
X145600000Y-94100000D03*
X143800000Y-94100000D03*
D10*
X131600000Y-103800000D03*
X131600000Y-105600000D03*
X156800000Y-89400000D03*
X156800000Y-91200000D03*
X142600000Y-114100000D03*
X142600000Y-112300000D03*
D11*
X156300000Y-108400000D03*
X158100000Y-108400000D03*
D10*
X170300000Y-92900000D03*
X170300000Y-94700000D03*
D12*
X135000000Y-111300000D03*
X137000000Y-110350000D03*
X137000000Y-112250000D03*
X137000000Y-108650000D03*
X137000000Y-106750000D03*
X135000000Y-107700000D03*
X169400000Y-101000000D03*
X171400000Y-100050000D03*
X171400000Y-101950000D03*
D13*
X161250000Y-89850000D03*
D14*
X161250000Y-91550000D03*
X163350000Y-91550000D03*
X163350000Y-89650000D03*
D15*
X138900000Y-90900000D03*
X140000000Y-90900000D03*
X141100000Y-90900000D03*
X142200000Y-90900000D03*
X143300000Y-90900000D03*
X144400000Y-90900000D03*
X145500000Y-90900000D03*
X146600000Y-90900000D03*
D16*
X148850000Y-90400000D03*
D17*
X148850000Y-80800000D03*
D18*
X133600000Y-90400000D03*
D17*
X133350000Y-80800000D03*
D15*
X147700000Y-90900000D03*
D19*
X158125000Y-80800000D03*
X159375000Y-80800000D03*
X160625000Y-80800000D03*
X161875000Y-80800000D03*
D20*
X155575000Y-77600000D03*
X164425000Y-77600000D03*
D10*
X150300000Y-112600000D03*
X150300000Y-110800000D03*
X131600000Y-100300000D03*
X131600000Y-102100000D03*
X153000000Y-90300000D03*
X153000000Y-92100000D03*
X154800000Y-92100000D03*
X154800000Y-90300000D03*
X129900000Y-105600000D03*
X129900000Y-103800000D03*
X133300000Y-105600000D03*
X133300000Y-103800000D03*
X161200000Y-120700000D03*
X161200000Y-118900000D03*
D11*
X166800000Y-86500000D03*
X165000000Y-86500000D03*
X165000000Y-88100000D03*
X166800000Y-88100000D03*
D21*
X158400000Y-85750000D03*
X158400000Y-86650000D03*
X160100000Y-86650000D03*
X160100000Y-85750000D03*
D11*
X165000000Y-84800000D03*
X166800000Y-84800000D03*
D10*
X172000000Y-92900000D03*
X172000000Y-94700000D03*
D22*
X131600000Y-109100000D03*
X131600000Y-109900000D03*
X131600000Y-108300000D03*
X131600000Y-110700000D03*
X133300000Y-108300000D03*
X133300000Y-109100000D03*
X133300000Y-109900000D03*
X133300000Y-110700000D03*
D23*
X137600000Y-99600000D03*
X137600000Y-100600000D03*
X137600000Y-101600000D03*
D24*
X169300000Y-87650000D03*
X169300000Y-87000000D03*
X169300000Y-85700000D03*
X169300000Y-86350000D03*
D25*
X172000000Y-90810000D03*
X172000000Y-83190000D03*
D24*
X169300000Y-88300000D03*
D26*
G36*
X163302769Y-110699313D02*
G01*
X160899313Y-113102769D01*
X160898606Y-110699313D01*
X160899313Y-110698606D01*
X163302769Y-110699313D01*
G37*
D27*
X165500000Y-112750000D03*
D10*
X164700000Y-102800000D03*
X164700000Y-104600000D03*
X159300000Y-105000000D03*
X159300000Y-103200000D03*
D11*
X161150000Y-106900000D03*
X162950000Y-106900000D03*
D28*
X165200000Y-109400000D03*
X165200000Y-106900000D03*
D11*
X161500000Y-109400000D03*
X163300000Y-109400000D03*
X152000000Y-87900000D03*
X150200000Y-87900000D03*
D10*
X163700000Y-97000000D03*
X163700000Y-95200000D03*
D11*
X138700000Y-98100000D03*
X136900000Y-98100000D03*
D26*
G36*
X144232351Y-98150361D02*
G01*
X144239632Y-98151441D01*
X144246771Y-98153229D01*
X144253701Y-98155709D01*
X144260355Y-98158856D01*
X144266668Y-98162640D01*
X144272579Y-98167024D01*
X144278033Y-98171967D01*
X144282976Y-98177421D01*
X144287360Y-98183332D01*
X144291144Y-98189645D01*
X144294291Y-98196299D01*
X144296771Y-98203229D01*
X144298559Y-98210368D01*
X144299639Y-98217649D01*
X144300000Y-98225000D01*
X144300000Y-98375000D01*
X144299639Y-98382351D01*
X144298559Y-98389632D01*
X144296771Y-98396771D01*
X144294291Y-98403701D01*
X144291144Y-98410355D01*
X144287360Y-98416668D01*
X144282976Y-98422579D01*
X144278033Y-98428033D01*
X144272579Y-98432976D01*
X144266668Y-98437360D01*
X144260355Y-98441144D01*
X144253701Y-98444291D01*
X144246771Y-98446771D01*
X144239632Y-98448559D01*
X144232351Y-98449639D01*
X144225000Y-98450000D01*
X142825000Y-98450000D01*
X142817649Y-98449639D01*
X142810368Y-98448559D01*
X142803229Y-98446771D01*
X142796299Y-98444291D01*
X142789645Y-98441144D01*
X142783332Y-98437360D01*
X142777421Y-98432976D01*
X142771967Y-98428033D01*
X142767024Y-98422579D01*
X142762640Y-98416668D01*
X142758856Y-98410355D01*
X142755709Y-98403701D01*
X142753229Y-98396771D01*
X142751441Y-98389632D01*
X142750361Y-98382351D01*
X142750000Y-98375000D01*
X142750000Y-98225000D01*
X142750361Y-98217649D01*
X142751441Y-98210368D01*
X142753229Y-98203229D01*
X142755709Y-98196299D01*
X142758856Y-98189645D01*
X142762640Y-98183332D01*
X142767024Y-98177421D01*
X142771967Y-98171967D01*
X142777421Y-98167024D01*
X142783332Y-98162640D01*
X142789645Y-98158856D01*
X142796299Y-98155709D01*
X142803229Y-98153229D01*
X142810368Y-98151441D01*
X142817649Y-98150361D01*
X142825000Y-98150000D01*
X144225000Y-98150000D01*
X144232351Y-98150361D01*
G37*
G36*
X144232351Y-98650361D02*
G01*
X144239632Y-98651441D01*
X144246771Y-98653229D01*
X144253701Y-98655709D01*
X144260355Y-98658856D01*
X144266668Y-98662640D01*
X144272579Y-98667024D01*
X144278033Y-98671967D01*
X144282976Y-98677421D01*
X144287360Y-98683332D01*
X144291144Y-98689645D01*
X144294291Y-98696299D01*
X144296771Y-98703229D01*
X144298559Y-98710368D01*
X144299639Y-98717649D01*
X144300000Y-98725000D01*
X144300000Y-98875000D01*
X144299639Y-98882351D01*
X144298559Y-98889632D01*
X144296771Y-98896771D01*
X144294291Y-98903701D01*
X144291144Y-98910355D01*
X144287360Y-98916668D01*
X144282976Y-98922579D01*
X144278033Y-98928033D01*
X144272579Y-98932976D01*
X144266668Y-98937360D01*
X144260355Y-98941144D01*
X144253701Y-98944291D01*
X144246771Y-98946771D01*
X144239632Y-98948559D01*
X144232351Y-98949639D01*
X144225000Y-98950000D01*
X142825000Y-98950000D01*
X142817649Y-98949639D01*
X142810368Y-98948559D01*
X142803229Y-98946771D01*
X142796299Y-98944291D01*
X142789645Y-98941144D01*
X142783332Y-98937360D01*
X142777421Y-98932976D01*
X142771967Y-98928033D01*
X142767024Y-98922579D01*
X142762640Y-98916668D01*
X142758856Y-98910355D01*
X142755709Y-98903701D01*
X142753229Y-98896771D01*
X142751441Y-98889632D01*
X142750361Y-98882351D01*
X142750000Y-98875000D01*
X142750000Y-98725000D01*
X142750361Y-98717649D01*
X142751441Y-98710368D01*
X142753229Y-98703229D01*
X142755709Y-98696299D01*
X142758856Y-98689645D01*
X142762640Y-98683332D01*
X142767024Y-98677421D01*
X142771967Y-98671967D01*
X142777421Y-98667024D01*
X142783332Y-98662640D01*
X142789645Y-98658856D01*
X142796299Y-98655709D01*
X142803229Y-98653229D01*
X142810368Y-98651441D01*
X142817649Y-98650361D01*
X142825000Y-98650000D01*
X144225000Y-98650000D01*
X144232351Y-98650361D01*
G37*
G36*
X144232351Y-99150361D02*
G01*
X144239632Y-99151441D01*
X144246771Y-99153229D01*
X144253701Y-99155709D01*
X144260355Y-99158856D01*
X144266668Y-99162640D01*
X144272579Y-99167024D01*
X144278033Y-99171967D01*
X144282976Y-99177421D01*
X144287360Y-99183332D01*
X144291144Y-99189645D01*
X144294291Y-99196299D01*
X144296771Y-99203229D01*
X144298559Y-99210368D01*
X144299639Y-99217649D01*
X144300000Y-99225000D01*
X144300000Y-99375000D01*
X144299639Y-99382351D01*
X144298559Y-99389632D01*
X144296771Y-99396771D01*
X144294291Y-99403701D01*
X144291144Y-99410355D01*
X144287360Y-99416668D01*
X144282976Y-99422579D01*
X144278033Y-99428033D01*
X144272579Y-99432976D01*
X144266668Y-99437360D01*
X144260355Y-99441144D01*
X144253701Y-99444291D01*
X144246771Y-99446771D01*
X144239632Y-99448559D01*
X144232351Y-99449639D01*
X144225000Y-99450000D01*
X142825000Y-99450000D01*
X142817649Y-99449639D01*
X142810368Y-99448559D01*
X142803229Y-99446771D01*
X142796299Y-99444291D01*
X142789645Y-99441144D01*
X142783332Y-99437360D01*
X142777421Y-99432976D01*
X142771967Y-99428033D01*
X142767024Y-99422579D01*
X142762640Y-99416668D01*
X142758856Y-99410355D01*
X142755709Y-99403701D01*
X142753229Y-99396771D01*
X142751441Y-99389632D01*
X142750361Y-99382351D01*
X142750000Y-99375000D01*
X142750000Y-99225000D01*
X142750361Y-99217649D01*
X142751441Y-99210368D01*
X142753229Y-99203229D01*
X142755709Y-99196299D01*
X142758856Y-99189645D01*
X142762640Y-99183332D01*
X142767024Y-99177421D01*
X142771967Y-99171967D01*
X142777421Y-99167024D01*
X142783332Y-99162640D01*
X142789645Y-99158856D01*
X142796299Y-99155709D01*
X142803229Y-99153229D01*
X142810368Y-99151441D01*
X142817649Y-99150361D01*
X142825000Y-99150000D01*
X144225000Y-99150000D01*
X144232351Y-99150361D01*
G37*
G36*
X144232351Y-99650361D02*
G01*
X144239632Y-99651441D01*
X144246771Y-99653229D01*
X144253701Y-99655709D01*
X144260355Y-99658856D01*
X144266668Y-99662640D01*
X144272579Y-99667024D01*
X144278033Y-99671967D01*
X144282976Y-99677421D01*
X144287360Y-99683332D01*
X144291144Y-99689645D01*
X144294291Y-99696299D01*
X144296771Y-99703229D01*
X144298559Y-99710368D01*
X144299639Y-99717649D01*
X144300000Y-99725000D01*
X144300000Y-99875000D01*
X144299639Y-99882351D01*
X144298559Y-99889632D01*
X144296771Y-99896771D01*
X144294291Y-99903701D01*
X144291144Y-99910355D01*
X144287360Y-99916668D01*
X144282976Y-99922579D01*
X144278033Y-99928033D01*
X144272579Y-99932976D01*
X144266668Y-99937360D01*
X144260355Y-99941144D01*
X144253701Y-99944291D01*
X144246771Y-99946771D01*
X144239632Y-99948559D01*
X144232351Y-99949639D01*
X144225000Y-99950000D01*
X142825000Y-99950000D01*
X142817649Y-99949639D01*
X142810368Y-99948559D01*
X142803229Y-99946771D01*
X142796299Y-99944291D01*
X142789645Y-99941144D01*
X142783332Y-99937360D01*
X142777421Y-99932976D01*
X142771967Y-99928033D01*
X142767024Y-99922579D01*
X142762640Y-99916668D01*
X142758856Y-99910355D01*
X142755709Y-99903701D01*
X142753229Y-99896771D01*
X142751441Y-99889632D01*
X142750361Y-99882351D01*
X142750000Y-99875000D01*
X142750000Y-99725000D01*
X142750361Y-99717649D01*
X142751441Y-99710368D01*
X142753229Y-99703229D01*
X142755709Y-99696299D01*
X142758856Y-99689645D01*
X142762640Y-99683332D01*
X142767024Y-99677421D01*
X142771967Y-99671967D01*
X142777421Y-99667024D01*
X142783332Y-99662640D01*
X142789645Y-99658856D01*
X142796299Y-99655709D01*
X142803229Y-99653229D01*
X142810368Y-99651441D01*
X142817649Y-99650361D01*
X142825000Y-99650000D01*
X144225000Y-99650000D01*
X144232351Y-99650361D01*
G37*
G36*
X144232351Y-100150361D02*
G01*
X144239632Y-100151441D01*
X144246771Y-100153229D01*
X144253701Y-100155709D01*
X144260355Y-100158856D01*
X144266668Y-100162640D01*
X144272579Y-100167024D01*
X144278033Y-100171967D01*
X144282976Y-100177421D01*
X144287360Y-100183332D01*
X144291144Y-100189645D01*
X144294291Y-100196299D01*
X144296771Y-100203229D01*
X144298559Y-100210368D01*
X144299639Y-100217649D01*
X144300000Y-100225000D01*
X144300000Y-100375000D01*
X144299639Y-100382351D01*
X144298559Y-100389632D01*
X144296771Y-100396771D01*
X144294291Y-100403701D01*
X144291144Y-100410355D01*
X144287360Y-100416668D01*
X144282976Y-100422579D01*
X144278033Y-100428033D01*
X144272579Y-100432976D01*
X144266668Y-100437360D01*
X144260355Y-100441144D01*
X144253701Y-100444291D01*
X144246771Y-100446771D01*
X144239632Y-100448559D01*
X144232351Y-100449639D01*
X144225000Y-100450000D01*
X142825000Y-100450000D01*
X142817649Y-100449639D01*
X142810368Y-100448559D01*
X142803229Y-100446771D01*
X142796299Y-100444291D01*
X142789645Y-100441144D01*
X142783332Y-100437360D01*
X142777421Y-100432976D01*
X142771967Y-100428033D01*
X142767024Y-100422579D01*
X142762640Y-100416668D01*
X142758856Y-100410355D01*
X142755709Y-100403701D01*
X142753229Y-100396771D01*
X142751441Y-100389632D01*
X142750361Y-100382351D01*
X142750000Y-100375000D01*
X142750000Y-100225000D01*
X142750361Y-100217649D01*
X142751441Y-100210368D01*
X142753229Y-100203229D01*
X142755709Y-100196299D01*
X142758856Y-100189645D01*
X142762640Y-100183332D01*
X142767024Y-100177421D01*
X142771967Y-100171967D01*
X142777421Y-100167024D01*
X142783332Y-100162640D01*
X142789645Y-100158856D01*
X142796299Y-100155709D01*
X142803229Y-100153229D01*
X142810368Y-100151441D01*
X142817649Y-100150361D01*
X142825000Y-100150000D01*
X144225000Y-100150000D01*
X144232351Y-100150361D01*
G37*
G36*
X144232351Y-100650361D02*
G01*
X144239632Y-100651441D01*
X144246771Y-100653229D01*
X144253701Y-100655709D01*
X144260355Y-100658856D01*
X144266668Y-100662640D01*
X144272579Y-100667024D01*
X144278033Y-100671967D01*
X144282976Y-100677421D01*
X144287360Y-100683332D01*
X144291144Y-100689645D01*
X144294291Y-100696299D01*
X144296771Y-100703229D01*
X144298559Y-100710368D01*
X144299639Y-100717649D01*
X144300000Y-100725000D01*
X144300000Y-100875000D01*
X144299639Y-100882351D01*
X144298559Y-100889632D01*
X144296771Y-100896771D01*
X144294291Y-100903701D01*
X144291144Y-100910355D01*
X144287360Y-100916668D01*
X144282976Y-100922579D01*
X144278033Y-100928033D01*
X144272579Y-100932976D01*
X144266668Y-100937360D01*
X144260355Y-100941144D01*
X144253701Y-100944291D01*
X144246771Y-100946771D01*
X144239632Y-100948559D01*
X144232351Y-100949639D01*
X144225000Y-100950000D01*
X142825000Y-100950000D01*
X142817649Y-100949639D01*
X142810368Y-100948559D01*
X142803229Y-100946771D01*
X142796299Y-100944291D01*
X142789645Y-100941144D01*
X142783332Y-100937360D01*
X142777421Y-100932976D01*
X142771967Y-100928033D01*
X142767024Y-100922579D01*
X142762640Y-100916668D01*
X142758856Y-100910355D01*
X142755709Y-100903701D01*
X142753229Y-100896771D01*
X142751441Y-100889632D01*
X142750361Y-100882351D01*
X142750000Y-100875000D01*
X142750000Y-100725000D01*
X142750361Y-100717649D01*
X142751441Y-100710368D01*
X142753229Y-100703229D01*
X142755709Y-100696299D01*
X142758856Y-100689645D01*
X142762640Y-100683332D01*
X142767024Y-100677421D01*
X142771967Y-100671967D01*
X142777421Y-100667024D01*
X142783332Y-100662640D01*
X142789645Y-100658856D01*
X142796299Y-100655709D01*
X142803229Y-100653229D01*
X142810368Y-100651441D01*
X142817649Y-100650361D01*
X142825000Y-100650000D01*
X144225000Y-100650000D01*
X144232351Y-100650361D01*
G37*
G36*
X144232351Y-101150361D02*
G01*
X144239632Y-101151441D01*
X144246771Y-101153229D01*
X144253701Y-101155709D01*
X144260355Y-101158856D01*
X144266668Y-101162640D01*
X144272579Y-101167024D01*
X144278033Y-101171967D01*
X144282976Y-101177421D01*
X144287360Y-101183332D01*
X144291144Y-101189645D01*
X144294291Y-101196299D01*
X144296771Y-101203229D01*
X144298559Y-101210368D01*
X144299639Y-101217649D01*
X144300000Y-101225000D01*
X144300000Y-101375000D01*
X144299639Y-101382351D01*
X144298559Y-101389632D01*
X144296771Y-101396771D01*
X144294291Y-101403701D01*
X144291144Y-101410355D01*
X144287360Y-101416668D01*
X144282976Y-101422579D01*
X144278033Y-101428033D01*
X144272579Y-101432976D01*
X144266668Y-101437360D01*
X144260355Y-101441144D01*
X144253701Y-101444291D01*
X144246771Y-101446771D01*
X144239632Y-101448559D01*
X144232351Y-101449639D01*
X144225000Y-101450000D01*
X142825000Y-101450000D01*
X142817649Y-101449639D01*
X142810368Y-101448559D01*
X142803229Y-101446771D01*
X142796299Y-101444291D01*
X142789645Y-101441144D01*
X142783332Y-101437360D01*
X142777421Y-101432976D01*
X142771967Y-101428033D01*
X142767024Y-101422579D01*
X142762640Y-101416668D01*
X142758856Y-101410355D01*
X142755709Y-101403701D01*
X142753229Y-101396771D01*
X142751441Y-101389632D01*
X142750361Y-101382351D01*
X142750000Y-101375000D01*
X142750000Y-101225000D01*
X142750361Y-101217649D01*
X142751441Y-101210368D01*
X142753229Y-101203229D01*
X142755709Y-101196299D01*
X142758856Y-101189645D01*
X142762640Y-101183332D01*
X142767024Y-101177421D01*
X142771967Y-101171967D01*
X142777421Y-101167024D01*
X142783332Y-101162640D01*
X142789645Y-101158856D01*
X142796299Y-101155709D01*
X142803229Y-101153229D01*
X142810368Y-101151441D01*
X142817649Y-101150361D01*
X142825000Y-101150000D01*
X144225000Y-101150000D01*
X144232351Y-101150361D01*
G37*
G36*
X144232351Y-101650361D02*
G01*
X144239632Y-101651441D01*
X144246771Y-101653229D01*
X144253701Y-101655709D01*
X144260355Y-101658856D01*
X144266668Y-101662640D01*
X144272579Y-101667024D01*
X144278033Y-101671967D01*
X144282976Y-101677421D01*
X144287360Y-101683332D01*
X144291144Y-101689645D01*
X144294291Y-101696299D01*
X144296771Y-101703229D01*
X144298559Y-101710368D01*
X144299639Y-101717649D01*
X144300000Y-101725000D01*
X144300000Y-101875000D01*
X144299639Y-101882351D01*
X144298559Y-101889632D01*
X144296771Y-101896771D01*
X144294291Y-101903701D01*
X144291144Y-101910355D01*
X144287360Y-101916668D01*
X144282976Y-101922579D01*
X144278033Y-101928033D01*
X144272579Y-101932976D01*
X144266668Y-101937360D01*
X144260355Y-101941144D01*
X144253701Y-101944291D01*
X144246771Y-101946771D01*
X144239632Y-101948559D01*
X144232351Y-101949639D01*
X144225000Y-101950000D01*
X142825000Y-101950000D01*
X142817649Y-101949639D01*
X142810368Y-101948559D01*
X142803229Y-101946771D01*
X142796299Y-101944291D01*
X142789645Y-101941144D01*
X142783332Y-101937360D01*
X142777421Y-101932976D01*
X142771967Y-101928033D01*
X142767024Y-101922579D01*
X142762640Y-101916668D01*
X142758856Y-101910355D01*
X142755709Y-101903701D01*
X142753229Y-101896771D01*
X142751441Y-101889632D01*
X142750361Y-101882351D01*
X142750000Y-101875000D01*
X142750000Y-101725000D01*
X142750361Y-101717649D01*
X142751441Y-101710368D01*
X142753229Y-101703229D01*
X142755709Y-101696299D01*
X142758856Y-101689645D01*
X142762640Y-101683332D01*
X142767024Y-101677421D01*
X142771967Y-101671967D01*
X142777421Y-101667024D01*
X142783332Y-101662640D01*
X142789645Y-101658856D01*
X142796299Y-101655709D01*
X142803229Y-101653229D01*
X142810368Y-101651441D01*
X142817649Y-101650361D01*
X142825000Y-101650000D01*
X144225000Y-101650000D01*
X144232351Y-101650361D01*
G37*
G36*
X144232351Y-102150361D02*
G01*
X144239632Y-102151441D01*
X144246771Y-102153229D01*
X144253701Y-102155709D01*
X144260355Y-102158856D01*
X144266668Y-102162640D01*
X144272579Y-102167024D01*
X144278033Y-102171967D01*
X144282976Y-102177421D01*
X144287360Y-102183332D01*
X144291144Y-102189645D01*
X144294291Y-102196299D01*
X144296771Y-102203229D01*
X144298559Y-102210368D01*
X144299639Y-102217649D01*
X144300000Y-102225000D01*
X144300000Y-102375000D01*
X144299639Y-102382351D01*
X144298559Y-102389632D01*
X144296771Y-102396771D01*
X144294291Y-102403701D01*
X144291144Y-102410355D01*
X144287360Y-102416668D01*
X144282976Y-102422579D01*
X144278033Y-102428033D01*
X144272579Y-102432976D01*
X144266668Y-102437360D01*
X144260355Y-102441144D01*
X144253701Y-102444291D01*
X144246771Y-102446771D01*
X144239632Y-102448559D01*
X144232351Y-102449639D01*
X144225000Y-102450000D01*
X142825000Y-102450000D01*
X142817649Y-102449639D01*
X142810368Y-102448559D01*
X142803229Y-102446771D01*
X142796299Y-102444291D01*
X142789645Y-102441144D01*
X142783332Y-102437360D01*
X142777421Y-102432976D01*
X142771967Y-102428033D01*
X142767024Y-102422579D01*
X142762640Y-102416668D01*
X142758856Y-102410355D01*
X142755709Y-102403701D01*
X142753229Y-102396771D01*
X142751441Y-102389632D01*
X142750361Y-102382351D01*
X142750000Y-102375000D01*
X142750000Y-102225000D01*
X142750361Y-102217649D01*
X142751441Y-102210368D01*
X142753229Y-102203229D01*
X142755709Y-102196299D01*
X142758856Y-102189645D01*
X142762640Y-102183332D01*
X142767024Y-102177421D01*
X142771967Y-102171967D01*
X142777421Y-102167024D01*
X142783332Y-102162640D01*
X142789645Y-102158856D01*
X142796299Y-102155709D01*
X142803229Y-102153229D01*
X142810368Y-102151441D01*
X142817649Y-102150361D01*
X142825000Y-102150000D01*
X144225000Y-102150000D01*
X144232351Y-102150361D01*
G37*
G36*
X144232351Y-102650361D02*
G01*
X144239632Y-102651441D01*
X144246771Y-102653229D01*
X144253701Y-102655709D01*
X144260355Y-102658856D01*
X144266668Y-102662640D01*
X144272579Y-102667024D01*
X144278033Y-102671967D01*
X144282976Y-102677421D01*
X144287360Y-102683332D01*
X144291144Y-102689645D01*
X144294291Y-102696299D01*
X144296771Y-102703229D01*
X144298559Y-102710368D01*
X144299639Y-102717649D01*
X144300000Y-102725000D01*
X144300000Y-102875000D01*
X144299639Y-102882351D01*
X144298559Y-102889632D01*
X144296771Y-102896771D01*
X144294291Y-102903701D01*
X144291144Y-102910355D01*
X144287360Y-102916668D01*
X144282976Y-102922579D01*
X144278033Y-102928033D01*
X144272579Y-102932976D01*
X144266668Y-102937360D01*
X144260355Y-102941144D01*
X144253701Y-102944291D01*
X144246771Y-102946771D01*
X144239632Y-102948559D01*
X144232351Y-102949639D01*
X144225000Y-102950000D01*
X142825000Y-102950000D01*
X142817649Y-102949639D01*
X142810368Y-102948559D01*
X142803229Y-102946771D01*
X142796299Y-102944291D01*
X142789645Y-102941144D01*
X142783332Y-102937360D01*
X142777421Y-102932976D01*
X142771967Y-102928033D01*
X142767024Y-102922579D01*
X142762640Y-102916668D01*
X142758856Y-102910355D01*
X142755709Y-102903701D01*
X142753229Y-102896771D01*
X142751441Y-102889632D01*
X142750361Y-102882351D01*
X142750000Y-102875000D01*
X142750000Y-102725000D01*
X142750361Y-102717649D01*
X142751441Y-102710368D01*
X142753229Y-102703229D01*
X142755709Y-102696299D01*
X142758856Y-102689645D01*
X142762640Y-102683332D01*
X142767024Y-102677421D01*
X142771967Y-102671967D01*
X142777421Y-102667024D01*
X142783332Y-102662640D01*
X142789645Y-102658856D01*
X142796299Y-102655709D01*
X142803229Y-102653229D01*
X142810368Y-102651441D01*
X142817649Y-102650361D01*
X142825000Y-102650000D01*
X144225000Y-102650000D01*
X144232351Y-102650361D01*
G37*
G36*
X144232351Y-103150361D02*
G01*
X144239632Y-103151441D01*
X144246771Y-103153229D01*
X144253701Y-103155709D01*
X144260355Y-103158856D01*
X144266668Y-103162640D01*
X144272579Y-103167024D01*
X144278033Y-103171967D01*
X144282976Y-103177421D01*
X144287360Y-103183332D01*
X144291144Y-103189645D01*
X144294291Y-103196299D01*
X144296771Y-103203229D01*
X144298559Y-103210368D01*
X144299639Y-103217649D01*
X144300000Y-103225000D01*
X144300000Y-103375000D01*
X144299639Y-103382351D01*
X144298559Y-103389632D01*
X144296771Y-103396771D01*
X144294291Y-103403701D01*
X144291144Y-103410355D01*
X144287360Y-103416668D01*
X144282976Y-103422579D01*
X144278033Y-103428033D01*
X144272579Y-103432976D01*
X144266668Y-103437360D01*
X144260355Y-103441144D01*
X144253701Y-103444291D01*
X144246771Y-103446771D01*
X144239632Y-103448559D01*
X144232351Y-103449639D01*
X144225000Y-103450000D01*
X142825000Y-103450000D01*
X142817649Y-103449639D01*
X142810368Y-103448559D01*
X142803229Y-103446771D01*
X142796299Y-103444291D01*
X142789645Y-103441144D01*
X142783332Y-103437360D01*
X142777421Y-103432976D01*
X142771967Y-103428033D01*
X142767024Y-103422579D01*
X142762640Y-103416668D01*
X142758856Y-103410355D01*
X142755709Y-103403701D01*
X142753229Y-103396771D01*
X142751441Y-103389632D01*
X142750361Y-103382351D01*
X142750000Y-103375000D01*
X142750000Y-103225000D01*
X142750361Y-103217649D01*
X142751441Y-103210368D01*
X142753229Y-103203229D01*
X142755709Y-103196299D01*
X142758856Y-103189645D01*
X142762640Y-103183332D01*
X142767024Y-103177421D01*
X142771967Y-103171967D01*
X142777421Y-103167024D01*
X142783332Y-103162640D01*
X142789645Y-103158856D01*
X142796299Y-103155709D01*
X142803229Y-103153229D01*
X142810368Y-103151441D01*
X142817649Y-103150361D01*
X142825000Y-103150000D01*
X144225000Y-103150000D01*
X144232351Y-103150361D01*
G37*
G36*
X144232351Y-103650361D02*
G01*
X144239632Y-103651441D01*
X144246771Y-103653229D01*
X144253701Y-103655709D01*
X144260355Y-103658856D01*
X144266668Y-103662640D01*
X144272579Y-103667024D01*
X144278033Y-103671967D01*
X144282976Y-103677421D01*
X144287360Y-103683332D01*
X144291144Y-103689645D01*
X144294291Y-103696299D01*
X144296771Y-103703229D01*
X144298559Y-103710368D01*
X144299639Y-103717649D01*
X144300000Y-103725000D01*
X144300000Y-103875000D01*
X144299639Y-103882351D01*
X144298559Y-103889632D01*
X144296771Y-103896771D01*
X144294291Y-103903701D01*
X144291144Y-103910355D01*
X144287360Y-103916668D01*
X144282976Y-103922579D01*
X144278033Y-103928033D01*
X144272579Y-103932976D01*
X144266668Y-103937360D01*
X144260355Y-103941144D01*
X144253701Y-103944291D01*
X144246771Y-103946771D01*
X144239632Y-103948559D01*
X144232351Y-103949639D01*
X144225000Y-103950000D01*
X142825000Y-103950000D01*
X142817649Y-103949639D01*
X142810368Y-103948559D01*
X142803229Y-103946771D01*
X142796299Y-103944291D01*
X142789645Y-103941144D01*
X142783332Y-103937360D01*
X142777421Y-103932976D01*
X142771967Y-103928033D01*
X142767024Y-103922579D01*
X142762640Y-103916668D01*
X142758856Y-103910355D01*
X142755709Y-103903701D01*
X142753229Y-103896771D01*
X142751441Y-103889632D01*
X142750361Y-103882351D01*
X142750000Y-103875000D01*
X142750000Y-103725000D01*
X142750361Y-103717649D01*
X142751441Y-103710368D01*
X142753229Y-103703229D01*
X142755709Y-103696299D01*
X142758856Y-103689645D01*
X142762640Y-103683332D01*
X142767024Y-103677421D01*
X142771967Y-103671967D01*
X142777421Y-103667024D01*
X142783332Y-103662640D01*
X142789645Y-103658856D01*
X142796299Y-103655709D01*
X142803229Y-103653229D01*
X142810368Y-103651441D01*
X142817649Y-103650361D01*
X142825000Y-103650000D01*
X144225000Y-103650000D01*
X144232351Y-103650361D01*
G37*
G36*
X144232351Y-104150361D02*
G01*
X144239632Y-104151441D01*
X144246771Y-104153229D01*
X144253701Y-104155709D01*
X144260355Y-104158856D01*
X144266668Y-104162640D01*
X144272579Y-104167024D01*
X144278033Y-104171967D01*
X144282976Y-104177421D01*
X144287360Y-104183332D01*
X144291144Y-104189645D01*
X144294291Y-104196299D01*
X144296771Y-104203229D01*
X144298559Y-104210368D01*
X144299639Y-104217649D01*
X144300000Y-104225000D01*
X144300000Y-104375000D01*
X144299639Y-104382351D01*
X144298559Y-104389632D01*
X144296771Y-104396771D01*
X144294291Y-104403701D01*
X144291144Y-104410355D01*
X144287360Y-104416668D01*
X144282976Y-104422579D01*
X144278033Y-104428033D01*
X144272579Y-104432976D01*
X144266668Y-104437360D01*
X144260355Y-104441144D01*
X144253701Y-104444291D01*
X144246771Y-104446771D01*
X144239632Y-104448559D01*
X144232351Y-104449639D01*
X144225000Y-104450000D01*
X142825000Y-104450000D01*
X142817649Y-104449639D01*
X142810368Y-104448559D01*
X142803229Y-104446771D01*
X142796299Y-104444291D01*
X142789645Y-104441144D01*
X142783332Y-104437360D01*
X142777421Y-104432976D01*
X142771967Y-104428033D01*
X142767024Y-104422579D01*
X142762640Y-104416668D01*
X142758856Y-104410355D01*
X142755709Y-104403701D01*
X142753229Y-104396771D01*
X142751441Y-104389632D01*
X142750361Y-104382351D01*
X142750000Y-104375000D01*
X142750000Y-104225000D01*
X142750361Y-104217649D01*
X142751441Y-104210368D01*
X142753229Y-104203229D01*
X142755709Y-104196299D01*
X142758856Y-104189645D01*
X142762640Y-104183332D01*
X142767024Y-104177421D01*
X142771967Y-104171967D01*
X142777421Y-104167024D01*
X142783332Y-104162640D01*
X142789645Y-104158856D01*
X142796299Y-104155709D01*
X142803229Y-104153229D01*
X142810368Y-104151441D01*
X142817649Y-104150361D01*
X142825000Y-104150000D01*
X144225000Y-104150000D01*
X144232351Y-104150361D01*
G37*
G36*
X144232351Y-104650361D02*
G01*
X144239632Y-104651441D01*
X144246771Y-104653229D01*
X144253701Y-104655709D01*
X144260355Y-104658856D01*
X144266668Y-104662640D01*
X144272579Y-104667024D01*
X144278033Y-104671967D01*
X144282976Y-104677421D01*
X144287360Y-104683332D01*
X144291144Y-104689645D01*
X144294291Y-104696299D01*
X144296771Y-104703229D01*
X144298559Y-104710368D01*
X144299639Y-104717649D01*
X144300000Y-104725000D01*
X144300000Y-104875000D01*
X144299639Y-104882351D01*
X144298559Y-104889632D01*
X144296771Y-104896771D01*
X144294291Y-104903701D01*
X144291144Y-104910355D01*
X144287360Y-104916668D01*
X144282976Y-104922579D01*
X144278033Y-104928033D01*
X144272579Y-104932976D01*
X144266668Y-104937360D01*
X144260355Y-104941144D01*
X144253701Y-104944291D01*
X144246771Y-104946771D01*
X144239632Y-104948559D01*
X144232351Y-104949639D01*
X144225000Y-104950000D01*
X142825000Y-104950000D01*
X142817649Y-104949639D01*
X142810368Y-104948559D01*
X142803229Y-104946771D01*
X142796299Y-104944291D01*
X142789645Y-104941144D01*
X142783332Y-104937360D01*
X142777421Y-104932976D01*
X142771967Y-104928033D01*
X142767024Y-104922579D01*
X142762640Y-104916668D01*
X142758856Y-104910355D01*
X142755709Y-104903701D01*
X142753229Y-104896771D01*
X142751441Y-104889632D01*
X142750361Y-104882351D01*
X142750000Y-104875000D01*
X142750000Y-104725000D01*
X142750361Y-104717649D01*
X142751441Y-104710368D01*
X142753229Y-104703229D01*
X142755709Y-104696299D01*
X142758856Y-104689645D01*
X142762640Y-104683332D01*
X142767024Y-104677421D01*
X142771967Y-104671967D01*
X142777421Y-104667024D01*
X142783332Y-104662640D01*
X142789645Y-104658856D01*
X142796299Y-104655709D01*
X142803229Y-104653229D01*
X142810368Y-104651441D01*
X142817649Y-104650361D01*
X142825000Y-104650000D01*
X144225000Y-104650000D01*
X144232351Y-104650361D01*
G37*
G36*
X144232351Y-105150361D02*
G01*
X144239632Y-105151441D01*
X144246771Y-105153229D01*
X144253701Y-105155709D01*
X144260355Y-105158856D01*
X144266668Y-105162640D01*
X144272579Y-105167024D01*
X144278033Y-105171967D01*
X144282976Y-105177421D01*
X144287360Y-105183332D01*
X144291144Y-105189645D01*
X144294291Y-105196299D01*
X144296771Y-105203229D01*
X144298559Y-105210368D01*
X144299639Y-105217649D01*
X144300000Y-105225000D01*
X144300000Y-105375000D01*
X144299639Y-105382351D01*
X144298559Y-105389632D01*
X144296771Y-105396771D01*
X144294291Y-105403701D01*
X144291144Y-105410355D01*
X144287360Y-105416668D01*
X144282976Y-105422579D01*
X144278033Y-105428033D01*
X144272579Y-105432976D01*
X144266668Y-105437360D01*
X144260355Y-105441144D01*
X144253701Y-105444291D01*
X144246771Y-105446771D01*
X144239632Y-105448559D01*
X144232351Y-105449639D01*
X144225000Y-105450000D01*
X142825000Y-105450000D01*
X142817649Y-105449639D01*
X142810368Y-105448559D01*
X142803229Y-105446771D01*
X142796299Y-105444291D01*
X142789645Y-105441144D01*
X142783332Y-105437360D01*
X142777421Y-105432976D01*
X142771967Y-105428033D01*
X142767024Y-105422579D01*
X142762640Y-105416668D01*
X142758856Y-105410355D01*
X142755709Y-105403701D01*
X142753229Y-105396771D01*
X142751441Y-105389632D01*
X142750361Y-105382351D01*
X142750000Y-105375000D01*
X142750000Y-105225000D01*
X142750361Y-105217649D01*
X142751441Y-105210368D01*
X142753229Y-105203229D01*
X142755709Y-105196299D01*
X142758856Y-105189645D01*
X142762640Y-105183332D01*
X142767024Y-105177421D01*
X142771967Y-105171967D01*
X142777421Y-105167024D01*
X142783332Y-105162640D01*
X142789645Y-105158856D01*
X142796299Y-105155709D01*
X142803229Y-105153229D01*
X142810368Y-105151441D01*
X142817649Y-105150361D01*
X142825000Y-105150000D01*
X144225000Y-105150000D01*
X144232351Y-105150361D01*
G37*
G36*
X144232351Y-105650361D02*
G01*
X144239632Y-105651441D01*
X144246771Y-105653229D01*
X144253701Y-105655709D01*
X144260355Y-105658856D01*
X144266668Y-105662640D01*
X144272579Y-105667024D01*
X144278033Y-105671967D01*
X144282976Y-105677421D01*
X144287360Y-105683332D01*
X144291144Y-105689645D01*
X144294291Y-105696299D01*
X144296771Y-105703229D01*
X144298559Y-105710368D01*
X144299639Y-105717649D01*
X144300000Y-105725000D01*
X144300000Y-105875000D01*
X144299639Y-105882351D01*
X144298559Y-105889632D01*
X144296771Y-105896771D01*
X144294291Y-105903701D01*
X144291144Y-105910355D01*
X144287360Y-105916668D01*
X144282976Y-105922579D01*
X144278033Y-105928033D01*
X144272579Y-105932976D01*
X144266668Y-105937360D01*
X144260355Y-105941144D01*
X144253701Y-105944291D01*
X144246771Y-105946771D01*
X144239632Y-105948559D01*
X144232351Y-105949639D01*
X144225000Y-105950000D01*
X142825000Y-105950000D01*
X142817649Y-105949639D01*
X142810368Y-105948559D01*
X142803229Y-105946771D01*
X142796299Y-105944291D01*
X142789645Y-105941144D01*
X142783332Y-105937360D01*
X142777421Y-105932976D01*
X142771967Y-105928033D01*
X142767024Y-105922579D01*
X142762640Y-105916668D01*
X142758856Y-105910355D01*
X142755709Y-105903701D01*
X142753229Y-105896771D01*
X142751441Y-105889632D01*
X142750361Y-105882351D01*
X142750000Y-105875000D01*
X142750000Y-105725000D01*
X142750361Y-105717649D01*
X142751441Y-105710368D01*
X142753229Y-105703229D01*
X142755709Y-105696299D01*
X142758856Y-105689645D01*
X142762640Y-105683332D01*
X142767024Y-105677421D01*
X142771967Y-105671967D01*
X142777421Y-105667024D01*
X142783332Y-105662640D01*
X142789645Y-105658856D01*
X142796299Y-105655709D01*
X142803229Y-105653229D01*
X142810368Y-105651441D01*
X142817649Y-105650361D01*
X142825000Y-105650000D01*
X144225000Y-105650000D01*
X144232351Y-105650361D01*
G37*
G36*
X145532351Y-106950361D02*
G01*
X145539632Y-106951441D01*
X145546771Y-106953229D01*
X145553701Y-106955709D01*
X145560355Y-106958856D01*
X145566668Y-106962640D01*
X145572579Y-106967024D01*
X145578033Y-106971967D01*
X145582976Y-106977421D01*
X145587360Y-106983332D01*
X145591144Y-106989645D01*
X145594291Y-106996299D01*
X145596771Y-107003229D01*
X145598559Y-107010368D01*
X145599639Y-107017649D01*
X145600000Y-107025000D01*
X145600000Y-108425000D01*
X145599639Y-108432351D01*
X145598559Y-108439632D01*
X145596771Y-108446771D01*
X145594291Y-108453701D01*
X145591144Y-108460355D01*
X145587360Y-108466668D01*
X145582976Y-108472579D01*
X145578033Y-108478033D01*
X145572579Y-108482976D01*
X145566668Y-108487360D01*
X145560355Y-108491144D01*
X145553701Y-108494291D01*
X145546771Y-108496771D01*
X145539632Y-108498559D01*
X145532351Y-108499639D01*
X145525000Y-108500000D01*
X145375000Y-108500000D01*
X145367649Y-108499639D01*
X145360368Y-108498559D01*
X145353229Y-108496771D01*
X145346299Y-108494291D01*
X145339645Y-108491144D01*
X145333332Y-108487360D01*
X145327421Y-108482976D01*
X145321967Y-108478033D01*
X145317024Y-108472579D01*
X145312640Y-108466668D01*
X145308856Y-108460355D01*
X145305709Y-108453701D01*
X145303229Y-108446771D01*
X145301441Y-108439632D01*
X145300361Y-108432351D01*
X145300000Y-108425000D01*
X145300000Y-107025000D01*
X145300361Y-107017649D01*
X145301441Y-107010368D01*
X145303229Y-107003229D01*
X145305709Y-106996299D01*
X145308856Y-106989645D01*
X145312640Y-106983332D01*
X145317024Y-106977421D01*
X145321967Y-106971967D01*
X145327421Y-106967024D01*
X145333332Y-106962640D01*
X145339645Y-106958856D01*
X145346299Y-106955709D01*
X145353229Y-106953229D01*
X145360368Y-106951441D01*
X145367649Y-106950361D01*
X145375000Y-106950000D01*
X145525000Y-106950000D01*
X145532351Y-106950361D01*
G37*
G36*
X146032351Y-106950361D02*
G01*
X146039632Y-106951441D01*
X146046771Y-106953229D01*
X146053701Y-106955709D01*
X146060355Y-106958856D01*
X146066668Y-106962640D01*
X146072579Y-106967024D01*
X146078033Y-106971967D01*
X146082976Y-106977421D01*
X146087360Y-106983332D01*
X146091144Y-106989645D01*
X146094291Y-106996299D01*
X146096771Y-107003229D01*
X146098559Y-107010368D01*
X146099639Y-107017649D01*
X146100000Y-107025000D01*
X146100000Y-108425000D01*
X146099639Y-108432351D01*
X146098559Y-108439632D01*
X146096771Y-108446771D01*
X146094291Y-108453701D01*
X146091144Y-108460355D01*
X146087360Y-108466668D01*
X146082976Y-108472579D01*
X146078033Y-108478033D01*
X146072579Y-108482976D01*
X146066668Y-108487360D01*
X146060355Y-108491144D01*
X146053701Y-108494291D01*
X146046771Y-108496771D01*
X146039632Y-108498559D01*
X146032351Y-108499639D01*
X146025000Y-108500000D01*
X145875000Y-108500000D01*
X145867649Y-108499639D01*
X145860368Y-108498559D01*
X145853229Y-108496771D01*
X145846299Y-108494291D01*
X145839645Y-108491144D01*
X145833332Y-108487360D01*
X145827421Y-108482976D01*
X145821967Y-108478033D01*
X145817024Y-108472579D01*
X145812640Y-108466668D01*
X145808856Y-108460355D01*
X145805709Y-108453701D01*
X145803229Y-108446771D01*
X145801441Y-108439632D01*
X145800361Y-108432351D01*
X145800000Y-108425000D01*
X145800000Y-107025000D01*
X145800361Y-107017649D01*
X145801441Y-107010368D01*
X145803229Y-107003229D01*
X145805709Y-106996299D01*
X145808856Y-106989645D01*
X145812640Y-106983332D01*
X145817024Y-106977421D01*
X145821967Y-106971967D01*
X145827421Y-106967024D01*
X145833332Y-106962640D01*
X145839645Y-106958856D01*
X145846299Y-106955709D01*
X145853229Y-106953229D01*
X145860368Y-106951441D01*
X145867649Y-106950361D01*
X145875000Y-106950000D01*
X146025000Y-106950000D01*
X146032351Y-106950361D01*
G37*
G36*
X146532351Y-106950361D02*
G01*
X146539632Y-106951441D01*
X146546771Y-106953229D01*
X146553701Y-106955709D01*
X146560355Y-106958856D01*
X146566668Y-106962640D01*
X146572579Y-106967024D01*
X146578033Y-106971967D01*
X146582976Y-106977421D01*
X146587360Y-106983332D01*
X146591144Y-106989645D01*
X146594291Y-106996299D01*
X146596771Y-107003229D01*
X146598559Y-107010368D01*
X146599639Y-107017649D01*
X146600000Y-107025000D01*
X146600000Y-108425000D01*
X146599639Y-108432351D01*
X146598559Y-108439632D01*
X146596771Y-108446771D01*
X146594291Y-108453701D01*
X146591144Y-108460355D01*
X146587360Y-108466668D01*
X146582976Y-108472579D01*
X146578033Y-108478033D01*
X146572579Y-108482976D01*
X146566668Y-108487360D01*
X146560355Y-108491144D01*
X146553701Y-108494291D01*
X146546771Y-108496771D01*
X146539632Y-108498559D01*
X146532351Y-108499639D01*
X146525000Y-108500000D01*
X146375000Y-108500000D01*
X146367649Y-108499639D01*
X146360368Y-108498559D01*
X146353229Y-108496771D01*
X146346299Y-108494291D01*
X146339645Y-108491144D01*
X146333332Y-108487360D01*
X146327421Y-108482976D01*
X146321967Y-108478033D01*
X146317024Y-108472579D01*
X146312640Y-108466668D01*
X146308856Y-108460355D01*
X146305709Y-108453701D01*
X146303229Y-108446771D01*
X146301441Y-108439632D01*
X146300361Y-108432351D01*
X146300000Y-108425000D01*
X146300000Y-107025000D01*
X146300361Y-107017649D01*
X146301441Y-107010368D01*
X146303229Y-107003229D01*
X146305709Y-106996299D01*
X146308856Y-106989645D01*
X146312640Y-106983332D01*
X146317024Y-106977421D01*
X146321967Y-106971967D01*
X146327421Y-106967024D01*
X146333332Y-106962640D01*
X146339645Y-106958856D01*
X146346299Y-106955709D01*
X146353229Y-106953229D01*
X146360368Y-106951441D01*
X146367649Y-106950361D01*
X146375000Y-106950000D01*
X146525000Y-106950000D01*
X146532351Y-106950361D01*
G37*
G36*
X147032351Y-106950361D02*
G01*
X147039632Y-106951441D01*
X147046771Y-106953229D01*
X147053701Y-106955709D01*
X147060355Y-106958856D01*
X147066668Y-106962640D01*
X147072579Y-106967024D01*
X147078033Y-106971967D01*
X147082976Y-106977421D01*
X147087360Y-106983332D01*
X147091144Y-106989645D01*
X147094291Y-106996299D01*
X147096771Y-107003229D01*
X147098559Y-107010368D01*
X147099639Y-107017649D01*
X147100000Y-107025000D01*
X147100000Y-108425000D01*
X147099639Y-108432351D01*
X147098559Y-108439632D01*
X147096771Y-108446771D01*
X147094291Y-108453701D01*
X147091144Y-108460355D01*
X147087360Y-108466668D01*
X147082976Y-108472579D01*
X147078033Y-108478033D01*
X147072579Y-108482976D01*
X147066668Y-108487360D01*
X147060355Y-108491144D01*
X147053701Y-108494291D01*
X147046771Y-108496771D01*
X147039632Y-108498559D01*
X147032351Y-108499639D01*
X147025000Y-108500000D01*
X146875000Y-108500000D01*
X146867649Y-108499639D01*
X146860368Y-108498559D01*
X146853229Y-108496771D01*
X146846299Y-108494291D01*
X146839645Y-108491144D01*
X146833332Y-108487360D01*
X146827421Y-108482976D01*
X146821967Y-108478033D01*
X146817024Y-108472579D01*
X146812640Y-108466668D01*
X146808856Y-108460355D01*
X146805709Y-108453701D01*
X146803229Y-108446771D01*
X146801441Y-108439632D01*
X146800361Y-108432351D01*
X146800000Y-108425000D01*
X146800000Y-107025000D01*
X146800361Y-107017649D01*
X146801441Y-107010368D01*
X146803229Y-107003229D01*
X146805709Y-106996299D01*
X146808856Y-106989645D01*
X146812640Y-106983332D01*
X146817024Y-106977421D01*
X146821967Y-106971967D01*
X146827421Y-106967024D01*
X146833332Y-106962640D01*
X146839645Y-106958856D01*
X146846299Y-106955709D01*
X146853229Y-106953229D01*
X146860368Y-106951441D01*
X146867649Y-106950361D01*
X146875000Y-106950000D01*
X147025000Y-106950000D01*
X147032351Y-106950361D01*
G37*
G36*
X147532351Y-106950361D02*
G01*
X147539632Y-106951441D01*
X147546771Y-106953229D01*
X147553701Y-106955709D01*
X147560355Y-106958856D01*
X147566668Y-106962640D01*
X147572579Y-106967024D01*
X147578033Y-106971967D01*
X147582976Y-106977421D01*
X147587360Y-106983332D01*
X147591144Y-106989645D01*
X147594291Y-106996299D01*
X147596771Y-107003229D01*
X147598559Y-107010368D01*
X147599639Y-107017649D01*
X147600000Y-107025000D01*
X147600000Y-108425000D01*
X147599639Y-108432351D01*
X147598559Y-108439632D01*
X147596771Y-108446771D01*
X147594291Y-108453701D01*
X147591144Y-108460355D01*
X147587360Y-108466668D01*
X147582976Y-108472579D01*
X147578033Y-108478033D01*
X147572579Y-108482976D01*
X147566668Y-108487360D01*
X147560355Y-108491144D01*
X147553701Y-108494291D01*
X147546771Y-108496771D01*
X147539632Y-108498559D01*
X147532351Y-108499639D01*
X147525000Y-108500000D01*
X147375000Y-108500000D01*
X147367649Y-108499639D01*
X147360368Y-108498559D01*
X147353229Y-108496771D01*
X147346299Y-108494291D01*
X147339645Y-108491144D01*
X147333332Y-108487360D01*
X147327421Y-108482976D01*
X147321967Y-108478033D01*
X147317024Y-108472579D01*
X147312640Y-108466668D01*
X147308856Y-108460355D01*
X147305709Y-108453701D01*
X147303229Y-108446771D01*
X147301441Y-108439632D01*
X147300361Y-108432351D01*
X147300000Y-108425000D01*
X147300000Y-107025000D01*
X147300361Y-107017649D01*
X147301441Y-107010368D01*
X147303229Y-107003229D01*
X147305709Y-106996299D01*
X147308856Y-106989645D01*
X147312640Y-106983332D01*
X147317024Y-106977421D01*
X147321967Y-106971967D01*
X147327421Y-106967024D01*
X147333332Y-106962640D01*
X147339645Y-106958856D01*
X147346299Y-106955709D01*
X147353229Y-106953229D01*
X147360368Y-106951441D01*
X147367649Y-106950361D01*
X147375000Y-106950000D01*
X147525000Y-106950000D01*
X147532351Y-106950361D01*
G37*
G36*
X148032351Y-106950361D02*
G01*
X148039632Y-106951441D01*
X148046771Y-106953229D01*
X148053701Y-106955709D01*
X148060355Y-106958856D01*
X148066668Y-106962640D01*
X148072579Y-106967024D01*
X148078033Y-106971967D01*
X148082976Y-106977421D01*
X148087360Y-106983332D01*
X148091144Y-106989645D01*
X148094291Y-106996299D01*
X148096771Y-107003229D01*
X148098559Y-107010368D01*
X148099639Y-107017649D01*
X148100000Y-107025000D01*
X148100000Y-108425000D01*
X148099639Y-108432351D01*
X148098559Y-108439632D01*
X148096771Y-108446771D01*
X148094291Y-108453701D01*
X148091144Y-108460355D01*
X148087360Y-108466668D01*
X148082976Y-108472579D01*
X148078033Y-108478033D01*
X148072579Y-108482976D01*
X148066668Y-108487360D01*
X148060355Y-108491144D01*
X148053701Y-108494291D01*
X148046771Y-108496771D01*
X148039632Y-108498559D01*
X148032351Y-108499639D01*
X148025000Y-108500000D01*
X147875000Y-108500000D01*
X147867649Y-108499639D01*
X147860368Y-108498559D01*
X147853229Y-108496771D01*
X147846299Y-108494291D01*
X147839645Y-108491144D01*
X147833332Y-108487360D01*
X147827421Y-108482976D01*
X147821967Y-108478033D01*
X147817024Y-108472579D01*
X147812640Y-108466668D01*
X147808856Y-108460355D01*
X147805709Y-108453701D01*
X147803229Y-108446771D01*
X147801441Y-108439632D01*
X147800361Y-108432351D01*
X147800000Y-108425000D01*
X147800000Y-107025000D01*
X147800361Y-107017649D01*
X147801441Y-107010368D01*
X147803229Y-107003229D01*
X147805709Y-106996299D01*
X147808856Y-106989645D01*
X147812640Y-106983332D01*
X147817024Y-106977421D01*
X147821967Y-106971967D01*
X147827421Y-106967024D01*
X147833332Y-106962640D01*
X147839645Y-106958856D01*
X147846299Y-106955709D01*
X147853229Y-106953229D01*
X147860368Y-106951441D01*
X147867649Y-106950361D01*
X147875000Y-106950000D01*
X148025000Y-106950000D01*
X148032351Y-106950361D01*
G37*
G36*
X148532351Y-106950361D02*
G01*
X148539632Y-106951441D01*
X148546771Y-106953229D01*
X148553701Y-106955709D01*
X148560355Y-106958856D01*
X148566668Y-106962640D01*
X148572579Y-106967024D01*
X148578033Y-106971967D01*
X148582976Y-106977421D01*
X148587360Y-106983332D01*
X148591144Y-106989645D01*
X148594291Y-106996299D01*
X148596771Y-107003229D01*
X148598559Y-107010368D01*
X148599639Y-107017649D01*
X148600000Y-107025000D01*
X148600000Y-108425000D01*
X148599639Y-108432351D01*
X148598559Y-108439632D01*
X148596771Y-108446771D01*
X148594291Y-108453701D01*
X148591144Y-108460355D01*
X148587360Y-108466668D01*
X148582976Y-108472579D01*
X148578033Y-108478033D01*
X148572579Y-108482976D01*
X148566668Y-108487360D01*
X148560355Y-108491144D01*
X148553701Y-108494291D01*
X148546771Y-108496771D01*
X148539632Y-108498559D01*
X148532351Y-108499639D01*
X148525000Y-108500000D01*
X148375000Y-108500000D01*
X148367649Y-108499639D01*
X148360368Y-108498559D01*
X148353229Y-108496771D01*
X148346299Y-108494291D01*
X148339645Y-108491144D01*
X148333332Y-108487360D01*
X148327421Y-108482976D01*
X148321967Y-108478033D01*
X148317024Y-108472579D01*
X148312640Y-108466668D01*
X148308856Y-108460355D01*
X148305709Y-108453701D01*
X148303229Y-108446771D01*
X148301441Y-108439632D01*
X148300361Y-108432351D01*
X148300000Y-108425000D01*
X148300000Y-107025000D01*
X148300361Y-107017649D01*
X148301441Y-107010368D01*
X148303229Y-107003229D01*
X148305709Y-106996299D01*
X148308856Y-106989645D01*
X148312640Y-106983332D01*
X148317024Y-106977421D01*
X148321967Y-106971967D01*
X148327421Y-106967024D01*
X148333332Y-106962640D01*
X148339645Y-106958856D01*
X148346299Y-106955709D01*
X148353229Y-106953229D01*
X148360368Y-106951441D01*
X148367649Y-106950361D01*
X148375000Y-106950000D01*
X148525000Y-106950000D01*
X148532351Y-106950361D01*
G37*
G36*
X149032351Y-106950361D02*
G01*
X149039632Y-106951441D01*
X149046771Y-106953229D01*
X149053701Y-106955709D01*
X149060355Y-106958856D01*
X149066668Y-106962640D01*
X149072579Y-106967024D01*
X149078033Y-106971967D01*
X149082976Y-106977421D01*
X149087360Y-106983332D01*
X149091144Y-106989645D01*
X149094291Y-106996299D01*
X149096771Y-107003229D01*
X149098559Y-107010368D01*
X149099639Y-107017649D01*
X149100000Y-107025000D01*
X149100000Y-108425000D01*
X149099639Y-108432351D01*
X149098559Y-108439632D01*
X149096771Y-108446771D01*
X149094291Y-108453701D01*
X149091144Y-108460355D01*
X149087360Y-108466668D01*
X149082976Y-108472579D01*
X149078033Y-108478033D01*
X149072579Y-108482976D01*
X149066668Y-108487360D01*
X149060355Y-108491144D01*
X149053701Y-108494291D01*
X149046771Y-108496771D01*
X149039632Y-108498559D01*
X149032351Y-108499639D01*
X149025000Y-108500000D01*
X148875000Y-108500000D01*
X148867649Y-108499639D01*
X148860368Y-108498559D01*
X148853229Y-108496771D01*
X148846299Y-108494291D01*
X148839645Y-108491144D01*
X148833332Y-108487360D01*
X148827421Y-108482976D01*
X148821967Y-108478033D01*
X148817024Y-108472579D01*
X148812640Y-108466668D01*
X148808856Y-108460355D01*
X148805709Y-108453701D01*
X148803229Y-108446771D01*
X148801441Y-108439632D01*
X148800361Y-108432351D01*
X148800000Y-108425000D01*
X148800000Y-107025000D01*
X148800361Y-107017649D01*
X148801441Y-107010368D01*
X148803229Y-107003229D01*
X148805709Y-106996299D01*
X148808856Y-106989645D01*
X148812640Y-106983332D01*
X148817024Y-106977421D01*
X148821967Y-106971967D01*
X148827421Y-106967024D01*
X148833332Y-106962640D01*
X148839645Y-106958856D01*
X148846299Y-106955709D01*
X148853229Y-106953229D01*
X148860368Y-106951441D01*
X148867649Y-106950361D01*
X148875000Y-106950000D01*
X149025000Y-106950000D01*
X149032351Y-106950361D01*
G37*
G36*
X149532351Y-106950361D02*
G01*
X149539632Y-106951441D01*
X149546771Y-106953229D01*
X149553701Y-106955709D01*
X149560355Y-106958856D01*
X149566668Y-106962640D01*
X149572579Y-106967024D01*
X149578033Y-106971967D01*
X149582976Y-106977421D01*
X149587360Y-106983332D01*
X149591144Y-106989645D01*
X149594291Y-106996299D01*
X149596771Y-107003229D01*
X149598559Y-107010368D01*
X149599639Y-107017649D01*
X149600000Y-107025000D01*
X149600000Y-108425000D01*
X149599639Y-108432351D01*
X149598559Y-108439632D01*
X149596771Y-108446771D01*
X149594291Y-108453701D01*
X149591144Y-108460355D01*
X149587360Y-108466668D01*
X149582976Y-108472579D01*
X149578033Y-108478033D01*
X149572579Y-108482976D01*
X149566668Y-108487360D01*
X149560355Y-108491144D01*
X149553701Y-108494291D01*
X149546771Y-108496771D01*
X149539632Y-108498559D01*
X149532351Y-108499639D01*
X149525000Y-108500000D01*
X149375000Y-108500000D01*
X149367649Y-108499639D01*
X149360368Y-108498559D01*
X149353229Y-108496771D01*
X149346299Y-108494291D01*
X149339645Y-108491144D01*
X149333332Y-108487360D01*
X149327421Y-108482976D01*
X149321967Y-108478033D01*
X149317024Y-108472579D01*
X149312640Y-108466668D01*
X149308856Y-108460355D01*
X149305709Y-108453701D01*
X149303229Y-108446771D01*
X149301441Y-108439632D01*
X149300361Y-108432351D01*
X149300000Y-108425000D01*
X149300000Y-107025000D01*
X149300361Y-107017649D01*
X149301441Y-107010368D01*
X149303229Y-107003229D01*
X149305709Y-106996299D01*
X149308856Y-106989645D01*
X149312640Y-106983332D01*
X149317024Y-106977421D01*
X149321967Y-106971967D01*
X149327421Y-106967024D01*
X149333332Y-106962640D01*
X149339645Y-106958856D01*
X149346299Y-106955709D01*
X149353229Y-106953229D01*
X149360368Y-106951441D01*
X149367649Y-106950361D01*
X149375000Y-106950000D01*
X149525000Y-106950000D01*
X149532351Y-106950361D01*
G37*
G36*
X150032351Y-106950361D02*
G01*
X150039632Y-106951441D01*
X150046771Y-106953229D01*
X150053701Y-106955709D01*
X150060355Y-106958856D01*
X150066668Y-106962640D01*
X150072579Y-106967024D01*
X150078033Y-106971967D01*
X150082976Y-106977421D01*
X150087360Y-106983332D01*
X150091144Y-106989645D01*
X150094291Y-106996299D01*
X150096771Y-107003229D01*
X150098559Y-107010368D01*
X150099639Y-107017649D01*
X150100000Y-107025000D01*
X150100000Y-108425000D01*
X150099639Y-108432351D01*
X150098559Y-108439632D01*
X150096771Y-108446771D01*
X150094291Y-108453701D01*
X150091144Y-108460355D01*
X150087360Y-108466668D01*
X150082976Y-108472579D01*
X150078033Y-108478033D01*
X150072579Y-108482976D01*
X150066668Y-108487360D01*
X150060355Y-108491144D01*
X150053701Y-108494291D01*
X150046771Y-108496771D01*
X150039632Y-108498559D01*
X150032351Y-108499639D01*
X150025000Y-108500000D01*
X149875000Y-108500000D01*
X149867649Y-108499639D01*
X149860368Y-108498559D01*
X149853229Y-108496771D01*
X149846299Y-108494291D01*
X149839645Y-108491144D01*
X149833332Y-108487360D01*
X149827421Y-108482976D01*
X149821967Y-108478033D01*
X149817024Y-108472579D01*
X149812640Y-108466668D01*
X149808856Y-108460355D01*
X149805709Y-108453701D01*
X149803229Y-108446771D01*
X149801441Y-108439632D01*
X149800361Y-108432351D01*
X149800000Y-108425000D01*
X149800000Y-107025000D01*
X149800361Y-107017649D01*
X149801441Y-107010368D01*
X149803229Y-107003229D01*
X149805709Y-106996299D01*
X149808856Y-106989645D01*
X149812640Y-106983332D01*
X149817024Y-106977421D01*
X149821967Y-106971967D01*
X149827421Y-106967024D01*
X149833332Y-106962640D01*
X149839645Y-106958856D01*
X149846299Y-106955709D01*
X149853229Y-106953229D01*
X149860368Y-106951441D01*
X149867649Y-106950361D01*
X149875000Y-106950000D01*
X150025000Y-106950000D01*
X150032351Y-106950361D01*
G37*
G36*
X150532351Y-106950361D02*
G01*
X150539632Y-106951441D01*
X150546771Y-106953229D01*
X150553701Y-106955709D01*
X150560355Y-106958856D01*
X150566668Y-106962640D01*
X150572579Y-106967024D01*
X150578033Y-106971967D01*
X150582976Y-106977421D01*
X150587360Y-106983332D01*
X150591144Y-106989645D01*
X150594291Y-106996299D01*
X150596771Y-107003229D01*
X150598559Y-107010368D01*
X150599639Y-107017649D01*
X150600000Y-107025000D01*
X150600000Y-108425000D01*
X150599639Y-108432351D01*
X150598559Y-108439632D01*
X150596771Y-108446771D01*
X150594291Y-108453701D01*
X150591144Y-108460355D01*
X150587360Y-108466668D01*
X150582976Y-108472579D01*
X150578033Y-108478033D01*
X150572579Y-108482976D01*
X150566668Y-108487360D01*
X150560355Y-108491144D01*
X150553701Y-108494291D01*
X150546771Y-108496771D01*
X150539632Y-108498559D01*
X150532351Y-108499639D01*
X150525000Y-108500000D01*
X150375000Y-108500000D01*
X150367649Y-108499639D01*
X150360368Y-108498559D01*
X150353229Y-108496771D01*
X150346299Y-108494291D01*
X150339645Y-108491144D01*
X150333332Y-108487360D01*
X150327421Y-108482976D01*
X150321967Y-108478033D01*
X150317024Y-108472579D01*
X150312640Y-108466668D01*
X150308856Y-108460355D01*
X150305709Y-108453701D01*
X150303229Y-108446771D01*
X150301441Y-108439632D01*
X150300361Y-108432351D01*
X150300000Y-108425000D01*
X150300000Y-107025000D01*
X150300361Y-107017649D01*
X150301441Y-107010368D01*
X150303229Y-107003229D01*
X150305709Y-106996299D01*
X150308856Y-106989645D01*
X150312640Y-106983332D01*
X150317024Y-106977421D01*
X150321967Y-106971967D01*
X150327421Y-106967024D01*
X150333332Y-106962640D01*
X150339645Y-106958856D01*
X150346299Y-106955709D01*
X150353229Y-106953229D01*
X150360368Y-106951441D01*
X150367649Y-106950361D01*
X150375000Y-106950000D01*
X150525000Y-106950000D01*
X150532351Y-106950361D01*
G37*
G36*
X151032351Y-106950361D02*
G01*
X151039632Y-106951441D01*
X151046771Y-106953229D01*
X151053701Y-106955709D01*
X151060355Y-106958856D01*
X151066668Y-106962640D01*
X151072579Y-106967024D01*
X151078033Y-106971967D01*
X151082976Y-106977421D01*
X151087360Y-106983332D01*
X151091144Y-106989645D01*
X151094291Y-106996299D01*
X151096771Y-107003229D01*
X151098559Y-107010368D01*
X151099639Y-107017649D01*
X151100000Y-107025000D01*
X151100000Y-108425000D01*
X151099639Y-108432351D01*
X151098559Y-108439632D01*
X151096771Y-108446771D01*
X151094291Y-108453701D01*
X151091144Y-108460355D01*
X151087360Y-108466668D01*
X151082976Y-108472579D01*
X151078033Y-108478033D01*
X151072579Y-108482976D01*
X151066668Y-108487360D01*
X151060355Y-108491144D01*
X151053701Y-108494291D01*
X151046771Y-108496771D01*
X151039632Y-108498559D01*
X151032351Y-108499639D01*
X151025000Y-108500000D01*
X150875000Y-108500000D01*
X150867649Y-108499639D01*
X150860368Y-108498559D01*
X150853229Y-108496771D01*
X150846299Y-108494291D01*
X150839645Y-108491144D01*
X150833332Y-108487360D01*
X150827421Y-108482976D01*
X150821967Y-108478033D01*
X150817024Y-108472579D01*
X150812640Y-108466668D01*
X150808856Y-108460355D01*
X150805709Y-108453701D01*
X150803229Y-108446771D01*
X150801441Y-108439632D01*
X150800361Y-108432351D01*
X150800000Y-108425000D01*
X150800000Y-107025000D01*
X150800361Y-107017649D01*
X150801441Y-107010368D01*
X150803229Y-107003229D01*
X150805709Y-106996299D01*
X150808856Y-106989645D01*
X150812640Y-106983332D01*
X150817024Y-106977421D01*
X150821967Y-106971967D01*
X150827421Y-106967024D01*
X150833332Y-106962640D01*
X150839645Y-106958856D01*
X150846299Y-106955709D01*
X150853229Y-106953229D01*
X150860368Y-106951441D01*
X150867649Y-106950361D01*
X150875000Y-106950000D01*
X151025000Y-106950000D01*
X151032351Y-106950361D01*
G37*
G36*
X151532351Y-106950361D02*
G01*
X151539632Y-106951441D01*
X151546771Y-106953229D01*
X151553701Y-106955709D01*
X151560355Y-106958856D01*
X151566668Y-106962640D01*
X151572579Y-106967024D01*
X151578033Y-106971967D01*
X151582976Y-106977421D01*
X151587360Y-106983332D01*
X151591144Y-106989645D01*
X151594291Y-106996299D01*
X151596771Y-107003229D01*
X151598559Y-107010368D01*
X151599639Y-107017649D01*
X151600000Y-107025000D01*
X151600000Y-108425000D01*
X151599639Y-108432351D01*
X151598559Y-108439632D01*
X151596771Y-108446771D01*
X151594291Y-108453701D01*
X151591144Y-108460355D01*
X151587360Y-108466668D01*
X151582976Y-108472579D01*
X151578033Y-108478033D01*
X151572579Y-108482976D01*
X151566668Y-108487360D01*
X151560355Y-108491144D01*
X151553701Y-108494291D01*
X151546771Y-108496771D01*
X151539632Y-108498559D01*
X151532351Y-108499639D01*
X151525000Y-108500000D01*
X151375000Y-108500000D01*
X151367649Y-108499639D01*
X151360368Y-108498559D01*
X151353229Y-108496771D01*
X151346299Y-108494291D01*
X151339645Y-108491144D01*
X151333332Y-108487360D01*
X151327421Y-108482976D01*
X151321967Y-108478033D01*
X151317024Y-108472579D01*
X151312640Y-108466668D01*
X151308856Y-108460355D01*
X151305709Y-108453701D01*
X151303229Y-108446771D01*
X151301441Y-108439632D01*
X151300361Y-108432351D01*
X151300000Y-108425000D01*
X151300000Y-107025000D01*
X151300361Y-107017649D01*
X151301441Y-107010368D01*
X151303229Y-107003229D01*
X151305709Y-106996299D01*
X151308856Y-106989645D01*
X151312640Y-106983332D01*
X151317024Y-106977421D01*
X151321967Y-106971967D01*
X151327421Y-106967024D01*
X151333332Y-106962640D01*
X151339645Y-106958856D01*
X151346299Y-106955709D01*
X151353229Y-106953229D01*
X151360368Y-106951441D01*
X151367649Y-106950361D01*
X151375000Y-106950000D01*
X151525000Y-106950000D01*
X151532351Y-106950361D01*
G37*
G36*
X152032351Y-106950361D02*
G01*
X152039632Y-106951441D01*
X152046771Y-106953229D01*
X152053701Y-106955709D01*
X152060355Y-106958856D01*
X152066668Y-106962640D01*
X152072579Y-106967024D01*
X152078033Y-106971967D01*
X152082976Y-106977421D01*
X152087360Y-106983332D01*
X152091144Y-106989645D01*
X152094291Y-106996299D01*
X152096771Y-107003229D01*
X152098559Y-107010368D01*
X152099639Y-107017649D01*
X152100000Y-107025000D01*
X152100000Y-108425000D01*
X152099639Y-108432351D01*
X152098559Y-108439632D01*
X152096771Y-108446771D01*
X152094291Y-108453701D01*
X152091144Y-108460355D01*
X152087360Y-108466668D01*
X152082976Y-108472579D01*
X152078033Y-108478033D01*
X152072579Y-108482976D01*
X152066668Y-108487360D01*
X152060355Y-108491144D01*
X152053701Y-108494291D01*
X152046771Y-108496771D01*
X152039632Y-108498559D01*
X152032351Y-108499639D01*
X152025000Y-108500000D01*
X151875000Y-108500000D01*
X151867649Y-108499639D01*
X151860368Y-108498559D01*
X151853229Y-108496771D01*
X151846299Y-108494291D01*
X151839645Y-108491144D01*
X151833332Y-108487360D01*
X151827421Y-108482976D01*
X151821967Y-108478033D01*
X151817024Y-108472579D01*
X151812640Y-108466668D01*
X151808856Y-108460355D01*
X151805709Y-108453701D01*
X151803229Y-108446771D01*
X151801441Y-108439632D01*
X151800361Y-108432351D01*
X151800000Y-108425000D01*
X151800000Y-107025000D01*
X151800361Y-107017649D01*
X151801441Y-107010368D01*
X151803229Y-107003229D01*
X151805709Y-106996299D01*
X151808856Y-106989645D01*
X151812640Y-106983332D01*
X151817024Y-106977421D01*
X151821967Y-106971967D01*
X151827421Y-106967024D01*
X151833332Y-106962640D01*
X151839645Y-106958856D01*
X151846299Y-106955709D01*
X151853229Y-106953229D01*
X151860368Y-106951441D01*
X151867649Y-106950361D01*
X151875000Y-106950000D01*
X152025000Y-106950000D01*
X152032351Y-106950361D01*
G37*
G36*
X152532351Y-106950361D02*
G01*
X152539632Y-106951441D01*
X152546771Y-106953229D01*
X152553701Y-106955709D01*
X152560355Y-106958856D01*
X152566668Y-106962640D01*
X152572579Y-106967024D01*
X152578033Y-106971967D01*
X152582976Y-106977421D01*
X152587360Y-106983332D01*
X152591144Y-106989645D01*
X152594291Y-106996299D01*
X152596771Y-107003229D01*
X152598559Y-107010368D01*
X152599639Y-107017649D01*
X152600000Y-107025000D01*
X152600000Y-108425000D01*
X152599639Y-108432351D01*
X152598559Y-108439632D01*
X152596771Y-108446771D01*
X152594291Y-108453701D01*
X152591144Y-108460355D01*
X152587360Y-108466668D01*
X152582976Y-108472579D01*
X152578033Y-108478033D01*
X152572579Y-108482976D01*
X152566668Y-108487360D01*
X152560355Y-108491144D01*
X152553701Y-108494291D01*
X152546771Y-108496771D01*
X152539632Y-108498559D01*
X152532351Y-108499639D01*
X152525000Y-108500000D01*
X152375000Y-108500000D01*
X152367649Y-108499639D01*
X152360368Y-108498559D01*
X152353229Y-108496771D01*
X152346299Y-108494291D01*
X152339645Y-108491144D01*
X152333332Y-108487360D01*
X152327421Y-108482976D01*
X152321967Y-108478033D01*
X152317024Y-108472579D01*
X152312640Y-108466668D01*
X152308856Y-108460355D01*
X152305709Y-108453701D01*
X152303229Y-108446771D01*
X152301441Y-108439632D01*
X152300361Y-108432351D01*
X152300000Y-108425000D01*
X152300000Y-107025000D01*
X152300361Y-107017649D01*
X152301441Y-107010368D01*
X152303229Y-107003229D01*
X152305709Y-106996299D01*
X152308856Y-106989645D01*
X152312640Y-106983332D01*
X152317024Y-106977421D01*
X152321967Y-106971967D01*
X152327421Y-106967024D01*
X152333332Y-106962640D01*
X152339645Y-106958856D01*
X152346299Y-106955709D01*
X152353229Y-106953229D01*
X152360368Y-106951441D01*
X152367649Y-106950361D01*
X152375000Y-106950000D01*
X152525000Y-106950000D01*
X152532351Y-106950361D01*
G37*
G36*
X153032351Y-106950361D02*
G01*
X153039632Y-106951441D01*
X153046771Y-106953229D01*
X153053701Y-106955709D01*
X153060355Y-106958856D01*
X153066668Y-106962640D01*
X153072579Y-106967024D01*
X153078033Y-106971967D01*
X153082976Y-106977421D01*
X153087360Y-106983332D01*
X153091144Y-106989645D01*
X153094291Y-106996299D01*
X153096771Y-107003229D01*
X153098559Y-107010368D01*
X153099639Y-107017649D01*
X153100000Y-107025000D01*
X153100000Y-108425000D01*
X153099639Y-108432351D01*
X153098559Y-108439632D01*
X153096771Y-108446771D01*
X153094291Y-108453701D01*
X153091144Y-108460355D01*
X153087360Y-108466668D01*
X153082976Y-108472579D01*
X153078033Y-108478033D01*
X153072579Y-108482976D01*
X153066668Y-108487360D01*
X153060355Y-108491144D01*
X153053701Y-108494291D01*
X153046771Y-108496771D01*
X153039632Y-108498559D01*
X153032351Y-108499639D01*
X153025000Y-108500000D01*
X152875000Y-108500000D01*
X152867649Y-108499639D01*
X152860368Y-108498559D01*
X152853229Y-108496771D01*
X152846299Y-108494291D01*
X152839645Y-108491144D01*
X152833332Y-108487360D01*
X152827421Y-108482976D01*
X152821967Y-108478033D01*
X152817024Y-108472579D01*
X152812640Y-108466668D01*
X152808856Y-108460355D01*
X152805709Y-108453701D01*
X152803229Y-108446771D01*
X152801441Y-108439632D01*
X152800361Y-108432351D01*
X152800000Y-108425000D01*
X152800000Y-107025000D01*
X152800361Y-107017649D01*
X152801441Y-107010368D01*
X152803229Y-107003229D01*
X152805709Y-106996299D01*
X152808856Y-106989645D01*
X152812640Y-106983332D01*
X152817024Y-106977421D01*
X152821967Y-106971967D01*
X152827421Y-106967024D01*
X152833332Y-106962640D01*
X152839645Y-106958856D01*
X152846299Y-106955709D01*
X152853229Y-106953229D01*
X152860368Y-106951441D01*
X152867649Y-106950361D01*
X152875000Y-106950000D01*
X153025000Y-106950000D01*
X153032351Y-106950361D01*
G37*
G36*
X155582351Y-105650361D02*
G01*
X155589632Y-105651441D01*
X155596771Y-105653229D01*
X155603701Y-105655709D01*
X155610355Y-105658856D01*
X155616668Y-105662640D01*
X155622579Y-105667024D01*
X155628033Y-105671967D01*
X155632976Y-105677421D01*
X155637360Y-105683332D01*
X155641144Y-105689645D01*
X155644291Y-105696299D01*
X155646771Y-105703229D01*
X155648559Y-105710368D01*
X155649639Y-105717649D01*
X155650000Y-105725000D01*
X155650000Y-105875000D01*
X155649639Y-105882351D01*
X155648559Y-105889632D01*
X155646771Y-105896771D01*
X155644291Y-105903701D01*
X155641144Y-105910355D01*
X155637360Y-105916668D01*
X155632976Y-105922579D01*
X155628033Y-105928033D01*
X155622579Y-105932976D01*
X155616668Y-105937360D01*
X155610355Y-105941144D01*
X155603701Y-105944291D01*
X155596771Y-105946771D01*
X155589632Y-105948559D01*
X155582351Y-105949639D01*
X155575000Y-105950000D01*
X154175000Y-105950000D01*
X154167649Y-105949639D01*
X154160368Y-105948559D01*
X154153229Y-105946771D01*
X154146299Y-105944291D01*
X154139645Y-105941144D01*
X154133332Y-105937360D01*
X154127421Y-105932976D01*
X154121967Y-105928033D01*
X154117024Y-105922579D01*
X154112640Y-105916668D01*
X154108856Y-105910355D01*
X154105709Y-105903701D01*
X154103229Y-105896771D01*
X154101441Y-105889632D01*
X154100361Y-105882351D01*
X154100000Y-105875000D01*
X154100000Y-105725000D01*
X154100361Y-105717649D01*
X154101441Y-105710368D01*
X154103229Y-105703229D01*
X154105709Y-105696299D01*
X154108856Y-105689645D01*
X154112640Y-105683332D01*
X154117024Y-105677421D01*
X154121967Y-105671967D01*
X154127421Y-105667024D01*
X154133332Y-105662640D01*
X154139645Y-105658856D01*
X154146299Y-105655709D01*
X154153229Y-105653229D01*
X154160368Y-105651441D01*
X154167649Y-105650361D01*
X154175000Y-105650000D01*
X155575000Y-105650000D01*
X155582351Y-105650361D01*
G37*
G36*
X155582351Y-105150361D02*
G01*
X155589632Y-105151441D01*
X155596771Y-105153229D01*
X155603701Y-105155709D01*
X155610355Y-105158856D01*
X155616668Y-105162640D01*
X155622579Y-105167024D01*
X155628033Y-105171967D01*
X155632976Y-105177421D01*
X155637360Y-105183332D01*
X155641144Y-105189645D01*
X155644291Y-105196299D01*
X155646771Y-105203229D01*
X155648559Y-105210368D01*
X155649639Y-105217649D01*
X155650000Y-105225000D01*
X155650000Y-105375000D01*
X155649639Y-105382351D01*
X155648559Y-105389632D01*
X155646771Y-105396771D01*
X155644291Y-105403701D01*
X155641144Y-105410355D01*
X155637360Y-105416668D01*
X155632976Y-105422579D01*
X155628033Y-105428033D01*
X155622579Y-105432976D01*
X155616668Y-105437360D01*
X155610355Y-105441144D01*
X155603701Y-105444291D01*
X155596771Y-105446771D01*
X155589632Y-105448559D01*
X155582351Y-105449639D01*
X155575000Y-105450000D01*
X154175000Y-105450000D01*
X154167649Y-105449639D01*
X154160368Y-105448559D01*
X154153229Y-105446771D01*
X154146299Y-105444291D01*
X154139645Y-105441144D01*
X154133332Y-105437360D01*
X154127421Y-105432976D01*
X154121967Y-105428033D01*
X154117024Y-105422579D01*
X154112640Y-105416668D01*
X154108856Y-105410355D01*
X154105709Y-105403701D01*
X154103229Y-105396771D01*
X154101441Y-105389632D01*
X154100361Y-105382351D01*
X154100000Y-105375000D01*
X154100000Y-105225000D01*
X154100361Y-105217649D01*
X154101441Y-105210368D01*
X154103229Y-105203229D01*
X154105709Y-105196299D01*
X154108856Y-105189645D01*
X154112640Y-105183332D01*
X154117024Y-105177421D01*
X154121967Y-105171967D01*
X154127421Y-105167024D01*
X154133332Y-105162640D01*
X154139645Y-105158856D01*
X154146299Y-105155709D01*
X154153229Y-105153229D01*
X154160368Y-105151441D01*
X154167649Y-105150361D01*
X154175000Y-105150000D01*
X155575000Y-105150000D01*
X155582351Y-105150361D01*
G37*
G36*
X155582351Y-104650361D02*
G01*
X155589632Y-104651441D01*
X155596771Y-104653229D01*
X155603701Y-104655709D01*
X155610355Y-104658856D01*
X155616668Y-104662640D01*
X155622579Y-104667024D01*
X155628033Y-104671967D01*
X155632976Y-104677421D01*
X155637360Y-104683332D01*
X155641144Y-104689645D01*
X155644291Y-104696299D01*
X155646771Y-104703229D01*
X155648559Y-104710368D01*
X155649639Y-104717649D01*
X155650000Y-104725000D01*
X155650000Y-104875000D01*
X155649639Y-104882351D01*
X155648559Y-104889632D01*
X155646771Y-104896771D01*
X155644291Y-104903701D01*
X155641144Y-104910355D01*
X155637360Y-104916668D01*
X155632976Y-104922579D01*
X155628033Y-104928033D01*
X155622579Y-104932976D01*
X155616668Y-104937360D01*
X155610355Y-104941144D01*
X155603701Y-104944291D01*
X155596771Y-104946771D01*
X155589632Y-104948559D01*
X155582351Y-104949639D01*
X155575000Y-104950000D01*
X154175000Y-104950000D01*
X154167649Y-104949639D01*
X154160368Y-104948559D01*
X154153229Y-104946771D01*
X154146299Y-104944291D01*
X154139645Y-104941144D01*
X154133332Y-104937360D01*
X154127421Y-104932976D01*
X154121967Y-104928033D01*
X154117024Y-104922579D01*
X154112640Y-104916668D01*
X154108856Y-104910355D01*
X154105709Y-104903701D01*
X154103229Y-104896771D01*
X154101441Y-104889632D01*
X154100361Y-104882351D01*
X154100000Y-104875000D01*
X154100000Y-104725000D01*
X154100361Y-104717649D01*
X154101441Y-104710368D01*
X154103229Y-104703229D01*
X154105709Y-104696299D01*
X154108856Y-104689645D01*
X154112640Y-104683332D01*
X154117024Y-104677421D01*
X154121967Y-104671967D01*
X154127421Y-104667024D01*
X154133332Y-104662640D01*
X154139645Y-104658856D01*
X154146299Y-104655709D01*
X154153229Y-104653229D01*
X154160368Y-104651441D01*
X154167649Y-104650361D01*
X154175000Y-104650000D01*
X155575000Y-104650000D01*
X155582351Y-104650361D01*
G37*
G36*
X155582351Y-104150361D02*
G01*
X155589632Y-104151441D01*
X155596771Y-104153229D01*
X155603701Y-104155709D01*
X155610355Y-104158856D01*
X155616668Y-104162640D01*
X155622579Y-104167024D01*
X155628033Y-104171967D01*
X155632976Y-104177421D01*
X155637360Y-104183332D01*
X155641144Y-104189645D01*
X155644291Y-104196299D01*
X155646771Y-104203229D01*
X155648559Y-104210368D01*
X155649639Y-104217649D01*
X155650000Y-104225000D01*
X155650000Y-104375000D01*
X155649639Y-104382351D01*
X155648559Y-104389632D01*
X155646771Y-104396771D01*
X155644291Y-104403701D01*
X155641144Y-104410355D01*
X155637360Y-104416668D01*
X155632976Y-104422579D01*
X155628033Y-104428033D01*
X155622579Y-104432976D01*
X155616668Y-104437360D01*
X155610355Y-104441144D01*
X155603701Y-104444291D01*
X155596771Y-104446771D01*
X155589632Y-104448559D01*
X155582351Y-104449639D01*
X155575000Y-104450000D01*
X154175000Y-104450000D01*
X154167649Y-104449639D01*
X154160368Y-104448559D01*
X154153229Y-104446771D01*
X154146299Y-104444291D01*
X154139645Y-104441144D01*
X154133332Y-104437360D01*
X154127421Y-104432976D01*
X154121967Y-104428033D01*
X154117024Y-104422579D01*
X154112640Y-104416668D01*
X154108856Y-104410355D01*
X154105709Y-104403701D01*
X154103229Y-104396771D01*
X154101441Y-104389632D01*
X154100361Y-104382351D01*
X154100000Y-104375000D01*
X154100000Y-104225000D01*
X154100361Y-104217649D01*
X154101441Y-104210368D01*
X154103229Y-104203229D01*
X154105709Y-104196299D01*
X154108856Y-104189645D01*
X154112640Y-104183332D01*
X154117024Y-104177421D01*
X154121967Y-104171967D01*
X154127421Y-104167024D01*
X154133332Y-104162640D01*
X154139645Y-104158856D01*
X154146299Y-104155709D01*
X154153229Y-104153229D01*
X154160368Y-104151441D01*
X154167649Y-104150361D01*
X154175000Y-104150000D01*
X155575000Y-104150000D01*
X155582351Y-104150361D01*
G37*
G36*
X155582351Y-103650361D02*
G01*
X155589632Y-103651441D01*
X155596771Y-103653229D01*
X155603701Y-103655709D01*
X155610355Y-103658856D01*
X155616668Y-103662640D01*
X155622579Y-103667024D01*
X155628033Y-103671967D01*
X155632976Y-103677421D01*
X155637360Y-103683332D01*
X155641144Y-103689645D01*
X155644291Y-103696299D01*
X155646771Y-103703229D01*
X155648559Y-103710368D01*
X155649639Y-103717649D01*
X155650000Y-103725000D01*
X155650000Y-103875000D01*
X155649639Y-103882351D01*
X155648559Y-103889632D01*
X155646771Y-103896771D01*
X155644291Y-103903701D01*
X155641144Y-103910355D01*
X155637360Y-103916668D01*
X155632976Y-103922579D01*
X155628033Y-103928033D01*
X155622579Y-103932976D01*
X155616668Y-103937360D01*
X155610355Y-103941144D01*
X155603701Y-103944291D01*
X155596771Y-103946771D01*
X155589632Y-103948559D01*
X155582351Y-103949639D01*
X155575000Y-103950000D01*
X154175000Y-103950000D01*
X154167649Y-103949639D01*
X154160368Y-103948559D01*
X154153229Y-103946771D01*
X154146299Y-103944291D01*
X154139645Y-103941144D01*
X154133332Y-103937360D01*
X154127421Y-103932976D01*
X154121967Y-103928033D01*
X154117024Y-103922579D01*
X154112640Y-103916668D01*
X154108856Y-103910355D01*
X154105709Y-103903701D01*
X154103229Y-103896771D01*
X154101441Y-103889632D01*
X154100361Y-103882351D01*
X154100000Y-103875000D01*
X154100000Y-103725000D01*
X154100361Y-103717649D01*
X154101441Y-103710368D01*
X154103229Y-103703229D01*
X154105709Y-103696299D01*
X154108856Y-103689645D01*
X154112640Y-103683332D01*
X154117024Y-103677421D01*
X154121967Y-103671967D01*
X154127421Y-103667024D01*
X154133332Y-103662640D01*
X154139645Y-103658856D01*
X154146299Y-103655709D01*
X154153229Y-103653229D01*
X154160368Y-103651441D01*
X154167649Y-103650361D01*
X154175000Y-103650000D01*
X155575000Y-103650000D01*
X155582351Y-103650361D01*
G37*
G36*
X155582351Y-103150361D02*
G01*
X155589632Y-103151441D01*
X155596771Y-103153229D01*
X155603701Y-103155709D01*
X155610355Y-103158856D01*
X155616668Y-103162640D01*
X155622579Y-103167024D01*
X155628033Y-103171967D01*
X155632976Y-103177421D01*
X155637360Y-103183332D01*
X155641144Y-103189645D01*
X155644291Y-103196299D01*
X155646771Y-103203229D01*
X155648559Y-103210368D01*
X155649639Y-103217649D01*
X155650000Y-103225000D01*
X155650000Y-103375000D01*
X155649639Y-103382351D01*
X155648559Y-103389632D01*
X155646771Y-103396771D01*
X155644291Y-103403701D01*
X155641144Y-103410355D01*
X155637360Y-103416668D01*
X155632976Y-103422579D01*
X155628033Y-103428033D01*
X155622579Y-103432976D01*
X155616668Y-103437360D01*
X155610355Y-103441144D01*
X155603701Y-103444291D01*
X155596771Y-103446771D01*
X155589632Y-103448559D01*
X155582351Y-103449639D01*
X155575000Y-103450000D01*
X154175000Y-103450000D01*
X154167649Y-103449639D01*
X154160368Y-103448559D01*
X154153229Y-103446771D01*
X154146299Y-103444291D01*
X154139645Y-103441144D01*
X154133332Y-103437360D01*
X154127421Y-103432976D01*
X154121967Y-103428033D01*
X154117024Y-103422579D01*
X154112640Y-103416668D01*
X154108856Y-103410355D01*
X154105709Y-103403701D01*
X154103229Y-103396771D01*
X154101441Y-103389632D01*
X154100361Y-103382351D01*
X154100000Y-103375000D01*
X154100000Y-103225000D01*
X154100361Y-103217649D01*
X154101441Y-103210368D01*
X154103229Y-103203229D01*
X154105709Y-103196299D01*
X154108856Y-103189645D01*
X154112640Y-103183332D01*
X154117024Y-103177421D01*
X154121967Y-103171967D01*
X154127421Y-103167024D01*
X154133332Y-103162640D01*
X154139645Y-103158856D01*
X154146299Y-103155709D01*
X154153229Y-103153229D01*
X154160368Y-103151441D01*
X154167649Y-103150361D01*
X154175000Y-103150000D01*
X155575000Y-103150000D01*
X155582351Y-103150361D01*
G37*
G36*
X155582351Y-102650361D02*
G01*
X155589632Y-102651441D01*
X155596771Y-102653229D01*
X155603701Y-102655709D01*
X155610355Y-102658856D01*
X155616668Y-102662640D01*
X155622579Y-102667024D01*
X155628033Y-102671967D01*
X155632976Y-102677421D01*
X155637360Y-102683332D01*
X155641144Y-102689645D01*
X155644291Y-102696299D01*
X155646771Y-102703229D01*
X155648559Y-102710368D01*
X155649639Y-102717649D01*
X155650000Y-102725000D01*
X155650000Y-102875000D01*
X155649639Y-102882351D01*
X155648559Y-102889632D01*
X155646771Y-102896771D01*
X155644291Y-102903701D01*
X155641144Y-102910355D01*
X155637360Y-102916668D01*
X155632976Y-102922579D01*
X155628033Y-102928033D01*
X155622579Y-102932976D01*
X155616668Y-102937360D01*
X155610355Y-102941144D01*
X155603701Y-102944291D01*
X155596771Y-102946771D01*
X155589632Y-102948559D01*
X155582351Y-102949639D01*
X155575000Y-102950000D01*
X154175000Y-102950000D01*
X154167649Y-102949639D01*
X154160368Y-102948559D01*
X154153229Y-102946771D01*
X154146299Y-102944291D01*
X154139645Y-102941144D01*
X154133332Y-102937360D01*
X154127421Y-102932976D01*
X154121967Y-102928033D01*
X154117024Y-102922579D01*
X154112640Y-102916668D01*
X154108856Y-102910355D01*
X154105709Y-102903701D01*
X154103229Y-102896771D01*
X154101441Y-102889632D01*
X154100361Y-102882351D01*
X154100000Y-102875000D01*
X154100000Y-102725000D01*
X154100361Y-102717649D01*
X154101441Y-102710368D01*
X154103229Y-102703229D01*
X154105709Y-102696299D01*
X154108856Y-102689645D01*
X154112640Y-102683332D01*
X154117024Y-102677421D01*
X154121967Y-102671967D01*
X154127421Y-102667024D01*
X154133332Y-102662640D01*
X154139645Y-102658856D01*
X154146299Y-102655709D01*
X154153229Y-102653229D01*
X154160368Y-102651441D01*
X154167649Y-102650361D01*
X154175000Y-102650000D01*
X155575000Y-102650000D01*
X155582351Y-102650361D01*
G37*
G36*
X155582351Y-102150361D02*
G01*
X155589632Y-102151441D01*
X155596771Y-102153229D01*
X155603701Y-102155709D01*
X155610355Y-102158856D01*
X155616668Y-102162640D01*
X155622579Y-102167024D01*
X155628033Y-102171967D01*
X155632976Y-102177421D01*
X155637360Y-102183332D01*
X155641144Y-102189645D01*
X155644291Y-102196299D01*
X155646771Y-102203229D01*
X155648559Y-102210368D01*
X155649639Y-102217649D01*
X155650000Y-102225000D01*
X155650000Y-102375000D01*
X155649639Y-102382351D01*
X155648559Y-102389632D01*
X155646771Y-102396771D01*
X155644291Y-102403701D01*
X155641144Y-102410355D01*
X155637360Y-102416668D01*
X155632976Y-102422579D01*
X155628033Y-102428033D01*
X155622579Y-102432976D01*
X155616668Y-102437360D01*
X155610355Y-102441144D01*
X155603701Y-102444291D01*
X155596771Y-102446771D01*
X155589632Y-102448559D01*
X155582351Y-102449639D01*
X155575000Y-102450000D01*
X154175000Y-102450000D01*
X154167649Y-102449639D01*
X154160368Y-102448559D01*
X154153229Y-102446771D01*
X154146299Y-102444291D01*
X154139645Y-102441144D01*
X154133332Y-102437360D01*
X154127421Y-102432976D01*
X154121967Y-102428033D01*
X154117024Y-102422579D01*
X154112640Y-102416668D01*
X154108856Y-102410355D01*
X154105709Y-102403701D01*
X154103229Y-102396771D01*
X154101441Y-102389632D01*
X154100361Y-102382351D01*
X154100000Y-102375000D01*
X154100000Y-102225000D01*
X154100361Y-102217649D01*
X154101441Y-102210368D01*
X154103229Y-102203229D01*
X154105709Y-102196299D01*
X154108856Y-102189645D01*
X154112640Y-102183332D01*
X154117024Y-102177421D01*
X154121967Y-102171967D01*
X154127421Y-102167024D01*
X154133332Y-102162640D01*
X154139645Y-102158856D01*
X154146299Y-102155709D01*
X154153229Y-102153229D01*
X154160368Y-102151441D01*
X154167649Y-102150361D01*
X154175000Y-102150000D01*
X155575000Y-102150000D01*
X155582351Y-102150361D01*
G37*
G36*
X155582351Y-101650361D02*
G01*
X155589632Y-101651441D01*
X155596771Y-101653229D01*
X155603701Y-101655709D01*
X155610355Y-101658856D01*
X155616668Y-101662640D01*
X155622579Y-101667024D01*
X155628033Y-101671967D01*
X155632976Y-101677421D01*
X155637360Y-101683332D01*
X155641144Y-101689645D01*
X155644291Y-101696299D01*
X155646771Y-101703229D01*
X155648559Y-101710368D01*
X155649639Y-101717649D01*
X155650000Y-101725000D01*
X155650000Y-101875000D01*
X155649639Y-101882351D01*
X155648559Y-101889632D01*
X155646771Y-101896771D01*
X155644291Y-101903701D01*
X155641144Y-101910355D01*
X155637360Y-101916668D01*
X155632976Y-101922579D01*
X155628033Y-101928033D01*
X155622579Y-101932976D01*
X155616668Y-101937360D01*
X155610355Y-101941144D01*
X155603701Y-101944291D01*
X155596771Y-101946771D01*
X155589632Y-101948559D01*
X155582351Y-101949639D01*
X155575000Y-101950000D01*
X154175000Y-101950000D01*
X154167649Y-101949639D01*
X154160368Y-101948559D01*
X154153229Y-101946771D01*
X154146299Y-101944291D01*
X154139645Y-101941144D01*
X154133332Y-101937360D01*
X154127421Y-101932976D01*
X154121967Y-101928033D01*
X154117024Y-101922579D01*
X154112640Y-101916668D01*
X154108856Y-101910355D01*
X154105709Y-101903701D01*
X154103229Y-101896771D01*
X154101441Y-101889632D01*
X154100361Y-101882351D01*
X154100000Y-101875000D01*
X154100000Y-101725000D01*
X154100361Y-101717649D01*
X154101441Y-101710368D01*
X154103229Y-101703229D01*
X154105709Y-101696299D01*
X154108856Y-101689645D01*
X154112640Y-101683332D01*
X154117024Y-101677421D01*
X154121967Y-101671967D01*
X154127421Y-101667024D01*
X154133332Y-101662640D01*
X154139645Y-101658856D01*
X154146299Y-101655709D01*
X154153229Y-101653229D01*
X154160368Y-101651441D01*
X154167649Y-101650361D01*
X154175000Y-101650000D01*
X155575000Y-101650000D01*
X155582351Y-101650361D01*
G37*
G36*
X155582351Y-101150361D02*
G01*
X155589632Y-101151441D01*
X155596771Y-101153229D01*
X155603701Y-101155709D01*
X155610355Y-101158856D01*
X155616668Y-101162640D01*
X155622579Y-101167024D01*
X155628033Y-101171967D01*
X155632976Y-101177421D01*
X155637360Y-101183332D01*
X155641144Y-101189645D01*
X155644291Y-101196299D01*
X155646771Y-101203229D01*
X155648559Y-101210368D01*
X155649639Y-101217649D01*
X155650000Y-101225000D01*
X155650000Y-101375000D01*
X155649639Y-101382351D01*
X155648559Y-101389632D01*
X155646771Y-101396771D01*
X155644291Y-101403701D01*
X155641144Y-101410355D01*
X155637360Y-101416668D01*
X155632976Y-101422579D01*
X155628033Y-101428033D01*
X155622579Y-101432976D01*
X155616668Y-101437360D01*
X155610355Y-101441144D01*
X155603701Y-101444291D01*
X155596771Y-101446771D01*
X155589632Y-101448559D01*
X155582351Y-101449639D01*
X155575000Y-101450000D01*
X154175000Y-101450000D01*
X154167649Y-101449639D01*
X154160368Y-101448559D01*
X154153229Y-101446771D01*
X154146299Y-101444291D01*
X154139645Y-101441144D01*
X154133332Y-101437360D01*
X154127421Y-101432976D01*
X154121967Y-101428033D01*
X154117024Y-101422579D01*
X154112640Y-101416668D01*
X154108856Y-101410355D01*
X154105709Y-101403701D01*
X154103229Y-101396771D01*
X154101441Y-101389632D01*
X154100361Y-101382351D01*
X154100000Y-101375000D01*
X154100000Y-101225000D01*
X154100361Y-101217649D01*
X154101441Y-101210368D01*
X154103229Y-101203229D01*
X154105709Y-101196299D01*
X154108856Y-101189645D01*
X154112640Y-101183332D01*
X154117024Y-101177421D01*
X154121967Y-101171967D01*
X154127421Y-101167024D01*
X154133332Y-101162640D01*
X154139645Y-101158856D01*
X154146299Y-101155709D01*
X154153229Y-101153229D01*
X154160368Y-101151441D01*
X154167649Y-101150361D01*
X154175000Y-101150000D01*
X155575000Y-101150000D01*
X155582351Y-101150361D01*
G37*
G36*
X155582351Y-100650361D02*
G01*
X155589632Y-100651441D01*
X155596771Y-100653229D01*
X155603701Y-100655709D01*
X155610355Y-100658856D01*
X155616668Y-100662640D01*
X155622579Y-100667024D01*
X155628033Y-100671967D01*
X155632976Y-100677421D01*
X155637360Y-100683332D01*
X155641144Y-100689645D01*
X155644291Y-100696299D01*
X155646771Y-100703229D01*
X155648559Y-100710368D01*
X155649639Y-100717649D01*
X155650000Y-100725000D01*
X155650000Y-100875000D01*
X155649639Y-100882351D01*
X155648559Y-100889632D01*
X155646771Y-100896771D01*
X155644291Y-100903701D01*
X155641144Y-100910355D01*
X155637360Y-100916668D01*
X155632976Y-100922579D01*
X155628033Y-100928033D01*
X155622579Y-100932976D01*
X155616668Y-100937360D01*
X155610355Y-100941144D01*
X155603701Y-100944291D01*
X155596771Y-100946771D01*
X155589632Y-100948559D01*
X155582351Y-100949639D01*
X155575000Y-100950000D01*
X154175000Y-100950000D01*
X154167649Y-100949639D01*
X154160368Y-100948559D01*
X154153229Y-100946771D01*
X154146299Y-100944291D01*
X154139645Y-100941144D01*
X154133332Y-100937360D01*
X154127421Y-100932976D01*
X154121967Y-100928033D01*
X154117024Y-100922579D01*
X154112640Y-100916668D01*
X154108856Y-100910355D01*
X154105709Y-100903701D01*
X154103229Y-100896771D01*
X154101441Y-100889632D01*
X154100361Y-100882351D01*
X154100000Y-100875000D01*
X154100000Y-100725000D01*
X154100361Y-100717649D01*
X154101441Y-100710368D01*
X154103229Y-100703229D01*
X154105709Y-100696299D01*
X154108856Y-100689645D01*
X154112640Y-100683332D01*
X154117024Y-100677421D01*
X154121967Y-100671967D01*
X154127421Y-100667024D01*
X154133332Y-100662640D01*
X154139645Y-100658856D01*
X154146299Y-100655709D01*
X154153229Y-100653229D01*
X154160368Y-100651441D01*
X154167649Y-100650361D01*
X154175000Y-100650000D01*
X155575000Y-100650000D01*
X155582351Y-100650361D01*
G37*
G36*
X155582351Y-100150361D02*
G01*
X155589632Y-100151441D01*
X155596771Y-100153229D01*
X155603701Y-100155709D01*
X155610355Y-100158856D01*
X155616668Y-100162640D01*
X155622579Y-100167024D01*
X155628033Y-100171967D01*
X155632976Y-100177421D01*
X155637360Y-100183332D01*
X155641144Y-100189645D01*
X155644291Y-100196299D01*
X155646771Y-100203229D01*
X155648559Y-100210368D01*
X155649639Y-100217649D01*
X155650000Y-100225000D01*
X155650000Y-100375000D01*
X155649639Y-100382351D01*
X155648559Y-100389632D01*
X155646771Y-100396771D01*
X155644291Y-100403701D01*
X155641144Y-100410355D01*
X155637360Y-100416668D01*
X155632976Y-100422579D01*
X155628033Y-100428033D01*
X155622579Y-100432976D01*
X155616668Y-100437360D01*
X155610355Y-100441144D01*
X155603701Y-100444291D01*
X155596771Y-100446771D01*
X155589632Y-100448559D01*
X155582351Y-100449639D01*
X155575000Y-100450000D01*
X154175000Y-100450000D01*
X154167649Y-100449639D01*
X154160368Y-100448559D01*
X154153229Y-100446771D01*
X154146299Y-100444291D01*
X154139645Y-100441144D01*
X154133332Y-100437360D01*
X154127421Y-100432976D01*
X154121967Y-100428033D01*
X154117024Y-100422579D01*
X154112640Y-100416668D01*
X154108856Y-100410355D01*
X154105709Y-100403701D01*
X154103229Y-100396771D01*
X154101441Y-100389632D01*
X154100361Y-100382351D01*
X154100000Y-100375000D01*
X154100000Y-100225000D01*
X154100361Y-100217649D01*
X154101441Y-100210368D01*
X154103229Y-100203229D01*
X154105709Y-100196299D01*
X154108856Y-100189645D01*
X154112640Y-100183332D01*
X154117024Y-100177421D01*
X154121967Y-100171967D01*
X154127421Y-100167024D01*
X154133332Y-100162640D01*
X154139645Y-100158856D01*
X154146299Y-100155709D01*
X154153229Y-100153229D01*
X154160368Y-100151441D01*
X154167649Y-100150361D01*
X154175000Y-100150000D01*
X155575000Y-100150000D01*
X155582351Y-100150361D01*
G37*
G36*
X155582351Y-99650361D02*
G01*
X155589632Y-99651441D01*
X155596771Y-99653229D01*
X155603701Y-99655709D01*
X155610355Y-99658856D01*
X155616668Y-99662640D01*
X155622579Y-99667024D01*
X155628033Y-99671967D01*
X155632976Y-99677421D01*
X155637360Y-99683332D01*
X155641144Y-99689645D01*
X155644291Y-99696299D01*
X155646771Y-99703229D01*
X155648559Y-99710368D01*
X155649639Y-99717649D01*
X155650000Y-99725000D01*
X155650000Y-99875000D01*
X155649639Y-99882351D01*
X155648559Y-99889632D01*
X155646771Y-99896771D01*
X155644291Y-99903701D01*
X155641144Y-99910355D01*
X155637360Y-99916668D01*
X155632976Y-99922579D01*
X155628033Y-99928033D01*
X155622579Y-99932976D01*
X155616668Y-99937360D01*
X155610355Y-99941144D01*
X155603701Y-99944291D01*
X155596771Y-99946771D01*
X155589632Y-99948559D01*
X155582351Y-99949639D01*
X155575000Y-99950000D01*
X154175000Y-99950000D01*
X154167649Y-99949639D01*
X154160368Y-99948559D01*
X154153229Y-99946771D01*
X154146299Y-99944291D01*
X154139645Y-99941144D01*
X154133332Y-99937360D01*
X154127421Y-99932976D01*
X154121967Y-99928033D01*
X154117024Y-99922579D01*
X154112640Y-99916668D01*
X154108856Y-99910355D01*
X154105709Y-99903701D01*
X154103229Y-99896771D01*
X154101441Y-99889632D01*
X154100361Y-99882351D01*
X154100000Y-99875000D01*
X154100000Y-99725000D01*
X154100361Y-99717649D01*
X154101441Y-99710368D01*
X154103229Y-99703229D01*
X154105709Y-99696299D01*
X154108856Y-99689645D01*
X154112640Y-99683332D01*
X154117024Y-99677421D01*
X154121967Y-99671967D01*
X154127421Y-99667024D01*
X154133332Y-99662640D01*
X154139645Y-99658856D01*
X154146299Y-99655709D01*
X154153229Y-99653229D01*
X154160368Y-99651441D01*
X154167649Y-99650361D01*
X154175000Y-99650000D01*
X155575000Y-99650000D01*
X155582351Y-99650361D01*
G37*
G36*
X155582351Y-99150361D02*
G01*
X155589632Y-99151441D01*
X155596771Y-99153229D01*
X155603701Y-99155709D01*
X155610355Y-99158856D01*
X155616668Y-99162640D01*
X155622579Y-99167024D01*
X155628033Y-99171967D01*
X155632976Y-99177421D01*
X155637360Y-99183332D01*
X155641144Y-99189645D01*
X155644291Y-99196299D01*
X155646771Y-99203229D01*
X155648559Y-99210368D01*
X155649639Y-99217649D01*
X155650000Y-99225000D01*
X155650000Y-99375000D01*
X155649639Y-99382351D01*
X155648559Y-99389632D01*
X155646771Y-99396771D01*
X155644291Y-99403701D01*
X155641144Y-99410355D01*
X155637360Y-99416668D01*
X155632976Y-99422579D01*
X155628033Y-99428033D01*
X155622579Y-99432976D01*
X155616668Y-99437360D01*
X155610355Y-99441144D01*
X155603701Y-99444291D01*
X155596771Y-99446771D01*
X155589632Y-99448559D01*
X155582351Y-99449639D01*
X155575000Y-99450000D01*
X154175000Y-99450000D01*
X154167649Y-99449639D01*
X154160368Y-99448559D01*
X154153229Y-99446771D01*
X154146299Y-99444291D01*
X154139645Y-99441144D01*
X154133332Y-99437360D01*
X154127421Y-99432976D01*
X154121967Y-99428033D01*
X154117024Y-99422579D01*
X154112640Y-99416668D01*
X154108856Y-99410355D01*
X154105709Y-99403701D01*
X154103229Y-99396771D01*
X154101441Y-99389632D01*
X154100361Y-99382351D01*
X154100000Y-99375000D01*
X154100000Y-99225000D01*
X154100361Y-99217649D01*
X154101441Y-99210368D01*
X154103229Y-99203229D01*
X154105709Y-99196299D01*
X154108856Y-99189645D01*
X154112640Y-99183332D01*
X154117024Y-99177421D01*
X154121967Y-99171967D01*
X154127421Y-99167024D01*
X154133332Y-99162640D01*
X154139645Y-99158856D01*
X154146299Y-99155709D01*
X154153229Y-99153229D01*
X154160368Y-99151441D01*
X154167649Y-99150361D01*
X154175000Y-99150000D01*
X155575000Y-99150000D01*
X155582351Y-99150361D01*
G37*
G36*
X155582351Y-98650361D02*
G01*
X155589632Y-98651441D01*
X155596771Y-98653229D01*
X155603701Y-98655709D01*
X155610355Y-98658856D01*
X155616668Y-98662640D01*
X155622579Y-98667024D01*
X155628033Y-98671967D01*
X155632976Y-98677421D01*
X155637360Y-98683332D01*
X155641144Y-98689645D01*
X155644291Y-98696299D01*
X155646771Y-98703229D01*
X155648559Y-98710368D01*
X155649639Y-98717649D01*
X155650000Y-98725000D01*
X155650000Y-98875000D01*
X155649639Y-98882351D01*
X155648559Y-98889632D01*
X155646771Y-98896771D01*
X155644291Y-98903701D01*
X155641144Y-98910355D01*
X155637360Y-98916668D01*
X155632976Y-98922579D01*
X155628033Y-98928033D01*
X155622579Y-98932976D01*
X155616668Y-98937360D01*
X155610355Y-98941144D01*
X155603701Y-98944291D01*
X155596771Y-98946771D01*
X155589632Y-98948559D01*
X155582351Y-98949639D01*
X155575000Y-98950000D01*
X154175000Y-98950000D01*
X154167649Y-98949639D01*
X154160368Y-98948559D01*
X154153229Y-98946771D01*
X154146299Y-98944291D01*
X154139645Y-98941144D01*
X154133332Y-98937360D01*
X154127421Y-98932976D01*
X154121967Y-98928033D01*
X154117024Y-98922579D01*
X154112640Y-98916668D01*
X154108856Y-98910355D01*
X154105709Y-98903701D01*
X154103229Y-98896771D01*
X154101441Y-98889632D01*
X154100361Y-98882351D01*
X154100000Y-98875000D01*
X154100000Y-98725000D01*
X154100361Y-98717649D01*
X154101441Y-98710368D01*
X154103229Y-98703229D01*
X154105709Y-98696299D01*
X154108856Y-98689645D01*
X154112640Y-98683332D01*
X154117024Y-98677421D01*
X154121967Y-98671967D01*
X154127421Y-98667024D01*
X154133332Y-98662640D01*
X154139645Y-98658856D01*
X154146299Y-98655709D01*
X154153229Y-98653229D01*
X154160368Y-98651441D01*
X154167649Y-98650361D01*
X154175000Y-98650000D01*
X155575000Y-98650000D01*
X155582351Y-98650361D01*
G37*
G36*
X155582351Y-98150361D02*
G01*
X155589632Y-98151441D01*
X155596771Y-98153229D01*
X155603701Y-98155709D01*
X155610355Y-98158856D01*
X155616668Y-98162640D01*
X155622579Y-98167024D01*
X155628033Y-98171967D01*
X155632976Y-98177421D01*
X155637360Y-98183332D01*
X155641144Y-98189645D01*
X155644291Y-98196299D01*
X155646771Y-98203229D01*
X155648559Y-98210368D01*
X155649639Y-98217649D01*
X155650000Y-98225000D01*
X155650000Y-98375000D01*
X155649639Y-98382351D01*
X155648559Y-98389632D01*
X155646771Y-98396771D01*
X155644291Y-98403701D01*
X155641144Y-98410355D01*
X155637360Y-98416668D01*
X155632976Y-98422579D01*
X155628033Y-98428033D01*
X155622579Y-98432976D01*
X155616668Y-98437360D01*
X155610355Y-98441144D01*
X155603701Y-98444291D01*
X155596771Y-98446771D01*
X155589632Y-98448559D01*
X155582351Y-98449639D01*
X155575000Y-98450000D01*
X154175000Y-98450000D01*
X154167649Y-98449639D01*
X154160368Y-98448559D01*
X154153229Y-98446771D01*
X154146299Y-98444291D01*
X154139645Y-98441144D01*
X154133332Y-98437360D01*
X154127421Y-98432976D01*
X154121967Y-98428033D01*
X154117024Y-98422579D01*
X154112640Y-98416668D01*
X154108856Y-98410355D01*
X154105709Y-98403701D01*
X154103229Y-98396771D01*
X154101441Y-98389632D01*
X154100361Y-98382351D01*
X154100000Y-98375000D01*
X154100000Y-98225000D01*
X154100361Y-98217649D01*
X154101441Y-98210368D01*
X154103229Y-98203229D01*
X154105709Y-98196299D01*
X154108856Y-98189645D01*
X154112640Y-98183332D01*
X154117024Y-98177421D01*
X154121967Y-98171967D01*
X154127421Y-98167024D01*
X154133332Y-98162640D01*
X154139645Y-98158856D01*
X154146299Y-98155709D01*
X154153229Y-98153229D01*
X154160368Y-98151441D01*
X154167649Y-98150361D01*
X154175000Y-98150000D01*
X155575000Y-98150000D01*
X155582351Y-98150361D01*
G37*
G36*
X153032351Y-95600361D02*
G01*
X153039632Y-95601441D01*
X153046771Y-95603229D01*
X153053701Y-95605709D01*
X153060355Y-95608856D01*
X153066668Y-95612640D01*
X153072579Y-95617024D01*
X153078033Y-95621967D01*
X153082976Y-95627421D01*
X153087360Y-95633332D01*
X153091144Y-95639645D01*
X153094291Y-95646299D01*
X153096771Y-95653229D01*
X153098559Y-95660368D01*
X153099639Y-95667649D01*
X153100000Y-95675000D01*
X153100000Y-97075000D01*
X153099639Y-97082351D01*
X153098559Y-97089632D01*
X153096771Y-97096771D01*
X153094291Y-97103701D01*
X153091144Y-97110355D01*
X153087360Y-97116668D01*
X153082976Y-97122579D01*
X153078033Y-97128033D01*
X153072579Y-97132976D01*
X153066668Y-97137360D01*
X153060355Y-97141144D01*
X153053701Y-97144291D01*
X153046771Y-97146771D01*
X153039632Y-97148559D01*
X153032351Y-97149639D01*
X153025000Y-97150000D01*
X152875000Y-97150000D01*
X152867649Y-97149639D01*
X152860368Y-97148559D01*
X152853229Y-97146771D01*
X152846299Y-97144291D01*
X152839645Y-97141144D01*
X152833332Y-97137360D01*
X152827421Y-97132976D01*
X152821967Y-97128033D01*
X152817024Y-97122579D01*
X152812640Y-97116668D01*
X152808856Y-97110355D01*
X152805709Y-97103701D01*
X152803229Y-97096771D01*
X152801441Y-97089632D01*
X152800361Y-97082351D01*
X152800000Y-97075000D01*
X152800000Y-95675000D01*
X152800361Y-95667649D01*
X152801441Y-95660368D01*
X152803229Y-95653229D01*
X152805709Y-95646299D01*
X152808856Y-95639645D01*
X152812640Y-95633332D01*
X152817024Y-95627421D01*
X152821967Y-95621967D01*
X152827421Y-95617024D01*
X152833332Y-95612640D01*
X152839645Y-95608856D01*
X152846299Y-95605709D01*
X152853229Y-95603229D01*
X152860368Y-95601441D01*
X152867649Y-95600361D01*
X152875000Y-95600000D01*
X153025000Y-95600000D01*
X153032351Y-95600361D01*
G37*
G36*
X152532351Y-95600361D02*
G01*
X152539632Y-95601441D01*
X152546771Y-95603229D01*
X152553701Y-95605709D01*
X152560355Y-95608856D01*
X152566668Y-95612640D01*
X152572579Y-95617024D01*
X152578033Y-95621967D01*
X152582976Y-95627421D01*
X152587360Y-95633332D01*
X152591144Y-95639645D01*
X152594291Y-95646299D01*
X152596771Y-95653229D01*
X152598559Y-95660368D01*
X152599639Y-95667649D01*
X152600000Y-95675000D01*
X152600000Y-97075000D01*
X152599639Y-97082351D01*
X152598559Y-97089632D01*
X152596771Y-97096771D01*
X152594291Y-97103701D01*
X152591144Y-97110355D01*
X152587360Y-97116668D01*
X152582976Y-97122579D01*
X152578033Y-97128033D01*
X152572579Y-97132976D01*
X152566668Y-97137360D01*
X152560355Y-97141144D01*
X152553701Y-97144291D01*
X152546771Y-97146771D01*
X152539632Y-97148559D01*
X152532351Y-97149639D01*
X152525000Y-97150000D01*
X152375000Y-97150000D01*
X152367649Y-97149639D01*
X152360368Y-97148559D01*
X152353229Y-97146771D01*
X152346299Y-97144291D01*
X152339645Y-97141144D01*
X152333332Y-97137360D01*
X152327421Y-97132976D01*
X152321967Y-97128033D01*
X152317024Y-97122579D01*
X152312640Y-97116668D01*
X152308856Y-97110355D01*
X152305709Y-97103701D01*
X152303229Y-97096771D01*
X152301441Y-97089632D01*
X152300361Y-97082351D01*
X152300000Y-97075000D01*
X152300000Y-95675000D01*
X152300361Y-95667649D01*
X152301441Y-95660368D01*
X152303229Y-95653229D01*
X152305709Y-95646299D01*
X152308856Y-95639645D01*
X152312640Y-95633332D01*
X152317024Y-95627421D01*
X152321967Y-95621967D01*
X152327421Y-95617024D01*
X152333332Y-95612640D01*
X152339645Y-95608856D01*
X152346299Y-95605709D01*
X152353229Y-95603229D01*
X152360368Y-95601441D01*
X152367649Y-95600361D01*
X152375000Y-95600000D01*
X152525000Y-95600000D01*
X152532351Y-95600361D01*
G37*
G36*
X152032351Y-95600361D02*
G01*
X152039632Y-95601441D01*
X152046771Y-95603229D01*
X152053701Y-95605709D01*
X152060355Y-95608856D01*
X152066668Y-95612640D01*
X152072579Y-95617024D01*
X152078033Y-95621967D01*
X152082976Y-95627421D01*
X152087360Y-95633332D01*
X152091144Y-95639645D01*
X152094291Y-95646299D01*
X152096771Y-95653229D01*
X152098559Y-95660368D01*
X152099639Y-95667649D01*
X152100000Y-95675000D01*
X152100000Y-97075000D01*
X152099639Y-97082351D01*
X152098559Y-97089632D01*
X152096771Y-97096771D01*
X152094291Y-97103701D01*
X152091144Y-97110355D01*
X152087360Y-97116668D01*
X152082976Y-97122579D01*
X152078033Y-97128033D01*
X152072579Y-97132976D01*
X152066668Y-97137360D01*
X152060355Y-97141144D01*
X152053701Y-97144291D01*
X152046771Y-97146771D01*
X152039632Y-97148559D01*
X152032351Y-97149639D01*
X152025000Y-97150000D01*
X151875000Y-97150000D01*
X151867649Y-97149639D01*
X151860368Y-97148559D01*
X151853229Y-97146771D01*
X151846299Y-97144291D01*
X151839645Y-97141144D01*
X151833332Y-97137360D01*
X151827421Y-97132976D01*
X151821967Y-97128033D01*
X151817024Y-97122579D01*
X151812640Y-97116668D01*
X151808856Y-97110355D01*
X151805709Y-97103701D01*
X151803229Y-97096771D01*
X151801441Y-97089632D01*
X151800361Y-97082351D01*
X151800000Y-97075000D01*
X151800000Y-95675000D01*
X151800361Y-95667649D01*
X151801441Y-95660368D01*
X151803229Y-95653229D01*
X151805709Y-95646299D01*
X151808856Y-95639645D01*
X151812640Y-95633332D01*
X151817024Y-95627421D01*
X151821967Y-95621967D01*
X151827421Y-95617024D01*
X151833332Y-95612640D01*
X151839645Y-95608856D01*
X151846299Y-95605709D01*
X151853229Y-95603229D01*
X151860368Y-95601441D01*
X151867649Y-95600361D01*
X151875000Y-95600000D01*
X152025000Y-95600000D01*
X152032351Y-95600361D01*
G37*
G36*
X151532351Y-95600361D02*
G01*
X151539632Y-95601441D01*
X151546771Y-95603229D01*
X151553701Y-95605709D01*
X151560355Y-95608856D01*
X151566668Y-95612640D01*
X151572579Y-95617024D01*
X151578033Y-95621967D01*
X151582976Y-95627421D01*
X151587360Y-95633332D01*
X151591144Y-95639645D01*
X151594291Y-95646299D01*
X151596771Y-95653229D01*
X151598559Y-95660368D01*
X151599639Y-95667649D01*
X151600000Y-95675000D01*
X151600000Y-97075000D01*
X151599639Y-97082351D01*
X151598559Y-97089632D01*
X151596771Y-97096771D01*
X151594291Y-97103701D01*
X151591144Y-97110355D01*
X151587360Y-97116668D01*
X151582976Y-97122579D01*
X151578033Y-97128033D01*
X151572579Y-97132976D01*
X151566668Y-97137360D01*
X151560355Y-97141144D01*
X151553701Y-97144291D01*
X151546771Y-97146771D01*
X151539632Y-97148559D01*
X151532351Y-97149639D01*
X151525000Y-97150000D01*
X151375000Y-97150000D01*
X151367649Y-97149639D01*
X151360368Y-97148559D01*
X151353229Y-97146771D01*
X151346299Y-97144291D01*
X151339645Y-97141144D01*
X151333332Y-97137360D01*
X151327421Y-97132976D01*
X151321967Y-97128033D01*
X151317024Y-97122579D01*
X151312640Y-97116668D01*
X151308856Y-97110355D01*
X151305709Y-97103701D01*
X151303229Y-97096771D01*
X151301441Y-97089632D01*
X151300361Y-97082351D01*
X151300000Y-97075000D01*
X151300000Y-95675000D01*
X151300361Y-95667649D01*
X151301441Y-95660368D01*
X151303229Y-95653229D01*
X151305709Y-95646299D01*
X151308856Y-95639645D01*
X151312640Y-95633332D01*
X151317024Y-95627421D01*
X151321967Y-95621967D01*
X151327421Y-95617024D01*
X151333332Y-95612640D01*
X151339645Y-95608856D01*
X151346299Y-95605709D01*
X151353229Y-95603229D01*
X151360368Y-95601441D01*
X151367649Y-95600361D01*
X151375000Y-95600000D01*
X151525000Y-95600000D01*
X151532351Y-95600361D01*
G37*
G36*
X151032351Y-95600361D02*
G01*
X151039632Y-95601441D01*
X151046771Y-95603229D01*
X151053701Y-95605709D01*
X151060355Y-95608856D01*
X151066668Y-95612640D01*
X151072579Y-95617024D01*
X151078033Y-95621967D01*
X151082976Y-95627421D01*
X151087360Y-95633332D01*
X151091144Y-95639645D01*
X151094291Y-95646299D01*
X151096771Y-95653229D01*
X151098559Y-95660368D01*
X151099639Y-95667649D01*
X151100000Y-95675000D01*
X151100000Y-97075000D01*
X151099639Y-97082351D01*
X151098559Y-97089632D01*
X151096771Y-97096771D01*
X151094291Y-97103701D01*
X151091144Y-97110355D01*
X151087360Y-97116668D01*
X151082976Y-97122579D01*
X151078033Y-97128033D01*
X151072579Y-97132976D01*
X151066668Y-97137360D01*
X151060355Y-97141144D01*
X151053701Y-97144291D01*
X151046771Y-97146771D01*
X151039632Y-97148559D01*
X151032351Y-97149639D01*
X151025000Y-97150000D01*
X150875000Y-97150000D01*
X150867649Y-97149639D01*
X150860368Y-97148559D01*
X150853229Y-97146771D01*
X150846299Y-97144291D01*
X150839645Y-97141144D01*
X150833332Y-97137360D01*
X150827421Y-97132976D01*
X150821967Y-97128033D01*
X150817024Y-97122579D01*
X150812640Y-97116668D01*
X150808856Y-97110355D01*
X150805709Y-97103701D01*
X150803229Y-97096771D01*
X150801441Y-97089632D01*
X150800361Y-97082351D01*
X150800000Y-97075000D01*
X150800000Y-95675000D01*
X150800361Y-95667649D01*
X150801441Y-95660368D01*
X150803229Y-95653229D01*
X150805709Y-95646299D01*
X150808856Y-95639645D01*
X150812640Y-95633332D01*
X150817024Y-95627421D01*
X150821967Y-95621967D01*
X150827421Y-95617024D01*
X150833332Y-95612640D01*
X150839645Y-95608856D01*
X150846299Y-95605709D01*
X150853229Y-95603229D01*
X150860368Y-95601441D01*
X150867649Y-95600361D01*
X150875000Y-95600000D01*
X151025000Y-95600000D01*
X151032351Y-95600361D01*
G37*
G36*
X150532351Y-95600361D02*
G01*
X150539632Y-95601441D01*
X150546771Y-95603229D01*
X150553701Y-95605709D01*
X150560355Y-95608856D01*
X150566668Y-95612640D01*
X150572579Y-95617024D01*
X150578033Y-95621967D01*
X150582976Y-95627421D01*
X150587360Y-95633332D01*
X150591144Y-95639645D01*
X150594291Y-95646299D01*
X150596771Y-95653229D01*
X150598559Y-95660368D01*
X150599639Y-95667649D01*
X150600000Y-95675000D01*
X150600000Y-97075000D01*
X150599639Y-97082351D01*
X150598559Y-97089632D01*
X150596771Y-97096771D01*
X150594291Y-97103701D01*
X150591144Y-97110355D01*
X150587360Y-97116668D01*
X150582976Y-97122579D01*
X150578033Y-97128033D01*
X150572579Y-97132976D01*
X150566668Y-97137360D01*
X150560355Y-97141144D01*
X150553701Y-97144291D01*
X150546771Y-97146771D01*
X150539632Y-97148559D01*
X150532351Y-97149639D01*
X150525000Y-97150000D01*
X150375000Y-97150000D01*
X150367649Y-97149639D01*
X150360368Y-97148559D01*
X150353229Y-97146771D01*
X150346299Y-97144291D01*
X150339645Y-97141144D01*
X150333332Y-97137360D01*
X150327421Y-97132976D01*
X150321967Y-97128033D01*
X150317024Y-97122579D01*
X150312640Y-97116668D01*
X150308856Y-97110355D01*
X150305709Y-97103701D01*
X150303229Y-97096771D01*
X150301441Y-97089632D01*
X150300361Y-97082351D01*
X150300000Y-97075000D01*
X150300000Y-95675000D01*
X150300361Y-95667649D01*
X150301441Y-95660368D01*
X150303229Y-95653229D01*
X150305709Y-95646299D01*
X150308856Y-95639645D01*
X150312640Y-95633332D01*
X150317024Y-95627421D01*
X150321967Y-95621967D01*
X150327421Y-95617024D01*
X150333332Y-95612640D01*
X150339645Y-95608856D01*
X150346299Y-95605709D01*
X150353229Y-95603229D01*
X150360368Y-95601441D01*
X150367649Y-95600361D01*
X150375000Y-95600000D01*
X150525000Y-95600000D01*
X150532351Y-95600361D01*
G37*
G36*
X150032351Y-95600361D02*
G01*
X150039632Y-95601441D01*
X150046771Y-95603229D01*
X150053701Y-95605709D01*
X150060355Y-95608856D01*
X150066668Y-95612640D01*
X150072579Y-95617024D01*
X150078033Y-95621967D01*
X150082976Y-95627421D01*
X150087360Y-95633332D01*
X150091144Y-95639645D01*
X150094291Y-95646299D01*
X150096771Y-95653229D01*
X150098559Y-95660368D01*
X150099639Y-95667649D01*
X150100000Y-95675000D01*
X150100000Y-97075000D01*
X150099639Y-97082351D01*
X150098559Y-97089632D01*
X150096771Y-97096771D01*
X150094291Y-97103701D01*
X150091144Y-97110355D01*
X150087360Y-97116668D01*
X150082976Y-97122579D01*
X150078033Y-97128033D01*
X150072579Y-97132976D01*
X150066668Y-97137360D01*
X150060355Y-97141144D01*
X150053701Y-97144291D01*
X150046771Y-97146771D01*
X150039632Y-97148559D01*
X150032351Y-97149639D01*
X150025000Y-97150000D01*
X149875000Y-97150000D01*
X149867649Y-97149639D01*
X149860368Y-97148559D01*
X149853229Y-97146771D01*
X149846299Y-97144291D01*
X149839645Y-97141144D01*
X149833332Y-97137360D01*
X149827421Y-97132976D01*
X149821967Y-97128033D01*
X149817024Y-97122579D01*
X149812640Y-97116668D01*
X149808856Y-97110355D01*
X149805709Y-97103701D01*
X149803229Y-97096771D01*
X149801441Y-97089632D01*
X149800361Y-97082351D01*
X149800000Y-97075000D01*
X149800000Y-95675000D01*
X149800361Y-95667649D01*
X149801441Y-95660368D01*
X149803229Y-95653229D01*
X149805709Y-95646299D01*
X149808856Y-95639645D01*
X149812640Y-95633332D01*
X149817024Y-95627421D01*
X149821967Y-95621967D01*
X149827421Y-95617024D01*
X149833332Y-95612640D01*
X149839645Y-95608856D01*
X149846299Y-95605709D01*
X149853229Y-95603229D01*
X149860368Y-95601441D01*
X149867649Y-95600361D01*
X149875000Y-95600000D01*
X150025000Y-95600000D01*
X150032351Y-95600361D01*
G37*
G36*
X149532351Y-95600361D02*
G01*
X149539632Y-95601441D01*
X149546771Y-95603229D01*
X149553701Y-95605709D01*
X149560355Y-95608856D01*
X149566668Y-95612640D01*
X149572579Y-95617024D01*
X149578033Y-95621967D01*
X149582976Y-95627421D01*
X149587360Y-95633332D01*
X149591144Y-95639645D01*
X149594291Y-95646299D01*
X149596771Y-95653229D01*
X149598559Y-95660368D01*
X149599639Y-95667649D01*
X149600000Y-95675000D01*
X149600000Y-97075000D01*
X149599639Y-97082351D01*
X149598559Y-97089632D01*
X149596771Y-97096771D01*
X149594291Y-97103701D01*
X149591144Y-97110355D01*
X149587360Y-97116668D01*
X149582976Y-97122579D01*
X149578033Y-97128033D01*
X149572579Y-97132976D01*
X149566668Y-97137360D01*
X149560355Y-97141144D01*
X149553701Y-97144291D01*
X149546771Y-97146771D01*
X149539632Y-97148559D01*
X149532351Y-97149639D01*
X149525000Y-97150000D01*
X149375000Y-97150000D01*
X149367649Y-97149639D01*
X149360368Y-97148559D01*
X149353229Y-97146771D01*
X149346299Y-97144291D01*
X149339645Y-97141144D01*
X149333332Y-97137360D01*
X149327421Y-97132976D01*
X149321967Y-97128033D01*
X149317024Y-97122579D01*
X149312640Y-97116668D01*
X149308856Y-97110355D01*
X149305709Y-97103701D01*
X149303229Y-97096771D01*
X149301441Y-97089632D01*
X149300361Y-97082351D01*
X149300000Y-97075000D01*
X149300000Y-95675000D01*
X149300361Y-95667649D01*
X149301441Y-95660368D01*
X149303229Y-95653229D01*
X149305709Y-95646299D01*
X149308856Y-95639645D01*
X149312640Y-95633332D01*
X149317024Y-95627421D01*
X149321967Y-95621967D01*
X149327421Y-95617024D01*
X149333332Y-95612640D01*
X149339645Y-95608856D01*
X149346299Y-95605709D01*
X149353229Y-95603229D01*
X149360368Y-95601441D01*
X149367649Y-95600361D01*
X149375000Y-95600000D01*
X149525000Y-95600000D01*
X149532351Y-95600361D01*
G37*
G36*
X149032351Y-95600361D02*
G01*
X149039632Y-95601441D01*
X149046771Y-95603229D01*
X149053701Y-95605709D01*
X149060355Y-95608856D01*
X149066668Y-95612640D01*
X149072579Y-95617024D01*
X149078033Y-95621967D01*
X149082976Y-95627421D01*
X149087360Y-95633332D01*
X149091144Y-95639645D01*
X149094291Y-95646299D01*
X149096771Y-95653229D01*
X149098559Y-95660368D01*
X149099639Y-95667649D01*
X149100000Y-95675000D01*
X149100000Y-97075000D01*
X149099639Y-97082351D01*
X149098559Y-97089632D01*
X149096771Y-97096771D01*
X149094291Y-97103701D01*
X149091144Y-97110355D01*
X149087360Y-97116668D01*
X149082976Y-97122579D01*
X149078033Y-97128033D01*
X149072579Y-97132976D01*
X149066668Y-97137360D01*
X149060355Y-97141144D01*
X149053701Y-97144291D01*
X149046771Y-97146771D01*
X149039632Y-97148559D01*
X149032351Y-97149639D01*
X149025000Y-97150000D01*
X148875000Y-97150000D01*
X148867649Y-97149639D01*
X148860368Y-97148559D01*
X148853229Y-97146771D01*
X148846299Y-97144291D01*
X148839645Y-97141144D01*
X148833332Y-97137360D01*
X148827421Y-97132976D01*
X148821967Y-97128033D01*
X148817024Y-97122579D01*
X148812640Y-97116668D01*
X148808856Y-97110355D01*
X148805709Y-97103701D01*
X148803229Y-97096771D01*
X148801441Y-97089632D01*
X148800361Y-97082351D01*
X148800000Y-97075000D01*
X148800000Y-95675000D01*
X148800361Y-95667649D01*
X148801441Y-95660368D01*
X148803229Y-95653229D01*
X148805709Y-95646299D01*
X148808856Y-95639645D01*
X148812640Y-95633332D01*
X148817024Y-95627421D01*
X148821967Y-95621967D01*
X148827421Y-95617024D01*
X148833332Y-95612640D01*
X148839645Y-95608856D01*
X148846299Y-95605709D01*
X148853229Y-95603229D01*
X148860368Y-95601441D01*
X148867649Y-95600361D01*
X148875000Y-95600000D01*
X149025000Y-95600000D01*
X149032351Y-95600361D01*
G37*
G36*
X148532351Y-95600361D02*
G01*
X148539632Y-95601441D01*
X148546771Y-95603229D01*
X148553701Y-95605709D01*
X148560355Y-95608856D01*
X148566668Y-95612640D01*
X148572579Y-95617024D01*
X148578033Y-95621967D01*
X148582976Y-95627421D01*
X148587360Y-95633332D01*
X148591144Y-95639645D01*
X148594291Y-95646299D01*
X148596771Y-95653229D01*
X148598559Y-95660368D01*
X148599639Y-95667649D01*
X148600000Y-95675000D01*
X148600000Y-97075000D01*
X148599639Y-97082351D01*
X148598559Y-97089632D01*
X148596771Y-97096771D01*
X148594291Y-97103701D01*
X148591144Y-97110355D01*
X148587360Y-97116668D01*
X148582976Y-97122579D01*
X148578033Y-97128033D01*
X148572579Y-97132976D01*
X148566668Y-97137360D01*
X148560355Y-97141144D01*
X148553701Y-97144291D01*
X148546771Y-97146771D01*
X148539632Y-97148559D01*
X148532351Y-97149639D01*
X148525000Y-97150000D01*
X148375000Y-97150000D01*
X148367649Y-97149639D01*
X148360368Y-97148559D01*
X148353229Y-97146771D01*
X148346299Y-97144291D01*
X148339645Y-97141144D01*
X148333332Y-97137360D01*
X148327421Y-97132976D01*
X148321967Y-97128033D01*
X148317024Y-97122579D01*
X148312640Y-97116668D01*
X148308856Y-97110355D01*
X148305709Y-97103701D01*
X148303229Y-97096771D01*
X148301441Y-97089632D01*
X148300361Y-97082351D01*
X148300000Y-97075000D01*
X148300000Y-95675000D01*
X148300361Y-95667649D01*
X148301441Y-95660368D01*
X148303229Y-95653229D01*
X148305709Y-95646299D01*
X148308856Y-95639645D01*
X148312640Y-95633332D01*
X148317024Y-95627421D01*
X148321967Y-95621967D01*
X148327421Y-95617024D01*
X148333332Y-95612640D01*
X148339645Y-95608856D01*
X148346299Y-95605709D01*
X148353229Y-95603229D01*
X148360368Y-95601441D01*
X148367649Y-95600361D01*
X148375000Y-95600000D01*
X148525000Y-95600000D01*
X148532351Y-95600361D01*
G37*
G36*
X148032351Y-95600361D02*
G01*
X148039632Y-95601441D01*
X148046771Y-95603229D01*
X148053701Y-95605709D01*
X148060355Y-95608856D01*
X148066668Y-95612640D01*
X148072579Y-95617024D01*
X148078033Y-95621967D01*
X148082976Y-95627421D01*
X148087360Y-95633332D01*
X148091144Y-95639645D01*
X148094291Y-95646299D01*
X148096771Y-95653229D01*
X148098559Y-95660368D01*
X148099639Y-95667649D01*
X148100000Y-95675000D01*
X148100000Y-97075000D01*
X148099639Y-97082351D01*
X148098559Y-97089632D01*
X148096771Y-97096771D01*
X148094291Y-97103701D01*
X148091144Y-97110355D01*
X148087360Y-97116668D01*
X148082976Y-97122579D01*
X148078033Y-97128033D01*
X148072579Y-97132976D01*
X148066668Y-97137360D01*
X148060355Y-97141144D01*
X148053701Y-97144291D01*
X148046771Y-97146771D01*
X148039632Y-97148559D01*
X148032351Y-97149639D01*
X148025000Y-97150000D01*
X147875000Y-97150000D01*
X147867649Y-97149639D01*
X147860368Y-97148559D01*
X147853229Y-97146771D01*
X147846299Y-97144291D01*
X147839645Y-97141144D01*
X147833332Y-97137360D01*
X147827421Y-97132976D01*
X147821967Y-97128033D01*
X147817024Y-97122579D01*
X147812640Y-97116668D01*
X147808856Y-97110355D01*
X147805709Y-97103701D01*
X147803229Y-97096771D01*
X147801441Y-97089632D01*
X147800361Y-97082351D01*
X147800000Y-97075000D01*
X147800000Y-95675000D01*
X147800361Y-95667649D01*
X147801441Y-95660368D01*
X147803229Y-95653229D01*
X147805709Y-95646299D01*
X147808856Y-95639645D01*
X147812640Y-95633332D01*
X147817024Y-95627421D01*
X147821967Y-95621967D01*
X147827421Y-95617024D01*
X147833332Y-95612640D01*
X147839645Y-95608856D01*
X147846299Y-95605709D01*
X147853229Y-95603229D01*
X147860368Y-95601441D01*
X147867649Y-95600361D01*
X147875000Y-95600000D01*
X148025000Y-95600000D01*
X148032351Y-95600361D01*
G37*
G36*
X147532351Y-95600361D02*
G01*
X147539632Y-95601441D01*
X147546771Y-95603229D01*
X147553701Y-95605709D01*
X147560355Y-95608856D01*
X147566668Y-95612640D01*
X147572579Y-95617024D01*
X147578033Y-95621967D01*
X147582976Y-95627421D01*
X147587360Y-95633332D01*
X147591144Y-95639645D01*
X147594291Y-95646299D01*
X147596771Y-95653229D01*
X147598559Y-95660368D01*
X147599639Y-95667649D01*
X147600000Y-95675000D01*
X147600000Y-97075000D01*
X147599639Y-97082351D01*
X147598559Y-97089632D01*
X147596771Y-97096771D01*
X147594291Y-97103701D01*
X147591144Y-97110355D01*
X147587360Y-97116668D01*
X147582976Y-97122579D01*
X147578033Y-97128033D01*
X147572579Y-97132976D01*
X147566668Y-97137360D01*
X147560355Y-97141144D01*
X147553701Y-97144291D01*
X147546771Y-97146771D01*
X147539632Y-97148559D01*
X147532351Y-97149639D01*
X147525000Y-97150000D01*
X147375000Y-97150000D01*
X147367649Y-97149639D01*
X147360368Y-97148559D01*
X147353229Y-97146771D01*
X147346299Y-97144291D01*
X147339645Y-97141144D01*
X147333332Y-97137360D01*
X147327421Y-97132976D01*
X147321967Y-97128033D01*
X147317024Y-97122579D01*
X147312640Y-97116668D01*
X147308856Y-97110355D01*
X147305709Y-97103701D01*
X147303229Y-97096771D01*
X147301441Y-97089632D01*
X147300361Y-97082351D01*
X147300000Y-97075000D01*
X147300000Y-95675000D01*
X147300361Y-95667649D01*
X147301441Y-95660368D01*
X147303229Y-95653229D01*
X147305709Y-95646299D01*
X147308856Y-95639645D01*
X147312640Y-95633332D01*
X147317024Y-95627421D01*
X147321967Y-95621967D01*
X147327421Y-95617024D01*
X147333332Y-95612640D01*
X147339645Y-95608856D01*
X147346299Y-95605709D01*
X147353229Y-95603229D01*
X147360368Y-95601441D01*
X147367649Y-95600361D01*
X147375000Y-95600000D01*
X147525000Y-95600000D01*
X147532351Y-95600361D01*
G37*
G36*
X147032351Y-95600361D02*
G01*
X147039632Y-95601441D01*
X147046771Y-95603229D01*
X147053701Y-95605709D01*
X147060355Y-95608856D01*
X147066668Y-95612640D01*
X147072579Y-95617024D01*
X147078033Y-95621967D01*
X147082976Y-95627421D01*
X147087360Y-95633332D01*
X147091144Y-95639645D01*
X147094291Y-95646299D01*
X147096771Y-95653229D01*
X147098559Y-95660368D01*
X147099639Y-95667649D01*
X147100000Y-95675000D01*
X147100000Y-97075000D01*
X147099639Y-97082351D01*
X147098559Y-97089632D01*
X147096771Y-97096771D01*
X147094291Y-97103701D01*
X147091144Y-97110355D01*
X147087360Y-97116668D01*
X147082976Y-97122579D01*
X147078033Y-97128033D01*
X147072579Y-97132976D01*
X147066668Y-97137360D01*
X147060355Y-97141144D01*
X147053701Y-97144291D01*
X147046771Y-97146771D01*
X147039632Y-97148559D01*
X147032351Y-97149639D01*
X147025000Y-97150000D01*
X146875000Y-97150000D01*
X146867649Y-97149639D01*
X146860368Y-97148559D01*
X146853229Y-97146771D01*
X146846299Y-97144291D01*
X146839645Y-97141144D01*
X146833332Y-97137360D01*
X146827421Y-97132976D01*
X146821967Y-97128033D01*
X146817024Y-97122579D01*
X146812640Y-97116668D01*
X146808856Y-97110355D01*
X146805709Y-97103701D01*
X146803229Y-97096771D01*
X146801441Y-97089632D01*
X146800361Y-97082351D01*
X146800000Y-97075000D01*
X146800000Y-95675000D01*
X146800361Y-95667649D01*
X146801441Y-95660368D01*
X146803229Y-95653229D01*
X146805709Y-95646299D01*
X146808856Y-95639645D01*
X146812640Y-95633332D01*
X146817024Y-95627421D01*
X146821967Y-95621967D01*
X146827421Y-95617024D01*
X146833332Y-95612640D01*
X146839645Y-95608856D01*
X146846299Y-95605709D01*
X146853229Y-95603229D01*
X146860368Y-95601441D01*
X146867649Y-95600361D01*
X146875000Y-95600000D01*
X147025000Y-95600000D01*
X147032351Y-95600361D01*
G37*
G36*
X146532351Y-95600361D02*
G01*
X146539632Y-95601441D01*
X146546771Y-95603229D01*
X146553701Y-95605709D01*
X146560355Y-95608856D01*
X146566668Y-95612640D01*
X146572579Y-95617024D01*
X146578033Y-95621967D01*
X146582976Y-95627421D01*
X146587360Y-95633332D01*
X146591144Y-95639645D01*
X146594291Y-95646299D01*
X146596771Y-95653229D01*
X146598559Y-95660368D01*
X146599639Y-95667649D01*
X146600000Y-95675000D01*
X146600000Y-97075000D01*
X146599639Y-97082351D01*
X146598559Y-97089632D01*
X146596771Y-97096771D01*
X146594291Y-97103701D01*
X146591144Y-97110355D01*
X146587360Y-97116668D01*
X146582976Y-97122579D01*
X146578033Y-97128033D01*
X146572579Y-97132976D01*
X146566668Y-97137360D01*
X146560355Y-97141144D01*
X146553701Y-97144291D01*
X146546771Y-97146771D01*
X146539632Y-97148559D01*
X146532351Y-97149639D01*
X146525000Y-97150000D01*
X146375000Y-97150000D01*
X146367649Y-97149639D01*
X146360368Y-97148559D01*
X146353229Y-97146771D01*
X146346299Y-97144291D01*
X146339645Y-97141144D01*
X146333332Y-97137360D01*
X146327421Y-97132976D01*
X146321967Y-97128033D01*
X146317024Y-97122579D01*
X146312640Y-97116668D01*
X146308856Y-97110355D01*
X146305709Y-97103701D01*
X146303229Y-97096771D01*
X146301441Y-97089632D01*
X146300361Y-97082351D01*
X146300000Y-97075000D01*
X146300000Y-95675000D01*
X146300361Y-95667649D01*
X146301441Y-95660368D01*
X146303229Y-95653229D01*
X146305709Y-95646299D01*
X146308856Y-95639645D01*
X146312640Y-95633332D01*
X146317024Y-95627421D01*
X146321967Y-95621967D01*
X146327421Y-95617024D01*
X146333332Y-95612640D01*
X146339645Y-95608856D01*
X146346299Y-95605709D01*
X146353229Y-95603229D01*
X146360368Y-95601441D01*
X146367649Y-95600361D01*
X146375000Y-95600000D01*
X146525000Y-95600000D01*
X146532351Y-95600361D01*
G37*
G36*
X146032351Y-95600361D02*
G01*
X146039632Y-95601441D01*
X146046771Y-95603229D01*
X146053701Y-95605709D01*
X146060355Y-95608856D01*
X146066668Y-95612640D01*
X146072579Y-95617024D01*
X146078033Y-95621967D01*
X146082976Y-95627421D01*
X146087360Y-95633332D01*
X146091144Y-95639645D01*
X146094291Y-95646299D01*
X146096771Y-95653229D01*
X146098559Y-95660368D01*
X146099639Y-95667649D01*
X146100000Y-95675000D01*
X146100000Y-97075000D01*
X146099639Y-97082351D01*
X146098559Y-97089632D01*
X146096771Y-97096771D01*
X146094291Y-97103701D01*
X146091144Y-97110355D01*
X146087360Y-97116668D01*
X146082976Y-97122579D01*
X146078033Y-97128033D01*
X146072579Y-97132976D01*
X146066668Y-97137360D01*
X146060355Y-97141144D01*
X146053701Y-97144291D01*
X146046771Y-97146771D01*
X146039632Y-97148559D01*
X146032351Y-97149639D01*
X146025000Y-97150000D01*
X145875000Y-97150000D01*
X145867649Y-97149639D01*
X145860368Y-97148559D01*
X145853229Y-97146771D01*
X145846299Y-97144291D01*
X145839645Y-97141144D01*
X145833332Y-97137360D01*
X145827421Y-97132976D01*
X145821967Y-97128033D01*
X145817024Y-97122579D01*
X145812640Y-97116668D01*
X145808856Y-97110355D01*
X145805709Y-97103701D01*
X145803229Y-97096771D01*
X145801441Y-97089632D01*
X145800361Y-97082351D01*
X145800000Y-97075000D01*
X145800000Y-95675000D01*
X145800361Y-95667649D01*
X145801441Y-95660368D01*
X145803229Y-95653229D01*
X145805709Y-95646299D01*
X145808856Y-95639645D01*
X145812640Y-95633332D01*
X145817024Y-95627421D01*
X145821967Y-95621967D01*
X145827421Y-95617024D01*
X145833332Y-95612640D01*
X145839645Y-95608856D01*
X145846299Y-95605709D01*
X145853229Y-95603229D01*
X145860368Y-95601441D01*
X145867649Y-95600361D01*
X145875000Y-95600000D01*
X146025000Y-95600000D01*
X146032351Y-95600361D01*
G37*
G36*
X145532351Y-95600361D02*
G01*
X145539632Y-95601441D01*
X145546771Y-95603229D01*
X145553701Y-95605709D01*
X145560355Y-95608856D01*
X145566668Y-95612640D01*
X145572579Y-95617024D01*
X145578033Y-95621967D01*
X145582976Y-95627421D01*
X145587360Y-95633332D01*
X145591144Y-95639645D01*
X145594291Y-95646299D01*
X145596771Y-95653229D01*
X145598559Y-95660368D01*
X145599639Y-95667649D01*
X145600000Y-95675000D01*
X145600000Y-97075000D01*
X145599639Y-97082351D01*
X145598559Y-97089632D01*
X145596771Y-97096771D01*
X145594291Y-97103701D01*
X145591144Y-97110355D01*
X145587360Y-97116668D01*
X145582976Y-97122579D01*
X145578033Y-97128033D01*
X145572579Y-97132976D01*
X145566668Y-97137360D01*
X145560355Y-97141144D01*
X145553701Y-97144291D01*
X145546771Y-97146771D01*
X145539632Y-97148559D01*
X145532351Y-97149639D01*
X145525000Y-97150000D01*
X145375000Y-97150000D01*
X145367649Y-97149639D01*
X145360368Y-97148559D01*
X145353229Y-97146771D01*
X145346299Y-97144291D01*
X145339645Y-97141144D01*
X145333332Y-97137360D01*
X145327421Y-97132976D01*
X145321967Y-97128033D01*
X145317024Y-97122579D01*
X145312640Y-97116668D01*
X145308856Y-97110355D01*
X145305709Y-97103701D01*
X145303229Y-97096771D01*
X145301441Y-97089632D01*
X145300361Y-97082351D01*
X145300000Y-97075000D01*
X145300000Y-95675000D01*
X145300361Y-95667649D01*
X145301441Y-95660368D01*
X145303229Y-95653229D01*
X145305709Y-95646299D01*
X145308856Y-95639645D01*
X145312640Y-95633332D01*
X145317024Y-95627421D01*
X145321967Y-95621967D01*
X145327421Y-95617024D01*
X145333332Y-95612640D01*
X145339645Y-95608856D01*
X145346299Y-95605709D01*
X145353229Y-95603229D01*
X145360368Y-95601441D01*
X145367649Y-95600361D01*
X145375000Y-95600000D01*
X145525000Y-95600000D01*
X145532351Y-95600361D01*
G37*
G36*
X159269703Y-109550722D02*
G01*
X159284264Y-109552882D01*
X159298543Y-109556459D01*
X159312403Y-109561418D01*
X159325710Y-109567712D01*
X159338336Y-109575280D01*
X159350159Y-109584048D01*
X159361066Y-109593934D01*
X159370952Y-109604841D01*
X159379720Y-109616664D01*
X159387288Y-109629290D01*
X159393582Y-109642597D01*
X159398541Y-109656457D01*
X159402118Y-109670736D01*
X159404278Y-109685297D01*
X159405000Y-109700000D01*
X159405000Y-111350000D01*
X159404278Y-111364703D01*
X159402118Y-111379264D01*
X159398541Y-111393543D01*
X159393582Y-111407403D01*
X159387288Y-111420710D01*
X159379720Y-111433336D01*
X159370952Y-111445159D01*
X159361066Y-111456066D01*
X159350159Y-111465952D01*
X159338336Y-111474720D01*
X159325710Y-111482288D01*
X159312403Y-111488582D01*
X159298543Y-111493541D01*
X159284264Y-111497118D01*
X159269703Y-111499278D01*
X159255000Y-111500000D01*
X158955000Y-111500000D01*
X158940297Y-111499278D01*
X158925736Y-111497118D01*
X158911457Y-111493541D01*
X158897597Y-111488582D01*
X158884290Y-111482288D01*
X158871664Y-111474720D01*
X158859841Y-111465952D01*
X158848934Y-111456066D01*
X158839048Y-111445159D01*
X158830280Y-111433336D01*
X158822712Y-111420710D01*
X158816418Y-111407403D01*
X158811459Y-111393543D01*
X158807882Y-111379264D01*
X158805722Y-111364703D01*
X158805000Y-111350000D01*
X158805000Y-109700000D01*
X158805722Y-109685297D01*
X158807882Y-109670736D01*
X158811459Y-109656457D01*
X158816418Y-109642597D01*
X158822712Y-109629290D01*
X158830280Y-109616664D01*
X158839048Y-109604841D01*
X158848934Y-109593934D01*
X158859841Y-109584048D01*
X158871664Y-109575280D01*
X158884290Y-109567712D01*
X158897597Y-109561418D01*
X158911457Y-109556459D01*
X158925736Y-109552882D01*
X158940297Y-109550722D01*
X158955000Y-109550000D01*
X159255000Y-109550000D01*
X159269703Y-109550722D01*
G37*
G36*
X157999703Y-109550722D02*
G01*
X158014264Y-109552882D01*
X158028543Y-109556459D01*
X158042403Y-109561418D01*
X158055710Y-109567712D01*
X158068336Y-109575280D01*
X158080159Y-109584048D01*
X158091066Y-109593934D01*
X158100952Y-109604841D01*
X158109720Y-109616664D01*
X158117288Y-109629290D01*
X158123582Y-109642597D01*
X158128541Y-109656457D01*
X158132118Y-109670736D01*
X158134278Y-109685297D01*
X158135000Y-109700000D01*
X158135000Y-111350000D01*
X158134278Y-111364703D01*
X158132118Y-111379264D01*
X158128541Y-111393543D01*
X158123582Y-111407403D01*
X158117288Y-111420710D01*
X158109720Y-111433336D01*
X158100952Y-111445159D01*
X158091066Y-111456066D01*
X158080159Y-111465952D01*
X158068336Y-111474720D01*
X158055710Y-111482288D01*
X158042403Y-111488582D01*
X158028543Y-111493541D01*
X158014264Y-111497118D01*
X157999703Y-111499278D01*
X157985000Y-111500000D01*
X157685000Y-111500000D01*
X157670297Y-111499278D01*
X157655736Y-111497118D01*
X157641457Y-111493541D01*
X157627597Y-111488582D01*
X157614290Y-111482288D01*
X157601664Y-111474720D01*
X157589841Y-111465952D01*
X157578934Y-111456066D01*
X157569048Y-111445159D01*
X157560280Y-111433336D01*
X157552712Y-111420710D01*
X157546418Y-111407403D01*
X157541459Y-111393543D01*
X157537882Y-111379264D01*
X157535722Y-111364703D01*
X157535000Y-111350000D01*
X157535000Y-109700000D01*
X157535722Y-109685297D01*
X157537882Y-109670736D01*
X157541459Y-109656457D01*
X157546418Y-109642597D01*
X157552712Y-109629290D01*
X157560280Y-109616664D01*
X157569048Y-109604841D01*
X157578934Y-109593934D01*
X157589841Y-109584048D01*
X157601664Y-109575280D01*
X157614290Y-109567712D01*
X157627597Y-109561418D01*
X157641457Y-109556459D01*
X157655736Y-109552882D01*
X157670297Y-109550722D01*
X157685000Y-109550000D01*
X157985000Y-109550000D01*
X157999703Y-109550722D01*
G37*
G36*
X156729703Y-109550722D02*
G01*
X156744264Y-109552882D01*
X156758543Y-109556459D01*
X156772403Y-109561418D01*
X156785710Y-109567712D01*
X156798336Y-109575280D01*
X156810159Y-109584048D01*
X156821066Y-109593934D01*
X156830952Y-109604841D01*
X156839720Y-109616664D01*
X156847288Y-109629290D01*
X156853582Y-109642597D01*
X156858541Y-109656457D01*
X156862118Y-109670736D01*
X156864278Y-109685297D01*
X156865000Y-109700000D01*
X156865000Y-111350000D01*
X156864278Y-111364703D01*
X156862118Y-111379264D01*
X156858541Y-111393543D01*
X156853582Y-111407403D01*
X156847288Y-111420710D01*
X156839720Y-111433336D01*
X156830952Y-111445159D01*
X156821066Y-111456066D01*
X156810159Y-111465952D01*
X156798336Y-111474720D01*
X156785710Y-111482288D01*
X156772403Y-111488582D01*
X156758543Y-111493541D01*
X156744264Y-111497118D01*
X156729703Y-111499278D01*
X156715000Y-111500000D01*
X156415000Y-111500000D01*
X156400297Y-111499278D01*
X156385736Y-111497118D01*
X156371457Y-111493541D01*
X156357597Y-111488582D01*
X156344290Y-111482288D01*
X156331664Y-111474720D01*
X156319841Y-111465952D01*
X156308934Y-111456066D01*
X156299048Y-111445159D01*
X156290280Y-111433336D01*
X156282712Y-111420710D01*
X156276418Y-111407403D01*
X156271459Y-111393543D01*
X156267882Y-111379264D01*
X156265722Y-111364703D01*
X156265000Y-111350000D01*
X156265000Y-109700000D01*
X156265722Y-109685297D01*
X156267882Y-109670736D01*
X156271459Y-109656457D01*
X156276418Y-109642597D01*
X156282712Y-109629290D01*
X156290280Y-109616664D01*
X156299048Y-109604841D01*
X156308934Y-109593934D01*
X156319841Y-109584048D01*
X156331664Y-109575280D01*
X156344290Y-109567712D01*
X156357597Y-109561418D01*
X156371457Y-109556459D01*
X156385736Y-109552882D01*
X156400297Y-109550722D01*
X156415000Y-109550000D01*
X156715000Y-109550000D01*
X156729703Y-109550722D01*
G37*
G36*
X155459703Y-109550722D02*
G01*
X155474264Y-109552882D01*
X155488543Y-109556459D01*
X155502403Y-109561418D01*
X155515710Y-109567712D01*
X155528336Y-109575280D01*
X155540159Y-109584048D01*
X155551066Y-109593934D01*
X155560952Y-109604841D01*
X155569720Y-109616664D01*
X155577288Y-109629290D01*
X155583582Y-109642597D01*
X155588541Y-109656457D01*
X155592118Y-109670736D01*
X155594278Y-109685297D01*
X155595000Y-109700000D01*
X155595000Y-111350000D01*
X155594278Y-111364703D01*
X155592118Y-111379264D01*
X155588541Y-111393543D01*
X155583582Y-111407403D01*
X155577288Y-111420710D01*
X155569720Y-111433336D01*
X155560952Y-111445159D01*
X155551066Y-111456066D01*
X155540159Y-111465952D01*
X155528336Y-111474720D01*
X155515710Y-111482288D01*
X155502403Y-111488582D01*
X155488543Y-111493541D01*
X155474264Y-111497118D01*
X155459703Y-111499278D01*
X155445000Y-111500000D01*
X155145000Y-111500000D01*
X155130297Y-111499278D01*
X155115736Y-111497118D01*
X155101457Y-111493541D01*
X155087597Y-111488582D01*
X155074290Y-111482288D01*
X155061664Y-111474720D01*
X155049841Y-111465952D01*
X155038934Y-111456066D01*
X155029048Y-111445159D01*
X155020280Y-111433336D01*
X155012712Y-111420710D01*
X155006418Y-111407403D01*
X155001459Y-111393543D01*
X154997882Y-111379264D01*
X154995722Y-111364703D01*
X154995000Y-111350000D01*
X154995000Y-109700000D01*
X154995722Y-109685297D01*
X154997882Y-109670736D01*
X155001459Y-109656457D01*
X155006418Y-109642597D01*
X155012712Y-109629290D01*
X155020280Y-109616664D01*
X155029048Y-109604841D01*
X155038934Y-109593934D01*
X155049841Y-109584048D01*
X155061664Y-109575280D01*
X155074290Y-109567712D01*
X155087597Y-109561418D01*
X155101457Y-109556459D01*
X155115736Y-109552882D01*
X155130297Y-109550722D01*
X155145000Y-109550000D01*
X155445000Y-109550000D01*
X155459703Y-109550722D01*
G37*
G36*
X155459703Y-114500722D02*
G01*
X155474264Y-114502882D01*
X155488543Y-114506459D01*
X155502403Y-114511418D01*
X155515710Y-114517712D01*
X155528336Y-114525280D01*
X155540159Y-114534048D01*
X155551066Y-114543934D01*
X155560952Y-114554841D01*
X155569720Y-114566664D01*
X155577288Y-114579290D01*
X155583582Y-114592597D01*
X155588541Y-114606457D01*
X155592118Y-114620736D01*
X155594278Y-114635297D01*
X155595000Y-114650000D01*
X155595000Y-116300000D01*
X155594278Y-116314703D01*
X155592118Y-116329264D01*
X155588541Y-116343543D01*
X155583582Y-116357403D01*
X155577288Y-116370710D01*
X155569720Y-116383336D01*
X155560952Y-116395159D01*
X155551066Y-116406066D01*
X155540159Y-116415952D01*
X155528336Y-116424720D01*
X155515710Y-116432288D01*
X155502403Y-116438582D01*
X155488543Y-116443541D01*
X155474264Y-116447118D01*
X155459703Y-116449278D01*
X155445000Y-116450000D01*
X155145000Y-116450000D01*
X155130297Y-116449278D01*
X155115736Y-116447118D01*
X155101457Y-116443541D01*
X155087597Y-116438582D01*
X155074290Y-116432288D01*
X155061664Y-116424720D01*
X155049841Y-116415952D01*
X155038934Y-116406066D01*
X155029048Y-116395159D01*
X155020280Y-116383336D01*
X155012712Y-116370710D01*
X155006418Y-116357403D01*
X155001459Y-116343543D01*
X154997882Y-116329264D01*
X154995722Y-116314703D01*
X154995000Y-116300000D01*
X154995000Y-114650000D01*
X154995722Y-114635297D01*
X154997882Y-114620736D01*
X155001459Y-114606457D01*
X155006418Y-114592597D01*
X155012712Y-114579290D01*
X155020280Y-114566664D01*
X155029048Y-114554841D01*
X155038934Y-114543934D01*
X155049841Y-114534048D01*
X155061664Y-114525280D01*
X155074290Y-114517712D01*
X155087597Y-114511418D01*
X155101457Y-114506459D01*
X155115736Y-114502882D01*
X155130297Y-114500722D01*
X155145000Y-114500000D01*
X155445000Y-114500000D01*
X155459703Y-114500722D01*
G37*
G36*
X156729703Y-114500722D02*
G01*
X156744264Y-114502882D01*
X156758543Y-114506459D01*
X156772403Y-114511418D01*
X156785710Y-114517712D01*
X156798336Y-114525280D01*
X156810159Y-114534048D01*
X156821066Y-114543934D01*
X156830952Y-114554841D01*
X156839720Y-114566664D01*
X156847288Y-114579290D01*
X156853582Y-114592597D01*
X156858541Y-114606457D01*
X156862118Y-114620736D01*
X156864278Y-114635297D01*
X156865000Y-114650000D01*
X156865000Y-116300000D01*
X156864278Y-116314703D01*
X156862118Y-116329264D01*
X156858541Y-116343543D01*
X156853582Y-116357403D01*
X156847288Y-116370710D01*
X156839720Y-116383336D01*
X156830952Y-116395159D01*
X156821066Y-116406066D01*
X156810159Y-116415952D01*
X156798336Y-116424720D01*
X156785710Y-116432288D01*
X156772403Y-116438582D01*
X156758543Y-116443541D01*
X156744264Y-116447118D01*
X156729703Y-116449278D01*
X156715000Y-116450000D01*
X156415000Y-116450000D01*
X156400297Y-116449278D01*
X156385736Y-116447118D01*
X156371457Y-116443541D01*
X156357597Y-116438582D01*
X156344290Y-116432288D01*
X156331664Y-116424720D01*
X156319841Y-116415952D01*
X156308934Y-116406066D01*
X156299048Y-116395159D01*
X156290280Y-116383336D01*
X156282712Y-116370710D01*
X156276418Y-116357403D01*
X156271459Y-116343543D01*
X156267882Y-116329264D01*
X156265722Y-116314703D01*
X156265000Y-116300000D01*
X156265000Y-114650000D01*
X156265722Y-114635297D01*
X156267882Y-114620736D01*
X156271459Y-114606457D01*
X156276418Y-114592597D01*
X156282712Y-114579290D01*
X156290280Y-114566664D01*
X156299048Y-114554841D01*
X156308934Y-114543934D01*
X156319841Y-114534048D01*
X156331664Y-114525280D01*
X156344290Y-114517712D01*
X156357597Y-114511418D01*
X156371457Y-114506459D01*
X156385736Y-114502882D01*
X156400297Y-114500722D01*
X156415000Y-114500000D01*
X156715000Y-114500000D01*
X156729703Y-114500722D01*
G37*
G36*
X157999703Y-114500722D02*
G01*
X158014264Y-114502882D01*
X158028543Y-114506459D01*
X158042403Y-114511418D01*
X158055710Y-114517712D01*
X158068336Y-114525280D01*
X158080159Y-114534048D01*
X158091066Y-114543934D01*
X158100952Y-114554841D01*
X158109720Y-114566664D01*
X158117288Y-114579290D01*
X158123582Y-114592597D01*
X158128541Y-114606457D01*
X158132118Y-114620736D01*
X158134278Y-114635297D01*
X158135000Y-114650000D01*
X158135000Y-116300000D01*
X158134278Y-116314703D01*
X158132118Y-116329264D01*
X158128541Y-116343543D01*
X158123582Y-116357403D01*
X158117288Y-116370710D01*
X158109720Y-116383336D01*
X158100952Y-116395159D01*
X158091066Y-116406066D01*
X158080159Y-116415952D01*
X158068336Y-116424720D01*
X158055710Y-116432288D01*
X158042403Y-116438582D01*
X158028543Y-116443541D01*
X158014264Y-116447118D01*
X157999703Y-116449278D01*
X157985000Y-116450000D01*
X157685000Y-116450000D01*
X157670297Y-116449278D01*
X157655736Y-116447118D01*
X157641457Y-116443541D01*
X157627597Y-116438582D01*
X157614290Y-116432288D01*
X157601664Y-116424720D01*
X157589841Y-116415952D01*
X157578934Y-116406066D01*
X157569048Y-116395159D01*
X157560280Y-116383336D01*
X157552712Y-116370710D01*
X157546418Y-116357403D01*
X157541459Y-116343543D01*
X157537882Y-116329264D01*
X157535722Y-116314703D01*
X157535000Y-116300000D01*
X157535000Y-114650000D01*
X157535722Y-114635297D01*
X157537882Y-114620736D01*
X157541459Y-114606457D01*
X157546418Y-114592597D01*
X157552712Y-114579290D01*
X157560280Y-114566664D01*
X157569048Y-114554841D01*
X157578934Y-114543934D01*
X157589841Y-114534048D01*
X157601664Y-114525280D01*
X157614290Y-114517712D01*
X157627597Y-114511418D01*
X157641457Y-114506459D01*
X157655736Y-114502882D01*
X157670297Y-114500722D01*
X157685000Y-114500000D01*
X157985000Y-114500000D01*
X157999703Y-114500722D01*
G37*
G36*
X159269703Y-114500722D02*
G01*
X159284264Y-114502882D01*
X159298543Y-114506459D01*
X159312403Y-114511418D01*
X159325710Y-114517712D01*
X159338336Y-114525280D01*
X159350159Y-114534048D01*
X159361066Y-114543934D01*
X159370952Y-114554841D01*
X159379720Y-114566664D01*
X159387288Y-114579290D01*
X159393582Y-114592597D01*
X159398541Y-114606457D01*
X159402118Y-114620736D01*
X159404278Y-114635297D01*
X159405000Y-114650000D01*
X159405000Y-116300000D01*
X159404278Y-116314703D01*
X159402118Y-116329264D01*
X159398541Y-116343543D01*
X159393582Y-116357403D01*
X159387288Y-116370710D01*
X159379720Y-116383336D01*
X159370952Y-116395159D01*
X159361066Y-116406066D01*
X159350159Y-116415952D01*
X159338336Y-116424720D01*
X159325710Y-116432288D01*
X159312403Y-116438582D01*
X159298543Y-116443541D01*
X159284264Y-116447118D01*
X159269703Y-116449278D01*
X159255000Y-116450000D01*
X158955000Y-116450000D01*
X158940297Y-116449278D01*
X158925736Y-116447118D01*
X158911457Y-116443541D01*
X158897597Y-116438582D01*
X158884290Y-116432288D01*
X158871664Y-116424720D01*
X158859841Y-116415952D01*
X158848934Y-116406066D01*
X158839048Y-116395159D01*
X158830280Y-116383336D01*
X158822712Y-116370710D01*
X158816418Y-116357403D01*
X158811459Y-116343543D01*
X158807882Y-116329264D01*
X158805722Y-116314703D01*
X158805000Y-116300000D01*
X158805000Y-114650000D01*
X158805722Y-114635297D01*
X158807882Y-114620736D01*
X158811459Y-114606457D01*
X158816418Y-114592597D01*
X158822712Y-114579290D01*
X158830280Y-114566664D01*
X158839048Y-114554841D01*
X158848934Y-114543934D01*
X158859841Y-114534048D01*
X158871664Y-114525280D01*
X158884290Y-114517712D01*
X158897597Y-114511418D01*
X158911457Y-114506459D01*
X158925736Y-114502882D01*
X158940297Y-114500722D01*
X158955000Y-114500000D01*
X159255000Y-114500000D01*
X159269703Y-114500722D01*
G37*
D29*
X162950000Y-102800000D03*
X162000000Y-102800000D03*
X161050000Y-102800000D03*
X161050000Y-105000000D03*
X162950000Y-105000000D03*
M02*
