G04 #@! TF.GenerationSoftware,KiCad,Pcbnew,(5.0.0)*
G04 #@! TF.CreationDate,2018-08-31T18:23:00+12:00*
G04 #@! TF.ProjectId,SimpleFC,53696D706C6546432E6B696361645F70,rev?*
G04 #@! TF.SameCoordinates,Original*
G04 #@! TF.FileFunction,Copper,L2,Inr,Plane*
G04 #@! TF.FilePolarity,Positive*
%FSLAX46Y46*%
G04 Gerber Fmt 4.6, Leading zero omitted, Abs format (unit mm)*
G04 Created by KiCad (PCBNEW (5.0.0)) date 08/31/18 18:23:00*
%MOMM*%
%LPD*%
G01*
G04 APERTURE LIST*
G04 #@! TA.AperFunction,ViaPad*
%ADD10C,1.880000*%
G04 #@! TD*
G04 #@! TA.AperFunction,ViaPad*
%ADD11C,0.650000*%
G04 #@! TD*
G04 #@! TA.AperFunction,ViaPad*
%ADD12C,0.800000*%
G04 #@! TD*
G04 #@! TA.AperFunction,ViaPad*
%ADD13C,0.900000*%
G04 #@! TD*
G04 #@! TA.AperFunction,ViaPad*
%ADD14C,0.600000*%
G04 #@! TD*
G04 #@! TA.AperFunction,ViaPad*
%ADD15C,0.550000*%
G04 #@! TD*
G04 #@! TA.AperFunction,Conductor*
%ADD16C,0.254000*%
G04 #@! TD*
G04 APERTURE END LIST*
D10*
G04 #@! TO.N,Net-(J1-Pad1)*
G04 #@! TO.C,J1*
X126500000Y-88730000D03*
G04 #@! TO.N,GND*
X126500000Y-91270000D03*
G04 #@! TD*
G04 #@! TO.N,Net-(J3-Pad1)*
G04 #@! TO.C,J3*
X173500000Y-104810000D03*
G04 #@! TO.N,U1TX*
X173500000Y-102270000D03*
G04 #@! TO.N,U1RX*
X173500000Y-99730000D03*
G04 #@! TO.N,GND*
X173500000Y-97190000D03*
G04 #@! TD*
G04 #@! TO.N,+5V*
G04 #@! TO.C,J4*
X167310000Y-123500000D03*
G04 #@! TO.N,CANH*
X164770000Y-123500000D03*
G04 #@! TO.N,CANL*
X162230000Y-123500000D03*
G04 #@! TO.N,GND*
X159690000Y-123500000D03*
G04 #@! TD*
G04 #@! TO.N,GND*
G04 #@! TO.C,J11*
X126500000Y-116310000D03*
G04 #@! TO.N,ADC_IN3*
X126500000Y-113770000D03*
G04 #@! TO.N,ADC_IN2*
X126500000Y-111230000D03*
G04 #@! TO.N,+5V*
X126500000Y-108690000D03*
G04 #@! TD*
G04 #@! TO.N,ADC_CURR*
G04 #@! TO.C,J14*
X126500000Y-105040000D03*
G04 #@! TO.N,+5V*
X126500000Y-102500000D03*
G04 #@! TO.N,GND*
X126500000Y-99960000D03*
G04 #@! TD*
G04 #@! TO.N,M8*
G04 #@! TO.C,J5*
X156430000Y-118420000D03*
G04 #@! TO.N,RC_IN2*
X133570000Y-118420000D03*
G04 #@! TO.N,RC_IN1*
X136110000Y-118420000D03*
G04 #@! TO.N,M1*
X138650000Y-118420000D03*
G04 #@! TO.N,M2*
X141190000Y-118420000D03*
G04 #@! TO.N,M3*
X143730000Y-118420000D03*
G04 #@! TO.N,M4*
X146270000Y-118420000D03*
G04 #@! TO.N,M5*
X148810000Y-118420000D03*
G04 #@! TO.N,M6*
X151350000Y-118420000D03*
G04 #@! TO.N,M7*
X153890000Y-118420000D03*
G04 #@! TD*
G04 #@! TO.N,Net-(J6-Pad9)*
G04 #@! TO.C,J6*
X153890000Y-120960000D03*
G04 #@! TO.N,Net-(J6-Pad8)*
X151350000Y-120960000D03*
G04 #@! TO.N,Net-(J6-Pad7)*
X148810000Y-120960000D03*
G04 #@! TO.N,Net-(J6-Pad6)*
X146270000Y-120960000D03*
G04 #@! TO.N,Net-(J6-Pad5)*
X143730000Y-120960000D03*
G04 #@! TO.N,Net-(J6-Pad4)*
X141190000Y-120960000D03*
G04 #@! TO.N,Net-(J6-Pad3)*
X138650000Y-120960000D03*
G04 #@! TO.N,Net-(J6-Pad2)*
X136110000Y-120960000D03*
G04 #@! TO.N,Net-(J6-Pad1)*
X133570000Y-120960000D03*
G04 #@! TO.N,Net-(J6-Pad10)*
X156430000Y-120960000D03*
G04 #@! TD*
G04 #@! TO.N,GND*
G04 #@! TO.C,J7*
X156430000Y-123500000D03*
X133570000Y-123500000D03*
X136110000Y-123500000D03*
X138650000Y-123500000D03*
X141190000Y-123500000D03*
X143730000Y-123500000D03*
X146270000Y-123500000D03*
X148810000Y-123500000D03*
X151350000Y-123500000D03*
X153890000Y-123500000D03*
G04 #@! TD*
D11*
G04 #@! TO.N,GND*
X152300000Y-78400000D03*
X163500000Y-120100000D03*
X163500000Y-117700000D03*
D12*
X138300000Y-85700000D03*
D13*
X138800000Y-87000000D03*
D14*
X160500000Y-98200000D03*
X144700000Y-104900000D03*
X130100000Y-113300000D03*
X140400000Y-114200000D03*
X135000000Y-115900000D03*
X136400000Y-111300000D03*
X136000000Y-107900000D03*
X140400000Y-108600000D03*
X132400000Y-107300000D03*
D15*
X164000000Y-113700000D03*
X164000000Y-115900000D03*
X164000000Y-114800000D03*
D12*
X169850000Y-116300000D03*
D15*
X169000000Y-115600000D03*
D12*
X169800000Y-113300000D03*
D15*
X169000000Y-114000000D03*
D11*
X152100000Y-115900000D03*
X156350000Y-102100000D03*
D14*
X151250000Y-109550000D03*
X141200000Y-98300000D03*
X166000000Y-100100000D03*
X170500000Y-101000000D03*
X168400000Y-101000000D03*
X164400000Y-100100000D03*
X165000000Y-95000000D03*
X168500000Y-93200000D03*
X168300000Y-89600000D03*
X168150000Y-84950000D03*
D11*
X165500000Y-116900000D03*
X166900000Y-115900000D03*
X166900000Y-113700000D03*
X168000000Y-117300000D03*
D12*
X174100000Y-114800000D03*
X171600000Y-117550000D03*
X173400000Y-116300000D03*
X173400000Y-113300000D03*
X171600000Y-112100000D03*
X167100000Y-108500000D03*
D11*
X144450000Y-114050000D03*
X171000000Y-109900000D03*
X163600000Y-93000000D03*
X158500000Y-90700000D03*
D14*
X145600000Y-88000000D03*
X148100000Y-95300000D03*
D11*
X144400000Y-89400000D03*
X137200000Y-96900000D03*
X145900000Y-82100000D03*
X144800000Y-83200000D03*
D12*
X130700000Y-92200000D03*
X132300000Y-80900000D03*
X141800000Y-87000000D03*
X140500000Y-88400000D03*
X138500000Y-84600000D03*
X137000000Y-88200000D03*
X145850000Y-77100000D03*
X147400000Y-78400000D03*
D11*
X152000000Y-82000000D03*
X147200000Y-81400000D03*
D14*
X133300000Y-93000000D03*
X134500000Y-93000000D03*
X135700000Y-93000000D03*
X135700000Y-91800000D03*
X134500000Y-91800000D03*
X133300000Y-91800000D03*
X145300000Y-111300000D03*
D11*
G04 #@! TO.N,+3V3*
X152000000Y-86100000D03*
X153300000Y-85000000D03*
X143000000Y-115400000D03*
D14*
X134400000Y-104600000D03*
X141800000Y-95300000D03*
X142800000Y-94100000D03*
X128200000Y-118200000D03*
X130800000Y-114200000D03*
X136200000Y-114200000D03*
X153500000Y-109650000D03*
X143050000Y-109550000D03*
X170400000Y-106600000D03*
X166950000Y-97200000D03*
X165800000Y-91400000D03*
X161875000Y-82400000D03*
X159400000Y-95100000D03*
D11*
X158500000Y-89200000D03*
X154800000Y-89200000D03*
X142200000Y-89400000D03*
D12*
X143200000Y-96500000D03*
D15*
X144600000Y-103600000D03*
D14*
X147100000Y-111300000D03*
G04 #@! TO.N,+3.3VA*
X140900000Y-105600000D03*
G04 #@! TO.N,GNDA*
X136000000Y-103800000D03*
X141500000Y-104400000D03*
G04 #@! TO.N,+BATT*
X129900000Y-100600000D03*
G04 #@! TO.N,+5V*
X156300000Y-106400000D03*
D12*
X143400000Y-80000000D03*
X167500000Y-103600000D03*
D14*
X130700000Y-117100000D03*
D12*
X140600000Y-82900000D03*
X138300000Y-89200000D03*
D14*
G04 #@! TO.N,U2TX*
X142000000Y-107000000D03*
G04 #@! TO.N,U4TX*
X140600000Y-106600000D03*
G04 #@! TO.N,VBUS*
X165050000Y-89650000D03*
D15*
G04 #@! TO.N,U3TX*
X151800000Y-106000000D03*
G04 #@! TO.N,U3RX*
X152700000Y-106300000D03*
D14*
G04 #@! TO.N,SDIO_D2*
X139500000Y-92500000D03*
X152200000Y-94600000D03*
G04 #@! TO.N,SDIO_D3*
X151300000Y-92300000D03*
X140000000Y-89400000D03*
G04 #@! TO.N,SDIO_D0*
X150300000Y-99700000D03*
X145500000Y-89500000D03*
G04 #@! TO.N,SDIO_D1*
X146600000Y-89500000D03*
X150200000Y-98700000D03*
G04 #@! TO.N,SD_DECT*
X151200000Y-98800000D03*
X147700000Y-89500000D03*
G04 #@! TO.N,Net-(R1-Pad1)*
X147300000Y-93100000D03*
G04 #@! TO.N,I2C1_SCL*
X153000000Y-93000000D03*
X150800000Y-97500000D03*
G04 #@! TO.N,I2C1_SDA*
X154800000Y-93000000D03*
X151800000Y-97500000D03*
G04 #@! TO.N,GPS_LED*
X149700000Y-93600000D03*
G04 #@! TO.N,RDY_LED*
X149000000Y-93100000D03*
G04 #@! TO.N,DBG_LED*
X148100000Y-93100000D03*
D15*
G04 #@! TO.N,MAG_INT*
X154500000Y-93900000D03*
X164400000Y-91800000D03*
D14*
G04 #@! TO.N,U4RX*
X139900000Y-107200000D03*
G04 #@! TO.N,U2RX*
X142600000Y-108300000D03*
D15*
G04 #@! TO.N,MPU_INT*
X144300000Y-98800000D03*
G04 #@! TO.N,SPI1_SCK*
X154300000Y-95300000D03*
D14*
X147700000Y-104100000D03*
D15*
G04 #@! TO.N,SPI1_MISO*
X155000000Y-97600000D03*
D14*
X147800000Y-105300000D03*
D15*
G04 #@! TO.N,SPI1_MOSI*
X153600000Y-96500000D03*
X148300000Y-102900000D03*
G04 #@! TO.N,MPU_CS*
X149600000Y-101200000D03*
D14*
G04 #@! TO.N,BARO_CS*
X151600000Y-102000000D03*
G04 #@! TO.N,T3C3*
X148300000Y-111300000D03*
G04 #@! TO.N,T3C4*
X149200000Y-111300000D03*
G04 #@! TO.N,T12C1*
X150600000Y-106300000D03*
G04 #@! TO.N,T12C2*
X151100000Y-104900000D03*
G04 #@! TO.N,T3C1*
X151100000Y-104000000D03*
G04 #@! TO.N,T3C2*
X151800000Y-103200000D03*
D11*
G04 #@! TO.N,Net-(BT1-Pad1)*
X157600000Y-105300000D03*
G04 #@! TO.N,VDD_GPS*
X162950000Y-106000000D03*
D14*
G04 #@! TO.N,V_SW*
X135200000Y-87900000D03*
D12*
X131700000Y-88400000D03*
D14*
G04 #@! TO.N,T4C3*
X146100000Y-106200000D03*
G04 #@! TO.N,T4C4*
X145500000Y-105500000D03*
G04 #@! TD*
D16*
G04 #@! TO.N,GND*
G36*
X127948097Y-75527000D02*
X172051903Y-75527000D01*
X172101184Y-75517197D01*
X172150954Y-75523000D01*
X172106750Y-75523000D01*
X171380119Y-75823980D01*
X170823980Y-76380119D01*
X170523000Y-77106750D01*
X170523000Y-77893250D01*
X170823980Y-78619881D01*
X171380119Y-79176020D01*
X172106750Y-79477000D01*
X172893250Y-79477000D01*
X173619881Y-79176020D01*
X174176020Y-78619881D01*
X174477000Y-77893250D01*
X174477000Y-77787060D01*
X174485682Y-77884343D01*
X174473001Y-77948097D01*
X174473001Y-96195415D01*
X174467528Y-96189942D01*
X174393658Y-96263812D01*
X174300525Y-96049042D01*
X173802963Y-95829544D01*
X173259278Y-95817163D01*
X172752240Y-96013784D01*
X172699475Y-96049042D01*
X172606341Y-96263814D01*
X173500000Y-97157473D01*
X173514142Y-97143331D01*
X173546669Y-97175858D01*
X173532527Y-97190000D01*
X173546669Y-97204142D01*
X173514142Y-97236669D01*
X173500000Y-97222527D01*
X172606341Y-98116186D01*
X172699475Y-98330958D01*
X172992919Y-98460410D01*
X172725657Y-98571113D01*
X172341113Y-98955657D01*
X172133000Y-99458087D01*
X172133000Y-100001913D01*
X172341113Y-100504343D01*
X172725657Y-100888887D01*
X172993908Y-101000000D01*
X172725657Y-101111113D01*
X172341113Y-101495657D01*
X172133000Y-101998087D01*
X172133000Y-102541913D01*
X172341113Y-103044343D01*
X172725657Y-103428887D01*
X172993908Y-103540000D01*
X172725657Y-103651113D01*
X172341113Y-104035657D01*
X172133000Y-104538087D01*
X172133000Y-105081913D01*
X172341113Y-105584343D01*
X172725657Y-105968887D01*
X173228087Y-106177000D01*
X173771913Y-106177000D01*
X174274343Y-105968887D01*
X174473000Y-105770230D01*
X174473000Y-122051902D01*
X174482803Y-122101183D01*
X174477000Y-122150953D01*
X174477000Y-122106750D01*
X174176020Y-121380119D01*
X173619881Y-120823980D01*
X172893250Y-120523000D01*
X172106750Y-120523000D01*
X171380119Y-120823980D01*
X170823980Y-121380119D01*
X170523000Y-122106750D01*
X170523000Y-122893250D01*
X170823980Y-123619881D01*
X171380119Y-124176020D01*
X172106750Y-124477000D01*
X172212941Y-124477000D01*
X172115660Y-124485682D01*
X172051903Y-124473000D01*
X168270230Y-124473000D01*
X168468887Y-124274343D01*
X168677000Y-123771913D01*
X168677000Y-123228087D01*
X168468887Y-122725657D01*
X168084343Y-122341113D01*
X167581913Y-122133000D01*
X167038087Y-122133000D01*
X166535657Y-122341113D01*
X166151113Y-122725657D01*
X166040000Y-122993908D01*
X165928887Y-122725657D01*
X165544343Y-122341113D01*
X165041913Y-122133000D01*
X164498087Y-122133000D01*
X163995657Y-122341113D01*
X163611113Y-122725657D01*
X163500000Y-122993908D01*
X163388887Y-122725657D01*
X163004343Y-122341113D01*
X162501913Y-122133000D01*
X161958087Y-122133000D01*
X161455657Y-122341113D01*
X161071113Y-122725657D01*
X160959964Y-122993994D01*
X160866216Y-122752240D01*
X160830958Y-122699475D01*
X160616186Y-122606341D01*
X159722527Y-123500000D01*
X159736669Y-123514142D01*
X159704142Y-123546669D01*
X159690000Y-123532527D01*
X159675858Y-123546669D01*
X159643331Y-123514142D01*
X159657473Y-123500000D01*
X158763814Y-122606341D01*
X158549042Y-122699475D01*
X158329544Y-123197037D01*
X158317163Y-123740722D01*
X158513784Y-124247760D01*
X158549042Y-124300525D01*
X158763812Y-124393658D01*
X158689942Y-124467528D01*
X158695414Y-124473000D01*
X157424586Y-124473000D01*
X157430058Y-124467528D01*
X157356188Y-124393658D01*
X157570958Y-124300525D01*
X157790456Y-123802963D01*
X157802837Y-123259278D01*
X157606216Y-122752240D01*
X157570958Y-122699475D01*
X157356186Y-122606341D01*
X156462527Y-123500000D01*
X156476669Y-123514142D01*
X156444142Y-123546669D01*
X156430000Y-123532527D01*
X156415858Y-123546669D01*
X156383331Y-123514142D01*
X156397473Y-123500000D01*
X155503814Y-122606341D01*
X155289042Y-122699475D01*
X155159567Y-122992971D01*
X155066216Y-122752240D01*
X155030958Y-122699475D01*
X154816186Y-122606341D01*
X153922527Y-123500000D01*
X153936669Y-123514142D01*
X153904142Y-123546669D01*
X153890000Y-123532527D01*
X153875858Y-123546669D01*
X153843331Y-123514142D01*
X153857473Y-123500000D01*
X152963814Y-122606341D01*
X152749042Y-122699475D01*
X152619567Y-122992971D01*
X152526216Y-122752240D01*
X152490958Y-122699475D01*
X152276186Y-122606341D01*
X151382527Y-123500000D01*
X151396669Y-123514142D01*
X151364142Y-123546669D01*
X151350000Y-123532527D01*
X151335858Y-123546669D01*
X151303331Y-123514142D01*
X151317473Y-123500000D01*
X150423814Y-122606341D01*
X150209042Y-122699475D01*
X150079567Y-122992971D01*
X149986216Y-122752240D01*
X149950958Y-122699475D01*
X149736186Y-122606341D01*
X148842527Y-123500000D01*
X148856669Y-123514142D01*
X148824142Y-123546669D01*
X148810000Y-123532527D01*
X148795858Y-123546669D01*
X148763331Y-123514142D01*
X148777473Y-123500000D01*
X147883814Y-122606341D01*
X147669042Y-122699475D01*
X147539567Y-122992971D01*
X147446216Y-122752240D01*
X147410958Y-122699475D01*
X147196186Y-122606341D01*
X146302527Y-123500000D01*
X146316669Y-123514142D01*
X146284142Y-123546669D01*
X146270000Y-123532527D01*
X146255858Y-123546669D01*
X146223331Y-123514142D01*
X146237473Y-123500000D01*
X145343814Y-122606341D01*
X145129042Y-122699475D01*
X144999567Y-122992971D01*
X144906216Y-122752240D01*
X144870958Y-122699475D01*
X144656186Y-122606341D01*
X143762527Y-123500000D01*
X143776669Y-123514142D01*
X143744142Y-123546669D01*
X143730000Y-123532527D01*
X143715858Y-123546669D01*
X143683331Y-123514142D01*
X143697473Y-123500000D01*
X142803814Y-122606341D01*
X142589042Y-122699475D01*
X142459567Y-122992971D01*
X142366216Y-122752240D01*
X142330958Y-122699475D01*
X142116186Y-122606341D01*
X141222527Y-123500000D01*
X141236669Y-123514142D01*
X141204142Y-123546669D01*
X141190000Y-123532527D01*
X141175858Y-123546669D01*
X141143331Y-123514142D01*
X141157473Y-123500000D01*
X140263814Y-122606341D01*
X140049042Y-122699475D01*
X139919567Y-122992971D01*
X139826216Y-122752240D01*
X139790958Y-122699475D01*
X139576186Y-122606341D01*
X138682527Y-123500000D01*
X138696669Y-123514142D01*
X138664142Y-123546669D01*
X138650000Y-123532527D01*
X138635858Y-123546669D01*
X138603331Y-123514142D01*
X138617473Y-123500000D01*
X137723814Y-122606341D01*
X137509042Y-122699475D01*
X137379567Y-122992971D01*
X137286216Y-122752240D01*
X137250958Y-122699475D01*
X137036186Y-122606341D01*
X136142527Y-123500000D01*
X136156669Y-123514142D01*
X136124142Y-123546669D01*
X136110000Y-123532527D01*
X136095858Y-123546669D01*
X136063331Y-123514142D01*
X136077473Y-123500000D01*
X135183814Y-122606341D01*
X134969042Y-122699475D01*
X134839567Y-122992971D01*
X134746216Y-122752240D01*
X134710958Y-122699475D01*
X134496186Y-122606341D01*
X133602527Y-123500000D01*
X133616669Y-123514142D01*
X133584142Y-123546669D01*
X133570000Y-123532527D01*
X133555858Y-123546669D01*
X133523331Y-123514142D01*
X133537473Y-123500000D01*
X132643814Y-122606341D01*
X132429042Y-122699475D01*
X132209544Y-123197037D01*
X132197163Y-123740722D01*
X132393784Y-124247760D01*
X132429042Y-124300525D01*
X132643812Y-124393658D01*
X132569942Y-124467528D01*
X132575414Y-124473000D01*
X127948097Y-124473000D01*
X127898816Y-124482803D01*
X127849047Y-124477000D01*
X127893250Y-124477000D01*
X128619881Y-124176020D01*
X129176020Y-123619881D01*
X129477000Y-122893250D01*
X129477000Y-122106750D01*
X129176020Y-121380119D01*
X128619881Y-120823980D01*
X127893250Y-120523000D01*
X127106750Y-120523000D01*
X126380119Y-120823980D01*
X125823980Y-121380119D01*
X125523000Y-122106750D01*
X125523000Y-122212941D01*
X125514318Y-122115660D01*
X125527000Y-122051903D01*
X125527000Y-118055391D01*
X127473000Y-118055391D01*
X127473000Y-118344609D01*
X127583679Y-118611813D01*
X127788187Y-118816321D01*
X128055391Y-118927000D01*
X128344609Y-118927000D01*
X128611813Y-118816321D01*
X128816321Y-118611813D01*
X128927000Y-118344609D01*
X128927000Y-118148087D01*
X132203000Y-118148087D01*
X132203000Y-118691913D01*
X132411113Y-119194343D01*
X132795657Y-119578887D01*
X133063908Y-119690000D01*
X132795657Y-119801113D01*
X132411113Y-120185657D01*
X132203000Y-120688087D01*
X132203000Y-121231913D01*
X132411113Y-121734343D01*
X132795657Y-122118887D01*
X133063994Y-122230036D01*
X132822240Y-122323784D01*
X132769475Y-122359042D01*
X132676341Y-122573814D01*
X133570000Y-123467473D01*
X134463659Y-122573814D01*
X134370525Y-122359042D01*
X134077081Y-122229590D01*
X134344343Y-122118887D01*
X134728887Y-121734343D01*
X134840000Y-121466092D01*
X134951113Y-121734343D01*
X135335657Y-122118887D01*
X135603994Y-122230036D01*
X135362240Y-122323784D01*
X135309475Y-122359042D01*
X135216341Y-122573814D01*
X136110000Y-123467473D01*
X137003659Y-122573814D01*
X136910525Y-122359042D01*
X136617081Y-122229590D01*
X136884343Y-122118887D01*
X137268887Y-121734343D01*
X137380000Y-121466092D01*
X137491113Y-121734343D01*
X137875657Y-122118887D01*
X138143994Y-122230036D01*
X137902240Y-122323784D01*
X137849475Y-122359042D01*
X137756341Y-122573814D01*
X138650000Y-123467473D01*
X139543659Y-122573814D01*
X139450525Y-122359042D01*
X139157081Y-122229590D01*
X139424343Y-122118887D01*
X139808887Y-121734343D01*
X139920000Y-121466092D01*
X140031113Y-121734343D01*
X140415657Y-122118887D01*
X140683994Y-122230036D01*
X140442240Y-122323784D01*
X140389475Y-122359042D01*
X140296341Y-122573814D01*
X141190000Y-123467473D01*
X142083659Y-122573814D01*
X141990525Y-122359042D01*
X141697081Y-122229590D01*
X141964343Y-122118887D01*
X142348887Y-121734343D01*
X142460000Y-121466092D01*
X142571113Y-121734343D01*
X142955657Y-122118887D01*
X143223994Y-122230036D01*
X142982240Y-122323784D01*
X142929475Y-122359042D01*
X142836341Y-122573814D01*
X143730000Y-123467473D01*
X144623659Y-122573814D01*
X144530525Y-122359042D01*
X144237081Y-122229590D01*
X144504343Y-122118887D01*
X144888887Y-121734343D01*
X145000000Y-121466092D01*
X145111113Y-121734343D01*
X145495657Y-122118887D01*
X145763994Y-122230036D01*
X145522240Y-122323784D01*
X145469475Y-122359042D01*
X145376341Y-122573814D01*
X146270000Y-123467473D01*
X147163659Y-122573814D01*
X147070525Y-122359042D01*
X146777081Y-122229590D01*
X147044343Y-122118887D01*
X147428887Y-121734343D01*
X147540000Y-121466092D01*
X147651113Y-121734343D01*
X148035657Y-122118887D01*
X148303994Y-122230036D01*
X148062240Y-122323784D01*
X148009475Y-122359042D01*
X147916341Y-122573814D01*
X148810000Y-123467473D01*
X149703659Y-122573814D01*
X149610525Y-122359042D01*
X149317081Y-122229590D01*
X149584343Y-122118887D01*
X149968887Y-121734343D01*
X150080000Y-121466092D01*
X150191113Y-121734343D01*
X150575657Y-122118887D01*
X150843994Y-122230036D01*
X150602240Y-122323784D01*
X150549475Y-122359042D01*
X150456341Y-122573814D01*
X151350000Y-123467473D01*
X152243659Y-122573814D01*
X152150525Y-122359042D01*
X151857081Y-122229590D01*
X152124343Y-122118887D01*
X152508887Y-121734343D01*
X152620000Y-121466092D01*
X152731113Y-121734343D01*
X153115657Y-122118887D01*
X153383994Y-122230036D01*
X153142240Y-122323784D01*
X153089475Y-122359042D01*
X152996341Y-122573814D01*
X153890000Y-123467473D01*
X154783659Y-122573814D01*
X154690525Y-122359042D01*
X154397081Y-122229590D01*
X154664343Y-122118887D01*
X155048887Y-121734343D01*
X155160000Y-121466092D01*
X155271113Y-121734343D01*
X155655657Y-122118887D01*
X155923994Y-122230036D01*
X155682240Y-122323784D01*
X155629475Y-122359042D01*
X155536341Y-122573814D01*
X156430000Y-123467473D01*
X157323659Y-122573814D01*
X158796341Y-122573814D01*
X159690000Y-123467473D01*
X160583659Y-122573814D01*
X160490525Y-122359042D01*
X159992963Y-122139544D01*
X159449278Y-122127163D01*
X158942240Y-122323784D01*
X158889475Y-122359042D01*
X158796341Y-122573814D01*
X157323659Y-122573814D01*
X157230525Y-122359042D01*
X156937081Y-122229590D01*
X157204343Y-122118887D01*
X157588887Y-121734343D01*
X157797000Y-121231913D01*
X157797000Y-120688087D01*
X157588887Y-120185657D01*
X157204343Y-119801113D01*
X156936092Y-119690000D01*
X157204343Y-119578887D01*
X157588887Y-119194343D01*
X157797000Y-118691913D01*
X157797000Y-118148087D01*
X157588887Y-117645657D01*
X157204343Y-117261113D01*
X156701913Y-117053000D01*
X156158087Y-117053000D01*
X155655657Y-117261113D01*
X155271113Y-117645657D01*
X155160000Y-117913908D01*
X155048887Y-117645657D01*
X154664343Y-117261113D01*
X154161913Y-117053000D01*
X153618087Y-117053000D01*
X153115657Y-117261113D01*
X152731113Y-117645657D01*
X152620000Y-117913908D01*
X152508887Y-117645657D01*
X152124343Y-117261113D01*
X151621913Y-117053000D01*
X151078087Y-117053000D01*
X150575657Y-117261113D01*
X150191113Y-117645657D01*
X150080000Y-117913908D01*
X149968887Y-117645657D01*
X149584343Y-117261113D01*
X149081913Y-117053000D01*
X148538087Y-117053000D01*
X148035657Y-117261113D01*
X147651113Y-117645657D01*
X147540000Y-117913908D01*
X147428887Y-117645657D01*
X147044343Y-117261113D01*
X146541913Y-117053000D01*
X145998087Y-117053000D01*
X145495657Y-117261113D01*
X145111113Y-117645657D01*
X145000000Y-117913908D01*
X144888887Y-117645657D01*
X144504343Y-117261113D01*
X144001913Y-117053000D01*
X143458087Y-117053000D01*
X142955657Y-117261113D01*
X142571113Y-117645657D01*
X142460000Y-117913908D01*
X142348887Y-117645657D01*
X141964343Y-117261113D01*
X141461913Y-117053000D01*
X140918087Y-117053000D01*
X140415657Y-117261113D01*
X140031113Y-117645657D01*
X139920000Y-117913908D01*
X139808887Y-117645657D01*
X139424343Y-117261113D01*
X138921913Y-117053000D01*
X138378087Y-117053000D01*
X137875657Y-117261113D01*
X137491113Y-117645657D01*
X137380000Y-117913908D01*
X137268887Y-117645657D01*
X136884343Y-117261113D01*
X136381913Y-117053000D01*
X135838087Y-117053000D01*
X135335657Y-117261113D01*
X134951113Y-117645657D01*
X134840000Y-117913908D01*
X134728887Y-117645657D01*
X134344343Y-117261113D01*
X133841913Y-117053000D01*
X133298087Y-117053000D01*
X132795657Y-117261113D01*
X132411113Y-117645657D01*
X132203000Y-118148087D01*
X128927000Y-118148087D01*
X128927000Y-118055391D01*
X128816321Y-117788187D01*
X128611813Y-117583679D01*
X128344609Y-117473000D01*
X128055391Y-117473000D01*
X127788187Y-117583679D01*
X127583679Y-117788187D01*
X127473000Y-118055391D01*
X125527000Y-118055391D01*
X125527000Y-117304586D01*
X125532472Y-117310058D01*
X125606342Y-117236188D01*
X125699475Y-117450958D01*
X126197037Y-117670456D01*
X126740722Y-117682837D01*
X127247760Y-117486216D01*
X127300525Y-117450958D01*
X127393659Y-117236186D01*
X126500000Y-116342527D01*
X126485858Y-116356669D01*
X126453331Y-116324142D01*
X126467473Y-116310000D01*
X126532527Y-116310000D01*
X127426186Y-117203659D01*
X127640958Y-117110525D01*
X127709394Y-116955391D01*
X129973000Y-116955391D01*
X129973000Y-117244609D01*
X130083679Y-117511813D01*
X130288187Y-117716321D01*
X130555391Y-117827000D01*
X130844609Y-117827000D01*
X131111813Y-117716321D01*
X131316321Y-117511813D01*
X131427000Y-117244609D01*
X131427000Y-116955391D01*
X131316321Y-116688187D01*
X131111813Y-116483679D01*
X130844609Y-116373000D01*
X130555391Y-116373000D01*
X130288187Y-116483679D01*
X130083679Y-116688187D01*
X129973000Y-116955391D01*
X127709394Y-116955391D01*
X127860456Y-116612963D01*
X127872837Y-116069278D01*
X127676216Y-115562240D01*
X127640958Y-115509475D01*
X127426186Y-115416341D01*
X126532527Y-116310000D01*
X126467473Y-116310000D01*
X126453331Y-116295858D01*
X126485858Y-116263331D01*
X126500000Y-116277473D01*
X127393659Y-115383814D01*
X127335813Y-115250418D01*
X142248000Y-115250418D01*
X142248000Y-115549582D01*
X142362485Y-115825974D01*
X142574026Y-116037515D01*
X142850418Y-116152000D01*
X143149582Y-116152000D01*
X143425974Y-116037515D01*
X143637515Y-115825974D01*
X143752000Y-115549582D01*
X143752000Y-115250418D01*
X143637515Y-114974026D01*
X143425974Y-114762485D01*
X143149582Y-114648000D01*
X142850418Y-114648000D01*
X142574026Y-114762485D01*
X142362485Y-114974026D01*
X142248000Y-115250418D01*
X127335813Y-115250418D01*
X127300525Y-115169042D01*
X127007081Y-115039590D01*
X127274343Y-114928887D01*
X127658887Y-114544343D01*
X127861417Y-114055391D01*
X130073000Y-114055391D01*
X130073000Y-114344609D01*
X130183679Y-114611813D01*
X130388187Y-114816321D01*
X130655391Y-114927000D01*
X130944609Y-114927000D01*
X131211813Y-114816321D01*
X131416321Y-114611813D01*
X131527000Y-114344609D01*
X131527000Y-114055391D01*
X135473000Y-114055391D01*
X135473000Y-114344609D01*
X135583679Y-114611813D01*
X135788187Y-114816321D01*
X136055391Y-114927000D01*
X136344609Y-114927000D01*
X136611813Y-114816321D01*
X136816321Y-114611813D01*
X136927000Y-114344609D01*
X136927000Y-114055391D01*
X136816321Y-113788187D01*
X136611813Y-113583679D01*
X136344609Y-113473000D01*
X136055391Y-113473000D01*
X135788187Y-113583679D01*
X135583679Y-113788187D01*
X135473000Y-114055391D01*
X131527000Y-114055391D01*
X131416321Y-113788187D01*
X131211813Y-113583679D01*
X130944609Y-113473000D01*
X130655391Y-113473000D01*
X130388187Y-113583679D01*
X130183679Y-113788187D01*
X130073000Y-114055391D01*
X127861417Y-114055391D01*
X127867000Y-114041913D01*
X127867000Y-113498087D01*
X127658887Y-112995657D01*
X127274343Y-112611113D01*
X127006092Y-112500000D01*
X127274343Y-112388887D01*
X127658887Y-112004343D01*
X127867000Y-111501913D01*
X127867000Y-111155391D01*
X146373000Y-111155391D01*
X146373000Y-111444609D01*
X146483679Y-111711813D01*
X146688187Y-111916321D01*
X146955391Y-112027000D01*
X147244609Y-112027000D01*
X147511813Y-111916321D01*
X147700000Y-111728134D01*
X147888187Y-111916321D01*
X148155391Y-112027000D01*
X148444609Y-112027000D01*
X148711813Y-111916321D01*
X148750000Y-111878134D01*
X148788187Y-111916321D01*
X149055391Y-112027000D01*
X149344609Y-112027000D01*
X149611813Y-111916321D01*
X149816321Y-111711813D01*
X149927000Y-111444609D01*
X149927000Y-111155391D01*
X149816321Y-110888187D01*
X149611813Y-110683679D01*
X149344609Y-110573000D01*
X149055391Y-110573000D01*
X148788187Y-110683679D01*
X148750000Y-110721866D01*
X148711813Y-110683679D01*
X148444609Y-110573000D01*
X148155391Y-110573000D01*
X147888187Y-110683679D01*
X147700000Y-110871866D01*
X147511813Y-110683679D01*
X147244609Y-110573000D01*
X146955391Y-110573000D01*
X146688187Y-110683679D01*
X146483679Y-110888187D01*
X146373000Y-111155391D01*
X127867000Y-111155391D01*
X127867000Y-110958087D01*
X127658887Y-110455657D01*
X127274343Y-110071113D01*
X127006092Y-109960000D01*
X127274343Y-109848887D01*
X127658887Y-109464343D01*
X127867000Y-108961913D01*
X127867000Y-108418087D01*
X127658887Y-107915657D01*
X127274343Y-107531113D01*
X126771913Y-107323000D01*
X126228087Y-107323000D01*
X125725657Y-107531113D01*
X125527000Y-107729770D01*
X125527000Y-107055391D01*
X139173000Y-107055391D01*
X139173000Y-107344609D01*
X139283679Y-107611813D01*
X139488187Y-107816321D01*
X139755391Y-107927000D01*
X140044609Y-107927000D01*
X140311813Y-107816321D01*
X140516321Y-107611813D01*
X140627000Y-107344609D01*
X140627000Y-107327000D01*
X140744609Y-107327000D01*
X141011813Y-107216321D01*
X141216321Y-107011813D01*
X141273000Y-106874977D01*
X141273000Y-107144609D01*
X141383679Y-107411813D01*
X141588187Y-107616321D01*
X141855391Y-107727000D01*
X142144609Y-107727000D01*
X142145048Y-107726818D01*
X141983679Y-107888187D01*
X141873000Y-108155391D01*
X141873000Y-108444609D01*
X141983679Y-108711813D01*
X142188187Y-108916321D01*
X142455391Y-109027000D01*
X142544866Y-109027000D01*
X142433679Y-109138187D01*
X142323000Y-109405391D01*
X142323000Y-109694609D01*
X142433679Y-109961813D01*
X142638187Y-110166321D01*
X142905391Y-110277000D01*
X143194609Y-110277000D01*
X143461813Y-110166321D01*
X143666321Y-109961813D01*
X143777000Y-109694609D01*
X143777000Y-109505391D01*
X152773000Y-109505391D01*
X152773000Y-109794609D01*
X152883679Y-110061813D01*
X153088187Y-110266321D01*
X153355391Y-110377000D01*
X153644609Y-110377000D01*
X153911813Y-110266321D01*
X154116321Y-110061813D01*
X154227000Y-109794609D01*
X154227000Y-109505391D01*
X154116321Y-109238187D01*
X153911813Y-109033679D01*
X153644609Y-108923000D01*
X153355391Y-108923000D01*
X153088187Y-109033679D01*
X152883679Y-109238187D01*
X152773000Y-109505391D01*
X143777000Y-109505391D01*
X143777000Y-109405391D01*
X143666321Y-109138187D01*
X143461813Y-108933679D01*
X143194609Y-108823000D01*
X143105134Y-108823000D01*
X143216321Y-108711813D01*
X143327000Y-108444609D01*
X143327000Y-108155391D01*
X143216321Y-107888187D01*
X143011813Y-107683679D01*
X142744609Y-107573000D01*
X142455391Y-107573000D01*
X142454952Y-107573182D01*
X142616321Y-107411813D01*
X142727000Y-107144609D01*
X142727000Y-106855391D01*
X142616321Y-106588187D01*
X142411813Y-106383679D01*
X142144609Y-106273000D01*
X141855391Y-106273000D01*
X141588187Y-106383679D01*
X141383679Y-106588187D01*
X141327000Y-106725023D01*
X141327000Y-106455391D01*
X141240252Y-106245962D01*
X141311813Y-106216321D01*
X141516321Y-106011813D01*
X141627000Y-105744609D01*
X141627000Y-105455391D01*
X141585579Y-105355391D01*
X144773000Y-105355391D01*
X144773000Y-105644609D01*
X144883679Y-105911813D01*
X145088187Y-106116321D01*
X145355391Y-106227000D01*
X145373000Y-106227000D01*
X145373000Y-106344609D01*
X145483679Y-106611813D01*
X145688187Y-106816321D01*
X145955391Y-106927000D01*
X146244609Y-106927000D01*
X146511813Y-106816321D01*
X146716321Y-106611813D01*
X146827000Y-106344609D01*
X146827000Y-106155391D01*
X149873000Y-106155391D01*
X149873000Y-106444609D01*
X149983679Y-106711813D01*
X150188187Y-106916321D01*
X150455391Y-107027000D01*
X150744609Y-107027000D01*
X151011813Y-106916321D01*
X151216321Y-106711813D01*
X151304984Y-106497762D01*
X151402349Y-106595127D01*
X151660364Y-106702000D01*
X151939636Y-106702000D01*
X152082212Y-106642943D01*
X152104873Y-106697651D01*
X152302349Y-106895127D01*
X152560364Y-107002000D01*
X152839636Y-107002000D01*
X153097651Y-106895127D01*
X153295127Y-106697651D01*
X153402000Y-106439636D01*
X153402000Y-106255391D01*
X155573000Y-106255391D01*
X155573000Y-106544609D01*
X155683679Y-106811813D01*
X155888187Y-107016321D01*
X156155391Y-107127000D01*
X156444609Y-107127000D01*
X156711813Y-107016321D01*
X156916321Y-106811813D01*
X157027000Y-106544609D01*
X157027000Y-106255391D01*
X156916321Y-105988187D01*
X156711813Y-105783679D01*
X156444609Y-105673000D01*
X156155391Y-105673000D01*
X155888187Y-105783679D01*
X155683679Y-105988187D01*
X155573000Y-106255391D01*
X153402000Y-106255391D01*
X153402000Y-106160364D01*
X153295127Y-105902349D01*
X153097651Y-105704873D01*
X152839636Y-105598000D01*
X152560364Y-105598000D01*
X152417788Y-105657057D01*
X152395127Y-105602349D01*
X152197651Y-105404873D01*
X151939636Y-105298000D01*
X151722043Y-105298000D01*
X151783172Y-105150418D01*
X156848000Y-105150418D01*
X156848000Y-105449582D01*
X156962485Y-105725974D01*
X157174026Y-105937515D01*
X157450418Y-106052000D01*
X157749582Y-106052000D01*
X158025974Y-105937515D01*
X158113071Y-105850418D01*
X162198000Y-105850418D01*
X162198000Y-106149582D01*
X162312485Y-106425974D01*
X162524026Y-106637515D01*
X162800418Y-106752000D01*
X163099582Y-106752000D01*
X163375974Y-106637515D01*
X163558098Y-106455391D01*
X169673000Y-106455391D01*
X169673000Y-106744609D01*
X169783679Y-107011813D01*
X169988187Y-107216321D01*
X170255391Y-107327000D01*
X170544609Y-107327000D01*
X170811813Y-107216321D01*
X171016321Y-107011813D01*
X171127000Y-106744609D01*
X171127000Y-106455391D01*
X171016321Y-106188187D01*
X170811813Y-105983679D01*
X170544609Y-105873000D01*
X170255391Y-105873000D01*
X169988187Y-105983679D01*
X169783679Y-106188187D01*
X169673000Y-106455391D01*
X163558098Y-106455391D01*
X163587515Y-106425974D01*
X163702000Y-106149582D01*
X163702000Y-105850418D01*
X163587515Y-105574026D01*
X163375974Y-105362485D01*
X163099582Y-105248000D01*
X162800418Y-105248000D01*
X162524026Y-105362485D01*
X162312485Y-105574026D01*
X162198000Y-105850418D01*
X158113071Y-105850418D01*
X158237515Y-105725974D01*
X158352000Y-105449582D01*
X158352000Y-105150418D01*
X158237515Y-104874026D01*
X158025974Y-104662485D01*
X157749582Y-104548000D01*
X157450418Y-104548000D01*
X157174026Y-104662485D01*
X156962485Y-104874026D01*
X156848000Y-105150418D01*
X151783172Y-105150418D01*
X151827000Y-105044609D01*
X151827000Y-104755391D01*
X151716321Y-104488187D01*
X151678134Y-104450000D01*
X151716321Y-104411813D01*
X151827000Y-104144609D01*
X151827000Y-103927000D01*
X151944609Y-103927000D01*
X152211813Y-103816321D01*
X152416321Y-103611813D01*
X152489352Y-103435499D01*
X166673000Y-103435499D01*
X166673000Y-103764501D01*
X166798903Y-104068458D01*
X167031542Y-104301097D01*
X167335499Y-104427000D01*
X167664501Y-104427000D01*
X167968458Y-104301097D01*
X168201097Y-104068458D01*
X168327000Y-103764501D01*
X168327000Y-103435499D01*
X168201097Y-103131542D01*
X167968458Y-102898903D01*
X167664501Y-102773000D01*
X167335499Y-102773000D01*
X167031542Y-102898903D01*
X166798903Y-103131542D01*
X166673000Y-103435499D01*
X152489352Y-103435499D01*
X152527000Y-103344609D01*
X152527000Y-103055391D01*
X152416321Y-102788187D01*
X152211813Y-102583679D01*
X152093473Y-102534661D01*
X152216321Y-102411813D01*
X152327000Y-102144609D01*
X152327000Y-101855391D01*
X152216321Y-101588187D01*
X152011813Y-101383679D01*
X151744609Y-101273000D01*
X151455391Y-101273000D01*
X151188187Y-101383679D01*
X150983679Y-101588187D01*
X150873000Y-101855391D01*
X150873000Y-102144609D01*
X150983679Y-102411813D01*
X151188187Y-102616321D01*
X151306527Y-102665339D01*
X151183679Y-102788187D01*
X151073000Y-103055391D01*
X151073000Y-103273000D01*
X150955391Y-103273000D01*
X150688187Y-103383679D01*
X150483679Y-103588187D01*
X150373000Y-103855391D01*
X150373000Y-104144609D01*
X150483679Y-104411813D01*
X150521866Y-104450000D01*
X150483679Y-104488187D01*
X150373000Y-104755391D01*
X150373000Y-105044609D01*
X150483679Y-105311813D01*
X150688187Y-105516321D01*
X150955391Y-105627000D01*
X151194662Y-105627000D01*
X151124506Y-105796372D01*
X151011813Y-105683679D01*
X150744609Y-105573000D01*
X150455391Y-105573000D01*
X150188187Y-105683679D01*
X149983679Y-105888187D01*
X149873000Y-106155391D01*
X146827000Y-106155391D01*
X146827000Y-106055391D01*
X146716321Y-105788187D01*
X146511813Y-105583679D01*
X146244609Y-105473000D01*
X146227000Y-105473000D01*
X146227000Y-105355391D01*
X146116321Y-105088187D01*
X145911813Y-104883679D01*
X145644609Y-104773000D01*
X145355391Y-104773000D01*
X145088187Y-104883679D01*
X144883679Y-105088187D01*
X144773000Y-105355391D01*
X141585579Y-105355391D01*
X141516321Y-105188187D01*
X141455134Y-105127000D01*
X141644609Y-105127000D01*
X141911813Y-105016321D01*
X142116321Y-104811813D01*
X142227000Y-104544609D01*
X142227000Y-104255391D01*
X142116321Y-103988187D01*
X141911813Y-103783679D01*
X141644609Y-103673000D01*
X141355391Y-103673000D01*
X141088187Y-103783679D01*
X140883679Y-103988187D01*
X140773000Y-104255391D01*
X140773000Y-104544609D01*
X140883679Y-104811813D01*
X140944866Y-104873000D01*
X140755391Y-104873000D01*
X140488187Y-104983679D01*
X140283679Y-105188187D01*
X140173000Y-105455391D01*
X140173000Y-105744609D01*
X140259748Y-105954038D01*
X140188187Y-105983679D01*
X139983679Y-106188187D01*
X139873000Y-106455391D01*
X139873000Y-106473000D01*
X139755391Y-106473000D01*
X139488187Y-106583679D01*
X139283679Y-106788187D01*
X139173000Y-107055391D01*
X125527000Y-107055391D01*
X125527000Y-106000230D01*
X125725657Y-106198887D01*
X126228087Y-106407000D01*
X126771913Y-106407000D01*
X127274343Y-106198887D01*
X127658887Y-105814343D01*
X127867000Y-105311913D01*
X127867000Y-104768087D01*
X127737478Y-104455391D01*
X133673000Y-104455391D01*
X133673000Y-104744609D01*
X133783679Y-105011813D01*
X133988187Y-105216321D01*
X134255391Y-105327000D01*
X134544609Y-105327000D01*
X134811813Y-105216321D01*
X135016321Y-105011813D01*
X135127000Y-104744609D01*
X135127000Y-104455391D01*
X135016321Y-104188187D01*
X134811813Y-103983679D01*
X134544609Y-103873000D01*
X134255391Y-103873000D01*
X133988187Y-103983679D01*
X133783679Y-104188187D01*
X133673000Y-104455391D01*
X127737478Y-104455391D01*
X127658887Y-104265657D01*
X127274343Y-103881113D01*
X127006092Y-103770000D01*
X127274343Y-103658887D01*
X127277839Y-103655391D01*
X135273000Y-103655391D01*
X135273000Y-103944609D01*
X135383679Y-104211813D01*
X135588187Y-104416321D01*
X135855391Y-104527000D01*
X136144609Y-104527000D01*
X136411813Y-104416321D01*
X136616321Y-104211813D01*
X136727000Y-103944609D01*
X136727000Y-103655391D01*
X136646218Y-103460364D01*
X143898000Y-103460364D01*
X143898000Y-103739636D01*
X144004873Y-103997651D01*
X144202349Y-104195127D01*
X144460364Y-104302000D01*
X144739636Y-104302000D01*
X144997651Y-104195127D01*
X145195127Y-103997651D01*
X145212631Y-103955391D01*
X146973000Y-103955391D01*
X146973000Y-104244609D01*
X147083679Y-104511813D01*
X147288187Y-104716321D01*
X147335816Y-104736050D01*
X147183679Y-104888187D01*
X147073000Y-105155391D01*
X147073000Y-105444609D01*
X147183679Y-105711813D01*
X147388187Y-105916321D01*
X147655391Y-106027000D01*
X147944609Y-106027000D01*
X148211813Y-105916321D01*
X148416321Y-105711813D01*
X148527000Y-105444609D01*
X148527000Y-105155391D01*
X148416321Y-104888187D01*
X148211813Y-104683679D01*
X148164184Y-104663950D01*
X148316321Y-104511813D01*
X148427000Y-104244609D01*
X148427000Y-103955391D01*
X148316321Y-103688187D01*
X148230134Y-103602000D01*
X148439636Y-103602000D01*
X148697651Y-103495127D01*
X148895127Y-103297651D01*
X149002000Y-103039636D01*
X149002000Y-102760364D01*
X148895127Y-102502349D01*
X148697651Y-102304873D01*
X148439636Y-102198000D01*
X148160364Y-102198000D01*
X147902349Y-102304873D01*
X147704873Y-102502349D01*
X147598000Y-102760364D01*
X147598000Y-103039636D01*
X147704873Y-103297651D01*
X147780222Y-103373000D01*
X147555391Y-103373000D01*
X147288187Y-103483679D01*
X147083679Y-103688187D01*
X146973000Y-103955391D01*
X145212631Y-103955391D01*
X145302000Y-103739636D01*
X145302000Y-103460364D01*
X145195127Y-103202349D01*
X144997651Y-103004873D01*
X144739636Y-102898000D01*
X144460364Y-102898000D01*
X144202349Y-103004873D01*
X144004873Y-103202349D01*
X143898000Y-103460364D01*
X136646218Y-103460364D01*
X136616321Y-103388187D01*
X136411813Y-103183679D01*
X136144609Y-103073000D01*
X135855391Y-103073000D01*
X135588187Y-103183679D01*
X135383679Y-103388187D01*
X135273000Y-103655391D01*
X127277839Y-103655391D01*
X127658887Y-103274343D01*
X127867000Y-102771913D01*
X127867000Y-102228087D01*
X127658887Y-101725657D01*
X127274343Y-101341113D01*
X127006006Y-101229964D01*
X127247760Y-101136216D01*
X127300525Y-101100958D01*
X127393659Y-100886186D01*
X126500000Y-99992527D01*
X126485858Y-100006669D01*
X126453331Y-99974142D01*
X126467473Y-99960000D01*
X126532527Y-99960000D01*
X127426186Y-100853659D01*
X127640958Y-100760525D01*
X127775566Y-100455391D01*
X129173000Y-100455391D01*
X129173000Y-100744609D01*
X129283679Y-101011813D01*
X129488187Y-101216321D01*
X129755391Y-101327000D01*
X130044609Y-101327000D01*
X130311813Y-101216321D01*
X130467770Y-101060364D01*
X148898000Y-101060364D01*
X148898000Y-101339636D01*
X149004873Y-101597651D01*
X149202349Y-101795127D01*
X149460364Y-101902000D01*
X149739636Y-101902000D01*
X149997651Y-101795127D01*
X150195127Y-101597651D01*
X150302000Y-101339636D01*
X150302000Y-101060364D01*
X150195127Y-100802349D01*
X149997651Y-100604873D01*
X149739636Y-100498000D01*
X149460364Y-100498000D01*
X149202349Y-100604873D01*
X149004873Y-100802349D01*
X148898000Y-101060364D01*
X130467770Y-101060364D01*
X130516321Y-101011813D01*
X130627000Y-100744609D01*
X130627000Y-100455391D01*
X130516321Y-100188187D01*
X130311813Y-99983679D01*
X130044609Y-99873000D01*
X129755391Y-99873000D01*
X129488187Y-99983679D01*
X129283679Y-100188187D01*
X129173000Y-100455391D01*
X127775566Y-100455391D01*
X127860456Y-100262963D01*
X127872837Y-99719278D01*
X127676216Y-99212240D01*
X127640958Y-99159475D01*
X127426186Y-99066341D01*
X126532527Y-99960000D01*
X126467473Y-99960000D01*
X126453331Y-99945858D01*
X126485858Y-99913331D01*
X126500000Y-99927473D01*
X127393659Y-99033814D01*
X127300525Y-98819042D01*
X126940831Y-98660364D01*
X143598000Y-98660364D01*
X143598000Y-98939636D01*
X143704873Y-99197651D01*
X143902349Y-99395127D01*
X144160364Y-99502000D01*
X144439636Y-99502000D01*
X144697651Y-99395127D01*
X144895127Y-99197651D01*
X145002000Y-98939636D01*
X145002000Y-98660364D01*
X144958519Y-98555391D01*
X149473000Y-98555391D01*
X149473000Y-98844609D01*
X149583679Y-99111813D01*
X149721866Y-99250000D01*
X149683679Y-99288187D01*
X149573000Y-99555391D01*
X149573000Y-99844609D01*
X149683679Y-100111813D01*
X149888187Y-100316321D01*
X150155391Y-100427000D01*
X150444609Y-100427000D01*
X150711813Y-100316321D01*
X150916321Y-100111813D01*
X151027000Y-99844609D01*
X151027000Y-99555391D01*
X151006925Y-99506925D01*
X151055391Y-99527000D01*
X151344609Y-99527000D01*
X151611813Y-99416321D01*
X151816321Y-99211813D01*
X151927000Y-98944609D01*
X151927000Y-98655391D01*
X151816321Y-98388187D01*
X151654952Y-98226818D01*
X151655391Y-98227000D01*
X151944609Y-98227000D01*
X152211813Y-98116321D01*
X152416321Y-97911813D01*
X152527000Y-97644609D01*
X152527000Y-97460364D01*
X154298000Y-97460364D01*
X154298000Y-97739636D01*
X154404873Y-97997651D01*
X154602349Y-98195127D01*
X154860364Y-98302000D01*
X155139636Y-98302000D01*
X155397651Y-98195127D01*
X155595127Y-97997651D01*
X155702000Y-97739636D01*
X155702000Y-97460364D01*
X155595127Y-97202349D01*
X155448169Y-97055391D01*
X166223000Y-97055391D01*
X166223000Y-97344609D01*
X166333679Y-97611813D01*
X166538187Y-97816321D01*
X166805391Y-97927000D01*
X167094609Y-97927000D01*
X167361813Y-97816321D01*
X167566321Y-97611813D01*
X167641330Y-97430722D01*
X172127163Y-97430722D01*
X172323784Y-97937760D01*
X172359042Y-97990525D01*
X172573814Y-98083659D01*
X173467473Y-97190000D01*
X172573814Y-96296341D01*
X172359042Y-96389475D01*
X172139544Y-96887037D01*
X172127163Y-97430722D01*
X167641330Y-97430722D01*
X167677000Y-97344609D01*
X167677000Y-97055391D01*
X167566321Y-96788187D01*
X167361813Y-96583679D01*
X167094609Y-96473000D01*
X166805391Y-96473000D01*
X166538187Y-96583679D01*
X166333679Y-96788187D01*
X166223000Y-97055391D01*
X155448169Y-97055391D01*
X155397651Y-97004873D01*
X155139636Y-96898000D01*
X154860364Y-96898000D01*
X154602349Y-97004873D01*
X154404873Y-97202349D01*
X154298000Y-97460364D01*
X152527000Y-97460364D01*
X152527000Y-97355391D01*
X152416321Y-97088187D01*
X152211813Y-96883679D01*
X151944609Y-96773000D01*
X151655391Y-96773000D01*
X151388187Y-96883679D01*
X151300000Y-96971866D01*
X151211813Y-96883679D01*
X150944609Y-96773000D01*
X150655391Y-96773000D01*
X150388187Y-96883679D01*
X150183679Y-97088187D01*
X150073000Y-97355391D01*
X150073000Y-97644609D01*
X150183679Y-97911813D01*
X150244866Y-97973000D01*
X150055391Y-97973000D01*
X149788187Y-98083679D01*
X149583679Y-98288187D01*
X149473000Y-98555391D01*
X144958519Y-98555391D01*
X144895127Y-98402349D01*
X144697651Y-98204873D01*
X144439636Y-98098000D01*
X144160364Y-98098000D01*
X143902349Y-98204873D01*
X143704873Y-98402349D01*
X143598000Y-98660364D01*
X126940831Y-98660364D01*
X126802963Y-98599544D01*
X126259278Y-98587163D01*
X125752240Y-98783784D01*
X125699475Y-98819042D01*
X125606342Y-99033812D01*
X125532472Y-98959942D01*
X125527000Y-98965414D01*
X125527000Y-96335499D01*
X142373000Y-96335499D01*
X142373000Y-96664501D01*
X142498903Y-96968458D01*
X142731542Y-97201097D01*
X143035499Y-97327000D01*
X143364501Y-97327000D01*
X143668458Y-97201097D01*
X143901097Y-96968458D01*
X144027000Y-96664501D01*
X144027000Y-96360364D01*
X152898000Y-96360364D01*
X152898000Y-96639636D01*
X153004873Y-96897651D01*
X153202349Y-97095127D01*
X153460364Y-97202000D01*
X153739636Y-97202000D01*
X153997651Y-97095127D01*
X154195127Y-96897651D01*
X154302000Y-96639636D01*
X154302000Y-96360364D01*
X154195127Y-96102349D01*
X154048402Y-95955624D01*
X154160364Y-96002000D01*
X154439636Y-96002000D01*
X154697651Y-95895127D01*
X154895127Y-95697651D01*
X155002000Y-95439636D01*
X155002000Y-95160364D01*
X154917098Y-94955391D01*
X158673000Y-94955391D01*
X158673000Y-95244609D01*
X158783679Y-95511813D01*
X158988187Y-95716321D01*
X159255391Y-95827000D01*
X159544609Y-95827000D01*
X159811813Y-95716321D01*
X160016321Y-95511813D01*
X160127000Y-95244609D01*
X160127000Y-94955391D01*
X160016321Y-94688187D01*
X159811813Y-94483679D01*
X159544609Y-94373000D01*
X159255391Y-94373000D01*
X158988187Y-94483679D01*
X158783679Y-94688187D01*
X158673000Y-94955391D01*
X154917098Y-94955391D01*
X154895127Y-94902349D01*
X154697651Y-94704873D01*
X154449293Y-94602000D01*
X154639636Y-94602000D01*
X154897651Y-94495127D01*
X155095127Y-94297651D01*
X155202000Y-94039636D01*
X155202000Y-93760364D01*
X155152510Y-93640885D01*
X155211813Y-93616321D01*
X155416321Y-93411813D01*
X155527000Y-93144609D01*
X155527000Y-92855391D01*
X155416321Y-92588187D01*
X155211813Y-92383679D01*
X154944609Y-92273000D01*
X154655391Y-92273000D01*
X154388187Y-92383679D01*
X154183679Y-92588187D01*
X154073000Y-92855391D01*
X154073000Y-93144609D01*
X154133960Y-93291779D01*
X154102349Y-93304873D01*
X153904873Y-93502349D01*
X153798000Y-93760364D01*
X153798000Y-94039636D01*
X153904873Y-94297651D01*
X154102349Y-94495127D01*
X154350707Y-94598000D01*
X154160364Y-94598000D01*
X153902349Y-94704873D01*
X153704873Y-94902349D01*
X153598000Y-95160364D01*
X153598000Y-95439636D01*
X153704873Y-95697651D01*
X153851598Y-95844376D01*
X153739636Y-95798000D01*
X153460364Y-95798000D01*
X153202349Y-95904873D01*
X153004873Y-96102349D01*
X152898000Y-96360364D01*
X144027000Y-96360364D01*
X144027000Y-96335499D01*
X143901097Y-96031542D01*
X143668458Y-95798903D01*
X143364501Y-95673000D01*
X143035499Y-95673000D01*
X142731542Y-95798903D01*
X142498903Y-96031542D01*
X142373000Y-96335499D01*
X125527000Y-96335499D01*
X125527000Y-95155391D01*
X141073000Y-95155391D01*
X141073000Y-95444609D01*
X141183679Y-95711813D01*
X141388187Y-95916321D01*
X141655391Y-96027000D01*
X141944609Y-96027000D01*
X142211813Y-95916321D01*
X142416321Y-95711813D01*
X142527000Y-95444609D01*
X142527000Y-95155391D01*
X142416321Y-94888187D01*
X142211813Y-94683679D01*
X141944609Y-94573000D01*
X141655391Y-94573000D01*
X141388187Y-94683679D01*
X141183679Y-94888187D01*
X141073000Y-95155391D01*
X125527000Y-95155391D01*
X125527000Y-93955391D01*
X142073000Y-93955391D01*
X142073000Y-94244609D01*
X142183679Y-94511813D01*
X142388187Y-94716321D01*
X142655391Y-94827000D01*
X142944609Y-94827000D01*
X143211813Y-94716321D01*
X143416321Y-94511813D01*
X143439691Y-94455391D01*
X151473000Y-94455391D01*
X151473000Y-94744609D01*
X151583679Y-95011813D01*
X151788187Y-95216321D01*
X152055391Y-95327000D01*
X152344609Y-95327000D01*
X152611813Y-95216321D01*
X152816321Y-95011813D01*
X152927000Y-94744609D01*
X152927000Y-94455391D01*
X152816321Y-94188187D01*
X152611813Y-93983679D01*
X152344609Y-93873000D01*
X152055391Y-93873000D01*
X151788187Y-93983679D01*
X151583679Y-94188187D01*
X151473000Y-94455391D01*
X143439691Y-94455391D01*
X143527000Y-94244609D01*
X143527000Y-93955391D01*
X143416321Y-93688187D01*
X143211813Y-93483679D01*
X142944609Y-93373000D01*
X142655391Y-93373000D01*
X142388187Y-93483679D01*
X142183679Y-93688187D01*
X142073000Y-93955391D01*
X125527000Y-93955391D01*
X125527000Y-92264586D01*
X125532472Y-92270058D01*
X125606342Y-92196188D01*
X125699475Y-92410958D01*
X126197037Y-92630456D01*
X126740722Y-92642837D01*
X127247760Y-92446216D01*
X127300525Y-92410958D01*
X127324621Y-92355391D01*
X138773000Y-92355391D01*
X138773000Y-92644609D01*
X138883679Y-92911813D01*
X139088187Y-93116321D01*
X139355391Y-93227000D01*
X139644609Y-93227000D01*
X139911813Y-93116321D01*
X140072743Y-92955391D01*
X146573000Y-92955391D01*
X146573000Y-93244609D01*
X146683679Y-93511813D01*
X146888187Y-93716321D01*
X147155391Y-93827000D01*
X147444609Y-93827000D01*
X147700000Y-93721214D01*
X147955391Y-93827000D01*
X148244609Y-93827000D01*
X148511813Y-93716321D01*
X148550000Y-93678134D01*
X148588187Y-93716321D01*
X148855391Y-93827000D01*
X149007127Y-93827000D01*
X149083679Y-94011813D01*
X149288187Y-94216321D01*
X149555391Y-94327000D01*
X149844609Y-94327000D01*
X150111813Y-94216321D01*
X150316321Y-94011813D01*
X150427000Y-93744609D01*
X150427000Y-93455391D01*
X150316321Y-93188187D01*
X150111813Y-92983679D01*
X149844609Y-92873000D01*
X149692873Y-92873000D01*
X149616321Y-92688187D01*
X149411813Y-92483679D01*
X149144609Y-92373000D01*
X148855391Y-92373000D01*
X148588187Y-92483679D01*
X148550000Y-92521866D01*
X148511813Y-92483679D01*
X148244609Y-92373000D01*
X147955391Y-92373000D01*
X147700000Y-92478786D01*
X147444609Y-92373000D01*
X147155391Y-92373000D01*
X146888187Y-92483679D01*
X146683679Y-92688187D01*
X146573000Y-92955391D01*
X140072743Y-92955391D01*
X140116321Y-92911813D01*
X140227000Y-92644609D01*
X140227000Y-92355391D01*
X140144158Y-92155391D01*
X150573000Y-92155391D01*
X150573000Y-92444609D01*
X150683679Y-92711813D01*
X150888187Y-92916321D01*
X151155391Y-93027000D01*
X151444609Y-93027000D01*
X151711813Y-92916321D01*
X151772743Y-92855391D01*
X152273000Y-92855391D01*
X152273000Y-93144609D01*
X152383679Y-93411813D01*
X152588187Y-93616321D01*
X152855391Y-93727000D01*
X153144609Y-93727000D01*
X153411813Y-93616321D01*
X153616321Y-93411813D01*
X153727000Y-93144609D01*
X153727000Y-92855391D01*
X153616321Y-92588187D01*
X153411813Y-92383679D01*
X153144609Y-92273000D01*
X152855391Y-92273000D01*
X152588187Y-92383679D01*
X152383679Y-92588187D01*
X152273000Y-92855391D01*
X151772743Y-92855391D01*
X151916321Y-92711813D01*
X152027000Y-92444609D01*
X152027000Y-92155391D01*
X151916321Y-91888187D01*
X151711813Y-91683679D01*
X151655526Y-91660364D01*
X163698000Y-91660364D01*
X163698000Y-91939636D01*
X163804873Y-92197651D01*
X164002349Y-92395127D01*
X164260364Y-92502000D01*
X164539636Y-92502000D01*
X164797651Y-92395127D01*
X164995127Y-92197651D01*
X165102000Y-91939636D01*
X165102000Y-91660364D01*
X164995127Y-91402349D01*
X164848169Y-91255391D01*
X165073000Y-91255391D01*
X165073000Y-91544609D01*
X165183679Y-91811813D01*
X165388187Y-92016321D01*
X165655391Y-92127000D01*
X165944609Y-92127000D01*
X166211813Y-92016321D01*
X166416321Y-91811813D01*
X166527000Y-91544609D01*
X166527000Y-91255391D01*
X166416321Y-90988187D01*
X166211813Y-90783679D01*
X165944609Y-90673000D01*
X165655391Y-90673000D01*
X165388187Y-90783679D01*
X165183679Y-90988187D01*
X165073000Y-91255391D01*
X164848169Y-91255391D01*
X164797651Y-91204873D01*
X164539636Y-91098000D01*
X164260364Y-91098000D01*
X164002349Y-91204873D01*
X163804873Y-91402349D01*
X163698000Y-91660364D01*
X151655526Y-91660364D01*
X151444609Y-91573000D01*
X151155391Y-91573000D01*
X150888187Y-91683679D01*
X150683679Y-91888187D01*
X150573000Y-92155391D01*
X140144158Y-92155391D01*
X140116321Y-92088187D01*
X139911813Y-91883679D01*
X139644609Y-91773000D01*
X139355391Y-91773000D01*
X139088187Y-91883679D01*
X138883679Y-92088187D01*
X138773000Y-92355391D01*
X127324621Y-92355391D01*
X127393659Y-92196186D01*
X126500000Y-91302527D01*
X126485858Y-91316669D01*
X126453331Y-91284142D01*
X126467473Y-91270000D01*
X126532527Y-91270000D01*
X127426186Y-92163659D01*
X127640958Y-92070525D01*
X127860456Y-91572963D01*
X127872837Y-91029278D01*
X127676216Y-90522240D01*
X127640958Y-90469475D01*
X127426186Y-90376341D01*
X126532527Y-91270000D01*
X126467473Y-91270000D01*
X126453331Y-91255858D01*
X126485858Y-91223331D01*
X126500000Y-91237473D01*
X127393659Y-90343814D01*
X127300525Y-90129042D01*
X127007081Y-89999590D01*
X127274343Y-89888887D01*
X127658887Y-89504343D01*
X127867000Y-89001913D01*
X127867000Y-88458087D01*
X127774802Y-88235499D01*
X130873000Y-88235499D01*
X130873000Y-88564501D01*
X130998903Y-88868458D01*
X131231542Y-89101097D01*
X131535499Y-89227000D01*
X131864501Y-89227000D01*
X132168458Y-89101097D01*
X132234056Y-89035499D01*
X137473000Y-89035499D01*
X137473000Y-89364501D01*
X137598903Y-89668458D01*
X137831542Y-89901097D01*
X138135499Y-90027000D01*
X138464501Y-90027000D01*
X138768458Y-89901097D01*
X139001097Y-89668458D01*
X139127000Y-89364501D01*
X139127000Y-89255391D01*
X139273000Y-89255391D01*
X139273000Y-89544609D01*
X139383679Y-89811813D01*
X139588187Y-90016321D01*
X139855391Y-90127000D01*
X140144609Y-90127000D01*
X140411813Y-90016321D01*
X140616321Y-89811813D01*
X140727000Y-89544609D01*
X140727000Y-89255391D01*
X140724941Y-89250418D01*
X141448000Y-89250418D01*
X141448000Y-89549582D01*
X141562485Y-89825974D01*
X141774026Y-90037515D01*
X142050418Y-90152000D01*
X142349582Y-90152000D01*
X142625974Y-90037515D01*
X142837515Y-89825974D01*
X142952000Y-89549582D01*
X142952000Y-89355391D01*
X144773000Y-89355391D01*
X144773000Y-89644609D01*
X144883679Y-89911813D01*
X145088187Y-90116321D01*
X145355391Y-90227000D01*
X145644609Y-90227000D01*
X145911813Y-90116321D01*
X146050000Y-89978134D01*
X146188187Y-90116321D01*
X146455391Y-90227000D01*
X146744609Y-90227000D01*
X147011813Y-90116321D01*
X147150000Y-89978134D01*
X147288187Y-90116321D01*
X147555391Y-90227000D01*
X147844609Y-90227000D01*
X148111813Y-90116321D01*
X148316321Y-89911813D01*
X148427000Y-89644609D01*
X148427000Y-89355391D01*
X148316321Y-89088187D01*
X148278552Y-89050418D01*
X154048000Y-89050418D01*
X154048000Y-89349582D01*
X154162485Y-89625974D01*
X154374026Y-89837515D01*
X154650418Y-89952000D01*
X154949582Y-89952000D01*
X155225974Y-89837515D01*
X155437515Y-89625974D01*
X155552000Y-89349582D01*
X155552000Y-89050418D01*
X157748000Y-89050418D01*
X157748000Y-89349582D01*
X157862485Y-89625974D01*
X158074026Y-89837515D01*
X158350418Y-89952000D01*
X158649582Y-89952000D01*
X158925974Y-89837515D01*
X159137515Y-89625974D01*
X159187461Y-89505391D01*
X164323000Y-89505391D01*
X164323000Y-89794609D01*
X164433679Y-90061813D01*
X164638187Y-90266321D01*
X164905391Y-90377000D01*
X165194609Y-90377000D01*
X165461813Y-90266321D01*
X165666321Y-90061813D01*
X165777000Y-89794609D01*
X165777000Y-89505391D01*
X165666321Y-89238187D01*
X165461813Y-89033679D01*
X165194609Y-88923000D01*
X164905391Y-88923000D01*
X164638187Y-89033679D01*
X164433679Y-89238187D01*
X164323000Y-89505391D01*
X159187461Y-89505391D01*
X159252000Y-89349582D01*
X159252000Y-89050418D01*
X159137515Y-88774026D01*
X159118880Y-88755391D01*
X169073000Y-88755391D01*
X169073000Y-89044609D01*
X169183679Y-89311813D01*
X169388187Y-89516321D01*
X169655391Y-89627000D01*
X169944609Y-89627000D01*
X170211813Y-89516321D01*
X170416321Y-89311813D01*
X170527000Y-89044609D01*
X170527000Y-88755391D01*
X170416321Y-88488187D01*
X170211813Y-88283679D01*
X169944609Y-88173000D01*
X169655391Y-88173000D01*
X169388187Y-88283679D01*
X169183679Y-88488187D01*
X169073000Y-88755391D01*
X159118880Y-88755391D01*
X158925974Y-88562485D01*
X158649582Y-88448000D01*
X158350418Y-88448000D01*
X158074026Y-88562485D01*
X157862485Y-88774026D01*
X157748000Y-89050418D01*
X155552000Y-89050418D01*
X155437515Y-88774026D01*
X155225974Y-88562485D01*
X154949582Y-88448000D01*
X154650418Y-88448000D01*
X154374026Y-88562485D01*
X154162485Y-88774026D01*
X154048000Y-89050418D01*
X148278552Y-89050418D01*
X148111813Y-88883679D01*
X147844609Y-88773000D01*
X147555391Y-88773000D01*
X147288187Y-88883679D01*
X147150000Y-89021866D01*
X147011813Y-88883679D01*
X146744609Y-88773000D01*
X146455391Y-88773000D01*
X146188187Y-88883679D01*
X146050000Y-89021866D01*
X145911813Y-88883679D01*
X145644609Y-88773000D01*
X145355391Y-88773000D01*
X145088187Y-88883679D01*
X144883679Y-89088187D01*
X144773000Y-89355391D01*
X142952000Y-89355391D01*
X142952000Y-89250418D01*
X142837515Y-88974026D01*
X142625974Y-88762485D01*
X142349582Y-88648000D01*
X142050418Y-88648000D01*
X141774026Y-88762485D01*
X141562485Y-88974026D01*
X141448000Y-89250418D01*
X140724941Y-89250418D01*
X140616321Y-88988187D01*
X140411813Y-88783679D01*
X140144609Y-88673000D01*
X139855391Y-88673000D01*
X139588187Y-88783679D01*
X139383679Y-88988187D01*
X139273000Y-89255391D01*
X139127000Y-89255391D01*
X139127000Y-89035499D01*
X139001097Y-88731542D01*
X138768458Y-88498903D01*
X138464501Y-88373000D01*
X138135499Y-88373000D01*
X137831542Y-88498903D01*
X137598903Y-88731542D01*
X137473000Y-89035499D01*
X132234056Y-89035499D01*
X132401097Y-88868458D01*
X132527000Y-88564501D01*
X132527000Y-88235499D01*
X132401097Y-87931542D01*
X132224946Y-87755391D01*
X134473000Y-87755391D01*
X134473000Y-88044609D01*
X134583679Y-88311813D01*
X134788187Y-88516321D01*
X135055391Y-88627000D01*
X135344609Y-88627000D01*
X135611813Y-88516321D01*
X135816321Y-88311813D01*
X135927000Y-88044609D01*
X135927000Y-87755391D01*
X135816321Y-87488187D01*
X135611813Y-87283679D01*
X135344609Y-87173000D01*
X135055391Y-87173000D01*
X134788187Y-87283679D01*
X134583679Y-87488187D01*
X134473000Y-87755391D01*
X132224946Y-87755391D01*
X132168458Y-87698903D01*
X131864501Y-87573000D01*
X131535499Y-87573000D01*
X131231542Y-87698903D01*
X130998903Y-87931542D01*
X130873000Y-88235499D01*
X127774802Y-88235499D01*
X127658887Y-87955657D01*
X127274343Y-87571113D01*
X126771913Y-87363000D01*
X126228087Y-87363000D01*
X125725657Y-87571113D01*
X125527000Y-87769770D01*
X125527000Y-85950418D01*
X151248000Y-85950418D01*
X151248000Y-86249582D01*
X151362485Y-86525974D01*
X151574026Y-86737515D01*
X151850418Y-86852000D01*
X152149582Y-86852000D01*
X152425974Y-86737515D01*
X152637515Y-86525974D01*
X152752000Y-86249582D01*
X152752000Y-85950418D01*
X152637515Y-85674026D01*
X152425974Y-85462485D01*
X152149582Y-85348000D01*
X151850418Y-85348000D01*
X151574026Y-85462485D01*
X151362485Y-85674026D01*
X151248000Y-85950418D01*
X125527000Y-85950418D01*
X125527000Y-84850418D01*
X152548000Y-84850418D01*
X152548000Y-85149582D01*
X152662485Y-85425974D01*
X152874026Y-85637515D01*
X153150418Y-85752000D01*
X153449582Y-85752000D01*
X153725974Y-85637515D01*
X153937515Y-85425974D01*
X154052000Y-85149582D01*
X154052000Y-84955391D01*
X169073000Y-84955391D01*
X169073000Y-85244609D01*
X169183679Y-85511813D01*
X169388187Y-85716321D01*
X169655391Y-85827000D01*
X169944609Y-85827000D01*
X170211813Y-85716321D01*
X170416321Y-85511813D01*
X170527000Y-85244609D01*
X170527000Y-84955391D01*
X170416321Y-84688187D01*
X170211813Y-84483679D01*
X169944609Y-84373000D01*
X169655391Y-84373000D01*
X169388187Y-84483679D01*
X169183679Y-84688187D01*
X169073000Y-84955391D01*
X154052000Y-84955391D01*
X154052000Y-84850418D01*
X153937515Y-84574026D01*
X153725974Y-84362485D01*
X153449582Y-84248000D01*
X153150418Y-84248000D01*
X152874026Y-84362485D01*
X152662485Y-84574026D01*
X152548000Y-84850418D01*
X125527000Y-84850418D01*
X125527000Y-82735499D01*
X139773000Y-82735499D01*
X139773000Y-83064501D01*
X139898903Y-83368458D01*
X140131542Y-83601097D01*
X140435499Y-83727000D01*
X140764501Y-83727000D01*
X141068458Y-83601097D01*
X141301097Y-83368458D01*
X141427000Y-83064501D01*
X141427000Y-82735499D01*
X141301097Y-82431542D01*
X141124946Y-82255391D01*
X161148000Y-82255391D01*
X161148000Y-82544609D01*
X161258679Y-82811813D01*
X161463187Y-83016321D01*
X161730391Y-83127000D01*
X162019609Y-83127000D01*
X162286813Y-83016321D01*
X162491321Y-82811813D01*
X162602000Y-82544609D01*
X162602000Y-82255391D01*
X162491321Y-81988187D01*
X162286813Y-81783679D01*
X162019609Y-81673000D01*
X161730391Y-81673000D01*
X161463187Y-81783679D01*
X161258679Y-81988187D01*
X161148000Y-82255391D01*
X141124946Y-82255391D01*
X141068458Y-82198903D01*
X140764501Y-82073000D01*
X140435499Y-82073000D01*
X140131542Y-82198903D01*
X139898903Y-82431542D01*
X139773000Y-82735499D01*
X125527000Y-82735499D01*
X125527000Y-80215608D01*
X137123000Y-80215608D01*
X137123000Y-80584392D01*
X137264127Y-80925103D01*
X137524897Y-81185873D01*
X137865608Y-81327000D01*
X138234392Y-81327000D01*
X138575103Y-81185873D01*
X138835873Y-80925103D01*
X138977000Y-80584392D01*
X138977000Y-80215608D01*
X138835873Y-79874897D01*
X138796475Y-79835499D01*
X142573000Y-79835499D01*
X142573000Y-80164501D01*
X142698903Y-80468458D01*
X142931542Y-80701097D01*
X143235499Y-80827000D01*
X143564501Y-80827000D01*
X143868458Y-80701097D01*
X144101097Y-80468458D01*
X144205830Y-80215608D01*
X145123000Y-80215608D01*
X145123000Y-80584392D01*
X145264127Y-80925103D01*
X145524897Y-81185873D01*
X145865608Y-81327000D01*
X146234392Y-81327000D01*
X146575103Y-81185873D01*
X146835873Y-80925103D01*
X146977000Y-80584392D01*
X146977000Y-80215608D01*
X146835873Y-79874897D01*
X146575103Y-79614127D01*
X146234392Y-79473000D01*
X145865608Y-79473000D01*
X145524897Y-79614127D01*
X145264127Y-79874897D01*
X145123000Y-80215608D01*
X144205830Y-80215608D01*
X144227000Y-80164501D01*
X144227000Y-79835499D01*
X144101097Y-79531542D01*
X143868458Y-79298903D01*
X143564501Y-79173000D01*
X143235499Y-79173000D01*
X142931542Y-79298903D01*
X142698903Y-79531542D01*
X142573000Y-79835499D01*
X138796475Y-79835499D01*
X138575103Y-79614127D01*
X138234392Y-79473000D01*
X137865608Y-79473000D01*
X137524897Y-79614127D01*
X137264127Y-79874897D01*
X137123000Y-80215608D01*
X125527000Y-80215608D01*
X125527000Y-77948097D01*
X125517197Y-77898816D01*
X125523000Y-77849046D01*
X125523000Y-77893250D01*
X125823980Y-78619881D01*
X126380119Y-79176020D01*
X127106750Y-79477000D01*
X127893250Y-79477000D01*
X128619881Y-79176020D01*
X129176020Y-78619881D01*
X129477000Y-77893250D01*
X129477000Y-77106750D01*
X129176020Y-76380119D01*
X128619881Y-75823980D01*
X127893250Y-75523000D01*
X127787060Y-75523000D01*
X127884340Y-75514318D01*
X127948097Y-75527000D01*
X127948097Y-75527000D01*
G37*
X127948097Y-75527000D02*
X172051903Y-75527000D01*
X172101184Y-75517197D01*
X172150954Y-75523000D01*
X172106750Y-75523000D01*
X171380119Y-75823980D01*
X170823980Y-76380119D01*
X170523000Y-77106750D01*
X170523000Y-77893250D01*
X170823980Y-78619881D01*
X171380119Y-79176020D01*
X172106750Y-79477000D01*
X172893250Y-79477000D01*
X173619881Y-79176020D01*
X174176020Y-78619881D01*
X174477000Y-77893250D01*
X174477000Y-77787060D01*
X174485682Y-77884343D01*
X174473001Y-77948097D01*
X174473001Y-96195415D01*
X174467528Y-96189942D01*
X174393658Y-96263812D01*
X174300525Y-96049042D01*
X173802963Y-95829544D01*
X173259278Y-95817163D01*
X172752240Y-96013784D01*
X172699475Y-96049042D01*
X172606341Y-96263814D01*
X173500000Y-97157473D01*
X173514142Y-97143331D01*
X173546669Y-97175858D01*
X173532527Y-97190000D01*
X173546669Y-97204142D01*
X173514142Y-97236669D01*
X173500000Y-97222527D01*
X172606341Y-98116186D01*
X172699475Y-98330958D01*
X172992919Y-98460410D01*
X172725657Y-98571113D01*
X172341113Y-98955657D01*
X172133000Y-99458087D01*
X172133000Y-100001913D01*
X172341113Y-100504343D01*
X172725657Y-100888887D01*
X172993908Y-101000000D01*
X172725657Y-101111113D01*
X172341113Y-101495657D01*
X172133000Y-101998087D01*
X172133000Y-102541913D01*
X172341113Y-103044343D01*
X172725657Y-103428887D01*
X172993908Y-103540000D01*
X172725657Y-103651113D01*
X172341113Y-104035657D01*
X172133000Y-104538087D01*
X172133000Y-105081913D01*
X172341113Y-105584343D01*
X172725657Y-105968887D01*
X173228087Y-106177000D01*
X173771913Y-106177000D01*
X174274343Y-105968887D01*
X174473000Y-105770230D01*
X174473000Y-122051902D01*
X174482803Y-122101183D01*
X174477000Y-122150953D01*
X174477000Y-122106750D01*
X174176020Y-121380119D01*
X173619881Y-120823980D01*
X172893250Y-120523000D01*
X172106750Y-120523000D01*
X171380119Y-120823980D01*
X170823980Y-121380119D01*
X170523000Y-122106750D01*
X170523000Y-122893250D01*
X170823980Y-123619881D01*
X171380119Y-124176020D01*
X172106750Y-124477000D01*
X172212941Y-124477000D01*
X172115660Y-124485682D01*
X172051903Y-124473000D01*
X168270230Y-124473000D01*
X168468887Y-124274343D01*
X168677000Y-123771913D01*
X168677000Y-123228087D01*
X168468887Y-122725657D01*
X168084343Y-122341113D01*
X167581913Y-122133000D01*
X167038087Y-122133000D01*
X166535657Y-122341113D01*
X166151113Y-122725657D01*
X166040000Y-122993908D01*
X165928887Y-122725657D01*
X165544343Y-122341113D01*
X165041913Y-122133000D01*
X164498087Y-122133000D01*
X163995657Y-122341113D01*
X163611113Y-122725657D01*
X163500000Y-122993908D01*
X163388887Y-122725657D01*
X163004343Y-122341113D01*
X162501913Y-122133000D01*
X161958087Y-122133000D01*
X161455657Y-122341113D01*
X161071113Y-122725657D01*
X160959964Y-122993994D01*
X160866216Y-122752240D01*
X160830958Y-122699475D01*
X160616186Y-122606341D01*
X159722527Y-123500000D01*
X159736669Y-123514142D01*
X159704142Y-123546669D01*
X159690000Y-123532527D01*
X159675858Y-123546669D01*
X159643331Y-123514142D01*
X159657473Y-123500000D01*
X158763814Y-122606341D01*
X158549042Y-122699475D01*
X158329544Y-123197037D01*
X158317163Y-123740722D01*
X158513784Y-124247760D01*
X158549042Y-124300525D01*
X158763812Y-124393658D01*
X158689942Y-124467528D01*
X158695414Y-124473000D01*
X157424586Y-124473000D01*
X157430058Y-124467528D01*
X157356188Y-124393658D01*
X157570958Y-124300525D01*
X157790456Y-123802963D01*
X157802837Y-123259278D01*
X157606216Y-122752240D01*
X157570958Y-122699475D01*
X157356186Y-122606341D01*
X156462527Y-123500000D01*
X156476669Y-123514142D01*
X156444142Y-123546669D01*
X156430000Y-123532527D01*
X156415858Y-123546669D01*
X156383331Y-123514142D01*
X156397473Y-123500000D01*
X155503814Y-122606341D01*
X155289042Y-122699475D01*
X155159567Y-122992971D01*
X155066216Y-122752240D01*
X155030958Y-122699475D01*
X154816186Y-122606341D01*
X153922527Y-123500000D01*
X153936669Y-123514142D01*
X153904142Y-123546669D01*
X153890000Y-123532527D01*
X153875858Y-123546669D01*
X153843331Y-123514142D01*
X153857473Y-123500000D01*
X152963814Y-122606341D01*
X152749042Y-122699475D01*
X152619567Y-122992971D01*
X152526216Y-122752240D01*
X152490958Y-122699475D01*
X152276186Y-122606341D01*
X151382527Y-123500000D01*
X151396669Y-123514142D01*
X151364142Y-123546669D01*
X151350000Y-123532527D01*
X151335858Y-123546669D01*
X151303331Y-123514142D01*
X151317473Y-123500000D01*
X150423814Y-122606341D01*
X150209042Y-122699475D01*
X150079567Y-122992971D01*
X149986216Y-122752240D01*
X149950958Y-122699475D01*
X149736186Y-122606341D01*
X148842527Y-123500000D01*
X148856669Y-123514142D01*
X148824142Y-123546669D01*
X148810000Y-123532527D01*
X148795858Y-123546669D01*
X148763331Y-123514142D01*
X148777473Y-123500000D01*
X147883814Y-122606341D01*
X147669042Y-122699475D01*
X147539567Y-122992971D01*
X147446216Y-122752240D01*
X147410958Y-122699475D01*
X147196186Y-122606341D01*
X146302527Y-123500000D01*
X146316669Y-123514142D01*
X146284142Y-123546669D01*
X146270000Y-123532527D01*
X146255858Y-123546669D01*
X146223331Y-123514142D01*
X146237473Y-123500000D01*
X145343814Y-122606341D01*
X145129042Y-122699475D01*
X144999567Y-122992971D01*
X144906216Y-122752240D01*
X144870958Y-122699475D01*
X144656186Y-122606341D01*
X143762527Y-123500000D01*
X143776669Y-123514142D01*
X143744142Y-123546669D01*
X143730000Y-123532527D01*
X143715858Y-123546669D01*
X143683331Y-123514142D01*
X143697473Y-123500000D01*
X142803814Y-122606341D01*
X142589042Y-122699475D01*
X142459567Y-122992971D01*
X142366216Y-122752240D01*
X142330958Y-122699475D01*
X142116186Y-122606341D01*
X141222527Y-123500000D01*
X141236669Y-123514142D01*
X141204142Y-123546669D01*
X141190000Y-123532527D01*
X141175858Y-123546669D01*
X141143331Y-123514142D01*
X141157473Y-123500000D01*
X140263814Y-122606341D01*
X140049042Y-122699475D01*
X139919567Y-122992971D01*
X139826216Y-122752240D01*
X139790958Y-122699475D01*
X139576186Y-122606341D01*
X138682527Y-123500000D01*
X138696669Y-123514142D01*
X138664142Y-123546669D01*
X138650000Y-123532527D01*
X138635858Y-123546669D01*
X138603331Y-123514142D01*
X138617473Y-123500000D01*
X137723814Y-122606341D01*
X137509042Y-122699475D01*
X137379567Y-122992971D01*
X137286216Y-122752240D01*
X137250958Y-122699475D01*
X137036186Y-122606341D01*
X136142527Y-123500000D01*
X136156669Y-123514142D01*
X136124142Y-123546669D01*
X136110000Y-123532527D01*
X136095858Y-123546669D01*
X136063331Y-123514142D01*
X136077473Y-123500000D01*
X135183814Y-122606341D01*
X134969042Y-122699475D01*
X134839567Y-122992971D01*
X134746216Y-122752240D01*
X134710958Y-122699475D01*
X134496186Y-122606341D01*
X133602527Y-123500000D01*
X133616669Y-123514142D01*
X133584142Y-123546669D01*
X133570000Y-123532527D01*
X133555858Y-123546669D01*
X133523331Y-123514142D01*
X133537473Y-123500000D01*
X132643814Y-122606341D01*
X132429042Y-122699475D01*
X132209544Y-123197037D01*
X132197163Y-123740722D01*
X132393784Y-124247760D01*
X132429042Y-124300525D01*
X132643812Y-124393658D01*
X132569942Y-124467528D01*
X132575414Y-124473000D01*
X127948097Y-124473000D01*
X127898816Y-124482803D01*
X127849047Y-124477000D01*
X127893250Y-124477000D01*
X128619881Y-124176020D01*
X129176020Y-123619881D01*
X129477000Y-122893250D01*
X129477000Y-122106750D01*
X129176020Y-121380119D01*
X128619881Y-120823980D01*
X127893250Y-120523000D01*
X127106750Y-120523000D01*
X126380119Y-120823980D01*
X125823980Y-121380119D01*
X125523000Y-122106750D01*
X125523000Y-122212941D01*
X125514318Y-122115660D01*
X125527000Y-122051903D01*
X125527000Y-118055391D01*
X127473000Y-118055391D01*
X127473000Y-118344609D01*
X127583679Y-118611813D01*
X127788187Y-118816321D01*
X128055391Y-118927000D01*
X128344609Y-118927000D01*
X128611813Y-118816321D01*
X128816321Y-118611813D01*
X128927000Y-118344609D01*
X128927000Y-118148087D01*
X132203000Y-118148087D01*
X132203000Y-118691913D01*
X132411113Y-119194343D01*
X132795657Y-119578887D01*
X133063908Y-119690000D01*
X132795657Y-119801113D01*
X132411113Y-120185657D01*
X132203000Y-120688087D01*
X132203000Y-121231913D01*
X132411113Y-121734343D01*
X132795657Y-122118887D01*
X133063994Y-122230036D01*
X132822240Y-122323784D01*
X132769475Y-122359042D01*
X132676341Y-122573814D01*
X133570000Y-123467473D01*
X134463659Y-122573814D01*
X134370525Y-122359042D01*
X134077081Y-122229590D01*
X134344343Y-122118887D01*
X134728887Y-121734343D01*
X134840000Y-121466092D01*
X134951113Y-121734343D01*
X135335657Y-122118887D01*
X135603994Y-122230036D01*
X135362240Y-122323784D01*
X135309475Y-122359042D01*
X135216341Y-122573814D01*
X136110000Y-123467473D01*
X137003659Y-122573814D01*
X136910525Y-122359042D01*
X136617081Y-122229590D01*
X136884343Y-122118887D01*
X137268887Y-121734343D01*
X137380000Y-121466092D01*
X137491113Y-121734343D01*
X137875657Y-122118887D01*
X138143994Y-122230036D01*
X137902240Y-122323784D01*
X137849475Y-122359042D01*
X137756341Y-122573814D01*
X138650000Y-123467473D01*
X139543659Y-122573814D01*
X139450525Y-122359042D01*
X139157081Y-122229590D01*
X139424343Y-122118887D01*
X139808887Y-121734343D01*
X139920000Y-121466092D01*
X140031113Y-121734343D01*
X140415657Y-122118887D01*
X140683994Y-122230036D01*
X140442240Y-122323784D01*
X140389475Y-122359042D01*
X140296341Y-122573814D01*
X141190000Y-123467473D01*
X142083659Y-122573814D01*
X141990525Y-122359042D01*
X141697081Y-122229590D01*
X141964343Y-122118887D01*
X142348887Y-121734343D01*
X142460000Y-121466092D01*
X142571113Y-121734343D01*
X142955657Y-122118887D01*
X143223994Y-122230036D01*
X142982240Y-122323784D01*
X142929475Y-122359042D01*
X142836341Y-122573814D01*
X143730000Y-123467473D01*
X144623659Y-122573814D01*
X144530525Y-122359042D01*
X144237081Y-122229590D01*
X144504343Y-122118887D01*
X144888887Y-121734343D01*
X145000000Y-121466092D01*
X145111113Y-121734343D01*
X145495657Y-122118887D01*
X145763994Y-122230036D01*
X145522240Y-122323784D01*
X145469475Y-122359042D01*
X145376341Y-122573814D01*
X146270000Y-123467473D01*
X147163659Y-122573814D01*
X147070525Y-122359042D01*
X146777081Y-122229590D01*
X147044343Y-122118887D01*
X147428887Y-121734343D01*
X147540000Y-121466092D01*
X147651113Y-121734343D01*
X148035657Y-122118887D01*
X148303994Y-122230036D01*
X148062240Y-122323784D01*
X148009475Y-122359042D01*
X147916341Y-122573814D01*
X148810000Y-123467473D01*
X149703659Y-122573814D01*
X149610525Y-122359042D01*
X149317081Y-122229590D01*
X149584343Y-122118887D01*
X149968887Y-121734343D01*
X150080000Y-121466092D01*
X150191113Y-121734343D01*
X150575657Y-122118887D01*
X150843994Y-122230036D01*
X150602240Y-122323784D01*
X150549475Y-122359042D01*
X150456341Y-122573814D01*
X151350000Y-123467473D01*
X152243659Y-122573814D01*
X152150525Y-122359042D01*
X151857081Y-122229590D01*
X152124343Y-122118887D01*
X152508887Y-121734343D01*
X152620000Y-121466092D01*
X152731113Y-121734343D01*
X153115657Y-122118887D01*
X153383994Y-122230036D01*
X153142240Y-122323784D01*
X153089475Y-122359042D01*
X152996341Y-122573814D01*
X153890000Y-123467473D01*
X154783659Y-122573814D01*
X154690525Y-122359042D01*
X154397081Y-122229590D01*
X154664343Y-122118887D01*
X155048887Y-121734343D01*
X155160000Y-121466092D01*
X155271113Y-121734343D01*
X155655657Y-122118887D01*
X155923994Y-122230036D01*
X155682240Y-122323784D01*
X155629475Y-122359042D01*
X155536341Y-122573814D01*
X156430000Y-123467473D01*
X157323659Y-122573814D01*
X158796341Y-122573814D01*
X159690000Y-123467473D01*
X160583659Y-122573814D01*
X160490525Y-122359042D01*
X159992963Y-122139544D01*
X159449278Y-122127163D01*
X158942240Y-122323784D01*
X158889475Y-122359042D01*
X158796341Y-122573814D01*
X157323659Y-122573814D01*
X157230525Y-122359042D01*
X156937081Y-122229590D01*
X157204343Y-122118887D01*
X157588887Y-121734343D01*
X157797000Y-121231913D01*
X157797000Y-120688087D01*
X157588887Y-120185657D01*
X157204343Y-119801113D01*
X156936092Y-119690000D01*
X157204343Y-119578887D01*
X157588887Y-119194343D01*
X157797000Y-118691913D01*
X157797000Y-118148087D01*
X157588887Y-117645657D01*
X157204343Y-117261113D01*
X156701913Y-117053000D01*
X156158087Y-117053000D01*
X155655657Y-117261113D01*
X155271113Y-117645657D01*
X155160000Y-117913908D01*
X155048887Y-117645657D01*
X154664343Y-117261113D01*
X154161913Y-117053000D01*
X153618087Y-117053000D01*
X153115657Y-117261113D01*
X152731113Y-117645657D01*
X152620000Y-117913908D01*
X152508887Y-117645657D01*
X152124343Y-117261113D01*
X151621913Y-117053000D01*
X151078087Y-117053000D01*
X150575657Y-117261113D01*
X150191113Y-117645657D01*
X150080000Y-117913908D01*
X149968887Y-117645657D01*
X149584343Y-117261113D01*
X149081913Y-117053000D01*
X148538087Y-117053000D01*
X148035657Y-117261113D01*
X147651113Y-117645657D01*
X147540000Y-117913908D01*
X147428887Y-117645657D01*
X147044343Y-117261113D01*
X146541913Y-117053000D01*
X145998087Y-117053000D01*
X145495657Y-117261113D01*
X145111113Y-117645657D01*
X145000000Y-117913908D01*
X144888887Y-117645657D01*
X144504343Y-117261113D01*
X144001913Y-117053000D01*
X143458087Y-117053000D01*
X142955657Y-117261113D01*
X142571113Y-117645657D01*
X142460000Y-117913908D01*
X142348887Y-117645657D01*
X141964343Y-117261113D01*
X141461913Y-117053000D01*
X140918087Y-117053000D01*
X140415657Y-117261113D01*
X140031113Y-117645657D01*
X139920000Y-117913908D01*
X139808887Y-117645657D01*
X139424343Y-117261113D01*
X138921913Y-117053000D01*
X138378087Y-117053000D01*
X137875657Y-117261113D01*
X137491113Y-117645657D01*
X137380000Y-117913908D01*
X137268887Y-117645657D01*
X136884343Y-117261113D01*
X136381913Y-117053000D01*
X135838087Y-117053000D01*
X135335657Y-117261113D01*
X134951113Y-117645657D01*
X134840000Y-117913908D01*
X134728887Y-117645657D01*
X134344343Y-117261113D01*
X133841913Y-117053000D01*
X133298087Y-117053000D01*
X132795657Y-117261113D01*
X132411113Y-117645657D01*
X132203000Y-118148087D01*
X128927000Y-118148087D01*
X128927000Y-118055391D01*
X128816321Y-117788187D01*
X128611813Y-117583679D01*
X128344609Y-117473000D01*
X128055391Y-117473000D01*
X127788187Y-117583679D01*
X127583679Y-117788187D01*
X127473000Y-118055391D01*
X125527000Y-118055391D01*
X125527000Y-117304586D01*
X125532472Y-117310058D01*
X125606342Y-117236188D01*
X125699475Y-117450958D01*
X126197037Y-117670456D01*
X126740722Y-117682837D01*
X127247760Y-117486216D01*
X127300525Y-117450958D01*
X127393659Y-117236186D01*
X126500000Y-116342527D01*
X126485858Y-116356669D01*
X126453331Y-116324142D01*
X126467473Y-116310000D01*
X126532527Y-116310000D01*
X127426186Y-117203659D01*
X127640958Y-117110525D01*
X127709394Y-116955391D01*
X129973000Y-116955391D01*
X129973000Y-117244609D01*
X130083679Y-117511813D01*
X130288187Y-117716321D01*
X130555391Y-117827000D01*
X130844609Y-117827000D01*
X131111813Y-117716321D01*
X131316321Y-117511813D01*
X131427000Y-117244609D01*
X131427000Y-116955391D01*
X131316321Y-116688187D01*
X131111813Y-116483679D01*
X130844609Y-116373000D01*
X130555391Y-116373000D01*
X130288187Y-116483679D01*
X130083679Y-116688187D01*
X129973000Y-116955391D01*
X127709394Y-116955391D01*
X127860456Y-116612963D01*
X127872837Y-116069278D01*
X127676216Y-115562240D01*
X127640958Y-115509475D01*
X127426186Y-115416341D01*
X126532527Y-116310000D01*
X126467473Y-116310000D01*
X126453331Y-116295858D01*
X126485858Y-116263331D01*
X126500000Y-116277473D01*
X127393659Y-115383814D01*
X127335813Y-115250418D01*
X142248000Y-115250418D01*
X142248000Y-115549582D01*
X142362485Y-115825974D01*
X142574026Y-116037515D01*
X142850418Y-116152000D01*
X143149582Y-116152000D01*
X143425974Y-116037515D01*
X143637515Y-115825974D01*
X143752000Y-115549582D01*
X143752000Y-115250418D01*
X143637515Y-114974026D01*
X143425974Y-114762485D01*
X143149582Y-114648000D01*
X142850418Y-114648000D01*
X142574026Y-114762485D01*
X142362485Y-114974026D01*
X142248000Y-115250418D01*
X127335813Y-115250418D01*
X127300525Y-115169042D01*
X127007081Y-115039590D01*
X127274343Y-114928887D01*
X127658887Y-114544343D01*
X127861417Y-114055391D01*
X130073000Y-114055391D01*
X130073000Y-114344609D01*
X130183679Y-114611813D01*
X130388187Y-114816321D01*
X130655391Y-114927000D01*
X130944609Y-114927000D01*
X131211813Y-114816321D01*
X131416321Y-114611813D01*
X131527000Y-114344609D01*
X131527000Y-114055391D01*
X135473000Y-114055391D01*
X135473000Y-114344609D01*
X135583679Y-114611813D01*
X135788187Y-114816321D01*
X136055391Y-114927000D01*
X136344609Y-114927000D01*
X136611813Y-114816321D01*
X136816321Y-114611813D01*
X136927000Y-114344609D01*
X136927000Y-114055391D01*
X136816321Y-113788187D01*
X136611813Y-113583679D01*
X136344609Y-113473000D01*
X136055391Y-113473000D01*
X135788187Y-113583679D01*
X135583679Y-113788187D01*
X135473000Y-114055391D01*
X131527000Y-114055391D01*
X131416321Y-113788187D01*
X131211813Y-113583679D01*
X130944609Y-113473000D01*
X130655391Y-113473000D01*
X130388187Y-113583679D01*
X130183679Y-113788187D01*
X130073000Y-114055391D01*
X127861417Y-114055391D01*
X127867000Y-114041913D01*
X127867000Y-113498087D01*
X127658887Y-112995657D01*
X127274343Y-112611113D01*
X127006092Y-112500000D01*
X127274343Y-112388887D01*
X127658887Y-112004343D01*
X127867000Y-111501913D01*
X127867000Y-111155391D01*
X146373000Y-111155391D01*
X146373000Y-111444609D01*
X146483679Y-111711813D01*
X146688187Y-111916321D01*
X146955391Y-112027000D01*
X147244609Y-112027000D01*
X147511813Y-111916321D01*
X147700000Y-111728134D01*
X147888187Y-111916321D01*
X148155391Y-112027000D01*
X148444609Y-112027000D01*
X148711813Y-111916321D01*
X148750000Y-111878134D01*
X148788187Y-111916321D01*
X149055391Y-112027000D01*
X149344609Y-112027000D01*
X149611813Y-111916321D01*
X149816321Y-111711813D01*
X149927000Y-111444609D01*
X149927000Y-111155391D01*
X149816321Y-110888187D01*
X149611813Y-110683679D01*
X149344609Y-110573000D01*
X149055391Y-110573000D01*
X148788187Y-110683679D01*
X148750000Y-110721866D01*
X148711813Y-110683679D01*
X148444609Y-110573000D01*
X148155391Y-110573000D01*
X147888187Y-110683679D01*
X147700000Y-110871866D01*
X147511813Y-110683679D01*
X147244609Y-110573000D01*
X146955391Y-110573000D01*
X146688187Y-110683679D01*
X146483679Y-110888187D01*
X146373000Y-111155391D01*
X127867000Y-111155391D01*
X127867000Y-110958087D01*
X127658887Y-110455657D01*
X127274343Y-110071113D01*
X127006092Y-109960000D01*
X127274343Y-109848887D01*
X127658887Y-109464343D01*
X127867000Y-108961913D01*
X127867000Y-108418087D01*
X127658887Y-107915657D01*
X127274343Y-107531113D01*
X126771913Y-107323000D01*
X126228087Y-107323000D01*
X125725657Y-107531113D01*
X125527000Y-107729770D01*
X125527000Y-107055391D01*
X139173000Y-107055391D01*
X139173000Y-107344609D01*
X139283679Y-107611813D01*
X139488187Y-107816321D01*
X139755391Y-107927000D01*
X140044609Y-107927000D01*
X140311813Y-107816321D01*
X140516321Y-107611813D01*
X140627000Y-107344609D01*
X140627000Y-107327000D01*
X140744609Y-107327000D01*
X141011813Y-107216321D01*
X141216321Y-107011813D01*
X141273000Y-106874977D01*
X141273000Y-107144609D01*
X141383679Y-107411813D01*
X141588187Y-107616321D01*
X141855391Y-107727000D01*
X142144609Y-107727000D01*
X142145048Y-107726818D01*
X141983679Y-107888187D01*
X141873000Y-108155391D01*
X141873000Y-108444609D01*
X141983679Y-108711813D01*
X142188187Y-108916321D01*
X142455391Y-109027000D01*
X142544866Y-109027000D01*
X142433679Y-109138187D01*
X142323000Y-109405391D01*
X142323000Y-109694609D01*
X142433679Y-109961813D01*
X142638187Y-110166321D01*
X142905391Y-110277000D01*
X143194609Y-110277000D01*
X143461813Y-110166321D01*
X143666321Y-109961813D01*
X143777000Y-109694609D01*
X143777000Y-109505391D01*
X152773000Y-109505391D01*
X152773000Y-109794609D01*
X152883679Y-110061813D01*
X153088187Y-110266321D01*
X153355391Y-110377000D01*
X153644609Y-110377000D01*
X153911813Y-110266321D01*
X154116321Y-110061813D01*
X154227000Y-109794609D01*
X154227000Y-109505391D01*
X154116321Y-109238187D01*
X153911813Y-109033679D01*
X153644609Y-108923000D01*
X153355391Y-108923000D01*
X153088187Y-109033679D01*
X152883679Y-109238187D01*
X152773000Y-109505391D01*
X143777000Y-109505391D01*
X143777000Y-109405391D01*
X143666321Y-109138187D01*
X143461813Y-108933679D01*
X143194609Y-108823000D01*
X143105134Y-108823000D01*
X143216321Y-108711813D01*
X143327000Y-108444609D01*
X143327000Y-108155391D01*
X143216321Y-107888187D01*
X143011813Y-107683679D01*
X142744609Y-107573000D01*
X142455391Y-107573000D01*
X142454952Y-107573182D01*
X142616321Y-107411813D01*
X142727000Y-107144609D01*
X142727000Y-106855391D01*
X142616321Y-106588187D01*
X142411813Y-106383679D01*
X142144609Y-106273000D01*
X141855391Y-106273000D01*
X141588187Y-106383679D01*
X141383679Y-106588187D01*
X141327000Y-106725023D01*
X141327000Y-106455391D01*
X141240252Y-106245962D01*
X141311813Y-106216321D01*
X141516321Y-106011813D01*
X141627000Y-105744609D01*
X141627000Y-105455391D01*
X141585579Y-105355391D01*
X144773000Y-105355391D01*
X144773000Y-105644609D01*
X144883679Y-105911813D01*
X145088187Y-106116321D01*
X145355391Y-106227000D01*
X145373000Y-106227000D01*
X145373000Y-106344609D01*
X145483679Y-106611813D01*
X145688187Y-106816321D01*
X145955391Y-106927000D01*
X146244609Y-106927000D01*
X146511813Y-106816321D01*
X146716321Y-106611813D01*
X146827000Y-106344609D01*
X146827000Y-106155391D01*
X149873000Y-106155391D01*
X149873000Y-106444609D01*
X149983679Y-106711813D01*
X150188187Y-106916321D01*
X150455391Y-107027000D01*
X150744609Y-107027000D01*
X151011813Y-106916321D01*
X151216321Y-106711813D01*
X151304984Y-106497762D01*
X151402349Y-106595127D01*
X151660364Y-106702000D01*
X151939636Y-106702000D01*
X152082212Y-106642943D01*
X152104873Y-106697651D01*
X152302349Y-106895127D01*
X152560364Y-107002000D01*
X152839636Y-107002000D01*
X153097651Y-106895127D01*
X153295127Y-106697651D01*
X153402000Y-106439636D01*
X153402000Y-106255391D01*
X155573000Y-106255391D01*
X155573000Y-106544609D01*
X155683679Y-106811813D01*
X155888187Y-107016321D01*
X156155391Y-107127000D01*
X156444609Y-107127000D01*
X156711813Y-107016321D01*
X156916321Y-106811813D01*
X157027000Y-106544609D01*
X157027000Y-106255391D01*
X156916321Y-105988187D01*
X156711813Y-105783679D01*
X156444609Y-105673000D01*
X156155391Y-105673000D01*
X155888187Y-105783679D01*
X155683679Y-105988187D01*
X155573000Y-106255391D01*
X153402000Y-106255391D01*
X153402000Y-106160364D01*
X153295127Y-105902349D01*
X153097651Y-105704873D01*
X152839636Y-105598000D01*
X152560364Y-105598000D01*
X152417788Y-105657057D01*
X152395127Y-105602349D01*
X152197651Y-105404873D01*
X151939636Y-105298000D01*
X151722043Y-105298000D01*
X151783172Y-105150418D01*
X156848000Y-105150418D01*
X156848000Y-105449582D01*
X156962485Y-105725974D01*
X157174026Y-105937515D01*
X157450418Y-106052000D01*
X157749582Y-106052000D01*
X158025974Y-105937515D01*
X158113071Y-105850418D01*
X162198000Y-105850418D01*
X162198000Y-106149582D01*
X162312485Y-106425974D01*
X162524026Y-106637515D01*
X162800418Y-106752000D01*
X163099582Y-106752000D01*
X163375974Y-106637515D01*
X163558098Y-106455391D01*
X169673000Y-106455391D01*
X169673000Y-106744609D01*
X169783679Y-107011813D01*
X169988187Y-107216321D01*
X170255391Y-107327000D01*
X170544609Y-107327000D01*
X170811813Y-107216321D01*
X171016321Y-107011813D01*
X171127000Y-106744609D01*
X171127000Y-106455391D01*
X171016321Y-106188187D01*
X170811813Y-105983679D01*
X170544609Y-105873000D01*
X170255391Y-105873000D01*
X169988187Y-105983679D01*
X169783679Y-106188187D01*
X169673000Y-106455391D01*
X163558098Y-106455391D01*
X163587515Y-106425974D01*
X163702000Y-106149582D01*
X163702000Y-105850418D01*
X163587515Y-105574026D01*
X163375974Y-105362485D01*
X163099582Y-105248000D01*
X162800418Y-105248000D01*
X162524026Y-105362485D01*
X162312485Y-105574026D01*
X162198000Y-105850418D01*
X158113071Y-105850418D01*
X158237515Y-105725974D01*
X158352000Y-105449582D01*
X158352000Y-105150418D01*
X158237515Y-104874026D01*
X158025974Y-104662485D01*
X157749582Y-104548000D01*
X157450418Y-104548000D01*
X157174026Y-104662485D01*
X156962485Y-104874026D01*
X156848000Y-105150418D01*
X151783172Y-105150418D01*
X151827000Y-105044609D01*
X151827000Y-104755391D01*
X151716321Y-104488187D01*
X151678134Y-104450000D01*
X151716321Y-104411813D01*
X151827000Y-104144609D01*
X151827000Y-103927000D01*
X151944609Y-103927000D01*
X152211813Y-103816321D01*
X152416321Y-103611813D01*
X152489352Y-103435499D01*
X166673000Y-103435499D01*
X166673000Y-103764501D01*
X166798903Y-104068458D01*
X167031542Y-104301097D01*
X167335499Y-104427000D01*
X167664501Y-104427000D01*
X167968458Y-104301097D01*
X168201097Y-104068458D01*
X168327000Y-103764501D01*
X168327000Y-103435499D01*
X168201097Y-103131542D01*
X167968458Y-102898903D01*
X167664501Y-102773000D01*
X167335499Y-102773000D01*
X167031542Y-102898903D01*
X166798903Y-103131542D01*
X166673000Y-103435499D01*
X152489352Y-103435499D01*
X152527000Y-103344609D01*
X152527000Y-103055391D01*
X152416321Y-102788187D01*
X152211813Y-102583679D01*
X152093473Y-102534661D01*
X152216321Y-102411813D01*
X152327000Y-102144609D01*
X152327000Y-101855391D01*
X152216321Y-101588187D01*
X152011813Y-101383679D01*
X151744609Y-101273000D01*
X151455391Y-101273000D01*
X151188187Y-101383679D01*
X150983679Y-101588187D01*
X150873000Y-101855391D01*
X150873000Y-102144609D01*
X150983679Y-102411813D01*
X151188187Y-102616321D01*
X151306527Y-102665339D01*
X151183679Y-102788187D01*
X151073000Y-103055391D01*
X151073000Y-103273000D01*
X150955391Y-103273000D01*
X150688187Y-103383679D01*
X150483679Y-103588187D01*
X150373000Y-103855391D01*
X150373000Y-104144609D01*
X150483679Y-104411813D01*
X150521866Y-104450000D01*
X150483679Y-104488187D01*
X150373000Y-104755391D01*
X150373000Y-105044609D01*
X150483679Y-105311813D01*
X150688187Y-105516321D01*
X150955391Y-105627000D01*
X151194662Y-105627000D01*
X151124506Y-105796372D01*
X151011813Y-105683679D01*
X150744609Y-105573000D01*
X150455391Y-105573000D01*
X150188187Y-105683679D01*
X149983679Y-105888187D01*
X149873000Y-106155391D01*
X146827000Y-106155391D01*
X146827000Y-106055391D01*
X146716321Y-105788187D01*
X146511813Y-105583679D01*
X146244609Y-105473000D01*
X146227000Y-105473000D01*
X146227000Y-105355391D01*
X146116321Y-105088187D01*
X145911813Y-104883679D01*
X145644609Y-104773000D01*
X145355391Y-104773000D01*
X145088187Y-104883679D01*
X144883679Y-105088187D01*
X144773000Y-105355391D01*
X141585579Y-105355391D01*
X141516321Y-105188187D01*
X141455134Y-105127000D01*
X141644609Y-105127000D01*
X141911813Y-105016321D01*
X142116321Y-104811813D01*
X142227000Y-104544609D01*
X142227000Y-104255391D01*
X142116321Y-103988187D01*
X141911813Y-103783679D01*
X141644609Y-103673000D01*
X141355391Y-103673000D01*
X141088187Y-103783679D01*
X140883679Y-103988187D01*
X140773000Y-104255391D01*
X140773000Y-104544609D01*
X140883679Y-104811813D01*
X140944866Y-104873000D01*
X140755391Y-104873000D01*
X140488187Y-104983679D01*
X140283679Y-105188187D01*
X140173000Y-105455391D01*
X140173000Y-105744609D01*
X140259748Y-105954038D01*
X140188187Y-105983679D01*
X139983679Y-106188187D01*
X139873000Y-106455391D01*
X139873000Y-106473000D01*
X139755391Y-106473000D01*
X139488187Y-106583679D01*
X139283679Y-106788187D01*
X139173000Y-107055391D01*
X125527000Y-107055391D01*
X125527000Y-106000230D01*
X125725657Y-106198887D01*
X126228087Y-106407000D01*
X126771913Y-106407000D01*
X127274343Y-106198887D01*
X127658887Y-105814343D01*
X127867000Y-105311913D01*
X127867000Y-104768087D01*
X127737478Y-104455391D01*
X133673000Y-104455391D01*
X133673000Y-104744609D01*
X133783679Y-105011813D01*
X133988187Y-105216321D01*
X134255391Y-105327000D01*
X134544609Y-105327000D01*
X134811813Y-105216321D01*
X135016321Y-105011813D01*
X135127000Y-104744609D01*
X135127000Y-104455391D01*
X135016321Y-104188187D01*
X134811813Y-103983679D01*
X134544609Y-103873000D01*
X134255391Y-103873000D01*
X133988187Y-103983679D01*
X133783679Y-104188187D01*
X133673000Y-104455391D01*
X127737478Y-104455391D01*
X127658887Y-104265657D01*
X127274343Y-103881113D01*
X127006092Y-103770000D01*
X127274343Y-103658887D01*
X127277839Y-103655391D01*
X135273000Y-103655391D01*
X135273000Y-103944609D01*
X135383679Y-104211813D01*
X135588187Y-104416321D01*
X135855391Y-104527000D01*
X136144609Y-104527000D01*
X136411813Y-104416321D01*
X136616321Y-104211813D01*
X136727000Y-103944609D01*
X136727000Y-103655391D01*
X136646218Y-103460364D01*
X143898000Y-103460364D01*
X143898000Y-103739636D01*
X144004873Y-103997651D01*
X144202349Y-104195127D01*
X144460364Y-104302000D01*
X144739636Y-104302000D01*
X144997651Y-104195127D01*
X145195127Y-103997651D01*
X145212631Y-103955391D01*
X146973000Y-103955391D01*
X146973000Y-104244609D01*
X147083679Y-104511813D01*
X147288187Y-104716321D01*
X147335816Y-104736050D01*
X147183679Y-104888187D01*
X147073000Y-105155391D01*
X147073000Y-105444609D01*
X147183679Y-105711813D01*
X147388187Y-105916321D01*
X147655391Y-106027000D01*
X147944609Y-106027000D01*
X148211813Y-105916321D01*
X148416321Y-105711813D01*
X148527000Y-105444609D01*
X148527000Y-105155391D01*
X148416321Y-104888187D01*
X148211813Y-104683679D01*
X148164184Y-104663950D01*
X148316321Y-104511813D01*
X148427000Y-104244609D01*
X148427000Y-103955391D01*
X148316321Y-103688187D01*
X148230134Y-103602000D01*
X148439636Y-103602000D01*
X148697651Y-103495127D01*
X148895127Y-103297651D01*
X149002000Y-103039636D01*
X149002000Y-102760364D01*
X148895127Y-102502349D01*
X148697651Y-102304873D01*
X148439636Y-102198000D01*
X148160364Y-102198000D01*
X147902349Y-102304873D01*
X147704873Y-102502349D01*
X147598000Y-102760364D01*
X147598000Y-103039636D01*
X147704873Y-103297651D01*
X147780222Y-103373000D01*
X147555391Y-103373000D01*
X147288187Y-103483679D01*
X147083679Y-103688187D01*
X146973000Y-103955391D01*
X145212631Y-103955391D01*
X145302000Y-103739636D01*
X145302000Y-103460364D01*
X145195127Y-103202349D01*
X144997651Y-103004873D01*
X144739636Y-102898000D01*
X144460364Y-102898000D01*
X144202349Y-103004873D01*
X144004873Y-103202349D01*
X143898000Y-103460364D01*
X136646218Y-103460364D01*
X136616321Y-103388187D01*
X136411813Y-103183679D01*
X136144609Y-103073000D01*
X135855391Y-103073000D01*
X135588187Y-103183679D01*
X135383679Y-103388187D01*
X135273000Y-103655391D01*
X127277839Y-103655391D01*
X127658887Y-103274343D01*
X127867000Y-102771913D01*
X127867000Y-102228087D01*
X127658887Y-101725657D01*
X127274343Y-101341113D01*
X127006006Y-101229964D01*
X127247760Y-101136216D01*
X127300525Y-101100958D01*
X127393659Y-100886186D01*
X126500000Y-99992527D01*
X126485858Y-100006669D01*
X126453331Y-99974142D01*
X126467473Y-99960000D01*
X126532527Y-99960000D01*
X127426186Y-100853659D01*
X127640958Y-100760525D01*
X127775566Y-100455391D01*
X129173000Y-100455391D01*
X129173000Y-100744609D01*
X129283679Y-101011813D01*
X129488187Y-101216321D01*
X129755391Y-101327000D01*
X130044609Y-101327000D01*
X130311813Y-101216321D01*
X130467770Y-101060364D01*
X148898000Y-101060364D01*
X148898000Y-101339636D01*
X149004873Y-101597651D01*
X149202349Y-101795127D01*
X149460364Y-101902000D01*
X149739636Y-101902000D01*
X149997651Y-101795127D01*
X150195127Y-101597651D01*
X150302000Y-101339636D01*
X150302000Y-101060364D01*
X150195127Y-100802349D01*
X149997651Y-100604873D01*
X149739636Y-100498000D01*
X149460364Y-100498000D01*
X149202349Y-100604873D01*
X149004873Y-100802349D01*
X148898000Y-101060364D01*
X130467770Y-101060364D01*
X130516321Y-101011813D01*
X130627000Y-100744609D01*
X130627000Y-100455391D01*
X130516321Y-100188187D01*
X130311813Y-99983679D01*
X130044609Y-99873000D01*
X129755391Y-99873000D01*
X129488187Y-99983679D01*
X129283679Y-100188187D01*
X129173000Y-100455391D01*
X127775566Y-100455391D01*
X127860456Y-100262963D01*
X127872837Y-99719278D01*
X127676216Y-99212240D01*
X127640958Y-99159475D01*
X127426186Y-99066341D01*
X126532527Y-99960000D01*
X126467473Y-99960000D01*
X126453331Y-99945858D01*
X126485858Y-99913331D01*
X126500000Y-99927473D01*
X127393659Y-99033814D01*
X127300525Y-98819042D01*
X126940831Y-98660364D01*
X143598000Y-98660364D01*
X143598000Y-98939636D01*
X143704873Y-99197651D01*
X143902349Y-99395127D01*
X144160364Y-99502000D01*
X144439636Y-99502000D01*
X144697651Y-99395127D01*
X144895127Y-99197651D01*
X145002000Y-98939636D01*
X145002000Y-98660364D01*
X144958519Y-98555391D01*
X149473000Y-98555391D01*
X149473000Y-98844609D01*
X149583679Y-99111813D01*
X149721866Y-99250000D01*
X149683679Y-99288187D01*
X149573000Y-99555391D01*
X149573000Y-99844609D01*
X149683679Y-100111813D01*
X149888187Y-100316321D01*
X150155391Y-100427000D01*
X150444609Y-100427000D01*
X150711813Y-100316321D01*
X150916321Y-100111813D01*
X151027000Y-99844609D01*
X151027000Y-99555391D01*
X151006925Y-99506925D01*
X151055391Y-99527000D01*
X151344609Y-99527000D01*
X151611813Y-99416321D01*
X151816321Y-99211813D01*
X151927000Y-98944609D01*
X151927000Y-98655391D01*
X151816321Y-98388187D01*
X151654952Y-98226818D01*
X151655391Y-98227000D01*
X151944609Y-98227000D01*
X152211813Y-98116321D01*
X152416321Y-97911813D01*
X152527000Y-97644609D01*
X152527000Y-97460364D01*
X154298000Y-97460364D01*
X154298000Y-97739636D01*
X154404873Y-97997651D01*
X154602349Y-98195127D01*
X154860364Y-98302000D01*
X155139636Y-98302000D01*
X155397651Y-98195127D01*
X155595127Y-97997651D01*
X155702000Y-97739636D01*
X155702000Y-97460364D01*
X155595127Y-97202349D01*
X155448169Y-97055391D01*
X166223000Y-97055391D01*
X166223000Y-97344609D01*
X166333679Y-97611813D01*
X166538187Y-97816321D01*
X166805391Y-97927000D01*
X167094609Y-97927000D01*
X167361813Y-97816321D01*
X167566321Y-97611813D01*
X167641330Y-97430722D01*
X172127163Y-97430722D01*
X172323784Y-97937760D01*
X172359042Y-97990525D01*
X172573814Y-98083659D01*
X173467473Y-97190000D01*
X172573814Y-96296341D01*
X172359042Y-96389475D01*
X172139544Y-96887037D01*
X172127163Y-97430722D01*
X167641330Y-97430722D01*
X167677000Y-97344609D01*
X167677000Y-97055391D01*
X167566321Y-96788187D01*
X167361813Y-96583679D01*
X167094609Y-96473000D01*
X166805391Y-96473000D01*
X166538187Y-96583679D01*
X166333679Y-96788187D01*
X166223000Y-97055391D01*
X155448169Y-97055391D01*
X155397651Y-97004873D01*
X155139636Y-96898000D01*
X154860364Y-96898000D01*
X154602349Y-97004873D01*
X154404873Y-97202349D01*
X154298000Y-97460364D01*
X152527000Y-97460364D01*
X152527000Y-97355391D01*
X152416321Y-97088187D01*
X152211813Y-96883679D01*
X151944609Y-96773000D01*
X151655391Y-96773000D01*
X151388187Y-96883679D01*
X151300000Y-96971866D01*
X151211813Y-96883679D01*
X150944609Y-96773000D01*
X150655391Y-96773000D01*
X150388187Y-96883679D01*
X150183679Y-97088187D01*
X150073000Y-97355391D01*
X150073000Y-97644609D01*
X150183679Y-97911813D01*
X150244866Y-97973000D01*
X150055391Y-97973000D01*
X149788187Y-98083679D01*
X149583679Y-98288187D01*
X149473000Y-98555391D01*
X144958519Y-98555391D01*
X144895127Y-98402349D01*
X144697651Y-98204873D01*
X144439636Y-98098000D01*
X144160364Y-98098000D01*
X143902349Y-98204873D01*
X143704873Y-98402349D01*
X143598000Y-98660364D01*
X126940831Y-98660364D01*
X126802963Y-98599544D01*
X126259278Y-98587163D01*
X125752240Y-98783784D01*
X125699475Y-98819042D01*
X125606342Y-99033812D01*
X125532472Y-98959942D01*
X125527000Y-98965414D01*
X125527000Y-96335499D01*
X142373000Y-96335499D01*
X142373000Y-96664501D01*
X142498903Y-96968458D01*
X142731542Y-97201097D01*
X143035499Y-97327000D01*
X143364501Y-97327000D01*
X143668458Y-97201097D01*
X143901097Y-96968458D01*
X144027000Y-96664501D01*
X144027000Y-96360364D01*
X152898000Y-96360364D01*
X152898000Y-96639636D01*
X153004873Y-96897651D01*
X153202349Y-97095127D01*
X153460364Y-97202000D01*
X153739636Y-97202000D01*
X153997651Y-97095127D01*
X154195127Y-96897651D01*
X154302000Y-96639636D01*
X154302000Y-96360364D01*
X154195127Y-96102349D01*
X154048402Y-95955624D01*
X154160364Y-96002000D01*
X154439636Y-96002000D01*
X154697651Y-95895127D01*
X154895127Y-95697651D01*
X155002000Y-95439636D01*
X155002000Y-95160364D01*
X154917098Y-94955391D01*
X158673000Y-94955391D01*
X158673000Y-95244609D01*
X158783679Y-95511813D01*
X158988187Y-95716321D01*
X159255391Y-95827000D01*
X159544609Y-95827000D01*
X159811813Y-95716321D01*
X160016321Y-95511813D01*
X160127000Y-95244609D01*
X160127000Y-94955391D01*
X160016321Y-94688187D01*
X159811813Y-94483679D01*
X159544609Y-94373000D01*
X159255391Y-94373000D01*
X158988187Y-94483679D01*
X158783679Y-94688187D01*
X158673000Y-94955391D01*
X154917098Y-94955391D01*
X154895127Y-94902349D01*
X154697651Y-94704873D01*
X154449293Y-94602000D01*
X154639636Y-94602000D01*
X154897651Y-94495127D01*
X155095127Y-94297651D01*
X155202000Y-94039636D01*
X155202000Y-93760364D01*
X155152510Y-93640885D01*
X155211813Y-93616321D01*
X155416321Y-93411813D01*
X155527000Y-93144609D01*
X155527000Y-92855391D01*
X155416321Y-92588187D01*
X155211813Y-92383679D01*
X154944609Y-92273000D01*
X154655391Y-92273000D01*
X154388187Y-92383679D01*
X154183679Y-92588187D01*
X154073000Y-92855391D01*
X154073000Y-93144609D01*
X154133960Y-93291779D01*
X154102349Y-93304873D01*
X153904873Y-93502349D01*
X153798000Y-93760364D01*
X153798000Y-94039636D01*
X153904873Y-94297651D01*
X154102349Y-94495127D01*
X154350707Y-94598000D01*
X154160364Y-94598000D01*
X153902349Y-94704873D01*
X153704873Y-94902349D01*
X153598000Y-95160364D01*
X153598000Y-95439636D01*
X153704873Y-95697651D01*
X153851598Y-95844376D01*
X153739636Y-95798000D01*
X153460364Y-95798000D01*
X153202349Y-95904873D01*
X153004873Y-96102349D01*
X152898000Y-96360364D01*
X144027000Y-96360364D01*
X144027000Y-96335499D01*
X143901097Y-96031542D01*
X143668458Y-95798903D01*
X143364501Y-95673000D01*
X143035499Y-95673000D01*
X142731542Y-95798903D01*
X142498903Y-96031542D01*
X142373000Y-96335499D01*
X125527000Y-96335499D01*
X125527000Y-95155391D01*
X141073000Y-95155391D01*
X141073000Y-95444609D01*
X141183679Y-95711813D01*
X141388187Y-95916321D01*
X141655391Y-96027000D01*
X141944609Y-96027000D01*
X142211813Y-95916321D01*
X142416321Y-95711813D01*
X142527000Y-95444609D01*
X142527000Y-95155391D01*
X142416321Y-94888187D01*
X142211813Y-94683679D01*
X141944609Y-94573000D01*
X141655391Y-94573000D01*
X141388187Y-94683679D01*
X141183679Y-94888187D01*
X141073000Y-95155391D01*
X125527000Y-95155391D01*
X125527000Y-93955391D01*
X142073000Y-93955391D01*
X142073000Y-94244609D01*
X142183679Y-94511813D01*
X142388187Y-94716321D01*
X142655391Y-94827000D01*
X142944609Y-94827000D01*
X143211813Y-94716321D01*
X143416321Y-94511813D01*
X143439691Y-94455391D01*
X151473000Y-94455391D01*
X151473000Y-94744609D01*
X151583679Y-95011813D01*
X151788187Y-95216321D01*
X152055391Y-95327000D01*
X152344609Y-95327000D01*
X152611813Y-95216321D01*
X152816321Y-95011813D01*
X152927000Y-94744609D01*
X152927000Y-94455391D01*
X152816321Y-94188187D01*
X152611813Y-93983679D01*
X152344609Y-93873000D01*
X152055391Y-93873000D01*
X151788187Y-93983679D01*
X151583679Y-94188187D01*
X151473000Y-94455391D01*
X143439691Y-94455391D01*
X143527000Y-94244609D01*
X143527000Y-93955391D01*
X143416321Y-93688187D01*
X143211813Y-93483679D01*
X142944609Y-93373000D01*
X142655391Y-93373000D01*
X142388187Y-93483679D01*
X142183679Y-93688187D01*
X142073000Y-93955391D01*
X125527000Y-93955391D01*
X125527000Y-92264586D01*
X125532472Y-92270058D01*
X125606342Y-92196188D01*
X125699475Y-92410958D01*
X126197037Y-92630456D01*
X126740722Y-92642837D01*
X127247760Y-92446216D01*
X127300525Y-92410958D01*
X127324621Y-92355391D01*
X138773000Y-92355391D01*
X138773000Y-92644609D01*
X138883679Y-92911813D01*
X139088187Y-93116321D01*
X139355391Y-93227000D01*
X139644609Y-93227000D01*
X139911813Y-93116321D01*
X140072743Y-92955391D01*
X146573000Y-92955391D01*
X146573000Y-93244609D01*
X146683679Y-93511813D01*
X146888187Y-93716321D01*
X147155391Y-93827000D01*
X147444609Y-93827000D01*
X147700000Y-93721214D01*
X147955391Y-93827000D01*
X148244609Y-93827000D01*
X148511813Y-93716321D01*
X148550000Y-93678134D01*
X148588187Y-93716321D01*
X148855391Y-93827000D01*
X149007127Y-93827000D01*
X149083679Y-94011813D01*
X149288187Y-94216321D01*
X149555391Y-94327000D01*
X149844609Y-94327000D01*
X150111813Y-94216321D01*
X150316321Y-94011813D01*
X150427000Y-93744609D01*
X150427000Y-93455391D01*
X150316321Y-93188187D01*
X150111813Y-92983679D01*
X149844609Y-92873000D01*
X149692873Y-92873000D01*
X149616321Y-92688187D01*
X149411813Y-92483679D01*
X149144609Y-92373000D01*
X148855391Y-92373000D01*
X148588187Y-92483679D01*
X148550000Y-92521866D01*
X148511813Y-92483679D01*
X148244609Y-92373000D01*
X147955391Y-92373000D01*
X147700000Y-92478786D01*
X147444609Y-92373000D01*
X147155391Y-92373000D01*
X146888187Y-92483679D01*
X146683679Y-92688187D01*
X146573000Y-92955391D01*
X140072743Y-92955391D01*
X140116321Y-92911813D01*
X140227000Y-92644609D01*
X140227000Y-92355391D01*
X140144158Y-92155391D01*
X150573000Y-92155391D01*
X150573000Y-92444609D01*
X150683679Y-92711813D01*
X150888187Y-92916321D01*
X151155391Y-93027000D01*
X151444609Y-93027000D01*
X151711813Y-92916321D01*
X151772743Y-92855391D01*
X152273000Y-92855391D01*
X152273000Y-93144609D01*
X152383679Y-93411813D01*
X152588187Y-93616321D01*
X152855391Y-93727000D01*
X153144609Y-93727000D01*
X153411813Y-93616321D01*
X153616321Y-93411813D01*
X153727000Y-93144609D01*
X153727000Y-92855391D01*
X153616321Y-92588187D01*
X153411813Y-92383679D01*
X153144609Y-92273000D01*
X152855391Y-92273000D01*
X152588187Y-92383679D01*
X152383679Y-92588187D01*
X152273000Y-92855391D01*
X151772743Y-92855391D01*
X151916321Y-92711813D01*
X152027000Y-92444609D01*
X152027000Y-92155391D01*
X151916321Y-91888187D01*
X151711813Y-91683679D01*
X151655526Y-91660364D01*
X163698000Y-91660364D01*
X163698000Y-91939636D01*
X163804873Y-92197651D01*
X164002349Y-92395127D01*
X164260364Y-92502000D01*
X164539636Y-92502000D01*
X164797651Y-92395127D01*
X164995127Y-92197651D01*
X165102000Y-91939636D01*
X165102000Y-91660364D01*
X164995127Y-91402349D01*
X164848169Y-91255391D01*
X165073000Y-91255391D01*
X165073000Y-91544609D01*
X165183679Y-91811813D01*
X165388187Y-92016321D01*
X165655391Y-92127000D01*
X165944609Y-92127000D01*
X166211813Y-92016321D01*
X166416321Y-91811813D01*
X166527000Y-91544609D01*
X166527000Y-91255391D01*
X166416321Y-90988187D01*
X166211813Y-90783679D01*
X165944609Y-90673000D01*
X165655391Y-90673000D01*
X165388187Y-90783679D01*
X165183679Y-90988187D01*
X165073000Y-91255391D01*
X164848169Y-91255391D01*
X164797651Y-91204873D01*
X164539636Y-91098000D01*
X164260364Y-91098000D01*
X164002349Y-91204873D01*
X163804873Y-91402349D01*
X163698000Y-91660364D01*
X151655526Y-91660364D01*
X151444609Y-91573000D01*
X151155391Y-91573000D01*
X150888187Y-91683679D01*
X150683679Y-91888187D01*
X150573000Y-92155391D01*
X140144158Y-92155391D01*
X140116321Y-92088187D01*
X139911813Y-91883679D01*
X139644609Y-91773000D01*
X139355391Y-91773000D01*
X139088187Y-91883679D01*
X138883679Y-92088187D01*
X138773000Y-92355391D01*
X127324621Y-92355391D01*
X127393659Y-92196186D01*
X126500000Y-91302527D01*
X126485858Y-91316669D01*
X126453331Y-91284142D01*
X126467473Y-91270000D01*
X126532527Y-91270000D01*
X127426186Y-92163659D01*
X127640958Y-92070525D01*
X127860456Y-91572963D01*
X127872837Y-91029278D01*
X127676216Y-90522240D01*
X127640958Y-90469475D01*
X127426186Y-90376341D01*
X126532527Y-91270000D01*
X126467473Y-91270000D01*
X126453331Y-91255858D01*
X126485858Y-91223331D01*
X126500000Y-91237473D01*
X127393659Y-90343814D01*
X127300525Y-90129042D01*
X127007081Y-89999590D01*
X127274343Y-89888887D01*
X127658887Y-89504343D01*
X127867000Y-89001913D01*
X127867000Y-88458087D01*
X127774802Y-88235499D01*
X130873000Y-88235499D01*
X130873000Y-88564501D01*
X130998903Y-88868458D01*
X131231542Y-89101097D01*
X131535499Y-89227000D01*
X131864501Y-89227000D01*
X132168458Y-89101097D01*
X132234056Y-89035499D01*
X137473000Y-89035499D01*
X137473000Y-89364501D01*
X137598903Y-89668458D01*
X137831542Y-89901097D01*
X138135499Y-90027000D01*
X138464501Y-90027000D01*
X138768458Y-89901097D01*
X139001097Y-89668458D01*
X139127000Y-89364501D01*
X139127000Y-89255391D01*
X139273000Y-89255391D01*
X139273000Y-89544609D01*
X139383679Y-89811813D01*
X139588187Y-90016321D01*
X139855391Y-90127000D01*
X140144609Y-90127000D01*
X140411813Y-90016321D01*
X140616321Y-89811813D01*
X140727000Y-89544609D01*
X140727000Y-89255391D01*
X140724941Y-89250418D01*
X141448000Y-89250418D01*
X141448000Y-89549582D01*
X141562485Y-89825974D01*
X141774026Y-90037515D01*
X142050418Y-90152000D01*
X142349582Y-90152000D01*
X142625974Y-90037515D01*
X142837515Y-89825974D01*
X142952000Y-89549582D01*
X142952000Y-89355391D01*
X144773000Y-89355391D01*
X144773000Y-89644609D01*
X144883679Y-89911813D01*
X145088187Y-90116321D01*
X145355391Y-90227000D01*
X145644609Y-90227000D01*
X145911813Y-90116321D01*
X146050000Y-89978134D01*
X146188187Y-90116321D01*
X146455391Y-90227000D01*
X146744609Y-90227000D01*
X147011813Y-90116321D01*
X147150000Y-89978134D01*
X147288187Y-90116321D01*
X147555391Y-90227000D01*
X147844609Y-90227000D01*
X148111813Y-90116321D01*
X148316321Y-89911813D01*
X148427000Y-89644609D01*
X148427000Y-89355391D01*
X148316321Y-89088187D01*
X148278552Y-89050418D01*
X154048000Y-89050418D01*
X154048000Y-89349582D01*
X154162485Y-89625974D01*
X154374026Y-89837515D01*
X154650418Y-89952000D01*
X154949582Y-89952000D01*
X155225974Y-89837515D01*
X155437515Y-89625974D01*
X155552000Y-89349582D01*
X155552000Y-89050418D01*
X157748000Y-89050418D01*
X157748000Y-89349582D01*
X157862485Y-89625974D01*
X158074026Y-89837515D01*
X158350418Y-89952000D01*
X158649582Y-89952000D01*
X158925974Y-89837515D01*
X159137515Y-89625974D01*
X159187461Y-89505391D01*
X164323000Y-89505391D01*
X164323000Y-89794609D01*
X164433679Y-90061813D01*
X164638187Y-90266321D01*
X164905391Y-90377000D01*
X165194609Y-90377000D01*
X165461813Y-90266321D01*
X165666321Y-90061813D01*
X165777000Y-89794609D01*
X165777000Y-89505391D01*
X165666321Y-89238187D01*
X165461813Y-89033679D01*
X165194609Y-88923000D01*
X164905391Y-88923000D01*
X164638187Y-89033679D01*
X164433679Y-89238187D01*
X164323000Y-89505391D01*
X159187461Y-89505391D01*
X159252000Y-89349582D01*
X159252000Y-89050418D01*
X159137515Y-88774026D01*
X159118880Y-88755391D01*
X169073000Y-88755391D01*
X169073000Y-89044609D01*
X169183679Y-89311813D01*
X169388187Y-89516321D01*
X169655391Y-89627000D01*
X169944609Y-89627000D01*
X170211813Y-89516321D01*
X170416321Y-89311813D01*
X170527000Y-89044609D01*
X170527000Y-88755391D01*
X170416321Y-88488187D01*
X170211813Y-88283679D01*
X169944609Y-88173000D01*
X169655391Y-88173000D01*
X169388187Y-88283679D01*
X169183679Y-88488187D01*
X169073000Y-88755391D01*
X159118880Y-88755391D01*
X158925974Y-88562485D01*
X158649582Y-88448000D01*
X158350418Y-88448000D01*
X158074026Y-88562485D01*
X157862485Y-88774026D01*
X157748000Y-89050418D01*
X155552000Y-89050418D01*
X155437515Y-88774026D01*
X155225974Y-88562485D01*
X154949582Y-88448000D01*
X154650418Y-88448000D01*
X154374026Y-88562485D01*
X154162485Y-88774026D01*
X154048000Y-89050418D01*
X148278552Y-89050418D01*
X148111813Y-88883679D01*
X147844609Y-88773000D01*
X147555391Y-88773000D01*
X147288187Y-88883679D01*
X147150000Y-89021866D01*
X147011813Y-88883679D01*
X146744609Y-88773000D01*
X146455391Y-88773000D01*
X146188187Y-88883679D01*
X146050000Y-89021866D01*
X145911813Y-88883679D01*
X145644609Y-88773000D01*
X145355391Y-88773000D01*
X145088187Y-88883679D01*
X144883679Y-89088187D01*
X144773000Y-89355391D01*
X142952000Y-89355391D01*
X142952000Y-89250418D01*
X142837515Y-88974026D01*
X142625974Y-88762485D01*
X142349582Y-88648000D01*
X142050418Y-88648000D01*
X141774026Y-88762485D01*
X141562485Y-88974026D01*
X141448000Y-89250418D01*
X140724941Y-89250418D01*
X140616321Y-88988187D01*
X140411813Y-88783679D01*
X140144609Y-88673000D01*
X139855391Y-88673000D01*
X139588187Y-88783679D01*
X139383679Y-88988187D01*
X139273000Y-89255391D01*
X139127000Y-89255391D01*
X139127000Y-89035499D01*
X139001097Y-88731542D01*
X138768458Y-88498903D01*
X138464501Y-88373000D01*
X138135499Y-88373000D01*
X137831542Y-88498903D01*
X137598903Y-88731542D01*
X137473000Y-89035499D01*
X132234056Y-89035499D01*
X132401097Y-88868458D01*
X132527000Y-88564501D01*
X132527000Y-88235499D01*
X132401097Y-87931542D01*
X132224946Y-87755391D01*
X134473000Y-87755391D01*
X134473000Y-88044609D01*
X134583679Y-88311813D01*
X134788187Y-88516321D01*
X135055391Y-88627000D01*
X135344609Y-88627000D01*
X135611813Y-88516321D01*
X135816321Y-88311813D01*
X135927000Y-88044609D01*
X135927000Y-87755391D01*
X135816321Y-87488187D01*
X135611813Y-87283679D01*
X135344609Y-87173000D01*
X135055391Y-87173000D01*
X134788187Y-87283679D01*
X134583679Y-87488187D01*
X134473000Y-87755391D01*
X132224946Y-87755391D01*
X132168458Y-87698903D01*
X131864501Y-87573000D01*
X131535499Y-87573000D01*
X131231542Y-87698903D01*
X130998903Y-87931542D01*
X130873000Y-88235499D01*
X127774802Y-88235499D01*
X127658887Y-87955657D01*
X127274343Y-87571113D01*
X126771913Y-87363000D01*
X126228087Y-87363000D01*
X125725657Y-87571113D01*
X125527000Y-87769770D01*
X125527000Y-85950418D01*
X151248000Y-85950418D01*
X151248000Y-86249582D01*
X151362485Y-86525974D01*
X151574026Y-86737515D01*
X151850418Y-86852000D01*
X152149582Y-86852000D01*
X152425974Y-86737515D01*
X152637515Y-86525974D01*
X152752000Y-86249582D01*
X152752000Y-85950418D01*
X152637515Y-85674026D01*
X152425974Y-85462485D01*
X152149582Y-85348000D01*
X151850418Y-85348000D01*
X151574026Y-85462485D01*
X151362485Y-85674026D01*
X151248000Y-85950418D01*
X125527000Y-85950418D01*
X125527000Y-84850418D01*
X152548000Y-84850418D01*
X152548000Y-85149582D01*
X152662485Y-85425974D01*
X152874026Y-85637515D01*
X153150418Y-85752000D01*
X153449582Y-85752000D01*
X153725974Y-85637515D01*
X153937515Y-85425974D01*
X154052000Y-85149582D01*
X154052000Y-84955391D01*
X169073000Y-84955391D01*
X169073000Y-85244609D01*
X169183679Y-85511813D01*
X169388187Y-85716321D01*
X169655391Y-85827000D01*
X169944609Y-85827000D01*
X170211813Y-85716321D01*
X170416321Y-85511813D01*
X170527000Y-85244609D01*
X170527000Y-84955391D01*
X170416321Y-84688187D01*
X170211813Y-84483679D01*
X169944609Y-84373000D01*
X169655391Y-84373000D01*
X169388187Y-84483679D01*
X169183679Y-84688187D01*
X169073000Y-84955391D01*
X154052000Y-84955391D01*
X154052000Y-84850418D01*
X153937515Y-84574026D01*
X153725974Y-84362485D01*
X153449582Y-84248000D01*
X153150418Y-84248000D01*
X152874026Y-84362485D01*
X152662485Y-84574026D01*
X152548000Y-84850418D01*
X125527000Y-84850418D01*
X125527000Y-82735499D01*
X139773000Y-82735499D01*
X139773000Y-83064501D01*
X139898903Y-83368458D01*
X140131542Y-83601097D01*
X140435499Y-83727000D01*
X140764501Y-83727000D01*
X141068458Y-83601097D01*
X141301097Y-83368458D01*
X141427000Y-83064501D01*
X141427000Y-82735499D01*
X141301097Y-82431542D01*
X141124946Y-82255391D01*
X161148000Y-82255391D01*
X161148000Y-82544609D01*
X161258679Y-82811813D01*
X161463187Y-83016321D01*
X161730391Y-83127000D01*
X162019609Y-83127000D01*
X162286813Y-83016321D01*
X162491321Y-82811813D01*
X162602000Y-82544609D01*
X162602000Y-82255391D01*
X162491321Y-81988187D01*
X162286813Y-81783679D01*
X162019609Y-81673000D01*
X161730391Y-81673000D01*
X161463187Y-81783679D01*
X161258679Y-81988187D01*
X161148000Y-82255391D01*
X141124946Y-82255391D01*
X141068458Y-82198903D01*
X140764501Y-82073000D01*
X140435499Y-82073000D01*
X140131542Y-82198903D01*
X139898903Y-82431542D01*
X139773000Y-82735499D01*
X125527000Y-82735499D01*
X125527000Y-80215608D01*
X137123000Y-80215608D01*
X137123000Y-80584392D01*
X137264127Y-80925103D01*
X137524897Y-81185873D01*
X137865608Y-81327000D01*
X138234392Y-81327000D01*
X138575103Y-81185873D01*
X138835873Y-80925103D01*
X138977000Y-80584392D01*
X138977000Y-80215608D01*
X138835873Y-79874897D01*
X138796475Y-79835499D01*
X142573000Y-79835499D01*
X142573000Y-80164501D01*
X142698903Y-80468458D01*
X142931542Y-80701097D01*
X143235499Y-80827000D01*
X143564501Y-80827000D01*
X143868458Y-80701097D01*
X144101097Y-80468458D01*
X144205830Y-80215608D01*
X145123000Y-80215608D01*
X145123000Y-80584392D01*
X145264127Y-80925103D01*
X145524897Y-81185873D01*
X145865608Y-81327000D01*
X146234392Y-81327000D01*
X146575103Y-81185873D01*
X146835873Y-80925103D01*
X146977000Y-80584392D01*
X146977000Y-80215608D01*
X146835873Y-79874897D01*
X146575103Y-79614127D01*
X146234392Y-79473000D01*
X145865608Y-79473000D01*
X145524897Y-79614127D01*
X145264127Y-79874897D01*
X145123000Y-80215608D01*
X144205830Y-80215608D01*
X144227000Y-80164501D01*
X144227000Y-79835499D01*
X144101097Y-79531542D01*
X143868458Y-79298903D01*
X143564501Y-79173000D01*
X143235499Y-79173000D01*
X142931542Y-79298903D01*
X142698903Y-79531542D01*
X142573000Y-79835499D01*
X138796475Y-79835499D01*
X138575103Y-79614127D01*
X138234392Y-79473000D01*
X137865608Y-79473000D01*
X137524897Y-79614127D01*
X137264127Y-79874897D01*
X137123000Y-80215608D01*
X125527000Y-80215608D01*
X125527000Y-77948097D01*
X125517197Y-77898816D01*
X125523000Y-77849046D01*
X125523000Y-77893250D01*
X125823980Y-78619881D01*
X126380119Y-79176020D01*
X127106750Y-79477000D01*
X127893250Y-79477000D01*
X128619881Y-79176020D01*
X129176020Y-78619881D01*
X129477000Y-77893250D01*
X129477000Y-77106750D01*
X129176020Y-76380119D01*
X128619881Y-75823980D01*
X127893250Y-75523000D01*
X127787060Y-75523000D01*
X127884340Y-75514318D01*
X127948097Y-75527000D01*
G04 #@! TD*
M02*
