G04 #@! TF.GenerationSoftware,KiCad,Pcbnew,(5.1.5)-3*
G04 #@! TF.CreationDate,2020-01-29T21:37:39+13:00*
G04 #@! TF.ProjectId,SimpleFC,53696d70-6c65-4464-932e-6b696361645f,rev?*
G04 #@! TF.SameCoordinates,Original*
G04 #@! TF.FileFunction,Legend,Bot*
G04 #@! TF.FilePolarity,Positive*
%FSLAX46Y46*%
G04 Gerber Fmt 4.6, Leading zero omitted, Abs format (unit mm)*
G04 Created by KiCad (PCBNEW (5.1.5)-3) date 2020-01-29 21:37:39*
%MOMM*%
%LPD*%
G04 APERTURE LIST*
%ADD10C,0.250000*%
%ADD11C,0.150000*%
%ADD12C,0.120000*%
%ADD13C,0.200000*%
G04 APERTURE END LIST*
D10*
X167000000Y-77675595D02*
X167047619Y-77770833D01*
X167047619Y-77913690D01*
X167000000Y-78056547D01*
X166904761Y-78151785D01*
X166809523Y-78199404D01*
X166619047Y-78247023D01*
X166476190Y-78247023D01*
X166285714Y-78199404D01*
X166190476Y-78151785D01*
X166095238Y-78056547D01*
X166047619Y-77913690D01*
X166047619Y-77818452D01*
X166095238Y-77675595D01*
X166142857Y-77627976D01*
X166476190Y-77627976D01*
X166476190Y-77818452D01*
X166047619Y-77199404D02*
X167047619Y-77199404D01*
X167047619Y-76818452D01*
X167000000Y-76723214D01*
X166952380Y-76675595D01*
X166857142Y-76627976D01*
X166714285Y-76627976D01*
X166619047Y-76675595D01*
X166571428Y-76723214D01*
X166523809Y-76818452D01*
X166523809Y-77199404D01*
X166095238Y-76247023D02*
X166047619Y-76104166D01*
X166047619Y-75866071D01*
X166095238Y-75770833D01*
X166142857Y-75723214D01*
X166238095Y-75675595D01*
X166333333Y-75675595D01*
X166428571Y-75723214D01*
X166476190Y-75770833D01*
X166523809Y-75866071D01*
X166571428Y-76056547D01*
X166619047Y-76151785D01*
X166666666Y-76199404D01*
X166761904Y-76247023D01*
X166857142Y-76247023D01*
X166952380Y-76199404D01*
X167000000Y-76151785D01*
X167047619Y-76056547D01*
X167047619Y-75818452D01*
X167000000Y-75675595D01*
X163547619Y-77627976D02*
X164023809Y-77961309D01*
X163547619Y-78199404D02*
X164547619Y-78199404D01*
X164547619Y-77818452D01*
X164500000Y-77723214D01*
X164452380Y-77675595D01*
X164357142Y-77627976D01*
X164214285Y-77627976D01*
X164119047Y-77675595D01*
X164071428Y-77723214D01*
X164023809Y-77818452D01*
X164023809Y-78199404D01*
X163547619Y-77199404D02*
X164547619Y-77199404D01*
X164547619Y-76961309D01*
X164500000Y-76818452D01*
X164404761Y-76723214D01*
X164309523Y-76675595D01*
X164119047Y-76627976D01*
X163976190Y-76627976D01*
X163785714Y-76675595D01*
X163690476Y-76723214D01*
X163595238Y-76818452D01*
X163547619Y-76961309D01*
X163547619Y-77199404D01*
X164023809Y-76008928D02*
X163547619Y-76008928D01*
X164547619Y-76342261D02*
X164023809Y-76008928D01*
X164547619Y-75675595D01*
X161047619Y-78199404D02*
X162047619Y-78199404D01*
X162047619Y-77961309D01*
X162000000Y-77818452D01*
X161904761Y-77723214D01*
X161809523Y-77675595D01*
X161619047Y-77627976D01*
X161476190Y-77627976D01*
X161285714Y-77675595D01*
X161190476Y-77723214D01*
X161095238Y-77818452D01*
X161047619Y-77961309D01*
X161047619Y-78199404D01*
X161571428Y-76866071D02*
X161523809Y-76723214D01*
X161476190Y-76675595D01*
X161380952Y-76627976D01*
X161238095Y-76627976D01*
X161142857Y-76675595D01*
X161095238Y-76723214D01*
X161047619Y-76818452D01*
X161047619Y-77199404D01*
X162047619Y-77199404D01*
X162047619Y-76866071D01*
X162000000Y-76770833D01*
X161952380Y-76723214D01*
X161857142Y-76675595D01*
X161761904Y-76675595D01*
X161666666Y-76723214D01*
X161619047Y-76770833D01*
X161571428Y-76866071D01*
X161571428Y-77199404D01*
X162000000Y-75675595D02*
X162047619Y-75770833D01*
X162047619Y-75913690D01*
X162000000Y-76056547D01*
X161904761Y-76151785D01*
X161809523Y-76199404D01*
X161619047Y-76247023D01*
X161476190Y-76247023D01*
X161285714Y-76199404D01*
X161190476Y-76151785D01*
X161095238Y-76056547D01*
X161047619Y-75913690D01*
X161047619Y-75818452D01*
X161095238Y-75675595D01*
X161142857Y-75627976D01*
X161476190Y-75627976D01*
X161476190Y-75818452D01*
X158547619Y-78199404D02*
X159547619Y-78199404D01*
X159547619Y-77818452D01*
X159500000Y-77723214D01*
X159452380Y-77675595D01*
X159357142Y-77627976D01*
X159214285Y-77627976D01*
X159119047Y-77675595D01*
X159071428Y-77723214D01*
X159023809Y-77818452D01*
X159023809Y-78199404D01*
X159547619Y-77294642D02*
X158547619Y-77056547D01*
X159261904Y-76866071D01*
X158547619Y-76675595D01*
X159547619Y-76437500D01*
X158547619Y-75485119D02*
X159023809Y-75818452D01*
X158547619Y-76056547D02*
X159547619Y-76056547D01*
X159547619Y-75675595D01*
X159500000Y-75580357D01*
X159452380Y-75532738D01*
X159357142Y-75485119D01*
X159214285Y-75485119D01*
X159119047Y-75532738D01*
X159071428Y-75580357D01*
X159023809Y-75675595D01*
X159023809Y-76056547D01*
X172142261Y-104252380D02*
X171808928Y-105252380D01*
X171475595Y-104252380D01*
X170570833Y-105157142D02*
X170618452Y-105204761D01*
X170761309Y-105252380D01*
X170856547Y-105252380D01*
X170999404Y-105204761D01*
X171094642Y-105109523D01*
X171142261Y-105014285D01*
X171189880Y-104823809D01*
X171189880Y-104680952D01*
X171142261Y-104490476D01*
X171094642Y-104395238D01*
X170999404Y-104300000D01*
X170856547Y-104252380D01*
X170761309Y-104252380D01*
X170618452Y-104300000D01*
X170570833Y-104347619D01*
X169570833Y-105157142D02*
X169618452Y-105204761D01*
X169761309Y-105252380D01*
X169856547Y-105252380D01*
X169999404Y-105204761D01*
X170094642Y-105109523D01*
X170142261Y-105014285D01*
X170189880Y-104823809D01*
X170189880Y-104680952D01*
X170142261Y-104490476D01*
X170094642Y-104395238D01*
X169999404Y-104300000D01*
X169856547Y-104252380D01*
X169761309Y-104252380D01*
X169618452Y-104300000D01*
X169570833Y-104347619D01*
X172142261Y-101752380D02*
X171570833Y-101752380D01*
X171856547Y-102752380D02*
X171856547Y-101752380D01*
X171332738Y-101752380D02*
X170666071Y-102752380D01*
X170666071Y-101752380D02*
X171332738Y-102752380D01*
X171427976Y-100152380D02*
X171761309Y-99676190D01*
X171999404Y-100152380D02*
X171999404Y-99152380D01*
X171618452Y-99152380D01*
X171523214Y-99200000D01*
X171475595Y-99247619D01*
X171427976Y-99342857D01*
X171427976Y-99485714D01*
X171475595Y-99580952D01*
X171523214Y-99628571D01*
X171618452Y-99676190D01*
X171999404Y-99676190D01*
X171094642Y-99152380D02*
X170427976Y-100152380D01*
X170427976Y-99152380D02*
X171094642Y-100152380D01*
X173575595Y-94900000D02*
X173670833Y-94852380D01*
X173813690Y-94852380D01*
X173956547Y-94900000D01*
X174051785Y-94995238D01*
X174099404Y-95090476D01*
X174147023Y-95280952D01*
X174147023Y-95423809D01*
X174099404Y-95614285D01*
X174051785Y-95709523D01*
X173956547Y-95804761D01*
X173813690Y-95852380D01*
X173718452Y-95852380D01*
X173575595Y-95804761D01*
X173527976Y-95757142D01*
X173527976Y-95423809D01*
X173718452Y-95423809D01*
X173099404Y-95852380D02*
X173099404Y-94852380D01*
X172527976Y-95852380D01*
X172527976Y-94852380D01*
X172051785Y-95852380D02*
X172051785Y-94852380D01*
X171813690Y-94852380D01*
X171670833Y-94900000D01*
X171575595Y-94995238D01*
X171527976Y-95090476D01*
X171480357Y-95280952D01*
X171480357Y-95423809D01*
X171527976Y-95614285D01*
X171575595Y-95709523D01*
X171670833Y-95804761D01*
X171813690Y-95852380D01*
X172051785Y-95852380D01*
X131757142Y-119152380D02*
X132233333Y-119152380D01*
X132280952Y-119628571D01*
X132233333Y-119580952D01*
X132138095Y-119533333D01*
X131900000Y-119533333D01*
X131804761Y-119580952D01*
X131757142Y-119628571D01*
X131709523Y-119723809D01*
X131709523Y-119961904D01*
X131757142Y-120057142D01*
X131804761Y-120104761D01*
X131900000Y-120152380D01*
X132138095Y-120152380D01*
X132233333Y-120104761D01*
X132280952Y-120057142D01*
X131423809Y-119152380D02*
X131090476Y-120152380D01*
X130757142Y-119152380D01*
X128995238Y-119152380D02*
X128376190Y-119152380D01*
X128709523Y-119533333D01*
X128566666Y-119533333D01*
X128471428Y-119580952D01*
X128423809Y-119628571D01*
X128376190Y-119723809D01*
X128376190Y-119961904D01*
X128423809Y-120057142D01*
X128471428Y-120104761D01*
X128566666Y-120152380D01*
X128852380Y-120152380D01*
X128947619Y-120104761D01*
X128995238Y-120057142D01*
X128090476Y-119152380D02*
X127757142Y-120152380D01*
X127423809Y-119152380D01*
D11*
X168525000Y-113350000D02*
X168525000Y-113850000D01*
X167475000Y-113850000D02*
X167475000Y-113350000D01*
D12*
X140300000Y-105050000D02*
X140300000Y-104350000D01*
X139100000Y-104350000D02*
X139100000Y-105050000D01*
X138500000Y-105050000D02*
X138500000Y-104350000D01*
X137300000Y-104350000D02*
X137300000Y-105050000D01*
X167400000Y-90850000D02*
X167400000Y-90150000D01*
X166200000Y-90150000D02*
X166200000Y-90850000D01*
X166600000Y-98450000D02*
X166600000Y-97750000D01*
X165400000Y-97750000D02*
X165400000Y-98450000D01*
X168500000Y-98450000D02*
X168500000Y-97750000D01*
X167300000Y-97750000D02*
X167300000Y-98450000D01*
X168900000Y-97750000D02*
X168900000Y-98450000D01*
X170100000Y-98450000D02*
X170100000Y-97750000D01*
X163800000Y-97750000D02*
X163800000Y-98450000D01*
X165000000Y-98450000D02*
X165000000Y-97750000D01*
X161100000Y-96350000D02*
X161100000Y-95650000D01*
X159900000Y-95650000D02*
X159900000Y-96350000D01*
X142900000Y-99550000D02*
X142900000Y-98850000D01*
X141700000Y-98850000D02*
X141700000Y-99550000D01*
X143300000Y-103650000D02*
X143300000Y-102950000D01*
X142100000Y-102950000D02*
X142100000Y-103650000D01*
X145850000Y-96100000D02*
X146550000Y-96100000D01*
X146550000Y-94900000D02*
X145850000Y-94900000D01*
X146550000Y-96500000D02*
X145850000Y-96500000D01*
X145850000Y-97700000D02*
X146550000Y-97700000D01*
X131200000Y-89650000D02*
X131200000Y-88950000D01*
X130000000Y-88950000D02*
X130000000Y-89650000D01*
X136200000Y-85620000D02*
X134200000Y-85620000D01*
X134200000Y-83580000D02*
X136200000Y-83580000D01*
X134200000Y-85980000D02*
X136200000Y-85980000D01*
X136200000Y-88020000D02*
X134200000Y-88020000D01*
X134550000Y-98050000D02*
X134550000Y-98750000D01*
X135750000Y-98750000D02*
X135750000Y-98050000D01*
X130100000Y-93850000D02*
X130100000Y-94550000D01*
X131300000Y-94550000D02*
X131300000Y-93850000D01*
X139650000Y-86250000D02*
X139650000Y-85250000D01*
X141350000Y-85250000D02*
X141350000Y-86250000D01*
X145250000Y-77550000D02*
X146250000Y-77550000D01*
X146250000Y-79250000D02*
X145250000Y-79250000D01*
X157000000Y-82650000D02*
X157000000Y-81950000D01*
X155800000Y-81950000D02*
X155800000Y-82650000D01*
X149700000Y-81950000D02*
X149700000Y-82650000D01*
X150900000Y-82650000D02*
X150900000Y-81950000D01*
X154050000Y-79000000D02*
X153350000Y-79000000D01*
X153350000Y-80200000D02*
X154050000Y-80200000D01*
X143150000Y-90400000D02*
X142450000Y-90400000D01*
X142450000Y-91600000D02*
X143150000Y-91600000D01*
X138550000Y-113600000D02*
X137850000Y-113600000D01*
X137850000Y-114800000D02*
X138550000Y-114800000D01*
X138550000Y-108000000D02*
X137850000Y-108000000D01*
X137850000Y-109200000D02*
X138550000Y-109200000D01*
X132450000Y-114800000D02*
X133150000Y-114800000D01*
X133150000Y-113600000D02*
X132450000Y-113600000D01*
X131350000Y-108000000D02*
X130650000Y-108000000D01*
X130650000Y-109200000D02*
X131350000Y-109200000D01*
X131350000Y-87000000D02*
X129650000Y-87000000D01*
X129650000Y-87000000D02*
X129650000Y-83850000D01*
X131350000Y-87000000D02*
X131350000Y-83850000D01*
X150850000Y-84200000D02*
X150850000Y-86200000D01*
X150850000Y-86200000D02*
X146950000Y-86200000D01*
X150850000Y-84200000D02*
X146950000Y-84200000D01*
X150750000Y-88700000D02*
X154650000Y-88700000D01*
X150750000Y-86700000D02*
X154650000Y-86700000D01*
X150750000Y-88700000D02*
X150750000Y-86700000D01*
X158240000Y-80900000D02*
X158240000Y-78630000D01*
X158240000Y-78630000D02*
X159760000Y-78630000D01*
X159760000Y-78630000D02*
X159760000Y-80900000D01*
X167260000Y-78630000D02*
X167260000Y-80900000D01*
X165740000Y-78630000D02*
X167260000Y-78630000D01*
X165740000Y-80900000D02*
X165740000Y-78630000D01*
X163240000Y-80900000D02*
X163240000Y-78630000D01*
X163240000Y-78630000D02*
X164760000Y-78630000D01*
X164760000Y-78630000D02*
X164760000Y-80900000D01*
X162260000Y-78630000D02*
X162260000Y-80900000D01*
X160740000Y-78630000D02*
X162260000Y-78630000D01*
X160740000Y-80900000D02*
X160740000Y-78630000D01*
X161920000Y-119240000D02*
X161920000Y-120700000D01*
X165080000Y-119240000D02*
X165080000Y-121400000D01*
X165080000Y-119240000D02*
X164150000Y-119240000D01*
X161920000Y-119240000D02*
X162850000Y-119240000D01*
D11*
X135800000Y-104925000D02*
X134800000Y-104925000D01*
X134800000Y-106275000D02*
X135800000Y-106275000D01*
D12*
X126840000Y-86780000D02*
X126840000Y-85850000D01*
X126840000Y-83620000D02*
X126840000Y-84550000D01*
X126840000Y-83620000D02*
X129000000Y-83620000D01*
X126840000Y-86780000D02*
X128300000Y-86780000D01*
D11*
X147200000Y-88675000D02*
X148200000Y-88675000D01*
X148200000Y-87325000D02*
X147200000Y-87325000D01*
X131400000Y-98475000D02*
X132400000Y-98475000D01*
X132400000Y-97125000D02*
X131400000Y-97125000D01*
X137625000Y-91500000D02*
X137625000Y-92500000D01*
X138975000Y-92500000D02*
X138975000Y-91500000D01*
X130900000Y-82575000D02*
X131900000Y-82575000D01*
X131900000Y-81225000D02*
X130900000Y-81225000D01*
X137625000Y-95500000D02*
X137625000Y-96500000D01*
X138975000Y-96500000D02*
X138975000Y-95500000D01*
X137100000Y-99975000D02*
X138100000Y-99975000D01*
X138100000Y-98625000D02*
X137100000Y-98625000D01*
X159675000Y-84000000D02*
X159675000Y-83000000D01*
X158325000Y-83000000D02*
X158325000Y-84000000D01*
X165825000Y-83000000D02*
X165825000Y-84000000D01*
X167175000Y-84000000D02*
X167175000Y-83000000D01*
X164675000Y-84000000D02*
X164675000Y-83000000D01*
X163325000Y-83000000D02*
X163325000Y-84000000D01*
X160825000Y-83000000D02*
X160825000Y-84000000D01*
X162175000Y-84000000D02*
X162175000Y-83000000D01*
X134825000Y-110700000D02*
X134825000Y-111700000D01*
X136175000Y-111700000D02*
X136175000Y-110700000D01*
X138700000Y-115225000D02*
X137700000Y-115225000D01*
X137700000Y-116575000D02*
X138700000Y-116575000D01*
X130775000Y-111700000D02*
X130775000Y-110700000D01*
X129425000Y-110700000D02*
X129425000Y-111700000D01*
X132300000Y-116575000D02*
X133300000Y-116575000D01*
X133300000Y-115225000D02*
X132300000Y-115225000D01*
D12*
X167800000Y-94500000D02*
X167800000Y-93700000D01*
D11*
X148450000Y-98650000D02*
X147925000Y-98650000D01*
X144150000Y-102950000D02*
X144675000Y-102950000D01*
X144150000Y-98650000D02*
X144675000Y-98650000D01*
D13*
X148450000Y-102950000D02*
X148450000Y-102425000D01*
D11*
X144150000Y-102950000D02*
X144150000Y-102425000D01*
X144150000Y-98650000D02*
X144150000Y-99175000D01*
X148450000Y-98650000D02*
X148450000Y-99175000D01*
D13*
X158600000Y-94075000D02*
X155800000Y-94075000D01*
D11*
X131925000Y-90325000D02*
X131975000Y-90325000D01*
X131925000Y-94475000D02*
X132070000Y-94475000D01*
X137075000Y-94475000D02*
X136930000Y-94475000D01*
X137075000Y-90325000D02*
X136930000Y-90325000D01*
X131925000Y-90325000D02*
X131925000Y-94475000D01*
X137075000Y-90325000D02*
X137075000Y-94475000D01*
X131975000Y-90325000D02*
X131975000Y-88925000D01*
X161675000Y-88575000D02*
X163075000Y-88575000D01*
X161675000Y-93675000D02*
X157525000Y-93675000D01*
X161675000Y-88525000D02*
X157525000Y-88525000D01*
X161675000Y-93675000D02*
X161675000Y-93530000D01*
X157525000Y-93675000D02*
X157525000Y-93530000D01*
X157525000Y-88525000D02*
X157525000Y-88670000D01*
X161675000Y-88525000D02*
X161675000Y-88575000D01*
D12*
X136640000Y-112300000D02*
X136640000Y-109850000D01*
X139860000Y-110500000D02*
X139860000Y-112300000D01*
X134460000Y-110500000D02*
X134460000Y-112300000D01*
X131240000Y-112300000D02*
X131240000Y-109850000D01*
X169050000Y-109300000D02*
X168350000Y-109300000D01*
X168350000Y-110500000D02*
X169050000Y-110500000D01*
D11*
X167475000Y-116250000D02*
X167475000Y-115750000D01*
X168525000Y-115750000D02*
X168525000Y-116250000D01*
D12*
X170100000Y-114100000D02*
X169600000Y-114100000D01*
X170100000Y-115500000D02*
X169600000Y-115500000D01*
X170100000Y-115500000D02*
X170100000Y-116100000D01*
X170100000Y-116100000D02*
X170300000Y-116300000D01*
X170300000Y-113300000D02*
X170100000Y-113300000D01*
X170100000Y-113300000D02*
X170100000Y-114100000D01*
X173100000Y-114100000D02*
X173100000Y-113300000D01*
X173100000Y-113300000D02*
X172900000Y-113300000D01*
X172900000Y-116300000D02*
X173100000Y-116300000D01*
X173100000Y-116300000D02*
X173100000Y-115500000D01*
D11*
X168200000Y-112275000D02*
X169200000Y-112275000D01*
X169200000Y-110925000D02*
X168200000Y-110925000D01*
D12*
X145850000Y-86600000D02*
X142550000Y-86600000D01*
X142550000Y-86600000D02*
X142550000Y-81200000D01*
X145850000Y-86600000D02*
X145850000Y-81200000D01*
X154400000Y-83860000D02*
X151950000Y-83860000D01*
X152600000Y-80640000D02*
X154400000Y-80640000D01*
D11*
X150450000Y-110275000D02*
X150450000Y-114725000D01*
X143550000Y-108750000D02*
X143550000Y-114725000D01*
X153400000Y-116900000D02*
X165600000Y-116900000D01*
X153400000Y-100900000D02*
X165600000Y-100900000D01*
M02*
