G04 #@! TF.GenerationSoftware,KiCad,Pcbnew,(5.1.2)-1*
G04 #@! TF.CreationDate,2019-05-27T15:40:10+12:00*
G04 #@! TF.ProjectId,TinyBEC,54696e79-4245-4432-9e6b-696361645f70,rev?*
G04 #@! TF.SameCoordinates,Original*
G04 #@! TF.FileFunction,Soldermask,Top*
G04 #@! TF.FilePolarity,Negative*
%FSLAX46Y46*%
G04 Gerber Fmt 4.6, Leading zero omitted, Abs format (unit mm)*
G04 Created by KiCad (PCBNEW (5.1.2)-1) date 2019-05-27 15:40:10*
%MOMM*%
%LPD*%
G04 APERTURE LIST*
%ADD10C,3.100000*%
%ADD11C,0.100000*%
%ADD12C,1.350000*%
%ADD13C,1.700000*%
%ADD14R,1.600000X1.300000*%
%ADD15C,1.250000*%
%ADD16R,2.100000X2.100000*%
%ADD17O,2.100000X2.100000*%
%ADD18R,2.800000X4.600000*%
%ADD19R,1.300000X1.200000*%
%ADD20R,1.050000X1.620000*%
%ADD21C,1.550000*%
G04 APERTURE END LIST*
D10*
X113500000Y-110500000D03*
X113500000Y-97500000D03*
D11*
G36*
X126670581Y-106801625D02*
G01*
X126703343Y-106806485D01*
X126735471Y-106814533D01*
X126766656Y-106825691D01*
X126796596Y-106839852D01*
X126825005Y-106856879D01*
X126851608Y-106876609D01*
X126876149Y-106898851D01*
X126898391Y-106923392D01*
X126918121Y-106949995D01*
X126935148Y-106978404D01*
X126949309Y-107008344D01*
X126960467Y-107039529D01*
X126968515Y-107071657D01*
X126973375Y-107104419D01*
X126975000Y-107137500D01*
X126975000Y-107912500D01*
X126973375Y-107945581D01*
X126968515Y-107978343D01*
X126960467Y-108010471D01*
X126949309Y-108041656D01*
X126935148Y-108071596D01*
X126918121Y-108100005D01*
X126898391Y-108126608D01*
X126876149Y-108151149D01*
X126851608Y-108173391D01*
X126825005Y-108193121D01*
X126796596Y-108210148D01*
X126766656Y-108224309D01*
X126735471Y-108235467D01*
X126703343Y-108243515D01*
X126670581Y-108248375D01*
X126637500Y-108250000D01*
X125962500Y-108250000D01*
X125929419Y-108248375D01*
X125896657Y-108243515D01*
X125864529Y-108235467D01*
X125833344Y-108224309D01*
X125803404Y-108210148D01*
X125774995Y-108193121D01*
X125748392Y-108173391D01*
X125723851Y-108151149D01*
X125701609Y-108126608D01*
X125681879Y-108100005D01*
X125664852Y-108071596D01*
X125650691Y-108041656D01*
X125639533Y-108010471D01*
X125631485Y-107978343D01*
X125626625Y-107945581D01*
X125625000Y-107912500D01*
X125625000Y-107137500D01*
X125626625Y-107104419D01*
X125631485Y-107071657D01*
X125639533Y-107039529D01*
X125650691Y-107008344D01*
X125664852Y-106978404D01*
X125681879Y-106949995D01*
X125701609Y-106923392D01*
X125723851Y-106898851D01*
X125748392Y-106876609D01*
X125774995Y-106856879D01*
X125803404Y-106839852D01*
X125833344Y-106825691D01*
X125864529Y-106814533D01*
X125896657Y-106806485D01*
X125929419Y-106801625D01*
X125962500Y-106800000D01*
X126637500Y-106800000D01*
X126670581Y-106801625D01*
X126670581Y-106801625D01*
G37*
D12*
X126300000Y-107525000D03*
D11*
G36*
X126670581Y-108551625D02*
G01*
X126703343Y-108556485D01*
X126735471Y-108564533D01*
X126766656Y-108575691D01*
X126796596Y-108589852D01*
X126825005Y-108606879D01*
X126851608Y-108626609D01*
X126876149Y-108648851D01*
X126898391Y-108673392D01*
X126918121Y-108699995D01*
X126935148Y-108728404D01*
X126949309Y-108758344D01*
X126960467Y-108789529D01*
X126968515Y-108821657D01*
X126973375Y-108854419D01*
X126975000Y-108887500D01*
X126975000Y-109662500D01*
X126973375Y-109695581D01*
X126968515Y-109728343D01*
X126960467Y-109760471D01*
X126949309Y-109791656D01*
X126935148Y-109821596D01*
X126918121Y-109850005D01*
X126898391Y-109876608D01*
X126876149Y-109901149D01*
X126851608Y-109923391D01*
X126825005Y-109943121D01*
X126796596Y-109960148D01*
X126766656Y-109974309D01*
X126735471Y-109985467D01*
X126703343Y-109993515D01*
X126670581Y-109998375D01*
X126637500Y-110000000D01*
X125962500Y-110000000D01*
X125929419Y-109998375D01*
X125896657Y-109993515D01*
X125864529Y-109985467D01*
X125833344Y-109974309D01*
X125803404Y-109960148D01*
X125774995Y-109943121D01*
X125748392Y-109923391D01*
X125723851Y-109901149D01*
X125701609Y-109876608D01*
X125681879Y-109850005D01*
X125664852Y-109821596D01*
X125650691Y-109791656D01*
X125639533Y-109760471D01*
X125631485Y-109728343D01*
X125626625Y-109695581D01*
X125625000Y-109662500D01*
X125625000Y-108887500D01*
X125626625Y-108854419D01*
X125631485Y-108821657D01*
X125639533Y-108789529D01*
X125650691Y-108758344D01*
X125664852Y-108728404D01*
X125681879Y-108699995D01*
X125701609Y-108673392D01*
X125723851Y-108648851D01*
X125748392Y-108626609D01*
X125774995Y-108606879D01*
X125803404Y-108589852D01*
X125833344Y-108575691D01*
X125864529Y-108564533D01*
X125896657Y-108556485D01*
X125929419Y-108551625D01*
X125962500Y-108550000D01*
X126637500Y-108550000D01*
X126670581Y-108551625D01*
X126670581Y-108551625D01*
G37*
D12*
X126300000Y-109275000D03*
D11*
G36*
X121830121Y-101701574D02*
G01*
X121861857Y-101706282D01*
X121892978Y-101714077D01*
X121923185Y-101724886D01*
X121952187Y-101738603D01*
X121979706Y-101755096D01*
X122005475Y-101774208D01*
X122029246Y-101795754D01*
X122050792Y-101819525D01*
X122069904Y-101845294D01*
X122086397Y-101872813D01*
X122100114Y-101901815D01*
X122110923Y-101932022D01*
X122118718Y-101963143D01*
X122123426Y-101994879D01*
X122125000Y-102026923D01*
X122125000Y-105173077D01*
X122123426Y-105205121D01*
X122118718Y-105236857D01*
X122110923Y-105267978D01*
X122100114Y-105298185D01*
X122086397Y-105327187D01*
X122069904Y-105354706D01*
X122050792Y-105380475D01*
X122029246Y-105404246D01*
X122005475Y-105425792D01*
X121979706Y-105444904D01*
X121952187Y-105461397D01*
X121923185Y-105475114D01*
X121892978Y-105485923D01*
X121861857Y-105493718D01*
X121830121Y-105498426D01*
X121798077Y-105500000D01*
X120751923Y-105500000D01*
X120719879Y-105498426D01*
X120688143Y-105493718D01*
X120657022Y-105485923D01*
X120626815Y-105475114D01*
X120597813Y-105461397D01*
X120570294Y-105444904D01*
X120544525Y-105425792D01*
X120520754Y-105404246D01*
X120499208Y-105380475D01*
X120480096Y-105354706D01*
X120463603Y-105327187D01*
X120449886Y-105298185D01*
X120439077Y-105267978D01*
X120431282Y-105236857D01*
X120426574Y-105205121D01*
X120425000Y-105173077D01*
X120425000Y-102026923D01*
X120426574Y-101994879D01*
X120431282Y-101963143D01*
X120439077Y-101932022D01*
X120449886Y-101901815D01*
X120463603Y-101872813D01*
X120480096Y-101845294D01*
X120499208Y-101819525D01*
X120520754Y-101795754D01*
X120544525Y-101774208D01*
X120570294Y-101755096D01*
X120597813Y-101738603D01*
X120626815Y-101724886D01*
X120657022Y-101714077D01*
X120688143Y-101706282D01*
X120719879Y-101701574D01*
X120751923Y-101700000D01*
X121798077Y-101700000D01*
X121830121Y-101701574D01*
X121830121Y-101701574D01*
G37*
D13*
X121275000Y-103600000D03*
D11*
G36*
X126280121Y-101701574D02*
G01*
X126311857Y-101706282D01*
X126342978Y-101714077D01*
X126373185Y-101724886D01*
X126402187Y-101738603D01*
X126429706Y-101755096D01*
X126455475Y-101774208D01*
X126479246Y-101795754D01*
X126500792Y-101819525D01*
X126519904Y-101845294D01*
X126536397Y-101872813D01*
X126550114Y-101901815D01*
X126560923Y-101932022D01*
X126568718Y-101963143D01*
X126573426Y-101994879D01*
X126575000Y-102026923D01*
X126575000Y-105173077D01*
X126573426Y-105205121D01*
X126568718Y-105236857D01*
X126560923Y-105267978D01*
X126550114Y-105298185D01*
X126536397Y-105327187D01*
X126519904Y-105354706D01*
X126500792Y-105380475D01*
X126479246Y-105404246D01*
X126455475Y-105425792D01*
X126429706Y-105444904D01*
X126402187Y-105461397D01*
X126373185Y-105475114D01*
X126342978Y-105485923D01*
X126311857Y-105493718D01*
X126280121Y-105498426D01*
X126248077Y-105500000D01*
X125201923Y-105500000D01*
X125169879Y-105498426D01*
X125138143Y-105493718D01*
X125107022Y-105485923D01*
X125076815Y-105475114D01*
X125047813Y-105461397D01*
X125020294Y-105444904D01*
X124994525Y-105425792D01*
X124970754Y-105404246D01*
X124949208Y-105380475D01*
X124930096Y-105354706D01*
X124913603Y-105327187D01*
X124899886Y-105298185D01*
X124889077Y-105267978D01*
X124881282Y-105236857D01*
X124876574Y-105205121D01*
X124875000Y-105173077D01*
X124875000Y-102026923D01*
X124876574Y-101994879D01*
X124881282Y-101963143D01*
X124889077Y-101932022D01*
X124899886Y-101901815D01*
X124913603Y-101872813D01*
X124930096Y-101845294D01*
X124949208Y-101819525D01*
X124970754Y-101795754D01*
X124994525Y-101774208D01*
X125020294Y-101755096D01*
X125047813Y-101738603D01*
X125076815Y-101724886D01*
X125107022Y-101714077D01*
X125138143Y-101706282D01*
X125169879Y-101701574D01*
X125201923Y-101700000D01*
X126248077Y-101700000D01*
X126280121Y-101701574D01*
X126280121Y-101701574D01*
G37*
D13*
X125725000Y-103600000D03*
D14*
X119300000Y-101650000D03*
X119300000Y-104950000D03*
D11*
G36*
X132443130Y-97901505D02*
G01*
X132473466Y-97906005D01*
X132503214Y-97913456D01*
X132532089Y-97923788D01*
X132559811Y-97936900D01*
X132586116Y-97952666D01*
X132610748Y-97970934D01*
X132633471Y-97991529D01*
X132654066Y-98014252D01*
X132672334Y-98038884D01*
X132688100Y-98065189D01*
X132701212Y-98092911D01*
X132711544Y-98121786D01*
X132718995Y-98151534D01*
X132723495Y-98181870D01*
X132725000Y-98212500D01*
X132725000Y-99212500D01*
X132723495Y-99243130D01*
X132718995Y-99273466D01*
X132711544Y-99303214D01*
X132701212Y-99332089D01*
X132688100Y-99359811D01*
X132672334Y-99386116D01*
X132654066Y-99410748D01*
X132633471Y-99433471D01*
X132610748Y-99454066D01*
X132586116Y-99472334D01*
X132559811Y-99488100D01*
X132532089Y-99501212D01*
X132503214Y-99511544D01*
X132473466Y-99518995D01*
X132443130Y-99523495D01*
X132412500Y-99525000D01*
X131787500Y-99525000D01*
X131756870Y-99523495D01*
X131726534Y-99518995D01*
X131696786Y-99511544D01*
X131667911Y-99501212D01*
X131640189Y-99488100D01*
X131613884Y-99472334D01*
X131589252Y-99454066D01*
X131566529Y-99433471D01*
X131545934Y-99410748D01*
X131527666Y-99386116D01*
X131511900Y-99359811D01*
X131498788Y-99332089D01*
X131488456Y-99303214D01*
X131481005Y-99273466D01*
X131476505Y-99243130D01*
X131475000Y-99212500D01*
X131475000Y-98212500D01*
X131476505Y-98181870D01*
X131481005Y-98151534D01*
X131488456Y-98121786D01*
X131498788Y-98092911D01*
X131511900Y-98065189D01*
X131527666Y-98038884D01*
X131545934Y-98014252D01*
X131566529Y-97991529D01*
X131589252Y-97970934D01*
X131613884Y-97952666D01*
X131640189Y-97936900D01*
X131667911Y-97923788D01*
X131696786Y-97913456D01*
X131726534Y-97906005D01*
X131756870Y-97901505D01*
X131787500Y-97900000D01*
X132412500Y-97900000D01*
X132443130Y-97901505D01*
X132443130Y-97901505D01*
G37*
D15*
X132100000Y-98712500D03*
D11*
G36*
X132443130Y-96276505D02*
G01*
X132473466Y-96281005D01*
X132503214Y-96288456D01*
X132532089Y-96298788D01*
X132559811Y-96311900D01*
X132586116Y-96327666D01*
X132610748Y-96345934D01*
X132633471Y-96366529D01*
X132654066Y-96389252D01*
X132672334Y-96413884D01*
X132688100Y-96440189D01*
X132701212Y-96467911D01*
X132711544Y-96496786D01*
X132718995Y-96526534D01*
X132723495Y-96556870D01*
X132725000Y-96587500D01*
X132725000Y-97587500D01*
X132723495Y-97618130D01*
X132718995Y-97648466D01*
X132711544Y-97678214D01*
X132701212Y-97707089D01*
X132688100Y-97734811D01*
X132672334Y-97761116D01*
X132654066Y-97785748D01*
X132633471Y-97808471D01*
X132610748Y-97829066D01*
X132586116Y-97847334D01*
X132559811Y-97863100D01*
X132532089Y-97876212D01*
X132503214Y-97886544D01*
X132473466Y-97893995D01*
X132443130Y-97898495D01*
X132412500Y-97900000D01*
X131787500Y-97900000D01*
X131756870Y-97898495D01*
X131726534Y-97893995D01*
X131696786Y-97886544D01*
X131667911Y-97876212D01*
X131640189Y-97863100D01*
X131613884Y-97847334D01*
X131589252Y-97829066D01*
X131566529Y-97808471D01*
X131545934Y-97785748D01*
X131527666Y-97761116D01*
X131511900Y-97734811D01*
X131498788Y-97707089D01*
X131488456Y-97678214D01*
X131481005Y-97648466D01*
X131476505Y-97618130D01*
X131475000Y-97587500D01*
X131475000Y-96587500D01*
X131476505Y-96556870D01*
X131481005Y-96526534D01*
X131488456Y-96496786D01*
X131498788Y-96467911D01*
X131511900Y-96440189D01*
X131527666Y-96413884D01*
X131545934Y-96389252D01*
X131566529Y-96366529D01*
X131589252Y-96345934D01*
X131613884Y-96327666D01*
X131640189Y-96311900D01*
X131667911Y-96298788D01*
X131696786Y-96288456D01*
X131726534Y-96281005D01*
X131756870Y-96276505D01*
X131787500Y-96275000D01*
X132412500Y-96275000D01*
X132443130Y-96276505D01*
X132443130Y-96276505D01*
G37*
D15*
X132100000Y-97087500D03*
D16*
X112800000Y-105300000D03*
D17*
X112800000Y-102760000D03*
X132100000Y-102760000D03*
D16*
X132100000Y-105300000D03*
D18*
X123450000Y-98800000D03*
X127950000Y-98800000D03*
D19*
X117300000Y-103650000D03*
X117300000Y-101750000D03*
X115300000Y-102700000D03*
D11*
G36*
X121370581Y-105901625D02*
G01*
X121403343Y-105906485D01*
X121435471Y-105914533D01*
X121466656Y-105925691D01*
X121496596Y-105939852D01*
X121525005Y-105956879D01*
X121551608Y-105976609D01*
X121576149Y-105998851D01*
X121598391Y-106023392D01*
X121618121Y-106049995D01*
X121635148Y-106078404D01*
X121649309Y-106108344D01*
X121660467Y-106139529D01*
X121668515Y-106171657D01*
X121673375Y-106204419D01*
X121675000Y-106237500D01*
X121675000Y-107012500D01*
X121673375Y-107045581D01*
X121668515Y-107078343D01*
X121660467Y-107110471D01*
X121649309Y-107141656D01*
X121635148Y-107171596D01*
X121618121Y-107200005D01*
X121598391Y-107226608D01*
X121576149Y-107251149D01*
X121551608Y-107273391D01*
X121525005Y-107293121D01*
X121496596Y-107310148D01*
X121466656Y-107324309D01*
X121435471Y-107335467D01*
X121403343Y-107343515D01*
X121370581Y-107348375D01*
X121337500Y-107350000D01*
X120662500Y-107350000D01*
X120629419Y-107348375D01*
X120596657Y-107343515D01*
X120564529Y-107335467D01*
X120533344Y-107324309D01*
X120503404Y-107310148D01*
X120474995Y-107293121D01*
X120448392Y-107273391D01*
X120423851Y-107251149D01*
X120401609Y-107226608D01*
X120381879Y-107200005D01*
X120364852Y-107171596D01*
X120350691Y-107141656D01*
X120339533Y-107110471D01*
X120331485Y-107078343D01*
X120326625Y-107045581D01*
X120325000Y-107012500D01*
X120325000Y-106237500D01*
X120326625Y-106204419D01*
X120331485Y-106171657D01*
X120339533Y-106139529D01*
X120350691Y-106108344D01*
X120364852Y-106078404D01*
X120381879Y-106049995D01*
X120401609Y-106023392D01*
X120423851Y-105998851D01*
X120448392Y-105976609D01*
X120474995Y-105956879D01*
X120503404Y-105939852D01*
X120533344Y-105925691D01*
X120564529Y-105914533D01*
X120596657Y-105906485D01*
X120629419Y-105901625D01*
X120662500Y-105900000D01*
X121337500Y-105900000D01*
X121370581Y-105901625D01*
X121370581Y-105901625D01*
G37*
D12*
X121000000Y-106625000D03*
D11*
G36*
X121370581Y-107651625D02*
G01*
X121403343Y-107656485D01*
X121435471Y-107664533D01*
X121466656Y-107675691D01*
X121496596Y-107689852D01*
X121525005Y-107706879D01*
X121551608Y-107726609D01*
X121576149Y-107748851D01*
X121598391Y-107773392D01*
X121618121Y-107799995D01*
X121635148Y-107828404D01*
X121649309Y-107858344D01*
X121660467Y-107889529D01*
X121668515Y-107921657D01*
X121673375Y-107954419D01*
X121675000Y-107987500D01*
X121675000Y-108762500D01*
X121673375Y-108795581D01*
X121668515Y-108828343D01*
X121660467Y-108860471D01*
X121649309Y-108891656D01*
X121635148Y-108921596D01*
X121618121Y-108950005D01*
X121598391Y-108976608D01*
X121576149Y-109001149D01*
X121551608Y-109023391D01*
X121525005Y-109043121D01*
X121496596Y-109060148D01*
X121466656Y-109074309D01*
X121435471Y-109085467D01*
X121403343Y-109093515D01*
X121370581Y-109098375D01*
X121337500Y-109100000D01*
X120662500Y-109100000D01*
X120629419Y-109098375D01*
X120596657Y-109093515D01*
X120564529Y-109085467D01*
X120533344Y-109074309D01*
X120503404Y-109060148D01*
X120474995Y-109043121D01*
X120448392Y-109023391D01*
X120423851Y-109001149D01*
X120401609Y-108976608D01*
X120381879Y-108950005D01*
X120364852Y-108921596D01*
X120350691Y-108891656D01*
X120339533Y-108860471D01*
X120331485Y-108828343D01*
X120326625Y-108795581D01*
X120325000Y-108762500D01*
X120325000Y-107987500D01*
X120326625Y-107954419D01*
X120331485Y-107921657D01*
X120339533Y-107889529D01*
X120350691Y-107858344D01*
X120364852Y-107828404D01*
X120381879Y-107799995D01*
X120401609Y-107773392D01*
X120423851Y-107748851D01*
X120448392Y-107726609D01*
X120474995Y-107706879D01*
X120503404Y-107689852D01*
X120533344Y-107675691D01*
X120564529Y-107664533D01*
X120596657Y-107656485D01*
X120629419Y-107651625D01*
X120662500Y-107650000D01*
X121337500Y-107650000D01*
X121370581Y-107651625D01*
X121370581Y-107651625D01*
G37*
D12*
X121000000Y-108375000D03*
D11*
G36*
X123045581Y-110326625D02*
G01*
X123078343Y-110331485D01*
X123110471Y-110339533D01*
X123141656Y-110350691D01*
X123171596Y-110364852D01*
X123200005Y-110381879D01*
X123226608Y-110401609D01*
X123251149Y-110423851D01*
X123273391Y-110448392D01*
X123293121Y-110474995D01*
X123310148Y-110503404D01*
X123324309Y-110533344D01*
X123335467Y-110564529D01*
X123343515Y-110596657D01*
X123348375Y-110629419D01*
X123350000Y-110662500D01*
X123350000Y-111337500D01*
X123348375Y-111370581D01*
X123343515Y-111403343D01*
X123335467Y-111435471D01*
X123324309Y-111466656D01*
X123310148Y-111496596D01*
X123293121Y-111525005D01*
X123273391Y-111551608D01*
X123251149Y-111576149D01*
X123226608Y-111598391D01*
X123200005Y-111618121D01*
X123171596Y-111635148D01*
X123141656Y-111649309D01*
X123110471Y-111660467D01*
X123078343Y-111668515D01*
X123045581Y-111673375D01*
X123012500Y-111675000D01*
X122237500Y-111675000D01*
X122204419Y-111673375D01*
X122171657Y-111668515D01*
X122139529Y-111660467D01*
X122108344Y-111649309D01*
X122078404Y-111635148D01*
X122049995Y-111618121D01*
X122023392Y-111598391D01*
X121998851Y-111576149D01*
X121976609Y-111551608D01*
X121956879Y-111525005D01*
X121939852Y-111496596D01*
X121925691Y-111466656D01*
X121914533Y-111435471D01*
X121906485Y-111403343D01*
X121901625Y-111370581D01*
X121900000Y-111337500D01*
X121900000Y-110662500D01*
X121901625Y-110629419D01*
X121906485Y-110596657D01*
X121914533Y-110564529D01*
X121925691Y-110533344D01*
X121939852Y-110503404D01*
X121956879Y-110474995D01*
X121976609Y-110448392D01*
X121998851Y-110423851D01*
X122023392Y-110401609D01*
X122049995Y-110381879D01*
X122078404Y-110364852D01*
X122108344Y-110350691D01*
X122139529Y-110339533D01*
X122171657Y-110331485D01*
X122204419Y-110326625D01*
X122237500Y-110325000D01*
X123012500Y-110325000D01*
X123045581Y-110326625D01*
X123045581Y-110326625D01*
G37*
D12*
X122625000Y-111000000D03*
D11*
G36*
X124795581Y-110326625D02*
G01*
X124828343Y-110331485D01*
X124860471Y-110339533D01*
X124891656Y-110350691D01*
X124921596Y-110364852D01*
X124950005Y-110381879D01*
X124976608Y-110401609D01*
X125001149Y-110423851D01*
X125023391Y-110448392D01*
X125043121Y-110474995D01*
X125060148Y-110503404D01*
X125074309Y-110533344D01*
X125085467Y-110564529D01*
X125093515Y-110596657D01*
X125098375Y-110629419D01*
X125100000Y-110662500D01*
X125100000Y-111337500D01*
X125098375Y-111370581D01*
X125093515Y-111403343D01*
X125085467Y-111435471D01*
X125074309Y-111466656D01*
X125060148Y-111496596D01*
X125043121Y-111525005D01*
X125023391Y-111551608D01*
X125001149Y-111576149D01*
X124976608Y-111598391D01*
X124950005Y-111618121D01*
X124921596Y-111635148D01*
X124891656Y-111649309D01*
X124860471Y-111660467D01*
X124828343Y-111668515D01*
X124795581Y-111673375D01*
X124762500Y-111675000D01*
X123987500Y-111675000D01*
X123954419Y-111673375D01*
X123921657Y-111668515D01*
X123889529Y-111660467D01*
X123858344Y-111649309D01*
X123828404Y-111635148D01*
X123799995Y-111618121D01*
X123773392Y-111598391D01*
X123748851Y-111576149D01*
X123726609Y-111551608D01*
X123706879Y-111525005D01*
X123689852Y-111496596D01*
X123675691Y-111466656D01*
X123664533Y-111435471D01*
X123656485Y-111403343D01*
X123651625Y-111370581D01*
X123650000Y-111337500D01*
X123650000Y-110662500D01*
X123651625Y-110629419D01*
X123656485Y-110596657D01*
X123664533Y-110564529D01*
X123675691Y-110533344D01*
X123689852Y-110503404D01*
X123706879Y-110474995D01*
X123726609Y-110448392D01*
X123748851Y-110423851D01*
X123773392Y-110401609D01*
X123799995Y-110381879D01*
X123828404Y-110364852D01*
X123858344Y-110350691D01*
X123889529Y-110339533D01*
X123921657Y-110331485D01*
X123954419Y-110326625D01*
X123987500Y-110325000D01*
X124762500Y-110325000D01*
X124795581Y-110326625D01*
X124795581Y-110326625D01*
G37*
D12*
X124375000Y-111000000D03*
D11*
G36*
X128370581Y-106801625D02*
G01*
X128403343Y-106806485D01*
X128435471Y-106814533D01*
X128466656Y-106825691D01*
X128496596Y-106839852D01*
X128525005Y-106856879D01*
X128551608Y-106876609D01*
X128576149Y-106898851D01*
X128598391Y-106923392D01*
X128618121Y-106949995D01*
X128635148Y-106978404D01*
X128649309Y-107008344D01*
X128660467Y-107039529D01*
X128668515Y-107071657D01*
X128673375Y-107104419D01*
X128675000Y-107137500D01*
X128675000Y-107912500D01*
X128673375Y-107945581D01*
X128668515Y-107978343D01*
X128660467Y-108010471D01*
X128649309Y-108041656D01*
X128635148Y-108071596D01*
X128618121Y-108100005D01*
X128598391Y-108126608D01*
X128576149Y-108151149D01*
X128551608Y-108173391D01*
X128525005Y-108193121D01*
X128496596Y-108210148D01*
X128466656Y-108224309D01*
X128435471Y-108235467D01*
X128403343Y-108243515D01*
X128370581Y-108248375D01*
X128337500Y-108250000D01*
X127662500Y-108250000D01*
X127629419Y-108248375D01*
X127596657Y-108243515D01*
X127564529Y-108235467D01*
X127533344Y-108224309D01*
X127503404Y-108210148D01*
X127474995Y-108193121D01*
X127448392Y-108173391D01*
X127423851Y-108151149D01*
X127401609Y-108126608D01*
X127381879Y-108100005D01*
X127364852Y-108071596D01*
X127350691Y-108041656D01*
X127339533Y-108010471D01*
X127331485Y-107978343D01*
X127326625Y-107945581D01*
X127325000Y-107912500D01*
X127325000Y-107137500D01*
X127326625Y-107104419D01*
X127331485Y-107071657D01*
X127339533Y-107039529D01*
X127350691Y-107008344D01*
X127364852Y-106978404D01*
X127381879Y-106949995D01*
X127401609Y-106923392D01*
X127423851Y-106898851D01*
X127448392Y-106876609D01*
X127474995Y-106856879D01*
X127503404Y-106839852D01*
X127533344Y-106825691D01*
X127564529Y-106814533D01*
X127596657Y-106806485D01*
X127629419Y-106801625D01*
X127662500Y-106800000D01*
X128337500Y-106800000D01*
X128370581Y-106801625D01*
X128370581Y-106801625D01*
G37*
D12*
X128000000Y-107525000D03*
D11*
G36*
X128370581Y-108551625D02*
G01*
X128403343Y-108556485D01*
X128435471Y-108564533D01*
X128466656Y-108575691D01*
X128496596Y-108589852D01*
X128525005Y-108606879D01*
X128551608Y-108626609D01*
X128576149Y-108648851D01*
X128598391Y-108673392D01*
X128618121Y-108699995D01*
X128635148Y-108728404D01*
X128649309Y-108758344D01*
X128660467Y-108789529D01*
X128668515Y-108821657D01*
X128673375Y-108854419D01*
X128675000Y-108887500D01*
X128675000Y-109662500D01*
X128673375Y-109695581D01*
X128668515Y-109728343D01*
X128660467Y-109760471D01*
X128649309Y-109791656D01*
X128635148Y-109821596D01*
X128618121Y-109850005D01*
X128598391Y-109876608D01*
X128576149Y-109901149D01*
X128551608Y-109923391D01*
X128525005Y-109943121D01*
X128496596Y-109960148D01*
X128466656Y-109974309D01*
X128435471Y-109985467D01*
X128403343Y-109993515D01*
X128370581Y-109998375D01*
X128337500Y-110000000D01*
X127662500Y-110000000D01*
X127629419Y-109998375D01*
X127596657Y-109993515D01*
X127564529Y-109985467D01*
X127533344Y-109974309D01*
X127503404Y-109960148D01*
X127474995Y-109943121D01*
X127448392Y-109923391D01*
X127423851Y-109901149D01*
X127401609Y-109876608D01*
X127381879Y-109850005D01*
X127364852Y-109821596D01*
X127350691Y-109791656D01*
X127339533Y-109760471D01*
X127331485Y-109728343D01*
X127326625Y-109695581D01*
X127325000Y-109662500D01*
X127325000Y-108887500D01*
X127326625Y-108854419D01*
X127331485Y-108821657D01*
X127339533Y-108789529D01*
X127350691Y-108758344D01*
X127364852Y-108728404D01*
X127381879Y-108699995D01*
X127401609Y-108673392D01*
X127423851Y-108648851D01*
X127448392Y-108626609D01*
X127474995Y-108606879D01*
X127503404Y-108589852D01*
X127533344Y-108575691D01*
X127564529Y-108564533D01*
X127596657Y-108556485D01*
X127629419Y-108551625D01*
X127662500Y-108550000D01*
X128337500Y-108550000D01*
X128370581Y-108551625D01*
X128370581Y-108551625D01*
G37*
D12*
X128000000Y-109275000D03*
D11*
G36*
X130870581Y-96326625D02*
G01*
X130903343Y-96331485D01*
X130935471Y-96339533D01*
X130966656Y-96350691D01*
X130996596Y-96364852D01*
X131025005Y-96381879D01*
X131051608Y-96401609D01*
X131076149Y-96423851D01*
X131098391Y-96448392D01*
X131118121Y-96474995D01*
X131135148Y-96503404D01*
X131149309Y-96533344D01*
X131160467Y-96564529D01*
X131168515Y-96596657D01*
X131173375Y-96629419D01*
X131175000Y-96662500D01*
X131175000Y-97437500D01*
X131173375Y-97470581D01*
X131168515Y-97503343D01*
X131160467Y-97535471D01*
X131149309Y-97566656D01*
X131135148Y-97596596D01*
X131118121Y-97625005D01*
X131098391Y-97651608D01*
X131076149Y-97676149D01*
X131051608Y-97698391D01*
X131025005Y-97718121D01*
X130996596Y-97735148D01*
X130966656Y-97749309D01*
X130935471Y-97760467D01*
X130903343Y-97768515D01*
X130870581Y-97773375D01*
X130837500Y-97775000D01*
X130162500Y-97775000D01*
X130129419Y-97773375D01*
X130096657Y-97768515D01*
X130064529Y-97760467D01*
X130033344Y-97749309D01*
X130003404Y-97735148D01*
X129974995Y-97718121D01*
X129948392Y-97698391D01*
X129923851Y-97676149D01*
X129901609Y-97651608D01*
X129881879Y-97625005D01*
X129864852Y-97596596D01*
X129850691Y-97566656D01*
X129839533Y-97535471D01*
X129831485Y-97503343D01*
X129826625Y-97470581D01*
X129825000Y-97437500D01*
X129825000Y-96662500D01*
X129826625Y-96629419D01*
X129831485Y-96596657D01*
X129839533Y-96564529D01*
X129850691Y-96533344D01*
X129864852Y-96503404D01*
X129881879Y-96474995D01*
X129901609Y-96448392D01*
X129923851Y-96423851D01*
X129948392Y-96401609D01*
X129974995Y-96381879D01*
X130003404Y-96364852D01*
X130033344Y-96350691D01*
X130064529Y-96339533D01*
X130096657Y-96331485D01*
X130129419Y-96326625D01*
X130162500Y-96325000D01*
X130837500Y-96325000D01*
X130870581Y-96326625D01*
X130870581Y-96326625D01*
G37*
D12*
X130500000Y-97050000D03*
D11*
G36*
X130870581Y-98076625D02*
G01*
X130903343Y-98081485D01*
X130935471Y-98089533D01*
X130966656Y-98100691D01*
X130996596Y-98114852D01*
X131025005Y-98131879D01*
X131051608Y-98151609D01*
X131076149Y-98173851D01*
X131098391Y-98198392D01*
X131118121Y-98224995D01*
X131135148Y-98253404D01*
X131149309Y-98283344D01*
X131160467Y-98314529D01*
X131168515Y-98346657D01*
X131173375Y-98379419D01*
X131175000Y-98412500D01*
X131175000Y-99187500D01*
X131173375Y-99220581D01*
X131168515Y-99253343D01*
X131160467Y-99285471D01*
X131149309Y-99316656D01*
X131135148Y-99346596D01*
X131118121Y-99375005D01*
X131098391Y-99401608D01*
X131076149Y-99426149D01*
X131051608Y-99448391D01*
X131025005Y-99468121D01*
X130996596Y-99485148D01*
X130966656Y-99499309D01*
X130935471Y-99510467D01*
X130903343Y-99518515D01*
X130870581Y-99523375D01*
X130837500Y-99525000D01*
X130162500Y-99525000D01*
X130129419Y-99523375D01*
X130096657Y-99518515D01*
X130064529Y-99510467D01*
X130033344Y-99499309D01*
X130003404Y-99485148D01*
X129974995Y-99468121D01*
X129948392Y-99448391D01*
X129923851Y-99426149D01*
X129901609Y-99401608D01*
X129881879Y-99375005D01*
X129864852Y-99346596D01*
X129850691Y-99316656D01*
X129839533Y-99285471D01*
X129831485Y-99253343D01*
X129826625Y-99220581D01*
X129825000Y-99187500D01*
X129825000Y-98412500D01*
X129826625Y-98379419D01*
X129831485Y-98346657D01*
X129839533Y-98314529D01*
X129850691Y-98283344D01*
X129864852Y-98253404D01*
X129881879Y-98224995D01*
X129901609Y-98198392D01*
X129923851Y-98173851D01*
X129948392Y-98151609D01*
X129974995Y-98131879D01*
X130003404Y-98114852D01*
X130033344Y-98100691D01*
X130064529Y-98089533D01*
X130096657Y-98081485D01*
X130129419Y-98076625D01*
X130162500Y-98075000D01*
X130837500Y-98075000D01*
X130870581Y-98076625D01*
X130870581Y-98076625D01*
G37*
D12*
X130500000Y-98800000D03*
D11*
G36*
X128420581Y-110326625D02*
G01*
X128453343Y-110331485D01*
X128485471Y-110339533D01*
X128516656Y-110350691D01*
X128546596Y-110364852D01*
X128575005Y-110381879D01*
X128601608Y-110401609D01*
X128626149Y-110423851D01*
X128648391Y-110448392D01*
X128668121Y-110474995D01*
X128685148Y-110503404D01*
X128699309Y-110533344D01*
X128710467Y-110564529D01*
X128718515Y-110596657D01*
X128723375Y-110629419D01*
X128725000Y-110662500D01*
X128725000Y-111337500D01*
X128723375Y-111370581D01*
X128718515Y-111403343D01*
X128710467Y-111435471D01*
X128699309Y-111466656D01*
X128685148Y-111496596D01*
X128668121Y-111525005D01*
X128648391Y-111551608D01*
X128626149Y-111576149D01*
X128601608Y-111598391D01*
X128575005Y-111618121D01*
X128546596Y-111635148D01*
X128516656Y-111649309D01*
X128485471Y-111660467D01*
X128453343Y-111668515D01*
X128420581Y-111673375D01*
X128387500Y-111675000D01*
X127612500Y-111675000D01*
X127579419Y-111673375D01*
X127546657Y-111668515D01*
X127514529Y-111660467D01*
X127483344Y-111649309D01*
X127453404Y-111635148D01*
X127424995Y-111618121D01*
X127398392Y-111598391D01*
X127373851Y-111576149D01*
X127351609Y-111551608D01*
X127331879Y-111525005D01*
X127314852Y-111496596D01*
X127300691Y-111466656D01*
X127289533Y-111435471D01*
X127281485Y-111403343D01*
X127276625Y-111370581D01*
X127275000Y-111337500D01*
X127275000Y-110662500D01*
X127276625Y-110629419D01*
X127281485Y-110596657D01*
X127289533Y-110564529D01*
X127300691Y-110533344D01*
X127314852Y-110503404D01*
X127331879Y-110474995D01*
X127351609Y-110448392D01*
X127373851Y-110423851D01*
X127398392Y-110401609D01*
X127424995Y-110381879D01*
X127453404Y-110364852D01*
X127483344Y-110350691D01*
X127514529Y-110339533D01*
X127546657Y-110331485D01*
X127579419Y-110326625D01*
X127612500Y-110325000D01*
X128387500Y-110325000D01*
X128420581Y-110326625D01*
X128420581Y-110326625D01*
G37*
D12*
X128000000Y-111000000D03*
D11*
G36*
X130170581Y-110326625D02*
G01*
X130203343Y-110331485D01*
X130235471Y-110339533D01*
X130266656Y-110350691D01*
X130296596Y-110364852D01*
X130325005Y-110381879D01*
X130351608Y-110401609D01*
X130376149Y-110423851D01*
X130398391Y-110448392D01*
X130418121Y-110474995D01*
X130435148Y-110503404D01*
X130449309Y-110533344D01*
X130460467Y-110564529D01*
X130468515Y-110596657D01*
X130473375Y-110629419D01*
X130475000Y-110662500D01*
X130475000Y-111337500D01*
X130473375Y-111370581D01*
X130468515Y-111403343D01*
X130460467Y-111435471D01*
X130449309Y-111466656D01*
X130435148Y-111496596D01*
X130418121Y-111525005D01*
X130398391Y-111551608D01*
X130376149Y-111576149D01*
X130351608Y-111598391D01*
X130325005Y-111618121D01*
X130296596Y-111635148D01*
X130266656Y-111649309D01*
X130235471Y-111660467D01*
X130203343Y-111668515D01*
X130170581Y-111673375D01*
X130137500Y-111675000D01*
X129362500Y-111675000D01*
X129329419Y-111673375D01*
X129296657Y-111668515D01*
X129264529Y-111660467D01*
X129233344Y-111649309D01*
X129203404Y-111635148D01*
X129174995Y-111618121D01*
X129148392Y-111598391D01*
X129123851Y-111576149D01*
X129101609Y-111551608D01*
X129081879Y-111525005D01*
X129064852Y-111496596D01*
X129050691Y-111466656D01*
X129039533Y-111435471D01*
X129031485Y-111403343D01*
X129026625Y-111370581D01*
X129025000Y-111337500D01*
X129025000Y-110662500D01*
X129026625Y-110629419D01*
X129031485Y-110596657D01*
X129039533Y-110564529D01*
X129050691Y-110533344D01*
X129064852Y-110503404D01*
X129081879Y-110474995D01*
X129101609Y-110448392D01*
X129123851Y-110423851D01*
X129148392Y-110401609D01*
X129174995Y-110381879D01*
X129203404Y-110364852D01*
X129233344Y-110350691D01*
X129264529Y-110339533D01*
X129296657Y-110331485D01*
X129329419Y-110326625D01*
X129362500Y-110325000D01*
X130137500Y-110325000D01*
X130170581Y-110326625D01*
X130170581Y-110326625D01*
G37*
D12*
X129750000Y-111000000D03*
D11*
G36*
X119670581Y-105901625D02*
G01*
X119703343Y-105906485D01*
X119735471Y-105914533D01*
X119766656Y-105925691D01*
X119796596Y-105939852D01*
X119825005Y-105956879D01*
X119851608Y-105976609D01*
X119876149Y-105998851D01*
X119898391Y-106023392D01*
X119918121Y-106049995D01*
X119935148Y-106078404D01*
X119949309Y-106108344D01*
X119960467Y-106139529D01*
X119968515Y-106171657D01*
X119973375Y-106204419D01*
X119975000Y-106237500D01*
X119975000Y-107012500D01*
X119973375Y-107045581D01*
X119968515Y-107078343D01*
X119960467Y-107110471D01*
X119949309Y-107141656D01*
X119935148Y-107171596D01*
X119918121Y-107200005D01*
X119898391Y-107226608D01*
X119876149Y-107251149D01*
X119851608Y-107273391D01*
X119825005Y-107293121D01*
X119796596Y-107310148D01*
X119766656Y-107324309D01*
X119735471Y-107335467D01*
X119703343Y-107343515D01*
X119670581Y-107348375D01*
X119637500Y-107350000D01*
X118962500Y-107350000D01*
X118929419Y-107348375D01*
X118896657Y-107343515D01*
X118864529Y-107335467D01*
X118833344Y-107324309D01*
X118803404Y-107310148D01*
X118774995Y-107293121D01*
X118748392Y-107273391D01*
X118723851Y-107251149D01*
X118701609Y-107226608D01*
X118681879Y-107200005D01*
X118664852Y-107171596D01*
X118650691Y-107141656D01*
X118639533Y-107110471D01*
X118631485Y-107078343D01*
X118626625Y-107045581D01*
X118625000Y-107012500D01*
X118625000Y-106237500D01*
X118626625Y-106204419D01*
X118631485Y-106171657D01*
X118639533Y-106139529D01*
X118650691Y-106108344D01*
X118664852Y-106078404D01*
X118681879Y-106049995D01*
X118701609Y-106023392D01*
X118723851Y-105998851D01*
X118748392Y-105976609D01*
X118774995Y-105956879D01*
X118803404Y-105939852D01*
X118833344Y-105925691D01*
X118864529Y-105914533D01*
X118896657Y-105906485D01*
X118929419Y-105901625D01*
X118962500Y-105900000D01*
X119637500Y-105900000D01*
X119670581Y-105901625D01*
X119670581Y-105901625D01*
G37*
D12*
X119300000Y-106625000D03*
D11*
G36*
X119670581Y-107651625D02*
G01*
X119703343Y-107656485D01*
X119735471Y-107664533D01*
X119766656Y-107675691D01*
X119796596Y-107689852D01*
X119825005Y-107706879D01*
X119851608Y-107726609D01*
X119876149Y-107748851D01*
X119898391Y-107773392D01*
X119918121Y-107799995D01*
X119935148Y-107828404D01*
X119949309Y-107858344D01*
X119960467Y-107889529D01*
X119968515Y-107921657D01*
X119973375Y-107954419D01*
X119975000Y-107987500D01*
X119975000Y-108762500D01*
X119973375Y-108795581D01*
X119968515Y-108828343D01*
X119960467Y-108860471D01*
X119949309Y-108891656D01*
X119935148Y-108921596D01*
X119918121Y-108950005D01*
X119898391Y-108976608D01*
X119876149Y-109001149D01*
X119851608Y-109023391D01*
X119825005Y-109043121D01*
X119796596Y-109060148D01*
X119766656Y-109074309D01*
X119735471Y-109085467D01*
X119703343Y-109093515D01*
X119670581Y-109098375D01*
X119637500Y-109100000D01*
X118962500Y-109100000D01*
X118929419Y-109098375D01*
X118896657Y-109093515D01*
X118864529Y-109085467D01*
X118833344Y-109074309D01*
X118803404Y-109060148D01*
X118774995Y-109043121D01*
X118748392Y-109023391D01*
X118723851Y-109001149D01*
X118701609Y-108976608D01*
X118681879Y-108950005D01*
X118664852Y-108921596D01*
X118650691Y-108891656D01*
X118639533Y-108860471D01*
X118631485Y-108828343D01*
X118626625Y-108795581D01*
X118625000Y-108762500D01*
X118625000Y-107987500D01*
X118626625Y-107954419D01*
X118631485Y-107921657D01*
X118639533Y-107889529D01*
X118650691Y-107858344D01*
X118664852Y-107828404D01*
X118681879Y-107799995D01*
X118701609Y-107773392D01*
X118723851Y-107748851D01*
X118748392Y-107726609D01*
X118774995Y-107706879D01*
X118803404Y-107689852D01*
X118833344Y-107675691D01*
X118864529Y-107664533D01*
X118896657Y-107656485D01*
X118929419Y-107651625D01*
X118962500Y-107650000D01*
X119637500Y-107650000D01*
X119670581Y-107651625D01*
X119670581Y-107651625D01*
G37*
D12*
X119300000Y-108375000D03*
D20*
X124450000Y-106690000D03*
X123500000Y-106690000D03*
X122550000Y-106690000D03*
X122550000Y-109310000D03*
X123500000Y-109310000D03*
X124450000Y-109310000D03*
D11*
G36*
X128996071Y-101901623D02*
G01*
X129028781Y-101906475D01*
X129060857Y-101914509D01*
X129091991Y-101925649D01*
X129121884Y-101939787D01*
X129150247Y-101956787D01*
X129176807Y-101976485D01*
X129201308Y-101998692D01*
X129223515Y-102023193D01*
X129243213Y-102049753D01*
X129260213Y-102078116D01*
X129274351Y-102108009D01*
X129285491Y-102139143D01*
X129293525Y-102171219D01*
X129298377Y-102203929D01*
X129300000Y-102236956D01*
X129300000Y-103113044D01*
X129298377Y-103146071D01*
X129293525Y-103178781D01*
X129285491Y-103210857D01*
X129274351Y-103241991D01*
X129260213Y-103271884D01*
X129243213Y-103300247D01*
X129223515Y-103326807D01*
X129201308Y-103351308D01*
X129176807Y-103373515D01*
X129150247Y-103393213D01*
X129121884Y-103410213D01*
X129091991Y-103424351D01*
X129060857Y-103435491D01*
X129028781Y-103443525D01*
X128996071Y-103448377D01*
X128963044Y-103450000D01*
X127836956Y-103450000D01*
X127803929Y-103448377D01*
X127771219Y-103443525D01*
X127739143Y-103435491D01*
X127708009Y-103424351D01*
X127678116Y-103410213D01*
X127649753Y-103393213D01*
X127623193Y-103373515D01*
X127598692Y-103351308D01*
X127576485Y-103326807D01*
X127556787Y-103300247D01*
X127539787Y-103271884D01*
X127525649Y-103241991D01*
X127514509Y-103210857D01*
X127506475Y-103178781D01*
X127501623Y-103146071D01*
X127500000Y-103113044D01*
X127500000Y-102236956D01*
X127501623Y-102203929D01*
X127506475Y-102171219D01*
X127514509Y-102139143D01*
X127525649Y-102108009D01*
X127539787Y-102078116D01*
X127556787Y-102049753D01*
X127576485Y-102023193D01*
X127598692Y-101998692D01*
X127623193Y-101976485D01*
X127649753Y-101956787D01*
X127678116Y-101939787D01*
X127708009Y-101925649D01*
X127739143Y-101914509D01*
X127771219Y-101906475D01*
X127803929Y-101901623D01*
X127836956Y-101900000D01*
X128963044Y-101900000D01*
X128996071Y-101901623D01*
X128996071Y-101901623D01*
G37*
D21*
X128400000Y-102675000D03*
D11*
G36*
X128996071Y-103951623D02*
G01*
X129028781Y-103956475D01*
X129060857Y-103964509D01*
X129091991Y-103975649D01*
X129121884Y-103989787D01*
X129150247Y-104006787D01*
X129176807Y-104026485D01*
X129201308Y-104048692D01*
X129223515Y-104073193D01*
X129243213Y-104099753D01*
X129260213Y-104128116D01*
X129274351Y-104158009D01*
X129285491Y-104189143D01*
X129293525Y-104221219D01*
X129298377Y-104253929D01*
X129300000Y-104286956D01*
X129300000Y-105163044D01*
X129298377Y-105196071D01*
X129293525Y-105228781D01*
X129285491Y-105260857D01*
X129274351Y-105291991D01*
X129260213Y-105321884D01*
X129243213Y-105350247D01*
X129223515Y-105376807D01*
X129201308Y-105401308D01*
X129176807Y-105423515D01*
X129150247Y-105443213D01*
X129121884Y-105460213D01*
X129091991Y-105474351D01*
X129060857Y-105485491D01*
X129028781Y-105493525D01*
X128996071Y-105498377D01*
X128963044Y-105500000D01*
X127836956Y-105500000D01*
X127803929Y-105498377D01*
X127771219Y-105493525D01*
X127739143Y-105485491D01*
X127708009Y-105474351D01*
X127678116Y-105460213D01*
X127649753Y-105443213D01*
X127623193Y-105423515D01*
X127598692Y-105401308D01*
X127576485Y-105376807D01*
X127556787Y-105350247D01*
X127539787Y-105321884D01*
X127525649Y-105291991D01*
X127514509Y-105260857D01*
X127506475Y-105228781D01*
X127501623Y-105196071D01*
X127500000Y-105163044D01*
X127500000Y-104286956D01*
X127501623Y-104253929D01*
X127506475Y-104221219D01*
X127514509Y-104189143D01*
X127525649Y-104158009D01*
X127539787Y-104128116D01*
X127556787Y-104099753D01*
X127576485Y-104073193D01*
X127598692Y-104048692D01*
X127623193Y-104026485D01*
X127649753Y-104006787D01*
X127678116Y-103989787D01*
X127708009Y-103975649D01*
X127739143Y-103964509D01*
X127771219Y-103956475D01*
X127803929Y-103951623D01*
X127836956Y-103950000D01*
X128963044Y-103950000D01*
X128996071Y-103951623D01*
X128996071Y-103951623D01*
G37*
D21*
X128400000Y-104725000D03*
M02*
