G04 #@! TF.GenerationSoftware,KiCad,Pcbnew,(5.1.2)-1*
G04 #@! TF.CreationDate,2019-05-27T15:40:10+12:00*
G04 #@! TF.ProjectId,TinyBEC,54696e79-4245-4432-9e6b-696361645f70,rev?*
G04 #@! TF.SameCoordinates,Original*
G04 #@! TF.FileFunction,Legend,Top*
G04 #@! TF.FilePolarity,Positive*
%FSLAX46Y46*%
G04 Gerber Fmt 4.6, Leading zero omitted, Abs format (unit mm)*
G04 Created by KiCad (PCBNEW (5.1.2)-1) date 2019-05-27 15:40:10*
%MOMM*%
%LPD*%
G04 APERTURE LIST*
%ADD10C,0.120000*%
G04 APERTURE END LIST*
D10*
X126810000Y-108228733D02*
X126810000Y-108571267D01*
X125790000Y-108228733D02*
X125790000Y-108571267D01*
X122113748Y-101890000D02*
X124886252Y-101890000D01*
X122113748Y-105310000D02*
X124886252Y-105310000D01*
X120300000Y-101050000D02*
X118300000Y-101050000D01*
X118300000Y-101050000D02*
X118300000Y-104950000D01*
X120300000Y-101050000D02*
X120300000Y-104950000D01*
X131415000Y-97100000D02*
X131415000Y-99585000D01*
X131415000Y-99585000D02*
X132785000Y-99585000D01*
X132785000Y-99585000D02*
X132785000Y-97100000D01*
X114130000Y-101430000D02*
X111470000Y-101430000D01*
X114130000Y-104030000D02*
X114130000Y-101430000D01*
X111470000Y-104030000D02*
X111470000Y-101430000D01*
X114130000Y-104030000D02*
X111470000Y-104030000D01*
X114130000Y-105300000D02*
X114130000Y-106630000D01*
X114130000Y-106630000D02*
X112800000Y-106630000D01*
X133430000Y-106630000D02*
X132100000Y-106630000D01*
X133430000Y-105300000D02*
X133430000Y-106630000D01*
X133430000Y-104030000D02*
X130770000Y-104030000D01*
X130770000Y-104030000D02*
X130770000Y-101430000D01*
X133430000Y-104030000D02*
X133430000Y-101430000D01*
X133430000Y-101430000D02*
X130770000Y-101430000D01*
X122250000Y-96250000D02*
X129150000Y-96250000D01*
X122250000Y-101350000D02*
X129150000Y-101350000D01*
X115540000Y-101120000D02*
X115540000Y-102050000D01*
X115540000Y-104280000D02*
X115540000Y-103350000D01*
X115540000Y-104280000D02*
X117700000Y-104280000D01*
X115540000Y-101120000D02*
X117000000Y-101120000D01*
X121510000Y-107671267D02*
X121510000Y-107328733D01*
X120490000Y-107671267D02*
X120490000Y-107328733D01*
X123671267Y-110490000D02*
X123328733Y-110490000D01*
X123671267Y-111510000D02*
X123328733Y-111510000D01*
X128510000Y-108228733D02*
X128510000Y-108571267D01*
X127490000Y-108228733D02*
X127490000Y-108571267D01*
X131010000Y-98096267D02*
X131010000Y-97753733D01*
X129990000Y-98096267D02*
X129990000Y-97753733D01*
X128703733Y-110490000D02*
X129046267Y-110490000D01*
X128703733Y-111510000D02*
X129046267Y-111510000D01*
X119810000Y-107328733D02*
X119810000Y-107671267D01*
X118790000Y-107328733D02*
X118790000Y-107671267D01*
X121940000Y-107120000D02*
X121940000Y-108880000D01*
X125010000Y-108880000D02*
X125010000Y-106450000D01*
X129110000Y-103438748D02*
X129110000Y-103961252D01*
X127690000Y-103438748D02*
X127690000Y-103961252D01*
M02*
