G75*
%MOIN*%
%OFA0B0*%
%FSLAX25Y25*%
%IPPOS*%
%LPD*%
%AMOC8*
5,1,8,0,0,1.08239X$1,22.5*
%
%ADD10C,0.13005*%
%ADD11R,0.08600X0.03000*%
%ADD12R,0.08700X0.12600*%
%ADD13R,0.07099X0.07887*%
%ADD14R,0.04737X0.05131*%
%ADD15R,0.06312X0.12611*%
%ADD16R,0.05800X0.06587*%
%ADD17R,0.30328X0.10643*%
%ADD18R,0.09500X0.03200*%
%ADD19R,0.04343X0.04540*%
%ADD20R,0.05131X0.04737*%
%ADD21C,0.08200*%
%ADD22C,0.04800*%
%ADD23R,0.01600X0.03200*%
%ADD24R,0.08200X0.08200*%
%ADD25C,0.03817*%
D10*
X0011443Y0011443D03*
X0011443Y0188608D03*
X0188608Y0188608D03*
X0188608Y0011443D03*
D11*
X0101851Y0092525D03*
X0101851Y0097525D03*
X0101851Y0102525D03*
X0101851Y0107525D03*
X0082451Y0107525D03*
X0082451Y0102525D03*
X0082451Y0097525D03*
X0082451Y0092525D03*
D12*
X0092151Y0100025D03*
D13*
X0086639Y0084277D03*
X0097663Y0084277D03*
D14*
X0072466Y0085832D03*
X0072466Y0092525D03*
X0072466Y0100616D03*
X0072466Y0107309D03*
X0084277Y0116364D03*
X0084277Y0123057D03*
X0013411Y0111246D03*
X0013411Y0104553D03*
D15*
X0143332Y0122072D03*
X0143332Y0140970D03*
D16*
X0084868Y0131521D03*
X0067939Y0131521D03*
D17*
X0111836Y0122466D03*
X0111836Y0148450D03*
D18*
X0117284Y0107525D03*
X0117284Y0102525D03*
X0117284Y0097525D03*
X0117284Y0092525D03*
X0137884Y0092525D03*
X0137884Y0097525D03*
X0137884Y0102525D03*
X0137884Y0107525D03*
D19*
X0121974Y0084277D03*
X0109572Y0084277D03*
D20*
X0130143Y0084277D03*
X0136836Y0084277D03*
X0123057Y0037033D03*
X0116364Y0037033D03*
X0044317Y0060970D03*
X0037624Y0060970D03*
X0132387Y0171285D03*
X0139080Y0171285D03*
D21*
X0139080Y0186639D03*
X0129080Y0186639D03*
X0149080Y0186639D03*
X0186639Y0159080D03*
X0186639Y0149080D03*
X0186639Y0139080D03*
X0186639Y0105931D03*
X0176639Y0105931D03*
X0166639Y0105931D03*
X0166639Y0095931D03*
X0176639Y0095931D03*
X0186639Y0095931D03*
X0186639Y0060970D03*
X0186639Y0050970D03*
X0186639Y0040970D03*
X0149080Y0013411D03*
X0139080Y0013411D03*
X0129080Y0013411D03*
X0124592Y0052781D03*
X0114592Y0052781D03*
X0104592Y0052781D03*
X0094592Y0052781D03*
X0084592Y0052781D03*
X0074592Y0052781D03*
X0064592Y0052781D03*
X0060970Y0013411D03*
X0050970Y0013411D03*
X0070970Y0013411D03*
X0013411Y0040970D03*
X0013411Y0050970D03*
X0013411Y0060970D03*
X0013411Y0139080D03*
X0013411Y0149080D03*
X0013411Y0159080D03*
X0050970Y0186639D03*
X0060970Y0186639D03*
X0070970Y0186639D03*
X0134592Y0052781D03*
X0144592Y0052781D03*
D22*
X0092151Y0021285D03*
X0048096Y0072466D03*
X0043096Y0072466D03*
X0038096Y0072466D03*
X0033096Y0072466D03*
X0033096Y0096088D03*
X0038096Y0096088D03*
X0043096Y0096088D03*
X0048096Y0096088D03*
X0048096Y0119710D03*
X0043096Y0119710D03*
X0038096Y0119710D03*
X0033096Y0119710D03*
X0033096Y0143332D03*
X0038096Y0143332D03*
X0043096Y0143332D03*
X0048096Y0143332D03*
X0081088Y0166954D03*
X0086088Y0166954D03*
X0091088Y0166954D03*
X0096088Y0166954D03*
X0096088Y0182702D03*
X0091088Y0182702D03*
X0086088Y0182702D03*
X0119710Y0178765D03*
D23*
X0150106Y0163017D03*
X0152306Y0163017D03*
X0169791Y0149080D03*
X0171991Y0149080D03*
X0164117Y0050970D03*
X0161917Y0050970D03*
X0148369Y0029159D03*
X0146169Y0029159D03*
X0049944Y0033096D03*
X0047744Y0033096D03*
X0034196Y0050970D03*
X0031996Y0050970D03*
X0047744Y0163017D03*
X0049944Y0163017D03*
D24*
X0040970Y0186639D03*
X0159080Y0186639D03*
X0159080Y0013411D03*
X0040970Y0013411D03*
D25*
X0090183Y0096088D03*
X0094120Y0096088D03*
X0094120Y0100025D03*
X0094120Y0103962D03*
X0090183Y0103962D03*
X0090183Y0100025D03*
M02*
