G75*
%MOIN*%
%OFA0B0*%
%FSLAX25Y25*%
%IPPOS*%
%LPD*%
%AMOC8*
5,1,8,0,0,1.08239X$1,22.5*
%
%ADD10C,0.00800*%
%ADD11C,0.00400*%
%ADD12R,0.01800X0.03000*%
%ADD13R,0.03000X0.01800*%
D10*
X0028025Y0078240D02*
X0026624Y0079641D01*
X0026624Y0082444D01*
X0029426Y0082444D02*
X0029426Y0079641D01*
X0028025Y0078240D01*
X0031228Y0078941D02*
X0031228Y0080342D01*
X0031928Y0081043D01*
X0032629Y0081043D01*
X0034030Y0080342D01*
X0034030Y0082444D01*
X0031228Y0082444D01*
X0031228Y0078941D02*
X0031928Y0078240D01*
X0033329Y0078240D01*
X0034030Y0078941D01*
X0029426Y0092153D02*
X0026624Y0092153D01*
X0028025Y0105799D02*
X0026624Y0107200D01*
X0026624Y0110003D01*
X0029426Y0110003D02*
X0029426Y0107200D01*
X0028025Y0105799D01*
X0031228Y0106500D02*
X0031928Y0105799D01*
X0033329Y0105799D01*
X0034030Y0106500D01*
X0034030Y0107901D02*
X0032629Y0108602D01*
X0031928Y0108602D01*
X0031228Y0107901D01*
X0031228Y0106500D01*
X0031228Y0110003D02*
X0034030Y0110003D01*
X0034030Y0107901D01*
X0029426Y0119712D02*
X0026624Y0119712D01*
X0102387Y0182309D02*
X0102387Y0185458D01*
X0104750Y0185458D01*
X0111049Y0185458D02*
X0113411Y0185458D01*
X0113411Y0182309D01*
X0109474Y0017742D02*
X0109474Y0014592D01*
X0107112Y0014592D01*
X0100813Y0014592D02*
X0098450Y0014592D01*
X0098450Y0017742D01*
D11*
X0058155Y0070266D02*
X0058155Y0071266D01*
X0058155Y0070266D02*
X0063155Y0070266D01*
X0063155Y0071266D01*
X0063155Y0073666D02*
X0063155Y0074666D01*
X0058155Y0074666D01*
X0058155Y0073666D01*
X0058155Y0093888D02*
X0058155Y0094888D01*
X0058155Y0093888D02*
X0063155Y0093888D01*
X0063155Y0094888D01*
X0063155Y0097288D02*
X0063155Y0098288D01*
X0058155Y0098288D01*
X0058155Y0097288D01*
X0058155Y0117510D02*
X0058155Y0118510D01*
X0058155Y0117510D02*
X0063155Y0117510D01*
X0063155Y0118510D01*
X0063155Y0120910D02*
X0063155Y0121910D01*
X0058155Y0121910D01*
X0058155Y0120910D01*
X0058155Y0141132D02*
X0058155Y0142132D01*
X0058155Y0141132D02*
X0063155Y0141132D01*
X0063155Y0142132D01*
X0063155Y0144532D02*
X0063155Y0145532D01*
X0058155Y0145532D01*
X0058155Y0144532D01*
X0088888Y0172328D02*
X0089888Y0172328D01*
X0088888Y0172328D02*
X0088888Y0177328D01*
X0089888Y0177328D01*
X0092288Y0177328D02*
X0093288Y0177328D01*
X0093288Y0172328D01*
X0092288Y0172328D01*
X0027722Y0151280D02*
X0027722Y0150280D01*
X0027722Y0151280D02*
X0022722Y0151280D01*
X0022722Y0150280D01*
X0022722Y0147880D02*
X0022722Y0146880D01*
X0027722Y0146880D01*
X0027722Y0147880D01*
X0132392Y0067092D02*
X0132392Y0062092D01*
X0133392Y0062092D01*
X0135792Y0062092D02*
X0136792Y0062092D01*
X0136792Y0067092D01*
X0135792Y0067092D01*
X0133392Y0067092D02*
X0132392Y0067092D01*
X0132958Y0043170D02*
X0132958Y0042170D01*
X0132958Y0043170D02*
X0137958Y0043170D01*
X0137958Y0042170D01*
X0137958Y0039770D02*
X0137958Y0038770D01*
X0132958Y0038770D01*
X0132958Y0039770D01*
D12*
X0103569Y0029159D03*
X0072466Y0033096D03*
X0170891Y0060970D03*
X0096088Y0155143D03*
X0082742Y0155143D03*
X0065183Y0174828D03*
X0108293Y0170891D03*
D13*
X0186639Y0125616D03*
M02*
