G75*
%MOIN*%
%OFA0B0*%
%FSLAX25Y25*%
%IPPOS*%
%LPD*%
%AMOC8*
5,1,8,0,0,1.08239X$1,22.5*
%
%ADD10C,0.13005*%
%ADD11C,0.08200*%
%ADD12C,0.04800*%
%ADD13R,0.01600X0.03200*%
%ADD14R,0.05131X0.04737*%
%ADD15R,0.04737X0.05131*%
%ADD16R,0.03950X0.04343*%
%ADD17R,0.07887X0.13398*%
%ADD18R,0.08200X0.08200*%
%ADD19R,0.03200X0.01600*%
%ADD20R,0.16548X0.07887*%
%ADD21C,0.03817*%
D10*
X0011443Y0011443D03*
X0011443Y0188608D03*
X0188608Y0188608D03*
X0188608Y0011443D03*
D11*
X0186639Y0040970D03*
X0186639Y0050970D03*
X0186639Y0060970D03*
X0186639Y0095931D03*
X0176639Y0095931D03*
X0166639Y0095931D03*
X0166639Y0105931D03*
X0176639Y0105931D03*
X0186639Y0105931D03*
X0186639Y0139080D03*
X0186639Y0149080D03*
X0186639Y0159080D03*
X0149080Y0186639D03*
X0139080Y0186639D03*
X0129080Y0186639D03*
X0070970Y0186639D03*
X0060970Y0186639D03*
X0050970Y0186639D03*
X0013411Y0159080D03*
X0013411Y0149080D03*
X0013411Y0139080D03*
X0013411Y0060970D03*
X0013411Y0050970D03*
X0013411Y0040970D03*
X0050970Y0013411D03*
X0060970Y0013411D03*
X0070970Y0013411D03*
X0074592Y0052781D03*
X0064592Y0052781D03*
X0084592Y0052781D03*
X0094592Y0052781D03*
X0104592Y0052781D03*
X0114592Y0052781D03*
X0124592Y0052781D03*
X0134592Y0052781D03*
X0144592Y0052781D03*
X0149080Y0013411D03*
X0139080Y0013411D03*
X0129080Y0013411D03*
D12*
X0092151Y0021285D03*
X0048096Y0072466D03*
X0043096Y0072466D03*
X0038096Y0072466D03*
X0033096Y0072466D03*
X0033096Y0096088D03*
X0038096Y0096088D03*
X0043096Y0096088D03*
X0048096Y0096088D03*
X0048096Y0119710D03*
X0043096Y0119710D03*
X0038096Y0119710D03*
X0033096Y0119710D03*
X0033096Y0143332D03*
X0038096Y0143332D03*
X0043096Y0143332D03*
X0048096Y0143332D03*
X0081088Y0166954D03*
X0086088Y0166954D03*
X0091088Y0166954D03*
X0096088Y0166954D03*
X0096088Y0182702D03*
X0091088Y0182702D03*
X0086088Y0182702D03*
X0119710Y0178765D03*
D13*
X0061755Y0143332D03*
X0059555Y0143332D03*
X0059555Y0119710D03*
X0061755Y0119710D03*
X0061755Y0096088D03*
X0059555Y0096088D03*
X0059555Y0072466D03*
X0061755Y0072466D03*
X0134358Y0040970D03*
X0136558Y0040970D03*
X0026322Y0149080D03*
X0024122Y0149080D03*
D14*
X0061836Y0174828D03*
X0068529Y0174828D03*
X0079395Y0155143D03*
X0086088Y0155143D03*
X0092742Y0155143D03*
X0099435Y0155143D03*
X0104946Y0170891D03*
X0111639Y0170891D03*
X0167545Y0060970D03*
X0174238Y0060970D03*
X0106915Y0029159D03*
X0100222Y0029159D03*
X0075813Y0033096D03*
X0069120Y0033096D03*
D15*
X0186639Y0122269D03*
X0186639Y0128962D03*
D16*
X0111639Y0178765D03*
X0104159Y0178765D03*
X0107899Y0187033D03*
X0107702Y0021285D03*
X0100222Y0021285D03*
X0103962Y0013017D03*
D17*
X0136246Y0029159D03*
X0158293Y0029159D03*
X0059868Y0033096D03*
X0037820Y0033096D03*
X0037820Y0163017D03*
X0059868Y0163017D03*
X0140183Y0163017D03*
X0162230Y0163017D03*
D18*
X0159080Y0186639D03*
X0040970Y0186639D03*
X0040970Y0013411D03*
X0159080Y0013411D03*
D19*
X0134592Y0063492D03*
X0134592Y0065692D03*
X0091088Y0173728D03*
X0091088Y0175928D03*
D20*
X0015380Y0119710D03*
X0015380Y0107899D03*
X0015380Y0092151D03*
X0015380Y0080340D03*
D21*
X0090183Y0096088D03*
X0094120Y0096088D03*
X0094120Y0100025D03*
X0094120Y0103962D03*
X0090183Y0103962D03*
X0090183Y0100025D03*
M02*
