%
M48
M72
T01C0.01378
T02C0.01417
T03C0.02000
T04C0.04000
T05C0.12205
%
T01
X44513Y33096
X53175Y33096
X46876Y44907
X42939Y44907
X39002Y44907
X35065Y44907
X40970Y50970
X109868Y101994
X62624Y149238
X62624Y153175
X58687Y153175
X58687Y149238
X53175Y163017
X44513Y163017
X75616Y170104
X146876Y163017
X155537Y163017
X125616Y31128
X121679Y31128
X121679Y27191
X125616Y27191
X142939Y29159
X151600Y29159
T02
X94120Y96088
X94120Y100025
X94120Y103962
X90183Y103962
X90183Y100025
X90183Y96088
T03
X48096Y96088
X43096Y96088
X38096Y96088
X33096Y96088
X33096Y119710
X38096Y119710
X43096Y119710
X48096Y119710
X48096Y143332
X43096Y143332
X38096Y143332
X33096Y143332
X81088Y166954
X86088Y166954
X91088Y166954
X96088Y166954
X96088Y182702
X91088Y182702
X86088Y182702
X119710Y178765
X48096Y72466
X43096Y72466
X38096Y72466
X33096Y72466
X92151Y21285
T04
X70970Y13411
X60970Y13411
X50970Y13411
X40970Y13411
X13411Y40970
X13411Y50970
X13411Y60970
X64592Y52781
X74592Y52781
X84592Y52781
X94592Y52781
X104592Y52781
X114592Y52781
X124592Y52781
X134592Y52781
X144592Y52781
X149080Y13411
X139080Y13411
X129080Y13411
X159080Y13411
X186639Y40970
X186639Y50970
X186639Y60970
X186639Y95931
X176639Y95931
X166639Y95931
X166639Y105931
X176639Y105931
X186639Y105931
X186639Y139080
X186639Y149080
X186639Y159080
X159080Y186639
X149080Y186639
X139080Y186639
X129080Y186639
X70970Y186639
X60970Y186639
X50970Y186639
X40970Y186639
X13411Y159080
X13411Y149080
X13411Y139080
T05
X11443Y11443
X11443Y188608
X188608Y188608
X188608Y11443
M30
