G75*
%MOIN*%
%OFA0B0*%
%FSLAX25Y25*%
%IPPOS*%
%LPD*%
%AMOC8*
5,1,8,0,0,1.08239X$1,22.5*
%
%ADD10C,0.00000*%
%ADD11R,0.07800X0.02200*%
%ADD12R,0.07900X0.11800*%
%ADD13R,0.06299X0.07087*%
%ADD14R,0.03937X0.04331*%
%ADD15R,0.05512X0.11811*%
%ADD16R,0.05000X0.05787*%
%ADD17R,0.29528X0.09843*%
%ADD18R,0.08700X0.02400*%
%ADD19R,0.03543X0.03740*%
%ADD20R,0.04331X0.03937*%
%ADD21C,0.07400*%
%ADD22C,0.04000*%
%ADD23R,0.01600X0.03200*%
%ADD24R,0.07400X0.07400*%
%ADD25C,0.01200*%
%ADD26C,0.03017*%
%ADD27C,0.01600*%
%ADD28C,0.02978*%
D10*
X0001600Y0009474D02*
X0001600Y0190576D01*
X0001602Y0190766D01*
X0001609Y0190956D01*
X0001621Y0191146D01*
X0001637Y0191336D01*
X0001657Y0191525D01*
X0001683Y0191714D01*
X0001712Y0191902D01*
X0001747Y0192089D01*
X0001786Y0192275D01*
X0001829Y0192460D01*
X0001877Y0192645D01*
X0001929Y0192828D01*
X0001985Y0193009D01*
X0002046Y0193189D01*
X0002112Y0193368D01*
X0002181Y0193545D01*
X0002255Y0193721D01*
X0002333Y0193894D01*
X0002416Y0194066D01*
X0002502Y0194235D01*
X0002592Y0194403D01*
X0002687Y0194568D01*
X0002785Y0194731D01*
X0002888Y0194891D01*
X0002994Y0195049D01*
X0003104Y0195204D01*
X0003217Y0195357D01*
X0003335Y0195507D01*
X0003456Y0195653D01*
X0003580Y0195797D01*
X0003708Y0195938D01*
X0003839Y0196076D01*
X0003974Y0196211D01*
X0004112Y0196342D01*
X0004253Y0196470D01*
X0004397Y0196594D01*
X0004543Y0196715D01*
X0004693Y0196833D01*
X0004846Y0196946D01*
X0005001Y0197056D01*
X0005159Y0197162D01*
X0005319Y0197265D01*
X0005482Y0197363D01*
X0005647Y0197458D01*
X0005815Y0197548D01*
X0005984Y0197634D01*
X0006156Y0197717D01*
X0006329Y0197795D01*
X0006505Y0197869D01*
X0006682Y0197938D01*
X0006861Y0198004D01*
X0007041Y0198065D01*
X0007222Y0198121D01*
X0007405Y0198173D01*
X0007590Y0198221D01*
X0007775Y0198264D01*
X0007961Y0198303D01*
X0008148Y0198338D01*
X0008336Y0198367D01*
X0008525Y0198393D01*
X0008714Y0198413D01*
X0008904Y0198429D01*
X0009094Y0198441D01*
X0009284Y0198448D01*
X0009474Y0198450D01*
X0190576Y0198450D01*
X0190766Y0198448D01*
X0190956Y0198441D01*
X0191146Y0198429D01*
X0191336Y0198413D01*
X0191525Y0198393D01*
X0191714Y0198367D01*
X0191902Y0198338D01*
X0192089Y0198303D01*
X0192275Y0198264D01*
X0192460Y0198221D01*
X0192645Y0198173D01*
X0192828Y0198121D01*
X0193009Y0198065D01*
X0193189Y0198004D01*
X0193368Y0197938D01*
X0193545Y0197869D01*
X0193721Y0197795D01*
X0193894Y0197717D01*
X0194066Y0197634D01*
X0194235Y0197548D01*
X0194403Y0197458D01*
X0194568Y0197363D01*
X0194731Y0197265D01*
X0194891Y0197162D01*
X0195049Y0197056D01*
X0195204Y0196946D01*
X0195357Y0196833D01*
X0195507Y0196715D01*
X0195653Y0196594D01*
X0195797Y0196470D01*
X0195938Y0196342D01*
X0196076Y0196211D01*
X0196211Y0196076D01*
X0196342Y0195938D01*
X0196470Y0195797D01*
X0196594Y0195653D01*
X0196715Y0195507D01*
X0196833Y0195357D01*
X0196946Y0195204D01*
X0197056Y0195049D01*
X0197162Y0194891D01*
X0197265Y0194731D01*
X0197363Y0194568D01*
X0197458Y0194403D01*
X0197548Y0194235D01*
X0197634Y0194066D01*
X0197717Y0193894D01*
X0197795Y0193721D01*
X0197869Y0193545D01*
X0197938Y0193368D01*
X0198004Y0193189D01*
X0198065Y0193009D01*
X0198121Y0192828D01*
X0198173Y0192645D01*
X0198221Y0192460D01*
X0198264Y0192275D01*
X0198303Y0192089D01*
X0198338Y0191902D01*
X0198367Y0191714D01*
X0198393Y0191525D01*
X0198413Y0191336D01*
X0198429Y0191146D01*
X0198441Y0190956D01*
X0198448Y0190766D01*
X0198450Y0190576D01*
X0198450Y0009474D01*
X0198448Y0009284D01*
X0198441Y0009094D01*
X0198429Y0008904D01*
X0198413Y0008714D01*
X0198393Y0008525D01*
X0198367Y0008336D01*
X0198338Y0008148D01*
X0198303Y0007961D01*
X0198264Y0007775D01*
X0198221Y0007590D01*
X0198173Y0007405D01*
X0198121Y0007222D01*
X0198065Y0007041D01*
X0198004Y0006861D01*
X0197938Y0006682D01*
X0197869Y0006505D01*
X0197795Y0006329D01*
X0197717Y0006156D01*
X0197634Y0005984D01*
X0197548Y0005815D01*
X0197458Y0005647D01*
X0197363Y0005482D01*
X0197265Y0005319D01*
X0197162Y0005159D01*
X0197056Y0005001D01*
X0196946Y0004846D01*
X0196833Y0004693D01*
X0196715Y0004543D01*
X0196594Y0004397D01*
X0196470Y0004253D01*
X0196342Y0004112D01*
X0196211Y0003974D01*
X0196076Y0003839D01*
X0195938Y0003708D01*
X0195797Y0003580D01*
X0195653Y0003456D01*
X0195507Y0003335D01*
X0195357Y0003217D01*
X0195204Y0003104D01*
X0195049Y0002994D01*
X0194891Y0002888D01*
X0194731Y0002785D01*
X0194568Y0002687D01*
X0194403Y0002592D01*
X0194235Y0002502D01*
X0194066Y0002416D01*
X0193894Y0002333D01*
X0193721Y0002255D01*
X0193545Y0002181D01*
X0193368Y0002112D01*
X0193189Y0002046D01*
X0193009Y0001985D01*
X0192828Y0001929D01*
X0192645Y0001877D01*
X0192460Y0001829D01*
X0192275Y0001786D01*
X0192089Y0001747D01*
X0191902Y0001712D01*
X0191714Y0001683D01*
X0191525Y0001657D01*
X0191336Y0001637D01*
X0191146Y0001621D01*
X0190956Y0001609D01*
X0190766Y0001602D01*
X0190576Y0001600D01*
X0009474Y0001600D01*
X0009284Y0001602D01*
X0009094Y0001609D01*
X0008904Y0001621D01*
X0008714Y0001637D01*
X0008525Y0001657D01*
X0008336Y0001683D01*
X0008148Y0001712D01*
X0007961Y0001747D01*
X0007775Y0001786D01*
X0007590Y0001829D01*
X0007405Y0001877D01*
X0007222Y0001929D01*
X0007041Y0001985D01*
X0006861Y0002046D01*
X0006682Y0002112D01*
X0006505Y0002181D01*
X0006329Y0002255D01*
X0006156Y0002333D01*
X0005984Y0002416D01*
X0005815Y0002502D01*
X0005647Y0002592D01*
X0005482Y0002687D01*
X0005319Y0002785D01*
X0005159Y0002888D01*
X0005001Y0002994D01*
X0004846Y0003104D01*
X0004693Y0003217D01*
X0004543Y0003335D01*
X0004397Y0003456D01*
X0004253Y0003580D01*
X0004112Y0003708D01*
X0003974Y0003839D01*
X0003839Y0003974D01*
X0003708Y0004112D01*
X0003580Y0004253D01*
X0003456Y0004397D01*
X0003335Y0004543D01*
X0003217Y0004693D01*
X0003104Y0004846D01*
X0002994Y0005001D01*
X0002888Y0005159D01*
X0002785Y0005319D01*
X0002687Y0005482D01*
X0002592Y0005647D01*
X0002502Y0005815D01*
X0002416Y0005984D01*
X0002333Y0006156D01*
X0002255Y0006329D01*
X0002181Y0006505D01*
X0002112Y0006682D01*
X0002046Y0006861D01*
X0001985Y0007041D01*
X0001929Y0007222D01*
X0001877Y0007405D01*
X0001829Y0007590D01*
X0001786Y0007775D01*
X0001747Y0007961D01*
X0001712Y0008148D01*
X0001683Y0008336D01*
X0001657Y0008525D01*
X0001637Y0008714D01*
X0001621Y0008904D01*
X0001609Y0009094D01*
X0001602Y0009284D01*
X0001600Y0009474D01*
X0005341Y0011443D02*
X0005343Y0011599D01*
X0005349Y0011755D01*
X0005359Y0011910D01*
X0005373Y0012065D01*
X0005391Y0012220D01*
X0005413Y0012374D01*
X0005438Y0012528D01*
X0005468Y0012681D01*
X0005502Y0012833D01*
X0005539Y0012985D01*
X0005580Y0013135D01*
X0005625Y0013284D01*
X0005674Y0013432D01*
X0005727Y0013579D01*
X0005783Y0013724D01*
X0005843Y0013868D01*
X0005907Y0014010D01*
X0005975Y0014151D01*
X0006046Y0014289D01*
X0006120Y0014426D01*
X0006198Y0014561D01*
X0006279Y0014694D01*
X0006364Y0014825D01*
X0006452Y0014954D01*
X0006543Y0015080D01*
X0006638Y0015204D01*
X0006735Y0015325D01*
X0006836Y0015444D01*
X0006940Y0015561D01*
X0007046Y0015674D01*
X0007156Y0015785D01*
X0007268Y0015893D01*
X0007383Y0015998D01*
X0007501Y0016101D01*
X0007621Y0016200D01*
X0007744Y0016296D01*
X0007869Y0016389D01*
X0007996Y0016478D01*
X0008126Y0016565D01*
X0008258Y0016648D01*
X0008392Y0016727D01*
X0008528Y0016804D01*
X0008666Y0016876D01*
X0008805Y0016946D01*
X0008947Y0017011D01*
X0009090Y0017073D01*
X0009234Y0017131D01*
X0009380Y0017186D01*
X0009528Y0017237D01*
X0009676Y0017284D01*
X0009826Y0017327D01*
X0009977Y0017366D01*
X0010129Y0017402D01*
X0010281Y0017433D01*
X0010435Y0017461D01*
X0010589Y0017485D01*
X0010743Y0017505D01*
X0010898Y0017521D01*
X0011054Y0017533D01*
X0011209Y0017541D01*
X0011365Y0017545D01*
X0011521Y0017545D01*
X0011677Y0017541D01*
X0011832Y0017533D01*
X0011988Y0017521D01*
X0012143Y0017505D01*
X0012297Y0017485D01*
X0012451Y0017461D01*
X0012605Y0017433D01*
X0012757Y0017402D01*
X0012909Y0017366D01*
X0013060Y0017327D01*
X0013210Y0017284D01*
X0013358Y0017237D01*
X0013506Y0017186D01*
X0013652Y0017131D01*
X0013796Y0017073D01*
X0013939Y0017011D01*
X0014081Y0016946D01*
X0014220Y0016876D01*
X0014358Y0016804D01*
X0014494Y0016727D01*
X0014628Y0016648D01*
X0014760Y0016565D01*
X0014890Y0016478D01*
X0015017Y0016389D01*
X0015142Y0016296D01*
X0015265Y0016200D01*
X0015385Y0016101D01*
X0015503Y0015998D01*
X0015618Y0015893D01*
X0015730Y0015785D01*
X0015840Y0015674D01*
X0015946Y0015561D01*
X0016050Y0015444D01*
X0016151Y0015325D01*
X0016248Y0015204D01*
X0016343Y0015080D01*
X0016434Y0014954D01*
X0016522Y0014825D01*
X0016607Y0014694D01*
X0016688Y0014561D01*
X0016766Y0014426D01*
X0016840Y0014289D01*
X0016911Y0014151D01*
X0016979Y0014010D01*
X0017043Y0013868D01*
X0017103Y0013724D01*
X0017159Y0013579D01*
X0017212Y0013432D01*
X0017261Y0013284D01*
X0017306Y0013135D01*
X0017347Y0012985D01*
X0017384Y0012833D01*
X0017418Y0012681D01*
X0017448Y0012528D01*
X0017473Y0012374D01*
X0017495Y0012220D01*
X0017513Y0012065D01*
X0017527Y0011910D01*
X0017537Y0011755D01*
X0017543Y0011599D01*
X0017545Y0011443D01*
X0017543Y0011287D01*
X0017537Y0011131D01*
X0017527Y0010976D01*
X0017513Y0010821D01*
X0017495Y0010666D01*
X0017473Y0010512D01*
X0017448Y0010358D01*
X0017418Y0010205D01*
X0017384Y0010053D01*
X0017347Y0009901D01*
X0017306Y0009751D01*
X0017261Y0009602D01*
X0017212Y0009454D01*
X0017159Y0009307D01*
X0017103Y0009162D01*
X0017043Y0009018D01*
X0016979Y0008876D01*
X0016911Y0008735D01*
X0016840Y0008597D01*
X0016766Y0008460D01*
X0016688Y0008325D01*
X0016607Y0008192D01*
X0016522Y0008061D01*
X0016434Y0007932D01*
X0016343Y0007806D01*
X0016248Y0007682D01*
X0016151Y0007561D01*
X0016050Y0007442D01*
X0015946Y0007325D01*
X0015840Y0007212D01*
X0015730Y0007101D01*
X0015618Y0006993D01*
X0015503Y0006888D01*
X0015385Y0006785D01*
X0015265Y0006686D01*
X0015142Y0006590D01*
X0015017Y0006497D01*
X0014890Y0006408D01*
X0014760Y0006321D01*
X0014628Y0006238D01*
X0014494Y0006159D01*
X0014358Y0006082D01*
X0014220Y0006010D01*
X0014081Y0005940D01*
X0013939Y0005875D01*
X0013796Y0005813D01*
X0013652Y0005755D01*
X0013506Y0005700D01*
X0013358Y0005649D01*
X0013210Y0005602D01*
X0013060Y0005559D01*
X0012909Y0005520D01*
X0012757Y0005484D01*
X0012605Y0005453D01*
X0012451Y0005425D01*
X0012297Y0005401D01*
X0012143Y0005381D01*
X0011988Y0005365D01*
X0011832Y0005353D01*
X0011677Y0005345D01*
X0011521Y0005341D01*
X0011365Y0005341D01*
X0011209Y0005345D01*
X0011054Y0005353D01*
X0010898Y0005365D01*
X0010743Y0005381D01*
X0010589Y0005401D01*
X0010435Y0005425D01*
X0010281Y0005453D01*
X0010129Y0005484D01*
X0009977Y0005520D01*
X0009826Y0005559D01*
X0009676Y0005602D01*
X0009528Y0005649D01*
X0009380Y0005700D01*
X0009234Y0005755D01*
X0009090Y0005813D01*
X0008947Y0005875D01*
X0008805Y0005940D01*
X0008666Y0006010D01*
X0008528Y0006082D01*
X0008392Y0006159D01*
X0008258Y0006238D01*
X0008126Y0006321D01*
X0007996Y0006408D01*
X0007869Y0006497D01*
X0007744Y0006590D01*
X0007621Y0006686D01*
X0007501Y0006785D01*
X0007383Y0006888D01*
X0007268Y0006993D01*
X0007156Y0007101D01*
X0007046Y0007212D01*
X0006940Y0007325D01*
X0006836Y0007442D01*
X0006735Y0007561D01*
X0006638Y0007682D01*
X0006543Y0007806D01*
X0006452Y0007932D01*
X0006364Y0008061D01*
X0006279Y0008192D01*
X0006198Y0008325D01*
X0006120Y0008460D01*
X0006046Y0008597D01*
X0005975Y0008735D01*
X0005907Y0008876D01*
X0005843Y0009018D01*
X0005783Y0009162D01*
X0005727Y0009307D01*
X0005674Y0009454D01*
X0005625Y0009602D01*
X0005580Y0009751D01*
X0005539Y0009901D01*
X0005502Y0010053D01*
X0005468Y0010205D01*
X0005438Y0010358D01*
X0005413Y0010512D01*
X0005391Y0010666D01*
X0005373Y0010821D01*
X0005359Y0010976D01*
X0005349Y0011131D01*
X0005343Y0011287D01*
X0005341Y0011443D01*
X0005341Y0188608D02*
X0005343Y0188764D01*
X0005349Y0188920D01*
X0005359Y0189075D01*
X0005373Y0189230D01*
X0005391Y0189385D01*
X0005413Y0189539D01*
X0005438Y0189693D01*
X0005468Y0189846D01*
X0005502Y0189998D01*
X0005539Y0190150D01*
X0005580Y0190300D01*
X0005625Y0190449D01*
X0005674Y0190597D01*
X0005727Y0190744D01*
X0005783Y0190889D01*
X0005843Y0191033D01*
X0005907Y0191175D01*
X0005975Y0191316D01*
X0006046Y0191454D01*
X0006120Y0191591D01*
X0006198Y0191726D01*
X0006279Y0191859D01*
X0006364Y0191990D01*
X0006452Y0192119D01*
X0006543Y0192245D01*
X0006638Y0192369D01*
X0006735Y0192490D01*
X0006836Y0192609D01*
X0006940Y0192726D01*
X0007046Y0192839D01*
X0007156Y0192950D01*
X0007268Y0193058D01*
X0007383Y0193163D01*
X0007501Y0193266D01*
X0007621Y0193365D01*
X0007744Y0193461D01*
X0007869Y0193554D01*
X0007996Y0193643D01*
X0008126Y0193730D01*
X0008258Y0193813D01*
X0008392Y0193892D01*
X0008528Y0193969D01*
X0008666Y0194041D01*
X0008805Y0194111D01*
X0008947Y0194176D01*
X0009090Y0194238D01*
X0009234Y0194296D01*
X0009380Y0194351D01*
X0009528Y0194402D01*
X0009676Y0194449D01*
X0009826Y0194492D01*
X0009977Y0194531D01*
X0010129Y0194567D01*
X0010281Y0194598D01*
X0010435Y0194626D01*
X0010589Y0194650D01*
X0010743Y0194670D01*
X0010898Y0194686D01*
X0011054Y0194698D01*
X0011209Y0194706D01*
X0011365Y0194710D01*
X0011521Y0194710D01*
X0011677Y0194706D01*
X0011832Y0194698D01*
X0011988Y0194686D01*
X0012143Y0194670D01*
X0012297Y0194650D01*
X0012451Y0194626D01*
X0012605Y0194598D01*
X0012757Y0194567D01*
X0012909Y0194531D01*
X0013060Y0194492D01*
X0013210Y0194449D01*
X0013358Y0194402D01*
X0013506Y0194351D01*
X0013652Y0194296D01*
X0013796Y0194238D01*
X0013939Y0194176D01*
X0014081Y0194111D01*
X0014220Y0194041D01*
X0014358Y0193969D01*
X0014494Y0193892D01*
X0014628Y0193813D01*
X0014760Y0193730D01*
X0014890Y0193643D01*
X0015017Y0193554D01*
X0015142Y0193461D01*
X0015265Y0193365D01*
X0015385Y0193266D01*
X0015503Y0193163D01*
X0015618Y0193058D01*
X0015730Y0192950D01*
X0015840Y0192839D01*
X0015946Y0192726D01*
X0016050Y0192609D01*
X0016151Y0192490D01*
X0016248Y0192369D01*
X0016343Y0192245D01*
X0016434Y0192119D01*
X0016522Y0191990D01*
X0016607Y0191859D01*
X0016688Y0191726D01*
X0016766Y0191591D01*
X0016840Y0191454D01*
X0016911Y0191316D01*
X0016979Y0191175D01*
X0017043Y0191033D01*
X0017103Y0190889D01*
X0017159Y0190744D01*
X0017212Y0190597D01*
X0017261Y0190449D01*
X0017306Y0190300D01*
X0017347Y0190150D01*
X0017384Y0189998D01*
X0017418Y0189846D01*
X0017448Y0189693D01*
X0017473Y0189539D01*
X0017495Y0189385D01*
X0017513Y0189230D01*
X0017527Y0189075D01*
X0017537Y0188920D01*
X0017543Y0188764D01*
X0017545Y0188608D01*
X0017543Y0188452D01*
X0017537Y0188296D01*
X0017527Y0188141D01*
X0017513Y0187986D01*
X0017495Y0187831D01*
X0017473Y0187677D01*
X0017448Y0187523D01*
X0017418Y0187370D01*
X0017384Y0187218D01*
X0017347Y0187066D01*
X0017306Y0186916D01*
X0017261Y0186767D01*
X0017212Y0186619D01*
X0017159Y0186472D01*
X0017103Y0186327D01*
X0017043Y0186183D01*
X0016979Y0186041D01*
X0016911Y0185900D01*
X0016840Y0185762D01*
X0016766Y0185625D01*
X0016688Y0185490D01*
X0016607Y0185357D01*
X0016522Y0185226D01*
X0016434Y0185097D01*
X0016343Y0184971D01*
X0016248Y0184847D01*
X0016151Y0184726D01*
X0016050Y0184607D01*
X0015946Y0184490D01*
X0015840Y0184377D01*
X0015730Y0184266D01*
X0015618Y0184158D01*
X0015503Y0184053D01*
X0015385Y0183950D01*
X0015265Y0183851D01*
X0015142Y0183755D01*
X0015017Y0183662D01*
X0014890Y0183573D01*
X0014760Y0183486D01*
X0014628Y0183403D01*
X0014494Y0183324D01*
X0014358Y0183247D01*
X0014220Y0183175D01*
X0014081Y0183105D01*
X0013939Y0183040D01*
X0013796Y0182978D01*
X0013652Y0182920D01*
X0013506Y0182865D01*
X0013358Y0182814D01*
X0013210Y0182767D01*
X0013060Y0182724D01*
X0012909Y0182685D01*
X0012757Y0182649D01*
X0012605Y0182618D01*
X0012451Y0182590D01*
X0012297Y0182566D01*
X0012143Y0182546D01*
X0011988Y0182530D01*
X0011832Y0182518D01*
X0011677Y0182510D01*
X0011521Y0182506D01*
X0011365Y0182506D01*
X0011209Y0182510D01*
X0011054Y0182518D01*
X0010898Y0182530D01*
X0010743Y0182546D01*
X0010589Y0182566D01*
X0010435Y0182590D01*
X0010281Y0182618D01*
X0010129Y0182649D01*
X0009977Y0182685D01*
X0009826Y0182724D01*
X0009676Y0182767D01*
X0009528Y0182814D01*
X0009380Y0182865D01*
X0009234Y0182920D01*
X0009090Y0182978D01*
X0008947Y0183040D01*
X0008805Y0183105D01*
X0008666Y0183175D01*
X0008528Y0183247D01*
X0008392Y0183324D01*
X0008258Y0183403D01*
X0008126Y0183486D01*
X0007996Y0183573D01*
X0007869Y0183662D01*
X0007744Y0183755D01*
X0007621Y0183851D01*
X0007501Y0183950D01*
X0007383Y0184053D01*
X0007268Y0184158D01*
X0007156Y0184266D01*
X0007046Y0184377D01*
X0006940Y0184490D01*
X0006836Y0184607D01*
X0006735Y0184726D01*
X0006638Y0184847D01*
X0006543Y0184971D01*
X0006452Y0185097D01*
X0006364Y0185226D01*
X0006279Y0185357D01*
X0006198Y0185490D01*
X0006120Y0185625D01*
X0006046Y0185762D01*
X0005975Y0185900D01*
X0005907Y0186041D01*
X0005843Y0186183D01*
X0005783Y0186327D01*
X0005727Y0186472D01*
X0005674Y0186619D01*
X0005625Y0186767D01*
X0005580Y0186916D01*
X0005539Y0187066D01*
X0005502Y0187218D01*
X0005468Y0187370D01*
X0005438Y0187523D01*
X0005413Y0187677D01*
X0005391Y0187831D01*
X0005373Y0187986D01*
X0005359Y0188141D01*
X0005349Y0188296D01*
X0005343Y0188452D01*
X0005341Y0188608D01*
X0182506Y0188608D02*
X0182508Y0188764D01*
X0182514Y0188920D01*
X0182524Y0189075D01*
X0182538Y0189230D01*
X0182556Y0189385D01*
X0182578Y0189539D01*
X0182603Y0189693D01*
X0182633Y0189846D01*
X0182667Y0189998D01*
X0182704Y0190150D01*
X0182745Y0190300D01*
X0182790Y0190449D01*
X0182839Y0190597D01*
X0182892Y0190744D01*
X0182948Y0190889D01*
X0183008Y0191033D01*
X0183072Y0191175D01*
X0183140Y0191316D01*
X0183211Y0191454D01*
X0183285Y0191591D01*
X0183363Y0191726D01*
X0183444Y0191859D01*
X0183529Y0191990D01*
X0183617Y0192119D01*
X0183708Y0192245D01*
X0183803Y0192369D01*
X0183900Y0192490D01*
X0184001Y0192609D01*
X0184105Y0192726D01*
X0184211Y0192839D01*
X0184321Y0192950D01*
X0184433Y0193058D01*
X0184548Y0193163D01*
X0184666Y0193266D01*
X0184786Y0193365D01*
X0184909Y0193461D01*
X0185034Y0193554D01*
X0185161Y0193643D01*
X0185291Y0193730D01*
X0185423Y0193813D01*
X0185557Y0193892D01*
X0185693Y0193969D01*
X0185831Y0194041D01*
X0185970Y0194111D01*
X0186112Y0194176D01*
X0186255Y0194238D01*
X0186399Y0194296D01*
X0186545Y0194351D01*
X0186693Y0194402D01*
X0186841Y0194449D01*
X0186991Y0194492D01*
X0187142Y0194531D01*
X0187294Y0194567D01*
X0187446Y0194598D01*
X0187600Y0194626D01*
X0187754Y0194650D01*
X0187908Y0194670D01*
X0188063Y0194686D01*
X0188219Y0194698D01*
X0188374Y0194706D01*
X0188530Y0194710D01*
X0188686Y0194710D01*
X0188842Y0194706D01*
X0188997Y0194698D01*
X0189153Y0194686D01*
X0189308Y0194670D01*
X0189462Y0194650D01*
X0189616Y0194626D01*
X0189770Y0194598D01*
X0189922Y0194567D01*
X0190074Y0194531D01*
X0190225Y0194492D01*
X0190375Y0194449D01*
X0190523Y0194402D01*
X0190671Y0194351D01*
X0190817Y0194296D01*
X0190961Y0194238D01*
X0191104Y0194176D01*
X0191246Y0194111D01*
X0191385Y0194041D01*
X0191523Y0193969D01*
X0191659Y0193892D01*
X0191793Y0193813D01*
X0191925Y0193730D01*
X0192055Y0193643D01*
X0192182Y0193554D01*
X0192307Y0193461D01*
X0192430Y0193365D01*
X0192550Y0193266D01*
X0192668Y0193163D01*
X0192783Y0193058D01*
X0192895Y0192950D01*
X0193005Y0192839D01*
X0193111Y0192726D01*
X0193215Y0192609D01*
X0193316Y0192490D01*
X0193413Y0192369D01*
X0193508Y0192245D01*
X0193599Y0192119D01*
X0193687Y0191990D01*
X0193772Y0191859D01*
X0193853Y0191726D01*
X0193931Y0191591D01*
X0194005Y0191454D01*
X0194076Y0191316D01*
X0194144Y0191175D01*
X0194208Y0191033D01*
X0194268Y0190889D01*
X0194324Y0190744D01*
X0194377Y0190597D01*
X0194426Y0190449D01*
X0194471Y0190300D01*
X0194512Y0190150D01*
X0194549Y0189998D01*
X0194583Y0189846D01*
X0194613Y0189693D01*
X0194638Y0189539D01*
X0194660Y0189385D01*
X0194678Y0189230D01*
X0194692Y0189075D01*
X0194702Y0188920D01*
X0194708Y0188764D01*
X0194710Y0188608D01*
X0194708Y0188452D01*
X0194702Y0188296D01*
X0194692Y0188141D01*
X0194678Y0187986D01*
X0194660Y0187831D01*
X0194638Y0187677D01*
X0194613Y0187523D01*
X0194583Y0187370D01*
X0194549Y0187218D01*
X0194512Y0187066D01*
X0194471Y0186916D01*
X0194426Y0186767D01*
X0194377Y0186619D01*
X0194324Y0186472D01*
X0194268Y0186327D01*
X0194208Y0186183D01*
X0194144Y0186041D01*
X0194076Y0185900D01*
X0194005Y0185762D01*
X0193931Y0185625D01*
X0193853Y0185490D01*
X0193772Y0185357D01*
X0193687Y0185226D01*
X0193599Y0185097D01*
X0193508Y0184971D01*
X0193413Y0184847D01*
X0193316Y0184726D01*
X0193215Y0184607D01*
X0193111Y0184490D01*
X0193005Y0184377D01*
X0192895Y0184266D01*
X0192783Y0184158D01*
X0192668Y0184053D01*
X0192550Y0183950D01*
X0192430Y0183851D01*
X0192307Y0183755D01*
X0192182Y0183662D01*
X0192055Y0183573D01*
X0191925Y0183486D01*
X0191793Y0183403D01*
X0191659Y0183324D01*
X0191523Y0183247D01*
X0191385Y0183175D01*
X0191246Y0183105D01*
X0191104Y0183040D01*
X0190961Y0182978D01*
X0190817Y0182920D01*
X0190671Y0182865D01*
X0190523Y0182814D01*
X0190375Y0182767D01*
X0190225Y0182724D01*
X0190074Y0182685D01*
X0189922Y0182649D01*
X0189770Y0182618D01*
X0189616Y0182590D01*
X0189462Y0182566D01*
X0189308Y0182546D01*
X0189153Y0182530D01*
X0188997Y0182518D01*
X0188842Y0182510D01*
X0188686Y0182506D01*
X0188530Y0182506D01*
X0188374Y0182510D01*
X0188219Y0182518D01*
X0188063Y0182530D01*
X0187908Y0182546D01*
X0187754Y0182566D01*
X0187600Y0182590D01*
X0187446Y0182618D01*
X0187294Y0182649D01*
X0187142Y0182685D01*
X0186991Y0182724D01*
X0186841Y0182767D01*
X0186693Y0182814D01*
X0186545Y0182865D01*
X0186399Y0182920D01*
X0186255Y0182978D01*
X0186112Y0183040D01*
X0185970Y0183105D01*
X0185831Y0183175D01*
X0185693Y0183247D01*
X0185557Y0183324D01*
X0185423Y0183403D01*
X0185291Y0183486D01*
X0185161Y0183573D01*
X0185034Y0183662D01*
X0184909Y0183755D01*
X0184786Y0183851D01*
X0184666Y0183950D01*
X0184548Y0184053D01*
X0184433Y0184158D01*
X0184321Y0184266D01*
X0184211Y0184377D01*
X0184105Y0184490D01*
X0184001Y0184607D01*
X0183900Y0184726D01*
X0183803Y0184847D01*
X0183708Y0184971D01*
X0183617Y0185097D01*
X0183529Y0185226D01*
X0183444Y0185357D01*
X0183363Y0185490D01*
X0183285Y0185625D01*
X0183211Y0185762D01*
X0183140Y0185900D01*
X0183072Y0186041D01*
X0183008Y0186183D01*
X0182948Y0186327D01*
X0182892Y0186472D01*
X0182839Y0186619D01*
X0182790Y0186767D01*
X0182745Y0186916D01*
X0182704Y0187066D01*
X0182667Y0187218D01*
X0182633Y0187370D01*
X0182603Y0187523D01*
X0182578Y0187677D01*
X0182556Y0187831D01*
X0182538Y0187986D01*
X0182524Y0188141D01*
X0182514Y0188296D01*
X0182508Y0188452D01*
X0182506Y0188608D01*
X0182506Y0011443D02*
X0182508Y0011599D01*
X0182514Y0011755D01*
X0182524Y0011910D01*
X0182538Y0012065D01*
X0182556Y0012220D01*
X0182578Y0012374D01*
X0182603Y0012528D01*
X0182633Y0012681D01*
X0182667Y0012833D01*
X0182704Y0012985D01*
X0182745Y0013135D01*
X0182790Y0013284D01*
X0182839Y0013432D01*
X0182892Y0013579D01*
X0182948Y0013724D01*
X0183008Y0013868D01*
X0183072Y0014010D01*
X0183140Y0014151D01*
X0183211Y0014289D01*
X0183285Y0014426D01*
X0183363Y0014561D01*
X0183444Y0014694D01*
X0183529Y0014825D01*
X0183617Y0014954D01*
X0183708Y0015080D01*
X0183803Y0015204D01*
X0183900Y0015325D01*
X0184001Y0015444D01*
X0184105Y0015561D01*
X0184211Y0015674D01*
X0184321Y0015785D01*
X0184433Y0015893D01*
X0184548Y0015998D01*
X0184666Y0016101D01*
X0184786Y0016200D01*
X0184909Y0016296D01*
X0185034Y0016389D01*
X0185161Y0016478D01*
X0185291Y0016565D01*
X0185423Y0016648D01*
X0185557Y0016727D01*
X0185693Y0016804D01*
X0185831Y0016876D01*
X0185970Y0016946D01*
X0186112Y0017011D01*
X0186255Y0017073D01*
X0186399Y0017131D01*
X0186545Y0017186D01*
X0186693Y0017237D01*
X0186841Y0017284D01*
X0186991Y0017327D01*
X0187142Y0017366D01*
X0187294Y0017402D01*
X0187446Y0017433D01*
X0187600Y0017461D01*
X0187754Y0017485D01*
X0187908Y0017505D01*
X0188063Y0017521D01*
X0188219Y0017533D01*
X0188374Y0017541D01*
X0188530Y0017545D01*
X0188686Y0017545D01*
X0188842Y0017541D01*
X0188997Y0017533D01*
X0189153Y0017521D01*
X0189308Y0017505D01*
X0189462Y0017485D01*
X0189616Y0017461D01*
X0189770Y0017433D01*
X0189922Y0017402D01*
X0190074Y0017366D01*
X0190225Y0017327D01*
X0190375Y0017284D01*
X0190523Y0017237D01*
X0190671Y0017186D01*
X0190817Y0017131D01*
X0190961Y0017073D01*
X0191104Y0017011D01*
X0191246Y0016946D01*
X0191385Y0016876D01*
X0191523Y0016804D01*
X0191659Y0016727D01*
X0191793Y0016648D01*
X0191925Y0016565D01*
X0192055Y0016478D01*
X0192182Y0016389D01*
X0192307Y0016296D01*
X0192430Y0016200D01*
X0192550Y0016101D01*
X0192668Y0015998D01*
X0192783Y0015893D01*
X0192895Y0015785D01*
X0193005Y0015674D01*
X0193111Y0015561D01*
X0193215Y0015444D01*
X0193316Y0015325D01*
X0193413Y0015204D01*
X0193508Y0015080D01*
X0193599Y0014954D01*
X0193687Y0014825D01*
X0193772Y0014694D01*
X0193853Y0014561D01*
X0193931Y0014426D01*
X0194005Y0014289D01*
X0194076Y0014151D01*
X0194144Y0014010D01*
X0194208Y0013868D01*
X0194268Y0013724D01*
X0194324Y0013579D01*
X0194377Y0013432D01*
X0194426Y0013284D01*
X0194471Y0013135D01*
X0194512Y0012985D01*
X0194549Y0012833D01*
X0194583Y0012681D01*
X0194613Y0012528D01*
X0194638Y0012374D01*
X0194660Y0012220D01*
X0194678Y0012065D01*
X0194692Y0011910D01*
X0194702Y0011755D01*
X0194708Y0011599D01*
X0194710Y0011443D01*
X0194708Y0011287D01*
X0194702Y0011131D01*
X0194692Y0010976D01*
X0194678Y0010821D01*
X0194660Y0010666D01*
X0194638Y0010512D01*
X0194613Y0010358D01*
X0194583Y0010205D01*
X0194549Y0010053D01*
X0194512Y0009901D01*
X0194471Y0009751D01*
X0194426Y0009602D01*
X0194377Y0009454D01*
X0194324Y0009307D01*
X0194268Y0009162D01*
X0194208Y0009018D01*
X0194144Y0008876D01*
X0194076Y0008735D01*
X0194005Y0008597D01*
X0193931Y0008460D01*
X0193853Y0008325D01*
X0193772Y0008192D01*
X0193687Y0008061D01*
X0193599Y0007932D01*
X0193508Y0007806D01*
X0193413Y0007682D01*
X0193316Y0007561D01*
X0193215Y0007442D01*
X0193111Y0007325D01*
X0193005Y0007212D01*
X0192895Y0007101D01*
X0192783Y0006993D01*
X0192668Y0006888D01*
X0192550Y0006785D01*
X0192430Y0006686D01*
X0192307Y0006590D01*
X0192182Y0006497D01*
X0192055Y0006408D01*
X0191925Y0006321D01*
X0191793Y0006238D01*
X0191659Y0006159D01*
X0191523Y0006082D01*
X0191385Y0006010D01*
X0191246Y0005940D01*
X0191104Y0005875D01*
X0190961Y0005813D01*
X0190817Y0005755D01*
X0190671Y0005700D01*
X0190523Y0005649D01*
X0190375Y0005602D01*
X0190225Y0005559D01*
X0190074Y0005520D01*
X0189922Y0005484D01*
X0189770Y0005453D01*
X0189616Y0005425D01*
X0189462Y0005401D01*
X0189308Y0005381D01*
X0189153Y0005365D01*
X0188997Y0005353D01*
X0188842Y0005345D01*
X0188686Y0005341D01*
X0188530Y0005341D01*
X0188374Y0005345D01*
X0188219Y0005353D01*
X0188063Y0005365D01*
X0187908Y0005381D01*
X0187754Y0005401D01*
X0187600Y0005425D01*
X0187446Y0005453D01*
X0187294Y0005484D01*
X0187142Y0005520D01*
X0186991Y0005559D01*
X0186841Y0005602D01*
X0186693Y0005649D01*
X0186545Y0005700D01*
X0186399Y0005755D01*
X0186255Y0005813D01*
X0186112Y0005875D01*
X0185970Y0005940D01*
X0185831Y0006010D01*
X0185693Y0006082D01*
X0185557Y0006159D01*
X0185423Y0006238D01*
X0185291Y0006321D01*
X0185161Y0006408D01*
X0185034Y0006497D01*
X0184909Y0006590D01*
X0184786Y0006686D01*
X0184666Y0006785D01*
X0184548Y0006888D01*
X0184433Y0006993D01*
X0184321Y0007101D01*
X0184211Y0007212D01*
X0184105Y0007325D01*
X0184001Y0007442D01*
X0183900Y0007561D01*
X0183803Y0007682D01*
X0183708Y0007806D01*
X0183617Y0007932D01*
X0183529Y0008061D01*
X0183444Y0008192D01*
X0183363Y0008325D01*
X0183285Y0008460D01*
X0183211Y0008597D01*
X0183140Y0008735D01*
X0183072Y0008876D01*
X0183008Y0009018D01*
X0182948Y0009162D01*
X0182892Y0009307D01*
X0182839Y0009454D01*
X0182790Y0009602D01*
X0182745Y0009751D01*
X0182704Y0009901D01*
X0182667Y0010053D01*
X0182633Y0010205D01*
X0182603Y0010358D01*
X0182578Y0010512D01*
X0182556Y0010666D01*
X0182538Y0010821D01*
X0182524Y0010976D01*
X0182514Y0011131D01*
X0182508Y0011287D01*
X0182506Y0011443D01*
D11*
X0101851Y0092525D03*
X0101851Y0097525D03*
X0101851Y0102525D03*
X0101851Y0107525D03*
X0082451Y0107525D03*
X0082451Y0102525D03*
X0082451Y0097525D03*
X0082451Y0092525D03*
D12*
X0092151Y0100025D03*
D13*
X0086639Y0084277D03*
X0097663Y0084277D03*
D14*
X0072466Y0085832D03*
X0072466Y0092525D03*
X0072466Y0100616D03*
X0072466Y0107309D03*
X0084277Y0116364D03*
X0084277Y0123057D03*
X0013411Y0111246D03*
X0013411Y0104553D03*
D15*
X0143332Y0122072D03*
X0143332Y0140970D03*
D16*
X0084868Y0131521D03*
X0067939Y0131521D03*
D17*
X0111836Y0122466D03*
X0111836Y0148450D03*
D18*
X0117284Y0107525D03*
X0117284Y0102525D03*
X0117284Y0097525D03*
X0117284Y0092525D03*
X0137884Y0092525D03*
X0137884Y0097525D03*
X0137884Y0102525D03*
X0137884Y0107525D03*
D19*
X0121974Y0084277D03*
X0109572Y0084277D03*
D20*
X0130143Y0084277D03*
X0136836Y0084277D03*
X0123057Y0037033D03*
X0116364Y0037033D03*
X0044317Y0060970D03*
X0037624Y0060970D03*
X0132387Y0171285D03*
X0139080Y0171285D03*
D21*
X0139080Y0186639D03*
X0129080Y0186639D03*
X0149080Y0186639D03*
X0186639Y0159080D03*
X0186639Y0149080D03*
X0186639Y0139080D03*
X0186639Y0105931D03*
X0176639Y0105931D03*
X0166639Y0105931D03*
X0166639Y0095931D03*
X0176639Y0095931D03*
X0186639Y0095931D03*
X0186639Y0060970D03*
X0186639Y0050970D03*
X0186639Y0040970D03*
X0149080Y0013411D03*
X0139080Y0013411D03*
X0129080Y0013411D03*
X0124592Y0052781D03*
X0114592Y0052781D03*
X0104592Y0052781D03*
X0094592Y0052781D03*
X0084592Y0052781D03*
X0074592Y0052781D03*
X0064592Y0052781D03*
X0060970Y0013411D03*
X0050970Y0013411D03*
X0070970Y0013411D03*
X0013411Y0040970D03*
X0013411Y0050970D03*
X0013411Y0060970D03*
X0013411Y0139080D03*
X0013411Y0149080D03*
X0013411Y0159080D03*
X0050970Y0186639D03*
X0060970Y0186639D03*
X0070970Y0186639D03*
X0134592Y0052781D03*
X0144592Y0052781D03*
D22*
X0092151Y0021285D03*
X0048096Y0072466D03*
X0043096Y0072466D03*
X0038096Y0072466D03*
X0033096Y0072466D03*
X0033096Y0096088D03*
X0038096Y0096088D03*
X0043096Y0096088D03*
X0048096Y0096088D03*
X0048096Y0119710D03*
X0043096Y0119710D03*
X0038096Y0119710D03*
X0033096Y0119710D03*
X0033096Y0143332D03*
X0038096Y0143332D03*
X0043096Y0143332D03*
X0048096Y0143332D03*
X0081088Y0166954D03*
X0086088Y0166954D03*
X0091088Y0166954D03*
X0096088Y0166954D03*
X0096088Y0182702D03*
X0091088Y0182702D03*
X0086088Y0182702D03*
X0119710Y0178765D03*
D23*
X0150106Y0163017D03*
X0152306Y0163017D03*
X0169791Y0149080D03*
X0171991Y0149080D03*
X0164117Y0050970D03*
X0161917Y0050970D03*
X0148369Y0029159D03*
X0146169Y0029159D03*
X0049944Y0033096D03*
X0047744Y0033096D03*
X0034196Y0050970D03*
X0031996Y0050970D03*
X0047744Y0163017D03*
X0049944Y0163017D03*
D24*
X0040970Y0186639D03*
X0159080Y0186639D03*
X0159080Y0013411D03*
X0040970Y0013411D03*
D25*
X0040570Y0013585D02*
X0019974Y0013585D01*
X0020145Y0013174D02*
X0018820Y0016372D01*
X0016372Y0018820D01*
X0013174Y0020145D01*
X0009712Y0020145D01*
X0006513Y0018820D01*
X0004200Y0016507D01*
X0004200Y0183543D01*
X0006513Y0181230D01*
X0009712Y0179906D01*
X0013174Y0179906D01*
X0016372Y0181230D01*
X0018820Y0183678D01*
X0020145Y0186877D01*
X0020145Y0190339D01*
X0018820Y0193537D01*
X0016507Y0195850D01*
X0183543Y0195850D01*
X0181230Y0193537D01*
X0179906Y0190339D01*
X0179906Y0186877D01*
X0181230Y0183678D01*
X0183678Y0181230D01*
X0186877Y0179906D01*
X0190339Y0179906D01*
X0193537Y0181230D01*
X0195850Y0183543D01*
X0195850Y0016507D01*
X0193537Y0018820D01*
X0190339Y0020145D01*
X0186877Y0020145D01*
X0183678Y0018820D01*
X0181230Y0016372D01*
X0179906Y0013174D01*
X0179906Y0009712D01*
X0181230Y0006513D01*
X0183543Y0004200D01*
X0016507Y0004200D01*
X0018820Y0006513D01*
X0020145Y0009712D01*
X0020145Y0013174D01*
X0020145Y0012387D02*
X0035670Y0012387D01*
X0035670Y0013011D02*
X0035670Y0009500D01*
X0035779Y0009093D01*
X0035990Y0008729D01*
X0036288Y0008431D01*
X0036652Y0008220D01*
X0037059Y0008111D01*
X0040570Y0008111D01*
X0040570Y0013011D01*
X0035670Y0013011D01*
X0035670Y0013811D02*
X0035670Y0017322D01*
X0035779Y0017729D01*
X0035990Y0018093D01*
X0036288Y0018391D01*
X0036652Y0018602D01*
X0037059Y0018711D01*
X0040570Y0018711D01*
X0040570Y0013811D01*
X0040570Y0013011D01*
X0041370Y0013011D01*
X0041370Y0008111D01*
X0044881Y0008111D01*
X0045288Y0008220D01*
X0045652Y0008431D01*
X0045950Y0008729D01*
X0046161Y0009093D01*
X0046270Y0009500D01*
X0046270Y0011954D01*
X0046816Y0010635D01*
X0048194Y0009257D01*
X0049995Y0008511D01*
X0051945Y0008511D01*
X0053746Y0009257D01*
X0055124Y0010635D01*
X0055870Y0012436D01*
X0055870Y0014386D01*
X0055124Y0016187D01*
X0053746Y0017565D01*
X0051945Y0018311D01*
X0049995Y0018311D01*
X0048194Y0017565D01*
X0046816Y0016187D01*
X0046270Y0014868D01*
X0046270Y0017322D01*
X0046161Y0017729D01*
X0045950Y0018093D01*
X0045652Y0018391D01*
X0045288Y0018602D01*
X0044881Y0018711D01*
X0041370Y0018711D01*
X0041370Y0013811D01*
X0040570Y0013811D01*
X0035670Y0013811D01*
X0035670Y0014784D02*
X0019478Y0014784D01*
X0018982Y0015982D02*
X0035670Y0015982D01*
X0035670Y0017181D02*
X0018011Y0017181D01*
X0016813Y0018379D02*
X0036275Y0018379D01*
X0040570Y0018379D02*
X0041370Y0018379D01*
X0041370Y0017181D02*
X0040570Y0017181D01*
X0040570Y0015982D02*
X0041370Y0015982D01*
X0041370Y0014784D02*
X0040570Y0014784D01*
X0040570Y0012387D02*
X0041370Y0012387D01*
X0041370Y0011188D02*
X0040570Y0011188D01*
X0040570Y0009990D02*
X0041370Y0009990D01*
X0041370Y0008791D02*
X0040570Y0008791D01*
X0045986Y0008791D02*
X0049319Y0008791D01*
X0047462Y0009990D02*
X0046270Y0009990D01*
X0046270Y0011188D02*
X0046587Y0011188D01*
X0046731Y0015982D02*
X0046270Y0015982D01*
X0046270Y0017181D02*
X0047810Y0017181D01*
X0045665Y0018379D02*
X0090805Y0018379D01*
X0090339Y0018572D02*
X0091515Y0018085D01*
X0092788Y0018085D01*
X0093964Y0018572D01*
X0094864Y0019472D01*
X0095351Y0020649D01*
X0095351Y0021922D01*
X0094864Y0023098D01*
X0094540Y0023422D01*
X0129117Y0023422D01*
X0130172Y0024476D01*
X0130172Y0033842D01*
X0129117Y0034896D01*
X0126422Y0034896D01*
X0126422Y0035233D01*
X0130776Y0035233D01*
X0137280Y0028728D01*
X0137280Y0017969D01*
X0136305Y0017565D01*
X0134926Y0016187D01*
X0134180Y0014386D01*
X0134180Y0012436D01*
X0134926Y0010635D01*
X0136305Y0009257D01*
X0138106Y0008511D01*
X0140055Y0008511D01*
X0141856Y0009257D01*
X0143234Y0010635D01*
X0143980Y0012436D01*
X0143980Y0014386D01*
X0143234Y0016187D01*
X0141856Y0017565D01*
X0140880Y0017969D01*
X0140880Y0027415D01*
X0141415Y0026879D01*
X0142404Y0026470D01*
X0143473Y0026470D01*
X0144384Y0026847D01*
X0144872Y0026359D01*
X0149666Y0026359D01*
X0150155Y0026847D01*
X0151065Y0026470D01*
X0152135Y0026470D01*
X0153123Y0026879D01*
X0153880Y0027636D01*
X0154289Y0028624D01*
X0154289Y0029694D01*
X0153880Y0030682D01*
X0153123Y0031439D01*
X0152135Y0031848D01*
X0151065Y0031848D01*
X0150155Y0031471D01*
X0149666Y0031959D01*
X0148169Y0031959D01*
X0148169Y0039042D01*
X0158098Y0048970D01*
X0159917Y0048970D01*
X0159917Y0048873D01*
X0160620Y0048170D01*
X0165414Y0048170D01*
X0166117Y0048873D01*
X0166117Y0048970D01*
X0182164Y0048970D01*
X0182485Y0048194D01*
X0183864Y0046816D01*
X0185470Y0046151D01*
X0185398Y0046140D01*
X0184605Y0045882D01*
X0183862Y0045503D01*
X0183187Y0045013D01*
X0182597Y0044423D01*
X0182106Y0043748D01*
X0181728Y0043005D01*
X0181470Y0042211D01*
X0181339Y0041387D01*
X0181339Y0041370D01*
X0186239Y0041370D01*
X0186239Y0040570D01*
X0181339Y0040570D01*
X0181339Y0040553D01*
X0181470Y0039729D01*
X0181728Y0038936D01*
X0182106Y0038192D01*
X0182597Y0037517D01*
X0183187Y0036927D01*
X0183862Y0036437D01*
X0184605Y0036058D01*
X0185398Y0035801D01*
X0186222Y0035670D01*
X0186239Y0035670D01*
X0186239Y0040570D01*
X0187039Y0040570D01*
X0187039Y0035670D01*
X0187056Y0035670D01*
X0187880Y0035801D01*
X0188674Y0036058D01*
X0189417Y0036437D01*
X0190092Y0036927D01*
X0190682Y0037517D01*
X0191172Y0038192D01*
X0191551Y0038936D01*
X0191809Y0039729D01*
X0191939Y0040553D01*
X0191939Y0040570D01*
X0187039Y0040570D01*
X0187039Y0041370D01*
X0191939Y0041370D01*
X0191939Y0041387D01*
X0191809Y0042211D01*
X0191551Y0043005D01*
X0191172Y0043748D01*
X0190682Y0044423D01*
X0190092Y0045013D01*
X0189417Y0045503D01*
X0188674Y0045882D01*
X0187880Y0046140D01*
X0187809Y0046151D01*
X0189415Y0046816D01*
X0190793Y0048194D01*
X0191539Y0049995D01*
X0191539Y0051945D01*
X0190793Y0053746D01*
X0189415Y0055124D01*
X0187614Y0055870D01*
X0185665Y0055870D01*
X0183864Y0055124D01*
X0182485Y0053746D01*
X0182164Y0052970D01*
X0166117Y0052970D01*
X0166117Y0053067D01*
X0165414Y0053770D01*
X0160620Y0053770D01*
X0159917Y0053067D01*
X0159917Y0052970D01*
X0156441Y0052970D01*
X0145341Y0041870D01*
X0144169Y0040698D01*
X0144169Y0031560D01*
X0143473Y0031848D01*
X0142404Y0031848D01*
X0141415Y0031439D01*
X0140659Y0030682D01*
X0140588Y0030512D01*
X0133321Y0037779D01*
X0132267Y0038833D01*
X0126422Y0038833D01*
X0126422Y0039499D01*
X0125719Y0040202D01*
X0120394Y0040202D01*
X0119710Y0039518D01*
X0119026Y0040202D01*
X0113701Y0040202D01*
X0112998Y0039499D01*
X0112998Y0038833D01*
X0104708Y0038833D01*
X0096392Y0047149D01*
X0096392Y0048223D01*
X0097368Y0048627D01*
X0098746Y0050005D01*
X0099492Y0051806D01*
X0099492Y0053756D01*
X0098746Y0055557D01*
X0097368Y0056935D01*
X0095567Y0057681D01*
X0093617Y0057681D01*
X0091816Y0056935D01*
X0090438Y0055557D01*
X0089692Y0053756D01*
X0089692Y0051806D01*
X0090438Y0050005D01*
X0091816Y0048627D01*
X0092792Y0048223D01*
X0092792Y0045658D01*
X0093847Y0044603D01*
X0102162Y0036287D01*
X0103217Y0035233D01*
X0112998Y0035233D01*
X0112998Y0034896D01*
X0074266Y0034896D01*
X0074266Y0047881D01*
X0075567Y0047881D01*
X0077368Y0048627D01*
X0078746Y0050005D01*
X0079492Y0051806D01*
X0079492Y0053756D01*
X0078746Y0055557D01*
X0077368Y0056935D01*
X0075567Y0057681D01*
X0073617Y0057681D01*
X0071816Y0056935D01*
X0070438Y0055557D01*
X0069773Y0053951D01*
X0069762Y0054022D01*
X0069504Y0054816D01*
X0069125Y0055559D01*
X0068635Y0056234D01*
X0068045Y0056824D01*
X0067370Y0057314D01*
X0066627Y0057693D01*
X0065833Y0057951D01*
X0065009Y0058081D01*
X0064992Y0058081D01*
X0064992Y0053181D01*
X0064192Y0053181D01*
X0064192Y0052381D01*
X0059292Y0052381D01*
X0059292Y0052364D01*
X0059423Y0051540D01*
X0059680Y0050747D01*
X0060059Y0050003D01*
X0060452Y0049463D01*
X0043256Y0049463D01*
X0043659Y0050435D01*
X0043659Y0051505D01*
X0043250Y0052493D01*
X0042493Y0053250D01*
X0041505Y0053659D01*
X0040435Y0053659D01*
X0039447Y0053250D01*
X0039167Y0052970D01*
X0036196Y0052970D01*
X0036196Y0053067D01*
X0035493Y0053770D01*
X0030699Y0053770D01*
X0029996Y0053067D01*
X0029996Y0052970D01*
X0017886Y0052970D01*
X0017565Y0053746D01*
X0016187Y0055124D01*
X0014386Y0055870D01*
X0012436Y0055870D01*
X0010635Y0055124D01*
X0009257Y0053746D01*
X0008511Y0051945D01*
X0008511Y0049995D01*
X0009257Y0048194D01*
X0010635Y0046816D01*
X0012241Y0046151D01*
X0012170Y0046140D01*
X0011377Y0045882D01*
X0010633Y0045503D01*
X0009958Y0045013D01*
X0009368Y0044423D01*
X0008878Y0043748D01*
X0008499Y0043005D01*
X0008242Y0042211D01*
X0008111Y0041387D01*
X0008111Y0041370D01*
X0013011Y0041370D01*
X0013011Y0040570D01*
X0013811Y0040570D01*
X0013811Y0035670D01*
X0013828Y0035670D01*
X0014652Y0035801D01*
X0015446Y0036058D01*
X0016189Y0036437D01*
X0016864Y0036927D01*
X0017454Y0037517D01*
X0017944Y0038192D01*
X0018323Y0038936D01*
X0018581Y0039729D01*
X0018711Y0040553D01*
X0018711Y0040570D01*
X0013811Y0040570D01*
X0013811Y0041370D01*
X0018711Y0041370D01*
X0018711Y0041387D01*
X0018581Y0042211D01*
X0018323Y0043005D01*
X0017944Y0043748D01*
X0017454Y0044423D01*
X0016864Y0045013D01*
X0016189Y0045503D01*
X0015446Y0045882D01*
X0014652Y0046140D01*
X0014581Y0046151D01*
X0016187Y0046816D01*
X0017565Y0048194D01*
X0017886Y0048970D01*
X0029996Y0048970D01*
X0029996Y0048873D01*
X0030699Y0048170D01*
X0031296Y0048170D01*
X0031296Y0038650D01*
X0032350Y0037595D01*
X0054918Y0037595D01*
X0054918Y0035156D01*
X0054698Y0035376D01*
X0053710Y0035785D01*
X0052640Y0035785D01*
X0051729Y0035408D01*
X0051241Y0035896D01*
X0046447Y0035896D01*
X0045959Y0035408D01*
X0045048Y0035785D01*
X0043979Y0035785D01*
X0042990Y0035376D01*
X0042234Y0034619D01*
X0041824Y0033631D01*
X0041824Y0032561D01*
X0042234Y0031573D01*
X0042990Y0030816D01*
X0043979Y0030407D01*
X0045048Y0030407D01*
X0045959Y0030784D01*
X0046447Y0030296D01*
X0051241Y0030296D01*
X0051729Y0030784D01*
X0052640Y0030407D01*
X0053710Y0030407D01*
X0054698Y0030816D01*
X0054918Y0031037D01*
X0054918Y0024476D01*
X0055973Y0023422D01*
X0089763Y0023422D01*
X0089438Y0023098D01*
X0088951Y0021922D01*
X0088951Y0020649D01*
X0089438Y0019472D01*
X0090339Y0018572D01*
X0089395Y0019578D02*
X0014543Y0019578D01*
X0008342Y0019578D02*
X0004200Y0019578D01*
X0004200Y0020776D02*
X0088951Y0020776D01*
X0088973Y0021975D02*
X0004200Y0021975D01*
X0004200Y0023173D02*
X0089514Y0023173D01*
X0093498Y0018379D02*
X0137280Y0018379D01*
X0137280Y0019578D02*
X0094908Y0019578D01*
X0095351Y0020776D02*
X0137280Y0020776D01*
X0137280Y0021975D02*
X0095329Y0021975D01*
X0094788Y0023173D02*
X0137280Y0023173D01*
X0137280Y0024372D02*
X0130067Y0024372D01*
X0130172Y0025570D02*
X0137280Y0025570D01*
X0137280Y0026769D02*
X0130172Y0026769D01*
X0130172Y0027967D02*
X0137280Y0027967D01*
X0136843Y0029166D02*
X0130172Y0029166D01*
X0130172Y0030364D02*
X0135644Y0030364D01*
X0134446Y0031563D02*
X0130172Y0031563D01*
X0130172Y0032761D02*
X0133247Y0032761D01*
X0132049Y0033960D02*
X0130053Y0033960D01*
X0130850Y0035158D02*
X0126422Y0035158D01*
X0128372Y0033096D02*
X0128372Y0025222D01*
X0056718Y0025222D01*
X0056718Y0039395D01*
X0033096Y0039395D01*
X0033096Y0047663D01*
X0072466Y0047663D01*
X0072466Y0033096D01*
X0128372Y0033096D01*
X0128372Y0032761D02*
X0056718Y0032761D01*
X0056718Y0031563D02*
X0128372Y0031563D01*
X0128372Y0030364D02*
X0056718Y0030364D01*
X0056718Y0029166D02*
X0128372Y0029166D01*
X0128372Y0027967D02*
X0056718Y0027967D01*
X0056718Y0026769D02*
X0128372Y0026769D01*
X0128372Y0025570D02*
X0056718Y0025570D01*
X0054918Y0025570D02*
X0004200Y0025570D01*
X0004200Y0024372D02*
X0055023Y0024372D01*
X0054918Y0026769D02*
X0004200Y0026769D01*
X0004200Y0027967D02*
X0054918Y0027967D01*
X0054918Y0029166D02*
X0004200Y0029166D01*
X0004200Y0030364D02*
X0046379Y0030364D01*
X0042244Y0031563D02*
X0004200Y0031563D01*
X0004200Y0032761D02*
X0041824Y0032761D01*
X0041961Y0033960D02*
X0004200Y0033960D01*
X0004200Y0035158D02*
X0042773Y0035158D01*
X0051309Y0030364D02*
X0054918Y0030364D01*
X0056718Y0033960D02*
X0072466Y0033960D01*
X0072466Y0035158D02*
X0056718Y0035158D01*
X0056718Y0036357D02*
X0072466Y0036357D01*
X0072466Y0037555D02*
X0056718Y0037555D01*
X0056718Y0038754D02*
X0072466Y0038754D01*
X0072466Y0039952D02*
X0033096Y0039952D01*
X0033096Y0041151D02*
X0072466Y0041151D01*
X0072466Y0042349D02*
X0033096Y0042349D01*
X0033096Y0043548D02*
X0072466Y0043548D01*
X0072466Y0044746D02*
X0033096Y0044746D01*
X0033096Y0045945D02*
X0072466Y0045945D01*
X0072466Y0047143D02*
X0033096Y0047143D01*
X0031296Y0047143D02*
X0016514Y0047143D01*
X0017626Y0048342D02*
X0030527Y0048342D01*
X0031296Y0045945D02*
X0015251Y0045945D01*
X0017130Y0044746D02*
X0031296Y0044746D01*
X0031296Y0043548D02*
X0018046Y0043548D01*
X0018536Y0042349D02*
X0031296Y0042349D01*
X0031296Y0041151D02*
X0013811Y0041151D01*
X0013011Y0041151D02*
X0004200Y0041151D01*
X0004200Y0042349D02*
X0008286Y0042349D01*
X0008776Y0043548D02*
X0004200Y0043548D01*
X0004200Y0044746D02*
X0009692Y0044746D01*
X0011571Y0045945D02*
X0004200Y0045945D01*
X0004200Y0047143D02*
X0010308Y0047143D01*
X0009196Y0048342D02*
X0004200Y0048342D01*
X0004200Y0049540D02*
X0008699Y0049540D01*
X0008511Y0050739D02*
X0004200Y0050739D01*
X0004200Y0051937D02*
X0008511Y0051937D01*
X0009004Y0053136D02*
X0004200Y0053136D01*
X0004200Y0054334D02*
X0009846Y0054334D01*
X0011623Y0055533D02*
X0004200Y0055533D01*
X0004200Y0056732D02*
X0010839Y0056732D01*
X0010635Y0056816D02*
X0012436Y0056070D01*
X0014386Y0056070D01*
X0016187Y0056816D01*
X0017565Y0058194D01*
X0017969Y0059170D01*
X0034258Y0059170D01*
X0034258Y0058505D01*
X0034961Y0057802D01*
X0040286Y0057802D01*
X0040970Y0058486D01*
X0041654Y0057802D01*
X0046979Y0057802D01*
X0047682Y0058505D01*
X0047682Y0059170D01*
X0110776Y0059170D01*
X0112661Y0057285D01*
X0111816Y0056935D01*
X0110438Y0055557D01*
X0109692Y0053756D01*
X0109692Y0051806D01*
X0110438Y0050005D01*
X0111816Y0048627D01*
X0113617Y0047881D01*
X0115567Y0047881D01*
X0117368Y0048627D01*
X0118746Y0050005D01*
X0119492Y0051806D01*
X0119492Y0053756D01*
X0118746Y0055557D01*
X0117368Y0056935D01*
X0116392Y0057339D01*
X0116392Y0058645D01*
X0113321Y0061716D01*
X0112267Y0062770D01*
X0047682Y0062770D01*
X0047682Y0063436D01*
X0047144Y0063973D01*
X0115028Y0063973D01*
X0121993Y0057008D01*
X0121816Y0056935D01*
X0120438Y0055557D01*
X0119692Y0053756D01*
X0119692Y0051806D01*
X0120438Y0050005D01*
X0121816Y0048627D01*
X0123617Y0047881D01*
X0125567Y0047881D01*
X0127368Y0048627D01*
X0128746Y0050005D01*
X0129492Y0051806D01*
X0129492Y0053756D01*
X0128746Y0055557D01*
X0127368Y0056935D01*
X0126392Y0057339D01*
X0126392Y0057700D01*
X0117573Y0066519D01*
X0116519Y0067573D01*
X0028724Y0067573D01*
X0015211Y0081086D01*
X0015211Y0101187D01*
X0015877Y0101187D01*
X0016580Y0101890D01*
X0016580Y0107215D01*
X0015895Y0107899D01*
X0016580Y0108583D01*
X0016580Y0113908D01*
X0015877Y0114611D01*
X0015211Y0114611D01*
X0015211Y0134522D01*
X0016187Y0134926D01*
X0017565Y0136305D01*
X0018311Y0138106D01*
X0018311Y0140055D01*
X0017565Y0141856D01*
X0016187Y0143234D01*
X0014386Y0143980D01*
X0012436Y0143980D01*
X0010635Y0143234D01*
X0009257Y0141856D01*
X0008511Y0140055D01*
X0008511Y0138106D01*
X0009257Y0136305D01*
X0010635Y0134926D01*
X0011611Y0134522D01*
X0011611Y0114611D01*
X0010945Y0114611D01*
X0010243Y0113908D01*
X0010243Y0108583D01*
X0010927Y0107899D01*
X0010243Y0107215D01*
X0010243Y0101890D01*
X0010945Y0101187D01*
X0011611Y0101187D01*
X0011611Y0079595D01*
X0012665Y0078540D01*
X0027232Y0063973D01*
X0034796Y0063973D01*
X0034258Y0063436D01*
X0034258Y0062770D01*
X0017969Y0062770D01*
X0017565Y0063746D01*
X0016187Y0065124D01*
X0014386Y0065870D01*
X0012436Y0065870D01*
X0010635Y0065124D01*
X0009257Y0063746D01*
X0008511Y0061945D01*
X0008511Y0059995D01*
X0009257Y0058194D01*
X0010635Y0056816D01*
X0009521Y0057930D02*
X0004200Y0057930D01*
X0004200Y0059129D02*
X0008870Y0059129D01*
X0008511Y0060327D02*
X0004200Y0060327D01*
X0004200Y0061526D02*
X0008511Y0061526D01*
X0008834Y0062724D02*
X0004200Y0062724D01*
X0004200Y0063923D02*
X0009434Y0063923D01*
X0010632Y0065121D02*
X0004200Y0065121D01*
X0004200Y0066320D02*
X0024886Y0066320D01*
X0023687Y0067518D02*
X0004200Y0067518D01*
X0004200Y0068717D02*
X0022489Y0068717D01*
X0021290Y0069915D02*
X0004200Y0069915D01*
X0004200Y0071114D02*
X0020092Y0071114D01*
X0018893Y0072312D02*
X0004200Y0072312D01*
X0004200Y0073511D02*
X0017695Y0073511D01*
X0016496Y0074709D02*
X0004200Y0074709D01*
X0004200Y0075908D02*
X0015298Y0075908D01*
X0014099Y0077106D02*
X0004200Y0077106D01*
X0004200Y0078305D02*
X0012901Y0078305D01*
X0011702Y0079503D02*
X0004200Y0079503D01*
X0004200Y0080702D02*
X0011611Y0080702D01*
X0011611Y0081900D02*
X0004200Y0081900D01*
X0004200Y0083099D02*
X0011611Y0083099D01*
X0011611Y0084297D02*
X0004200Y0084297D01*
X0004200Y0085496D02*
X0011611Y0085496D01*
X0011611Y0086694D02*
X0004200Y0086694D01*
X0004200Y0087893D02*
X0011611Y0087893D01*
X0011611Y0089091D02*
X0004200Y0089091D01*
X0004200Y0090290D02*
X0011611Y0090290D01*
X0011611Y0091488D02*
X0004200Y0091488D01*
X0004200Y0092687D02*
X0011611Y0092687D01*
X0011611Y0093885D02*
X0004200Y0093885D01*
X0004200Y0095084D02*
X0011611Y0095084D01*
X0011611Y0096282D02*
X0004200Y0096282D01*
X0004200Y0097481D02*
X0011611Y0097481D01*
X0011611Y0098679D02*
X0004200Y0098679D01*
X0004200Y0099878D02*
X0011611Y0099878D01*
X0011611Y0101076D02*
X0004200Y0101076D01*
X0004200Y0102275D02*
X0010243Y0102275D01*
X0010243Y0103473D02*
X0004200Y0103473D01*
X0004200Y0104672D02*
X0010243Y0104672D01*
X0010243Y0105870D02*
X0004200Y0105870D01*
X0004200Y0107069D02*
X0010243Y0107069D01*
X0010558Y0108268D02*
X0004200Y0108268D01*
X0004200Y0109466D02*
X0010243Y0109466D01*
X0010243Y0110665D02*
X0004200Y0110665D01*
X0004200Y0111863D02*
X0010243Y0111863D01*
X0010243Y0113062D02*
X0004200Y0113062D01*
X0004200Y0114260D02*
X0010595Y0114260D01*
X0011611Y0115459D02*
X0004200Y0115459D01*
X0004200Y0116657D02*
X0011611Y0116657D01*
X0011611Y0117856D02*
X0004200Y0117856D01*
X0004200Y0119054D02*
X0011611Y0119054D01*
X0011611Y0120253D02*
X0004200Y0120253D01*
X0004200Y0121451D02*
X0011611Y0121451D01*
X0011611Y0122650D02*
X0004200Y0122650D01*
X0004200Y0123848D02*
X0011611Y0123848D01*
X0011611Y0125047D02*
X0004200Y0125047D01*
X0004200Y0126245D02*
X0011611Y0126245D01*
X0011611Y0127444D02*
X0004200Y0127444D01*
X0004200Y0128642D02*
X0011611Y0128642D01*
X0011611Y0129841D02*
X0004200Y0129841D01*
X0004200Y0131039D02*
X0011611Y0131039D01*
X0011611Y0132238D02*
X0004200Y0132238D01*
X0004200Y0133436D02*
X0011611Y0133436D01*
X0011339Y0134635D02*
X0004200Y0134635D01*
X0004200Y0135833D02*
X0009728Y0135833D01*
X0008956Y0137032D02*
X0004200Y0137032D01*
X0004200Y0138230D02*
X0008511Y0138230D01*
X0008511Y0139429D02*
X0004200Y0139429D01*
X0004200Y0140627D02*
X0008748Y0140627D01*
X0009245Y0141826D02*
X0004200Y0141826D01*
X0004200Y0143024D02*
X0010425Y0143024D01*
X0010635Y0144926D02*
X0012436Y0144180D01*
X0014386Y0144180D01*
X0016187Y0144926D01*
X0017565Y0146305D01*
X0018311Y0148106D01*
X0018311Y0150055D01*
X0017565Y0151856D01*
X0016187Y0153234D01*
X0014581Y0153900D01*
X0014652Y0153911D01*
X0015446Y0154169D01*
X0016189Y0154547D01*
X0016864Y0155038D01*
X0017454Y0155628D01*
X0017944Y0156302D01*
X0018323Y0157046D01*
X0018581Y0157839D01*
X0018711Y0158663D01*
X0018711Y0158680D01*
X0013811Y0158680D01*
X0013811Y0159480D01*
X0018711Y0159480D01*
X0018711Y0159497D01*
X0018581Y0160321D01*
X0018323Y0161115D01*
X0017944Y0161858D01*
X0017454Y0162533D01*
X0016864Y0163123D01*
X0016189Y0163613D01*
X0015446Y0163992D01*
X0014652Y0164250D01*
X0013828Y0164380D01*
X0013811Y0164380D01*
X0013811Y0159480D01*
X0013011Y0159480D01*
X0013011Y0158680D01*
X0008111Y0158680D01*
X0008111Y0158663D01*
X0008242Y0157839D01*
X0008499Y0157046D01*
X0008878Y0156302D01*
X0009368Y0155628D01*
X0009958Y0155038D01*
X0010633Y0154547D01*
X0011377Y0154169D01*
X0012170Y0153911D01*
X0012241Y0153900D01*
X0010635Y0153234D01*
X0009257Y0151856D01*
X0008511Y0150055D01*
X0008511Y0148106D01*
X0009257Y0146305D01*
X0010635Y0144926D01*
X0010140Y0145421D02*
X0004200Y0145421D01*
X0004200Y0144223D02*
X0012334Y0144223D01*
X0014488Y0144223D02*
X0029603Y0144223D01*
X0029634Y0144382D02*
X0029496Y0143687D01*
X0029496Y0143332D01*
X0029496Y0142978D01*
X0029634Y0142282D01*
X0029906Y0141627D01*
X0030300Y0141037D01*
X0030801Y0140536D01*
X0031391Y0140142D01*
X0032046Y0139871D01*
X0032741Y0139732D01*
X0033096Y0139732D01*
X0033096Y0143332D01*
X0033096Y0143332D01*
X0033096Y0139732D01*
X0033451Y0139732D01*
X0034146Y0139871D01*
X0034801Y0140142D01*
X0035391Y0140536D01*
X0035879Y0141024D01*
X0036096Y0140807D01*
X0036096Y0122236D01*
X0035879Y0122019D01*
X0035391Y0122507D01*
X0034801Y0122901D01*
X0034146Y0123172D01*
X0033451Y0123310D01*
X0033096Y0123310D01*
X0032741Y0123310D01*
X0032046Y0123172D01*
X0031391Y0122901D01*
X0030801Y0122507D01*
X0030300Y0122005D01*
X0029906Y0121415D01*
X0029634Y0120760D01*
X0029496Y0120065D01*
X0029496Y0119710D01*
X0029496Y0119356D01*
X0029634Y0118660D01*
X0029906Y0118005D01*
X0030300Y0117415D01*
X0030801Y0116914D01*
X0031391Y0116520D01*
X0032046Y0116249D01*
X0032741Y0116110D01*
X0033096Y0116110D01*
X0033096Y0119710D01*
X0033096Y0119710D01*
X0033096Y0116110D01*
X0033451Y0116110D01*
X0034146Y0116249D01*
X0034801Y0116520D01*
X0035391Y0116914D01*
X0035879Y0117402D01*
X0036096Y0117185D01*
X0036096Y0098614D01*
X0035879Y0098396D01*
X0035391Y0098884D01*
X0034801Y0099278D01*
X0034146Y0099550D01*
X0033451Y0099688D01*
X0033096Y0099688D01*
X0032741Y0099688D01*
X0032046Y0099550D01*
X0031391Y0099278D01*
X0030801Y0098884D01*
X0030300Y0098383D01*
X0029906Y0097793D01*
X0029634Y0097138D01*
X0029496Y0096443D01*
X0029496Y0096088D01*
X0029496Y0095734D01*
X0029634Y0095038D01*
X0029906Y0094383D01*
X0030300Y0093793D01*
X0030801Y0093292D01*
X0031391Y0092898D01*
X0032046Y0092627D01*
X0032741Y0092488D01*
X0033096Y0092488D01*
X0033096Y0096088D01*
X0033096Y0096088D01*
X0033096Y0092488D01*
X0033451Y0092488D01*
X0034146Y0092627D01*
X0034801Y0092898D01*
X0035391Y0093292D01*
X0035879Y0093780D01*
X0036096Y0093563D01*
X0036096Y0074992D01*
X0035879Y0074774D01*
X0035391Y0075262D01*
X0034801Y0075656D01*
X0034146Y0075928D01*
X0033451Y0076066D01*
X0033096Y0076066D01*
X0032741Y0076066D01*
X0032046Y0075928D01*
X0031391Y0075656D01*
X0030801Y0075262D01*
X0030300Y0074761D01*
X0029906Y0074171D01*
X0029634Y0073516D01*
X0029496Y0072821D01*
X0029496Y0072466D01*
X0029496Y0072112D01*
X0029634Y0071416D01*
X0029906Y0070761D01*
X0030300Y0070171D01*
X0030801Y0069670D01*
X0031391Y0069276D01*
X0032046Y0069004D01*
X0032741Y0068866D01*
X0033096Y0068866D01*
X0033096Y0072466D01*
X0033096Y0072466D01*
X0029496Y0072466D01*
X0033096Y0072466D01*
X0033096Y0072466D01*
X0033096Y0068866D01*
X0033451Y0068866D01*
X0034146Y0069004D01*
X0034801Y0069276D01*
X0035391Y0069670D01*
X0035879Y0070158D01*
X0036283Y0069753D01*
X0037460Y0069266D01*
X0038733Y0069266D01*
X0039909Y0069753D01*
X0040596Y0070441D01*
X0041283Y0069753D01*
X0042460Y0069266D01*
X0043733Y0069266D01*
X0044909Y0069753D01*
X0045596Y0070441D01*
X0046283Y0069753D01*
X0047460Y0069266D01*
X0048733Y0069266D01*
X0049909Y0069753D01*
X0050809Y0070653D01*
X0051296Y0071830D01*
X0051296Y0073103D01*
X0050809Y0074279D01*
X0049909Y0075179D01*
X0048733Y0075666D01*
X0047460Y0075666D01*
X0046283Y0075179D01*
X0045596Y0074492D01*
X0045096Y0074992D01*
X0045096Y0093563D01*
X0045596Y0094063D01*
X0046283Y0093375D01*
X0047460Y0092888D01*
X0048733Y0092888D01*
X0049909Y0093375D01*
X0050809Y0094276D01*
X0051296Y0095452D01*
X0051296Y0096725D01*
X0050809Y0097901D01*
X0049909Y0098801D01*
X0048733Y0099288D01*
X0047460Y0099288D01*
X0046283Y0098801D01*
X0045596Y0098114D01*
X0045096Y0098614D01*
X0045096Y0117185D01*
X0045596Y0117685D01*
X0046283Y0116997D01*
X0047460Y0116510D01*
X0048733Y0116510D01*
X0049909Y0116997D01*
X0050809Y0117898D01*
X0051296Y0119074D01*
X0051296Y0120347D01*
X0050809Y0121523D01*
X0049909Y0122423D01*
X0048733Y0122910D01*
X0047460Y0122910D01*
X0046283Y0122423D01*
X0045596Y0121736D01*
X0045096Y0122236D01*
X0045096Y0140807D01*
X0045596Y0141307D01*
X0046283Y0140619D01*
X0047460Y0140132D01*
X0048733Y0140132D01*
X0049909Y0140619D01*
X0050809Y0141520D01*
X0051296Y0142696D01*
X0051296Y0143969D01*
X0050809Y0145145D01*
X0049909Y0146045D01*
X0048733Y0146532D01*
X0047460Y0146532D01*
X0046283Y0146045D01*
X0045596Y0145358D01*
X0044909Y0146045D01*
X0043733Y0146532D01*
X0042460Y0146532D01*
X0041283Y0146045D01*
X0040596Y0145358D01*
X0039909Y0146045D01*
X0038733Y0146532D01*
X0037460Y0146532D01*
X0036283Y0146045D01*
X0035879Y0145641D01*
X0035391Y0146129D01*
X0034801Y0146523D01*
X0034146Y0146794D01*
X0033451Y0146932D01*
X0033096Y0146932D01*
X0032741Y0146932D01*
X0032046Y0146794D01*
X0031391Y0146523D01*
X0030801Y0146129D01*
X0030300Y0145627D01*
X0029906Y0145038D01*
X0029634Y0144382D01*
X0029496Y0143332D02*
X0033096Y0143332D01*
X0029496Y0143332D01*
X0029496Y0143024D02*
X0016397Y0143024D01*
X0017578Y0141826D02*
X0029823Y0141826D01*
X0030710Y0140627D02*
X0018074Y0140627D01*
X0018311Y0139429D02*
X0036096Y0139429D01*
X0036096Y0140627D02*
X0035482Y0140627D01*
X0033096Y0140627D02*
X0033096Y0140627D01*
X0033096Y0141826D02*
X0033096Y0141826D01*
X0033096Y0143024D02*
X0033096Y0143024D01*
X0033096Y0143332D02*
X0033096Y0143332D01*
X0033096Y0146932D01*
X0033096Y0143332D01*
X0033096Y0143332D01*
X0033096Y0144223D02*
X0033096Y0144223D01*
X0033096Y0145421D02*
X0033096Y0145421D01*
X0033096Y0146620D02*
X0033096Y0146620D01*
X0031626Y0146620D02*
X0017696Y0146620D01*
X0018192Y0147818D02*
X0052950Y0147818D01*
X0052950Y0146620D02*
X0034566Y0146620D01*
X0030162Y0145421D02*
X0016682Y0145421D01*
X0018311Y0149017D02*
X0052950Y0149017D01*
X0052950Y0150215D02*
X0018245Y0150215D01*
X0017748Y0151414D02*
X0052950Y0151414D01*
X0052950Y0152612D02*
X0016809Y0152612D01*
X0014795Y0153811D02*
X0052950Y0153811D01*
X0052950Y0155009D02*
X0016825Y0155009D01*
X0017875Y0156208D02*
X0052950Y0156208D01*
X0052950Y0157280D02*
X0052950Y0142587D01*
X0054004Y0141532D01*
X0074603Y0141532D01*
X0074603Y0128330D01*
X0070666Y0124393D01*
X0070666Y0110674D01*
X0070001Y0110674D01*
X0069298Y0109971D01*
X0069298Y0104646D01*
X0069982Y0103962D01*
X0069298Y0103278D01*
X0069298Y0097953D01*
X0070001Y0097250D01*
X0070666Y0097250D01*
X0070666Y0095891D01*
X0070001Y0095891D01*
X0069298Y0095188D01*
X0069298Y0089863D01*
X0069748Y0089412D01*
X0069515Y0089278D01*
X0069217Y0088980D01*
X0069007Y0088615D01*
X0068898Y0088208D01*
X0068898Y0086217D01*
X0072082Y0086217D01*
X0072082Y0085448D01*
X0072850Y0085448D01*
X0072850Y0082067D01*
X0074645Y0082067D01*
X0075052Y0082176D01*
X0075417Y0082387D01*
X0075715Y0082684D01*
X0075926Y0083049D01*
X0076035Y0083456D01*
X0076035Y0085448D01*
X0072850Y0085448D01*
X0072850Y0086217D01*
X0076035Y0086217D01*
X0076035Y0088208D01*
X0075926Y0088615D01*
X0075715Y0088980D01*
X0075417Y0089278D01*
X0075184Y0089412D01*
X0075635Y0089863D01*
X0075635Y0090725D01*
X0077554Y0090725D01*
X0078054Y0090225D01*
X0086848Y0090225D01*
X0087551Y0090928D01*
X0087551Y0092653D01*
X0087584Y0092634D01*
X0087991Y0092525D01*
X0091551Y0092525D01*
X0091551Y0099425D01*
X0087248Y0099425D01*
X0086848Y0099825D01*
X0078054Y0099825D01*
X0077351Y0099122D01*
X0077351Y0095928D01*
X0078054Y0095225D01*
X0086601Y0095225D01*
X0086601Y0094825D01*
X0078054Y0094825D01*
X0077554Y0094325D01*
X0075635Y0094325D01*
X0075635Y0095188D01*
X0074932Y0095891D01*
X0074266Y0095891D01*
X0074266Y0097250D01*
X0074932Y0097250D01*
X0075635Y0097953D01*
X0075635Y0103278D01*
X0074951Y0103962D01*
X0075635Y0104646D01*
X0075635Y0109971D01*
X0074932Y0110674D01*
X0074266Y0110674D01*
X0074266Y0122902D01*
X0077149Y0125784D01*
X0078203Y0126839D01*
X0078203Y0141532D01*
X0133658Y0141532D01*
X0133658Y0134713D01*
X0134713Y0133658D01*
X0148015Y0133658D01*
X0149069Y0134713D01*
X0149069Y0138970D01*
X0153610Y0138970D01*
X0161720Y0147080D01*
X0167791Y0147080D01*
X0167791Y0146983D01*
X0168494Y0146280D01*
X0173288Y0146280D01*
X0173991Y0146983D01*
X0173991Y0147080D01*
X0182164Y0147080D01*
X0182485Y0146305D01*
X0183864Y0144926D01*
X0185665Y0144180D01*
X0187614Y0144180D01*
X0189415Y0144926D01*
X0190793Y0146305D01*
X0191539Y0148106D01*
X0191539Y0150055D01*
X0190793Y0151856D01*
X0189415Y0153234D01*
X0187809Y0153900D01*
X0187880Y0153911D01*
X0188674Y0154169D01*
X0189417Y0154547D01*
X0190092Y0155038D01*
X0190682Y0155628D01*
X0191172Y0156302D01*
X0191551Y0157046D01*
X0191809Y0157839D01*
X0191939Y0158663D01*
X0191939Y0158680D01*
X0187039Y0158680D01*
X0187039Y0159480D01*
X0186239Y0159480D01*
X0186239Y0158680D01*
X0181339Y0158680D01*
X0181339Y0158663D01*
X0181470Y0157839D01*
X0181728Y0157046D01*
X0182106Y0156302D01*
X0182597Y0155628D01*
X0183187Y0155038D01*
X0183862Y0154547D01*
X0184605Y0154169D01*
X0185398Y0153911D01*
X0185470Y0153900D01*
X0183864Y0153234D01*
X0182485Y0151856D01*
X0182164Y0151080D01*
X0173991Y0151080D01*
X0173991Y0151177D01*
X0173288Y0151880D01*
X0168494Y0151880D01*
X0167791Y0151177D01*
X0167791Y0151080D01*
X0160063Y0151080D01*
X0158891Y0149909D01*
X0151953Y0142970D01*
X0149069Y0142970D01*
X0149069Y0160217D01*
X0153603Y0160217D01*
X0154092Y0160706D01*
X0155002Y0160328D01*
X0156072Y0160328D01*
X0157060Y0160738D01*
X0157817Y0161494D01*
X0158226Y0162482D01*
X0158226Y0163552D01*
X0157817Y0164541D01*
X0157060Y0165297D01*
X0156072Y0165706D01*
X0155002Y0165706D01*
X0154092Y0165329D01*
X0153603Y0165817D01*
X0149069Y0165817D01*
X0149069Y0168487D01*
X0148015Y0169542D01*
X0142446Y0169542D01*
X0142446Y0173751D01*
X0141743Y0174454D01*
X0140880Y0174454D01*
X0140880Y0182081D01*
X0141856Y0182485D01*
X0143234Y0183864D01*
X0143980Y0185665D01*
X0143980Y0187614D01*
X0143234Y0189415D01*
X0141856Y0190793D01*
X0140055Y0191539D01*
X0138106Y0191539D01*
X0136305Y0190793D01*
X0134926Y0189415D01*
X0134180Y0187614D01*
X0134180Y0185665D01*
X0134926Y0183864D01*
X0136305Y0182485D01*
X0137280Y0182081D01*
X0137280Y0174454D01*
X0136418Y0174454D01*
X0135734Y0173769D01*
X0135050Y0174454D01*
X0129725Y0174454D01*
X0129022Y0173751D01*
X0129022Y0173085D01*
X0076051Y0173085D01*
X0075759Y0172793D01*
X0075081Y0172793D01*
X0074093Y0172384D01*
X0073336Y0171627D01*
X0072927Y0170639D01*
X0072927Y0169569D01*
X0072938Y0169542D01*
X0052036Y0169542D01*
X0050981Y0168487D01*
X0050981Y0165817D01*
X0046447Y0165817D01*
X0045959Y0165329D01*
X0045048Y0165706D01*
X0043979Y0165706D01*
X0042990Y0165297D01*
X0042234Y0164541D01*
X0041824Y0163552D01*
X0041824Y0162482D01*
X0042234Y0161494D01*
X0042990Y0160738D01*
X0043979Y0160328D01*
X0045048Y0160328D01*
X0045959Y0160706D01*
X0046447Y0160217D01*
X0050981Y0160217D01*
X0050981Y0158335D01*
X0052036Y0157280D01*
X0052950Y0157280D01*
X0051909Y0157406D02*
X0018440Y0157406D01*
X0018702Y0158605D02*
X0050981Y0158605D01*
X0050981Y0159803D02*
X0018663Y0159803D01*
X0018359Y0161002D02*
X0042726Y0161002D01*
X0041941Y0162201D02*
X0017695Y0162201D01*
X0016484Y0163399D02*
X0041824Y0163399D01*
X0042291Y0164598D02*
X0004200Y0164598D01*
X0004200Y0165796D02*
X0046426Y0165796D01*
X0050981Y0166995D02*
X0004200Y0166995D01*
X0004200Y0168193D02*
X0050981Y0168193D01*
X0051885Y0169392D02*
X0004200Y0169392D01*
X0004200Y0170590D02*
X0072927Y0170590D01*
X0073498Y0171789D02*
X0004200Y0171789D01*
X0004200Y0172987D02*
X0075953Y0172987D01*
X0076797Y0171285D02*
X0075616Y0170104D01*
X0076797Y0171285D02*
X0132387Y0171285D01*
X0129457Y0174186D02*
X0004200Y0174186D01*
X0004200Y0175384D02*
X0137280Y0175384D01*
X0137280Y0176583D02*
X0122053Y0176583D01*
X0122423Y0176953D02*
X0122910Y0178129D01*
X0122910Y0179402D01*
X0122423Y0180578D01*
X0121523Y0181478D01*
X0120347Y0181965D01*
X0119074Y0181965D01*
X0117898Y0181478D01*
X0116997Y0180578D01*
X0116510Y0179402D01*
X0116510Y0178129D01*
X0116997Y0176953D01*
X0117898Y0176053D01*
X0119074Y0175565D01*
X0120347Y0175565D01*
X0121523Y0176053D01*
X0122423Y0176953D01*
X0122766Y0177781D02*
X0137280Y0177781D01*
X0137280Y0178980D02*
X0122910Y0178980D01*
X0122589Y0180178D02*
X0137280Y0180178D01*
X0137280Y0181377D02*
X0121624Y0181377D01*
X0117796Y0181377D02*
X0099436Y0181377D01*
X0099550Y0181652D02*
X0099688Y0182348D01*
X0099688Y0182702D01*
X0096088Y0182702D01*
X0096088Y0182702D01*
X0096088Y0179102D01*
X0095734Y0179102D01*
X0095038Y0179241D01*
X0094383Y0179512D01*
X0093793Y0179906D01*
X0093305Y0180394D01*
X0092901Y0179990D01*
X0091725Y0179502D01*
X0090452Y0179502D01*
X0089276Y0179990D01*
X0088588Y0180677D01*
X0087901Y0179990D01*
X0086725Y0179502D01*
X0085452Y0179502D01*
X0084276Y0179990D01*
X0083375Y0180890D01*
X0082888Y0182066D01*
X0082888Y0183339D01*
X0083375Y0184515D01*
X0084276Y0185415D01*
X0085452Y0185902D01*
X0086725Y0185902D01*
X0087901Y0185415D01*
X0088588Y0184728D01*
X0089276Y0185415D01*
X0090452Y0185902D01*
X0091725Y0185902D01*
X0092901Y0185415D01*
X0093305Y0185011D01*
X0093793Y0185499D01*
X0094383Y0185893D01*
X0095038Y0186164D01*
X0095734Y0186302D01*
X0096088Y0186302D01*
X0096088Y0182702D01*
X0096088Y0179102D01*
X0096443Y0179102D01*
X0097138Y0179241D01*
X0097793Y0179512D01*
X0098383Y0179906D01*
X0098884Y0180407D01*
X0099278Y0180997D01*
X0099550Y0181652D01*
X0099688Y0182575D02*
X0126215Y0182575D01*
X0126305Y0182485D02*
X0128106Y0181739D01*
X0130055Y0181739D01*
X0131856Y0182485D01*
X0133234Y0183864D01*
X0133980Y0185665D01*
X0133980Y0187614D01*
X0133234Y0189415D01*
X0131856Y0190793D01*
X0130055Y0191539D01*
X0128106Y0191539D01*
X0126305Y0190793D01*
X0124926Y0189415D01*
X0124180Y0187614D01*
X0124180Y0185665D01*
X0124926Y0183864D01*
X0126305Y0182485D01*
X0125016Y0183774D02*
X0099541Y0183774D01*
X0099550Y0183752D02*
X0099278Y0184408D01*
X0098884Y0184997D01*
X0098383Y0185499D01*
X0097793Y0185893D01*
X0097138Y0186164D01*
X0096443Y0186302D01*
X0096088Y0186302D01*
X0096088Y0182702D01*
X0096088Y0182702D01*
X0096088Y0182702D01*
X0099688Y0182702D01*
X0099688Y0183057D01*
X0099550Y0183752D01*
X0098901Y0184972D02*
X0124467Y0184972D01*
X0124180Y0186171D02*
X0097104Y0186171D01*
X0096088Y0186171D02*
X0096088Y0186171D01*
X0095072Y0186171D02*
X0075870Y0186171D01*
X0075870Y0185665D02*
X0075870Y0187614D01*
X0075124Y0189415D01*
X0073746Y0190793D01*
X0071945Y0191539D01*
X0069995Y0191539D01*
X0068194Y0190793D01*
X0066816Y0189415D01*
X0066070Y0187614D01*
X0066070Y0185665D01*
X0066816Y0183864D01*
X0068194Y0182485D01*
X0069995Y0181739D01*
X0071945Y0181739D01*
X0073746Y0182485D01*
X0075124Y0183864D01*
X0075870Y0185665D01*
X0075583Y0184972D02*
X0083833Y0184972D01*
X0083068Y0183774D02*
X0075034Y0183774D01*
X0073836Y0182575D02*
X0082888Y0182575D01*
X0083174Y0181377D02*
X0045020Y0181377D01*
X0044881Y0181339D02*
X0045288Y0181448D01*
X0045652Y0181659D01*
X0045950Y0181957D01*
X0046161Y0182322D01*
X0046270Y0182729D01*
X0046270Y0185182D01*
X0046816Y0183864D01*
X0048194Y0182485D01*
X0049995Y0181739D01*
X0051945Y0181739D01*
X0053746Y0182485D01*
X0055124Y0183864D01*
X0055870Y0185665D01*
X0055870Y0187614D01*
X0055124Y0189415D01*
X0053746Y0190793D01*
X0051945Y0191539D01*
X0049995Y0191539D01*
X0048194Y0190793D01*
X0046816Y0189415D01*
X0046270Y0188097D01*
X0046270Y0190550D01*
X0046161Y0190957D01*
X0045950Y0191322D01*
X0045652Y0191620D01*
X0045288Y0191830D01*
X0044881Y0191939D01*
X0041370Y0191939D01*
X0041370Y0187039D01*
X0040570Y0187039D01*
X0040570Y0186239D01*
X0041370Y0186239D01*
X0041370Y0181339D01*
X0044881Y0181339D01*
X0046229Y0182575D02*
X0048105Y0182575D01*
X0046906Y0183774D02*
X0046270Y0183774D01*
X0046270Y0184972D02*
X0046357Y0184972D01*
X0046270Y0188568D02*
X0046465Y0188568D01*
X0046270Y0189766D02*
X0047167Y0189766D01*
X0046157Y0190965D02*
X0048608Y0190965D01*
X0053332Y0190965D02*
X0058608Y0190965D01*
X0058194Y0190793D02*
X0056816Y0189415D01*
X0056070Y0187614D01*
X0056070Y0185665D01*
X0056816Y0183864D01*
X0058194Y0182485D01*
X0059995Y0181739D01*
X0061945Y0181739D01*
X0063746Y0182485D01*
X0065124Y0183864D01*
X0065870Y0185665D01*
X0065870Y0187614D01*
X0065124Y0189415D01*
X0063746Y0190793D01*
X0061945Y0191539D01*
X0059995Y0191539D01*
X0058194Y0190793D01*
X0057167Y0189766D02*
X0054773Y0189766D01*
X0055475Y0188568D02*
X0056465Y0188568D01*
X0056070Y0187369D02*
X0055870Y0187369D01*
X0055870Y0186171D02*
X0056070Y0186171D01*
X0056357Y0184972D02*
X0055583Y0184972D01*
X0055034Y0183774D02*
X0056906Y0183774D01*
X0058105Y0182575D02*
X0053836Y0182575D01*
X0063836Y0182575D02*
X0068105Y0182575D01*
X0066906Y0183774D02*
X0065034Y0183774D01*
X0065583Y0184972D02*
X0066357Y0184972D01*
X0066070Y0186171D02*
X0065870Y0186171D01*
X0065870Y0187369D02*
X0066070Y0187369D01*
X0066465Y0188568D02*
X0065475Y0188568D01*
X0064773Y0189766D02*
X0067167Y0189766D01*
X0068608Y0190965D02*
X0063332Y0190965D01*
X0073332Y0190965D02*
X0126719Y0190965D01*
X0125278Y0189766D02*
X0074773Y0189766D01*
X0075475Y0188568D02*
X0124575Y0188568D01*
X0124180Y0187369D02*
X0075870Y0187369D01*
X0084087Y0180178D02*
X0013832Y0180178D01*
X0016518Y0181377D02*
X0036920Y0181377D01*
X0037059Y0181339D02*
X0040570Y0181339D01*
X0040570Y0186239D01*
X0035670Y0186239D01*
X0035670Y0182729D01*
X0035779Y0182322D01*
X0035990Y0181957D01*
X0036288Y0181659D01*
X0036652Y0181448D01*
X0037059Y0181339D01*
X0035711Y0182575D02*
X0017717Y0182575D01*
X0018860Y0183774D02*
X0035670Y0183774D01*
X0035670Y0184972D02*
X0019356Y0184972D01*
X0019852Y0186171D02*
X0035670Y0186171D01*
X0035670Y0187039D02*
X0035670Y0190550D01*
X0035779Y0190957D01*
X0035990Y0191322D01*
X0036288Y0191620D01*
X0036652Y0191830D01*
X0037059Y0191939D01*
X0040570Y0191939D01*
X0040570Y0187039D01*
X0035670Y0187039D01*
X0035670Y0187369D02*
X0020145Y0187369D01*
X0020145Y0188568D02*
X0035670Y0188568D01*
X0035670Y0189766D02*
X0020145Y0189766D01*
X0019886Y0190965D02*
X0035784Y0190965D01*
X0040570Y0190965D02*
X0041370Y0190965D01*
X0041370Y0189766D02*
X0040570Y0189766D01*
X0040570Y0188568D02*
X0041370Y0188568D01*
X0041370Y0187369D02*
X0040570Y0187369D01*
X0040570Y0186171D02*
X0041370Y0186171D01*
X0041370Y0184972D02*
X0040570Y0184972D01*
X0040570Y0183774D02*
X0041370Y0183774D01*
X0041370Y0182575D02*
X0040570Y0182575D01*
X0040570Y0181377D02*
X0041370Y0181377D01*
X0052781Y0167742D02*
X0074292Y0167742D01*
X0075081Y0167415D01*
X0076151Y0167415D01*
X0076939Y0167742D01*
X0082951Y0167742D01*
X0082888Y0167591D01*
X0082888Y0166318D01*
X0083375Y0165142D01*
X0084276Y0164241D01*
X0085452Y0163754D01*
X0086725Y0163754D01*
X0087901Y0164241D01*
X0088588Y0164929D01*
X0089276Y0164241D01*
X0090452Y0163754D01*
X0091725Y0163754D01*
X0092901Y0164241D01*
X0093588Y0164929D01*
X0094276Y0164241D01*
X0095452Y0163754D01*
X0096725Y0163754D01*
X0097901Y0164241D01*
X0098801Y0165142D01*
X0099288Y0166318D01*
X0099288Y0167591D01*
X0099226Y0167742D01*
X0147269Y0167742D01*
X0147269Y0135458D01*
X0135458Y0135458D01*
X0135458Y0143332D01*
X0054750Y0143332D01*
X0054750Y0159080D01*
X0052781Y0159080D01*
X0052781Y0167742D01*
X0052781Y0166995D02*
X0082888Y0166995D01*
X0083104Y0165796D02*
X0052781Y0165796D01*
X0052781Y0164598D02*
X0083919Y0164598D01*
X0088257Y0164598D02*
X0088919Y0164598D01*
X0093257Y0164598D02*
X0093919Y0164598D01*
X0098257Y0164598D02*
X0147269Y0164598D01*
X0147269Y0165796D02*
X0099072Y0165796D01*
X0099288Y0166995D02*
X0147269Y0166995D01*
X0149069Y0166995D02*
X0195850Y0166995D01*
X0195850Y0168193D02*
X0149069Y0168193D01*
X0148165Y0169392D02*
X0195850Y0169392D01*
X0195850Y0170590D02*
X0142446Y0170590D01*
X0142446Y0171789D02*
X0195850Y0171789D01*
X0195850Y0172987D02*
X0142446Y0172987D01*
X0142011Y0174186D02*
X0195850Y0174186D01*
X0195850Y0175384D02*
X0140880Y0175384D01*
X0140880Y0176583D02*
X0195850Y0176583D01*
X0195850Y0177781D02*
X0140880Y0177781D01*
X0140880Y0178980D02*
X0195850Y0178980D01*
X0195850Y0180178D02*
X0190997Y0180178D01*
X0193684Y0181377D02*
X0195850Y0181377D01*
X0195850Y0182575D02*
X0194882Y0182575D01*
X0186219Y0180178D02*
X0140880Y0180178D01*
X0140880Y0181377D02*
X0155030Y0181377D01*
X0155170Y0181339D02*
X0158680Y0181339D01*
X0158680Y0186239D01*
X0159480Y0186239D01*
X0159480Y0181339D01*
X0162991Y0181339D01*
X0163398Y0181448D01*
X0163763Y0181659D01*
X0164061Y0181957D01*
X0164271Y0182322D01*
X0164380Y0182729D01*
X0164380Y0186239D01*
X0159480Y0186239D01*
X0159480Y0187039D01*
X0164380Y0187039D01*
X0164380Y0190550D01*
X0164271Y0190957D01*
X0164061Y0191322D01*
X0163763Y0191620D01*
X0163398Y0191830D01*
X0162991Y0191939D01*
X0159480Y0191939D01*
X0159480Y0187039D01*
X0158680Y0187039D01*
X0158680Y0191939D01*
X0155170Y0191939D01*
X0154763Y0191830D01*
X0154398Y0191620D01*
X0154100Y0191322D01*
X0153889Y0190957D01*
X0153780Y0190550D01*
X0153780Y0188097D01*
X0153234Y0189415D01*
X0151856Y0190793D01*
X0150055Y0191539D01*
X0148106Y0191539D01*
X0146305Y0190793D01*
X0144926Y0189415D01*
X0144180Y0187614D01*
X0144180Y0185665D01*
X0144926Y0183864D01*
X0146305Y0182485D01*
X0148106Y0181739D01*
X0150055Y0181739D01*
X0151856Y0182485D01*
X0153234Y0183864D01*
X0153780Y0185182D01*
X0153780Y0182729D01*
X0153889Y0182322D01*
X0154100Y0181957D01*
X0154398Y0181659D01*
X0154763Y0181448D01*
X0155170Y0181339D01*
X0153821Y0182575D02*
X0151946Y0182575D01*
X0153144Y0183774D02*
X0153780Y0183774D01*
X0153780Y0184972D02*
X0153693Y0184972D01*
X0153585Y0188568D02*
X0153780Y0188568D01*
X0153780Y0189766D02*
X0152883Y0189766D01*
X0153894Y0190965D02*
X0151442Y0190965D01*
X0146719Y0190965D02*
X0141442Y0190965D01*
X0142883Y0189766D02*
X0145278Y0189766D01*
X0144575Y0188568D02*
X0143585Y0188568D01*
X0143980Y0187369D02*
X0144180Y0187369D01*
X0144180Y0186171D02*
X0143980Y0186171D01*
X0143693Y0184972D02*
X0144467Y0184972D01*
X0145016Y0183774D02*
X0143144Y0183774D01*
X0141946Y0182575D02*
X0146215Y0182575D01*
X0139080Y0186639D02*
X0139080Y0171285D01*
X0136150Y0174186D02*
X0135318Y0174186D01*
X0136215Y0182575D02*
X0131946Y0182575D01*
X0133144Y0183774D02*
X0135016Y0183774D01*
X0134467Y0184972D02*
X0133693Y0184972D01*
X0133980Y0186171D02*
X0134180Y0186171D01*
X0134180Y0187369D02*
X0133980Y0187369D01*
X0133585Y0188568D02*
X0134575Y0188568D01*
X0135278Y0189766D02*
X0132883Y0189766D01*
X0131442Y0190965D02*
X0136719Y0190965D01*
X0116832Y0180178D02*
X0098655Y0180178D01*
X0096088Y0180178D02*
X0096088Y0180178D01*
X0096088Y0181377D02*
X0096088Y0181377D01*
X0096088Y0182575D02*
X0096088Y0182575D01*
X0096088Y0183774D02*
X0096088Y0183774D01*
X0096088Y0184972D02*
X0096088Y0184972D01*
X0093521Y0180178D02*
X0093089Y0180178D01*
X0089087Y0180178D02*
X0088089Y0180178D01*
X0088344Y0184972D02*
X0088833Y0184972D01*
X0116510Y0178980D02*
X0004200Y0178980D01*
X0004200Y0180178D02*
X0009053Y0180178D01*
X0006367Y0181377D02*
X0004200Y0181377D01*
X0004200Y0182575D02*
X0005168Y0182575D01*
X0004200Y0177781D02*
X0116654Y0177781D01*
X0117367Y0176583D02*
X0004200Y0176583D01*
X0011377Y0163992D02*
X0012170Y0164250D01*
X0012994Y0164380D01*
X0013011Y0164380D01*
X0013011Y0159480D01*
X0008111Y0159480D01*
X0008111Y0159497D01*
X0008242Y0160321D01*
X0008499Y0161115D01*
X0008878Y0161858D01*
X0009368Y0162533D01*
X0009958Y0163123D01*
X0010633Y0163613D01*
X0011377Y0163992D01*
X0010338Y0163399D02*
X0004200Y0163399D01*
X0004200Y0162201D02*
X0009127Y0162201D01*
X0008463Y0161002D02*
X0004200Y0161002D01*
X0004200Y0159803D02*
X0008160Y0159803D01*
X0008120Y0158605D02*
X0004200Y0158605D01*
X0004200Y0157406D02*
X0008382Y0157406D01*
X0008947Y0156208D02*
X0004200Y0156208D01*
X0004200Y0155009D02*
X0009997Y0155009D01*
X0010013Y0152612D02*
X0004200Y0152612D01*
X0004200Y0151414D02*
X0009074Y0151414D01*
X0008577Y0150215D02*
X0004200Y0150215D01*
X0004200Y0149017D02*
X0008511Y0149017D01*
X0008630Y0147818D02*
X0004200Y0147818D01*
X0004200Y0146620D02*
X0009126Y0146620D01*
X0012027Y0153811D02*
X0004200Y0153811D01*
X0013011Y0159803D02*
X0013811Y0159803D01*
X0013811Y0161002D02*
X0013011Y0161002D01*
X0013011Y0162201D02*
X0013811Y0162201D01*
X0013811Y0163399D02*
X0013011Y0163399D01*
X0013411Y0139080D02*
X0013411Y0111246D01*
X0016580Y0110665D02*
X0036096Y0110665D01*
X0036096Y0111863D02*
X0016580Y0111863D01*
X0016580Y0113062D02*
X0036096Y0113062D01*
X0036096Y0114260D02*
X0016228Y0114260D01*
X0015211Y0115459D02*
X0036096Y0115459D01*
X0036096Y0116657D02*
X0035007Y0116657D01*
X0033096Y0116657D02*
X0033096Y0116657D01*
X0033096Y0117856D02*
X0033096Y0117856D01*
X0033096Y0119054D02*
X0033096Y0119054D01*
X0033096Y0119710D02*
X0029496Y0119710D01*
X0033096Y0119710D01*
X0033096Y0119710D01*
X0033096Y0123310D01*
X0033096Y0119710D01*
X0033096Y0119710D01*
X0033096Y0120253D02*
X0033096Y0120253D01*
X0033096Y0121451D02*
X0033096Y0121451D01*
X0033096Y0122650D02*
X0033096Y0122650D01*
X0031015Y0122650D02*
X0015211Y0122650D01*
X0015211Y0123848D02*
X0036096Y0123848D01*
X0036096Y0122650D02*
X0035177Y0122650D01*
X0036096Y0125047D02*
X0015211Y0125047D01*
X0015211Y0126245D02*
X0036096Y0126245D01*
X0036096Y0127444D02*
X0015211Y0127444D01*
X0015211Y0128642D02*
X0036096Y0128642D01*
X0036096Y0129841D02*
X0015211Y0129841D01*
X0015211Y0131039D02*
X0036096Y0131039D01*
X0036096Y0132238D02*
X0015211Y0132238D01*
X0015211Y0133436D02*
X0036096Y0133436D01*
X0036096Y0134635D02*
X0015483Y0134635D01*
X0017094Y0135833D02*
X0036096Y0135833D01*
X0036096Y0137032D02*
X0017866Y0137032D01*
X0018311Y0138230D02*
X0036096Y0138230D01*
X0040532Y0145421D02*
X0040660Y0145421D01*
X0045532Y0145421D02*
X0045660Y0145421D01*
X0045096Y0140627D02*
X0046276Y0140627D01*
X0045096Y0139429D02*
X0074603Y0139429D01*
X0074603Y0140627D02*
X0049917Y0140627D01*
X0050936Y0141826D02*
X0053710Y0141826D01*
X0052950Y0143024D02*
X0051296Y0143024D01*
X0051191Y0144223D02*
X0052950Y0144223D01*
X0052950Y0145421D02*
X0050532Y0145421D01*
X0054750Y0145421D02*
X0147269Y0145421D01*
X0147269Y0144223D02*
X0054750Y0144223D01*
X0054750Y0146620D02*
X0147269Y0146620D01*
X0147269Y0147818D02*
X0054750Y0147818D01*
X0054750Y0149017D02*
X0147269Y0149017D01*
X0147269Y0150215D02*
X0054750Y0150215D01*
X0054750Y0151414D02*
X0147269Y0151414D01*
X0147269Y0152612D02*
X0054750Y0152612D01*
X0054750Y0153811D02*
X0147269Y0153811D01*
X0147269Y0155009D02*
X0054750Y0155009D01*
X0054750Y0156208D02*
X0147269Y0156208D01*
X0147269Y0157406D02*
X0054750Y0157406D01*
X0054750Y0158605D02*
X0147269Y0158605D01*
X0147269Y0159803D02*
X0052781Y0159803D01*
X0052781Y0161002D02*
X0147269Y0161002D01*
X0147269Y0162201D02*
X0052781Y0162201D01*
X0052781Y0163399D02*
X0147269Y0163399D01*
X0146876Y0163017D02*
X0150106Y0163017D01*
X0153625Y0165796D02*
X0195850Y0165796D01*
X0195850Y0164598D02*
X0157760Y0164598D01*
X0158226Y0163399D02*
X0183567Y0163399D01*
X0183862Y0163613D02*
X0183187Y0163123D01*
X0182597Y0162533D01*
X0182106Y0161858D01*
X0181728Y0161115D01*
X0181470Y0160321D01*
X0181339Y0159497D01*
X0181339Y0159480D01*
X0186239Y0159480D01*
X0186239Y0164380D01*
X0186222Y0164380D01*
X0185398Y0164250D01*
X0184605Y0163992D01*
X0183862Y0163613D01*
X0182355Y0162201D02*
X0158109Y0162201D01*
X0157324Y0161002D02*
X0181691Y0161002D01*
X0181388Y0159803D02*
X0149069Y0159803D01*
X0149069Y0158605D02*
X0181349Y0158605D01*
X0181610Y0157406D02*
X0149069Y0157406D01*
X0149069Y0156208D02*
X0182175Y0156208D01*
X0183226Y0155009D02*
X0149069Y0155009D01*
X0149069Y0153811D02*
X0185256Y0153811D01*
X0183242Y0152612D02*
X0149069Y0152612D01*
X0149069Y0151414D02*
X0168028Y0151414D01*
X0168155Y0146620D02*
X0161259Y0146620D01*
X0160061Y0145421D02*
X0183369Y0145421D01*
X0182355Y0146620D02*
X0173628Y0146620D01*
X0173755Y0151414D02*
X0182302Y0151414D01*
X0188023Y0153811D02*
X0195850Y0153811D01*
X0195850Y0155009D02*
X0190053Y0155009D01*
X0191104Y0156208D02*
X0195850Y0156208D01*
X0195850Y0157406D02*
X0191668Y0157406D01*
X0191930Y0158605D02*
X0195850Y0158605D01*
X0195850Y0159803D02*
X0191891Y0159803D01*
X0191939Y0159497D02*
X0191809Y0160321D01*
X0191551Y0161115D01*
X0191172Y0161858D01*
X0190682Y0162533D01*
X0190092Y0163123D01*
X0189417Y0163613D01*
X0188674Y0163992D01*
X0187880Y0164250D01*
X0187056Y0164380D01*
X0187039Y0164380D01*
X0187039Y0159480D01*
X0191939Y0159480D01*
X0191939Y0159497D01*
X0191588Y0161002D02*
X0195850Y0161002D01*
X0195850Y0162201D02*
X0190924Y0162201D01*
X0189712Y0163399D02*
X0195850Y0163399D01*
X0187039Y0163399D02*
X0186239Y0163399D01*
X0186239Y0162201D02*
X0187039Y0162201D01*
X0187039Y0161002D02*
X0186239Y0161002D01*
X0186239Y0159803D02*
X0187039Y0159803D01*
X0190037Y0152612D02*
X0195850Y0152612D01*
X0195850Y0151414D02*
X0190976Y0151414D01*
X0191473Y0150215D02*
X0195850Y0150215D01*
X0195850Y0149017D02*
X0191539Y0149017D01*
X0191420Y0147818D02*
X0195850Y0147818D01*
X0195850Y0146620D02*
X0190924Y0146620D01*
X0189910Y0145421D02*
X0195850Y0145421D01*
X0195850Y0144223D02*
X0187717Y0144223D01*
X0187614Y0143980D02*
X0185665Y0143980D01*
X0183864Y0143234D01*
X0182485Y0141856D01*
X0181739Y0140055D01*
X0181739Y0138106D01*
X0182485Y0136305D01*
X0183864Y0134926D01*
X0185665Y0134180D01*
X0187614Y0134180D01*
X0189415Y0134926D01*
X0190793Y0136305D01*
X0191539Y0138106D01*
X0191539Y0140055D01*
X0190793Y0141856D01*
X0189415Y0143234D01*
X0187614Y0143980D01*
X0185562Y0144223D02*
X0158862Y0144223D01*
X0157664Y0143024D02*
X0183654Y0143024D01*
X0182473Y0141826D02*
X0156465Y0141826D01*
X0155267Y0140627D02*
X0181976Y0140627D01*
X0181739Y0139429D02*
X0154068Y0139429D01*
X0152007Y0143024D02*
X0149069Y0143024D01*
X0149069Y0144223D02*
X0153205Y0144223D01*
X0154404Y0145421D02*
X0149069Y0145421D01*
X0149069Y0146620D02*
X0155602Y0146620D01*
X0156801Y0147818D02*
X0149069Y0147818D01*
X0149069Y0149017D02*
X0157999Y0149017D01*
X0159198Y0150215D02*
X0149069Y0150215D01*
X0147269Y0143024D02*
X0135458Y0143024D01*
X0135458Y0141826D02*
X0147269Y0141826D01*
X0147269Y0140627D02*
X0135458Y0140627D01*
X0135458Y0139429D02*
X0147269Y0139429D01*
X0147269Y0138230D02*
X0135458Y0138230D01*
X0135458Y0137032D02*
X0147269Y0137032D01*
X0147269Y0135833D02*
X0135458Y0135833D01*
X0133658Y0135833D02*
X0078203Y0135833D01*
X0078203Y0134635D02*
X0080908Y0134635D01*
X0080902Y0134629D02*
X0080902Y0120539D01*
X0081762Y0119680D01*
X0081109Y0119026D01*
X0081109Y0113701D01*
X0081812Y0112998D01*
X0082477Y0112998D01*
X0082477Y0112582D01*
X0080651Y0110756D01*
X0080651Y0109825D01*
X0078054Y0109825D01*
X0077351Y0109122D01*
X0077351Y0105928D01*
X0078054Y0105225D01*
X0086601Y0105225D01*
X0086601Y0104825D01*
X0078054Y0104825D01*
X0077351Y0104122D01*
X0077351Y0100928D01*
X0078054Y0100225D01*
X0086848Y0100225D01*
X0087248Y0100625D01*
X0091551Y0100625D01*
X0091551Y0099425D01*
X0092751Y0099425D01*
X0092751Y0092525D01*
X0096312Y0092525D01*
X0096719Y0092634D01*
X0096751Y0092653D01*
X0096751Y0090928D01*
X0097454Y0090225D01*
X0106248Y0090225D01*
X0106951Y0090928D01*
X0106951Y0094122D01*
X0106248Y0094825D01*
X0097701Y0094825D01*
X0097701Y0094836D01*
X0097741Y0094825D01*
X0101851Y0094825D01*
X0101851Y0097525D01*
X0101851Y0097525D01*
X0101851Y0094825D01*
X0105962Y0094825D01*
X0106369Y0094934D01*
X0106734Y0095145D01*
X0107031Y0095443D01*
X0107242Y0095808D01*
X0107351Y0096215D01*
X0107351Y0097525D01*
X0101851Y0097525D01*
X0101851Y0097525D01*
X0107351Y0097525D01*
X0107351Y0098836D01*
X0107252Y0099206D01*
X0107474Y0099206D01*
X0107474Y0096441D01*
X0107572Y0096342D01*
X0107572Y0087347D01*
X0107304Y0087347D01*
X0106601Y0086644D01*
X0106601Y0086277D01*
X0102013Y0086277D01*
X0102013Y0088318D01*
X0101310Y0089020D01*
X0094016Y0089020D01*
X0093313Y0088318D01*
X0093313Y0080237D01*
X0094016Y0079534D01*
X0101310Y0079534D01*
X0102013Y0080237D01*
X0102013Y0082277D01*
X0106601Y0082277D01*
X0106601Y0081910D01*
X0107304Y0081207D01*
X0111841Y0081207D01*
X0112544Y0081910D01*
X0112544Y0086644D01*
X0111841Y0087347D01*
X0111572Y0087347D01*
X0111572Y0095269D01*
X0112293Y0095269D01*
X0112437Y0095125D01*
X0122131Y0095125D01*
X0122834Y0095828D01*
X0122834Y0099222D01*
X0122131Y0099925D01*
X0121710Y0099925D01*
X0121710Y0100125D01*
X0122131Y0100125D01*
X0122834Y0100828D01*
X0122834Y0104222D01*
X0122131Y0104925D01*
X0121710Y0104925D01*
X0121710Y0105125D01*
X0122131Y0105125D01*
X0122834Y0105828D01*
X0122834Y0108068D01*
X0128330Y0108068D01*
X0129384Y0109122D01*
X0129384Y0130298D01*
X0128330Y0131353D01*
X0097888Y0131353D01*
X0097888Y0134629D01*
X0096834Y0135683D01*
X0081957Y0135683D01*
X0081888Y0135615D01*
X0081871Y0135615D01*
X0081168Y0134912D01*
X0081168Y0134894D01*
X0080902Y0134629D01*
X0080902Y0133436D02*
X0078203Y0133436D01*
X0078203Y0132238D02*
X0080902Y0132238D01*
X0080902Y0131039D02*
X0078203Y0131039D01*
X0078203Y0129841D02*
X0080902Y0129841D01*
X0080902Y0128642D02*
X0078203Y0128642D01*
X0078203Y0127444D02*
X0080902Y0127444D01*
X0080902Y0126245D02*
X0077610Y0126245D01*
X0076411Y0125047D02*
X0080902Y0125047D01*
X0080902Y0123848D02*
X0075213Y0123848D01*
X0074266Y0122650D02*
X0080902Y0122650D01*
X0080902Y0121451D02*
X0074266Y0121451D01*
X0074266Y0120253D02*
X0081189Y0120253D01*
X0081137Y0119054D02*
X0074266Y0119054D01*
X0074266Y0117856D02*
X0081109Y0117856D01*
X0081109Y0116657D02*
X0074266Y0116657D01*
X0074266Y0115459D02*
X0081109Y0115459D01*
X0081109Y0114260D02*
X0074266Y0114260D01*
X0074266Y0113062D02*
X0081748Y0113062D01*
X0081758Y0111863D02*
X0074266Y0111863D01*
X0074941Y0110665D02*
X0080651Y0110665D01*
X0082451Y0110010D02*
X0084277Y0111836D01*
X0084277Y0116364D01*
X0087446Y0116657D02*
X0093894Y0116657D01*
X0093894Y0115459D02*
X0087446Y0115459D01*
X0087446Y0114260D02*
X0093894Y0114260D01*
X0093894Y0113062D02*
X0086806Y0113062D01*
X0086743Y0112998D02*
X0087446Y0113701D01*
X0087446Y0119026D01*
X0086987Y0119485D01*
X0093894Y0119485D01*
X0093894Y0107525D01*
X0092751Y0107525D01*
X0092751Y0100625D01*
X0097054Y0100625D01*
X0097454Y0100225D01*
X0098178Y0100225D01*
X0097741Y0100225D01*
X0097334Y0100116D01*
X0096969Y0099905D01*
X0096671Y0099608D01*
X0096566Y0099425D01*
X0092751Y0099425D01*
X0092751Y0100625D01*
X0091551Y0100625D01*
X0091551Y0107525D01*
X0087991Y0107525D01*
X0087584Y0107416D01*
X0087551Y0107397D01*
X0087551Y0109122D01*
X0086848Y0109825D01*
X0084812Y0109825D01*
X0086077Y0111091D01*
X0086077Y0112998D01*
X0086743Y0112998D01*
X0086077Y0111863D02*
X0093894Y0111863D01*
X0093894Y0110665D02*
X0085651Y0110665D01*
X0087207Y0109466D02*
X0093894Y0109466D01*
X0093894Y0108268D02*
X0087551Y0108268D01*
X0091551Y0107069D02*
X0092751Y0107069D01*
X0092751Y0105870D02*
X0091551Y0105870D01*
X0091551Y0104672D02*
X0092751Y0104672D01*
X0092751Y0103473D02*
X0091551Y0103473D01*
X0091551Y0102275D02*
X0092751Y0102275D01*
X0092751Y0101076D02*
X0091551Y0101076D01*
X0091551Y0099878D02*
X0075635Y0099878D01*
X0075635Y0101076D02*
X0077351Y0101076D01*
X0077351Y0102275D02*
X0075635Y0102275D01*
X0075439Y0103473D02*
X0077351Y0103473D01*
X0077901Y0104672D02*
X0075635Y0104672D01*
X0075635Y0105870D02*
X0077409Y0105870D01*
X0077351Y0107069D02*
X0075635Y0107069D01*
X0075635Y0108268D02*
X0077351Y0108268D01*
X0077695Y0109466D02*
X0075635Y0109466D01*
X0072466Y0107309D02*
X0072466Y0123647D01*
X0076403Y0127584D01*
X0076403Y0144907D01*
X0079946Y0148450D01*
X0111836Y0148450D01*
X0097882Y0134635D02*
X0133736Y0134635D01*
X0133658Y0137032D02*
X0078203Y0137032D01*
X0078203Y0138230D02*
X0133658Y0138230D01*
X0133658Y0139429D02*
X0078203Y0139429D01*
X0078203Y0140627D02*
X0133658Y0140627D01*
X0128643Y0131039D02*
X0195850Y0131039D01*
X0195850Y0129841D02*
X0129384Y0129841D01*
X0129384Y0128642D02*
X0139112Y0128642D01*
X0139085Y0128596D02*
X0138976Y0128189D01*
X0138976Y0122672D01*
X0142732Y0122672D01*
X0142732Y0121472D01*
X0143932Y0121472D01*
X0143932Y0114567D01*
X0146299Y0114567D01*
X0146706Y0114676D01*
X0147071Y0114887D01*
X0147368Y0115184D01*
X0147579Y0115549D01*
X0147688Y0115956D01*
X0147688Y0121472D01*
X0143932Y0121472D01*
X0143932Y0122672D01*
X0147688Y0122672D01*
X0147688Y0128189D01*
X0147579Y0128596D01*
X0147368Y0128960D01*
X0147071Y0129258D01*
X0146706Y0129469D01*
X0146299Y0129578D01*
X0143932Y0129578D01*
X0143932Y0122672D01*
X0142732Y0122672D01*
X0142732Y0129578D01*
X0140366Y0129578D01*
X0139959Y0129469D01*
X0139594Y0129258D01*
X0139296Y0128960D01*
X0139085Y0128596D01*
X0138976Y0127444D02*
X0129384Y0127444D01*
X0129384Y0126245D02*
X0138976Y0126245D01*
X0138976Y0125047D02*
X0129384Y0125047D01*
X0129384Y0123848D02*
X0138976Y0123848D01*
X0138976Y0121472D02*
X0138976Y0115956D01*
X0139085Y0115549D01*
X0139296Y0115184D01*
X0139594Y0114887D01*
X0139959Y0114676D01*
X0140366Y0114567D01*
X0142732Y0114567D01*
X0142732Y0121472D01*
X0138976Y0121472D01*
X0138976Y0121451D02*
X0129384Y0121451D01*
X0129384Y0120253D02*
X0138976Y0120253D01*
X0138976Y0119054D02*
X0129384Y0119054D01*
X0129384Y0117856D02*
X0138976Y0117856D01*
X0138976Y0116657D02*
X0129384Y0116657D01*
X0129384Y0115459D02*
X0139138Y0115459D01*
X0142732Y0115459D02*
X0143932Y0115459D01*
X0143932Y0116657D02*
X0142732Y0116657D01*
X0142732Y0117856D02*
X0143932Y0117856D01*
X0143932Y0119054D02*
X0142732Y0119054D01*
X0142732Y0120253D02*
X0143932Y0120253D01*
X0143932Y0121451D02*
X0142732Y0121451D01*
X0142732Y0122650D02*
X0129384Y0122650D01*
X0127584Y0122650D02*
X0082702Y0122650D01*
X0082702Y0123848D02*
X0127584Y0123848D01*
X0127584Y0125047D02*
X0082702Y0125047D01*
X0082702Y0126245D02*
X0127584Y0126245D01*
X0127584Y0127444D02*
X0082702Y0127444D01*
X0082702Y0128642D02*
X0127584Y0128642D01*
X0127584Y0129553D02*
X0127584Y0109868D01*
X0122189Y0109868D01*
X0122131Y0109925D01*
X0112437Y0109925D01*
X0112411Y0109899D01*
X0108646Y0109899D01*
X0108614Y0109868D01*
X0107899Y0109868D01*
X0107899Y0109153D01*
X0107474Y0108728D01*
X0107474Y0106718D01*
X0097005Y0106718D01*
X0096598Y0107125D01*
X0095694Y0107125D01*
X0095694Y0121285D01*
X0082702Y0121285D01*
X0082702Y0133883D01*
X0096088Y0133883D01*
X0096088Y0129553D01*
X0127584Y0129553D01*
X0127584Y0121451D02*
X0082702Y0121451D01*
X0087418Y0119054D02*
X0093894Y0119054D01*
X0093894Y0117856D02*
X0087446Y0117856D01*
X0095694Y0117856D02*
X0127584Y0117856D01*
X0127584Y0119054D02*
X0095694Y0119054D01*
X0095694Y0120253D02*
X0127584Y0120253D01*
X0127584Y0116657D02*
X0095694Y0116657D01*
X0095694Y0115459D02*
X0127584Y0115459D01*
X0127584Y0114260D02*
X0095694Y0114260D01*
X0095694Y0113062D02*
X0127584Y0113062D01*
X0127584Y0111863D02*
X0095694Y0111863D01*
X0095694Y0110665D02*
X0127584Y0110665D01*
X0129384Y0110665D02*
X0164256Y0110665D01*
X0164605Y0110842D02*
X0163862Y0110464D01*
X0163187Y0109973D01*
X0162597Y0109383D01*
X0162106Y0108709D01*
X0161728Y0107965D01*
X0161470Y0107172D01*
X0161339Y0106348D01*
X0161339Y0106331D01*
X0166239Y0106331D01*
X0166239Y0105531D01*
X0161339Y0105531D01*
X0161339Y0105514D01*
X0161470Y0104690D01*
X0161728Y0103896D01*
X0162106Y0103153D01*
X0162597Y0102478D01*
X0163187Y0101888D01*
X0163273Y0101825D01*
X0154314Y0101825D01*
X0147101Y0109038D01*
X0146046Y0110093D01*
X0133138Y0110093D01*
X0132083Y0109038D01*
X0132083Y0090618D01*
X0133138Y0089564D01*
X0134629Y0089564D01*
X0189831Y0089564D01*
X0191322Y0089564D01*
X0192376Y0090618D01*
X0192376Y0100771D01*
X0191322Y0101825D01*
X0190005Y0101825D01*
X0190092Y0101888D01*
X0190682Y0102478D01*
X0191172Y0103153D01*
X0191551Y0103896D01*
X0191809Y0104690D01*
X0191939Y0105514D01*
X0191939Y0105531D01*
X0187039Y0105531D01*
X0187039Y0106331D01*
X0186239Y0106331D01*
X0186239Y0111231D01*
X0186222Y0111231D01*
X0185398Y0111100D01*
X0184605Y0110842D01*
X0183862Y0110464D01*
X0183187Y0109973D01*
X0182597Y0109383D01*
X0182106Y0108709D01*
X0181728Y0107965D01*
X0181639Y0107693D01*
X0181551Y0107965D01*
X0181172Y0108709D01*
X0180682Y0109383D01*
X0180092Y0109973D01*
X0179417Y0110464D01*
X0178674Y0110842D01*
X0177880Y0111100D01*
X0177056Y0111231D01*
X0177039Y0111231D01*
X0177039Y0106331D01*
X0176239Y0106331D01*
X0176239Y0111231D01*
X0176222Y0111231D01*
X0175398Y0111100D01*
X0174605Y0110842D01*
X0173862Y0110464D01*
X0173187Y0109973D01*
X0172597Y0109383D01*
X0172106Y0108709D01*
X0171728Y0107965D01*
X0171639Y0107693D01*
X0171551Y0107965D01*
X0171172Y0108709D01*
X0170682Y0109383D01*
X0170092Y0109973D01*
X0169417Y0110464D01*
X0168674Y0110842D01*
X0167880Y0111100D01*
X0167056Y0111231D01*
X0167039Y0111231D01*
X0167039Y0106331D01*
X0166239Y0106331D01*
X0166239Y0111231D01*
X0166222Y0111231D01*
X0165398Y0111100D01*
X0164605Y0110842D01*
X0166239Y0110665D02*
X0167039Y0110665D01*
X0167039Y0109466D02*
X0166239Y0109466D01*
X0166239Y0108268D02*
X0167039Y0108268D01*
X0167039Y0107069D02*
X0166239Y0107069D01*
X0167039Y0106331D02*
X0176239Y0106331D01*
X0176239Y0105531D01*
X0171339Y0105531D01*
X0167039Y0105531D01*
X0167039Y0106331D01*
X0167039Y0105870D02*
X0176239Y0105870D01*
X0177039Y0105870D02*
X0186239Y0105870D01*
X0186239Y0105531D02*
X0177039Y0105531D01*
X0177039Y0106331D01*
X0181339Y0106331D01*
X0186239Y0106331D01*
X0186239Y0105531D01*
X0187039Y0105870D02*
X0195850Y0105870D01*
X0195850Y0104672D02*
X0191803Y0104672D01*
X0191336Y0103473D02*
X0195850Y0103473D01*
X0195850Y0102275D02*
X0190479Y0102275D01*
X0192071Y0101076D02*
X0195850Y0101076D01*
X0195850Y0099878D02*
X0192376Y0099878D01*
X0192376Y0098679D02*
X0195850Y0098679D01*
X0195850Y0097481D02*
X0192376Y0097481D01*
X0192376Y0096282D02*
X0195850Y0096282D01*
X0195850Y0095084D02*
X0192376Y0095084D01*
X0192376Y0093885D02*
X0195850Y0093885D01*
X0195850Y0092687D02*
X0192376Y0092687D01*
X0192376Y0091488D02*
X0195850Y0091488D01*
X0195850Y0090290D02*
X0192048Y0090290D01*
X0190576Y0091364D02*
X0190576Y0100025D01*
X0153569Y0100025D01*
X0145301Y0108293D01*
X0133883Y0108293D01*
X0133883Y0091364D01*
X0190576Y0091364D01*
X0190576Y0091488D02*
X0133883Y0091488D01*
X0133883Y0092687D02*
X0190576Y0092687D01*
X0190576Y0093885D02*
X0133883Y0093885D01*
X0133883Y0095084D02*
X0190576Y0095084D01*
X0190576Y0096282D02*
X0133883Y0096282D01*
X0133883Y0097481D02*
X0190576Y0097481D01*
X0190576Y0098679D02*
X0133883Y0098679D01*
X0133883Y0099878D02*
X0190576Y0099878D01*
X0191939Y0106331D02*
X0187039Y0106331D01*
X0187039Y0111231D01*
X0187056Y0111231D01*
X0187880Y0111100D01*
X0188674Y0110842D01*
X0189417Y0110464D01*
X0190092Y0109973D01*
X0190682Y0109383D01*
X0191172Y0108709D01*
X0191551Y0107965D01*
X0191809Y0107172D01*
X0191939Y0106348D01*
X0191939Y0106331D01*
X0191825Y0107069D02*
X0195850Y0107069D01*
X0195850Y0108268D02*
X0191397Y0108268D01*
X0190599Y0109466D02*
X0195850Y0109466D01*
X0195850Y0110665D02*
X0189023Y0110665D01*
X0187039Y0110665D02*
X0186239Y0110665D01*
X0186239Y0109466D02*
X0187039Y0109466D01*
X0187039Y0108268D02*
X0186239Y0108268D01*
X0186239Y0107069D02*
X0187039Y0107069D01*
X0184256Y0110665D02*
X0179023Y0110665D01*
X0180599Y0109466D02*
X0182679Y0109466D01*
X0181882Y0108268D02*
X0181397Y0108268D01*
X0177039Y0108268D02*
X0176239Y0108268D01*
X0176239Y0109466D02*
X0177039Y0109466D01*
X0177039Y0110665D02*
X0176239Y0110665D01*
X0174256Y0110665D02*
X0169023Y0110665D01*
X0170599Y0109466D02*
X0172679Y0109466D01*
X0171882Y0108268D02*
X0171397Y0108268D01*
X0166239Y0105870D02*
X0150269Y0105870D01*
X0151467Y0104672D02*
X0161476Y0104672D01*
X0161943Y0103473D02*
X0152666Y0103473D01*
X0153864Y0102275D02*
X0162800Y0102275D01*
X0161454Y0107069D02*
X0149070Y0107069D01*
X0147872Y0108268D02*
X0161882Y0108268D01*
X0162679Y0109466D02*
X0146673Y0109466D01*
X0145326Y0108268D02*
X0133883Y0108268D01*
X0133883Y0107069D02*
X0146525Y0107069D01*
X0147723Y0105870D02*
X0133883Y0105870D01*
X0133883Y0104672D02*
X0148922Y0104672D01*
X0150120Y0103473D02*
X0133883Y0103473D01*
X0133883Y0102275D02*
X0151319Y0102275D01*
X0152517Y0101076D02*
X0133883Y0101076D01*
X0132083Y0101076D02*
X0122834Y0101076D01*
X0122834Y0102275D02*
X0132083Y0102275D01*
X0132083Y0103473D02*
X0122834Y0103473D01*
X0122385Y0104672D02*
X0132083Y0104672D01*
X0132083Y0105870D02*
X0122834Y0105870D01*
X0122834Y0107069D02*
X0132083Y0107069D01*
X0132083Y0108268D02*
X0128530Y0108268D01*
X0129384Y0109466D02*
X0132511Y0109466D01*
X0129384Y0111863D02*
X0195850Y0111863D01*
X0195850Y0113062D02*
X0129384Y0113062D01*
X0129384Y0114260D02*
X0195850Y0114260D01*
X0195850Y0115459D02*
X0147527Y0115459D01*
X0147688Y0116657D02*
X0195850Y0116657D01*
X0195850Y0117856D02*
X0147688Y0117856D01*
X0147688Y0119054D02*
X0195850Y0119054D01*
X0195850Y0120253D02*
X0147688Y0120253D01*
X0147688Y0121451D02*
X0195850Y0121451D01*
X0195850Y0122650D02*
X0143932Y0122650D01*
X0143932Y0123848D02*
X0142732Y0123848D01*
X0142732Y0125047D02*
X0143932Y0125047D01*
X0143932Y0126245D02*
X0142732Y0126245D01*
X0142732Y0127444D02*
X0143932Y0127444D01*
X0143932Y0128642D02*
X0142732Y0128642D01*
X0147552Y0128642D02*
X0195850Y0128642D01*
X0195850Y0127444D02*
X0147688Y0127444D01*
X0147688Y0126245D02*
X0195850Y0126245D01*
X0195850Y0125047D02*
X0147688Y0125047D01*
X0147688Y0123848D02*
X0195850Y0123848D01*
X0195850Y0132238D02*
X0097888Y0132238D01*
X0097888Y0133436D02*
X0195850Y0133436D01*
X0195850Y0134635D02*
X0188711Y0134635D01*
X0190322Y0135833D02*
X0195850Y0135833D01*
X0195850Y0137032D02*
X0191095Y0137032D01*
X0191539Y0138230D02*
X0195850Y0138230D01*
X0195850Y0139429D02*
X0191539Y0139429D01*
X0191302Y0140627D02*
X0195850Y0140627D01*
X0195850Y0141826D02*
X0190806Y0141826D01*
X0189625Y0143024D02*
X0195850Y0143024D01*
X0184568Y0134635D02*
X0148991Y0134635D01*
X0149069Y0135833D02*
X0182957Y0135833D01*
X0182184Y0137032D02*
X0149069Y0137032D01*
X0149069Y0138230D02*
X0181739Y0138230D01*
X0177039Y0107069D02*
X0176239Y0107069D01*
X0195850Y0089091D02*
X0119084Y0089091D01*
X0119084Y0090125D02*
X0119084Y0086726D01*
X0119705Y0087347D01*
X0124243Y0087347D01*
X0124946Y0086644D01*
X0124946Y0086077D01*
X0126778Y0086077D01*
X0126778Y0086743D01*
X0127481Y0087446D01*
X0132806Y0087446D01*
X0133256Y0086995D01*
X0133391Y0087228D01*
X0133688Y0087526D01*
X0134053Y0087737D01*
X0134460Y0087846D01*
X0136452Y0087846D01*
X0136452Y0084661D01*
X0137220Y0084661D01*
X0137220Y0087846D01*
X0139212Y0087846D01*
X0139619Y0087737D01*
X0139984Y0087526D01*
X0140282Y0087228D01*
X0140493Y0086863D01*
X0140602Y0086456D01*
X0140602Y0084661D01*
X0137221Y0084661D01*
X0137221Y0083893D01*
X0140602Y0083893D01*
X0140602Y0082098D01*
X0140493Y0081691D01*
X0140282Y0081326D01*
X0139984Y0081028D01*
X0139619Y0080818D01*
X0139212Y0080709D01*
X0137220Y0080709D01*
X0137220Y0083893D01*
X0136452Y0083893D01*
X0136452Y0080709D01*
X0134460Y0080709D01*
X0134053Y0080818D01*
X0133688Y0081028D01*
X0133391Y0081326D01*
X0133256Y0081559D01*
X0132806Y0081109D01*
X0127481Y0081109D01*
X0126778Y0081812D01*
X0126778Y0082477D01*
X0124946Y0082477D01*
X0124946Y0081910D01*
X0124243Y0081207D01*
X0119705Y0081207D01*
X0119002Y0081910D01*
X0119002Y0082477D01*
X0118177Y0082477D01*
X0117123Y0083532D01*
X0115484Y0085170D01*
X0115484Y0090125D01*
X0112437Y0090125D01*
X0111734Y0090828D01*
X0111734Y0094222D01*
X0112437Y0094925D01*
X0122131Y0094925D01*
X0122834Y0094222D01*
X0122834Y0090828D01*
X0122131Y0090125D01*
X0119084Y0090125D01*
X0117284Y0092525D02*
X0117284Y0085916D01*
X0118923Y0084277D01*
X0121974Y0084277D01*
X0130143Y0084277D01*
X0126778Y0081900D02*
X0124936Y0081900D01*
X0124896Y0086694D02*
X0126778Y0086694D01*
X0122296Y0090290D02*
X0132412Y0090290D01*
X0132083Y0091488D02*
X0122834Y0091488D01*
X0122834Y0092687D02*
X0132083Y0092687D01*
X0132083Y0093885D02*
X0122834Y0093885D01*
X0122834Y0096282D02*
X0132083Y0096282D01*
X0132083Y0095084D02*
X0111572Y0095084D01*
X0111572Y0093885D02*
X0111734Y0093885D01*
X0111734Y0092687D02*
X0111572Y0092687D01*
X0111572Y0091488D02*
X0111734Y0091488D01*
X0111572Y0090290D02*
X0112273Y0090290D01*
X0111572Y0089091D02*
X0115484Y0089091D01*
X0115484Y0087893D02*
X0111572Y0087893D01*
X0112494Y0086694D02*
X0115484Y0086694D01*
X0115484Y0085496D02*
X0112544Y0085496D01*
X0112544Y0084297D02*
X0116357Y0084297D01*
X0117556Y0083099D02*
X0112544Y0083099D01*
X0112534Y0081900D02*
X0119012Y0081900D01*
X0119084Y0087893D02*
X0195850Y0087893D01*
X0195850Y0086694D02*
X0140538Y0086694D01*
X0140602Y0085496D02*
X0195850Y0085496D01*
X0195850Y0084297D02*
X0137221Y0084297D01*
X0137220Y0083099D02*
X0136452Y0083099D01*
X0136452Y0081900D02*
X0137220Y0081900D01*
X0140549Y0081900D02*
X0195850Y0081900D01*
X0195850Y0080702D02*
X0102013Y0080702D01*
X0102013Y0081900D02*
X0106611Y0081900D01*
X0106651Y0086694D02*
X0102013Y0086694D01*
X0102013Y0087893D02*
X0107572Y0087893D01*
X0107572Y0089091D02*
X0090781Y0089091D01*
X0090771Y0089101D02*
X0090407Y0089311D01*
X0090000Y0089420D01*
X0087239Y0089420D01*
X0087239Y0084877D01*
X0086039Y0084877D01*
X0086039Y0083677D01*
X0081890Y0083677D01*
X0081890Y0080523D01*
X0081999Y0080116D01*
X0082209Y0079751D01*
X0082507Y0079454D01*
X0082872Y0079243D01*
X0083279Y0079134D01*
X0086039Y0079134D01*
X0086039Y0083677D01*
X0087239Y0083677D01*
X0087239Y0079134D01*
X0090000Y0079134D01*
X0090407Y0079243D01*
X0090771Y0079454D01*
X0091069Y0079751D01*
X0091280Y0080116D01*
X0091389Y0080523D01*
X0091389Y0083677D01*
X0087239Y0083677D01*
X0087239Y0084877D01*
X0091389Y0084877D01*
X0091389Y0088031D01*
X0091280Y0088438D01*
X0091069Y0088803D01*
X0090771Y0089101D01*
X0091389Y0087893D02*
X0093313Y0087893D01*
X0093313Y0086694D02*
X0091389Y0086694D01*
X0091389Y0085496D02*
X0093313Y0085496D01*
X0093313Y0084297D02*
X0087239Y0084297D01*
X0087239Y0083099D02*
X0086039Y0083099D01*
X0086039Y0084297D02*
X0076035Y0084297D01*
X0075939Y0083099D02*
X0081890Y0083099D01*
X0081890Y0081900D02*
X0045096Y0081900D01*
X0045096Y0080702D02*
X0081890Y0080702D01*
X0082458Y0079503D02*
X0045096Y0079503D01*
X0045096Y0078305D02*
X0195850Y0078305D01*
X0195850Y0079503D02*
X0090821Y0079503D01*
X0091389Y0080702D02*
X0093313Y0080702D01*
X0093313Y0081900D02*
X0091389Y0081900D01*
X0091389Y0083099D02*
X0093313Y0083099D01*
X0087239Y0081900D02*
X0086039Y0081900D01*
X0086039Y0080702D02*
X0087239Y0080702D01*
X0087239Y0079503D02*
X0086039Y0079503D01*
X0086039Y0084877D02*
X0081890Y0084877D01*
X0081890Y0088031D01*
X0081999Y0088438D01*
X0082209Y0088803D01*
X0082507Y0089101D01*
X0082872Y0089311D01*
X0083279Y0089420D01*
X0086039Y0089420D01*
X0086039Y0084877D01*
X0086039Y0085496D02*
X0087239Y0085496D01*
X0087239Y0086694D02*
X0086039Y0086694D01*
X0086039Y0087893D02*
X0087239Y0087893D01*
X0087239Y0089091D02*
X0086039Y0089091D01*
X0086913Y0090290D02*
X0097389Y0090290D01*
X0096751Y0091488D02*
X0087551Y0091488D01*
X0086601Y0095084D02*
X0075635Y0095084D01*
X0074266Y0096282D02*
X0077351Y0096282D01*
X0077351Y0097481D02*
X0075162Y0097481D01*
X0075635Y0098679D02*
X0077351Y0098679D01*
X0072466Y0100616D02*
X0072466Y0092525D01*
X0082451Y0092525D01*
X0082498Y0089091D02*
X0075604Y0089091D01*
X0075635Y0090290D02*
X0077989Y0090290D01*
X0076035Y0087893D02*
X0081890Y0087893D01*
X0081890Y0086694D02*
X0076035Y0086694D01*
X0072850Y0085496D02*
X0081890Y0085496D01*
X0072850Y0084297D02*
X0072082Y0084297D01*
X0072082Y0085448D02*
X0072082Y0082067D01*
X0070287Y0082067D01*
X0069880Y0082176D01*
X0069515Y0082387D01*
X0069217Y0082684D01*
X0069007Y0083049D01*
X0068898Y0083456D01*
X0068898Y0085448D01*
X0072082Y0085448D01*
X0072082Y0085496D02*
X0045096Y0085496D01*
X0045096Y0086694D02*
X0068898Y0086694D01*
X0068898Y0087893D02*
X0045096Y0087893D01*
X0045096Y0089091D02*
X0069329Y0089091D01*
X0069298Y0090290D02*
X0045096Y0090290D01*
X0045096Y0091488D02*
X0069298Y0091488D01*
X0069298Y0092687D02*
X0045096Y0092687D01*
X0045419Y0093885D02*
X0045773Y0093885D01*
X0050419Y0093885D02*
X0069298Y0093885D01*
X0069298Y0095084D02*
X0051144Y0095084D01*
X0051296Y0096282D02*
X0070666Y0096282D01*
X0069770Y0097481D02*
X0050983Y0097481D01*
X0050030Y0098679D02*
X0069298Y0098679D01*
X0069298Y0099878D02*
X0045096Y0099878D01*
X0045096Y0101076D02*
X0069298Y0101076D01*
X0069298Y0102275D02*
X0045096Y0102275D01*
X0045096Y0103473D02*
X0069493Y0103473D01*
X0069298Y0104672D02*
X0045096Y0104672D01*
X0045096Y0105870D02*
X0069298Y0105870D01*
X0069298Y0107069D02*
X0045096Y0107069D01*
X0045096Y0108268D02*
X0069298Y0108268D01*
X0069298Y0109466D02*
X0045096Y0109466D01*
X0045096Y0110665D02*
X0069991Y0110665D01*
X0070666Y0111863D02*
X0045096Y0111863D01*
X0045096Y0113062D02*
X0070666Y0113062D01*
X0070666Y0114260D02*
X0045096Y0114260D01*
X0045096Y0115459D02*
X0070666Y0115459D01*
X0070666Y0116657D02*
X0049087Y0116657D01*
X0047105Y0116657D02*
X0045096Y0116657D01*
X0050767Y0117856D02*
X0070666Y0117856D01*
X0070666Y0119054D02*
X0051288Y0119054D01*
X0051296Y0120253D02*
X0070666Y0120253D01*
X0070666Y0121451D02*
X0050839Y0121451D01*
X0049362Y0122650D02*
X0070666Y0122650D01*
X0070666Y0123848D02*
X0045096Y0123848D01*
X0045096Y0122650D02*
X0046830Y0122650D01*
X0045096Y0125047D02*
X0071320Y0125047D01*
X0072518Y0126245D02*
X0045096Y0126245D01*
X0045096Y0127444D02*
X0064360Y0127444D01*
X0064456Y0127347D02*
X0064821Y0127137D01*
X0065228Y0127028D01*
X0067339Y0127028D01*
X0067339Y0130921D01*
X0068539Y0130921D01*
X0068539Y0132121D01*
X0072039Y0132121D01*
X0072039Y0134626D01*
X0071930Y0135033D01*
X0071719Y0135397D01*
X0071421Y0135695D01*
X0071056Y0135906D01*
X0070649Y0136015D01*
X0068539Y0136015D01*
X0068539Y0132121D01*
X0067339Y0132121D01*
X0067339Y0136015D01*
X0065228Y0136015D01*
X0064821Y0135906D01*
X0064456Y0135695D01*
X0064158Y0135397D01*
X0063948Y0135033D01*
X0063839Y0134626D01*
X0063839Y0132121D01*
X0067339Y0132121D01*
X0067339Y0130921D01*
X0063839Y0130921D01*
X0063839Y0128417D01*
X0063948Y0128010D01*
X0064158Y0127645D01*
X0064456Y0127347D01*
X0063839Y0128642D02*
X0045096Y0128642D01*
X0045096Y0129841D02*
X0063839Y0129841D01*
X0063839Y0132238D02*
X0045096Y0132238D01*
X0045096Y0133436D02*
X0063839Y0133436D01*
X0063841Y0134635D02*
X0045096Y0134635D01*
X0045096Y0135833D02*
X0064695Y0135833D01*
X0067339Y0135833D02*
X0068539Y0135833D01*
X0068539Y0134635D02*
X0067339Y0134635D01*
X0067339Y0133436D02*
X0068539Y0133436D01*
X0068539Y0132238D02*
X0067339Y0132238D01*
X0067339Y0131039D02*
X0045096Y0131039D01*
X0045096Y0137032D02*
X0074603Y0137032D01*
X0074603Y0138230D02*
X0045096Y0138230D01*
X0029930Y0121451D02*
X0015211Y0121451D01*
X0015211Y0120253D02*
X0029533Y0120253D01*
X0029556Y0119054D02*
X0015211Y0119054D01*
X0015211Y0117856D02*
X0030006Y0117856D01*
X0031186Y0116657D02*
X0015211Y0116657D01*
X0016580Y0109466D02*
X0036096Y0109466D01*
X0036096Y0108268D02*
X0016264Y0108268D01*
X0016580Y0107069D02*
X0036096Y0107069D01*
X0036096Y0105870D02*
X0016580Y0105870D01*
X0016580Y0104672D02*
X0036096Y0104672D01*
X0036096Y0103473D02*
X0016580Y0103473D01*
X0016580Y0102275D02*
X0036096Y0102275D01*
X0036096Y0101076D02*
X0015211Y0101076D01*
X0015211Y0099878D02*
X0036096Y0099878D01*
X0036096Y0098679D02*
X0035596Y0098679D01*
X0033096Y0098679D02*
X0033096Y0098679D01*
X0033096Y0099688D02*
X0033096Y0096088D01*
X0029496Y0096088D01*
X0033096Y0096088D01*
X0033096Y0096088D01*
X0033096Y0099688D01*
X0033096Y0097481D02*
X0033096Y0097481D01*
X0033096Y0096282D02*
X0033096Y0096282D01*
X0033096Y0096088D02*
X0033096Y0096088D01*
X0033096Y0095084D02*
X0033096Y0095084D01*
X0033096Y0093885D02*
X0033096Y0093885D01*
X0033096Y0092687D02*
X0033096Y0092687D01*
X0031900Y0092687D02*
X0015211Y0092687D01*
X0015211Y0093885D02*
X0030238Y0093885D01*
X0029625Y0095084D02*
X0015211Y0095084D01*
X0015211Y0096282D02*
X0029496Y0096282D01*
X0029776Y0097481D02*
X0015211Y0097481D01*
X0015211Y0098679D02*
X0030596Y0098679D01*
X0034292Y0092687D02*
X0036096Y0092687D01*
X0036096Y0091488D02*
X0015211Y0091488D01*
X0015211Y0090290D02*
X0036096Y0090290D01*
X0036096Y0089091D02*
X0015211Y0089091D01*
X0015211Y0087893D02*
X0036096Y0087893D01*
X0036096Y0086694D02*
X0015211Y0086694D01*
X0015211Y0085496D02*
X0036096Y0085496D01*
X0036096Y0084297D02*
X0015211Y0084297D01*
X0015211Y0083099D02*
X0036096Y0083099D01*
X0036096Y0081900D02*
X0015211Y0081900D01*
X0015595Y0080702D02*
X0036096Y0080702D01*
X0036096Y0079503D02*
X0016794Y0079503D01*
X0017992Y0078305D02*
X0036096Y0078305D01*
X0036096Y0077106D02*
X0019191Y0077106D01*
X0020389Y0075908D02*
X0031998Y0075908D01*
X0033096Y0075908D02*
X0033096Y0075908D01*
X0033096Y0076066D02*
X0033096Y0072466D01*
X0033096Y0076066D01*
X0034195Y0075908D02*
X0036096Y0075908D01*
X0033096Y0074709D02*
X0033096Y0074709D01*
X0033096Y0073511D02*
X0033096Y0073511D01*
X0033096Y0072466D02*
X0033096Y0072466D01*
X0033096Y0072312D02*
X0033096Y0072312D01*
X0033096Y0071114D02*
X0033096Y0071114D01*
X0033096Y0069915D02*
X0033096Y0069915D01*
X0030556Y0069915D02*
X0026382Y0069915D01*
X0027580Y0068717D02*
X0195850Y0068717D01*
X0195850Y0069915D02*
X0050071Y0069915D01*
X0050999Y0071114D02*
X0195850Y0071114D01*
X0195850Y0072312D02*
X0051296Y0072312D01*
X0051127Y0073511D02*
X0195850Y0073511D01*
X0195850Y0074709D02*
X0050378Y0074709D01*
X0045814Y0074709D02*
X0045378Y0074709D01*
X0045096Y0075908D02*
X0195850Y0075908D01*
X0195850Y0077106D02*
X0045096Y0077106D01*
X0045096Y0083099D02*
X0068993Y0083099D01*
X0068898Y0084297D02*
X0045096Y0084297D01*
X0045096Y0098679D02*
X0046162Y0098679D01*
X0030265Y0074709D02*
X0021588Y0074709D01*
X0022786Y0073511D02*
X0029633Y0073511D01*
X0029496Y0072312D02*
X0023985Y0072312D01*
X0025183Y0071114D02*
X0029760Y0071114D01*
X0027978Y0065773D02*
X0013411Y0080340D01*
X0013411Y0104553D01*
X0035636Y0069915D02*
X0036122Y0069915D01*
X0040071Y0069915D02*
X0041122Y0069915D01*
X0045071Y0069915D02*
X0046122Y0069915D01*
X0047195Y0063923D02*
X0115078Y0063923D01*
X0116277Y0062724D02*
X0112313Y0062724D01*
X0113511Y0061526D02*
X0117475Y0061526D01*
X0118674Y0060327D02*
X0114710Y0060327D01*
X0115908Y0059129D02*
X0119872Y0059129D01*
X0121071Y0057930D02*
X0116392Y0057930D01*
X0117571Y0056732D02*
X0121613Y0056732D01*
X0120428Y0055533D02*
X0118756Y0055533D01*
X0119252Y0054334D02*
X0119932Y0054334D01*
X0119692Y0053136D02*
X0119492Y0053136D01*
X0119492Y0051937D02*
X0119692Y0051937D01*
X0120134Y0050739D02*
X0119050Y0050739D01*
X0118281Y0049540D02*
X0120903Y0049540D01*
X0122505Y0048342D02*
X0116679Y0048342D01*
X0112505Y0048342D02*
X0106679Y0048342D01*
X0107368Y0048627D02*
X0108746Y0050005D01*
X0109492Y0051806D01*
X0109492Y0053756D01*
X0108746Y0055557D01*
X0107368Y0056935D01*
X0105567Y0057681D01*
X0103617Y0057681D01*
X0101816Y0056935D01*
X0100438Y0055557D01*
X0099692Y0053756D01*
X0099692Y0051806D01*
X0100438Y0050005D01*
X0101816Y0048627D01*
X0103617Y0047881D01*
X0105567Y0047881D01*
X0107368Y0048627D01*
X0108281Y0049540D02*
X0110903Y0049540D01*
X0110134Y0050739D02*
X0109050Y0050739D01*
X0109492Y0051937D02*
X0109692Y0051937D01*
X0109692Y0053136D02*
X0109492Y0053136D01*
X0109252Y0054334D02*
X0109932Y0054334D01*
X0110428Y0055533D02*
X0108756Y0055533D01*
X0107571Y0056732D02*
X0111613Y0056732D01*
X0112016Y0057930D02*
X0065896Y0057930D01*
X0064992Y0057930D02*
X0064192Y0057930D01*
X0064192Y0058081D02*
X0064175Y0058081D01*
X0063351Y0057951D01*
X0062558Y0057693D01*
X0061814Y0057314D01*
X0061139Y0056824D01*
X0060550Y0056234D01*
X0060059Y0055559D01*
X0059680Y0054816D01*
X0059423Y0054022D01*
X0059292Y0053198D01*
X0059292Y0053181D01*
X0064192Y0053181D01*
X0064192Y0058081D01*
X0063288Y0057930D02*
X0047107Y0057930D01*
X0047682Y0059129D02*
X0110817Y0059129D01*
X0111521Y0060970D02*
X0044317Y0060970D01*
X0041526Y0057930D02*
X0040414Y0057930D01*
X0037624Y0060970D02*
X0013411Y0060970D01*
X0017952Y0059129D02*
X0034258Y0059129D01*
X0034833Y0057930D02*
X0017301Y0057930D01*
X0015983Y0056732D02*
X0061047Y0056732D01*
X0060046Y0055533D02*
X0015199Y0055533D01*
X0016976Y0054334D02*
X0059524Y0054334D01*
X0059360Y0051937D02*
X0043480Y0051937D01*
X0043659Y0050739D02*
X0059684Y0050739D01*
X0060395Y0049540D02*
X0043288Y0049540D01*
X0042607Y0053136D02*
X0064192Y0053136D01*
X0064192Y0054334D02*
X0064992Y0054334D01*
X0064992Y0055533D02*
X0064192Y0055533D01*
X0064192Y0056732D02*
X0064992Y0056732D01*
X0068137Y0056732D02*
X0071613Y0056732D01*
X0070428Y0055533D02*
X0069138Y0055533D01*
X0069660Y0054334D02*
X0069932Y0054334D01*
X0077571Y0056732D02*
X0081613Y0056732D01*
X0081816Y0056935D02*
X0080438Y0055557D01*
X0079692Y0053756D01*
X0079692Y0051806D01*
X0080438Y0050005D01*
X0081816Y0048627D01*
X0083617Y0047881D01*
X0085567Y0047881D01*
X0087368Y0048627D01*
X0088746Y0050005D01*
X0089492Y0051806D01*
X0089492Y0053756D01*
X0088746Y0055557D01*
X0087368Y0056935D01*
X0085567Y0057681D01*
X0083617Y0057681D01*
X0081816Y0056935D01*
X0080428Y0055533D02*
X0078756Y0055533D01*
X0079252Y0054334D02*
X0079932Y0054334D01*
X0079692Y0053136D02*
X0079492Y0053136D01*
X0079492Y0051937D02*
X0079692Y0051937D01*
X0080134Y0050739D02*
X0079050Y0050739D01*
X0078281Y0049540D02*
X0080903Y0049540D01*
X0082505Y0048342D02*
X0076679Y0048342D01*
X0074266Y0047143D02*
X0092792Y0047143D01*
X0092792Y0045945D02*
X0074266Y0045945D01*
X0074266Y0044746D02*
X0093703Y0044746D01*
X0093847Y0044603D02*
X0093847Y0044603D01*
X0094902Y0043548D02*
X0074266Y0043548D01*
X0074266Y0042349D02*
X0096100Y0042349D01*
X0097299Y0041151D02*
X0074266Y0041151D01*
X0074266Y0039952D02*
X0098497Y0039952D01*
X0099696Y0038754D02*
X0074266Y0038754D01*
X0074266Y0037555D02*
X0100894Y0037555D01*
X0102093Y0036357D02*
X0074266Y0036357D01*
X0074266Y0035158D02*
X0112998Y0035158D01*
X0116364Y0037033D02*
X0103962Y0037033D01*
X0094592Y0046403D01*
X0094592Y0052781D01*
X0090134Y0050739D02*
X0089050Y0050739D01*
X0089492Y0051937D02*
X0089692Y0051937D01*
X0089692Y0053136D02*
X0089492Y0053136D01*
X0089252Y0054334D02*
X0089932Y0054334D01*
X0090428Y0055533D02*
X0088756Y0055533D01*
X0087571Y0056732D02*
X0091613Y0056732D01*
X0097571Y0056732D02*
X0101613Y0056732D01*
X0100428Y0055533D02*
X0098756Y0055533D01*
X0099252Y0054334D02*
X0099932Y0054334D01*
X0099692Y0053136D02*
X0099492Y0053136D01*
X0099492Y0051937D02*
X0099692Y0051937D01*
X0100134Y0050739D02*
X0099050Y0050739D01*
X0098281Y0049540D02*
X0100903Y0049540D01*
X0102505Y0048342D02*
X0096679Y0048342D01*
X0096397Y0047143D02*
X0150614Y0047143D01*
X0149416Y0045945D02*
X0097596Y0045945D01*
X0098794Y0044746D02*
X0148217Y0044746D01*
X0147019Y0043548D02*
X0099993Y0043548D01*
X0101191Y0042349D02*
X0145820Y0042349D01*
X0144622Y0041151D02*
X0102390Y0041151D01*
X0103588Y0039952D02*
X0113452Y0039952D01*
X0119275Y0039952D02*
X0120145Y0039952D01*
X0123057Y0037033D02*
X0131521Y0037033D01*
X0139080Y0029474D01*
X0139080Y0013411D01*
X0135572Y0009990D02*
X0132589Y0009990D01*
X0133234Y0010635D02*
X0133980Y0012436D01*
X0133980Y0014386D01*
X0133234Y0016187D01*
X0131856Y0017565D01*
X0130055Y0018311D01*
X0128106Y0018311D01*
X0126305Y0017565D01*
X0124926Y0016187D01*
X0124180Y0014386D01*
X0124180Y0012436D01*
X0124926Y0010635D01*
X0126305Y0009257D01*
X0128106Y0008511D01*
X0130055Y0008511D01*
X0131856Y0009257D01*
X0133234Y0010635D01*
X0133463Y0011188D02*
X0134697Y0011188D01*
X0134201Y0012387D02*
X0133960Y0012387D01*
X0133980Y0013585D02*
X0134180Y0013585D01*
X0134345Y0014784D02*
X0133815Y0014784D01*
X0133319Y0015982D02*
X0134842Y0015982D01*
X0135920Y0017181D02*
X0132240Y0017181D01*
X0125920Y0017181D02*
X0074130Y0017181D01*
X0073746Y0017565D02*
X0075124Y0016187D01*
X0075870Y0014386D01*
X0075870Y0012436D01*
X0075124Y0010635D01*
X0073746Y0009257D01*
X0071945Y0008511D01*
X0069995Y0008511D01*
X0068194Y0009257D01*
X0066816Y0010635D01*
X0066070Y0012436D01*
X0066070Y0014386D01*
X0066816Y0016187D01*
X0068194Y0017565D01*
X0069995Y0018311D01*
X0071945Y0018311D01*
X0073746Y0017565D01*
X0075209Y0015982D02*
X0124842Y0015982D01*
X0124345Y0014784D02*
X0075705Y0014784D01*
X0075870Y0013585D02*
X0124180Y0013585D01*
X0124201Y0012387D02*
X0075849Y0012387D01*
X0075353Y0011188D02*
X0124697Y0011188D01*
X0125572Y0009990D02*
X0074478Y0009990D01*
X0072621Y0008791D02*
X0127430Y0008791D01*
X0130731Y0008791D02*
X0137430Y0008791D01*
X0140731Y0008791D02*
X0147430Y0008791D01*
X0148106Y0008511D02*
X0146305Y0009257D01*
X0144926Y0010635D01*
X0144180Y0012436D01*
X0144180Y0014386D01*
X0144926Y0016187D01*
X0146305Y0017565D01*
X0148106Y0018311D01*
X0150055Y0018311D01*
X0151856Y0017565D01*
X0153234Y0016187D01*
X0153780Y0014868D01*
X0153780Y0017322D01*
X0153889Y0017729D01*
X0154100Y0018093D01*
X0154398Y0018391D01*
X0154763Y0018602D01*
X0155170Y0018711D01*
X0158680Y0018711D01*
X0158680Y0013811D01*
X0159480Y0013811D01*
X0159480Y0018711D01*
X0162991Y0018711D01*
X0163398Y0018602D01*
X0163763Y0018391D01*
X0164061Y0018093D01*
X0164271Y0017729D01*
X0164380Y0017322D01*
X0164380Y0013811D01*
X0159480Y0013811D01*
X0159480Y0013011D01*
X0159480Y0008111D01*
X0162991Y0008111D01*
X0163398Y0008220D01*
X0163763Y0008431D01*
X0164061Y0008729D01*
X0164271Y0009093D01*
X0164380Y0009500D01*
X0164380Y0013011D01*
X0159480Y0013011D01*
X0158680Y0013011D01*
X0158680Y0008111D01*
X0155170Y0008111D01*
X0154763Y0008220D01*
X0154398Y0008431D01*
X0154100Y0008729D01*
X0153889Y0009093D01*
X0153780Y0009500D01*
X0153780Y0011954D01*
X0153234Y0010635D01*
X0151856Y0009257D01*
X0150055Y0008511D01*
X0148106Y0008511D01*
X0150731Y0008791D02*
X0154064Y0008791D01*
X0153780Y0009990D02*
X0152589Y0009990D01*
X0153463Y0011188D02*
X0153780Y0011188D01*
X0153780Y0015982D02*
X0153319Y0015982D01*
X0153780Y0017181D02*
X0152240Y0017181D01*
X0154386Y0018379D02*
X0140880Y0018379D01*
X0140880Y0019578D02*
X0185508Y0019578D01*
X0183238Y0018379D02*
X0163775Y0018379D01*
X0164380Y0017181D02*
X0182039Y0017181D01*
X0181069Y0015982D02*
X0164380Y0015982D01*
X0164380Y0014784D02*
X0180572Y0014784D01*
X0180076Y0013585D02*
X0159480Y0013585D01*
X0159480Y0012387D02*
X0158680Y0012387D01*
X0158680Y0011188D02*
X0159480Y0011188D01*
X0159480Y0009990D02*
X0158680Y0009990D01*
X0158680Y0008791D02*
X0159480Y0008791D01*
X0164097Y0008791D02*
X0180287Y0008791D01*
X0179906Y0009990D02*
X0164380Y0009990D01*
X0164380Y0011188D02*
X0179906Y0011188D01*
X0179906Y0012387D02*
X0164380Y0012387D01*
X0159480Y0014784D02*
X0158680Y0014784D01*
X0158680Y0015982D02*
X0159480Y0015982D01*
X0159480Y0017181D02*
X0158680Y0017181D01*
X0158680Y0018379D02*
X0159480Y0018379D01*
X0152856Y0026769D02*
X0195850Y0026769D01*
X0195850Y0027967D02*
X0154017Y0027967D01*
X0154289Y0029166D02*
X0195850Y0029166D01*
X0195850Y0030364D02*
X0154011Y0030364D01*
X0152823Y0031563D02*
X0195850Y0031563D01*
X0195850Y0032761D02*
X0148169Y0032761D01*
X0148169Y0033960D02*
X0195850Y0033960D01*
X0195850Y0035158D02*
X0148169Y0035158D01*
X0148169Y0036357D02*
X0184019Y0036357D01*
X0182569Y0037555D02*
X0148169Y0037555D01*
X0148169Y0038754D02*
X0181820Y0038754D01*
X0181434Y0039952D02*
X0149080Y0039952D01*
X0150279Y0041151D02*
X0186239Y0041151D01*
X0187039Y0041151D02*
X0195850Y0041151D01*
X0195850Y0042349D02*
X0191764Y0042349D01*
X0191274Y0043548D02*
X0195850Y0043548D01*
X0195850Y0044746D02*
X0190358Y0044746D01*
X0188480Y0045945D02*
X0195850Y0045945D01*
X0195850Y0047143D02*
X0189742Y0047143D01*
X0190854Y0048342D02*
X0195850Y0048342D01*
X0195850Y0049540D02*
X0191351Y0049540D01*
X0191539Y0050739D02*
X0195850Y0050739D01*
X0195850Y0051937D02*
X0191539Y0051937D01*
X0191046Y0053136D02*
X0195850Y0053136D01*
X0195850Y0054334D02*
X0190205Y0054334D01*
X0188428Y0055533D02*
X0195850Y0055533D01*
X0195850Y0056732D02*
X0189211Y0056732D01*
X0189415Y0056816D02*
X0190793Y0058194D01*
X0191539Y0059995D01*
X0191539Y0061945D01*
X0190793Y0063746D01*
X0189415Y0065124D01*
X0187614Y0065870D01*
X0185665Y0065870D01*
X0183864Y0065124D01*
X0182485Y0063746D01*
X0181739Y0061945D01*
X0181739Y0059995D01*
X0182485Y0058194D01*
X0183864Y0056816D01*
X0185665Y0056070D01*
X0187614Y0056070D01*
X0189415Y0056816D01*
X0190529Y0057930D02*
X0195850Y0057930D01*
X0195850Y0059129D02*
X0191180Y0059129D01*
X0191539Y0060327D02*
X0195850Y0060327D01*
X0195850Y0061526D02*
X0191539Y0061526D01*
X0191217Y0062724D02*
X0195850Y0062724D01*
X0195850Y0063923D02*
X0190616Y0063923D01*
X0189418Y0065121D02*
X0195850Y0065121D01*
X0195850Y0066320D02*
X0117772Y0066320D01*
X0116574Y0067518D02*
X0195850Y0067518D01*
X0184068Y0056732D02*
X0147571Y0056732D01*
X0147368Y0056935D02*
X0145567Y0057681D01*
X0143617Y0057681D01*
X0141816Y0056935D01*
X0140438Y0055557D01*
X0139692Y0053756D01*
X0139692Y0051806D01*
X0140438Y0050005D01*
X0141816Y0048627D01*
X0143617Y0047881D01*
X0145567Y0047881D01*
X0147368Y0048627D01*
X0148746Y0050005D01*
X0149492Y0051806D01*
X0149492Y0053756D01*
X0148746Y0055557D01*
X0147368Y0056935D01*
X0148756Y0055533D02*
X0184851Y0055533D01*
X0183074Y0054334D02*
X0149252Y0054334D01*
X0149492Y0053136D02*
X0159986Y0053136D01*
X0155408Y0051937D02*
X0149492Y0051937D01*
X0149050Y0050739D02*
X0154210Y0050739D01*
X0153011Y0049540D02*
X0148281Y0049540D01*
X0146679Y0048342D02*
X0151813Y0048342D01*
X0155073Y0045945D02*
X0184799Y0045945D01*
X0183536Y0047143D02*
X0156271Y0047143D01*
X0157470Y0048342D02*
X0160448Y0048342D01*
X0165586Y0048342D02*
X0182424Y0048342D01*
X0182920Y0044746D02*
X0153874Y0044746D01*
X0152676Y0043548D02*
X0182005Y0043548D01*
X0181515Y0042349D02*
X0151477Y0042349D01*
X0144169Y0039952D02*
X0125968Y0039952D01*
X0132346Y0038754D02*
X0144169Y0038754D01*
X0144169Y0037555D02*
X0133545Y0037555D01*
X0134743Y0036357D02*
X0144169Y0036357D01*
X0144169Y0035158D02*
X0135942Y0035158D01*
X0137140Y0033960D02*
X0144169Y0033960D01*
X0144169Y0032761D02*
X0138339Y0032761D01*
X0139537Y0031563D02*
X0141715Y0031563D01*
X0144162Y0031563D02*
X0144169Y0031563D01*
X0144194Y0026769D02*
X0144463Y0026769D01*
X0141683Y0026769D02*
X0140880Y0026769D01*
X0140880Y0025570D02*
X0195850Y0025570D01*
X0195850Y0024372D02*
X0140880Y0024372D01*
X0140880Y0023173D02*
X0195850Y0023173D01*
X0195850Y0021975D02*
X0140880Y0021975D01*
X0140880Y0020776D02*
X0195850Y0020776D01*
X0195850Y0019578D02*
X0191708Y0019578D01*
X0193978Y0018379D02*
X0195850Y0018379D01*
X0195850Y0017181D02*
X0195177Y0017181D01*
X0182548Y0005196D02*
X0017503Y0005196D01*
X0018701Y0006394D02*
X0181349Y0006394D01*
X0180783Y0007593D02*
X0019267Y0007593D01*
X0019764Y0008791D02*
X0035954Y0008791D01*
X0035670Y0009990D02*
X0020145Y0009990D01*
X0020145Y0011188D02*
X0035670Y0011188D01*
X0052621Y0008791D02*
X0059319Y0008791D01*
X0059995Y0008511D02*
X0061945Y0008511D01*
X0063746Y0009257D01*
X0065124Y0010635D01*
X0065870Y0012436D01*
X0065870Y0014386D01*
X0065124Y0016187D01*
X0063746Y0017565D01*
X0061945Y0018311D01*
X0059995Y0018311D01*
X0058194Y0017565D01*
X0056816Y0016187D01*
X0056070Y0014386D01*
X0056070Y0012436D01*
X0056816Y0010635D01*
X0058194Y0009257D01*
X0059995Y0008511D01*
X0057462Y0009990D02*
X0054478Y0009990D01*
X0055353Y0011188D02*
X0056587Y0011188D01*
X0056091Y0012387D02*
X0055849Y0012387D01*
X0055870Y0013585D02*
X0056070Y0013585D01*
X0056235Y0014784D02*
X0055705Y0014784D01*
X0055209Y0015982D02*
X0056731Y0015982D01*
X0057810Y0017181D02*
X0054130Y0017181D01*
X0062621Y0008791D02*
X0069319Y0008791D01*
X0067462Y0009990D02*
X0064478Y0009990D01*
X0065353Y0011188D02*
X0066587Y0011188D01*
X0066091Y0012387D02*
X0065849Y0012387D01*
X0065870Y0013585D02*
X0066070Y0013585D01*
X0066235Y0014784D02*
X0065705Y0014784D01*
X0065209Y0015982D02*
X0066731Y0015982D01*
X0067810Y0017181D02*
X0064130Y0017181D01*
X0054918Y0035158D02*
X0054915Y0035158D01*
X0054918Y0036357D02*
X0016031Y0036357D01*
X0017481Y0037555D02*
X0054918Y0037555D01*
X0039333Y0053136D02*
X0036127Y0053136D01*
X0030065Y0053136D02*
X0017818Y0053136D01*
X0017388Y0063923D02*
X0034745Y0063923D01*
X0027978Y0065773D02*
X0115773Y0065773D01*
X0124592Y0056954D01*
X0124592Y0052781D01*
X0129050Y0050739D02*
X0130134Y0050739D01*
X0130438Y0050005D02*
X0131816Y0048627D01*
X0133617Y0047881D01*
X0135567Y0047881D01*
X0137368Y0048627D01*
X0138746Y0050005D01*
X0139492Y0051806D01*
X0139492Y0053756D01*
X0138746Y0055557D01*
X0137368Y0056935D01*
X0135567Y0057681D01*
X0133617Y0057681D01*
X0131816Y0056935D01*
X0130438Y0055557D01*
X0129692Y0053756D01*
X0129692Y0051806D01*
X0130438Y0050005D01*
X0130903Y0049540D02*
X0128281Y0049540D01*
X0126679Y0048342D02*
X0132505Y0048342D01*
X0136679Y0048342D02*
X0142505Y0048342D01*
X0140903Y0049540D02*
X0138281Y0049540D01*
X0139050Y0050739D02*
X0140134Y0050739D01*
X0139692Y0051937D02*
X0139492Y0051937D01*
X0139492Y0053136D02*
X0139692Y0053136D01*
X0139932Y0054334D02*
X0139252Y0054334D01*
X0138756Y0055533D02*
X0140428Y0055533D01*
X0141613Y0056732D02*
X0137571Y0056732D01*
X0131613Y0056732D02*
X0127571Y0056732D01*
X0128756Y0055533D02*
X0130428Y0055533D01*
X0129932Y0054334D02*
X0129252Y0054334D01*
X0129492Y0053136D02*
X0129692Y0053136D01*
X0129692Y0051937D02*
X0129492Y0051937D01*
X0126162Y0057930D02*
X0182750Y0057930D01*
X0182098Y0059129D02*
X0124963Y0059129D01*
X0123765Y0060327D02*
X0181739Y0060327D01*
X0181739Y0061526D02*
X0122566Y0061526D01*
X0121368Y0062724D02*
X0182062Y0062724D01*
X0182662Y0063923D02*
X0120169Y0063923D01*
X0118971Y0065121D02*
X0183861Y0065121D01*
X0182233Y0053136D02*
X0166048Y0053136D01*
X0186239Y0039952D02*
X0187039Y0039952D01*
X0187039Y0038754D02*
X0186239Y0038754D01*
X0186239Y0037555D02*
X0187039Y0037555D01*
X0187039Y0036357D02*
X0186239Y0036357D01*
X0189260Y0036357D02*
X0195850Y0036357D01*
X0195850Y0037555D02*
X0190710Y0037555D01*
X0191458Y0038754D02*
X0195850Y0038754D01*
X0195850Y0039952D02*
X0191844Y0039952D01*
X0150377Y0031563D02*
X0150063Y0031563D01*
X0150076Y0026769D02*
X0150344Y0026769D01*
X0145920Y0017181D02*
X0142240Y0017181D01*
X0143319Y0015982D02*
X0144842Y0015982D01*
X0144345Y0014784D02*
X0143815Y0014784D01*
X0143980Y0013585D02*
X0144180Y0013585D01*
X0144201Y0012387D02*
X0143960Y0012387D01*
X0143463Y0011188D02*
X0144697Y0011188D01*
X0145572Y0009990D02*
X0142589Y0009990D01*
X0102162Y0036287D02*
X0102162Y0036287D01*
X0092505Y0048342D02*
X0086679Y0048342D01*
X0088281Y0049540D02*
X0090903Y0049540D01*
X0111521Y0060970D02*
X0114592Y0057899D01*
X0114592Y0052781D01*
X0140602Y0083099D02*
X0195850Y0083099D01*
X0137220Y0085496D02*
X0136452Y0085496D01*
X0136452Y0086694D02*
X0137220Y0086694D01*
X0132083Y0097481D02*
X0122834Y0097481D01*
X0122834Y0098679D02*
X0132083Y0098679D01*
X0132083Y0099878D02*
X0122179Y0099878D01*
X0107474Y0098679D02*
X0107351Y0098679D01*
X0107351Y0097481D02*
X0107474Y0097481D01*
X0107572Y0096282D02*
X0107351Y0096282D01*
X0107572Y0095084D02*
X0106628Y0095084D01*
X0106951Y0093885D02*
X0107572Y0093885D01*
X0107572Y0092687D02*
X0106951Y0092687D01*
X0106951Y0091488D02*
X0107572Y0091488D01*
X0107572Y0090290D02*
X0106313Y0090290D01*
X0101851Y0095084D02*
X0101851Y0095084D01*
X0101851Y0096282D02*
X0101851Y0096282D01*
X0101851Y0097481D02*
X0101851Y0097481D01*
X0098178Y0100225D02*
X0098178Y0100225D01*
X0096941Y0099878D02*
X0092751Y0099878D01*
X0092751Y0098679D02*
X0091551Y0098679D01*
X0091551Y0097481D02*
X0092751Y0097481D01*
X0092751Y0096282D02*
X0091551Y0096282D01*
X0091551Y0095084D02*
X0092751Y0095084D01*
X0092751Y0093885D02*
X0091551Y0093885D01*
X0091551Y0092687D02*
X0092751Y0092687D01*
X0096654Y0107069D02*
X0107474Y0107069D01*
X0107474Y0108268D02*
X0095694Y0108268D01*
X0095694Y0109466D02*
X0107899Y0109466D01*
X0096088Y0129841D02*
X0082702Y0129841D01*
X0082702Y0131039D02*
X0096088Y0131039D01*
X0096088Y0132238D02*
X0082702Y0132238D01*
X0082702Y0133436D02*
X0096088Y0133436D01*
X0074603Y0133436D02*
X0072039Y0133436D01*
X0072039Y0132238D02*
X0074603Y0132238D01*
X0074603Y0131039D02*
X0068539Y0131039D01*
X0068539Y0130921D02*
X0072039Y0130921D01*
X0072039Y0128417D01*
X0071930Y0128010D01*
X0071719Y0127645D01*
X0071421Y0127347D01*
X0071056Y0127137D01*
X0070649Y0127028D01*
X0068539Y0127028D01*
X0068539Y0130921D01*
X0068539Y0129841D02*
X0067339Y0129841D01*
X0067339Y0128642D02*
X0068539Y0128642D01*
X0068539Y0127444D02*
X0067339Y0127444D01*
X0071517Y0127444D02*
X0073717Y0127444D01*
X0074603Y0128642D02*
X0072039Y0128642D01*
X0072039Y0129841D02*
X0074603Y0129841D01*
X0074603Y0134635D02*
X0072036Y0134635D01*
X0071182Y0135833D02*
X0074603Y0135833D01*
X0082451Y0110010D02*
X0082451Y0107525D01*
X0072850Y0083099D02*
X0072082Y0083099D01*
X0031296Y0039952D02*
X0018616Y0039952D01*
X0018230Y0038754D02*
X0031296Y0038754D01*
X0013811Y0038754D02*
X0013011Y0038754D01*
X0013011Y0039952D02*
X0013811Y0039952D01*
X0013011Y0040570D02*
X0013011Y0035670D01*
X0012994Y0035670D01*
X0012170Y0035801D01*
X0011377Y0036058D01*
X0010633Y0036437D01*
X0009958Y0036927D01*
X0009368Y0037517D01*
X0008878Y0038192D01*
X0008499Y0038936D01*
X0008242Y0039729D01*
X0008111Y0040553D01*
X0008111Y0040570D01*
X0013011Y0040570D01*
X0013011Y0037555D02*
X0013811Y0037555D01*
X0013811Y0036357D02*
X0013011Y0036357D01*
X0010791Y0036357D02*
X0004200Y0036357D01*
X0004200Y0037555D02*
X0009341Y0037555D01*
X0008592Y0038754D02*
X0004200Y0038754D01*
X0004200Y0039952D02*
X0008206Y0039952D01*
X0006072Y0018379D02*
X0004200Y0018379D01*
X0004200Y0017181D02*
X0004874Y0017181D01*
X0016190Y0065121D02*
X0026084Y0065121D01*
X0019389Y0192163D02*
X0180661Y0192163D01*
X0180165Y0190965D02*
X0164267Y0190965D01*
X0164380Y0189766D02*
X0179906Y0189766D01*
X0179906Y0188568D02*
X0164380Y0188568D01*
X0164380Y0187369D02*
X0179906Y0187369D01*
X0180198Y0186171D02*
X0164380Y0186171D01*
X0164380Y0184972D02*
X0180694Y0184972D01*
X0181191Y0183774D02*
X0164380Y0183774D01*
X0164339Y0182575D02*
X0182334Y0182575D01*
X0183532Y0181377D02*
X0163130Y0181377D01*
X0159480Y0181377D02*
X0158680Y0181377D01*
X0158680Y0182575D02*
X0159480Y0182575D01*
X0159480Y0183774D02*
X0158680Y0183774D01*
X0158680Y0184972D02*
X0159480Y0184972D01*
X0159480Y0186171D02*
X0158680Y0186171D01*
X0158680Y0187369D02*
X0159480Y0187369D01*
X0159480Y0188568D02*
X0158680Y0188568D01*
X0158680Y0189766D02*
X0159480Y0189766D01*
X0159480Y0190965D02*
X0158680Y0190965D01*
X0181158Y0193362D02*
X0018893Y0193362D01*
X0017797Y0194560D02*
X0182253Y0194560D01*
X0183452Y0195759D02*
X0016599Y0195759D01*
D26*
X0090183Y0103962D03*
X0090183Y0100025D03*
X0094120Y0100025D03*
X0094120Y0103962D03*
X0094120Y0096088D03*
X0090183Y0096088D03*
D27*
X0100025Y0101206D02*
X0100025Y0103962D01*
X0109474Y0103962D01*
X0109474Y0107899D01*
X0119710Y0107899D01*
X0119710Y0097269D01*
X0109474Y0097269D01*
X0109474Y0101206D01*
X0100025Y0101206D01*
X0100025Y0102306D02*
X0119710Y0102306D01*
X0119710Y0100708D02*
X0109474Y0100708D01*
X0109572Y0101698D02*
X0109868Y0101994D01*
X0109572Y0101698D02*
X0109572Y0084277D01*
X0097663Y0084277D01*
X0109474Y0097511D02*
X0119710Y0097511D01*
X0119710Y0099109D02*
X0109474Y0099109D01*
X0109474Y0105503D02*
X0119710Y0105503D01*
X0119710Y0103905D02*
X0100025Y0103905D01*
X0109474Y0107102D02*
X0119710Y0107102D01*
X0143332Y0140970D02*
X0152781Y0140970D01*
X0160891Y0149080D01*
X0169791Y0149080D01*
X0171991Y0149080D02*
X0186639Y0149080D01*
X0155537Y0163017D02*
X0152306Y0163017D01*
X0053175Y0163017D02*
X0049944Y0163017D01*
X0047744Y0163017D02*
X0044513Y0163017D01*
X0043096Y0143332D02*
X0043096Y0119710D01*
X0043096Y0096088D01*
X0043096Y0072466D01*
X0038096Y0072466D02*
X0038096Y0096088D01*
X0038096Y0119710D01*
X0038096Y0143332D01*
X0040970Y0050970D02*
X0034196Y0050970D01*
X0031996Y0050970D02*
X0013411Y0050970D01*
X0044513Y0033096D02*
X0047744Y0033096D01*
X0049944Y0033096D02*
X0053175Y0033096D01*
X0142939Y0029159D02*
X0146169Y0029159D01*
X0146169Y0039870D01*
X0157269Y0050970D01*
X0161917Y0050970D01*
X0164117Y0050970D02*
X0186639Y0050970D01*
X0151600Y0029159D02*
X0148369Y0029159D01*
D28*
X0151600Y0029159D03*
X0142939Y0029159D03*
X0125616Y0027191D03*
X0125616Y0031128D03*
X0121679Y0031128D03*
X0121679Y0027191D03*
X0053175Y0033096D03*
X0044513Y0033096D03*
X0042939Y0044907D03*
X0046876Y0044907D03*
X0040970Y0050970D03*
X0039002Y0044907D03*
X0035065Y0044907D03*
X0109868Y0101994D03*
X0062624Y0149238D03*
X0062624Y0153175D03*
X0058687Y0153175D03*
X0058687Y0149238D03*
X0053175Y0163017D03*
X0044513Y0163017D03*
X0075616Y0170104D03*
X0146876Y0163017D03*
X0155537Y0163017D03*
M02*
