G75*
%MOIN*%
%OFA0B0*%
%FSLAX25Y25*%
%IPPOS*%
%LPD*%
%AMOC8*
5,1,8,0,0,1.08239X$1,22.5*
%
%ADD10C,0.00800*%
%ADD11C,0.00600*%
%ADD12C,0.00300*%
%ADD13C,0.02200*%
%ADD14C,0.00400*%
%ADD15R,0.03000X0.01800*%
%ADD16R,0.01800X0.03000*%
%ADD17C,0.00500*%
D10*
X0010911Y0035970D02*
X0008411Y0038470D01*
X0008411Y0043470D01*
X0010911Y0045970D01*
X0008411Y0048470D01*
X0008411Y0053470D01*
X0010911Y0055970D01*
X0008411Y0058470D01*
X0008411Y0063470D01*
X0010911Y0065970D01*
X0015911Y0065970D01*
X0018411Y0063470D01*
X0018411Y0058470D01*
X0015911Y0055970D01*
X0018411Y0053470D01*
X0018411Y0048470D01*
X0015911Y0045970D01*
X0018411Y0043470D01*
X0018411Y0038470D01*
X0015911Y0035970D01*
X0010911Y0035970D01*
X0021685Y0040657D02*
X0024487Y0040657D01*
X0023086Y0049256D02*
X0023086Y0052058D01*
X0021685Y0050657D02*
X0024487Y0050657D01*
X0023787Y0058555D02*
X0022386Y0058555D01*
X0021685Y0059256D01*
X0022386Y0060657D02*
X0021685Y0061358D01*
X0021685Y0062058D01*
X0022386Y0062759D01*
X0023787Y0062759D01*
X0024487Y0062058D01*
X0023787Y0060657D02*
X0024487Y0059956D01*
X0024487Y0059256D01*
X0023787Y0058555D01*
X0023787Y0060657D02*
X0022386Y0060657D01*
X0015511Y0068929D02*
X0011307Y0068929D01*
X0012709Y0070330D01*
X0011307Y0071732D01*
X0015511Y0071732D01*
X0014810Y0073533D02*
X0015511Y0074234D01*
X0015511Y0075635D01*
X0014810Y0076335D01*
X0013409Y0076335D01*
X0012709Y0075635D01*
X0012709Y0074934D01*
X0013409Y0073533D01*
X0011307Y0073533D01*
X0011307Y0076335D01*
X0011307Y0122713D02*
X0012709Y0124115D01*
X0011307Y0125516D01*
X0015511Y0125516D01*
X0014810Y0127317D02*
X0013409Y0127317D01*
X0013409Y0129419D01*
X0014110Y0130120D01*
X0014810Y0130120D01*
X0015511Y0129419D01*
X0015511Y0128018D01*
X0014810Y0127317D01*
X0013409Y0127317D02*
X0012008Y0128719D01*
X0011307Y0130120D01*
X0010911Y0134080D02*
X0015911Y0134080D01*
X0018411Y0136580D01*
X0018411Y0141580D01*
X0015911Y0144080D01*
X0018411Y0146580D01*
X0018411Y0151580D01*
X0015911Y0154080D01*
X0018411Y0156580D01*
X0018411Y0161580D01*
X0015911Y0164080D01*
X0010911Y0164080D01*
X0008411Y0161580D01*
X0008411Y0156580D01*
X0010911Y0154080D01*
X0008411Y0151580D01*
X0008411Y0146580D01*
X0010911Y0144080D01*
X0008411Y0141580D01*
X0008411Y0136580D01*
X0010911Y0134080D01*
X0021685Y0139082D02*
X0024487Y0139082D01*
X0023086Y0147681D02*
X0023086Y0150483D01*
X0021685Y0149082D02*
X0024487Y0149082D01*
X0023787Y0156980D02*
X0022386Y0156980D01*
X0021685Y0157681D01*
X0022386Y0159082D02*
X0021685Y0159783D01*
X0021685Y0160483D01*
X0022386Y0161184D01*
X0023787Y0161184D01*
X0024487Y0160483D01*
X0023787Y0159082D02*
X0024487Y0158382D01*
X0024487Y0157681D01*
X0023787Y0156980D01*
X0023787Y0159082D02*
X0022386Y0159082D01*
X0041047Y0174561D02*
X0041047Y0177364D01*
X0043470Y0181639D02*
X0038470Y0181639D01*
X0035970Y0184139D01*
X0035970Y0189139D01*
X0038470Y0191639D01*
X0043470Y0191639D01*
X0045970Y0189139D01*
X0048470Y0191639D01*
X0053470Y0191639D01*
X0055970Y0189139D01*
X0058470Y0191639D01*
X0063470Y0191639D01*
X0065970Y0189139D01*
X0068470Y0191639D01*
X0073470Y0191639D01*
X0075970Y0189139D01*
X0075970Y0184139D01*
X0073470Y0181639D01*
X0068470Y0181639D01*
X0065970Y0184139D01*
X0063470Y0181639D01*
X0058470Y0181639D01*
X0055970Y0184139D01*
X0053470Y0181639D01*
X0048470Y0181639D01*
X0045970Y0184139D01*
X0043470Y0181639D01*
X0049646Y0175963D02*
X0052448Y0175963D01*
X0051047Y0177364D02*
X0051047Y0174561D01*
X0058945Y0175262D02*
X0059646Y0174561D01*
X0060346Y0174561D01*
X0061047Y0175262D01*
X0061047Y0176663D01*
X0061748Y0177364D01*
X0062448Y0177364D01*
X0063149Y0176663D01*
X0063149Y0175262D01*
X0062448Y0174561D01*
X0058945Y0175262D02*
X0058945Y0176663D01*
X0059646Y0177364D01*
X0068788Y0176663D02*
X0068788Y0174561D01*
X0072991Y0174561D01*
X0072991Y0176663D01*
X0072291Y0177364D01*
X0069488Y0177364D01*
X0068788Y0176663D01*
X0078772Y0184539D02*
X0078772Y0188743D01*
X0080173Y0187342D01*
X0081574Y0188743D01*
X0081574Y0184539D01*
X0083376Y0184539D02*
X0086178Y0184539D01*
X0084777Y0184539D02*
X0084777Y0188743D01*
X0083376Y0187342D01*
X0112871Y0188743D02*
X0112871Y0184539D01*
X0115673Y0184539D02*
X0115673Y0188743D01*
X0114272Y0187342D01*
X0112871Y0188743D01*
X0117475Y0188042D02*
X0118175Y0188743D01*
X0119577Y0188743D01*
X0120277Y0188042D01*
X0120277Y0187342D01*
X0117475Y0184539D01*
X0120277Y0184539D01*
X0124080Y0184139D02*
X0124080Y0189139D01*
X0126580Y0191639D01*
X0131580Y0191639D01*
X0134080Y0189139D01*
X0136580Y0191639D01*
X0141580Y0191639D01*
X0144080Y0189139D01*
X0146580Y0191639D01*
X0151580Y0191639D01*
X0154080Y0189139D01*
X0156580Y0191639D01*
X0161580Y0191639D01*
X0164080Y0189139D01*
X0164080Y0184139D01*
X0161580Y0181639D01*
X0156580Y0181639D01*
X0154080Y0184139D01*
X0151580Y0181639D01*
X0146580Y0181639D01*
X0144080Y0184139D01*
X0141580Y0181639D01*
X0136580Y0181639D01*
X0134080Y0184139D01*
X0131580Y0181639D01*
X0126580Y0181639D01*
X0124080Y0184139D01*
X0127362Y0177364D02*
X0126662Y0176663D01*
X0126662Y0174561D01*
X0130865Y0174561D01*
X0130865Y0176663D01*
X0130165Y0177364D01*
X0127362Y0177364D01*
X0136898Y0176663D02*
X0136898Y0175262D01*
X0137599Y0174561D01*
X0138299Y0174561D01*
X0139000Y0175262D01*
X0139000Y0176663D01*
X0139700Y0177364D01*
X0140401Y0177364D01*
X0141102Y0176663D01*
X0141102Y0175262D01*
X0140401Y0174561D01*
X0137599Y0177364D02*
X0136898Y0176663D01*
X0147599Y0175963D02*
X0150401Y0175963D01*
X0149000Y0177364D02*
X0149000Y0174561D01*
X0159000Y0174561D02*
X0159000Y0177364D01*
X0175262Y0161184D02*
X0174561Y0160483D01*
X0174561Y0159783D01*
X0175262Y0159082D01*
X0176663Y0159082D01*
X0177364Y0158382D01*
X0177364Y0157681D01*
X0176663Y0156980D01*
X0175262Y0156980D01*
X0174561Y0157681D01*
X0175262Y0161184D02*
X0176663Y0161184D01*
X0177364Y0160483D01*
X0181639Y0161580D02*
X0181639Y0156580D01*
X0184139Y0154080D01*
X0181639Y0151580D01*
X0181639Y0146580D01*
X0184139Y0144080D01*
X0181639Y0141580D01*
X0181639Y0136580D01*
X0184139Y0134080D01*
X0189139Y0134080D01*
X0191639Y0136580D01*
X0191639Y0141580D01*
X0189139Y0144080D01*
X0191639Y0146580D01*
X0191639Y0151580D01*
X0189139Y0154080D01*
X0191639Y0156580D01*
X0191639Y0161580D01*
X0189139Y0164080D01*
X0184139Y0164080D01*
X0181639Y0161580D01*
X0175963Y0150483D02*
X0175963Y0147681D01*
X0177364Y0149082D02*
X0174561Y0149082D01*
X0174561Y0139082D02*
X0177364Y0139082D01*
X0184536Y0130120D02*
X0185236Y0130120D01*
X0188039Y0127317D01*
X0188739Y0127317D01*
X0188739Y0125516D02*
X0184536Y0125516D01*
X0185937Y0124115D01*
X0184536Y0122713D01*
X0188739Y0122713D01*
X0184536Y0127317D02*
X0184536Y0130120D01*
X0183968Y0116834D02*
X0181166Y0116834D01*
X0182567Y0116834D02*
X0182567Y0112630D01*
X0184139Y0110931D02*
X0181639Y0108431D01*
X0179139Y0110931D01*
X0174139Y0110931D01*
X0171639Y0108431D01*
X0171639Y0103431D01*
X0174139Y0100931D01*
X0171639Y0098431D01*
X0171639Y0093431D01*
X0174139Y0090931D01*
X0179139Y0090931D01*
X0181639Y0093431D01*
X0181639Y0098431D01*
X0179139Y0100931D01*
X0181639Y0103431D01*
X0181639Y0108431D01*
X0181639Y0103431D01*
X0184139Y0100931D01*
X0181639Y0098431D01*
X0181639Y0093431D01*
X0184139Y0090931D01*
X0189139Y0090931D01*
X0191639Y0093431D01*
X0191639Y0098431D01*
X0189139Y0100931D01*
X0191639Y0103431D01*
X0191639Y0108431D01*
X0189139Y0110931D01*
X0184139Y0110931D01*
X0185770Y0114732D02*
X0188572Y0114732D01*
X0179365Y0116834D02*
X0176562Y0116834D01*
X0177963Y0116834D02*
X0177963Y0112630D01*
X0174761Y0112630D02*
X0174761Y0115432D01*
X0173359Y0116834D01*
X0171958Y0115432D01*
X0171958Y0112630D01*
X0170157Y0113331D02*
X0169456Y0112630D01*
X0167354Y0112630D01*
X0167354Y0116834D01*
X0169456Y0116834D01*
X0170157Y0116133D01*
X0170157Y0115432D01*
X0169456Y0114732D01*
X0167354Y0114732D01*
X0169456Y0114732D02*
X0170157Y0114031D01*
X0170157Y0113331D01*
X0171958Y0114732D02*
X0174761Y0114732D01*
X0169139Y0110931D02*
X0171639Y0108431D01*
X0171639Y0103431D01*
X0169139Y0100931D01*
X0171639Y0098431D01*
X0171639Y0093431D01*
X0169139Y0090931D01*
X0164139Y0090931D01*
X0161639Y0093431D01*
X0161639Y0098431D01*
X0164139Y0100931D01*
X0161639Y0103431D01*
X0161639Y0108431D01*
X0164139Y0110931D01*
X0169139Y0110931D01*
X0169456Y0089393D02*
X0167354Y0089393D01*
X0167354Y0085189D01*
X0169456Y0085189D01*
X0170157Y0085890D01*
X0170157Y0086590D01*
X0169456Y0087291D01*
X0167354Y0087291D01*
X0169456Y0087291D02*
X0170157Y0087991D01*
X0170157Y0088692D01*
X0169456Y0089393D01*
X0171958Y0087991D02*
X0173359Y0089393D01*
X0174761Y0087991D01*
X0174761Y0085189D01*
X0174761Y0087291D02*
X0171958Y0087291D01*
X0171958Y0087991D02*
X0171958Y0085189D01*
X0177963Y0085189D02*
X0177963Y0089393D01*
X0176562Y0089393D02*
X0179365Y0089393D01*
X0181166Y0089393D02*
X0183968Y0089393D01*
X0182567Y0089393D02*
X0182567Y0085189D01*
X0185770Y0087291D02*
X0188572Y0087291D01*
X0187171Y0088692D02*
X0187171Y0085890D01*
X0187338Y0076335D02*
X0188039Y0076335D01*
X0188739Y0075635D01*
X0188739Y0074234D01*
X0188039Y0073533D01*
X0187338Y0073533D01*
X0186638Y0074234D01*
X0186638Y0075635D01*
X0187338Y0076335D01*
X0186638Y0075635D02*
X0185937Y0076335D01*
X0185236Y0076335D01*
X0184536Y0075635D01*
X0184536Y0074234D01*
X0185236Y0073533D01*
X0185937Y0073533D01*
X0186638Y0074234D01*
X0184536Y0071732D02*
X0188739Y0071732D01*
X0188739Y0068929D02*
X0184536Y0068929D01*
X0185937Y0070330D01*
X0184536Y0071732D01*
X0184139Y0065970D02*
X0189139Y0065970D01*
X0191639Y0063470D01*
X0191639Y0058470D01*
X0189139Y0055970D01*
X0191639Y0053470D01*
X0191639Y0048470D01*
X0189139Y0045970D01*
X0191639Y0043470D01*
X0191639Y0038470D01*
X0189139Y0035970D01*
X0184139Y0035970D01*
X0181639Y0038470D01*
X0181639Y0043470D01*
X0184139Y0045970D01*
X0181639Y0048470D01*
X0181639Y0053470D01*
X0184139Y0055970D01*
X0181639Y0058470D01*
X0181639Y0063470D01*
X0184139Y0065970D01*
X0177364Y0062058D02*
X0176663Y0062759D01*
X0175262Y0062759D01*
X0174561Y0062058D01*
X0174561Y0061358D01*
X0175262Y0060657D01*
X0176663Y0060657D01*
X0177364Y0059956D01*
X0177364Y0059256D01*
X0176663Y0058555D01*
X0175262Y0058555D01*
X0174561Y0059256D01*
X0175963Y0052058D02*
X0175963Y0049256D01*
X0177364Y0050657D02*
X0174561Y0050657D01*
X0174561Y0040657D02*
X0177364Y0040657D01*
X0159000Y0024487D02*
X0159000Y0021685D01*
X0156580Y0018411D02*
X0161580Y0018411D01*
X0164080Y0015911D01*
X0164080Y0010911D01*
X0161580Y0008411D01*
X0156580Y0008411D01*
X0154080Y0010911D01*
X0151580Y0008411D01*
X0146580Y0008411D01*
X0144080Y0010911D01*
X0141580Y0008411D01*
X0136580Y0008411D01*
X0134080Y0010911D01*
X0131580Y0008411D01*
X0126580Y0008411D01*
X0124080Y0010911D01*
X0124080Y0015911D01*
X0126580Y0018411D01*
X0131580Y0018411D01*
X0134080Y0015911D01*
X0136580Y0018411D01*
X0141580Y0018411D01*
X0144080Y0015911D01*
X0146580Y0018411D01*
X0151580Y0018411D01*
X0154080Y0015911D01*
X0156580Y0018411D01*
X0150401Y0023086D02*
X0147599Y0023086D01*
X0149000Y0021685D02*
X0149000Y0024487D01*
X0141102Y0023787D02*
X0141102Y0022386D01*
X0140401Y0021685D01*
X0139000Y0022386D02*
X0139000Y0023787D01*
X0139700Y0024487D01*
X0140401Y0024487D01*
X0141102Y0023787D01*
X0139000Y0022386D02*
X0138299Y0021685D01*
X0137599Y0021685D01*
X0136898Y0022386D01*
X0136898Y0023787D01*
X0137599Y0024487D01*
X0131259Y0023787D02*
X0131259Y0021685D01*
X0127055Y0021685D01*
X0127055Y0023787D01*
X0127756Y0024487D01*
X0130558Y0024487D01*
X0131259Y0023787D01*
X0120277Y0014814D02*
X0120277Y0014113D01*
X0119577Y0013413D01*
X0120277Y0012712D01*
X0120277Y0012012D01*
X0119577Y0011311D01*
X0118175Y0011311D01*
X0117475Y0012012D01*
X0115673Y0011311D02*
X0115673Y0015515D01*
X0114272Y0014113D01*
X0112871Y0015515D01*
X0112871Y0011311D01*
X0117475Y0014814D02*
X0118175Y0015515D01*
X0119577Y0015515D01*
X0120277Y0014814D01*
X0119577Y0013413D02*
X0118876Y0013413D01*
X0086178Y0013413D02*
X0083376Y0013413D01*
X0085477Y0015515D01*
X0085477Y0011311D01*
X0081574Y0011311D02*
X0081574Y0015515D01*
X0080173Y0014113D01*
X0078772Y0015515D01*
X0078772Y0011311D01*
X0075970Y0010911D02*
X0075970Y0015911D01*
X0073470Y0018411D01*
X0068470Y0018411D01*
X0065970Y0015911D01*
X0063470Y0018411D01*
X0058470Y0018411D01*
X0055970Y0015911D01*
X0053470Y0018411D01*
X0048470Y0018411D01*
X0045970Y0015911D01*
X0043470Y0018411D01*
X0038470Y0018411D01*
X0035970Y0015911D01*
X0035970Y0010911D01*
X0038470Y0008411D01*
X0043470Y0008411D01*
X0045970Y0010911D01*
X0048470Y0008411D01*
X0053470Y0008411D01*
X0055970Y0010911D01*
X0058470Y0008411D01*
X0063470Y0008411D01*
X0065970Y0010911D01*
X0068470Y0008411D01*
X0073470Y0008411D01*
X0075970Y0010911D01*
X0072991Y0021685D02*
X0068788Y0021685D01*
X0068788Y0023787D01*
X0069488Y0024487D01*
X0072291Y0024487D01*
X0072991Y0023787D01*
X0072991Y0021685D01*
X0063149Y0022386D02*
X0062448Y0021685D01*
X0063149Y0022386D02*
X0063149Y0023787D01*
X0062448Y0024487D01*
X0061748Y0024487D01*
X0061047Y0023787D01*
X0061047Y0022386D01*
X0060346Y0021685D01*
X0059646Y0021685D01*
X0058945Y0022386D01*
X0058945Y0023787D01*
X0059646Y0024487D01*
X0052448Y0023086D02*
X0049646Y0023086D01*
X0051047Y0021685D02*
X0051047Y0024487D01*
X0041047Y0024487D02*
X0041047Y0021685D01*
X0062092Y0047781D02*
X0067092Y0047781D01*
X0069592Y0050281D01*
X0072092Y0047781D01*
X0077092Y0047781D01*
X0079592Y0050281D01*
X0082092Y0047781D01*
X0087092Y0047781D01*
X0089592Y0050281D01*
X0092092Y0047781D01*
X0097092Y0047781D01*
X0099592Y0050281D01*
X0102092Y0047781D01*
X0107092Y0047781D01*
X0109592Y0050281D01*
X0112092Y0047781D01*
X0117092Y0047781D01*
X0119592Y0050281D01*
X0122092Y0047781D01*
X0127092Y0047781D01*
X0129592Y0050281D01*
X0132092Y0047781D01*
X0137092Y0047781D01*
X0139592Y0050281D01*
X0142092Y0047781D01*
X0147092Y0047781D01*
X0149592Y0050281D01*
X0149592Y0055281D01*
X0147092Y0057781D01*
X0142092Y0057781D01*
X0139592Y0055281D01*
X0137092Y0057781D01*
X0132092Y0057781D01*
X0129592Y0055281D01*
X0127092Y0057781D01*
X0122092Y0057781D01*
X0119592Y0055281D01*
X0117092Y0057781D01*
X0112092Y0057781D01*
X0109592Y0055281D01*
X0107092Y0057781D01*
X0102092Y0057781D01*
X0099592Y0055281D01*
X0097092Y0057781D01*
X0092092Y0057781D01*
X0089592Y0055281D01*
X0087092Y0057781D01*
X0082092Y0057781D01*
X0079592Y0055281D01*
X0077092Y0057781D01*
X0072092Y0057781D01*
X0069592Y0055281D01*
X0067092Y0057781D01*
X0062092Y0057781D01*
X0059592Y0055281D01*
X0059592Y0050281D01*
X0062092Y0047781D01*
X0063189Y0061055D02*
X0065992Y0061055D01*
X0066692Y0061756D01*
X0066692Y0063157D01*
X0065992Y0063858D01*
X0064590Y0063858D01*
X0064590Y0062456D01*
X0063189Y0061055D02*
X0062489Y0061756D01*
X0062489Y0063157D01*
X0063189Y0063858D01*
X0062489Y0065659D02*
X0066692Y0068461D01*
X0062489Y0068461D01*
X0062489Y0070263D02*
X0062489Y0072365D01*
X0063189Y0073065D01*
X0065992Y0073065D01*
X0066692Y0072365D01*
X0066692Y0070263D01*
X0062489Y0070263D01*
X0062489Y0065659D02*
X0066692Y0065659D01*
X0072489Y0067060D02*
X0073890Y0065659D01*
X0072489Y0067060D02*
X0076692Y0067060D01*
X0076692Y0065659D02*
X0076692Y0068461D01*
X0076692Y0063858D02*
X0072489Y0063858D01*
X0073890Y0062456D01*
X0072489Y0061055D01*
X0076692Y0061055D01*
X0082489Y0061055D02*
X0083890Y0062456D01*
X0082489Y0063858D01*
X0086692Y0063858D01*
X0086692Y0065659D02*
X0083890Y0068461D01*
X0083189Y0068461D01*
X0082489Y0067761D01*
X0082489Y0066360D01*
X0083189Y0065659D01*
X0086692Y0065659D02*
X0086692Y0068461D01*
X0092489Y0067761D02*
X0093189Y0068461D01*
X0093890Y0068461D01*
X0094590Y0067761D01*
X0095291Y0068461D01*
X0095992Y0068461D01*
X0096692Y0067761D01*
X0096692Y0066360D01*
X0095992Y0065659D01*
X0096692Y0063858D02*
X0092489Y0063858D01*
X0093890Y0062456D01*
X0092489Y0061055D01*
X0096692Y0061055D01*
X0093189Y0065659D02*
X0092489Y0066360D01*
X0092489Y0067761D01*
X0094590Y0067761D02*
X0094590Y0067060D01*
X0102489Y0067761D02*
X0104590Y0065659D01*
X0104590Y0068461D01*
X0102489Y0067761D02*
X0106692Y0067761D01*
X0106692Y0063858D02*
X0102489Y0063858D01*
X0103890Y0062456D01*
X0102489Y0061055D01*
X0106692Y0061055D01*
X0112489Y0061055D02*
X0113890Y0062456D01*
X0112489Y0063858D01*
X0116692Y0063858D01*
X0115992Y0065659D02*
X0116692Y0066360D01*
X0116692Y0067761D01*
X0115992Y0068461D01*
X0114590Y0068461D01*
X0113890Y0067761D01*
X0113890Y0067060D01*
X0114590Y0065659D01*
X0112489Y0065659D01*
X0112489Y0068461D01*
X0112489Y0061055D02*
X0116692Y0061055D01*
X0122489Y0061055D02*
X0123890Y0062456D01*
X0122489Y0063858D01*
X0126692Y0063858D01*
X0125992Y0065659D02*
X0126692Y0066360D01*
X0126692Y0067761D01*
X0125992Y0068461D01*
X0125291Y0068461D01*
X0124590Y0067761D01*
X0124590Y0065659D01*
X0125992Y0065659D01*
X0124590Y0065659D02*
X0123189Y0067060D01*
X0122489Y0068461D01*
X0122489Y0061055D02*
X0126692Y0061055D01*
X0132489Y0061055D02*
X0133890Y0062456D01*
X0132489Y0063858D01*
X0136692Y0063858D01*
X0136692Y0065659D02*
X0135992Y0065659D01*
X0133189Y0068461D01*
X0132489Y0068461D01*
X0132489Y0065659D01*
X0132489Y0061055D02*
X0136692Y0061055D01*
X0142489Y0061055D02*
X0143890Y0062456D01*
X0142489Y0063858D01*
X0146692Y0063858D01*
X0145992Y0065659D02*
X0145291Y0065659D01*
X0144590Y0066360D01*
X0144590Y0067761D01*
X0145291Y0068461D01*
X0145992Y0068461D01*
X0146692Y0067761D01*
X0146692Y0066360D01*
X0145992Y0065659D01*
X0144590Y0066360D02*
X0143890Y0065659D01*
X0143189Y0065659D01*
X0142489Y0066360D01*
X0142489Y0067761D01*
X0143189Y0068461D01*
X0143890Y0068461D01*
X0144590Y0067761D01*
X0146692Y0061055D02*
X0142489Y0061055D01*
X0120891Y0081226D02*
X0113805Y0081226D01*
X0113805Y0087328D01*
X0120891Y0087328D01*
X0113805Y0087328D02*
X0110655Y0087328D01*
X0110655Y0081226D02*
X0113805Y0081226D01*
X0123119Y0107125D02*
X0123121Y0107172D01*
X0123127Y0107219D01*
X0123137Y0107266D01*
X0123150Y0107311D01*
X0123168Y0107355D01*
X0123189Y0107397D01*
X0123213Y0107438D01*
X0123241Y0107476D01*
X0123272Y0107512D01*
X0123306Y0107545D01*
X0123342Y0107575D01*
X0123381Y0107602D01*
X0123422Y0107626D01*
X0123465Y0107646D01*
X0123509Y0107662D01*
X0123555Y0107675D01*
X0123601Y0107684D01*
X0123649Y0107689D01*
X0123696Y0107690D01*
X0123743Y0107687D01*
X0123790Y0107680D01*
X0123836Y0107669D01*
X0123881Y0107655D01*
X0123925Y0107636D01*
X0123966Y0107614D01*
X0124006Y0107589D01*
X0124044Y0107560D01*
X0124079Y0107529D01*
X0124112Y0107494D01*
X0124141Y0107457D01*
X0124167Y0107418D01*
X0124190Y0107376D01*
X0124209Y0107333D01*
X0124225Y0107288D01*
X0124237Y0107242D01*
X0124245Y0107196D01*
X0124249Y0107149D01*
X0124249Y0107101D01*
X0124245Y0107054D01*
X0124237Y0107008D01*
X0124225Y0106962D01*
X0124209Y0106917D01*
X0124190Y0106874D01*
X0124167Y0106832D01*
X0124141Y0106793D01*
X0124112Y0106756D01*
X0124079Y0106721D01*
X0124044Y0106690D01*
X0124006Y0106661D01*
X0123967Y0106636D01*
X0123925Y0106614D01*
X0123881Y0106595D01*
X0123836Y0106581D01*
X0123790Y0106570D01*
X0123743Y0106563D01*
X0123696Y0106560D01*
X0123649Y0106561D01*
X0123601Y0106566D01*
X0123555Y0106575D01*
X0123509Y0106588D01*
X0123465Y0106604D01*
X0123422Y0106624D01*
X0123381Y0106648D01*
X0123342Y0106675D01*
X0123306Y0106705D01*
X0123272Y0106738D01*
X0123241Y0106774D01*
X0123213Y0106812D01*
X0123189Y0106853D01*
X0123168Y0106895D01*
X0123150Y0106939D01*
X0123137Y0106984D01*
X0123127Y0107031D01*
X0123121Y0107078D01*
X0123119Y0107125D01*
X0085458Y0125813D02*
X0067348Y0125813D01*
X0067348Y0127584D01*
X0067348Y0135458D02*
X0067348Y0137230D01*
X0085458Y0137230D01*
X0085458Y0135458D01*
X0080340Y0135458D02*
X0080340Y0127584D01*
X0085458Y0127584D02*
X0085458Y0125813D01*
X0086692Y0061055D02*
X0082489Y0061055D01*
X0015511Y0122713D02*
X0011307Y0122713D01*
D11*
X0031393Y0124908D02*
X0031960Y0124341D01*
X0034229Y0124341D01*
X0034796Y0124908D01*
X0034796Y0126042D01*
X0034229Y0126610D01*
X0033095Y0126610D01*
X0033095Y0125475D01*
X0031960Y0126610D02*
X0031393Y0126042D01*
X0031393Y0124908D01*
X0031393Y0128024D02*
X0034796Y0130293D01*
X0031393Y0130293D01*
X0031393Y0131707D02*
X0031393Y0133409D01*
X0031960Y0133976D01*
X0034229Y0133976D01*
X0034796Y0133409D01*
X0034796Y0131707D01*
X0031393Y0131707D01*
X0031393Y0128024D02*
X0034796Y0128024D01*
X0036393Y0128024D02*
X0039796Y0130293D01*
X0041393Y0130293D02*
X0044796Y0128024D01*
X0044796Y0126610D02*
X0043662Y0125475D01*
X0043662Y0126042D02*
X0043662Y0124341D01*
X0044796Y0124341D02*
X0041393Y0124341D01*
X0041393Y0126042D01*
X0041960Y0126610D01*
X0043095Y0126610D01*
X0043662Y0126042D01*
X0041393Y0128024D02*
X0044796Y0130293D01*
X0046393Y0130293D02*
X0048662Y0130293D01*
X0049796Y0129158D01*
X0048662Y0128024D01*
X0046393Y0128024D01*
X0046393Y0126610D02*
X0046393Y0124341D01*
X0048095Y0124341D01*
X0047527Y0125475D01*
X0047527Y0126042D01*
X0048095Y0126610D01*
X0049229Y0126610D01*
X0049796Y0126042D01*
X0049796Y0124908D01*
X0049229Y0124341D01*
X0039796Y0125475D02*
X0036393Y0125475D01*
X0036393Y0124341D02*
X0036393Y0126610D01*
X0036393Y0130293D02*
X0039796Y0128024D01*
X0034229Y0110354D02*
X0031960Y0110354D01*
X0031393Y0109787D01*
X0031393Y0108085D01*
X0034796Y0108085D01*
X0034796Y0109787D01*
X0034229Y0110354D01*
X0034796Y0106671D02*
X0031393Y0106671D01*
X0031393Y0104402D02*
X0034796Y0106671D01*
X0036393Y0106671D02*
X0039796Y0104402D01*
X0041393Y0104402D02*
X0044796Y0106671D01*
X0046393Y0106671D02*
X0048662Y0106671D01*
X0049796Y0105536D01*
X0048662Y0104402D01*
X0046393Y0104402D01*
X0046393Y0102987D02*
X0046393Y0100719D01*
X0048095Y0100719D01*
X0047527Y0101853D01*
X0047527Y0102420D01*
X0048095Y0102987D01*
X0049229Y0102987D01*
X0049796Y0102420D01*
X0049796Y0101286D01*
X0049229Y0100719D01*
X0044796Y0100719D02*
X0041393Y0100719D01*
X0041393Y0102420D01*
X0041960Y0102987D01*
X0043095Y0102987D01*
X0043662Y0102420D01*
X0043662Y0100719D01*
X0043662Y0101853D02*
X0044796Y0102987D01*
X0044796Y0104402D02*
X0041393Y0106671D01*
X0039796Y0106671D02*
X0036393Y0104402D01*
X0036393Y0102987D02*
X0036393Y0100719D01*
X0036393Y0101853D02*
X0039796Y0101853D01*
X0034796Y0101286D02*
X0034796Y0102420D01*
X0034229Y0102987D01*
X0033095Y0102987D01*
X0033095Y0101853D01*
X0034229Y0100719D02*
X0031960Y0100719D01*
X0031393Y0101286D01*
X0031393Y0102420D01*
X0031960Y0102987D01*
X0031393Y0104402D02*
X0034796Y0104402D01*
X0034796Y0101286D02*
X0034229Y0100719D01*
X0034229Y0086732D02*
X0031960Y0086732D01*
X0031393Y0086165D01*
X0031393Y0084463D01*
X0034796Y0084463D01*
X0034796Y0086165D01*
X0034229Y0086732D01*
X0034796Y0083049D02*
X0031393Y0083049D01*
X0031393Y0080780D02*
X0034796Y0083049D01*
X0036393Y0083049D02*
X0039796Y0080780D01*
X0041393Y0080780D02*
X0044796Y0083049D01*
X0046393Y0083049D02*
X0048662Y0083049D01*
X0049796Y0081914D01*
X0048662Y0080780D01*
X0046393Y0080780D01*
X0046393Y0079365D02*
X0046393Y0077097D01*
X0048095Y0077097D01*
X0047527Y0078231D01*
X0047527Y0078798D01*
X0048095Y0079365D01*
X0049229Y0079365D01*
X0049796Y0078798D01*
X0049796Y0077664D01*
X0049229Y0077097D01*
X0044796Y0077097D02*
X0041393Y0077097D01*
X0041393Y0078798D01*
X0041960Y0079365D01*
X0043095Y0079365D01*
X0043662Y0078798D01*
X0043662Y0077097D01*
X0043662Y0078231D02*
X0044796Y0079365D01*
X0044796Y0080780D02*
X0041393Y0083049D01*
X0039796Y0083049D02*
X0036393Y0080780D01*
X0036393Y0079365D02*
X0036393Y0077097D01*
X0036393Y0078231D02*
X0039796Y0078231D01*
X0034796Y0077664D02*
X0034796Y0078798D01*
X0034229Y0079365D01*
X0033095Y0079365D01*
X0033095Y0078231D01*
X0034229Y0077097D02*
X0031960Y0077097D01*
X0031393Y0077664D01*
X0031393Y0078798D01*
X0031960Y0079365D01*
X0031393Y0080780D02*
X0034796Y0080780D01*
X0034796Y0077664D02*
X0034229Y0077097D01*
X0086751Y0090225D02*
X0097551Y0090225D01*
X0097551Y0109825D02*
X0093351Y0109825D01*
X0090951Y0109825D01*
X0086751Y0109825D01*
X0090951Y0109825D02*
X0090953Y0109756D01*
X0090959Y0109688D01*
X0090969Y0109620D01*
X0090982Y0109553D01*
X0091000Y0109487D01*
X0091021Y0109422D01*
X0091046Y0109358D01*
X0091074Y0109296D01*
X0091106Y0109235D01*
X0091141Y0109176D01*
X0091180Y0109120D01*
X0091222Y0109065D01*
X0091267Y0109014D01*
X0091315Y0108964D01*
X0091365Y0108918D01*
X0091418Y0108875D01*
X0091474Y0108834D01*
X0091531Y0108797D01*
X0091591Y0108764D01*
X0091653Y0108733D01*
X0091716Y0108707D01*
X0091780Y0108684D01*
X0091846Y0108664D01*
X0091913Y0108649D01*
X0091980Y0108637D01*
X0092048Y0108629D01*
X0092117Y0108625D01*
X0092185Y0108625D01*
X0092254Y0108629D01*
X0092322Y0108637D01*
X0092389Y0108649D01*
X0092456Y0108664D01*
X0092522Y0108684D01*
X0092586Y0108707D01*
X0092649Y0108733D01*
X0092711Y0108764D01*
X0092771Y0108797D01*
X0092828Y0108834D01*
X0092884Y0108875D01*
X0092937Y0108918D01*
X0092987Y0108964D01*
X0093035Y0109014D01*
X0093080Y0109065D01*
X0093122Y0109120D01*
X0093161Y0109176D01*
X0093196Y0109235D01*
X0093228Y0109296D01*
X0093256Y0109358D01*
X0093281Y0109422D01*
X0093302Y0109487D01*
X0093320Y0109553D01*
X0093333Y0109620D01*
X0093343Y0109688D01*
X0093349Y0109756D01*
X0093351Y0109825D01*
X0120486Y0109324D02*
X0134683Y0109324D01*
X0134683Y0090726D02*
X0120486Y0090726D01*
X0093064Y0155697D02*
X0090795Y0155697D01*
X0089661Y0156831D01*
X0090795Y0157966D01*
X0093064Y0157966D01*
X0091362Y0157966D02*
X0091362Y0155697D01*
X0087946Y0156831D02*
X0086811Y0155697D01*
X0084543Y0155697D01*
X0084543Y0157966D02*
X0086811Y0157966D01*
X0087946Y0156831D01*
X0075289Y0166389D02*
X0075289Y0168657D01*
X0075289Y0166389D02*
X0074154Y0165254D01*
X0073020Y0166389D01*
X0073020Y0168657D01*
X0071605Y0168657D02*
X0069337Y0168657D01*
X0069337Y0166956D01*
X0070471Y0167523D01*
X0071038Y0167523D01*
X0071605Y0166956D01*
X0071605Y0165821D01*
X0071038Y0165254D01*
X0069904Y0165254D01*
X0069337Y0165821D01*
X0049796Y0152780D02*
X0048662Y0151646D01*
X0046393Y0151646D01*
X0046393Y0150232D02*
X0046393Y0147963D01*
X0048095Y0147963D01*
X0047527Y0149097D01*
X0047527Y0149664D01*
X0048095Y0150232D01*
X0049229Y0150232D01*
X0049796Y0149664D01*
X0049796Y0148530D01*
X0049229Y0147963D01*
X0044796Y0147963D02*
X0041393Y0147963D01*
X0041393Y0149664D01*
X0041960Y0150232D01*
X0043095Y0150232D01*
X0043662Y0149664D01*
X0043662Y0147963D01*
X0043662Y0149097D02*
X0044796Y0150232D01*
X0044796Y0151646D02*
X0041393Y0153915D01*
X0039796Y0153915D02*
X0036393Y0151646D01*
X0036393Y0150232D02*
X0036393Y0147963D01*
X0036393Y0149097D02*
X0039796Y0149097D01*
X0039796Y0151646D02*
X0036393Y0153915D01*
X0034796Y0153915D02*
X0031393Y0153915D01*
X0031393Y0155329D02*
X0031393Y0157031D01*
X0031960Y0157598D01*
X0034229Y0157598D01*
X0034796Y0157031D01*
X0034796Y0155329D01*
X0031393Y0155329D01*
X0031393Y0151646D02*
X0034796Y0153915D01*
X0034796Y0151646D02*
X0031393Y0151646D01*
X0031960Y0150232D02*
X0031393Y0149664D01*
X0031393Y0148530D01*
X0031960Y0147963D01*
X0034229Y0147963D01*
X0034796Y0148530D01*
X0034796Y0149664D01*
X0034229Y0150232D01*
X0033095Y0150232D01*
X0033095Y0149097D01*
X0041393Y0151646D02*
X0044796Y0153915D01*
X0046393Y0153915D02*
X0048662Y0153915D01*
X0049796Y0152780D01*
X0100719Y0165821D02*
X0101286Y0165254D01*
X0102420Y0165254D01*
X0102987Y0165821D01*
X0102987Y0166956D01*
X0101853Y0166956D01*
X0100719Y0168090D02*
X0100719Y0165821D01*
X0100719Y0168090D02*
X0101286Y0168657D01*
X0102420Y0168657D01*
X0102987Y0168090D01*
X0104402Y0168657D02*
X0106671Y0165254D01*
X0106671Y0168657D01*
X0108085Y0168657D02*
X0109787Y0168657D01*
X0110354Y0168090D01*
X0110354Y0165821D01*
X0109787Y0165254D01*
X0108085Y0165254D01*
X0108085Y0168657D01*
X0104402Y0168657D02*
X0104402Y0165254D01*
D12*
X0082437Y0113295D02*
X0079301Y0110159D01*
X0080869Y0110159D02*
X0080869Y0113295D01*
X0079301Y0113295D02*
X0082437Y0110159D01*
X0082437Y0111727D02*
X0079301Y0111727D01*
D13*
X0084157Y0119710D02*
X0084397Y0119710D01*
D14*
X0051344Y0160817D02*
X0046344Y0160817D01*
X0046344Y0161817D01*
X0046344Y0164217D02*
X0046344Y0165217D01*
X0051344Y0165217D01*
X0051344Y0164217D01*
X0051344Y0161817D02*
X0051344Y0160817D01*
X0130537Y0137624D02*
X0130537Y0118726D01*
X0139592Y0118726D01*
X0147072Y0118726D02*
X0156128Y0118726D01*
X0156128Y0137624D01*
X0149435Y0144317D01*
X0147072Y0144317D01*
X0139592Y0144317D02*
X0137230Y0144317D01*
X0130537Y0137624D01*
X0147072Y0143136D02*
X0147355Y0143041D01*
X0147636Y0142939D01*
X0147913Y0142830D01*
X0148189Y0142715D01*
X0148461Y0142593D01*
X0148730Y0142464D01*
X0148996Y0142329D01*
X0149258Y0142187D01*
X0149517Y0142039D01*
X0149773Y0141885D01*
X0150024Y0141724D01*
X0150272Y0141557D01*
X0150515Y0141385D01*
X0150754Y0141206D01*
X0150989Y0141022D01*
X0151219Y0140832D01*
X0151444Y0140636D01*
X0151664Y0140435D01*
X0151880Y0140229D01*
X0152090Y0140017D01*
X0152295Y0139801D01*
X0152495Y0139579D01*
X0152689Y0139352D01*
X0152878Y0139121D01*
X0153061Y0138886D01*
X0153238Y0138646D01*
X0153409Y0138401D01*
X0153574Y0138153D01*
X0153733Y0137900D01*
X0153886Y0137644D01*
X0154033Y0137384D01*
X0154173Y0137121D01*
X0154307Y0136854D01*
X0154434Y0136584D01*
X0154554Y0136311D01*
X0154668Y0136036D01*
X0154775Y0135757D01*
X0154875Y0135476D01*
X0154968Y0135193D01*
X0155055Y0134907D01*
X0155134Y0134619D01*
X0155206Y0134330D01*
X0155271Y0134039D01*
X0155329Y0133746D01*
X0155380Y0133452D01*
X0155424Y0133157D01*
X0155460Y0132861D01*
X0155489Y0132564D01*
X0155511Y0132266D01*
X0155526Y0131968D01*
X0155533Y0131670D01*
X0155533Y0131372D01*
X0155526Y0131074D01*
X0155511Y0130776D01*
X0155489Y0130478D01*
X0155460Y0130181D01*
X0155424Y0129885D01*
X0155380Y0129590D01*
X0155329Y0129296D01*
X0155271Y0129003D01*
X0155206Y0128712D01*
X0155134Y0128423D01*
X0155055Y0128135D01*
X0154968Y0127849D01*
X0154875Y0127566D01*
X0154775Y0127285D01*
X0154668Y0127006D01*
X0154554Y0126731D01*
X0154434Y0126458D01*
X0154307Y0126188D01*
X0154173Y0125921D01*
X0154033Y0125658D01*
X0153886Y0125398D01*
X0153733Y0125142D01*
X0153574Y0124889D01*
X0153409Y0124641D01*
X0153238Y0124396D01*
X0153061Y0124156D01*
X0152878Y0123921D01*
X0152689Y0123690D01*
X0152495Y0123463D01*
X0152295Y0123241D01*
X0152090Y0123025D01*
X0151880Y0122813D01*
X0151664Y0122607D01*
X0151444Y0122406D01*
X0151219Y0122210D01*
X0150989Y0122020D01*
X0150754Y0121836D01*
X0150515Y0121657D01*
X0150272Y0121485D01*
X0150024Y0121318D01*
X0149773Y0121157D01*
X0149517Y0121003D01*
X0149258Y0120855D01*
X0148996Y0120713D01*
X0148730Y0120578D01*
X0148461Y0120449D01*
X0148189Y0120327D01*
X0147913Y0120212D01*
X0147636Y0120103D01*
X0147355Y0120001D01*
X0147072Y0119906D01*
X0139592Y0119906D02*
X0139309Y0120001D01*
X0139028Y0120103D01*
X0138751Y0120212D01*
X0138475Y0120327D01*
X0138203Y0120449D01*
X0137934Y0120578D01*
X0137668Y0120713D01*
X0137406Y0120855D01*
X0137147Y0121003D01*
X0136891Y0121157D01*
X0136640Y0121318D01*
X0136392Y0121485D01*
X0136149Y0121657D01*
X0135910Y0121836D01*
X0135675Y0122020D01*
X0135445Y0122210D01*
X0135220Y0122406D01*
X0135000Y0122607D01*
X0134784Y0122813D01*
X0134574Y0123025D01*
X0134369Y0123241D01*
X0134169Y0123463D01*
X0133975Y0123690D01*
X0133786Y0123921D01*
X0133603Y0124156D01*
X0133426Y0124396D01*
X0133255Y0124641D01*
X0133090Y0124889D01*
X0132931Y0125142D01*
X0132778Y0125398D01*
X0132631Y0125658D01*
X0132491Y0125921D01*
X0132357Y0126188D01*
X0132230Y0126458D01*
X0132110Y0126731D01*
X0131996Y0127006D01*
X0131889Y0127285D01*
X0131789Y0127566D01*
X0131696Y0127849D01*
X0131609Y0128135D01*
X0131530Y0128423D01*
X0131458Y0128712D01*
X0131393Y0129003D01*
X0131335Y0129296D01*
X0131284Y0129590D01*
X0131240Y0129885D01*
X0131204Y0130181D01*
X0131175Y0130478D01*
X0131153Y0130776D01*
X0131138Y0131074D01*
X0131131Y0131372D01*
X0131131Y0131670D01*
X0131138Y0131968D01*
X0131153Y0132266D01*
X0131175Y0132564D01*
X0131204Y0132861D01*
X0131240Y0133157D01*
X0131284Y0133452D01*
X0131335Y0133746D01*
X0131393Y0134039D01*
X0131458Y0134330D01*
X0131530Y0134619D01*
X0131609Y0134907D01*
X0131696Y0135193D01*
X0131789Y0135476D01*
X0131889Y0135757D01*
X0131996Y0136036D01*
X0132110Y0136311D01*
X0132230Y0136584D01*
X0132357Y0136854D01*
X0132491Y0137121D01*
X0132631Y0137384D01*
X0132778Y0137644D01*
X0132931Y0137900D01*
X0133090Y0138153D01*
X0133255Y0138401D01*
X0133426Y0138646D01*
X0133603Y0138886D01*
X0133786Y0139121D01*
X0133975Y0139352D01*
X0134169Y0139579D01*
X0134369Y0139801D01*
X0134574Y0140017D01*
X0134784Y0140229D01*
X0135000Y0140435D01*
X0135220Y0140636D01*
X0135445Y0140832D01*
X0135675Y0141022D01*
X0135910Y0141206D01*
X0136149Y0141385D01*
X0136392Y0141557D01*
X0136640Y0141724D01*
X0136891Y0141885D01*
X0137147Y0142039D01*
X0137406Y0142187D01*
X0137668Y0142329D01*
X0137934Y0142464D01*
X0138203Y0142593D01*
X0138475Y0142715D01*
X0138751Y0142830D01*
X0139028Y0142939D01*
X0139309Y0143041D01*
X0139592Y0143136D01*
X0148706Y0160817D02*
X0148706Y0161817D01*
X0148706Y0160817D02*
X0153706Y0160817D01*
X0153706Y0161817D01*
X0153706Y0164217D02*
X0153706Y0165217D01*
X0148706Y0165217D01*
X0148706Y0164217D01*
X0168391Y0151280D02*
X0168391Y0150280D01*
X0168391Y0151280D02*
X0173391Y0151280D01*
X0173391Y0150280D01*
X0173391Y0147880D02*
X0173391Y0146880D01*
X0168391Y0146880D01*
X0168391Y0147880D01*
X0165517Y0053170D02*
X0160517Y0053170D01*
X0160517Y0052170D01*
X0160517Y0049770D02*
X0160517Y0048770D01*
X0165517Y0048770D01*
X0165517Y0049770D01*
X0165517Y0052170D02*
X0165517Y0053170D01*
X0149769Y0031359D02*
X0144769Y0031359D01*
X0144769Y0030359D01*
X0144769Y0027959D02*
X0144769Y0026959D01*
X0149769Y0026959D01*
X0149769Y0027959D01*
X0149769Y0030359D02*
X0149769Y0031359D01*
X0051344Y0030896D02*
X0051344Y0031896D01*
X0051344Y0030896D02*
X0046344Y0030896D01*
X0046344Y0031896D01*
X0046344Y0034296D02*
X0046344Y0035296D01*
X0051344Y0035296D01*
X0051344Y0034296D01*
X0035596Y0048770D02*
X0035596Y0049770D01*
X0035596Y0048770D02*
X0030596Y0048770D01*
X0030596Y0049770D01*
X0030596Y0052170D02*
X0030596Y0053170D01*
X0035596Y0053170D01*
X0035596Y0052170D01*
D15*
X0072466Y0089179D03*
X0072466Y0103962D03*
X0013411Y0107899D03*
D16*
X0040970Y0060970D03*
X0119710Y0037033D03*
X0133490Y0084277D03*
X0135734Y0171285D03*
D17*
X0099588Y0168454D02*
X0099588Y0165454D01*
X0097588Y0163454D01*
X0094588Y0163454D01*
X0093588Y0164454D01*
X0092588Y0163454D01*
X0089588Y0163454D01*
X0088588Y0164454D01*
X0087588Y0163454D01*
X0084588Y0163454D01*
X0083588Y0164454D01*
X0082588Y0163454D01*
X0079588Y0163454D01*
X0077588Y0165454D01*
X0077588Y0168454D01*
X0079588Y0170454D01*
X0082588Y0170454D01*
X0083588Y0169454D01*
X0084588Y0170454D01*
X0087588Y0170454D01*
X0088588Y0169454D01*
X0089588Y0170454D01*
X0092588Y0170454D01*
X0093588Y0169454D01*
X0094588Y0170454D01*
X0097588Y0170454D01*
X0099588Y0168454D01*
X0051596Y0144832D02*
X0051596Y0141832D01*
X0049596Y0139832D01*
X0046596Y0139832D01*
X0045596Y0140832D01*
X0044596Y0139832D01*
X0041596Y0139832D01*
X0040596Y0140832D01*
X0039596Y0139832D01*
X0036596Y0139832D01*
X0035596Y0140832D01*
X0034596Y0139832D01*
X0031596Y0139832D01*
X0029596Y0141832D01*
X0029596Y0144832D01*
X0031596Y0146832D01*
X0034596Y0146832D01*
X0035596Y0145832D01*
X0036596Y0146832D01*
X0039596Y0146832D01*
X0040596Y0145832D01*
X0041596Y0146832D01*
X0044596Y0146832D01*
X0045596Y0145832D01*
X0046596Y0146832D01*
X0049596Y0146832D01*
X0051596Y0144832D01*
X0049596Y0123210D02*
X0046596Y0123210D01*
X0045596Y0122210D01*
X0044596Y0123210D01*
X0041596Y0123210D01*
X0040596Y0122210D01*
X0039596Y0123210D01*
X0036596Y0123210D01*
X0035596Y0122210D01*
X0034596Y0123210D01*
X0031596Y0123210D01*
X0029596Y0121210D01*
X0029596Y0118210D01*
X0031596Y0116210D01*
X0034596Y0116210D01*
X0035596Y0117210D01*
X0036596Y0116210D01*
X0039596Y0116210D01*
X0040596Y0117210D01*
X0041596Y0116210D01*
X0044596Y0116210D01*
X0045596Y0117210D01*
X0046596Y0116210D01*
X0049596Y0116210D01*
X0051596Y0118210D01*
X0051596Y0121210D01*
X0049596Y0123210D01*
X0049596Y0099588D02*
X0046596Y0099588D01*
X0045596Y0098588D01*
X0044596Y0099588D01*
X0041596Y0099588D01*
X0040596Y0098588D01*
X0039596Y0099588D01*
X0036596Y0099588D01*
X0035596Y0098588D01*
X0034596Y0099588D01*
X0031596Y0099588D01*
X0029596Y0097588D01*
X0029596Y0094588D01*
X0031596Y0092588D01*
X0034596Y0092588D01*
X0035596Y0093588D01*
X0036596Y0092588D01*
X0039596Y0092588D01*
X0040596Y0093588D01*
X0041596Y0092588D01*
X0044596Y0092588D01*
X0045596Y0093588D01*
X0046596Y0092588D01*
X0049596Y0092588D01*
X0051596Y0094588D01*
X0051596Y0097588D01*
X0049596Y0099588D01*
X0049596Y0075966D02*
X0046596Y0075966D01*
X0045596Y0074966D01*
X0044596Y0075966D01*
X0041596Y0075966D01*
X0040596Y0074966D01*
X0039596Y0075966D01*
X0036596Y0075966D01*
X0035596Y0074966D01*
X0034596Y0075966D01*
X0031596Y0075966D01*
X0029596Y0073966D01*
X0029596Y0070966D01*
X0031596Y0068966D01*
X0034596Y0068966D01*
X0035596Y0069966D01*
X0036596Y0068966D01*
X0039596Y0068966D01*
X0040596Y0069966D01*
X0041596Y0068966D01*
X0044596Y0068966D01*
X0045596Y0069966D01*
X0046596Y0068966D01*
X0049596Y0068966D01*
X0051596Y0070966D01*
X0051596Y0073966D01*
X0049596Y0075966D01*
M02*
