G75*
%MOIN*%
%OFA0B0*%
%FSLAX25Y25*%
%IPPOS*%
%LPD*%
%AMOC8*
5,1,8,0,0,1.08239X$1,22.5*
%
%ADD10C,0.00000*%
%ADD11C,0.19685*%
%ADD12C,0.15748*%
%ADD13C,0.05906*%
%ADD14R,0.07400X0.07400*%
%ADD15C,0.07400*%
%ADD16R,0.03937X0.04331*%
%ADD17C,0.03569*%
%ADD18C,0.03200*%
%ADD19C,0.03372*%
%ADD20C,0.02400*%
D10*
X0121110Y0018748D02*
X0121110Y0136858D01*
X0239220Y0136858D01*
X0239220Y0018748D01*
X0121110Y0018748D01*
D11*
X0148669Y0117173D02*
X0168354Y0117173D01*
X0191976Y0117173D02*
X0211661Y0117173D01*
D12*
X0207724Y0117173D02*
X0191976Y0117173D01*
X0168354Y0117173D02*
X0152606Y0117173D01*
D13*
X0172646Y0032921D03*
X0180165Y0032921D03*
X0187685Y0032921D03*
D14*
X0160480Y0026622D03*
D15*
X0150480Y0026622D03*
X0140480Y0026622D03*
X0130480Y0026622D03*
D16*
X0130480Y0042961D03*
X0130480Y0049654D03*
D17*
X0152606Y0109299D03*
X0147882Y0110874D03*
X0145126Y0114811D03*
X0145126Y0119535D03*
X0147882Y0123472D03*
X0152606Y0125047D03*
X0158118Y0125047D03*
X0163236Y0125047D03*
X0168354Y0125047D03*
X0173079Y0123472D03*
X0175835Y0119535D03*
X0184496Y0119535D03*
X0184496Y0114811D03*
X0187252Y0110874D03*
X0191976Y0109299D03*
X0197488Y0109299D03*
X0202606Y0109299D03*
X0207724Y0109299D03*
X0212449Y0110874D03*
X0215205Y0114811D03*
X0215205Y0119535D03*
X0212449Y0123472D03*
X0207724Y0125047D03*
X0202606Y0125047D03*
X0197488Y0125047D03*
X0191976Y0125047D03*
X0187252Y0123472D03*
X0175835Y0114811D03*
X0173079Y0110874D03*
X0168354Y0109299D03*
X0163236Y0109299D03*
X0158118Y0109299D03*
D18*
X0158512Y0108906D01*
X0158512Y0087646D01*
X0130480Y0059614D01*
X0130480Y0049654D01*
X0130480Y0042961D02*
X0130480Y0026622D01*
D19*
X0200638Y0042370D03*
D20*
X0156543Y0042370D01*
X0150480Y0036307D01*
X0150480Y0026622D01*
M02*
