G75*
%MOIN*%
%OFA0B0*%
%FSLAX25Y25*%
%IPPOS*%
%LPD*%
%AMOC8*
5,1,8,0,0,1.08239X$1,22.5*
%
%ADD10C,0.01000*%
%ADD11C,0.20485*%
%ADD12C,0.16548*%
%ADD13C,0.06706*%
%ADD14R,0.05131X0.04737*%
%ADD15R,0.04737X0.05131*%
%ADD16R,0.08200X0.08200*%
%ADD17C,0.08200*%
%ADD18C,0.04369*%
%ADD19C,0.04172*%
D10*
X0121110Y0050244D02*
X0239220Y0050244D01*
X0239220Y0073866D01*
X0121110Y0073866D01*
X0121110Y0069929D01*
X0121110Y0050244D01*
X0121110Y0050700D02*
X0239220Y0050700D01*
X0239220Y0051699D02*
X0121110Y0051699D01*
X0121110Y0052697D02*
X0239220Y0052697D01*
X0239220Y0053696D02*
X0121110Y0053696D01*
X0121110Y0054694D02*
X0239220Y0054694D01*
X0239220Y0055693D02*
X0121110Y0055693D01*
X0121110Y0056691D02*
X0239220Y0056691D01*
X0239220Y0057690D02*
X0121110Y0057690D01*
X0121110Y0058688D02*
X0239220Y0058688D01*
X0239220Y0059687D02*
X0121110Y0059687D01*
X0121110Y0060686D02*
X0239220Y0060686D01*
X0239220Y0061684D02*
X0121110Y0061684D01*
X0121110Y0062683D02*
X0239220Y0062683D01*
X0239220Y0063681D02*
X0121110Y0063681D01*
X0121110Y0064680D02*
X0239220Y0064680D01*
X0239220Y0065678D02*
X0121110Y0065678D01*
X0121110Y0066677D02*
X0239220Y0066677D01*
X0239220Y0067675D02*
X0121110Y0067675D01*
X0121110Y0068674D02*
X0239220Y0068674D01*
X0239220Y0069672D02*
X0121110Y0069672D01*
X0121110Y0070671D02*
X0239220Y0070671D01*
X0239220Y0071669D02*
X0121110Y0071669D01*
X0121110Y0072668D02*
X0239220Y0072668D01*
X0239220Y0073666D02*
X0121110Y0073666D01*
X0121110Y0105362D02*
X0121110Y0128984D01*
X0148669Y0128984D01*
X0148669Y0105362D01*
X0121110Y0105362D01*
X0121110Y0105619D02*
X0148669Y0105619D01*
X0148669Y0106617D02*
X0121110Y0106617D01*
X0121110Y0107616D02*
X0148669Y0107616D01*
X0148669Y0108614D02*
X0121110Y0108614D01*
X0121110Y0109613D02*
X0148669Y0109613D01*
X0148669Y0110611D02*
X0121110Y0110611D01*
X0121110Y0111610D02*
X0148669Y0111610D01*
X0148669Y0112608D02*
X0121110Y0112608D01*
X0121110Y0113607D02*
X0148669Y0113607D01*
X0148669Y0114605D02*
X0121110Y0114605D01*
X0121110Y0115604D02*
X0148669Y0115604D01*
X0148669Y0116602D02*
X0121110Y0116602D01*
X0121110Y0117601D02*
X0148669Y0117601D01*
X0148669Y0118599D02*
X0121110Y0118599D01*
X0121110Y0119598D02*
X0148669Y0119598D01*
X0148669Y0120596D02*
X0121110Y0120596D01*
X0121110Y0121595D02*
X0148669Y0121595D01*
X0148669Y0122593D02*
X0121110Y0122593D01*
X0121110Y0123592D02*
X0148669Y0123592D01*
X0148669Y0124590D02*
X0121110Y0124590D01*
X0121110Y0125589D02*
X0148669Y0125589D01*
X0148669Y0126587D02*
X0121110Y0126587D01*
X0121110Y0127586D02*
X0148669Y0127586D01*
X0148669Y0128584D02*
X0121110Y0128584D01*
X0211661Y0128584D02*
X0239220Y0128584D01*
X0239220Y0128984D02*
X0211661Y0128984D01*
X0211661Y0105362D01*
X0239220Y0105362D01*
X0239220Y0128984D01*
X0239220Y0127586D02*
X0211661Y0127586D01*
X0211661Y0126587D02*
X0239220Y0126587D01*
X0239220Y0125589D02*
X0211661Y0125589D01*
X0211661Y0124590D02*
X0239220Y0124590D01*
X0239220Y0123592D02*
X0211661Y0123592D01*
X0211661Y0122593D02*
X0239220Y0122593D01*
X0239220Y0121595D02*
X0211661Y0121595D01*
X0211661Y0120596D02*
X0239220Y0120596D01*
X0239220Y0119598D02*
X0211661Y0119598D01*
X0211661Y0118599D02*
X0239220Y0118599D01*
X0239220Y0117601D02*
X0211661Y0117601D01*
X0211661Y0116602D02*
X0239220Y0116602D01*
X0239220Y0115604D02*
X0211661Y0115604D01*
X0211661Y0114605D02*
X0239220Y0114605D01*
X0239220Y0113607D02*
X0211661Y0113607D01*
X0211661Y0112608D02*
X0239220Y0112608D01*
X0239220Y0111610D02*
X0211661Y0111610D01*
X0211661Y0110611D02*
X0239220Y0110611D01*
X0239220Y0109613D02*
X0211661Y0109613D01*
X0211661Y0108614D02*
X0239220Y0108614D01*
X0239220Y0107616D02*
X0211661Y0107616D01*
X0211661Y0106617D02*
X0239220Y0106617D01*
X0239220Y0105619D02*
X0211661Y0105619D01*
D11*
X0211661Y0117173D02*
X0191976Y0117173D01*
X0168354Y0117173D02*
X0148669Y0117173D01*
D12*
X0152606Y0117173D02*
X0168354Y0117173D01*
X0191976Y0117173D02*
X0207724Y0117173D01*
D13*
X0187685Y0032921D03*
X0180165Y0032921D03*
X0172646Y0032921D03*
D14*
X0172646Y0042370D03*
X0179339Y0042370D03*
X0188630Y0042370D03*
X0195323Y0042370D03*
D15*
X0205756Y0042370D03*
X0215598Y0042961D03*
X0215598Y0049654D03*
X0205756Y0035677D03*
D16*
X0160480Y0026622D03*
D17*
X0130480Y0026622D03*
X0140480Y0026622D03*
X0150480Y0026622D03*
D18*
X0152606Y0109299D03*
X0147882Y0110874D03*
X0145126Y0114811D03*
X0145126Y0119535D03*
X0147882Y0123472D03*
X0152606Y0125047D03*
X0158118Y0125047D03*
X0163236Y0125047D03*
X0168354Y0125047D03*
X0173079Y0123472D03*
X0175835Y0119535D03*
X0184496Y0119535D03*
X0184496Y0114811D03*
X0187252Y0110874D03*
X0191976Y0109299D03*
X0197488Y0109299D03*
X0202606Y0109299D03*
X0207724Y0109299D03*
X0212449Y0110874D03*
X0215205Y0114811D03*
X0215205Y0119535D03*
X0212449Y0123472D03*
X0207724Y0125047D03*
X0202606Y0125047D03*
X0197488Y0125047D03*
X0191976Y0125047D03*
X0187252Y0123472D03*
X0175835Y0114811D03*
X0173079Y0110874D03*
X0168354Y0109299D03*
X0163236Y0109299D03*
X0158118Y0109299D03*
D19*
X0200638Y0042370D03*
M02*
