G75*
%MOIN*%
%OFA0B0*%
%FSLAX25Y25*%
%IPPOS*%
%LPD*%
%AMOC8*
5,1,8,0,0,1.08239X$1,22.5*
%
%ADD10C,0.00000*%
D10*
X0152606Y0113236D02*
X0168354Y0113236D01*
X0168478Y0113238D01*
X0168601Y0113244D01*
X0168725Y0113253D01*
X0168847Y0113267D01*
X0168970Y0113284D01*
X0169092Y0113306D01*
X0169213Y0113331D01*
X0169333Y0113360D01*
X0169452Y0113392D01*
X0169571Y0113429D01*
X0169688Y0113469D01*
X0169803Y0113512D01*
X0169918Y0113560D01*
X0170030Y0113611D01*
X0170141Y0113665D01*
X0170251Y0113723D01*
X0170358Y0113784D01*
X0170464Y0113849D01*
X0170567Y0113917D01*
X0170668Y0113988D01*
X0170767Y0114062D01*
X0170864Y0114139D01*
X0170958Y0114220D01*
X0171049Y0114303D01*
X0171138Y0114389D01*
X0171224Y0114478D01*
X0171307Y0114569D01*
X0171388Y0114663D01*
X0171465Y0114760D01*
X0171539Y0114859D01*
X0171610Y0114960D01*
X0171678Y0115063D01*
X0171743Y0115169D01*
X0171804Y0115276D01*
X0171862Y0115386D01*
X0171916Y0115497D01*
X0171967Y0115609D01*
X0172015Y0115724D01*
X0172058Y0115839D01*
X0172098Y0115956D01*
X0172135Y0116075D01*
X0172167Y0116194D01*
X0172196Y0116314D01*
X0172221Y0116435D01*
X0172243Y0116557D01*
X0172260Y0116680D01*
X0172274Y0116802D01*
X0172283Y0116926D01*
X0172289Y0117049D01*
X0172291Y0117173D01*
X0172289Y0117297D01*
X0172283Y0117420D01*
X0172274Y0117544D01*
X0172260Y0117666D01*
X0172243Y0117789D01*
X0172221Y0117911D01*
X0172196Y0118032D01*
X0172167Y0118152D01*
X0172135Y0118271D01*
X0172098Y0118390D01*
X0172058Y0118507D01*
X0172015Y0118622D01*
X0171967Y0118737D01*
X0171916Y0118849D01*
X0171862Y0118960D01*
X0171804Y0119070D01*
X0171743Y0119177D01*
X0171678Y0119283D01*
X0171610Y0119386D01*
X0171539Y0119487D01*
X0171465Y0119586D01*
X0171388Y0119683D01*
X0171307Y0119777D01*
X0171224Y0119868D01*
X0171138Y0119957D01*
X0171049Y0120043D01*
X0170958Y0120126D01*
X0170864Y0120207D01*
X0170767Y0120284D01*
X0170668Y0120358D01*
X0170567Y0120429D01*
X0170464Y0120497D01*
X0170358Y0120562D01*
X0170251Y0120623D01*
X0170141Y0120681D01*
X0170030Y0120735D01*
X0169918Y0120786D01*
X0169803Y0120834D01*
X0169688Y0120877D01*
X0169571Y0120917D01*
X0169452Y0120954D01*
X0169333Y0120986D01*
X0169213Y0121015D01*
X0169092Y0121040D01*
X0168970Y0121062D01*
X0168847Y0121079D01*
X0168725Y0121093D01*
X0168601Y0121102D01*
X0168478Y0121108D01*
X0168354Y0121110D01*
X0152606Y0121110D01*
X0152482Y0121108D01*
X0152359Y0121102D01*
X0152235Y0121093D01*
X0152113Y0121079D01*
X0151990Y0121062D01*
X0151868Y0121040D01*
X0151747Y0121015D01*
X0151627Y0120986D01*
X0151508Y0120954D01*
X0151389Y0120917D01*
X0151272Y0120877D01*
X0151157Y0120834D01*
X0151042Y0120786D01*
X0150930Y0120735D01*
X0150819Y0120681D01*
X0150709Y0120623D01*
X0150602Y0120562D01*
X0150496Y0120497D01*
X0150393Y0120429D01*
X0150292Y0120358D01*
X0150193Y0120284D01*
X0150096Y0120207D01*
X0150002Y0120126D01*
X0149911Y0120043D01*
X0149822Y0119957D01*
X0149736Y0119868D01*
X0149653Y0119777D01*
X0149572Y0119683D01*
X0149495Y0119586D01*
X0149421Y0119487D01*
X0149350Y0119386D01*
X0149282Y0119283D01*
X0149217Y0119177D01*
X0149156Y0119070D01*
X0149098Y0118960D01*
X0149044Y0118849D01*
X0148993Y0118737D01*
X0148945Y0118622D01*
X0148902Y0118507D01*
X0148862Y0118390D01*
X0148825Y0118271D01*
X0148793Y0118152D01*
X0148764Y0118032D01*
X0148739Y0117911D01*
X0148717Y0117789D01*
X0148700Y0117666D01*
X0148686Y0117544D01*
X0148677Y0117420D01*
X0148671Y0117297D01*
X0148669Y0117173D01*
X0148671Y0117049D01*
X0148677Y0116926D01*
X0148686Y0116802D01*
X0148700Y0116680D01*
X0148717Y0116557D01*
X0148739Y0116435D01*
X0148764Y0116314D01*
X0148793Y0116194D01*
X0148825Y0116075D01*
X0148862Y0115956D01*
X0148902Y0115839D01*
X0148945Y0115724D01*
X0148993Y0115609D01*
X0149044Y0115497D01*
X0149098Y0115386D01*
X0149156Y0115276D01*
X0149217Y0115169D01*
X0149282Y0115063D01*
X0149350Y0114960D01*
X0149421Y0114859D01*
X0149495Y0114760D01*
X0149572Y0114663D01*
X0149653Y0114569D01*
X0149736Y0114478D01*
X0149822Y0114389D01*
X0149911Y0114303D01*
X0150002Y0114220D01*
X0150096Y0114139D01*
X0150193Y0114062D01*
X0150292Y0113988D01*
X0150393Y0113917D01*
X0150496Y0113849D01*
X0150602Y0113784D01*
X0150709Y0113723D01*
X0150819Y0113665D01*
X0150930Y0113611D01*
X0151042Y0113560D01*
X0151157Y0113512D01*
X0151272Y0113469D01*
X0151389Y0113429D01*
X0151508Y0113392D01*
X0151627Y0113360D01*
X0151747Y0113331D01*
X0151868Y0113306D01*
X0151990Y0113284D01*
X0152113Y0113267D01*
X0152235Y0113253D01*
X0152359Y0113244D01*
X0152482Y0113238D01*
X0152606Y0113236D01*
X0191976Y0113236D02*
X0207724Y0113236D01*
X0207848Y0113238D01*
X0207971Y0113244D01*
X0208095Y0113253D01*
X0208217Y0113267D01*
X0208340Y0113284D01*
X0208462Y0113306D01*
X0208583Y0113331D01*
X0208703Y0113360D01*
X0208822Y0113392D01*
X0208941Y0113429D01*
X0209058Y0113469D01*
X0209173Y0113512D01*
X0209288Y0113560D01*
X0209400Y0113611D01*
X0209511Y0113665D01*
X0209621Y0113723D01*
X0209728Y0113784D01*
X0209834Y0113849D01*
X0209937Y0113917D01*
X0210038Y0113988D01*
X0210137Y0114062D01*
X0210234Y0114139D01*
X0210328Y0114220D01*
X0210419Y0114303D01*
X0210508Y0114389D01*
X0210594Y0114478D01*
X0210677Y0114569D01*
X0210758Y0114663D01*
X0210835Y0114760D01*
X0210909Y0114859D01*
X0210980Y0114960D01*
X0211048Y0115063D01*
X0211113Y0115169D01*
X0211174Y0115276D01*
X0211232Y0115386D01*
X0211286Y0115497D01*
X0211337Y0115609D01*
X0211385Y0115724D01*
X0211428Y0115839D01*
X0211468Y0115956D01*
X0211505Y0116075D01*
X0211537Y0116194D01*
X0211566Y0116314D01*
X0211591Y0116435D01*
X0211613Y0116557D01*
X0211630Y0116680D01*
X0211644Y0116802D01*
X0211653Y0116926D01*
X0211659Y0117049D01*
X0211661Y0117173D01*
X0211659Y0117297D01*
X0211653Y0117420D01*
X0211644Y0117544D01*
X0211630Y0117666D01*
X0211613Y0117789D01*
X0211591Y0117911D01*
X0211566Y0118032D01*
X0211537Y0118152D01*
X0211505Y0118271D01*
X0211468Y0118390D01*
X0211428Y0118507D01*
X0211385Y0118622D01*
X0211337Y0118737D01*
X0211286Y0118849D01*
X0211232Y0118960D01*
X0211174Y0119070D01*
X0211113Y0119177D01*
X0211048Y0119283D01*
X0210980Y0119386D01*
X0210909Y0119487D01*
X0210835Y0119586D01*
X0210758Y0119683D01*
X0210677Y0119777D01*
X0210594Y0119868D01*
X0210508Y0119957D01*
X0210419Y0120043D01*
X0210328Y0120126D01*
X0210234Y0120207D01*
X0210137Y0120284D01*
X0210038Y0120358D01*
X0209937Y0120429D01*
X0209834Y0120497D01*
X0209728Y0120562D01*
X0209621Y0120623D01*
X0209511Y0120681D01*
X0209400Y0120735D01*
X0209288Y0120786D01*
X0209173Y0120834D01*
X0209058Y0120877D01*
X0208941Y0120917D01*
X0208822Y0120954D01*
X0208703Y0120986D01*
X0208583Y0121015D01*
X0208462Y0121040D01*
X0208340Y0121062D01*
X0208217Y0121079D01*
X0208095Y0121093D01*
X0207971Y0121102D01*
X0207848Y0121108D01*
X0207724Y0121110D01*
X0191976Y0121110D01*
X0191852Y0121108D01*
X0191729Y0121102D01*
X0191605Y0121093D01*
X0191483Y0121079D01*
X0191360Y0121062D01*
X0191238Y0121040D01*
X0191117Y0121015D01*
X0190997Y0120986D01*
X0190878Y0120954D01*
X0190759Y0120917D01*
X0190642Y0120877D01*
X0190527Y0120834D01*
X0190412Y0120786D01*
X0190300Y0120735D01*
X0190189Y0120681D01*
X0190079Y0120623D01*
X0189972Y0120562D01*
X0189866Y0120497D01*
X0189763Y0120429D01*
X0189662Y0120358D01*
X0189563Y0120284D01*
X0189466Y0120207D01*
X0189372Y0120126D01*
X0189281Y0120043D01*
X0189192Y0119957D01*
X0189106Y0119868D01*
X0189023Y0119777D01*
X0188942Y0119683D01*
X0188865Y0119586D01*
X0188791Y0119487D01*
X0188720Y0119386D01*
X0188652Y0119283D01*
X0188587Y0119177D01*
X0188526Y0119070D01*
X0188468Y0118960D01*
X0188414Y0118849D01*
X0188363Y0118737D01*
X0188315Y0118622D01*
X0188272Y0118507D01*
X0188232Y0118390D01*
X0188195Y0118271D01*
X0188163Y0118152D01*
X0188134Y0118032D01*
X0188109Y0117911D01*
X0188087Y0117789D01*
X0188070Y0117666D01*
X0188056Y0117544D01*
X0188047Y0117420D01*
X0188041Y0117297D01*
X0188039Y0117173D01*
X0188041Y0117049D01*
X0188047Y0116926D01*
X0188056Y0116802D01*
X0188070Y0116680D01*
X0188087Y0116557D01*
X0188109Y0116435D01*
X0188134Y0116314D01*
X0188163Y0116194D01*
X0188195Y0116075D01*
X0188232Y0115956D01*
X0188272Y0115839D01*
X0188315Y0115724D01*
X0188363Y0115609D01*
X0188414Y0115497D01*
X0188468Y0115386D01*
X0188526Y0115276D01*
X0188587Y0115169D01*
X0188652Y0115063D01*
X0188720Y0114960D01*
X0188791Y0114859D01*
X0188865Y0114760D01*
X0188942Y0114663D01*
X0189023Y0114569D01*
X0189106Y0114478D01*
X0189192Y0114389D01*
X0189281Y0114303D01*
X0189372Y0114220D01*
X0189466Y0114139D01*
X0189563Y0114062D01*
X0189662Y0113988D01*
X0189763Y0113917D01*
X0189866Y0113849D01*
X0189972Y0113784D01*
X0190079Y0113723D01*
X0190189Y0113665D01*
X0190300Y0113611D01*
X0190412Y0113560D01*
X0190527Y0113512D01*
X0190642Y0113469D01*
X0190759Y0113429D01*
X0190878Y0113392D01*
X0190997Y0113360D01*
X0191117Y0113331D01*
X0191238Y0113306D01*
X0191360Y0113284D01*
X0191483Y0113267D01*
X0191605Y0113253D01*
X0191729Y0113244D01*
X0191852Y0113238D01*
X0191976Y0113236D01*
M02*
