%
M48
M72
T01C0.01772
T02C0.01969
T03C0.03150
T04C0.04000
T05C0.07874
%
T01
X200638Y42370
T02
X202606Y109299
X197488Y109299
X191976Y109299
X187252Y110874
X184496Y114811
X175835Y114811
X173079Y110874
X168354Y109299
X163236Y109299
X158118Y109299
X152606Y109299
X147882Y110874
X145126Y114811
X145126Y119535
X147882Y123472
X152606Y125047
X158118Y125047
X163236Y125047
X168354Y125047
X173079Y123472
X175835Y119535
X184496Y119535
X187252Y123472
X191976Y125047
X197488Y125047
X202606Y125047
X207724Y125047
X212449Y123472
X215205Y119535
X215205Y114811
X212449Y110874
X207724Y109299
T03
X187685Y32921
X180165Y32921
X172646Y32921
T04
X130480Y26622
X140480Y26622
X150480Y26622
X160480Y26622
T05
X152606Y117173
X168354Y117173
X191976Y117173
X207724Y117173
M30
